%TF.GenerationSoftware,KiCad,Pcbnew,(6.0.5)*%
%TF.CreationDate,2022-08-12T21:43:39+02:00*%
%TF.ProjectId,clarinoid-devboard,636c6172-696e-46f6-9964-2d646576626f,rev?*%
%TF.SameCoordinates,Original*%
%TF.FileFunction,Soldermask,Top*%
%TF.FilePolarity,Negative*%
%FSLAX46Y46*%
G04 Gerber Fmt 4.6, Leading zero omitted, Abs format (unit mm)*
G04 Created by KiCad (PCBNEW (6.0.5)) date 2022-08-12 21:43:39*
%MOMM*%
%LPD*%
G01*
G04 APERTURE LIST*
G04 Aperture macros list*
%AMRoundRect*
0 Rectangle with rounded corners*
0 $1 Rounding radius*
0 $2 $3 $4 $5 $6 $7 $8 $9 X,Y pos of 4 corners*
0 Add a 4 corners polygon primitive as box body*
4,1,4,$2,$3,$4,$5,$6,$7,$8,$9,$2,$3,0*
0 Add four circle primitives for the rounded corners*
1,1,$1+$1,$2,$3*
1,1,$1+$1,$4,$5*
1,1,$1+$1,$6,$7*
1,1,$1+$1,$8,$9*
0 Add four rect primitives between the rounded corners*
20,1,$1+$1,$2,$3,$4,$5,0*
20,1,$1+$1,$4,$5,$6,$7,0*
20,1,$1+$1,$6,$7,$8,$9,0*
20,1,$1+$1,$8,$9,$2,$3,0*%
%AMFreePoly0*
4,1,14,0.354215,0.088284,0.450784,-0.008285,0.462500,-0.036569,0.462500,-0.060000,0.450784,-0.088284,0.422500,-0.100000,-0.422500,-0.100000,-0.450784,-0.088284,-0.462500,-0.060000,-0.462500,0.060000,-0.450784,0.088284,-0.422500,0.100000,0.325931,0.100000,0.354215,0.088284,0.354215,0.088284,$1*%
%AMFreePoly1*
4,1,14,0.450784,0.088284,0.462500,0.060000,0.462500,0.036569,0.450784,0.008285,0.354215,-0.088284,0.325931,-0.100000,-0.422500,-0.100000,-0.450784,-0.088284,-0.462500,-0.060000,-0.462500,0.060000,-0.450784,0.088284,-0.422500,0.100000,0.422500,0.100000,0.450784,0.088284,0.450784,0.088284,$1*%
%AMFreePoly2*
4,1,14,0.088284,0.450784,0.100000,0.422500,0.100000,-0.422500,0.088284,-0.450784,0.060000,-0.462500,-0.060000,-0.462500,-0.088284,-0.450784,-0.100000,-0.422500,-0.100000,0.325931,-0.088284,0.354215,0.008285,0.450784,0.036569,0.462500,0.060000,0.462500,0.088284,0.450784,0.088284,0.450784,$1*%
%AMFreePoly3*
4,1,14,-0.008285,0.450784,0.088284,0.354215,0.100000,0.325931,0.100000,-0.422500,0.088284,-0.450784,0.060000,-0.462500,-0.060000,-0.462500,-0.088284,-0.450784,-0.100000,-0.422500,-0.100000,0.422500,-0.088284,0.450784,-0.060000,0.462500,-0.036569,0.462500,-0.008285,0.450784,-0.008285,0.450784,$1*%
%AMFreePoly4*
4,1,14,0.450784,0.088284,0.462500,0.060000,0.462500,-0.060000,0.450784,-0.088284,0.422500,-0.100000,-0.325931,-0.100000,-0.354215,-0.088284,-0.450784,0.008285,-0.462500,0.036569,-0.462500,0.060000,-0.450784,0.088284,-0.422500,0.100000,0.422500,0.100000,0.450784,0.088284,0.450784,0.088284,$1*%
%AMFreePoly5*
4,1,14,0.450784,0.088284,0.462500,0.060000,0.462500,-0.060000,0.450784,-0.088284,0.422500,-0.100000,-0.422500,-0.100000,-0.450784,-0.088284,-0.462500,-0.060000,-0.462500,-0.036569,-0.450784,-0.008285,-0.354215,0.088284,-0.325931,0.100000,0.422500,0.100000,0.450784,0.088284,0.450784,0.088284,$1*%
%AMFreePoly6*
4,1,14,0.088284,0.450784,0.100000,0.422500,0.100000,-0.325931,0.088284,-0.354215,-0.008285,-0.450784,-0.036569,-0.462500,-0.060000,-0.462500,-0.088284,-0.450784,-0.100000,-0.422500,-0.100000,0.422500,-0.088284,0.450784,-0.060000,0.462500,0.060000,0.462500,0.088284,0.450784,0.088284,0.450784,$1*%
%AMFreePoly7*
4,1,14,0.088284,0.450784,0.100000,0.422500,0.100000,-0.422500,0.088284,-0.450784,0.060000,-0.462500,0.036569,-0.462500,0.008285,-0.450784,-0.088284,-0.354215,-0.100000,-0.325931,-0.100000,0.422500,-0.088284,0.450784,-0.060000,0.462500,0.060000,0.462500,0.088284,0.450784,0.088284,0.450784,$1*%
G04 Aperture macros list end*
%ADD10C,0.775000*%
%ADD11C,1.000000*%
%ADD12C,0.500000*%
%ADD13C,0.500000*%
%ADD14R,1.300000X1.700000*%
%ADD15RoundRect,0.218750X-0.256250X0.218750X-0.256250X-0.218750X0.256250X-0.218750X0.256250X0.218750X0*%
%ADD16RoundRect,0.250000X-0.475000X0.250000X-0.475000X-0.250000X0.475000X-0.250000X0.475000X0.250000X0*%
%ADD17R,1.700000X1.700000*%
%ADD18O,1.700000X1.700000*%
%ADD19RoundRect,0.250000X0.475000X-0.250000X0.475000X0.250000X-0.475000X0.250000X-0.475000X-0.250000X0*%
%ADD20RoundRect,0.250000X0.625000X-0.312500X0.625000X0.312500X-0.625000X0.312500X-0.625000X-0.312500X0*%
%ADD21RoundRect,0.250000X-0.312500X-0.625000X0.312500X-0.625000X0.312500X0.625000X-0.312500X0.625000X0*%
%ADD22C,3.200000*%
%ADD23RoundRect,0.250000X-0.625000X0.312500X-0.625000X-0.312500X0.625000X-0.312500X0.625000X0.312500X0*%
%ADD24RoundRect,0.250000X0.250000X0.475000X-0.250000X0.475000X-0.250000X-0.475000X0.250000X-0.475000X0*%
%ADD25R,0.450000X1.475000*%
%ADD26R,0.950000X0.700000*%
%ADD27R,2.250000X2.850000*%
%ADD28C,1.850000*%
%ADD29C,2.000000*%
%ADD30C,3.450000*%
%ADD31C,2.390000*%
%ADD32R,6.350000X7.340000*%
%ADD33R,3.500000X1.850000*%
%ADD34R,1.000000X0.750000*%
%ADD35RoundRect,0.243750X0.243750X0.456250X-0.243750X0.456250X-0.243750X-0.456250X0.243750X-0.456250X0*%
%ADD36O,1.700000X2.800000*%
%ADD37C,6.200000*%
%ADD38C,0.800000*%
%ADD39C,6.400000*%
%ADD40R,6.400000X6.400000*%
%ADD41R,0.800000X0.300000*%
%ADD42R,0.300000X0.800000*%
%ADD43R,1.800000X1.800000*%
%ADD44FreePoly0,270.000000*%
%ADD45RoundRect,0.050000X-0.050000X0.412500X-0.050000X-0.412500X0.050000X-0.412500X0.050000X0.412500X0*%
%ADD46FreePoly1,270.000000*%
%ADD47FreePoly2,270.000000*%
%ADD48RoundRect,0.050000X-0.412500X0.050000X-0.412500X-0.050000X0.412500X-0.050000X0.412500X0.050000X0*%
%ADD49FreePoly3,270.000000*%
%ADD50FreePoly4,270.000000*%
%ADD51FreePoly5,270.000000*%
%ADD52FreePoly6,270.000000*%
%ADD53FreePoly7,270.000000*%
%ADD54C,0.650000*%
%ADD55R,0.300000X1.150000*%
%ADD56O,1.000000X1.600000*%
%ADD57O,1.000000X2.100000*%
%ADD58RoundRect,0.243750X-0.243750X-0.456250X0.243750X-0.456250X0.243750X0.456250X-0.243750X0.456250X0*%
%ADD59RoundRect,0.250000X0.312500X0.625000X-0.312500X0.625000X-0.312500X-0.625000X0.312500X-0.625000X0*%
%ADD60RoundRect,0.250000X-0.250000X-0.475000X0.250000X-0.475000X0.250000X0.475000X-0.250000X0.475000X0*%
%ADD61R,1.600000X1.600000*%
%ADD62O,1.600000X1.600000*%
%ADD63C,1.800000*%
%ADD64C,1.000000*%
%ADD65R,1.600000X0.700000*%
%ADD66R,1.500000X1.200000*%
%ADD67R,2.200000X1.200000*%
%ADD68R,1.500000X1.600000*%
%ADD69RoundRect,0.100000X-0.637500X-0.100000X0.637500X-0.100000X0.637500X0.100000X-0.637500X0.100000X0*%
%ADD70C,1.650000*%
%ADD71C,1.150000*%
%ADD72R,1.550000X0.300000*%
%ADD73R,2.750000X1.200000*%
%ADD74R,0.450000X0.600000*%
%ADD75R,0.750000X1.000000*%
%ADD76RoundRect,0.150000X-0.512500X-0.150000X0.512500X-0.150000X0.512500X0.150000X-0.512500X0.150000X0*%
%ADD77R,1.650000X1.650000*%
%ADD78O,3.000000X6.000000*%
%ADD79RoundRect,0.150000X0.512500X0.150000X-0.512500X0.150000X-0.512500X-0.150000X0.512500X-0.150000X0*%
%ADD80C,1.600000*%
G04 APERTURE END LIST*
D10*
X359672056Y-32875729D02*
G75*
G03*
X359672056Y-32875729I-387500J0D01*
G01*
D11*
X460339304Y-89570034D02*
X464339304Y-89570034D01*
X464339304Y-89570034D02*
X464339304Y-90570034D01*
X464339304Y-90570034D02*
X460339304Y-90570034D01*
X460339304Y-90570034D02*
X460339304Y-89570034D01*
G36*
X460339304Y-89570034D02*
G01*
X464339304Y-89570034D01*
X464339304Y-90570034D01*
X460339304Y-90570034D01*
X460339304Y-89570034D01*
G37*
D10*
X360072056Y-29275729D02*
G75*
G03*
X360072056Y-29275729I-387500J0D01*
G01*
X358272056Y-31275729D02*
G75*
G03*
X358272056Y-31275729I-387500J0D01*
G01*
D12*
X450843589Y-83440034D02*
X450986446Y-83725748D01*
X450986446Y-84297176D01*
X450843589Y-84582891D01*
X450700732Y-84725748D01*
X450415018Y-84868605D01*
X449557875Y-84868605D01*
X449272161Y-84725748D01*
X449129304Y-84582891D01*
X448986446Y-84297176D01*
X448986446Y-83725748D01*
X449129304Y-83440034D01*
X450986446Y-81725748D02*
X450843589Y-82011462D01*
X450557875Y-82154319D01*
X447986446Y-82154319D01*
X450986446Y-79297176D02*
X449415018Y-79297176D01*
X449129304Y-79440034D01*
X448986446Y-79725748D01*
X448986446Y-80297176D01*
X449129304Y-80582891D01*
X450843589Y-79297176D02*
X450986446Y-79582891D01*
X450986446Y-80297176D01*
X450843589Y-80582891D01*
X450557875Y-80725748D01*
X450272161Y-80725748D01*
X449986446Y-80582891D01*
X449843589Y-80297176D01*
X449843589Y-79582891D01*
X449700732Y-79297176D01*
X450986446Y-77868605D02*
X448986446Y-77868605D01*
X449557875Y-77868605D02*
X449272161Y-77725748D01*
X449129304Y-77582891D01*
X448986446Y-77297176D01*
X448986446Y-77011462D01*
X450986446Y-76011462D02*
X448986446Y-76011462D01*
X447986446Y-76011462D02*
X448129304Y-76154319D01*
X448272161Y-76011462D01*
X448129304Y-75868605D01*
X447986446Y-76011462D01*
X448272161Y-76011462D01*
X448986446Y-74582891D02*
X450986446Y-74582891D01*
X449272161Y-74582891D02*
X449129304Y-74440034D01*
X448986446Y-74154319D01*
X448986446Y-73725748D01*
X449129304Y-73440034D01*
X449415018Y-73297176D01*
X450986446Y-73297176D01*
X450986446Y-71440034D02*
X450843589Y-71725748D01*
X450700732Y-71868605D01*
X450415018Y-72011462D01*
X449557875Y-72011462D01*
X449272161Y-71868605D01*
X449129304Y-71725748D01*
X448986446Y-71440034D01*
X448986446Y-71011462D01*
X449129304Y-70725748D01*
X449272161Y-70582891D01*
X449557875Y-70440034D01*
X450415018Y-70440034D01*
X450700732Y-70582891D01*
X450843589Y-70725748D01*
X450986446Y-71011462D01*
X450986446Y-71440034D01*
X450986446Y-69154319D02*
X448986446Y-69154319D01*
X447986446Y-69154319D02*
X448129304Y-69297176D01*
X448272161Y-69154319D01*
X448129304Y-69011462D01*
X447986446Y-69154319D01*
X448272161Y-69154319D01*
X450986446Y-66440034D02*
X447986446Y-66440034D01*
X450843589Y-66440034D02*
X450986446Y-66725748D01*
X450986446Y-67297176D01*
X450843589Y-67582891D01*
X450700732Y-67725748D01*
X450415018Y-67868605D01*
X449557875Y-67868605D01*
X449272161Y-67725748D01*
X449129304Y-67582891D01*
X448986446Y-67297176D01*
X448986446Y-66725748D01*
X449129304Y-66440034D01*
X448986446Y-63154319D02*
X448986446Y-62011462D01*
X447986446Y-62725748D02*
X450557875Y-62725748D01*
X450843589Y-62582891D01*
X450986446Y-62297176D01*
X450986446Y-62011462D01*
X450843589Y-59868605D02*
X450986446Y-60154319D01*
X450986446Y-60725748D01*
X450843589Y-61011462D01*
X450557875Y-61154319D01*
X449415018Y-61154319D01*
X449129304Y-61011462D01*
X448986446Y-60725748D01*
X448986446Y-60154319D01*
X449129304Y-59868605D01*
X449415018Y-59725748D01*
X449700732Y-59725748D01*
X449986446Y-61154319D01*
X450843589Y-58582891D02*
X450986446Y-58297176D01*
X450986446Y-57725748D01*
X450843589Y-57440034D01*
X450557875Y-57297176D01*
X450415018Y-57297176D01*
X450129304Y-57440034D01*
X449986446Y-57725748D01*
X449986446Y-58154319D01*
X449843589Y-58440034D01*
X449557875Y-58582891D01*
X449415018Y-58582891D01*
X449129304Y-58440034D01*
X448986446Y-58154319D01*
X448986446Y-57725748D01*
X449129304Y-57440034D01*
X448986446Y-56440034D02*
X448986446Y-55297176D01*
X447986446Y-56011462D02*
X450557875Y-56011462D01*
X450843589Y-55868605D01*
X450986446Y-55582891D01*
X450986446Y-55297176D01*
X450986446Y-50725748D02*
X447986446Y-50725748D01*
X450843589Y-50725748D02*
X450986446Y-51011462D01*
X450986446Y-51582891D01*
X450843589Y-51868605D01*
X450700732Y-52011462D01*
X450415018Y-52154319D01*
X449557875Y-52154319D01*
X449272161Y-52011462D01*
X449129304Y-51868605D01*
X448986446Y-51582891D01*
X448986446Y-51011462D01*
X449129304Y-50725748D01*
X450843589Y-48154319D02*
X450986446Y-48440034D01*
X450986446Y-49011462D01*
X450843589Y-49297176D01*
X450557875Y-49440034D01*
X449415018Y-49440034D01*
X449129304Y-49297176D01*
X448986446Y-49011462D01*
X448986446Y-48440034D01*
X449129304Y-48154319D01*
X449415018Y-48011462D01*
X449700732Y-48011462D01*
X449986446Y-49440034D01*
X448986446Y-47011462D02*
X450986446Y-46297176D01*
X448986446Y-45582891D01*
X450986446Y-44440034D02*
X448986446Y-44440034D01*
X447986446Y-44440034D02*
X448129304Y-44582891D01*
X448272161Y-44440034D01*
X448129304Y-44297176D01*
X447986446Y-44440034D01*
X448272161Y-44440034D01*
X450843589Y-41725748D02*
X450986446Y-42011462D01*
X450986446Y-42582891D01*
X450843589Y-42868605D01*
X450700732Y-43011462D01*
X450415018Y-43154319D01*
X449557875Y-43154319D01*
X449272161Y-43011462D01*
X449129304Y-42868605D01*
X448986446Y-42582891D01*
X448986446Y-42011462D01*
X449129304Y-41725748D01*
X450843589Y-39297176D02*
X450986446Y-39582891D01*
X450986446Y-40154319D01*
X450843589Y-40440034D01*
X450557875Y-40582891D01*
X449415018Y-40582891D01*
X449129304Y-40440034D01*
X448986446Y-40154319D01*
X448986446Y-39582891D01*
X449129304Y-39297176D01*
X449415018Y-39154319D01*
X449700732Y-39154319D01*
X449986446Y-40582891D01*
X448272161Y-35725748D02*
X448129304Y-35582891D01*
X447986446Y-35297176D01*
X447986446Y-34582891D01*
X448129304Y-34297176D01*
X448272161Y-34154319D01*
X448557875Y-34011462D01*
X448843589Y-34011462D01*
X449272161Y-34154319D01*
X450986446Y-35868605D01*
X450986446Y-34011462D01*
%TO.C,H1*%
G36*
X441639304Y-95350034D02*
G01*
X448439304Y-95350034D01*
X448439304Y-102050034D01*
X441639304Y-102050034D01*
X441639304Y-95350034D01*
G37*
%TD*%
D13*
%TO.C,U15*%
X410764304Y-117100034D03*
X409264304Y-114600034D03*
X411514304Y-117100034D03*
X409264304Y-117100034D03*
X411514304Y-114600034D03*
X410764304Y-114600034D03*
X410014304Y-117100034D03*
X410014304Y-114600034D03*
%TD*%
%TO.C,U14*%
X458389334Y-41475034D03*
X455889334Y-42975034D03*
X458389334Y-40725034D03*
X458389334Y-42975034D03*
X455889334Y-40725034D03*
X455889334Y-41475034D03*
X458389334Y-42225034D03*
X455889334Y-42225034D03*
%TD*%
%TO.C,U13*%
X458389304Y-16475034D03*
X455889304Y-17975034D03*
X458389304Y-15725034D03*
X458389304Y-17975034D03*
X455889304Y-15725034D03*
X455889304Y-16475034D03*
X458389304Y-17225034D03*
X455889304Y-17225034D03*
%TD*%
%TO.C,U11*%
X458389304Y-100475034D03*
X455889304Y-101975034D03*
X458389304Y-99725034D03*
X458389304Y-101975034D03*
X455889304Y-99725034D03*
X455889304Y-100475034D03*
X458389304Y-101225034D03*
X455889304Y-101225034D03*
%TD*%
%TO.C,U10*%
X345514304Y-117100034D03*
X344014304Y-114600034D03*
X346264304Y-117100034D03*
X344014304Y-117100034D03*
X346264304Y-114600034D03*
X345514304Y-114600034D03*
X344764304Y-117100034D03*
X344764304Y-114600034D03*
%TD*%
%TO.C,U9*%
X442514304Y-117100034D03*
X441014304Y-114600034D03*
X443264304Y-117100034D03*
X441014304Y-117100034D03*
X443264304Y-114600034D03*
X442514304Y-114600034D03*
X441764304Y-117100034D03*
X441764304Y-114600034D03*
%TD*%
D14*
%TO.C,D12*%
X357526804Y-154850000D03*
X361026804Y-154850000D03*
%TD*%
D15*
%TO.C,D5*%
X384739304Y-95600034D03*
X384739304Y-97175034D03*
%TD*%
D16*
%TO.C,C4*%
X353084556Y-35125729D03*
X353084556Y-37025729D03*
%TD*%
D17*
%TO.C,U38*%
X406539304Y-91250034D03*
D18*
X403999304Y-91250034D03*
X401459304Y-91250034D03*
%TD*%
D19*
%TO.C,C21*%
X422789304Y-72150034D03*
X422789304Y-70250034D03*
%TD*%
D15*
%TO.C,D7*%
X383139304Y-95600034D03*
X383139304Y-97175034D03*
%TD*%
D20*
%TO.C,R35*%
X384339304Y-93850034D03*
X384339304Y-90925034D03*
%TD*%
D21*
%TO.C,R40*%
X343876804Y-60350034D03*
X346801804Y-60350034D03*
%TD*%
D22*
%TO.C,H15*%
X426129304Y-8440034D03*
%TD*%
%TO.C,H10*%
X493439304Y-177250034D03*
%TD*%
D17*
%TO.C,J7*%
X461519304Y-144260034D03*
D18*
X461519304Y-141720034D03*
%TD*%
D16*
%TO.C,C1*%
X348339304Y-151000000D03*
X348339304Y-152900000D03*
%TD*%
D19*
%TO.C,C23*%
X426989304Y-72150034D03*
X426989304Y-70250034D03*
%TD*%
D23*
%TO.C,R10*%
X462939304Y-107457534D03*
X462939304Y-110382534D03*
%TD*%
D24*
%TO.C,C14*%
X369684556Y-29675729D03*
X367784556Y-29675729D03*
%TD*%
D19*
%TO.C,C29*%
X359539304Y-152900000D03*
X359539304Y-151000000D03*
%TD*%
%TO.C,C25*%
X476938304Y-15472534D03*
X476938304Y-13572534D03*
%TD*%
D15*
%TO.C,D9*%
X379939304Y-95600034D03*
X379939304Y-97175034D03*
%TD*%
D19*
%TO.C,C18*%
X461179304Y-84691034D03*
X461179304Y-82791034D03*
%TD*%
%TO.C,C20*%
X420689304Y-72150034D03*
X420689304Y-70250034D03*
%TD*%
D17*
%TO.C,J33*%
X352139304Y-123120034D03*
D18*
X352139304Y-120580034D03*
%TD*%
D25*
%TO.C,IC1*%
X345864304Y-94788034D03*
X346514304Y-94788034D03*
X347164304Y-94788034D03*
X347814304Y-94788034D03*
X348464304Y-94788034D03*
X349114304Y-94788034D03*
X349764304Y-94788034D03*
X350414304Y-94788034D03*
X350414304Y-88912034D03*
X349764304Y-88912034D03*
X349114304Y-88912034D03*
X348464304Y-88912034D03*
X347814304Y-88912034D03*
X347164304Y-88912034D03*
X346514304Y-88912034D03*
X345864304Y-88912034D03*
%TD*%
D20*
%TO.C,R19*%
X368184556Y-54138229D03*
X368184556Y-51213229D03*
%TD*%
D22*
%TO.C,H7*%
X334729304Y-143360034D03*
%TD*%
%TO.C,H14*%
X429629304Y-100440034D03*
%TD*%
D13*
%TO.C,U53*%
X375889304Y-149100034D03*
X376639304Y-146600034D03*
X377389304Y-149100034D03*
X378139304Y-146600034D03*
X375889304Y-146600034D03*
X376639304Y-149100034D03*
X377389304Y-146600034D03*
X378139304Y-149100034D03*
%TD*%
D17*
%TO.C,U2*%
X445709304Y-155784034D03*
D18*
X448249304Y-155784034D03*
X450789304Y-155784034D03*
X453329304Y-155784034D03*
X455869304Y-155784034D03*
X458409304Y-155784034D03*
X460949304Y-155784034D03*
X463489304Y-155784034D03*
X466029304Y-155784034D03*
X468569304Y-155784034D03*
X471109304Y-155784034D03*
X473649304Y-155784034D03*
X476189304Y-155784034D03*
X478729304Y-155784034D03*
X481269304Y-155784034D03*
X483809304Y-155784034D03*
X486349304Y-155784034D03*
X488889304Y-155784034D03*
X491429304Y-155784034D03*
X493969304Y-155784034D03*
%TD*%
D17*
%TO.C,J45*%
X438311804Y-108851034D03*
D18*
X440851804Y-108851034D03*
X443391804Y-108851034D03*
X445931804Y-108851034D03*
X448471804Y-108851034D03*
X451011804Y-108851034D03*
%TD*%
D26*
%TO.C,IC2*%
X459239304Y-100945034D03*
X459239304Y-102215034D03*
X459239304Y-103485034D03*
X459239304Y-104755034D03*
X465189304Y-104755034D03*
X465189304Y-103485034D03*
X465189304Y-102215034D03*
X465189304Y-100945034D03*
D27*
X462214304Y-102850034D03*
%TD*%
D16*
%TO.C,C12*%
X348684556Y-32825729D03*
X348684556Y-34725729D03*
%TD*%
D28*
%TO.C,SW4*%
X362139304Y-106350034D03*
X371139304Y-106350034D03*
D29*
X369139304Y-100100034D03*
X369139304Y-112600034D03*
X364139304Y-100100034D03*
X364139304Y-112600034D03*
%TD*%
D16*
%TO.C,C26*%
X352539304Y-151000000D03*
X352539304Y-152900000D03*
%TD*%
D30*
%TO.C,BT1*%
X484973602Y-128175179D03*
X468973602Y-72975179D03*
D31*
X484973602Y-64645179D03*
D32*
X476973602Y-61245179D03*
X476973602Y-139905179D03*
%TD*%
D17*
%TO.C,J48*%
X467169304Y-28630034D03*
D18*
X469709304Y-28630034D03*
X472249304Y-28630034D03*
X474789304Y-28630034D03*
%TD*%
D17*
%TO.C,J3*%
X431509304Y-151810034D03*
D18*
X428969304Y-151810034D03*
X426429304Y-151810034D03*
X423889304Y-151810034D03*
%TD*%
D33*
%TO.C,L1*%
X462454304Y-92756034D03*
X462454304Y-87156034D03*
%TD*%
D19*
%TO.C,C27*%
X350984556Y-55625729D03*
X350984556Y-53725729D03*
%TD*%
D23*
%TO.C,R4*%
X474638304Y-15460034D03*
X474638304Y-18385034D03*
%TD*%
D17*
%TO.C,J30*%
X418549304Y-127850034D03*
D18*
X418549304Y-125310034D03*
X418549304Y-122770034D03*
X418549304Y-120230034D03*
%TD*%
D34*
%TO.C,SW6*%
X361539304Y-157675000D03*
X361539304Y-161425000D03*
X367539304Y-157675000D03*
X367539304Y-161425000D03*
%TD*%
D28*
%TO.C,SW3*%
X357139304Y-106350034D03*
X348139304Y-106350034D03*
D29*
X355139304Y-100100034D03*
X355139304Y-112600034D03*
X350139304Y-100100034D03*
X350139304Y-112600034D03*
%TD*%
D21*
%TO.C,R41*%
X351876804Y-60450034D03*
X354801804Y-60450034D03*
%TD*%
D35*
%TO.C,D1*%
X464854304Y-130956867D03*
X462979304Y-130956867D03*
%TD*%
D13*
%TO.C,U50*%
X418139342Y-133100068D03*
X417389342Y-133100068D03*
X416639342Y-130600068D03*
X416639342Y-133100068D03*
X415889342Y-133100068D03*
X418139342Y-130600068D03*
X417389342Y-130600068D03*
X415889342Y-130600068D03*
%TD*%
D24*
%TO.C,C15*%
X463889304Y-71020034D03*
X461989304Y-71020034D03*
%TD*%
D36*
%TO.C,J10*%
X332384556Y-51675729D03*
X334834556Y-49675729D03*
X338534556Y-51675729D03*
X340434556Y-49675729D03*
X344184556Y-51675729D03*
%TD*%
D17*
%TO.C,J43*%
X399629304Y-7440034D03*
D18*
X399629304Y-9980034D03*
X399629304Y-12520034D03*
X399629304Y-15060034D03*
X399629304Y-17600034D03*
X399629304Y-20140034D03*
X399629304Y-22680034D03*
X399629304Y-25220034D03*
X399629304Y-27760034D03*
X399629304Y-30300034D03*
X399629304Y-32840034D03*
X399629304Y-35380034D03*
X399629304Y-37920034D03*
X399629304Y-40460034D03*
X399629304Y-43000034D03*
X399629304Y-45540034D03*
X399629304Y-48080034D03*
X399629304Y-50620034D03*
X399629304Y-53160034D03*
X399629304Y-55700034D03*
%TD*%
D37*
%TO.C,H4*%
X373886659Y-159705000D03*
%TD*%
D38*
%TO.C,H2*%
X340336360Y-91652978D03*
X336942248Y-91652978D03*
X338639304Y-95750034D03*
X336239304Y-93350034D03*
X336942248Y-95047090D03*
X341039304Y-93350034D03*
X338639304Y-90950034D03*
X340336360Y-95047090D03*
D39*
X338639304Y-93350034D03*
%TD*%
D21*
%TO.C,R7*%
X382939304Y-17635034D03*
X385864304Y-17635034D03*
%TD*%
D13*
%TO.C,U56*%
X472389304Y-33100034D03*
X470139304Y-30600034D03*
X470889304Y-33100034D03*
X471639304Y-33100034D03*
X470889304Y-30600034D03*
X472389304Y-30600034D03*
X471639304Y-30600034D03*
X470139304Y-33100034D03*
%TD*%
%TO.C,U65*%
X412889304Y-169350034D03*
X415389304Y-169350034D03*
X412889304Y-170850034D03*
X412889304Y-170100034D03*
X415389304Y-170850034D03*
X415389304Y-170100034D03*
X412889304Y-168600034D03*
X415389304Y-168600034D03*
%TD*%
%TO.C,U49*%
X443639304Y-146600034D03*
X445139304Y-146600034D03*
X444389304Y-149100034D03*
X442889304Y-149100034D03*
X444389304Y-146600034D03*
X442889304Y-146600034D03*
X445139304Y-149100034D03*
X443639304Y-149100034D03*
%TD*%
D40*
%TO.C,H1*%
X445239304Y-98850034D03*
%TD*%
D17*
%TO.C,J46*%
X460139304Y-10850034D03*
D18*
X460139304Y-13390034D03*
X460139304Y-15930034D03*
X460139304Y-18470034D03*
X460139304Y-21010034D03*
X460139304Y-23550034D03*
%TD*%
D17*
%TO.C,J47*%
X481139304Y-24820034D03*
D18*
X481139304Y-22280034D03*
X481139304Y-19740034D03*
X481139304Y-17200034D03*
X481139304Y-14660034D03*
X481139304Y-12120034D03*
%TD*%
D24*
%TO.C,C8*%
X360134556Y-23875729D03*
X358234556Y-23875729D03*
%TD*%
D19*
%TO.C,C5*%
X364784556Y-37025729D03*
X364784556Y-35125729D03*
%TD*%
%TO.C,C9*%
X348684556Y-31225729D03*
X348684556Y-29325729D03*
%TD*%
D17*
%TO.C,J42*%
X417179304Y-178725034D03*
D18*
X417179304Y-176185034D03*
X417179304Y-173645034D03*
X417179304Y-171105034D03*
X417179304Y-168565034D03*
X417179304Y-166025034D03*
X417179304Y-163485034D03*
X417179304Y-160945034D03*
%TD*%
D17*
%TO.C,J44*%
X427569304Y-84700034D03*
D18*
X425029304Y-84700034D03*
X422489304Y-84700034D03*
X419949304Y-84700034D03*
X417409304Y-84700034D03*
X414869304Y-84700034D03*
X412329304Y-84700034D03*
X409789304Y-84700034D03*
%TD*%
D17*
%TO.C,J5*%
X341539304Y-63325034D03*
D18*
X344079304Y-63325034D03*
X346619304Y-63325034D03*
X349159304Y-63325034D03*
%TD*%
D41*
%TO.C,IC3*%
X472139304Y-43380034D03*
X472139304Y-42880034D03*
X472139304Y-42380034D03*
X472139304Y-41880034D03*
D42*
X471389304Y-41130034D03*
X470889304Y-41130034D03*
X470389304Y-41130034D03*
X469889304Y-41130034D03*
D41*
X469139304Y-41880034D03*
X469139304Y-42380034D03*
X469139304Y-42880034D03*
X469139304Y-43380034D03*
D42*
X469889304Y-44130034D03*
X470389304Y-44130034D03*
X470889304Y-44130034D03*
X471389304Y-44130034D03*
D43*
X470639304Y-42630034D03*
%TD*%
D44*
%TO.C,U45*%
X471929304Y-19672534D03*
D45*
X471529304Y-19672534D03*
X471129304Y-19672534D03*
X470729304Y-19672534D03*
D46*
X470329304Y-19672534D03*
D47*
X469741804Y-20260034D03*
D48*
X469741804Y-20660034D03*
X469741804Y-21060034D03*
X469741804Y-21460034D03*
D49*
X469741804Y-21860034D03*
D50*
X470329304Y-22447534D03*
D45*
X470729304Y-22447534D03*
X471129304Y-22447534D03*
X471529304Y-22447534D03*
D51*
X471929304Y-22447534D03*
D52*
X472516804Y-21860034D03*
D48*
X472516804Y-21460034D03*
X472516804Y-21060034D03*
X472516804Y-20660034D03*
D53*
X472516804Y-20260034D03*
%TD*%
D17*
%TO.C,J50*%
X460139304Y-34850034D03*
D18*
X460139304Y-37390034D03*
X460139304Y-39930034D03*
X460139304Y-42470034D03*
X460139304Y-45010034D03*
X460139304Y-47550034D03*
%TD*%
D54*
%TO.C,J2*%
X390329304Y-11155034D03*
X384549304Y-11155034D03*
D55*
X390789304Y-12220034D03*
X389989304Y-12220034D03*
X388689304Y-12220034D03*
X387689304Y-12220034D03*
X387189304Y-12220034D03*
X386189304Y-12220034D03*
X384889304Y-12220034D03*
X384089304Y-12220034D03*
X384389304Y-12220034D03*
X385189304Y-12220034D03*
X385689304Y-12220034D03*
X386689304Y-12220034D03*
X388189304Y-12220034D03*
X389189304Y-12220034D03*
X389689304Y-12220034D03*
X390489304Y-12220034D03*
D56*
X391759304Y-7475034D03*
X383119304Y-7475034D03*
D57*
X391759304Y-11655034D03*
X383119304Y-11655034D03*
%TD*%
D15*
%TO.C,D8*%
X381539304Y-95600034D03*
X381539304Y-97175034D03*
%TD*%
D58*
%TO.C,D2*%
X462979304Y-128741034D03*
X464854304Y-128741034D03*
%TD*%
D59*
%TO.C,R6*%
X353547056Y-32075729D03*
X350622056Y-32075729D03*
%TD*%
D28*
%TO.C,SW2*%
X334139304Y-106350034D03*
X343139304Y-106350034D03*
D29*
X341139304Y-100100034D03*
X341139304Y-112600034D03*
X336139304Y-100100034D03*
X336139304Y-112600034D03*
%TD*%
D19*
%TO.C,C30*%
X361639304Y-152900000D03*
X361639304Y-151000000D03*
%TD*%
D29*
%TO.C,TP3*%
X351193556Y-20015729D03*
%TD*%
D22*
%TO.C,H11*%
X470639304Y-11850034D03*
%TD*%
D17*
%TO.C,U3*%
X445709304Y-171024034D03*
D18*
X448249304Y-171024034D03*
X450789304Y-171024034D03*
X453329304Y-171024034D03*
X455869304Y-171024034D03*
X458409304Y-171024034D03*
X460949304Y-171024034D03*
X463489304Y-171024034D03*
X466029304Y-171024034D03*
X468569304Y-171024034D03*
X471109304Y-171024034D03*
X473649304Y-171024034D03*
X476189304Y-171024034D03*
X478729304Y-171024034D03*
X481269304Y-171024034D03*
X483809304Y-171024034D03*
X486349304Y-171024034D03*
X488889304Y-171024034D03*
X491429304Y-171024034D03*
X493969304Y-171024034D03*
%TD*%
D19*
%TO.C,C32*%
X474069304Y-41830034D03*
X474069304Y-39930034D03*
%TD*%
D24*
%TO.C,C24*%
X469889304Y-16550034D03*
X467989304Y-16550034D03*
%TD*%
D17*
%TO.C,J52*%
X430629304Y-89940034D03*
D18*
X428089304Y-89940034D03*
X425549304Y-89940034D03*
X423009304Y-89940034D03*
X420469304Y-89940034D03*
X417929304Y-89940034D03*
%TD*%
D29*
%TO.C,TP6*%
X364433556Y-22123229D03*
%TD*%
D17*
%TO.C,J40*%
X411099304Y-151029298D03*
D18*
X411099304Y-153569298D03*
X411099304Y-156109298D03*
X411099304Y-158649298D03*
X411099304Y-161189298D03*
X411099304Y-163729298D03*
X411099304Y-166269298D03*
X411099304Y-168809298D03*
%TD*%
D60*
%TO.C,C11*%
X364284556Y-29675729D03*
X366184556Y-29675729D03*
%TD*%
D20*
%TO.C,R34*%
X386739304Y-93850034D03*
X386739304Y-90925034D03*
%TD*%
D19*
%TO.C,C6*%
X362684556Y-37025729D03*
X362684556Y-35125729D03*
%TD*%
D22*
%TO.C,H8*%
X452549304Y-120340034D03*
%TD*%
D61*
%TO.C,U8*%
X361784556Y-54275729D03*
D62*
X361784556Y-51735729D03*
X361784556Y-49195729D03*
X361784556Y-46655729D03*
X354164556Y-46655729D03*
X354164556Y-49195729D03*
X354164556Y-51735729D03*
X354164556Y-54275729D03*
%TD*%
D63*
%TO.C,R13*%
X336199640Y-9751424D03*
X336199640Y-12251424D03*
X336199640Y-14751424D03*
X338699640Y-9751424D03*
X338699640Y-12251424D03*
X338699640Y-14751424D03*
X344949640Y-9751424D03*
X344949640Y-14751424D03*
%TD*%
D19*
%TO.C,C17*%
X418589304Y-72150034D03*
X418589304Y-70250034D03*
%TD*%
D22*
%TO.C,H12*%
X470639304Y-35850034D03*
%TD*%
D16*
%TO.C,C2*%
X350439304Y-151000000D03*
X350439304Y-152900000D03*
%TD*%
D21*
%TO.C,R21*%
X346984556Y-42775729D03*
X349909556Y-42775729D03*
%TD*%
D38*
%TO.C,H5*%
X447414748Y-21553978D03*
D39*
X449111804Y-23251034D03*
D38*
X447414748Y-24948090D03*
X451511804Y-23251034D03*
X446711804Y-23251034D03*
X450808860Y-21553978D03*
X449111804Y-25651034D03*
X450808860Y-24948090D03*
X449111804Y-20851034D03*
%TD*%
D58*
%TO.C,D4*%
X462979304Y-124309368D03*
X464854304Y-124309368D03*
%TD*%
D20*
%TO.C,R37*%
X379539304Y-93850034D03*
X379539304Y-90925034D03*
%TD*%
%TO.C,R22*%
X350584556Y-51938229D03*
X350584556Y-49013229D03*
%TD*%
D22*
%TO.C,H9*%
X334839304Y-152450000D03*
%TD*%
D64*
%TO.C,J38*%
X335091553Y-168900000D03*
X335091553Y-160900000D03*
D65*
X346091553Y-168100000D03*
X346091553Y-167000000D03*
X346091553Y-165900000D03*
X346091553Y-164800000D03*
X346091553Y-163700000D03*
X346091553Y-162600000D03*
X346091553Y-161500000D03*
X346091553Y-160400000D03*
X346091553Y-159300000D03*
D66*
X345091553Y-158100000D03*
D67*
X335491553Y-158100000D03*
X335491553Y-173600000D03*
D68*
X345091553Y-172700000D03*
%TD*%
D59*
%TO.C,R8*%
X391164304Y-17635034D03*
X388239304Y-17635034D03*
%TD*%
D17*
%TO.C,J34*%
X469139304Y-59440034D03*
D18*
X466599304Y-59440034D03*
X464059304Y-59440034D03*
X461519304Y-59440034D03*
%TD*%
D29*
%TO.C,TP8*%
X351284556Y-23375729D03*
%TD*%
D59*
%TO.C,R14*%
X355639304Y-154850000D03*
X352714304Y-154850000D03*
%TD*%
D23*
%TO.C,R11*%
X463379304Y-81678534D03*
X463379304Y-84603534D03*
%TD*%
D17*
%TO.C,J31*%
X377739304Y-7150034D03*
D18*
X375199304Y-7150034D03*
X372659304Y-7150034D03*
X370119304Y-7150034D03*
%TD*%
D59*
%TO.C,R3*%
X369647056Y-36675729D03*
X366722056Y-36675729D03*
%TD*%
D60*
%TO.C,C13*%
X367784556Y-26668229D03*
X369684556Y-26668229D03*
%TD*%
D36*
%TO.C,J1*%
X332384556Y-27375729D03*
X334834556Y-25375729D03*
X338534556Y-27375729D03*
X340434556Y-25375729D03*
X344184556Y-27375729D03*
%TD*%
D21*
%TO.C,R15*%
X348876804Y-167650000D03*
X351801804Y-167650000D03*
%TD*%
D59*
%TO.C,R1*%
X369647056Y-31875729D03*
X366722056Y-31875729D03*
%TD*%
D17*
%TO.C,J49*%
X467169304Y-52630034D03*
D18*
X469709304Y-52630034D03*
X472249304Y-52630034D03*
X474789304Y-52630034D03*
%TD*%
D13*
%TO.C,U52*%
X478639304Y-146600034D03*
X479389304Y-146600034D03*
X480139304Y-146600034D03*
X479389304Y-149100034D03*
X478639304Y-149100034D03*
X480139304Y-149100034D03*
X477889304Y-146600034D03*
X477889304Y-149100034D03*
%TD*%
D17*
%TO.C,J37*%
X453549304Y-143470034D03*
D18*
X451009304Y-143470034D03*
%TD*%
D16*
%TO.C,C3*%
X355184556Y-35125729D03*
X355184556Y-37025729D03*
%TD*%
D13*
%TO.C,U60*%
X472389304Y-57100034D03*
X472389304Y-54600034D03*
X470889304Y-57100034D03*
X470889304Y-54600034D03*
X471639304Y-57100034D03*
X470139304Y-54600034D03*
X471639304Y-54600034D03*
X470139304Y-57100034D03*
%TD*%
D69*
%TO.C,U1*%
X355922056Y-27750729D03*
X355922056Y-28400729D03*
X355922056Y-29050729D03*
X355922056Y-29700729D03*
X355922056Y-30350729D03*
X355922056Y-31000729D03*
X355922056Y-31650729D03*
X355922056Y-32300729D03*
X355922056Y-32950729D03*
X355922056Y-33600729D03*
X361647056Y-33600729D03*
X361647056Y-32950729D03*
X361647056Y-32300729D03*
X361647056Y-31650729D03*
X361647056Y-31000729D03*
X361647056Y-30350729D03*
X361647056Y-29700729D03*
X361647056Y-29050729D03*
X361647056Y-28400729D03*
X361647056Y-27750729D03*
%TD*%
D13*
%TO.C,U55*%
X349389304Y-149100034D03*
X348639304Y-149100034D03*
X348639304Y-146600034D03*
X350139304Y-146600034D03*
X347889304Y-149100034D03*
X347889304Y-146600034D03*
X350139304Y-149100034D03*
X349389304Y-146600034D03*
%TD*%
D35*
%TO.C,D3*%
X464854304Y-126525201D03*
X462979304Y-126525201D03*
%TD*%
D17*
%TO.C,J12*%
X341039304Y-69325034D03*
D18*
X343579304Y-69325034D03*
X346119304Y-69325034D03*
X348659304Y-69325034D03*
X351199304Y-69325034D03*
X353739304Y-69325034D03*
X356279304Y-69325034D03*
%TD*%
D17*
%TO.C,J36*%
X368729304Y-135850034D03*
D18*
X368729304Y-138390034D03*
X368729304Y-140930034D03*
X368729304Y-143470034D03*
%TD*%
D17*
%TO.C,J32*%
X370119304Y-91970034D03*
D18*
X370119304Y-89430034D03*
%TD*%
D22*
%TO.C,H6*%
X484649304Y-143260034D03*
%TD*%
D60*
%TO.C,C28*%
X348789304Y-164950000D03*
X350689304Y-164950000D03*
%TD*%
D28*
%TO.C,SW5*%
X376139304Y-106350034D03*
X385139304Y-106350034D03*
D29*
X383139304Y-100100034D03*
X383139304Y-112600034D03*
X378139304Y-100100034D03*
X378139304Y-112600034D03*
%TD*%
D17*
%TO.C,J8*%
X412849304Y-96970034D03*
D18*
X412849304Y-99510034D03*
X412849304Y-102050034D03*
X412849304Y-104590034D03*
%TD*%
D19*
%TO.C,C31*%
X363739304Y-152900000D03*
X363739304Y-151000000D03*
%TD*%
D24*
%TO.C,C10*%
X366184556Y-26668229D03*
X364284556Y-26668229D03*
%TD*%
D20*
%TO.C,R36*%
X381939304Y-93850034D03*
X381939304Y-90925034D03*
%TD*%
D22*
%TO.C,H13*%
X393249304Y-90970034D03*
%TD*%
D36*
%TO.C,J11*%
X332370343Y-39525729D03*
X334820343Y-37525729D03*
X338520343Y-39525729D03*
X340420343Y-37525729D03*
X344170343Y-39525729D03*
%TD*%
D17*
%TO.C,J6*%
X451011804Y-8851034D03*
D18*
X448471804Y-8851034D03*
X445931804Y-8851034D03*
X443391804Y-8851034D03*
X440851804Y-8851034D03*
X438311804Y-8851034D03*
%TD*%
D21*
%TO.C,R9*%
X460976804Y-66620034D03*
X463901804Y-66620034D03*
%TD*%
D70*
%TO.C,U40*%
X393886659Y-173705000D03*
D71*
X393886659Y-153705000D03*
D72*
X399161659Y-154455000D03*
X391611659Y-154705000D03*
X399161659Y-154955000D03*
X391611659Y-155205000D03*
X399161659Y-155455000D03*
X391611659Y-155705000D03*
X399161659Y-155955000D03*
X391611659Y-156205000D03*
X399161659Y-156455000D03*
X391611659Y-156705000D03*
X399161659Y-156955000D03*
X391611659Y-157205000D03*
X399161659Y-157455000D03*
X391611659Y-157705000D03*
X399161659Y-157955000D03*
X391611659Y-158205000D03*
X399161659Y-158455000D03*
X391611659Y-158705000D03*
X399161659Y-158955000D03*
X391611659Y-159205000D03*
X399161659Y-159455000D03*
X391611659Y-159705000D03*
X399161659Y-159955000D03*
X391611659Y-162205000D03*
X399161659Y-162455000D03*
X391611659Y-162705000D03*
X399161659Y-162955000D03*
X391611659Y-163205000D03*
X399161659Y-163455000D03*
X391611659Y-163705000D03*
X399161659Y-163955000D03*
X391611659Y-164205000D03*
X399161659Y-164455000D03*
X391611659Y-164705000D03*
X399161659Y-164955000D03*
X391611659Y-165205000D03*
X399161659Y-165455000D03*
X391611659Y-165705000D03*
X399161659Y-165955000D03*
X391611659Y-166205000D03*
X399161659Y-166455000D03*
X391611659Y-166705000D03*
X399161659Y-166955000D03*
X391611659Y-167205000D03*
X399161659Y-167455000D03*
X391611659Y-167705000D03*
X399161659Y-167955000D03*
X391611659Y-168205000D03*
X399161659Y-168455000D03*
X391611659Y-168705000D03*
X399161659Y-168955000D03*
X391611659Y-169205000D03*
X399161659Y-169455000D03*
X391611659Y-169705000D03*
X399161659Y-169955000D03*
X391611659Y-170205000D03*
X399161659Y-170455000D03*
X391611659Y-170705000D03*
X399161659Y-170955000D03*
X391611659Y-171205000D03*
X399161659Y-171455000D03*
X391611659Y-171705000D03*
X399161659Y-171955000D03*
X391611659Y-172205000D03*
X399161659Y-172455000D03*
X391611659Y-172705000D03*
X399161659Y-172955000D03*
D73*
X398386659Y-153355000D03*
X398386659Y-174055000D03*
%TD*%
D74*
%TO.C,D6*%
X364684556Y-51525729D03*
X364684556Y-49425729D03*
%TD*%
D59*
%TO.C,R5*%
X353547056Y-29675729D03*
X350622056Y-29675729D03*
%TD*%
D38*
%TO.C,H3*%
X357942248Y-11152978D03*
X361336360Y-14547090D03*
X359639304Y-10450034D03*
X362039304Y-12850034D03*
X357239304Y-12850034D03*
X359639304Y-15250034D03*
D39*
X359639304Y-12850034D03*
D38*
X361336360Y-11152978D03*
X357942248Y-14547090D03*
%TD*%
D17*
%TO.C,J53*%
X416659304Y-110940034D03*
D18*
X419199304Y-110940034D03*
X421739304Y-110940034D03*
X424279304Y-110940034D03*
X426819304Y-110940034D03*
X429359304Y-110940034D03*
%TD*%
D19*
%TO.C,C22*%
X424889304Y-72150034D03*
X424889304Y-70250034D03*
%TD*%
D59*
%TO.C,R2*%
X369647056Y-34275729D03*
X366722056Y-34275729D03*
%TD*%
D21*
%TO.C,R12*%
X465066804Y-19260034D03*
X467991804Y-19260034D03*
%TD*%
D60*
%TO.C,C19*%
X463029304Y-79741034D03*
X464929304Y-79741034D03*
%TD*%
%TO.C,C16*%
X460939304Y-68920034D03*
X462839304Y-68920034D03*
%TD*%
D13*
%TO.C,U48*%
X370889342Y-133100034D03*
X373139342Y-133100034D03*
X373139342Y-130600034D03*
X371639342Y-130600034D03*
X370889342Y-130600034D03*
X371639342Y-133100034D03*
X372389342Y-133100034D03*
X372389342Y-130600034D03*
%TD*%
D17*
%TO.C,J39*%
X333839304Y-178950000D03*
D18*
X336379304Y-178950000D03*
X338919304Y-178950000D03*
X341459304Y-178950000D03*
X343999304Y-178950000D03*
X346539304Y-178950000D03*
X349079304Y-178950000D03*
X351619304Y-178950000D03*
X354159304Y-178950000D03*
X356699304Y-178950000D03*
X359239304Y-178950000D03*
X361779304Y-178950000D03*
X364319304Y-178950000D03*
X366859304Y-178950000D03*
X369399304Y-178950000D03*
X371939304Y-178950000D03*
X374479304Y-178950000D03*
X377019304Y-178950000D03*
X379559304Y-178950000D03*
X382099304Y-178950000D03*
%TD*%
D17*
%TO.C,J51*%
X481139304Y-48820034D03*
D18*
X481139304Y-46280034D03*
X481139304Y-43740034D03*
X481139304Y-41200034D03*
X481139304Y-38660034D03*
X481139304Y-36120034D03*
%TD*%
D21*
%TO.C,R20*%
X346984556Y-40375729D03*
X349909556Y-40375729D03*
%TD*%
D75*
%TO.C,SW1*%
X464814304Y-112620034D03*
X461064304Y-112620034D03*
X464814304Y-118620034D03*
X461064304Y-118620034D03*
%TD*%
D17*
%TO.C,J35*%
X333729304Y-120230034D03*
D18*
X336269304Y-120230034D03*
%TD*%
D76*
%TO.C,U19*%
X355201804Y-151000000D03*
X355201804Y-151950000D03*
X355201804Y-152900000D03*
X357476804Y-152900000D03*
X357476804Y-151000000D03*
%TD*%
D77*
%TO.C,SW7*%
X403029304Y-112440034D03*
D70*
X398029304Y-112440034D03*
X403029304Y-97940034D03*
X398029304Y-97940034D03*
X400529304Y-97940034D03*
D78*
X406229304Y-105440034D03*
X394829304Y-105440034D03*
%TD*%
D60*
%TO.C,C7*%
X357234556Y-25975729D03*
X359134556Y-25975729D03*
%TD*%
D17*
%TO.C,J41*%
X494439304Y-150750034D03*
D18*
X491899304Y-150750034D03*
X489359304Y-150750034D03*
X486819304Y-150750034D03*
X484279304Y-150750034D03*
X481739304Y-150750034D03*
X479199304Y-150750034D03*
X476659304Y-150750034D03*
X474119304Y-150750034D03*
X471579304Y-150750034D03*
X469039304Y-150750034D03*
X466499304Y-150750034D03*
X463959304Y-150750034D03*
X461419304Y-150750034D03*
X458879304Y-150750034D03*
X456339304Y-150750034D03*
X453799304Y-150750034D03*
X451259304Y-150750034D03*
X448719304Y-150750034D03*
X446179304Y-150750034D03*
%TD*%
D79*
%TO.C,U7*%
X359522056Y-37025729D03*
X359522056Y-36075729D03*
X359522056Y-35125729D03*
X357247056Y-35125729D03*
X357247056Y-37025729D03*
%TD*%
D38*
X333139304Y-12350034D03*
X335239304Y-28350034D03*
X346783556Y-28248229D03*
D80*
X357884556Y-31275729D03*
D38*
X340639304Y-14350034D03*
X342184556Y-19175729D03*
X350783556Y-35548229D03*
X332384556Y-8475729D03*
X341739304Y-28350034D03*
X384939304Y-14650034D03*
X389839304Y-14450034D03*
X424839304Y-68650034D03*
X422839304Y-64450034D03*
X384339304Y-48150034D03*
X385939304Y-32650034D03*
X349039304Y-154750000D03*
X379439304Y-174250000D03*
X358639304Y-158350000D03*
X343639304Y-160250000D03*
X407939304Y-166450000D03*
X369139304Y-152850000D03*
X361639304Y-175350000D03*
X359139304Y-161750000D03*
X388839304Y-153450000D03*
X402139304Y-152350000D03*
X408839304Y-172550000D03*
X385439304Y-178850000D03*
X378839304Y-162550000D03*
X344439304Y-151650000D03*
X387739304Y-162850000D03*
X402239304Y-166950000D03*
X373639304Y-166450000D03*
X384539304Y-169150000D03*
X344939304Y-176650000D03*
X349139304Y-158150000D03*
X337539304Y-176250000D03*
X401939304Y-163250000D03*
X342139304Y-175950000D03*
X347639304Y-176550000D03*
X358339304Y-176150000D03*
X343039304Y-164650000D03*
X365739304Y-151550000D03*
X359239304Y-154850000D03*
X353639304Y-175750000D03*
X381439304Y-157150000D03*
X363239304Y-173550000D03*
X343839304Y-169750000D03*
X350539304Y-176350000D03*
X352739304Y-162050000D03*
X396739304Y-178950000D03*
X356739304Y-175250000D03*
X353339304Y-166050000D03*
X435809304Y-153224034D03*
X458409304Y-159124034D03*
X478709304Y-158324034D03*
X472609304Y-175724034D03*
X441809304Y-158924034D03*
X467009304Y-173524034D03*
X440409304Y-171824034D03*
X486909304Y-158924034D03*
X489509304Y-174024034D03*
X447009304Y-178624034D03*
X482609304Y-162324034D03*
X493709304Y-158924034D03*
X450909304Y-159124034D03*
X453909304Y-162124034D03*
X439209304Y-162324034D03*
X455909304Y-158924034D03*
X480809304Y-168524034D03*
X463509304Y-165424034D03*
X494809304Y-168024034D03*
X468909304Y-165224034D03*
X435209304Y-158124034D03*
X427809304Y-162224034D03*
X426909304Y-168824034D03*
X427009304Y-176824034D03*
X420309304Y-155424034D03*
X476509304Y-159624034D03*
X490809304Y-158924034D03*
X441409304Y-151924034D03*
X425209304Y-162324034D03*
X477109304Y-174024034D03*
X453609304Y-158824034D03*
X487109304Y-168424034D03*
X469609304Y-173924034D03*
X425309304Y-156124034D03*
X480209304Y-175224034D03*
X489109304Y-153024034D03*
X386782836Y-173050500D03*
X387711044Y-170021741D03*
X386457021Y-170248512D03*
X385339304Y-172550000D03*
X388621247Y-170434700D03*
X387681037Y-171508267D03*
X458909304Y-163524034D03*
X456309304Y-161924034D03*
X467310077Y-160024534D03*
X470409304Y-157724034D03*
X484309304Y-153973045D03*
X486809304Y-153573534D03*
X478214682Y-160329412D03*
X481309304Y-158224034D03*
X453409304Y-176324034D03*
X447209304Y-175524034D03*
X462909304Y-176024034D03*
X465609304Y-175824034D03*
X459809304Y-175123035D03*
X449809304Y-174124034D03*
X476709304Y-168824034D03*
X452009304Y-173724034D03*
X461009304Y-161424034D03*
X457340222Y-164302358D03*
X455809304Y-165924034D03*
X452809304Y-166324034D03*
X471539284Y-168124534D03*
X474309304Y-166624034D03*
X384239304Y-162750000D03*
X384539304Y-157650000D03*
X374164697Y-170481179D03*
X373269239Y-170037152D03*
X383539304Y-158450000D03*
X406239304Y-172750000D03*
X406239304Y-163550000D03*
X385539304Y-167550500D03*
X405439304Y-171350000D03*
X405439304Y-162650000D03*
X387939304Y-160150000D03*
X372139304Y-173495815D03*
X386539304Y-159950000D03*
X373739304Y-176150000D03*
X386039304Y-161050000D03*
X385230669Y-161762877D03*
X375539304Y-176350000D03*
X376939304Y-171150000D03*
X388339304Y-165849500D03*
X377527840Y-171957855D03*
X387448051Y-166301908D03*
X386539304Y-166850000D03*
X378239304Y-172750000D03*
X404739304Y-177650000D03*
X404739304Y-169450000D03*
X404039304Y-178750000D03*
X404039304Y-170240979D03*
X403339304Y-171250000D03*
X401939304Y-179050000D03*
X400939304Y-178650000D03*
X402639304Y-172550000D03*
X401939304Y-173950000D03*
X400180937Y-177950500D03*
X348239304Y-46850034D03*
X348239304Y-52050034D03*
X365339304Y-38350034D03*
X348339304Y-60350034D03*
X386939304Y-27650034D03*
X467139304Y-108350034D03*
X465139304Y-61850034D03*
X467639304Y-92850034D03*
X460639304Y-79350034D03*
X467139304Y-80850034D03*
X460139304Y-98350034D03*
X459639304Y-123350034D03*
X466139304Y-143350034D03*
X468139304Y-131850034D03*
X460139304Y-72850034D03*
X462139304Y-138350034D03*
X338239304Y-122650034D03*
X349139304Y-127850034D03*
X410639304Y-127350034D03*
X410639304Y-122850034D03*
X377639304Y-139850034D03*
X452639304Y-139350034D03*
X447639304Y-140850034D03*
X377139304Y-134350034D03*
X394939304Y-96150034D03*
X407439304Y-28050034D03*
X350639304Y-53650034D03*
X410639304Y-13050034D03*
X391239304Y-44450034D03*
X341139304Y-54350034D03*
X363339304Y-61750034D03*
X347939304Y-98150034D03*
X348139304Y-9850034D03*
X364739304Y-54450034D03*
X431939304Y-106150034D03*
X343839304Y-96650034D03*
X370939304Y-95450034D03*
X389139304Y-32850034D03*
X401439304Y-50450034D03*
X336739304Y-66150034D03*
X387539304Y-50250034D03*
X379539304Y-90350034D03*
X395639304Y-36550034D03*
X352539304Y-89850034D03*
X346239304Y-66350034D03*
X339139304Y-58650034D03*
X368339304Y-41050034D03*
X360039304Y-36050034D03*
X391639304Y-40350034D03*
X362739304Y-63550034D03*
X425339304Y-54950034D03*
X370439304Y-53250034D03*
X357239304Y-44250034D03*
X350439304Y-73450034D03*
X379939304Y-30150034D03*
X343639304Y-48850034D03*
X414439304Y-82250034D03*
X408639304Y-44550034D03*
X335139304Y-53850034D03*
X425239304Y-40650034D03*
X346239304Y-85250034D03*
X393839304Y-75150034D03*
X341639304Y-84350034D03*
X343139304Y-36850034D03*
X409239304Y-89250034D03*
D80*
X359684556Y-29275729D03*
D38*
X390239304Y-93750034D03*
X384339304Y-90350034D03*
X383439304Y-84150034D03*
X355039304Y-63150034D03*
X381939304Y-90350034D03*
X380483926Y-37205412D03*
X387339304Y-97750034D03*
X404139304Y-73450034D03*
X365039304Y-31250034D03*
X378139304Y-32850034D03*
X418339304Y-64550034D03*
X366139304Y-5850034D03*
X358239304Y-51950034D03*
X342839304Y-90050034D03*
X411439304Y-80450034D03*
X404239304Y-78550034D03*
X402339304Y-29650034D03*
X350639304Y-47350034D03*
X377839304Y-22950034D03*
X334639304Y-42350034D03*
X337639304Y-36850034D03*
X412239304Y-20850034D03*
X341039304Y-41350034D03*
X398339304Y-69350034D03*
X393939304Y-25850034D03*
X422239304Y-24050034D03*
X409539304Y-66750034D03*
X391239304Y-31150034D03*
X341139304Y-109650034D03*
X379739304Y-41150034D03*
X356139304Y-57650034D03*
X395339304Y-39750034D03*
X416239304Y-104250034D03*
X372139304Y-85450034D03*
X352239304Y-93350034D03*
X395739304Y-53250034D03*
X364739304Y-57550034D03*
X416339304Y-69550034D03*
X389139304Y-36450034D03*
X404139304Y-12350034D03*
X363839304Y-26650034D03*
X399939304Y-61850034D03*
X375239304Y-92150034D03*
X413839304Y-74050034D03*
X366139304Y-10850034D03*
X419739304Y-95650034D03*
X419539304Y-29850034D03*
X419439304Y-48250034D03*
X388339304Y-102350034D03*
X363339304Y-33750034D03*
X418139304Y-78850034D03*
X390939304Y-46850034D03*
X419839304Y-62250034D03*
X379339304Y-38650034D03*
X402139304Y-37650034D03*
X378939304Y-45250034D03*
X402339304Y-23050034D03*
D80*
X359284556Y-32875729D03*
D38*
X413139304Y-108950034D03*
X356239304Y-73150034D03*
X345939304Y-73450034D03*
X356239304Y-54350034D03*
X406839304Y-62850034D03*
X353639304Y-40550034D03*
X396039304Y-46850034D03*
X426539304Y-80650034D03*
X384439304Y-28050034D03*
X365339304Y-71550034D03*
X368439304Y-67150034D03*
X350139304Y-86650034D03*
X407039304Y-69550034D03*
X402369821Y-65549534D03*
X386839304Y-33850034D03*
X387439304Y-46450034D03*
X400139304Y-64850034D03*
X418539304Y-68650034D03*
X463239304Y-25050034D03*
X463139304Y-17550034D03*
X471239304Y-17550034D03*
X465139304Y-13850034D03*
X461639304Y-27350034D03*
X473439304Y-25850034D03*
X465839304Y-17250034D03*
X469839304Y-24750034D03*
X476638304Y-17422534D03*
X470639304Y-42550034D03*
X470439304Y-47150034D03*
X476639304Y-35850034D03*
X467239304Y-48250034D03*
X461639304Y-51850034D03*
X476865304Y-44120034D03*
X465139304Y-36350034D03*
X471339304Y-39750034D03*
X463639304Y-40350034D03*
X462739304Y-44050034D03*
X464338304Y-46422534D03*
X467937666Y-44421895D03*
X469138304Y-45522534D03*
X472238304Y-47422534D03*
X474838304Y-47422534D03*
X372639304Y-13850034D03*
X388139304Y-7350034D03*
X383639304Y-19850034D03*
X380139304Y-11850034D03*
X387607980Y-28588594D03*
X381639304Y-40550034D03*
X471939304Y-16350034D03*
X473039304Y-15250034D03*
X363039304Y-156250000D03*
X403239304Y-156350000D03*
X413239304Y-76450034D03*
X386104986Y-31415716D03*
X384439304Y-40550034D03*
X415139304Y-91350034D03*
X413539304Y-90750034D03*
X383139304Y-40650034D03*
X411747378Y-76247352D03*
X388633926Y-29544656D03*
X348639304Y-66450034D03*
X398739304Y-81550034D03*
X399639304Y-93450034D03*
X397639304Y-93350034D03*
X397639304Y-80750034D03*
X396339304Y-80650034D03*
X396139304Y-93450034D03*
M02*
