%TF.GenerationSoftware,KiCad,Pcbnew,(6.0.5)*%
%TF.CreationDate,2022-08-12T21:43:39+02:00*%
%TF.ProjectId,clarinoid-devboard,636c6172-696e-46f6-9964-2d646576626f,rev?*%
%TF.SameCoordinates,Original*%
%TF.FileFunction,Paste,Top*%
%TF.FilePolarity,Positive*%
%FSLAX46Y46*%
G04 Gerber Fmt 4.6, Leading zero omitted, Abs format (unit mm)*
G04 Created by KiCad (PCBNEW (6.0.5)) date 2022-08-12 21:43:39*
%MOMM*%
%LPD*%
G01*
G04 APERTURE LIST*
G04 Aperture macros list*
%AMRoundRect*
0 Rectangle with rounded corners*
0 $1 Rounding radius*
0 $2 $3 $4 $5 $6 $7 $8 $9 X,Y pos of 4 corners*
0 Add a 4 corners polygon primitive as box body*
4,1,4,$2,$3,$4,$5,$6,$7,$8,$9,$2,$3,0*
0 Add four circle primitives for the rounded corners*
1,1,$1+$1,$2,$3*
1,1,$1+$1,$4,$5*
1,1,$1+$1,$6,$7*
1,1,$1+$1,$8,$9*
0 Add four rect primitives between the rounded corners*
20,1,$1+$1,$2,$3,$4,$5,0*
20,1,$1+$1,$4,$5,$6,$7,0*
20,1,$1+$1,$6,$7,$8,$9,0*
20,1,$1+$1,$8,$9,$2,$3,0*%
%AMFreePoly0*
4,1,14,0.354215,0.088284,0.450784,-0.008285,0.462500,-0.036569,0.462500,-0.060000,0.450784,-0.088284,0.422500,-0.100000,-0.422500,-0.100000,-0.450784,-0.088284,-0.462500,-0.060000,-0.462500,0.060000,-0.450784,0.088284,-0.422500,0.100000,0.325931,0.100000,0.354215,0.088284,0.354215,0.088284,$1*%
%AMFreePoly1*
4,1,14,0.450784,0.088284,0.462500,0.060000,0.462500,0.036569,0.450784,0.008285,0.354215,-0.088284,0.325931,-0.100000,-0.422500,-0.100000,-0.450784,-0.088284,-0.462500,-0.060000,-0.462500,0.060000,-0.450784,0.088284,-0.422500,0.100000,0.422500,0.100000,0.450784,0.088284,0.450784,0.088284,$1*%
%AMFreePoly2*
4,1,14,0.088284,0.450784,0.100000,0.422500,0.100000,-0.422500,0.088284,-0.450784,0.060000,-0.462500,-0.060000,-0.462500,-0.088284,-0.450784,-0.100000,-0.422500,-0.100000,0.325931,-0.088284,0.354215,0.008285,0.450784,0.036569,0.462500,0.060000,0.462500,0.088284,0.450784,0.088284,0.450784,$1*%
%AMFreePoly3*
4,1,14,-0.008285,0.450784,0.088284,0.354215,0.100000,0.325931,0.100000,-0.422500,0.088284,-0.450784,0.060000,-0.462500,-0.060000,-0.462500,-0.088284,-0.450784,-0.100000,-0.422500,-0.100000,0.422500,-0.088284,0.450784,-0.060000,0.462500,-0.036569,0.462500,-0.008285,0.450784,-0.008285,0.450784,$1*%
%AMFreePoly4*
4,1,14,0.450784,0.088284,0.462500,0.060000,0.462500,-0.060000,0.450784,-0.088284,0.422500,-0.100000,-0.325931,-0.100000,-0.354215,-0.088284,-0.450784,0.008285,-0.462500,0.036569,-0.462500,0.060000,-0.450784,0.088284,-0.422500,0.100000,0.422500,0.100000,0.450784,0.088284,0.450784,0.088284,$1*%
%AMFreePoly5*
4,1,14,0.450784,0.088284,0.462500,0.060000,0.462500,-0.060000,0.450784,-0.088284,0.422500,-0.100000,-0.422500,-0.100000,-0.450784,-0.088284,-0.462500,-0.060000,-0.462500,-0.036569,-0.450784,-0.008285,-0.354215,0.088284,-0.325931,0.100000,0.422500,0.100000,0.450784,0.088284,0.450784,0.088284,$1*%
%AMFreePoly6*
4,1,14,0.088284,0.450784,0.100000,0.422500,0.100000,-0.325931,0.088284,-0.354215,-0.008285,-0.450784,-0.036569,-0.462500,-0.060000,-0.462500,-0.088284,-0.450784,-0.100000,-0.422500,-0.100000,0.422500,-0.088284,0.450784,-0.060000,0.462500,0.060000,0.462500,0.088284,0.450784,0.088284,0.450784,$1*%
%AMFreePoly7*
4,1,14,0.088284,0.450784,0.100000,0.422500,0.100000,-0.422500,0.088284,-0.450784,0.060000,-0.462500,0.036569,-0.462500,0.008285,-0.450784,-0.088284,-0.354215,-0.100000,-0.325931,-0.100000,0.422500,-0.088284,0.450784,-0.060000,0.462500,0.060000,0.462500,0.088284,0.450784,0.088284,0.450784,$1*%
G04 Aperture macros list end*
%ADD10R,1.300000X1.700000*%
%ADD11RoundRect,0.218750X-0.256250X0.218750X-0.256250X-0.218750X0.256250X-0.218750X0.256250X0.218750X0*%
%ADD12RoundRect,0.250000X-0.475000X0.250000X-0.475000X-0.250000X0.475000X-0.250000X0.475000X0.250000X0*%
%ADD13RoundRect,0.250000X0.475000X-0.250000X0.475000X0.250000X-0.475000X0.250000X-0.475000X-0.250000X0*%
%ADD14RoundRect,0.250000X0.625000X-0.312500X0.625000X0.312500X-0.625000X0.312500X-0.625000X-0.312500X0*%
%ADD15RoundRect,0.250000X-0.312500X-0.625000X0.312500X-0.625000X0.312500X0.625000X-0.312500X0.625000X0*%
%ADD16RoundRect,0.250000X-0.625000X0.312500X-0.625000X-0.312500X0.625000X-0.312500X0.625000X0.312500X0*%
%ADD17RoundRect,0.250000X0.250000X0.475000X-0.250000X0.475000X-0.250000X-0.475000X0.250000X-0.475000X0*%
%ADD18R,0.450000X1.475000*%
%ADD19R,0.950000X0.700000*%
%ADD20R,2.250000X2.850000*%
%ADD21R,6.350000X7.340000*%
%ADD22R,3.500000X1.850000*%
%ADD23R,1.000000X0.750000*%
%ADD24RoundRect,0.243750X0.243750X0.456250X-0.243750X0.456250X-0.243750X-0.456250X0.243750X-0.456250X0*%
%ADD25R,0.800000X0.300000*%
%ADD26R,0.300000X0.800000*%
%ADD27R,1.800000X1.800000*%
%ADD28FreePoly0,270.000000*%
%ADD29RoundRect,0.050000X-0.050000X0.412500X-0.050000X-0.412500X0.050000X-0.412500X0.050000X0.412500X0*%
%ADD30FreePoly1,270.000000*%
%ADD31FreePoly2,270.000000*%
%ADD32RoundRect,0.050000X-0.412500X0.050000X-0.412500X-0.050000X0.412500X-0.050000X0.412500X0.050000X0*%
%ADD33FreePoly3,270.000000*%
%ADD34FreePoly4,270.000000*%
%ADD35FreePoly5,270.000000*%
%ADD36FreePoly6,270.000000*%
%ADD37FreePoly7,270.000000*%
%ADD38R,0.300000X1.150000*%
%ADD39RoundRect,0.243750X-0.243750X-0.456250X0.243750X-0.456250X0.243750X0.456250X-0.243750X0.456250X0*%
%ADD40RoundRect,0.250000X0.312500X0.625000X-0.312500X0.625000X-0.312500X-0.625000X0.312500X-0.625000X0*%
%ADD41RoundRect,0.250000X-0.250000X-0.475000X0.250000X-0.475000X0.250000X0.475000X-0.250000X0.475000X0*%
%ADD42R,1.600000X0.700000*%
%ADD43R,1.500000X1.200000*%
%ADD44R,2.200000X1.200000*%
%ADD45R,1.500000X1.600000*%
%ADD46RoundRect,0.100000X-0.637500X-0.100000X0.637500X-0.100000X0.637500X0.100000X-0.637500X0.100000X0*%
%ADD47R,1.550000X0.300000*%
%ADD48R,2.750000X1.200000*%
%ADD49R,0.450000X0.600000*%
%ADD50R,0.750000X1.000000*%
%ADD51RoundRect,0.150000X-0.512500X-0.150000X0.512500X-0.150000X0.512500X0.150000X-0.512500X0.150000X0*%
%ADD52RoundRect,0.150000X0.512500X0.150000X-0.512500X0.150000X-0.512500X-0.150000X0.512500X-0.150000X0*%
G04 APERTURE END LIST*
D10*
%TO.C,D12*%
X357526804Y-154850000D03*
X361026804Y-154850000D03*
%TD*%
D11*
%TO.C,D5*%
X384739304Y-95600034D03*
X384739304Y-97175034D03*
%TD*%
D12*
%TO.C,C4*%
X353084556Y-35125729D03*
X353084556Y-37025729D03*
%TD*%
D13*
%TO.C,C21*%
X422789304Y-72150034D03*
X422789304Y-70250034D03*
%TD*%
D11*
%TO.C,D7*%
X383139304Y-95600034D03*
X383139304Y-97175034D03*
%TD*%
D14*
%TO.C,R35*%
X384339304Y-93850034D03*
X384339304Y-90925034D03*
%TD*%
D15*
%TO.C,R40*%
X343876804Y-60350034D03*
X346801804Y-60350034D03*
%TD*%
D12*
%TO.C,C1*%
X348339304Y-151000000D03*
X348339304Y-152900000D03*
%TD*%
D13*
%TO.C,C23*%
X426989304Y-72150034D03*
X426989304Y-70250034D03*
%TD*%
D16*
%TO.C,R10*%
X462939304Y-107457534D03*
X462939304Y-110382534D03*
%TD*%
D17*
%TO.C,C14*%
X369684556Y-29675729D03*
X367784556Y-29675729D03*
%TD*%
D13*
%TO.C,C29*%
X359539304Y-152900000D03*
X359539304Y-151000000D03*
%TD*%
%TO.C,C25*%
X476938304Y-15472534D03*
X476938304Y-13572534D03*
%TD*%
D11*
%TO.C,D9*%
X379939304Y-95600034D03*
X379939304Y-97175034D03*
%TD*%
D13*
%TO.C,C18*%
X461179304Y-84691034D03*
X461179304Y-82791034D03*
%TD*%
%TO.C,C20*%
X420689304Y-72150034D03*
X420689304Y-70250034D03*
%TD*%
D18*
%TO.C,IC1*%
X345864304Y-94788034D03*
X346514304Y-94788034D03*
X347164304Y-94788034D03*
X347814304Y-94788034D03*
X348464304Y-94788034D03*
X349114304Y-94788034D03*
X349764304Y-94788034D03*
X350414304Y-94788034D03*
X350414304Y-88912034D03*
X349764304Y-88912034D03*
X349114304Y-88912034D03*
X348464304Y-88912034D03*
X347814304Y-88912034D03*
X347164304Y-88912034D03*
X346514304Y-88912034D03*
X345864304Y-88912034D03*
%TD*%
D14*
%TO.C,R19*%
X368184556Y-54138229D03*
X368184556Y-51213229D03*
%TD*%
D19*
%TO.C,IC2*%
X459239304Y-100945034D03*
X459239304Y-102215034D03*
X459239304Y-103485034D03*
X459239304Y-104755034D03*
X465189304Y-104755034D03*
X465189304Y-103485034D03*
X465189304Y-102215034D03*
X465189304Y-100945034D03*
D20*
X462214304Y-102850034D03*
%TD*%
D12*
%TO.C,C12*%
X348684556Y-32825729D03*
X348684556Y-34725729D03*
%TD*%
%TO.C,C26*%
X352539304Y-151000000D03*
X352539304Y-152900000D03*
%TD*%
D21*
%TO.C,BT1*%
X476973602Y-61245179D03*
X476973602Y-139905179D03*
%TD*%
D22*
%TO.C,L1*%
X462454304Y-92756034D03*
X462454304Y-87156034D03*
%TD*%
D13*
%TO.C,C27*%
X350984556Y-55625729D03*
X350984556Y-53725729D03*
%TD*%
D16*
%TO.C,R4*%
X474638304Y-15460034D03*
X474638304Y-18385034D03*
%TD*%
D23*
%TO.C,SW6*%
X361539304Y-157675000D03*
X361539304Y-161425000D03*
X367539304Y-157675000D03*
X367539304Y-161425000D03*
%TD*%
D15*
%TO.C,R41*%
X351876804Y-60450034D03*
X354801804Y-60450034D03*
%TD*%
D24*
%TO.C,D1*%
X464854304Y-130956867D03*
X462979304Y-130956867D03*
%TD*%
D17*
%TO.C,C15*%
X463889304Y-71020034D03*
X461989304Y-71020034D03*
%TD*%
D15*
%TO.C,R7*%
X382939304Y-17635034D03*
X385864304Y-17635034D03*
%TD*%
D17*
%TO.C,C8*%
X360134556Y-23875729D03*
X358234556Y-23875729D03*
%TD*%
D13*
%TO.C,C5*%
X364784556Y-37025729D03*
X364784556Y-35125729D03*
%TD*%
%TO.C,C9*%
X348684556Y-31225729D03*
X348684556Y-29325729D03*
%TD*%
D25*
%TO.C,IC3*%
X472139304Y-43380034D03*
X472139304Y-42880034D03*
X472139304Y-42380034D03*
X472139304Y-41880034D03*
D26*
X471389304Y-41130034D03*
X470889304Y-41130034D03*
X470389304Y-41130034D03*
X469889304Y-41130034D03*
D25*
X469139304Y-41880034D03*
X469139304Y-42380034D03*
X469139304Y-42880034D03*
X469139304Y-43380034D03*
D26*
X469889304Y-44130034D03*
X470389304Y-44130034D03*
X470889304Y-44130034D03*
X471389304Y-44130034D03*
D27*
X470639304Y-42630034D03*
%TD*%
D28*
%TO.C,U45*%
X471929304Y-19672534D03*
D29*
X471529304Y-19672534D03*
X471129304Y-19672534D03*
X470729304Y-19672534D03*
D30*
X470329304Y-19672534D03*
D31*
X469741804Y-20260034D03*
D32*
X469741804Y-20660034D03*
X469741804Y-21060034D03*
X469741804Y-21460034D03*
D33*
X469741804Y-21860034D03*
D34*
X470329304Y-22447534D03*
D29*
X470729304Y-22447534D03*
X471129304Y-22447534D03*
X471529304Y-22447534D03*
D35*
X471929304Y-22447534D03*
D36*
X472516804Y-21860034D03*
D32*
X472516804Y-21460034D03*
X472516804Y-21060034D03*
X472516804Y-20660034D03*
D37*
X472516804Y-20260034D03*
%TD*%
D38*
%TO.C,J2*%
X390789304Y-12220034D03*
X389989304Y-12220034D03*
X388689304Y-12220034D03*
X387689304Y-12220034D03*
X387189304Y-12220034D03*
X386189304Y-12220034D03*
X384889304Y-12220034D03*
X384089304Y-12220034D03*
X384389304Y-12220034D03*
X385189304Y-12220034D03*
X385689304Y-12220034D03*
X386689304Y-12220034D03*
X388189304Y-12220034D03*
X389189304Y-12220034D03*
X389689304Y-12220034D03*
X390489304Y-12220034D03*
%TD*%
D11*
%TO.C,D8*%
X381539304Y-95600034D03*
X381539304Y-97175034D03*
%TD*%
D39*
%TO.C,D2*%
X462979304Y-128741034D03*
X464854304Y-128741034D03*
%TD*%
D40*
%TO.C,R6*%
X353547056Y-32075729D03*
X350622056Y-32075729D03*
%TD*%
D13*
%TO.C,C30*%
X361639304Y-152900000D03*
X361639304Y-151000000D03*
%TD*%
%TO.C,C32*%
X474069304Y-41830034D03*
X474069304Y-39930034D03*
%TD*%
D17*
%TO.C,C24*%
X469889304Y-16550034D03*
X467989304Y-16550034D03*
%TD*%
D41*
%TO.C,C11*%
X364284556Y-29675729D03*
X366184556Y-29675729D03*
%TD*%
D14*
%TO.C,R34*%
X386739304Y-93850034D03*
X386739304Y-90925034D03*
%TD*%
D13*
%TO.C,C6*%
X362684556Y-37025729D03*
X362684556Y-35125729D03*
%TD*%
%TO.C,C17*%
X418589304Y-72150034D03*
X418589304Y-70250034D03*
%TD*%
D12*
%TO.C,C2*%
X350439304Y-151000000D03*
X350439304Y-152900000D03*
%TD*%
D15*
%TO.C,R21*%
X346984556Y-42775729D03*
X349909556Y-42775729D03*
%TD*%
D39*
%TO.C,D4*%
X462979304Y-124309368D03*
X464854304Y-124309368D03*
%TD*%
D14*
%TO.C,R37*%
X379539304Y-93850034D03*
X379539304Y-90925034D03*
%TD*%
%TO.C,R22*%
X350584556Y-51938229D03*
X350584556Y-49013229D03*
%TD*%
D42*
%TO.C,J38*%
X346091553Y-168100000D03*
X346091553Y-167000000D03*
X346091553Y-165900000D03*
X346091553Y-164800000D03*
X346091553Y-163700000D03*
X346091553Y-162600000D03*
X346091553Y-161500000D03*
X346091553Y-160400000D03*
X346091553Y-159300000D03*
D43*
X345091553Y-158100000D03*
D44*
X335491553Y-158100000D03*
X335491553Y-173600000D03*
D45*
X345091553Y-172700000D03*
%TD*%
D40*
%TO.C,R8*%
X391164304Y-17635034D03*
X388239304Y-17635034D03*
%TD*%
%TO.C,R14*%
X355639304Y-154850000D03*
X352714304Y-154850000D03*
%TD*%
D16*
%TO.C,R11*%
X463379304Y-81678534D03*
X463379304Y-84603534D03*
%TD*%
D40*
%TO.C,R3*%
X369647056Y-36675729D03*
X366722056Y-36675729D03*
%TD*%
D41*
%TO.C,C13*%
X367784556Y-26668229D03*
X369684556Y-26668229D03*
%TD*%
D15*
%TO.C,R15*%
X348876804Y-167650000D03*
X351801804Y-167650000D03*
%TD*%
D40*
%TO.C,R1*%
X369647056Y-31875729D03*
X366722056Y-31875729D03*
%TD*%
D12*
%TO.C,C3*%
X355184556Y-35125729D03*
X355184556Y-37025729D03*
%TD*%
D46*
%TO.C,U1*%
X355922056Y-27750729D03*
X355922056Y-28400729D03*
X355922056Y-29050729D03*
X355922056Y-29700729D03*
X355922056Y-30350729D03*
X355922056Y-31000729D03*
X355922056Y-31650729D03*
X355922056Y-32300729D03*
X355922056Y-32950729D03*
X355922056Y-33600729D03*
X361647056Y-33600729D03*
X361647056Y-32950729D03*
X361647056Y-32300729D03*
X361647056Y-31650729D03*
X361647056Y-31000729D03*
X361647056Y-30350729D03*
X361647056Y-29700729D03*
X361647056Y-29050729D03*
X361647056Y-28400729D03*
X361647056Y-27750729D03*
%TD*%
D24*
%TO.C,D3*%
X464854304Y-126525201D03*
X462979304Y-126525201D03*
%TD*%
D41*
%TO.C,C28*%
X348789304Y-164950000D03*
X350689304Y-164950000D03*
%TD*%
D13*
%TO.C,C31*%
X363739304Y-152900000D03*
X363739304Y-151000000D03*
%TD*%
D17*
%TO.C,C10*%
X366184556Y-26668229D03*
X364284556Y-26668229D03*
%TD*%
D14*
%TO.C,R36*%
X381939304Y-93850034D03*
X381939304Y-90925034D03*
%TD*%
D15*
%TO.C,R9*%
X460976804Y-66620034D03*
X463901804Y-66620034D03*
%TD*%
D47*
%TO.C,U40*%
X399161659Y-154455000D03*
X391611659Y-154705000D03*
X399161659Y-154955000D03*
X391611659Y-155205000D03*
X399161659Y-155455000D03*
X391611659Y-155705000D03*
X399161659Y-155955000D03*
X391611659Y-156205000D03*
X399161659Y-156455000D03*
X391611659Y-156705000D03*
X399161659Y-156955000D03*
X391611659Y-157205000D03*
X399161659Y-157455000D03*
X391611659Y-157705000D03*
X399161659Y-157955000D03*
X391611659Y-158205000D03*
X399161659Y-158455000D03*
X391611659Y-158705000D03*
X399161659Y-158955000D03*
X391611659Y-159205000D03*
X399161659Y-159455000D03*
X391611659Y-159705000D03*
X399161659Y-159955000D03*
X391611659Y-162205000D03*
X399161659Y-162455000D03*
X391611659Y-162705000D03*
X399161659Y-162955000D03*
X391611659Y-163205000D03*
X399161659Y-163455000D03*
X391611659Y-163705000D03*
X399161659Y-163955000D03*
X391611659Y-164205000D03*
X399161659Y-164455000D03*
X391611659Y-164705000D03*
X399161659Y-164955000D03*
X391611659Y-165205000D03*
X399161659Y-165455000D03*
X391611659Y-165705000D03*
X399161659Y-165955000D03*
X391611659Y-166205000D03*
X399161659Y-166455000D03*
X391611659Y-166705000D03*
X399161659Y-166955000D03*
X391611659Y-167205000D03*
X399161659Y-167455000D03*
X391611659Y-167705000D03*
X399161659Y-167955000D03*
X391611659Y-168205000D03*
X399161659Y-168455000D03*
X391611659Y-168705000D03*
X399161659Y-168955000D03*
X391611659Y-169205000D03*
X399161659Y-169455000D03*
X391611659Y-169705000D03*
X399161659Y-169955000D03*
X391611659Y-170205000D03*
X399161659Y-170455000D03*
X391611659Y-170705000D03*
X399161659Y-170955000D03*
X391611659Y-171205000D03*
X399161659Y-171455000D03*
X391611659Y-171705000D03*
X399161659Y-171955000D03*
X391611659Y-172205000D03*
X399161659Y-172455000D03*
X391611659Y-172705000D03*
X399161659Y-172955000D03*
D48*
X398386659Y-153355000D03*
X398386659Y-174055000D03*
%TD*%
D49*
%TO.C,D6*%
X364684556Y-51525729D03*
X364684556Y-49425729D03*
%TD*%
D40*
%TO.C,R5*%
X353547056Y-29675729D03*
X350622056Y-29675729D03*
%TD*%
D13*
%TO.C,C22*%
X424889304Y-72150034D03*
X424889304Y-70250034D03*
%TD*%
D40*
%TO.C,R2*%
X369647056Y-34275729D03*
X366722056Y-34275729D03*
%TD*%
D15*
%TO.C,R12*%
X465066804Y-19260034D03*
X467991804Y-19260034D03*
%TD*%
D41*
%TO.C,C19*%
X463029304Y-79741034D03*
X464929304Y-79741034D03*
%TD*%
%TO.C,C16*%
X460939304Y-68920034D03*
X462839304Y-68920034D03*
%TD*%
D15*
%TO.C,R20*%
X346984556Y-40375729D03*
X349909556Y-40375729D03*
%TD*%
D50*
%TO.C,SW1*%
X464814304Y-112620034D03*
X461064304Y-112620034D03*
X464814304Y-118620034D03*
X461064304Y-118620034D03*
%TD*%
D51*
%TO.C,U19*%
X355201804Y-151000000D03*
X355201804Y-151950000D03*
X355201804Y-152900000D03*
X357476804Y-152900000D03*
X357476804Y-151000000D03*
%TD*%
D41*
%TO.C,C7*%
X357234556Y-25975729D03*
X359134556Y-25975729D03*
%TD*%
D52*
%TO.C,U7*%
X359522056Y-37025729D03*
X359522056Y-36075729D03*
X359522056Y-35125729D03*
X357247056Y-35125729D03*
X357247056Y-37025729D03*
%TD*%
M02*
