%TF.GenerationSoftware,KiCad,Pcbnew,(6.0.5)*%
%TF.CreationDate,2022-08-12T21:43:39+02:00*%
%TF.ProjectId,clarinoid-devboard,636c6172-696e-46f6-9964-2d646576626f,rev?*%
%TF.SameCoordinates,Original*%
%TF.FileFunction,Legend,Bot*%
%TF.FilePolarity,Positive*%
%FSLAX46Y46*%
G04 Gerber Fmt 4.6, Leading zero omitted, Abs format (unit mm)*
G04 Created by KiCad (PCBNEW (6.0.5)) date 2022-08-12 21:43:39*
%MOMM*%
%LPD*%
G01*
G04 APERTURE LIST*
%ADD10C,0.500000*%
%ADD11C,0.500000*%
%ADD12R,1.700000X1.700000*%
%ADD13O,1.700000X1.700000*%
%ADD14C,3.200000*%
%ADD15C,1.850000*%
%ADD16C,2.000000*%
%ADD17C,3.450000*%
%ADD18C,2.390000*%
%ADD19O,1.700000X2.800000*%
%ADD20C,6.200000*%
%ADD21C,0.800000*%
%ADD22C,6.400000*%
%ADD23R,6.400000X6.400000*%
%ADD24C,0.650000*%
%ADD25O,1.000000X1.600000*%
%ADD26O,1.000000X2.100000*%
%ADD27R,1.600000X1.600000*%
%ADD28O,1.600000X1.600000*%
%ADD29C,1.800000*%
%ADD30C,1.000000*%
%ADD31C,1.650000*%
%ADD32C,1.150000*%
%ADD33R,1.650000X1.650000*%
%ADD34O,3.000000X6.000000*%
%ADD35C,1.600000*%
G04 APERTURE END LIST*
%LPC*%
D10*
X450993589Y-35040034D02*
X451136446Y-34754319D01*
X451136446Y-34182891D01*
X450993589Y-33897176D01*
X450850732Y-33754319D01*
X450565018Y-33611462D01*
X449707875Y-33611462D01*
X449422161Y-33754319D01*
X449279304Y-33897176D01*
X449136446Y-34182891D01*
X449136446Y-34754319D01*
X449279304Y-35040034D01*
X451136446Y-36754319D02*
X450993589Y-36468605D01*
X450707875Y-36325748D01*
X448136446Y-36325748D01*
X451136446Y-39182891D02*
X449565018Y-39182891D01*
X449279304Y-39040034D01*
X449136446Y-38754319D01*
X449136446Y-38182891D01*
X449279304Y-37897176D01*
X450993589Y-39182891D02*
X451136446Y-38897176D01*
X451136446Y-38182891D01*
X450993589Y-37897176D01*
X450707875Y-37754319D01*
X450422161Y-37754319D01*
X450136446Y-37897176D01*
X449993589Y-38182891D01*
X449993589Y-38897176D01*
X449850732Y-39182891D01*
X451136446Y-40611462D02*
X449136446Y-40611462D01*
X449707875Y-40611462D02*
X449422161Y-40754319D01*
X449279304Y-40897176D01*
X449136446Y-41182891D01*
X449136446Y-41468605D01*
X451136446Y-42468605D02*
X449136446Y-42468605D01*
X448136446Y-42468605D02*
X448279304Y-42325748D01*
X448422161Y-42468605D01*
X448279304Y-42611462D01*
X448136446Y-42468605D01*
X448422161Y-42468605D01*
X449136446Y-43897176D02*
X451136446Y-43897176D01*
X449422161Y-43897176D02*
X449279304Y-44040034D01*
X449136446Y-44325748D01*
X449136446Y-44754319D01*
X449279304Y-45040034D01*
X449565018Y-45182891D01*
X451136446Y-45182891D01*
X451136446Y-47040034D02*
X450993589Y-46754319D01*
X450850732Y-46611462D01*
X450565018Y-46468605D01*
X449707875Y-46468605D01*
X449422161Y-46611462D01*
X449279304Y-46754319D01*
X449136446Y-47040034D01*
X449136446Y-47468605D01*
X449279304Y-47754319D01*
X449422161Y-47897176D01*
X449707875Y-48040034D01*
X450565018Y-48040034D01*
X450850732Y-47897176D01*
X450993589Y-47754319D01*
X451136446Y-47468605D01*
X451136446Y-47040034D01*
X451136446Y-49325748D02*
X449136446Y-49325748D01*
X448136446Y-49325748D02*
X448279304Y-49182891D01*
X448422161Y-49325748D01*
X448279304Y-49468605D01*
X448136446Y-49325748D01*
X448422161Y-49325748D01*
X451136446Y-52040034D02*
X448136446Y-52040034D01*
X450993589Y-52040034D02*
X451136446Y-51754319D01*
X451136446Y-51182891D01*
X450993589Y-50897176D01*
X450850732Y-50754319D01*
X450565018Y-50611462D01*
X449707875Y-50611462D01*
X449422161Y-50754319D01*
X449279304Y-50897176D01*
X449136446Y-51182891D01*
X449136446Y-51754319D01*
X449279304Y-52040034D01*
X449136446Y-55325748D02*
X449136446Y-56468605D01*
X448136446Y-55754319D02*
X450707875Y-55754319D01*
X450993589Y-55897176D01*
X451136446Y-56182891D01*
X451136446Y-56468605D01*
X450993589Y-58611462D02*
X451136446Y-58325748D01*
X451136446Y-57754319D01*
X450993589Y-57468605D01*
X450707875Y-57325748D01*
X449565018Y-57325748D01*
X449279304Y-57468605D01*
X449136446Y-57754319D01*
X449136446Y-58325748D01*
X449279304Y-58611462D01*
X449565018Y-58754319D01*
X449850732Y-58754319D01*
X450136446Y-57325748D01*
X450993589Y-59897176D02*
X451136446Y-60182891D01*
X451136446Y-60754319D01*
X450993589Y-61040034D01*
X450707875Y-61182891D01*
X450565018Y-61182891D01*
X450279304Y-61040034D01*
X450136446Y-60754319D01*
X450136446Y-60325748D01*
X449993589Y-60040034D01*
X449707875Y-59897176D01*
X449565018Y-59897176D01*
X449279304Y-60040034D01*
X449136446Y-60325748D01*
X449136446Y-60754319D01*
X449279304Y-61040034D01*
X449136446Y-62040034D02*
X449136446Y-63182891D01*
X448136446Y-62468605D02*
X450707875Y-62468605D01*
X450993589Y-62611462D01*
X451136446Y-62897176D01*
X451136446Y-63182891D01*
X451136446Y-67754319D02*
X448136446Y-67754319D01*
X450993589Y-67754319D02*
X451136446Y-67468605D01*
X451136446Y-66897176D01*
X450993589Y-66611462D01*
X450850732Y-66468605D01*
X450565018Y-66325748D01*
X449707875Y-66325748D01*
X449422161Y-66468605D01*
X449279304Y-66611462D01*
X449136446Y-66897176D01*
X449136446Y-67468605D01*
X449279304Y-67754319D01*
X450993589Y-70325748D02*
X451136446Y-70040034D01*
X451136446Y-69468605D01*
X450993589Y-69182891D01*
X450707875Y-69040034D01*
X449565018Y-69040034D01*
X449279304Y-69182891D01*
X449136446Y-69468605D01*
X449136446Y-70040034D01*
X449279304Y-70325748D01*
X449565018Y-70468605D01*
X449850732Y-70468605D01*
X450136446Y-69040034D01*
X449136446Y-71468605D02*
X451136446Y-72182891D01*
X449136446Y-72897176D01*
X451136446Y-74040034D02*
X449136446Y-74040034D01*
X448136446Y-74040034D02*
X448279304Y-73897176D01*
X448422161Y-74040034D01*
X448279304Y-74182891D01*
X448136446Y-74040034D01*
X448422161Y-74040034D01*
X450993589Y-76754319D02*
X451136446Y-76468605D01*
X451136446Y-75897176D01*
X450993589Y-75611462D01*
X450850732Y-75468605D01*
X450565018Y-75325748D01*
X449707875Y-75325748D01*
X449422161Y-75468605D01*
X449279304Y-75611462D01*
X449136446Y-75897176D01*
X449136446Y-76468605D01*
X449279304Y-76754319D01*
X450993589Y-79182891D02*
X451136446Y-78897176D01*
X451136446Y-78325748D01*
X450993589Y-78040034D01*
X450707875Y-77897176D01*
X449565018Y-77897176D01*
X449279304Y-78040034D01*
X449136446Y-78325748D01*
X449136446Y-78897176D01*
X449279304Y-79182891D01*
X449565018Y-79325748D01*
X449850732Y-79325748D01*
X450136446Y-77897176D01*
X448422161Y-82754319D02*
X448279304Y-82897176D01*
X448136446Y-83182891D01*
X448136446Y-83897176D01*
X448279304Y-84182891D01*
X448422161Y-84325748D01*
X448707875Y-84468605D01*
X448993589Y-84468605D01*
X449422161Y-84325748D01*
X451136446Y-82611462D01*
X451136446Y-84468605D01*
%TO.C,H1*%
G36*
X442039304Y-95650034D02*
G01*
X448639304Y-95650034D01*
X448639304Y-102350034D01*
X442039304Y-102350034D01*
X442039304Y-95650034D01*
G37*
%TD*%
D11*
%TO.C,U15*%
X410764304Y-117100034D03*
X409264304Y-114600034D03*
X411514304Y-117100034D03*
X409264304Y-117100034D03*
X411514304Y-114600034D03*
X410764304Y-114600034D03*
X410014304Y-117100034D03*
X410014304Y-114600034D03*
%TD*%
%TO.C,U14*%
X458389334Y-41475034D03*
X455889334Y-42975034D03*
X458389334Y-40725034D03*
X458389334Y-42975034D03*
X455889334Y-40725034D03*
X455889334Y-41475034D03*
X458389334Y-42225034D03*
X455889334Y-42225034D03*
%TD*%
%TO.C,U13*%
X458389304Y-16475034D03*
X455889304Y-17975034D03*
X458389304Y-15725034D03*
X458389304Y-17975034D03*
X455889304Y-15725034D03*
X455889304Y-16475034D03*
X458389304Y-17225034D03*
X455889304Y-17225034D03*
%TD*%
%TO.C,U11*%
X458389304Y-100475034D03*
X455889304Y-101975034D03*
X458389304Y-99725034D03*
X458389304Y-101975034D03*
X455889304Y-99725034D03*
X455889304Y-100475034D03*
X458389304Y-101225034D03*
X455889304Y-101225034D03*
%TD*%
%TO.C,U10*%
X345514304Y-117100034D03*
X344014304Y-114600034D03*
X346264304Y-117100034D03*
X344014304Y-117100034D03*
X346264304Y-114600034D03*
X345514304Y-114600034D03*
X344764304Y-117100034D03*
X344764304Y-114600034D03*
%TD*%
%TO.C,U9*%
X442514304Y-117100034D03*
X441014304Y-114600034D03*
X443264304Y-117100034D03*
X441014304Y-117100034D03*
X443264304Y-114600034D03*
X442514304Y-114600034D03*
X441764304Y-117100034D03*
X441764304Y-114600034D03*
%TD*%
D12*
%TO.C,U38*%
X406539304Y-91250034D03*
D13*
X403999304Y-91250034D03*
X401459304Y-91250034D03*
%TD*%
D14*
%TO.C,H15*%
X426129304Y-8440034D03*
%TD*%
%TO.C,H10*%
X493439304Y-177250034D03*
%TD*%
D12*
%TO.C,J7*%
X461519304Y-144260034D03*
D13*
X461519304Y-141720034D03*
%TD*%
D12*
%TO.C,J33*%
X352139304Y-123120034D03*
D13*
X352139304Y-120580034D03*
%TD*%
D14*
%TO.C,H7*%
X334729304Y-143360034D03*
%TD*%
%TO.C,H14*%
X429629304Y-100440034D03*
%TD*%
D11*
%TO.C,U53*%
X375889304Y-149100034D03*
X376639304Y-146600034D03*
X377389304Y-149100034D03*
X378139304Y-146600034D03*
X375889304Y-146600034D03*
X376639304Y-149100034D03*
X377389304Y-146600034D03*
X378139304Y-149100034D03*
%TD*%
D12*
%TO.C,U2*%
X445709304Y-155784034D03*
D13*
X448249304Y-155784034D03*
X450789304Y-155784034D03*
X453329304Y-155784034D03*
X455869304Y-155784034D03*
X458409304Y-155784034D03*
X460949304Y-155784034D03*
X463489304Y-155784034D03*
X466029304Y-155784034D03*
X468569304Y-155784034D03*
X471109304Y-155784034D03*
X473649304Y-155784034D03*
X476189304Y-155784034D03*
X478729304Y-155784034D03*
X481269304Y-155784034D03*
X483809304Y-155784034D03*
X486349304Y-155784034D03*
X488889304Y-155784034D03*
X491429304Y-155784034D03*
X493969304Y-155784034D03*
%TD*%
D12*
%TO.C,J45*%
X438311804Y-108851034D03*
D13*
X440851804Y-108851034D03*
X443391804Y-108851034D03*
X445931804Y-108851034D03*
X448471804Y-108851034D03*
X451011804Y-108851034D03*
%TD*%
D15*
%TO.C,SW4*%
X362139304Y-106350034D03*
X371139304Y-106350034D03*
D16*
X369139304Y-100100034D03*
X369139304Y-112600034D03*
X364139304Y-100100034D03*
X364139304Y-112600034D03*
%TD*%
D17*
%TO.C,BT1*%
X484973602Y-128175179D03*
X468973602Y-72975179D03*
D18*
X484973602Y-64645179D03*
%TD*%
D12*
%TO.C,J48*%
X467169304Y-28630034D03*
D13*
X469709304Y-28630034D03*
X472249304Y-28630034D03*
X474789304Y-28630034D03*
%TD*%
D12*
%TO.C,J3*%
X431509304Y-151810034D03*
D13*
X428969304Y-151810034D03*
X426429304Y-151810034D03*
X423889304Y-151810034D03*
%TD*%
D12*
%TO.C,J30*%
X418549304Y-127850034D03*
D13*
X418549304Y-125310034D03*
X418549304Y-122770034D03*
X418549304Y-120230034D03*
%TD*%
D15*
%TO.C,SW3*%
X357139304Y-106350034D03*
X348139304Y-106350034D03*
D16*
X355139304Y-100100034D03*
X355139304Y-112600034D03*
X350139304Y-100100034D03*
X350139304Y-112600034D03*
%TD*%
D11*
%TO.C,U50*%
X418139342Y-133100068D03*
X417389342Y-133100068D03*
X416639342Y-130600068D03*
X416639342Y-133100068D03*
X415889342Y-133100068D03*
X418139342Y-130600068D03*
X417389342Y-130600068D03*
X415889342Y-130600068D03*
%TD*%
D19*
%TO.C,J10*%
X332384556Y-51675729D03*
X334834556Y-49675729D03*
X338534556Y-51675729D03*
X340434556Y-49675729D03*
X344184556Y-51675729D03*
%TD*%
D12*
%TO.C,J43*%
X399629304Y-7440034D03*
D13*
X399629304Y-9980034D03*
X399629304Y-12520034D03*
X399629304Y-15060034D03*
X399629304Y-17600034D03*
X399629304Y-20140034D03*
X399629304Y-22680034D03*
X399629304Y-25220034D03*
X399629304Y-27760034D03*
X399629304Y-30300034D03*
X399629304Y-32840034D03*
X399629304Y-35380034D03*
X399629304Y-37920034D03*
X399629304Y-40460034D03*
X399629304Y-43000034D03*
X399629304Y-45540034D03*
X399629304Y-48080034D03*
X399629304Y-50620034D03*
X399629304Y-53160034D03*
X399629304Y-55700034D03*
%TD*%
D20*
%TO.C,H4*%
X373886659Y-159705000D03*
%TD*%
D21*
%TO.C,H2*%
X340336360Y-91652978D03*
X336942248Y-91652978D03*
X338639304Y-95750034D03*
X336239304Y-93350034D03*
X336942248Y-95047090D03*
X341039304Y-93350034D03*
X338639304Y-90950034D03*
X340336360Y-95047090D03*
D22*
X338639304Y-93350034D03*
%TD*%
D11*
%TO.C,U56*%
X472389304Y-33100034D03*
X470139304Y-30600034D03*
X470889304Y-33100034D03*
X471639304Y-33100034D03*
X470889304Y-30600034D03*
X472389304Y-30600034D03*
X471639304Y-30600034D03*
X470139304Y-33100034D03*
%TD*%
%TO.C,U65*%
X412889304Y-169350034D03*
X415389304Y-169350034D03*
X412889304Y-170850034D03*
X412889304Y-170100034D03*
X415389304Y-170850034D03*
X415389304Y-170100034D03*
X412889304Y-168600034D03*
X415389304Y-168600034D03*
%TD*%
%TO.C,U49*%
X443639304Y-146600034D03*
X445139304Y-146600034D03*
X444389304Y-149100034D03*
X442889304Y-149100034D03*
X444389304Y-146600034D03*
X442889304Y-146600034D03*
X445139304Y-149100034D03*
X443639304Y-149100034D03*
%TD*%
D23*
%TO.C,H1*%
X445239304Y-98850034D03*
%TD*%
D12*
%TO.C,J46*%
X460139304Y-10850034D03*
D13*
X460139304Y-13390034D03*
X460139304Y-15930034D03*
X460139304Y-18470034D03*
X460139304Y-21010034D03*
X460139304Y-23550034D03*
%TD*%
D12*
%TO.C,J47*%
X481139304Y-24820034D03*
D13*
X481139304Y-22280034D03*
X481139304Y-19740034D03*
X481139304Y-17200034D03*
X481139304Y-14660034D03*
X481139304Y-12120034D03*
%TD*%
D12*
%TO.C,J42*%
X417179304Y-178725034D03*
D13*
X417179304Y-176185034D03*
X417179304Y-173645034D03*
X417179304Y-171105034D03*
X417179304Y-168565034D03*
X417179304Y-166025034D03*
X417179304Y-163485034D03*
X417179304Y-160945034D03*
%TD*%
D12*
%TO.C,J44*%
X427569304Y-84700034D03*
D13*
X425029304Y-84700034D03*
X422489304Y-84700034D03*
X419949304Y-84700034D03*
X417409304Y-84700034D03*
X414869304Y-84700034D03*
X412329304Y-84700034D03*
X409789304Y-84700034D03*
%TD*%
D12*
%TO.C,J5*%
X341539304Y-63325034D03*
D13*
X344079304Y-63325034D03*
X346619304Y-63325034D03*
X349159304Y-63325034D03*
%TD*%
D12*
%TO.C,J50*%
X460139304Y-34850034D03*
D13*
X460139304Y-37390034D03*
X460139304Y-39930034D03*
X460139304Y-42470034D03*
X460139304Y-45010034D03*
X460139304Y-47550034D03*
%TD*%
D24*
%TO.C,J2*%
X390329304Y-11155034D03*
X384549304Y-11155034D03*
D25*
X391759304Y-7475034D03*
X383119304Y-7475034D03*
D26*
X391759304Y-11655034D03*
X383119304Y-11655034D03*
%TD*%
D15*
%TO.C,SW2*%
X334139304Y-106350034D03*
X343139304Y-106350034D03*
D16*
X341139304Y-100100034D03*
X341139304Y-112600034D03*
X336139304Y-100100034D03*
X336139304Y-112600034D03*
%TD*%
%TO.C,TP3*%
X351193556Y-20015729D03*
%TD*%
D14*
%TO.C,H11*%
X470639304Y-11850034D03*
%TD*%
D12*
%TO.C,U3*%
X445709304Y-171024034D03*
D13*
X448249304Y-171024034D03*
X450789304Y-171024034D03*
X453329304Y-171024034D03*
X455869304Y-171024034D03*
X458409304Y-171024034D03*
X460949304Y-171024034D03*
X463489304Y-171024034D03*
X466029304Y-171024034D03*
X468569304Y-171024034D03*
X471109304Y-171024034D03*
X473649304Y-171024034D03*
X476189304Y-171024034D03*
X478729304Y-171024034D03*
X481269304Y-171024034D03*
X483809304Y-171024034D03*
X486349304Y-171024034D03*
X488889304Y-171024034D03*
X491429304Y-171024034D03*
X493969304Y-171024034D03*
%TD*%
D12*
%TO.C,J52*%
X430629304Y-89940034D03*
D13*
X428089304Y-89940034D03*
X425549304Y-89940034D03*
X423009304Y-89940034D03*
X420469304Y-89940034D03*
X417929304Y-89940034D03*
%TD*%
D16*
%TO.C,TP6*%
X364433556Y-22123229D03*
%TD*%
D12*
%TO.C,J40*%
X411099304Y-151029298D03*
D13*
X411099304Y-153569298D03*
X411099304Y-156109298D03*
X411099304Y-158649298D03*
X411099304Y-161189298D03*
X411099304Y-163729298D03*
X411099304Y-166269298D03*
X411099304Y-168809298D03*
%TD*%
D14*
%TO.C,H8*%
X452549304Y-120340034D03*
%TD*%
D27*
%TO.C,U8*%
X361784556Y-54275729D03*
D28*
X361784556Y-51735729D03*
X361784556Y-49195729D03*
X361784556Y-46655729D03*
X354164556Y-46655729D03*
X354164556Y-49195729D03*
X354164556Y-51735729D03*
X354164556Y-54275729D03*
%TD*%
D29*
%TO.C,R13*%
X336199640Y-9751424D03*
X336199640Y-12251424D03*
X336199640Y-14751424D03*
X338699640Y-9751424D03*
X338699640Y-12251424D03*
X338699640Y-14751424D03*
X344949640Y-9751424D03*
X344949640Y-14751424D03*
%TD*%
D14*
%TO.C,H12*%
X470639304Y-35850034D03*
%TD*%
D21*
%TO.C,H5*%
X447414748Y-21553978D03*
D22*
X449111804Y-23251034D03*
D21*
X447414748Y-24948090D03*
X451511804Y-23251034D03*
X446711804Y-23251034D03*
X450808860Y-21553978D03*
X449111804Y-25651034D03*
X450808860Y-24948090D03*
X449111804Y-20851034D03*
%TD*%
D14*
%TO.C,H9*%
X334839304Y-152450000D03*
%TD*%
D30*
%TO.C,J38*%
X335091553Y-168900000D03*
X335091553Y-160900000D03*
%TD*%
D12*
%TO.C,J34*%
X469139304Y-59440034D03*
D13*
X466599304Y-59440034D03*
X464059304Y-59440034D03*
X461519304Y-59440034D03*
%TD*%
D16*
%TO.C,TP8*%
X351284556Y-23375729D03*
%TD*%
D12*
%TO.C,J31*%
X377739304Y-7150034D03*
D13*
X375199304Y-7150034D03*
X372659304Y-7150034D03*
X370119304Y-7150034D03*
%TD*%
D19*
%TO.C,J1*%
X332384556Y-27375729D03*
X334834556Y-25375729D03*
X338534556Y-27375729D03*
X340434556Y-25375729D03*
X344184556Y-27375729D03*
%TD*%
D12*
%TO.C,J49*%
X467169304Y-52630034D03*
D13*
X469709304Y-52630034D03*
X472249304Y-52630034D03*
X474789304Y-52630034D03*
%TD*%
D11*
%TO.C,U52*%
X478639304Y-146600034D03*
X479389304Y-146600034D03*
X480139304Y-146600034D03*
X479389304Y-149100034D03*
X478639304Y-149100034D03*
X480139304Y-149100034D03*
X477889304Y-146600034D03*
X477889304Y-149100034D03*
%TD*%
D12*
%TO.C,J37*%
X453549304Y-143470034D03*
D13*
X451009304Y-143470034D03*
%TD*%
D11*
%TO.C,U60*%
X472389304Y-57100034D03*
X472389304Y-54600034D03*
X470889304Y-57100034D03*
X470889304Y-54600034D03*
X471639304Y-57100034D03*
X470139304Y-54600034D03*
X471639304Y-54600034D03*
X470139304Y-57100034D03*
%TD*%
%TO.C,U55*%
X349389304Y-149100034D03*
X348639304Y-149100034D03*
X348639304Y-146600034D03*
X350139304Y-146600034D03*
X347889304Y-149100034D03*
X347889304Y-146600034D03*
X350139304Y-149100034D03*
X349389304Y-146600034D03*
%TD*%
D12*
%TO.C,J12*%
X341039304Y-69325034D03*
D13*
X343579304Y-69325034D03*
X346119304Y-69325034D03*
X348659304Y-69325034D03*
X351199304Y-69325034D03*
X353739304Y-69325034D03*
X356279304Y-69325034D03*
%TD*%
D12*
%TO.C,J36*%
X368729304Y-135850034D03*
D13*
X368729304Y-138390034D03*
X368729304Y-140930034D03*
X368729304Y-143470034D03*
%TD*%
D12*
%TO.C,J32*%
X370119304Y-91970034D03*
D13*
X370119304Y-89430034D03*
%TD*%
D14*
%TO.C,H6*%
X484649304Y-143260034D03*
%TD*%
D15*
%TO.C,SW5*%
X376139304Y-106350034D03*
X385139304Y-106350034D03*
D16*
X383139304Y-100100034D03*
X383139304Y-112600034D03*
X378139304Y-100100034D03*
X378139304Y-112600034D03*
%TD*%
D12*
%TO.C,J8*%
X412849304Y-96970034D03*
D13*
X412849304Y-99510034D03*
X412849304Y-102050034D03*
X412849304Y-104590034D03*
%TD*%
D14*
%TO.C,H13*%
X393249304Y-90970034D03*
%TD*%
D19*
%TO.C,J11*%
X332370343Y-39525729D03*
X334820343Y-37525729D03*
X338520343Y-39525729D03*
X340420343Y-37525729D03*
X344170343Y-39525729D03*
%TD*%
D12*
%TO.C,J6*%
X451011804Y-8851034D03*
D13*
X448471804Y-8851034D03*
X445931804Y-8851034D03*
X443391804Y-8851034D03*
X440851804Y-8851034D03*
X438311804Y-8851034D03*
%TD*%
D31*
%TO.C,U40*%
X393886659Y-173705000D03*
D32*
X393886659Y-153705000D03*
%TD*%
D21*
%TO.C,H3*%
X357942248Y-11152978D03*
X361336360Y-14547090D03*
X359639304Y-10450034D03*
X362039304Y-12850034D03*
X357239304Y-12850034D03*
X359639304Y-15250034D03*
D22*
X359639304Y-12850034D03*
D21*
X361336360Y-11152978D03*
X357942248Y-14547090D03*
%TD*%
D12*
%TO.C,J53*%
X416659304Y-110940034D03*
D13*
X419199304Y-110940034D03*
X421739304Y-110940034D03*
X424279304Y-110940034D03*
X426819304Y-110940034D03*
X429359304Y-110940034D03*
%TD*%
D11*
%TO.C,U48*%
X370889342Y-133100034D03*
X373139342Y-133100034D03*
X373139342Y-130600034D03*
X371639342Y-130600034D03*
X370889342Y-130600034D03*
X371639342Y-133100034D03*
X372389342Y-133100034D03*
X372389342Y-130600034D03*
%TD*%
D12*
%TO.C,J39*%
X333839304Y-178950000D03*
D13*
X336379304Y-178950000D03*
X338919304Y-178950000D03*
X341459304Y-178950000D03*
X343999304Y-178950000D03*
X346539304Y-178950000D03*
X349079304Y-178950000D03*
X351619304Y-178950000D03*
X354159304Y-178950000D03*
X356699304Y-178950000D03*
X359239304Y-178950000D03*
X361779304Y-178950000D03*
X364319304Y-178950000D03*
X366859304Y-178950000D03*
X369399304Y-178950000D03*
X371939304Y-178950000D03*
X374479304Y-178950000D03*
X377019304Y-178950000D03*
X379559304Y-178950000D03*
X382099304Y-178950000D03*
%TD*%
D12*
%TO.C,J51*%
X481139304Y-48820034D03*
D13*
X481139304Y-46280034D03*
X481139304Y-43740034D03*
X481139304Y-41200034D03*
X481139304Y-38660034D03*
X481139304Y-36120034D03*
%TD*%
D12*
%TO.C,J35*%
X333729304Y-120230034D03*
D13*
X336269304Y-120230034D03*
%TD*%
D33*
%TO.C,SW7*%
X403029304Y-112440034D03*
D31*
X398029304Y-112440034D03*
X403029304Y-97940034D03*
X398029304Y-97940034D03*
X400529304Y-97940034D03*
D34*
X406229304Y-105440034D03*
X394829304Y-105440034D03*
%TD*%
D12*
%TO.C,J41*%
X494439304Y-150750034D03*
D13*
X491899304Y-150750034D03*
X489359304Y-150750034D03*
X486819304Y-150750034D03*
X484279304Y-150750034D03*
X481739304Y-150750034D03*
X479199304Y-150750034D03*
X476659304Y-150750034D03*
X474119304Y-150750034D03*
X471579304Y-150750034D03*
X469039304Y-150750034D03*
X466499304Y-150750034D03*
X463959304Y-150750034D03*
X461419304Y-150750034D03*
X458879304Y-150750034D03*
X456339304Y-150750034D03*
X453799304Y-150750034D03*
X451259304Y-150750034D03*
X448719304Y-150750034D03*
X446179304Y-150750034D03*
%TD*%
D21*
X333139304Y-12350034D03*
X335239304Y-28350034D03*
X346783556Y-28248229D03*
D35*
X357884556Y-31275729D03*
D21*
X340639304Y-14350034D03*
X342184556Y-19175729D03*
X350783556Y-35548229D03*
X332384556Y-8475729D03*
X341739304Y-28350034D03*
X384939304Y-14650034D03*
X389839304Y-14450034D03*
X424839304Y-68650034D03*
X422839304Y-64450034D03*
X384339304Y-48150034D03*
X385939304Y-32650034D03*
X349039304Y-154750000D03*
X379439304Y-174250000D03*
X358639304Y-158350000D03*
X343639304Y-160250000D03*
X407939304Y-166450000D03*
X369139304Y-152850000D03*
X361639304Y-175350000D03*
X359139304Y-161750000D03*
X388839304Y-153450000D03*
X402139304Y-152350000D03*
X408839304Y-172550000D03*
X385439304Y-178850000D03*
X378839304Y-162550000D03*
X344439304Y-151650000D03*
X387739304Y-162850000D03*
X402239304Y-166950000D03*
X373639304Y-166450000D03*
X384539304Y-169150000D03*
X344939304Y-176650000D03*
X349139304Y-158150000D03*
X337539304Y-176250000D03*
X401939304Y-163250000D03*
X342139304Y-175950000D03*
X347639304Y-176550000D03*
X358339304Y-176150000D03*
X343039304Y-164650000D03*
X365739304Y-151550000D03*
X359239304Y-154850000D03*
X353639304Y-175750000D03*
X381439304Y-157150000D03*
X363239304Y-173550000D03*
X343839304Y-169750000D03*
X350539304Y-176350000D03*
X352739304Y-162050000D03*
X396739304Y-178950000D03*
X356739304Y-175250000D03*
X353339304Y-166050000D03*
X435809304Y-153224034D03*
X458409304Y-159124034D03*
X478709304Y-158324034D03*
X472609304Y-175724034D03*
X441809304Y-158924034D03*
X467009304Y-173524034D03*
X440409304Y-171824034D03*
X486909304Y-158924034D03*
X489509304Y-174024034D03*
X447009304Y-178624034D03*
X482609304Y-162324034D03*
X493709304Y-158924034D03*
X450909304Y-159124034D03*
X453909304Y-162124034D03*
X439209304Y-162324034D03*
X455909304Y-158924034D03*
X480809304Y-168524034D03*
X463509304Y-165424034D03*
X494809304Y-168024034D03*
X468909304Y-165224034D03*
X435209304Y-158124034D03*
X427809304Y-162224034D03*
X426909304Y-168824034D03*
X427009304Y-176824034D03*
X420309304Y-155424034D03*
X476509304Y-159624034D03*
X490809304Y-158924034D03*
X441409304Y-151924034D03*
X425209304Y-162324034D03*
X477109304Y-174024034D03*
X453609304Y-158824034D03*
X487109304Y-168424034D03*
X469609304Y-173924034D03*
X425309304Y-156124034D03*
X480209304Y-175224034D03*
X489109304Y-153024034D03*
X386782836Y-173050500D03*
X387711044Y-170021741D03*
X386457021Y-170248512D03*
X385339304Y-172550000D03*
X388621247Y-170434700D03*
X387681037Y-171508267D03*
X458909304Y-163524034D03*
X456309304Y-161924034D03*
X467310077Y-160024534D03*
X470409304Y-157724034D03*
X484309304Y-153973045D03*
X486809304Y-153573534D03*
X478214682Y-160329412D03*
X481309304Y-158224034D03*
X453409304Y-176324034D03*
X447209304Y-175524034D03*
X462909304Y-176024034D03*
X465609304Y-175824034D03*
X459809304Y-175123035D03*
X449809304Y-174124034D03*
X476709304Y-168824034D03*
X452009304Y-173724034D03*
X461009304Y-161424034D03*
X457340222Y-164302358D03*
X455809304Y-165924034D03*
X452809304Y-166324034D03*
X471539284Y-168124534D03*
X474309304Y-166624034D03*
X384239304Y-162750000D03*
X384539304Y-157650000D03*
X374164697Y-170481179D03*
X373269239Y-170037152D03*
X383539304Y-158450000D03*
X406239304Y-172750000D03*
X406239304Y-163550000D03*
X385539304Y-167550500D03*
X405439304Y-171350000D03*
X405439304Y-162650000D03*
X387939304Y-160150000D03*
X372139304Y-173495815D03*
X386539304Y-159950000D03*
X373739304Y-176150000D03*
X386039304Y-161050000D03*
X385230669Y-161762877D03*
X375539304Y-176350000D03*
X376939304Y-171150000D03*
X388339304Y-165849500D03*
X377527840Y-171957855D03*
X387448051Y-166301908D03*
X386539304Y-166850000D03*
X378239304Y-172750000D03*
X404739304Y-177650000D03*
X404739304Y-169450000D03*
X404039304Y-178750000D03*
X404039304Y-170240979D03*
X403339304Y-171250000D03*
X401939304Y-179050000D03*
X400939304Y-178650000D03*
X402639304Y-172550000D03*
X401939304Y-173950000D03*
X400180937Y-177950500D03*
X348239304Y-46850034D03*
X348239304Y-52050034D03*
X365339304Y-38350034D03*
X348339304Y-60350034D03*
X386939304Y-27650034D03*
X467139304Y-108350034D03*
X465139304Y-61850034D03*
X467639304Y-92850034D03*
X460639304Y-79350034D03*
X467139304Y-80850034D03*
X460139304Y-98350034D03*
X459639304Y-123350034D03*
X466139304Y-143350034D03*
X468139304Y-131850034D03*
X460139304Y-72850034D03*
X462139304Y-138350034D03*
X338239304Y-122650034D03*
X349139304Y-127850034D03*
X410639304Y-127350034D03*
X410639304Y-122850034D03*
X377639304Y-139850034D03*
X452639304Y-139350034D03*
X447639304Y-140850034D03*
X377139304Y-134350034D03*
X394939304Y-96150034D03*
X407439304Y-28050034D03*
X350639304Y-53650034D03*
X410639304Y-13050034D03*
X391239304Y-44450034D03*
X341139304Y-54350034D03*
X363339304Y-61750034D03*
X347939304Y-98150034D03*
X348139304Y-9850034D03*
X364739304Y-54450034D03*
X431939304Y-106150034D03*
X343839304Y-96650034D03*
X370939304Y-95450034D03*
X389139304Y-32850034D03*
X401439304Y-50450034D03*
X336739304Y-66150034D03*
X387539304Y-50250034D03*
X379539304Y-90350034D03*
X395639304Y-36550034D03*
X352539304Y-89850034D03*
X346239304Y-66350034D03*
X339139304Y-58650034D03*
X368339304Y-41050034D03*
X360039304Y-36050034D03*
X391639304Y-40350034D03*
X362739304Y-63550034D03*
X425339304Y-54950034D03*
X370439304Y-53250034D03*
X357239304Y-44250034D03*
X350439304Y-73450034D03*
X379939304Y-30150034D03*
X343639304Y-48850034D03*
X414439304Y-82250034D03*
X408639304Y-44550034D03*
X335139304Y-53850034D03*
X425239304Y-40650034D03*
X346239304Y-85250034D03*
X393839304Y-75150034D03*
X341639304Y-84350034D03*
X343139304Y-36850034D03*
X409239304Y-89250034D03*
D35*
X359684556Y-29275729D03*
D21*
X390239304Y-93750034D03*
X384339304Y-90350034D03*
X383439304Y-84150034D03*
X355039304Y-63150034D03*
X381939304Y-90350034D03*
X380483926Y-37205412D03*
X387339304Y-97750034D03*
X404139304Y-73450034D03*
X365039304Y-31250034D03*
X378139304Y-32850034D03*
X418339304Y-64550034D03*
X366139304Y-5850034D03*
X358239304Y-51950034D03*
X342839304Y-90050034D03*
X411439304Y-80450034D03*
X404239304Y-78550034D03*
X402339304Y-29650034D03*
X350639304Y-47350034D03*
X377839304Y-22950034D03*
X334639304Y-42350034D03*
X337639304Y-36850034D03*
X412239304Y-20850034D03*
X341039304Y-41350034D03*
X398339304Y-69350034D03*
X393939304Y-25850034D03*
X422239304Y-24050034D03*
X409539304Y-66750034D03*
X391239304Y-31150034D03*
X341139304Y-109650034D03*
X379739304Y-41150034D03*
X356139304Y-57650034D03*
X395339304Y-39750034D03*
X416239304Y-104250034D03*
X372139304Y-85450034D03*
X352239304Y-93350034D03*
X395739304Y-53250034D03*
X364739304Y-57550034D03*
X416339304Y-69550034D03*
X389139304Y-36450034D03*
X404139304Y-12350034D03*
X363839304Y-26650034D03*
X399939304Y-61850034D03*
X375239304Y-92150034D03*
X413839304Y-74050034D03*
X366139304Y-10850034D03*
X419739304Y-95650034D03*
X419539304Y-29850034D03*
X419439304Y-48250034D03*
X388339304Y-102350034D03*
X363339304Y-33750034D03*
X418139304Y-78850034D03*
X390939304Y-46850034D03*
X419839304Y-62250034D03*
X379339304Y-38650034D03*
X402139304Y-37650034D03*
X378939304Y-45250034D03*
X402339304Y-23050034D03*
D35*
X359284556Y-32875729D03*
D21*
X413139304Y-108950034D03*
X356239304Y-73150034D03*
X345939304Y-73450034D03*
X356239304Y-54350034D03*
X406839304Y-62850034D03*
X353639304Y-40550034D03*
X396039304Y-46850034D03*
X426539304Y-80650034D03*
X384439304Y-28050034D03*
X365339304Y-71550034D03*
X368439304Y-67150034D03*
X350139304Y-86650034D03*
X407039304Y-69550034D03*
X402369821Y-65549534D03*
X386839304Y-33850034D03*
X387439304Y-46450034D03*
X400139304Y-64850034D03*
X418539304Y-68650034D03*
X463239304Y-25050034D03*
X463139304Y-17550034D03*
X471239304Y-17550034D03*
X465139304Y-13850034D03*
X461639304Y-27350034D03*
X473439304Y-25850034D03*
X465839304Y-17250034D03*
X469839304Y-24750034D03*
X476638304Y-17422534D03*
X470639304Y-42550034D03*
X470439304Y-47150034D03*
X476639304Y-35850034D03*
X467239304Y-48250034D03*
X461639304Y-51850034D03*
X476865304Y-44120034D03*
X465139304Y-36350034D03*
X471339304Y-39750034D03*
X463639304Y-40350034D03*
X462739304Y-44050034D03*
X464338304Y-46422534D03*
X467937666Y-44421895D03*
X469138304Y-45522534D03*
X472238304Y-47422534D03*
X474838304Y-47422534D03*
X372639304Y-13850034D03*
X388139304Y-7350034D03*
X383639304Y-19850034D03*
X380139304Y-11850034D03*
X387607980Y-28588594D03*
X381639304Y-40550034D03*
X471939304Y-16350034D03*
X473039304Y-15250034D03*
X363039304Y-156250000D03*
X403239304Y-156350000D03*
X413239304Y-76450034D03*
X386104986Y-31415716D03*
X384439304Y-40550034D03*
X415139304Y-91350034D03*
X413539304Y-90750034D03*
X383139304Y-40650034D03*
X411747378Y-76247352D03*
X388633926Y-29544656D03*
X348639304Y-66450034D03*
X398739304Y-81550034D03*
X399639304Y-93450034D03*
X397639304Y-93350034D03*
X397639304Y-80750034D03*
X396339304Y-80650034D03*
X396139304Y-93450034D03*
M02*
