M48
; DRILL file {KiCad (6.0.5)} date Fri Aug 12 21:43:39 2022
; FORMAT={-:-/ absolute / inch / decimal}
; #@! TF.CreationDate,2022-08-12T21:43:39+02:00
; #@! TF.GenerationSoftware,Kicad,Pcbnew,(6.0.5)
; #@! TF.FileFunction,NonPlated,1,2,NPTH
FMAT,2
INCH
; #@! TA.AperFunction,NonPlated,NPTH,ComponentDrill
T1C0.0197
; #@! TA.AperFunction,NonPlated,NPTH,ComponentDrill
T2C0.0256
; #@! TA.AperFunction,NonPlated,NPTH,ComponentDrill
T3C0.0394
; #@! TA.AperFunction,NonPlated,NPTH,ComponentDrill
T4C0.0453
; #@! TA.AperFunction,NonPlated,NPTH,ComponentDrill
T5C0.0650
; #@! TA.AperFunction,NonPlated,NPTH,ComponentDrill
T6C0.0728
; #@! TA.AperFunction,NonPlated,NPTH,ComponentDrill
T7C0.0941
; #@! TA.AperFunction,NonPlated,NPTH,ComponentDrill
T8C0.1260
; #@! TA.AperFunction,NonPlated,NPTH,ComponentDrill
T9C0.1358
%
G90
G05
T1
X13.5439Y-4.5118
X13.5439Y-4.6102
X13.5734Y-4.5118
X13.5734Y-4.6102
X13.6029Y-4.5118
X13.6029Y-4.6102
X13.6325Y-4.5118
X13.6325Y-4.6102
X13.6964Y-5.7717
X13.6964Y-5.8701
X13.726Y-5.7717
X13.726Y-5.8701
X13.7555Y-5.7717
X13.7555Y-5.8701
X13.785Y-5.7717
X13.785Y-5.8701
X14.6019Y-5.1417
X14.6019Y-5.2402
X14.6315Y-5.1417
X14.6315Y-5.2402
X14.661Y-5.1417
X14.661Y-5.2402
X14.6905Y-5.1417
X14.6905Y-5.2402
X14.7988Y-5.7717
X14.7988Y-5.8701
X14.8283Y-5.7717
X14.8283Y-5.8701
X14.8578Y-5.7717
X14.8578Y-5.8701
X14.8874Y-5.7717
X14.8874Y-5.8701
X16.1128Y-4.5118
X16.1128Y-4.6102
X16.1423Y-4.5118
X16.1423Y-4.6102
X16.1718Y-4.5118
X16.1718Y-4.6102
X16.2014Y-4.5118
X16.2014Y-4.6102
X16.2555Y-6.6378
X16.2555Y-6.6673
X16.2555Y-6.6969
X16.2555Y-6.7264
X16.3539Y-6.6378
X16.3539Y-6.6673
X16.3539Y-6.6969
X16.3539Y-6.7264
X16.3736Y-5.1417
X16.3736Y-5.2402
X16.4031Y-5.1417
X16.4031Y-5.2402
X16.4327Y-5.1417
X16.4327Y-5.2402
X16.4622Y-5.1417
X16.4622Y-5.2402
X17.3628Y-4.5118
X17.3628Y-4.6102
X17.3923Y-4.5118
X17.3923Y-4.6102
X17.4218Y-4.5118
X17.4218Y-4.6102
X17.4366Y-5.7717
X17.4366Y-5.8701
X17.4514Y-4.5118
X17.4514Y-4.6102
X17.4661Y-5.7717
X17.4661Y-5.8701
X17.4956Y-5.7717
X17.4956Y-5.8701
X17.5252Y-5.7717
X17.5252Y-5.8701
X17.9484Y-0.6191
X17.9484Y-0.6486
X17.9484Y-0.6782
X17.9484Y-0.7077
X17.9484Y-3.9262
X17.9484Y-3.9557
X17.9484Y-3.9852
X17.9484Y-4.0148
X17.9484Y-1.6033
X17.9484Y-1.6329
X17.9484Y-1.6624
X17.9484Y-1.6919
X18.0468Y-0.6191
X18.0468Y-0.6486
X18.0468Y-0.6782
X18.0468Y-0.7077
X18.0468Y-3.9262
X18.0468Y-3.9557
X18.0468Y-3.9852
X18.0468Y-4.0148
X18.0468Y-1.6033
X18.0468Y-1.6329
X18.0468Y-1.6624
X18.0468Y-1.6919
X18.5094Y-1.2047
X18.5094Y-1.3032
X18.5094Y-2.1496
X18.5094Y-2.248
X18.5389Y-1.2047
X18.5389Y-1.3032
X18.5389Y-2.1496
X18.5389Y-2.248
X18.5685Y-1.2047
X18.5685Y-1.3032
X18.5685Y-2.1496
X18.5685Y-2.248
X18.598Y-1.2047
X18.598Y-1.3032
X18.598Y-2.1496
X18.598Y-2.248
X18.8145Y-5.7717
X18.8145Y-5.8701
X18.8441Y-5.7717
X18.8441Y-5.8701
X18.8736Y-5.7717
X18.8736Y-5.8701
X18.9031Y-5.7717
X18.9031Y-5.8701
T2
X15.1397Y-0.4392
X15.3673Y-0.4392
T3
X13.1926Y-6.3346
X13.1926Y-6.6496
T4
X15.5073Y-6.0514
T5
X15.5073Y-6.8388
T6
X13.1551Y-4.187
X13.5094Y-4.187
X13.7063Y-4.187
X14.0606Y-4.187
X14.2575Y-4.187
X14.6118Y-4.187
X14.8086Y-4.187
X15.163Y-4.187
T7
X19.0934Y-2.5451
T8
X13.1783Y-5.6441
X13.1826Y-6.002
X15.4823Y-3.5815
X16.7767Y-0.3323
X16.9145Y-3.9543
X17.8169Y-4.7378
X18.5291Y-0.4665
X18.5291Y-1.4114
X19.0807Y-5.6402
X19.4267Y-6.9783
T9
X18.4635Y-2.873
X19.0934Y-5.0463
T0
M30
