G04 #@! TF.GenerationSoftware,KiCad,Pcbnew,(6.0.5)*
G04 #@! TF.CreationDate,2022-06-14T17:18:27+02:00*
G04 #@! TF.ProjectId,midiperformer,6d696469-7065-4726-966f-726d65722e6b,rev?*
G04 #@! TF.SameCoordinates,Original*
G04 #@! TF.FileFunction,Legend,Top*
G04 #@! TF.FilePolarity,Positive*
%FSLAX46Y46*%
G04 Gerber Fmt 4.6, Leading zero omitted, Abs format (unit mm)*
G04 Created by KiCad (PCBNEW (6.0.5)) date 2022-06-14 17:18:27*
%MOMM*%
%LPD*%
G01*
G04 APERTURE LIST*
G04 Aperture macros list*
%AMRoundRect*
0 Rectangle with rounded corners*
0 $1 Rounding radius*
0 $2 $3 $4 $5 $6 $7 $8 $9 X,Y pos of 4 corners*
0 Add a 4 corners polygon primitive as box body*
4,1,4,$2,$3,$4,$5,$6,$7,$8,$9,$2,$3,0*
0 Add four circle primitives for the rounded corners*
1,1,$1+$1,$2,$3*
1,1,$1+$1,$4,$5*
1,1,$1+$1,$6,$7*
1,1,$1+$1,$8,$9*
0 Add four rect primitives between the rounded corners*
20,1,$1+$1,$2,$3,$4,$5,0*
20,1,$1+$1,$4,$5,$6,$7,0*
20,1,$1+$1,$6,$7,$8,$9,0*
20,1,$1+$1,$8,$9,$2,$3,0*%
G04 Aperture macros list end*
%ADD10C,0.150000*%
%ADD11C,0.120000*%
%ADD12C,0.100000*%
%ADD13RoundRect,0.135000X0.135000X0.185000X-0.135000X0.185000X-0.135000X-0.185000X0.135000X-0.185000X0*%
%ADD14R,1.700000X1.700000*%
%ADD15O,1.700000X1.700000*%
%ADD16R,1.200000X0.900000*%
%ADD17RoundRect,0.135000X-0.185000X0.135000X-0.185000X-0.135000X0.185000X-0.135000X0.185000X0.135000X0*%
%ADD18RoundRect,0.135000X0.185000X-0.135000X0.185000X0.135000X-0.185000X0.135000X-0.185000X-0.135000X0*%
%ADD19R,1.600000X1.600000*%
%ADD20C,1.600000*%
%ADD21RoundRect,0.140000X-0.170000X0.140000X-0.170000X-0.140000X0.170000X-0.140000X0.170000X0.140000X0*%
%ADD22O,1.600000X1.600000*%
%ADD23R,2.200000X1.200000*%
%ADD24R,6.400000X5.800000*%
%ADD25C,6.400000*%
G04 APERTURE END LIST*
D10*
X229652380Y-61804761D02*
X228652380Y-61804761D01*
X229652380Y-61328571D02*
X228652380Y-61328571D01*
X229652380Y-60757142D01*
X228652380Y-60757142D01*
X229128571Y-59185714D02*
X229176190Y-59042857D01*
X229223809Y-58995238D01*
X229319047Y-58947619D01*
X229461904Y-58947619D01*
X229557142Y-58995238D01*
X229604761Y-59042857D01*
X229652380Y-59138095D01*
X229652380Y-59519047D01*
X228652380Y-59519047D01*
X228652380Y-59185714D01*
X228700000Y-59090476D01*
X228747619Y-59042857D01*
X228842857Y-58995238D01*
X228938095Y-58995238D01*
X229033333Y-59042857D01*
X229080952Y-59090476D01*
X229128571Y-59185714D01*
X229128571Y-59519047D01*
X232652380Y-61733333D02*
X231652380Y-61733333D01*
X232652380Y-61257142D02*
X231652380Y-61257142D01*
X232652380Y-60685714D01*
X231652380Y-60685714D01*
X232366666Y-59495238D02*
X232366666Y-59019047D01*
X232652380Y-59590476D02*
X231652380Y-59257142D01*
X232652380Y-58923809D01*
X207409523Y-59747619D02*
X207219047Y-59747619D01*
X207123809Y-59700000D01*
X207028571Y-59604761D01*
X206980952Y-59414285D01*
X206980952Y-59080952D01*
X207028571Y-58890476D01*
X207123809Y-58795238D01*
X207219047Y-58747619D01*
X207409523Y-58747619D01*
X207504761Y-58795238D01*
X207600000Y-58890476D01*
X207647619Y-59080952D01*
X207647619Y-59414285D01*
X207600000Y-59604761D01*
X207504761Y-59700000D01*
X207409523Y-59747619D01*
X206552380Y-59747619D02*
X206552380Y-58938095D01*
X206504761Y-58842857D01*
X206457142Y-58795238D01*
X206361904Y-58747619D01*
X206171428Y-58747619D01*
X206076190Y-58795238D01*
X206028571Y-58842857D01*
X205980952Y-58938095D01*
X205980952Y-59747619D01*
X205647619Y-59747619D02*
X205076190Y-59747619D01*
X205361904Y-58747619D02*
X205361904Y-59747619D01*
X204028571Y-59033333D02*
X203552380Y-59033333D01*
X204123809Y-58747619D02*
X203790476Y-59747619D01*
X203457142Y-58747619D01*
X208519047Y-65252380D02*
X208709523Y-65252380D01*
X208804761Y-65300000D01*
X208900000Y-65395238D01*
X208947619Y-65585714D01*
X208947619Y-65919047D01*
X208900000Y-66109523D01*
X208804761Y-66204761D01*
X208709523Y-66252380D01*
X208519047Y-66252380D01*
X208423809Y-66204761D01*
X208328571Y-66109523D01*
X208280952Y-65919047D01*
X208280952Y-65585714D01*
X208328571Y-65395238D01*
X208423809Y-65300000D01*
X208519047Y-65252380D01*
X209376190Y-65252380D02*
X209376190Y-66061904D01*
X209423809Y-66157142D01*
X209471428Y-66204761D01*
X209566666Y-66252380D01*
X209757142Y-66252380D01*
X209852380Y-66204761D01*
X209900000Y-66157142D01*
X209947619Y-66061904D01*
X209947619Y-65252380D01*
X210280952Y-65252380D02*
X210852380Y-65252380D01*
X210566666Y-66252380D02*
X210566666Y-65252380D01*
X212280952Y-65728571D02*
X212423809Y-65776190D01*
X212471428Y-65823809D01*
X212519047Y-65919047D01*
X212519047Y-66061904D01*
X212471428Y-66157142D01*
X212423809Y-66204761D01*
X212328571Y-66252380D01*
X211947619Y-66252380D01*
X211947619Y-65252380D01*
X212280952Y-65252380D01*
X212376190Y-65300000D01*
X212423809Y-65347619D01*
X212471428Y-65442857D01*
X212471428Y-65538095D01*
X212423809Y-65633333D01*
X212376190Y-65680952D01*
X212280952Y-65728571D01*
X211947619Y-65728571D01*
X201590476Y-93052380D02*
X201828571Y-94052380D01*
X202019047Y-93338095D01*
X202209523Y-94052380D01*
X202447619Y-93052380D01*
X202780952Y-94004761D02*
X202923809Y-94052380D01*
X203161904Y-94052380D01*
X203257142Y-94004761D01*
X203304761Y-93957142D01*
X203352380Y-93861904D01*
X203352380Y-93766666D01*
X203304761Y-93671428D01*
X203257142Y-93623809D01*
X203161904Y-93576190D01*
X202971428Y-93528571D01*
X202876190Y-93480952D01*
X202828571Y-93433333D01*
X202780952Y-93338095D01*
X202780952Y-93242857D01*
X202828571Y-93147619D01*
X202876190Y-93100000D01*
X202971428Y-93052380D01*
X203209523Y-93052380D01*
X203352380Y-93100000D01*
X203733333Y-93147619D02*
X203780952Y-93100000D01*
X203876190Y-93052380D01*
X204114285Y-93052380D01*
X204209523Y-93100000D01*
X204257142Y-93147619D01*
X204304761Y-93242857D01*
X204304761Y-93338095D01*
X204257142Y-93480952D01*
X203685714Y-94052380D01*
X204304761Y-94052380D01*
X204876190Y-93480952D02*
X204780952Y-93433333D01*
X204733333Y-93385714D01*
X204685714Y-93290476D01*
X204685714Y-93242857D01*
X204733333Y-93147619D01*
X204780952Y-93100000D01*
X204876190Y-93052380D01*
X205066666Y-93052380D01*
X205161904Y-93100000D01*
X205209523Y-93147619D01*
X205257142Y-93242857D01*
X205257142Y-93290476D01*
X205209523Y-93385714D01*
X205161904Y-93433333D01*
X205066666Y-93480952D01*
X204876190Y-93480952D01*
X204780952Y-93528571D01*
X204733333Y-93576190D01*
X204685714Y-93671428D01*
X204685714Y-93861904D01*
X204733333Y-93957142D01*
X204780952Y-94004761D01*
X204876190Y-94052380D01*
X205066666Y-94052380D01*
X205161904Y-94004761D01*
X205209523Y-93957142D01*
X205257142Y-93861904D01*
X205257142Y-93671428D01*
X205209523Y-93576190D01*
X205161904Y-93528571D01*
X205066666Y-93480952D01*
X206209523Y-94052380D02*
X205638095Y-94052380D01*
X205923809Y-94052380D02*
X205923809Y-93052380D01*
X205828571Y-93195238D01*
X205733333Y-93290476D01*
X205638095Y-93338095D01*
X206590476Y-93147619D02*
X206638095Y-93100000D01*
X206733333Y-93052380D01*
X206971428Y-93052380D01*
X207066666Y-93100000D01*
X207114285Y-93147619D01*
X207161904Y-93242857D01*
X207161904Y-93338095D01*
X207114285Y-93480952D01*
X206542857Y-94052380D01*
X207161904Y-94052380D01*
X205809523Y-94452380D02*
X206428571Y-94452380D01*
X206095238Y-94833333D01*
X206238095Y-94833333D01*
X206333333Y-94880952D01*
X206380952Y-94928571D01*
X206428571Y-95023809D01*
X206428571Y-95261904D01*
X206380952Y-95357142D01*
X206333333Y-95404761D01*
X206238095Y-95452380D01*
X205952380Y-95452380D01*
X205857142Y-95404761D01*
X205809523Y-95357142D01*
X206761904Y-94785714D02*
X207000000Y-95452380D01*
X207238095Y-94785714D01*
X207523809Y-94452380D02*
X208142857Y-94452380D01*
X207809523Y-94833333D01*
X207952380Y-94833333D01*
X208047619Y-94880952D01*
X208095238Y-94928571D01*
X208142857Y-95023809D01*
X208142857Y-95261904D01*
X208095238Y-95357142D01*
X208047619Y-95404761D01*
X207952380Y-95452380D01*
X207666666Y-95452380D01*
X207571428Y-95404761D01*
X207523809Y-95357142D01*
X200838095Y-94500000D02*
X200742857Y-94452380D01*
X200600000Y-94452380D01*
X200457142Y-94500000D01*
X200361904Y-94595238D01*
X200314285Y-94690476D01*
X200266666Y-94880952D01*
X200266666Y-95023809D01*
X200314285Y-95214285D01*
X200361904Y-95309523D01*
X200457142Y-95404761D01*
X200600000Y-95452380D01*
X200695238Y-95452380D01*
X200838095Y-95404761D01*
X200885714Y-95357142D01*
X200885714Y-95023809D01*
X200695238Y-95023809D01*
X201314285Y-95452380D02*
X201314285Y-94452380D01*
X201885714Y-95452380D01*
X201885714Y-94452380D01*
X202361904Y-95452380D02*
X202361904Y-94452380D01*
X202600000Y-94452380D01*
X202742857Y-94500000D01*
X202838095Y-94595238D01*
X202885714Y-94690476D01*
X202933333Y-94880952D01*
X202933333Y-95023809D01*
X202885714Y-95214285D01*
X202838095Y-95309523D01*
X202742857Y-95404761D01*
X202600000Y-95452380D01*
X202361904Y-95452380D01*
X217238095Y-97100000D02*
X217142857Y-97052380D01*
X217000000Y-97052380D01*
X216857142Y-97100000D01*
X216761904Y-97195238D01*
X216714285Y-97290476D01*
X216666666Y-97480952D01*
X216666666Y-97623809D01*
X216714285Y-97814285D01*
X216761904Y-97909523D01*
X216857142Y-98004761D01*
X217000000Y-98052380D01*
X217095238Y-98052380D01*
X217238095Y-98004761D01*
X217285714Y-97957142D01*
X217285714Y-97623809D01*
X217095238Y-97623809D01*
X217714285Y-98052380D02*
X217714285Y-97052380D01*
X218285714Y-98052380D01*
X218285714Y-97052380D01*
X218761904Y-98052380D02*
X218761904Y-97052380D01*
X219000000Y-97052380D01*
X219142857Y-97100000D01*
X219238095Y-97195238D01*
X219285714Y-97290476D01*
X219333333Y-97480952D01*
X219333333Y-97623809D01*
X219285714Y-97814285D01*
X219238095Y-97909523D01*
X219142857Y-98004761D01*
X219000000Y-98052380D01*
X218761904Y-98052380D01*
X216961904Y-95271428D02*
X217723809Y-95271428D01*
X217342857Y-95652380D02*
X217342857Y-94890476D01*
X218247619Y-95652380D02*
X218438095Y-95652380D01*
X218533333Y-95604761D01*
X218580952Y-95557142D01*
X218676190Y-95414285D01*
X218723809Y-95223809D01*
X218723809Y-94842857D01*
X218676190Y-94747619D01*
X218628571Y-94700000D01*
X218533333Y-94652380D01*
X218342857Y-94652380D01*
X218247619Y-94700000D01*
X218200000Y-94747619D01*
X218152380Y-94842857D01*
X218152380Y-95080952D01*
X218200000Y-95176190D01*
X218247619Y-95223809D01*
X218342857Y-95271428D01*
X218533333Y-95271428D01*
X218628571Y-95223809D01*
X218676190Y-95176190D01*
X218723809Y-95080952D01*
X219057142Y-94985714D02*
X219295238Y-95652380D01*
X219533333Y-94985714D01*
X213783333Y-64222380D02*
X213450000Y-63746190D01*
X213211904Y-64222380D02*
X213211904Y-63222380D01*
X213592857Y-63222380D01*
X213688095Y-63270000D01*
X213735714Y-63317619D01*
X213783333Y-63412857D01*
X213783333Y-63555714D01*
X213735714Y-63650952D01*
X213688095Y-63698571D01*
X213592857Y-63746190D01*
X213211904Y-63746190D01*
X214640476Y-63555714D02*
X214640476Y-64222380D01*
X214402380Y-63174761D02*
X214164285Y-63889047D01*
X214783333Y-63889047D01*
X206057143Y-87762380D02*
X205723810Y-87286190D01*
X205485715Y-87762380D02*
X205485715Y-86762380D01*
X205866667Y-86762380D01*
X205961905Y-86810000D01*
X206009524Y-86857619D01*
X206057143Y-86952857D01*
X206057143Y-87095714D01*
X206009524Y-87190952D01*
X205961905Y-87238571D01*
X205866667Y-87286190D01*
X205485715Y-87286190D01*
X207009524Y-87762380D02*
X206438096Y-87762380D01*
X206723810Y-87762380D02*
X206723810Y-86762380D01*
X206628572Y-86905238D01*
X206533334Y-87000476D01*
X206438096Y-87048095D01*
X207628572Y-86762380D02*
X207723810Y-86762380D01*
X207819048Y-86810000D01*
X207866667Y-86857619D01*
X207914286Y-86952857D01*
X207961905Y-87143333D01*
X207961905Y-87381428D01*
X207914286Y-87571904D01*
X207866667Y-87667142D01*
X207819048Y-87714761D01*
X207723810Y-87762380D01*
X207628572Y-87762380D01*
X207533334Y-87714761D01*
X207485715Y-87667142D01*
X207438096Y-87571904D01*
X207390477Y-87381428D01*
X207390477Y-87143333D01*
X207438096Y-86952857D01*
X207485715Y-86857619D01*
X207533334Y-86810000D01*
X207628572Y-86762380D01*
X206533334Y-90162380D02*
X206200001Y-89686190D01*
X205961905Y-90162380D02*
X205961905Y-89162380D01*
X206342858Y-89162380D01*
X206438096Y-89210000D01*
X206485715Y-89257619D01*
X206533334Y-89352857D01*
X206533334Y-89495714D01*
X206485715Y-89590952D01*
X206438096Y-89638571D01*
X206342858Y-89686190D01*
X205961905Y-89686190D01*
X207009524Y-90162380D02*
X207200001Y-90162380D01*
X207295239Y-90114761D01*
X207342858Y-90067142D01*
X207438096Y-89924285D01*
X207485715Y-89733809D01*
X207485715Y-89352857D01*
X207438096Y-89257619D01*
X207390477Y-89210000D01*
X207295239Y-89162380D01*
X207104762Y-89162380D01*
X207009524Y-89210000D01*
X206961905Y-89257619D01*
X206914286Y-89352857D01*
X206914286Y-89590952D01*
X206961905Y-89686190D01*
X207009524Y-89733809D01*
X207104762Y-89781428D01*
X207295239Y-89781428D01*
X207390477Y-89733809D01*
X207438096Y-89686190D01*
X207485715Y-89590952D01*
X210866666Y-95204761D02*
X211009523Y-95252380D01*
X211247619Y-95252380D01*
X211342857Y-95204761D01*
X211390476Y-95157142D01*
X211438095Y-95061904D01*
X211438095Y-94966666D01*
X211390476Y-94871428D01*
X211342857Y-94823809D01*
X211247619Y-94776190D01*
X211057142Y-94728571D01*
X210961904Y-94680952D01*
X210914285Y-94633333D01*
X210866666Y-94538095D01*
X210866666Y-94442857D01*
X210914285Y-94347619D01*
X210961904Y-94300000D01*
X211057142Y-94252380D01*
X211295238Y-94252380D01*
X211438095Y-94300000D01*
X211771428Y-94252380D02*
X212009523Y-95252380D01*
X212200000Y-94538095D01*
X212390476Y-95252380D01*
X212628571Y-94252380D01*
X213533333Y-95252380D02*
X212961904Y-95252380D01*
X213247619Y-95252380D02*
X213247619Y-94252380D01*
X213152380Y-94395238D01*
X213057142Y-94490476D01*
X212961904Y-94538095D01*
X211388333Y-72297380D02*
X211055000Y-71821190D01*
X210816904Y-72297380D02*
X210816904Y-71297380D01*
X211197857Y-71297380D01*
X211293095Y-71345000D01*
X211340714Y-71392619D01*
X211388333Y-71487857D01*
X211388333Y-71630714D01*
X211340714Y-71725952D01*
X211293095Y-71773571D01*
X211197857Y-71821190D01*
X210816904Y-71821190D01*
X212293095Y-71297380D02*
X211816904Y-71297380D01*
X211769285Y-71773571D01*
X211816904Y-71725952D01*
X211912142Y-71678333D01*
X212150238Y-71678333D01*
X212245476Y-71725952D01*
X212293095Y-71773571D01*
X212340714Y-71868809D01*
X212340714Y-72106904D01*
X212293095Y-72202142D01*
X212245476Y-72249761D01*
X212150238Y-72297380D01*
X211912142Y-72297380D01*
X211816904Y-72249761D01*
X211769285Y-72202142D01*
X213588333Y-72297380D02*
X213255000Y-71821190D01*
X213016904Y-72297380D02*
X213016904Y-71297380D01*
X213397857Y-71297380D01*
X213493095Y-71345000D01*
X213540714Y-71392619D01*
X213588333Y-71487857D01*
X213588333Y-71630714D01*
X213540714Y-71725952D01*
X213493095Y-71773571D01*
X213397857Y-71821190D01*
X213016904Y-71821190D01*
X214445476Y-71297380D02*
X214255000Y-71297380D01*
X214159761Y-71345000D01*
X214112142Y-71392619D01*
X214016904Y-71535476D01*
X213969285Y-71725952D01*
X213969285Y-72106904D01*
X214016904Y-72202142D01*
X214064523Y-72249761D01*
X214159761Y-72297380D01*
X214350238Y-72297380D01*
X214445476Y-72249761D01*
X214493095Y-72202142D01*
X214540714Y-72106904D01*
X214540714Y-71868809D01*
X214493095Y-71773571D01*
X214445476Y-71725952D01*
X214350238Y-71678333D01*
X214159761Y-71678333D01*
X214064523Y-71725952D01*
X214016904Y-71773571D01*
X213969285Y-71868809D01*
X225488095Y-81352380D02*
X225488095Y-82161904D01*
X225535714Y-82257142D01*
X225583333Y-82304761D01*
X225678571Y-82352380D01*
X225869047Y-82352380D01*
X225964285Y-82304761D01*
X226011904Y-82257142D01*
X226059523Y-82161904D01*
X226059523Y-81352380D01*
X226964285Y-81685714D02*
X226964285Y-82352380D01*
X226726190Y-81304761D02*
X226488095Y-82019047D01*
X227107142Y-82019047D01*
X206057143Y-72362380D02*
X205723810Y-71886190D01*
X205485715Y-72362380D02*
X205485715Y-71362380D01*
X205866667Y-71362380D01*
X205961905Y-71410000D01*
X206009524Y-71457619D01*
X206057143Y-71552857D01*
X206057143Y-71695714D01*
X206009524Y-71790952D01*
X205961905Y-71838571D01*
X205866667Y-71886190D01*
X205485715Y-71886190D01*
X207009524Y-72362380D02*
X206438096Y-72362380D01*
X206723810Y-72362380D02*
X206723810Y-71362380D01*
X206628572Y-71505238D01*
X206533334Y-71600476D01*
X206438096Y-71648095D01*
X207866667Y-71362380D02*
X207676191Y-71362380D01*
X207580953Y-71410000D01*
X207533334Y-71457619D01*
X207438096Y-71600476D01*
X207390477Y-71790952D01*
X207390477Y-72171904D01*
X207438096Y-72267142D01*
X207485715Y-72314761D01*
X207580953Y-72362380D01*
X207771429Y-72362380D01*
X207866667Y-72314761D01*
X207914286Y-72267142D01*
X207961905Y-72171904D01*
X207961905Y-71933809D01*
X207914286Y-71838571D01*
X207866667Y-71790952D01*
X207771429Y-71743333D01*
X207580953Y-71743333D01*
X207485715Y-71790952D01*
X207438096Y-71838571D01*
X207390477Y-71933809D01*
X206057143Y-77562380D02*
X205723810Y-77086190D01*
X205485715Y-77562380D02*
X205485715Y-76562380D01*
X205866667Y-76562380D01*
X205961905Y-76610000D01*
X206009524Y-76657619D01*
X206057143Y-76752857D01*
X206057143Y-76895714D01*
X206009524Y-76990952D01*
X205961905Y-77038571D01*
X205866667Y-77086190D01*
X205485715Y-77086190D01*
X207009524Y-77562380D02*
X206438096Y-77562380D01*
X206723810Y-77562380D02*
X206723810Y-76562380D01*
X206628572Y-76705238D01*
X206533334Y-76800476D01*
X206438096Y-76848095D01*
X207342858Y-76562380D02*
X207961905Y-76562380D01*
X207628572Y-76943333D01*
X207771429Y-76943333D01*
X207866667Y-76990952D01*
X207914286Y-77038571D01*
X207961905Y-77133809D01*
X207961905Y-77371904D01*
X207914286Y-77467142D01*
X207866667Y-77514761D01*
X207771429Y-77562380D01*
X207485715Y-77562380D01*
X207390477Y-77514761D01*
X207342858Y-77467142D01*
X211583333Y-64222380D02*
X211250000Y-63746190D01*
X211011904Y-64222380D02*
X211011904Y-63222380D01*
X211392857Y-63222380D01*
X211488095Y-63270000D01*
X211535714Y-63317619D01*
X211583333Y-63412857D01*
X211583333Y-63555714D01*
X211535714Y-63650952D01*
X211488095Y-63698571D01*
X211392857Y-63746190D01*
X211011904Y-63746190D01*
X211916666Y-63222380D02*
X212535714Y-63222380D01*
X212202380Y-63603333D01*
X212345238Y-63603333D01*
X212440476Y-63650952D01*
X212488095Y-63698571D01*
X212535714Y-63793809D01*
X212535714Y-64031904D01*
X212488095Y-64127142D01*
X212440476Y-64174761D01*
X212345238Y-64222380D01*
X212059523Y-64222380D01*
X211964285Y-64174761D01*
X211916666Y-64127142D01*
X206167143Y-74992380D02*
X205833810Y-74516190D01*
X205595715Y-74992380D02*
X205595715Y-73992380D01*
X205976667Y-73992380D01*
X206071905Y-74040000D01*
X206119524Y-74087619D01*
X206167143Y-74182857D01*
X206167143Y-74325714D01*
X206119524Y-74420952D01*
X206071905Y-74468571D01*
X205976667Y-74516190D01*
X205595715Y-74516190D01*
X207119524Y-74992380D02*
X206548096Y-74992380D01*
X206833810Y-74992380D02*
X206833810Y-73992380D01*
X206738572Y-74135238D01*
X206643334Y-74230476D01*
X206548096Y-74278095D01*
X207976667Y-74325714D02*
X207976667Y-74992380D01*
X207738572Y-73944761D02*
X207500477Y-74659047D01*
X208119524Y-74659047D01*
X221638095Y-91852380D02*
X221638095Y-92661904D01*
X221685714Y-92757142D01*
X221733333Y-92804761D01*
X221828571Y-92852380D01*
X222019047Y-92852380D01*
X222114285Y-92804761D01*
X222161904Y-92757142D01*
X222209523Y-92661904D01*
X222209523Y-91852380D01*
X222590476Y-91852380D02*
X223209523Y-91852380D01*
X222876190Y-92233333D01*
X223019047Y-92233333D01*
X223114285Y-92280952D01*
X223161904Y-92328571D01*
X223209523Y-92423809D01*
X223209523Y-92661904D01*
X223161904Y-92757142D01*
X223114285Y-92804761D01*
X223019047Y-92852380D01*
X222733333Y-92852380D01*
X222638095Y-92804761D01*
X222590476Y-92757142D01*
X206057143Y-80162380D02*
X205723810Y-79686190D01*
X205485715Y-80162380D02*
X205485715Y-79162380D01*
X205866667Y-79162380D01*
X205961905Y-79210000D01*
X206009524Y-79257619D01*
X206057143Y-79352857D01*
X206057143Y-79495714D01*
X206009524Y-79590952D01*
X205961905Y-79638571D01*
X205866667Y-79686190D01*
X205485715Y-79686190D01*
X207009524Y-80162380D02*
X206438096Y-80162380D01*
X206723810Y-80162380D02*
X206723810Y-79162380D01*
X206628572Y-79305238D01*
X206533334Y-79400476D01*
X206438096Y-79448095D01*
X207390477Y-79257619D02*
X207438096Y-79210000D01*
X207533334Y-79162380D01*
X207771429Y-79162380D01*
X207866667Y-79210000D01*
X207914286Y-79257619D01*
X207961905Y-79352857D01*
X207961905Y-79448095D01*
X207914286Y-79590952D01*
X207342858Y-80162380D01*
X207961905Y-80162380D01*
X206057143Y-82562380D02*
X205723810Y-82086190D01*
X205485715Y-82562380D02*
X205485715Y-81562380D01*
X205866667Y-81562380D01*
X205961905Y-81610000D01*
X206009524Y-81657619D01*
X206057143Y-81752857D01*
X206057143Y-81895714D01*
X206009524Y-81990952D01*
X205961905Y-82038571D01*
X205866667Y-82086190D01*
X205485715Y-82086190D01*
X207009524Y-82562380D02*
X206438096Y-82562380D01*
X206723810Y-82562380D02*
X206723810Y-81562380D01*
X206628572Y-81705238D01*
X206533334Y-81800476D01*
X206438096Y-81848095D01*
X207914286Y-81562380D02*
X207438096Y-81562380D01*
X207390477Y-82038571D01*
X207438096Y-81990952D01*
X207533334Y-81943333D01*
X207771429Y-81943333D01*
X207866667Y-81990952D01*
X207914286Y-82038571D01*
X207961905Y-82133809D01*
X207961905Y-82371904D01*
X207914286Y-82467142D01*
X207866667Y-82514761D01*
X207771429Y-82562380D01*
X207533334Y-82562380D01*
X207438096Y-82514761D01*
X207390477Y-82467142D01*
X206057143Y-85162380D02*
X205723810Y-84686190D01*
X205485715Y-85162380D02*
X205485715Y-84162380D01*
X205866667Y-84162380D01*
X205961905Y-84210000D01*
X206009524Y-84257619D01*
X206057143Y-84352857D01*
X206057143Y-84495714D01*
X206009524Y-84590952D01*
X205961905Y-84638571D01*
X205866667Y-84686190D01*
X205485715Y-84686190D01*
X207009524Y-85162380D02*
X206438096Y-85162380D01*
X206723810Y-85162380D02*
X206723810Y-84162380D01*
X206628572Y-84305238D01*
X206533334Y-84400476D01*
X206438096Y-84448095D01*
X207961905Y-85162380D02*
X207390477Y-85162380D01*
X207676191Y-85162380D02*
X207676191Y-84162380D01*
X207580953Y-84305238D01*
X207485715Y-84400476D01*
X207390477Y-84448095D01*
D11*
X214103641Y-62980000D02*
X213796359Y-62980000D01*
X214103641Y-62220000D02*
X213796359Y-62220000D01*
X206545000Y-66845000D02*
X207875000Y-66845000D01*
X214285000Y-69505000D02*
X214285000Y-66845000D01*
X209145000Y-69505000D02*
X214285000Y-69505000D01*
X206545000Y-68175000D02*
X206545000Y-66845000D01*
X209145000Y-66845000D02*
X214285000Y-66845000D01*
X209145000Y-69505000D02*
X209145000Y-66845000D01*
X206853642Y-85760000D02*
X206546360Y-85760000D01*
X206853642Y-86520000D02*
X206546360Y-86520000D01*
X206853642Y-88920000D02*
X206546360Y-88920000D01*
X206853642Y-88160000D02*
X206546360Y-88160000D01*
X215437745Y-66992256D02*
X217437745Y-66992256D01*
X217437745Y-66992256D02*
X217437745Y-63092256D01*
X215437745Y-66992256D02*
X215437745Y-63092256D01*
X242700000Y-69116359D02*
X242700000Y-69423641D01*
X243460000Y-69116359D02*
X243460000Y-69423641D01*
X215885000Y-61505000D02*
X215885000Y-58845000D01*
X210745000Y-58845000D02*
X215885000Y-58845000D01*
X210745000Y-61505000D02*
X210745000Y-58845000D01*
X210745000Y-61505000D02*
X215885000Y-61505000D01*
X208145000Y-60175000D02*
X208145000Y-58845000D01*
X208145000Y-58845000D02*
X209475000Y-58845000D01*
X216657745Y-68385897D02*
X216657745Y-68078615D01*
X217417745Y-68385897D02*
X217417745Y-68078615D01*
X213670000Y-96070000D02*
X216270000Y-96070000D01*
X211070000Y-96070000D02*
X212400000Y-96070000D01*
X216270000Y-98730000D02*
X216270000Y-96070000D01*
X211070000Y-97400000D02*
X211070000Y-96070000D01*
X213670000Y-98730000D02*
X216270000Y-98730000D01*
X213670000Y-98730000D02*
X213670000Y-96070000D01*
X211708641Y-71055000D02*
X211401359Y-71055000D01*
X211708641Y-70295000D02*
X211401359Y-70295000D01*
X213908641Y-71055000D02*
X213601359Y-71055000D01*
X213908641Y-70295000D02*
X213601359Y-70295000D01*
X222870000Y-61530000D02*
X222870000Y-58870000D01*
X220270000Y-58870000D02*
X221600000Y-58870000D01*
X220270000Y-60200000D02*
X220270000Y-58870000D01*
X228010000Y-61530000D02*
X228010000Y-58870000D01*
X222870000Y-58870000D02*
X228010000Y-58870000D01*
X222870000Y-61530000D02*
X228010000Y-61530000D01*
X202570001Y-90670000D02*
X202570001Y-88070000D01*
X199970001Y-90670000D02*
X199970001Y-89340000D01*
X205170001Y-90670000D02*
X202570001Y-90670000D01*
X201300001Y-90670000D02*
X199970001Y-90670000D01*
X205170001Y-70230000D02*
X199970001Y-70230000D01*
X199970001Y-88070000D02*
X199970001Y-70230000D01*
X205170001Y-90670000D02*
X205170001Y-70230000D01*
X202570001Y-88070000D02*
X199970001Y-88070000D01*
D10*
X210810000Y-83550000D02*
X211310000Y-84050000D01*
X213360000Y-79550000D02*
X212810000Y-79550000D01*
X208280000Y-72910000D02*
X243840000Y-72910000D01*
X238760000Y-85610000D02*
X243840000Y-85610000D01*
X245110000Y-77990000D02*
X245110000Y-85610000D01*
X219060000Y-76800000D02*
X214060000Y-81800000D01*
X213310000Y-83550000D02*
X212810000Y-84050000D01*
X211310000Y-84050000D02*
X212810000Y-84050000D01*
X224060000Y-81800000D02*
X219060000Y-76800000D01*
X212810000Y-79550000D02*
X213310000Y-80050000D01*
X238760000Y-77990000D02*
X243840000Y-77990000D01*
X213060000Y-82550000D02*
X213060000Y-81050000D01*
X238760000Y-77990000D02*
X238760000Y-85610000D01*
X210810000Y-84050000D02*
X210820000Y-79550000D01*
X208280000Y-90690000D02*
X208280000Y-72910000D01*
X213360000Y-84050000D02*
X210820000Y-84050000D01*
X243840000Y-72910000D02*
X243840000Y-90690000D01*
X243840000Y-90690000D02*
X208280000Y-90690000D01*
X243840000Y-77990000D02*
X245110000Y-77990000D01*
X213360000Y-79550000D02*
X213360000Y-84050000D01*
X211060000Y-81050000D02*
X211060000Y-82550000D01*
X210820000Y-79550000D02*
X213360000Y-79550000D01*
X219060000Y-86800000D02*
X224060000Y-81800000D01*
X245110000Y-85610000D02*
X243840000Y-85610000D01*
X214060000Y-81800000D02*
X219060000Y-86800000D01*
X210810000Y-80050000D02*
X211310000Y-79550000D01*
X213060000Y-81050000D02*
G75*
G03*
X211060000Y-81050000I-1000000J0D01*
G01*
X211060000Y-82550000D02*
G75*
G03*
X213060000Y-82550000I1000000J0D01*
G01*
G36*
X219746000Y-84252000D02*
G01*
X219365000Y-84506000D01*
X219111000Y-84252000D01*
X219492000Y-83998000D01*
X219746000Y-84252000D01*
G37*
D12*
X219746000Y-84252000D02*
X219365000Y-84506000D01*
X219111000Y-84252000D01*
X219492000Y-83998000D01*
X219746000Y-84252000D01*
G36*
X220127000Y-84633000D02*
G01*
X219746000Y-84887000D01*
X219492000Y-84633000D01*
X219873000Y-84379000D01*
X220127000Y-84633000D01*
G37*
X220127000Y-84633000D02*
X219746000Y-84887000D01*
X219492000Y-84633000D01*
X219873000Y-84379000D01*
X220127000Y-84633000D01*
G36*
X219492000Y-83109000D02*
G01*
X219111000Y-83363000D01*
X218857000Y-83109000D01*
X219238000Y-82855000D01*
X219492000Y-83109000D01*
G37*
X219492000Y-83109000D02*
X219111000Y-83363000D01*
X218857000Y-83109000D01*
X219238000Y-82855000D01*
X219492000Y-83109000D01*
G36*
X219619000Y-85014000D02*
G01*
X219238000Y-85268000D01*
X218984000Y-85014000D01*
X219365000Y-84760000D01*
X219619000Y-85014000D01*
G37*
X219619000Y-85014000D02*
X219238000Y-85268000D01*
X218984000Y-85014000D01*
X219365000Y-84760000D01*
X219619000Y-85014000D01*
G36*
X219873000Y-83490000D02*
G01*
X219492000Y-83744000D01*
X219238000Y-83490000D01*
X219619000Y-83236000D01*
X219873000Y-83490000D01*
G37*
X219873000Y-83490000D02*
X219492000Y-83744000D01*
X219238000Y-83490000D01*
X219619000Y-83236000D01*
X219873000Y-83490000D01*
G36*
X220254000Y-83871000D02*
G01*
X219873000Y-84125000D01*
X219619000Y-83871000D01*
X220000000Y-83617000D01*
X220254000Y-83871000D01*
G37*
X220254000Y-83871000D02*
X219873000Y-84125000D01*
X219619000Y-83871000D01*
X220000000Y-83617000D01*
X220254000Y-83871000D01*
G36*
X219238000Y-84633000D02*
G01*
X218857000Y-84887000D01*
X218603000Y-84633000D01*
X218984000Y-84379000D01*
X219238000Y-84633000D01*
G37*
X219238000Y-84633000D02*
X218857000Y-84887000D01*
X218603000Y-84633000D01*
X218984000Y-84379000D01*
X219238000Y-84633000D01*
G36*
X219111000Y-85395000D02*
G01*
X218730000Y-85649000D01*
X218476000Y-85395000D01*
X218857000Y-85141000D01*
X219111000Y-85395000D01*
G37*
X219111000Y-85395000D02*
X218730000Y-85649000D01*
X218476000Y-85395000D01*
X218857000Y-85141000D01*
X219111000Y-85395000D01*
D11*
X241270000Y-61672256D02*
X241270000Y-59012256D01*
X236130000Y-59012256D02*
X241270000Y-59012256D01*
X236130000Y-61672256D02*
X241270000Y-61672256D01*
X236130000Y-61672256D02*
X236130000Y-59012256D01*
X233530000Y-60342256D02*
X233530000Y-59012256D01*
X233530000Y-59012256D02*
X234860000Y-59012256D01*
X231260000Y-68423641D02*
X231260000Y-68116359D01*
X230500000Y-68423641D02*
X230500000Y-68116359D01*
X206853642Y-71120000D02*
X206546360Y-71120000D01*
X206853642Y-70360000D02*
X206546360Y-70360000D01*
X229077745Y-71324420D02*
X229077745Y-71540092D01*
X229797745Y-71324420D02*
X229797745Y-71540092D01*
X231930000Y-70040000D02*
X242210000Y-70040000D01*
X242210000Y-66390000D02*
X242210000Y-64740000D01*
X231930000Y-64740000D02*
X231930000Y-70040000D01*
X242210000Y-64740000D02*
X231930000Y-64740000D01*
X242210000Y-70040000D02*
X242210000Y-68390000D01*
X242210000Y-66390000D02*
G75*
G03*
X242210000Y-68390000I0J-1000000D01*
G01*
X206853642Y-76320000D02*
X206546360Y-76320000D01*
X206853642Y-75560000D02*
X206546360Y-75560000D01*
X211903641Y-62980000D02*
X211596359Y-62980000D01*
X211903641Y-62220000D02*
X211596359Y-62220000D01*
X206853642Y-72960000D02*
X206546360Y-72960000D01*
X206853642Y-73720000D02*
X206546360Y-73720000D01*
X229280000Y-67030000D02*
X231280000Y-67030000D01*
X229280000Y-67030000D02*
X229280000Y-63130000D01*
X231280000Y-67030000D02*
X231280000Y-63130000D01*
X226505000Y-92150000D02*
X226505000Y-92420000D01*
X228005000Y-92150000D02*
X226505000Y-92150000D01*
X226505000Y-92420000D02*
X223675000Y-92420000D01*
X228005000Y-99050000D02*
X226505000Y-99050000D01*
X226505000Y-99050000D02*
X226505000Y-98780000D01*
X226505000Y-98780000D02*
X225405000Y-98780000D01*
X206853642Y-78920000D02*
X206546360Y-78920000D01*
X206853642Y-78160000D02*
X206546360Y-78160000D01*
X243440000Y-71152164D02*
X243440000Y-71367836D01*
X242720000Y-71152164D02*
X242720000Y-71367836D01*
X206853642Y-80560000D02*
X206546360Y-80560000D01*
X206853642Y-81320000D02*
X206546360Y-81320000D01*
X206853642Y-83920000D02*
X206546360Y-83920000D01*
X206853642Y-83160000D02*
X206546360Y-83160000D01*
X203345000Y-96245000D02*
X208485000Y-96245000D01*
X200745000Y-97575000D02*
X200745000Y-96245000D01*
X203345000Y-98905000D02*
X203345000Y-96245000D01*
X203345000Y-98905000D02*
X208485000Y-98905000D01*
X200745000Y-96245000D02*
X202075000Y-96245000D01*
X208485000Y-98905000D02*
X208485000Y-96245000D01*
X229057745Y-69188615D02*
X229057745Y-69495897D01*
X229817745Y-69188615D02*
X229817745Y-69495897D01*
X219670000Y-96270000D02*
X219670000Y-98870000D01*
X221000000Y-93670000D02*
X222330000Y-93670000D01*
X222330000Y-96270000D02*
X222330000Y-98870000D01*
X219670000Y-98870000D02*
X222330000Y-98870000D01*
X222330000Y-93670000D02*
X222330000Y-95000000D01*
X219670000Y-96270000D02*
X222330000Y-96270000D01*
X218087745Y-70002256D02*
X228367745Y-70002256D01*
X228367745Y-66352256D02*
X228367745Y-64702256D01*
X228367745Y-64702256D02*
X218087745Y-64702256D01*
X218087745Y-64702256D02*
X218087745Y-70002256D01*
X228367745Y-70002256D02*
X228367745Y-68352256D01*
X228367745Y-66352256D02*
G75*
G03*
X228367745Y-68352256I0J-1000000D01*
G01*
%LPC*%
D13*
X214460000Y-62600000D03*
X213440000Y-62600000D03*
D14*
X207875000Y-68175000D03*
D15*
X210415000Y-68175000D03*
X212955000Y-68175000D03*
D13*
X207210001Y-86140000D03*
X206190001Y-86140000D03*
X207210001Y-88540000D03*
X206190001Y-88540000D03*
D16*
X216437745Y-66392256D03*
X216437745Y-63092256D03*
D17*
X243080000Y-68760000D03*
X243080000Y-69780000D03*
D14*
X209475000Y-60175000D03*
D15*
X212015000Y-60175000D03*
X214555000Y-60175000D03*
D18*
X217037745Y-68742256D03*
X217037745Y-67722256D03*
D14*
X212400000Y-97400000D03*
D15*
X214940000Y-97400000D03*
D13*
X212065000Y-70675000D03*
X211045000Y-70675000D03*
X214265000Y-70675000D03*
X213245000Y-70675000D03*
D14*
X221600000Y-60200000D03*
D15*
X224140000Y-60200000D03*
X226680000Y-60200000D03*
D14*
X201300001Y-89340000D03*
D15*
X203840001Y-89340000D03*
X201300001Y-86800000D03*
X203840001Y-86800000D03*
X201300001Y-84260000D03*
X203840001Y-84260000D03*
X201300001Y-81720000D03*
X203840001Y-81720000D03*
X201300001Y-79180000D03*
X203840001Y-79180000D03*
X201300001Y-76640000D03*
X203840001Y-76640000D03*
X201300001Y-74100000D03*
X203840001Y-74100000D03*
X201300001Y-71560000D03*
X203840001Y-71560000D03*
D19*
X242570000Y-74180000D03*
D20*
X240030000Y-74180000D03*
X237490000Y-74180000D03*
X234950000Y-74180000D03*
X232410000Y-74180000D03*
X229870000Y-74180000D03*
X227330000Y-74180000D03*
X224790000Y-74180000D03*
X222250000Y-74180000D03*
X219710000Y-74180000D03*
X217170000Y-74180000D03*
X214630000Y-74180000D03*
X212090000Y-74180000D03*
X209550000Y-74180000D03*
X209550000Y-89420000D03*
X212090000Y-89420000D03*
X214630000Y-89420000D03*
X217170000Y-89420000D03*
X219710000Y-89420000D03*
X222250000Y-89420000D03*
X224790000Y-89420000D03*
X227330000Y-89420000D03*
X229870000Y-89420000D03*
X232410000Y-89420000D03*
X234950000Y-89420000D03*
X237490000Y-89420000D03*
X240030000Y-89420000D03*
X242570000Y-89420000D03*
D14*
X234860000Y-60342256D03*
D15*
X237400000Y-60342256D03*
X239940000Y-60342256D03*
D18*
X230880000Y-68780000D03*
X230880000Y-67760000D03*
D13*
X207210001Y-70740000D03*
X206190001Y-70740000D03*
D21*
X229437745Y-70952256D03*
X229437745Y-71912256D03*
D19*
X240880000Y-63580000D03*
D22*
X238340000Y-63580000D03*
X235800000Y-63580000D03*
X233260000Y-63580000D03*
X233260000Y-71200000D03*
X235800000Y-71200000D03*
X238340000Y-71200000D03*
X240880000Y-71200000D03*
D13*
X207210001Y-75940000D03*
X206190001Y-75940000D03*
X212260000Y-62600000D03*
X211240000Y-62600000D03*
X207210001Y-73340000D03*
X206190001Y-73340000D03*
D16*
X230280000Y-66430000D03*
X230280000Y-63130000D03*
D23*
X224775000Y-93320000D03*
D24*
X231075000Y-95600000D03*
D23*
X224775000Y-97880000D03*
D13*
X207210001Y-78540000D03*
X206190001Y-78540000D03*
D21*
X243080000Y-70780000D03*
X243080000Y-71740000D03*
D13*
X207210001Y-80940000D03*
X206190001Y-80940000D03*
X207210001Y-83540000D03*
X206190001Y-83540000D03*
D25*
X238600000Y-95000000D03*
D14*
X202075000Y-97575000D03*
D15*
X204615000Y-97575000D03*
X207155000Y-97575000D03*
D25*
X203800000Y-63600000D03*
D17*
X229437745Y-68832256D03*
X229437745Y-69852256D03*
D14*
X221000000Y-95000000D03*
D15*
X221000000Y-97540000D03*
D19*
X227037745Y-63542256D03*
D22*
X224497745Y-63542256D03*
X221957745Y-63542256D03*
X219417745Y-63542256D03*
X219417745Y-71162256D03*
X221957745Y-71162256D03*
X224497745Y-71162256D03*
X227037745Y-71162256D03*
M02*
