G04 #@! TF.GenerationSoftware,KiCad,Pcbnew,(6.0.5)*
G04 #@! TF.CreationDate,2022-06-14T17:18:27+02:00*
G04 #@! TF.ProjectId,midiperformer,6d696469-7065-4726-966f-726d65722e6b,rev?*
G04 #@! TF.SameCoordinates,Original*
G04 #@! TF.FileFunction,Copper,L1,Top*
G04 #@! TF.FilePolarity,Positive*
%FSLAX46Y46*%
G04 Gerber Fmt 4.6, Leading zero omitted, Abs format (unit mm)*
G04 Created by KiCad (PCBNEW (6.0.5)) date 2022-06-14 17:18:27*
%MOMM*%
%LPD*%
G01*
G04 APERTURE LIST*
G04 Aperture macros list*
%AMRoundRect*
0 Rectangle with rounded corners*
0 $1 Rounding radius*
0 $2 $3 $4 $5 $6 $7 $8 $9 X,Y pos of 4 corners*
0 Add a 4 corners polygon primitive as box body*
4,1,4,$2,$3,$4,$5,$6,$7,$8,$9,$2,$3,0*
0 Add four circle primitives for the rounded corners*
1,1,$1+$1,$2,$3*
1,1,$1+$1,$4,$5*
1,1,$1+$1,$6,$7*
1,1,$1+$1,$8,$9*
0 Add four rect primitives between the rounded corners*
20,1,$1+$1,$2,$3,$4,$5,0*
20,1,$1+$1,$4,$5,$6,$7,0*
20,1,$1+$1,$6,$7,$8,$9,0*
20,1,$1+$1,$8,$9,$2,$3,0*%
G04 Aperture macros list end*
G04 #@! TA.AperFunction,SMDPad,CuDef*
%ADD10RoundRect,0.135000X0.135000X0.185000X-0.135000X0.185000X-0.135000X-0.185000X0.135000X-0.185000X0*%
G04 #@! TD*
G04 #@! TA.AperFunction,ComponentPad*
%ADD11R,1.700000X1.700000*%
G04 #@! TD*
G04 #@! TA.AperFunction,ComponentPad*
%ADD12O,1.700000X1.700000*%
G04 #@! TD*
G04 #@! TA.AperFunction,SMDPad,CuDef*
%ADD13R,1.200000X0.900000*%
G04 #@! TD*
G04 #@! TA.AperFunction,SMDPad,CuDef*
%ADD14RoundRect,0.135000X-0.185000X0.135000X-0.185000X-0.135000X0.185000X-0.135000X0.185000X0.135000X0*%
G04 #@! TD*
G04 #@! TA.AperFunction,SMDPad,CuDef*
%ADD15RoundRect,0.135000X0.185000X-0.135000X0.185000X0.135000X-0.185000X0.135000X-0.185000X-0.135000X0*%
G04 #@! TD*
G04 #@! TA.AperFunction,ComponentPad*
%ADD16R,1.600000X1.600000*%
G04 #@! TD*
G04 #@! TA.AperFunction,ComponentPad*
%ADD17C,1.600000*%
G04 #@! TD*
G04 #@! TA.AperFunction,SMDPad,CuDef*
%ADD18RoundRect,0.140000X-0.170000X0.140000X-0.170000X-0.140000X0.170000X-0.140000X0.170000X0.140000X0*%
G04 #@! TD*
G04 #@! TA.AperFunction,ComponentPad*
%ADD19O,1.600000X1.600000*%
G04 #@! TD*
G04 #@! TA.AperFunction,SMDPad,CuDef*
%ADD20R,2.200000X1.200000*%
G04 #@! TD*
G04 #@! TA.AperFunction,SMDPad,CuDef*
%ADD21R,6.400000X5.800000*%
G04 #@! TD*
G04 #@! TA.AperFunction,ComponentPad*
%ADD22C,6.400000*%
G04 #@! TD*
G04 #@! TA.AperFunction,ViaPad*
%ADD23C,0.800000*%
G04 #@! TD*
G04 #@! TA.AperFunction,Conductor*
%ADD24C,0.250000*%
G04 #@! TD*
G04 APERTURE END LIST*
D10*
X214460000Y-62600000D03*
X213440000Y-62600000D03*
D11*
X207875000Y-68175000D03*
D12*
X210415000Y-68175000D03*
X212955000Y-68175000D03*
D10*
X207210001Y-86140000D03*
X206190001Y-86140000D03*
X207210001Y-88540000D03*
X206190001Y-88540000D03*
D13*
X216437745Y-66392256D03*
X216437745Y-63092256D03*
D14*
X243080000Y-68760000D03*
X243080000Y-69780000D03*
D11*
X209475000Y-60175000D03*
D12*
X212015000Y-60175000D03*
X214555000Y-60175000D03*
D15*
X217037745Y-68742256D03*
X217037745Y-67722256D03*
D11*
X212400000Y-97400000D03*
D12*
X214940000Y-97400000D03*
D10*
X212065000Y-70675000D03*
X211045000Y-70675000D03*
X214265000Y-70675000D03*
X213245000Y-70675000D03*
D11*
X221600000Y-60200000D03*
D12*
X224140000Y-60200000D03*
X226680000Y-60200000D03*
D11*
X201300001Y-89340000D03*
D12*
X203840001Y-89340000D03*
X201300001Y-86800000D03*
X203840001Y-86800000D03*
X201300001Y-84260000D03*
X203840001Y-84260000D03*
X201300001Y-81720000D03*
X203840001Y-81720000D03*
X201300001Y-79180000D03*
X203840001Y-79180000D03*
X201300001Y-76640000D03*
X203840001Y-76640000D03*
X201300001Y-74100000D03*
X203840001Y-74100000D03*
X201300001Y-71560000D03*
X203840001Y-71560000D03*
D16*
X242570000Y-74180000D03*
D17*
X240030000Y-74180000D03*
X237490000Y-74180000D03*
X234950000Y-74180000D03*
X232410000Y-74180000D03*
X229870000Y-74180000D03*
X227330000Y-74180000D03*
X224790000Y-74180000D03*
X222250000Y-74180000D03*
X219710000Y-74180000D03*
X217170000Y-74180000D03*
X214630000Y-74180000D03*
X212090000Y-74180000D03*
X209550000Y-74180000D03*
X209550000Y-89420000D03*
X212090000Y-89420000D03*
X214630000Y-89420000D03*
X217170000Y-89420000D03*
X219710000Y-89420000D03*
X222250000Y-89420000D03*
X224790000Y-89420000D03*
X227330000Y-89420000D03*
X229870000Y-89420000D03*
X232410000Y-89420000D03*
X234950000Y-89420000D03*
X237490000Y-89420000D03*
X240030000Y-89420000D03*
X242570000Y-89420000D03*
D11*
X234860000Y-60342256D03*
D12*
X237400000Y-60342256D03*
X239940000Y-60342256D03*
D15*
X230880000Y-68780000D03*
X230880000Y-67760000D03*
D10*
X207210001Y-70740000D03*
X206190001Y-70740000D03*
D18*
X229437745Y-70952256D03*
X229437745Y-71912256D03*
D16*
X240880000Y-63580000D03*
D19*
X238340000Y-63580000D03*
X235800000Y-63580000D03*
X233260000Y-63580000D03*
X233260000Y-71200000D03*
X235800000Y-71200000D03*
X238340000Y-71200000D03*
X240880000Y-71200000D03*
D10*
X207210001Y-75940000D03*
X206190001Y-75940000D03*
X212260000Y-62600000D03*
X211240000Y-62600000D03*
X207210001Y-73340000D03*
X206190001Y-73340000D03*
D13*
X230280000Y-66430000D03*
X230280000Y-63130000D03*
D20*
X224775000Y-93320000D03*
D21*
X231075000Y-95600000D03*
D20*
X224775000Y-97880000D03*
D10*
X207210001Y-78540000D03*
X206190001Y-78540000D03*
D18*
X243080000Y-70780000D03*
X243080000Y-71740000D03*
D10*
X207210001Y-80940000D03*
X206190001Y-80940000D03*
X207210001Y-83540000D03*
X206190001Y-83540000D03*
D22*
X238600000Y-95000000D03*
D11*
X202075000Y-97575000D03*
D12*
X204615000Y-97575000D03*
X207155000Y-97575000D03*
D22*
X203800000Y-63600000D03*
D14*
X229437745Y-68832256D03*
X229437745Y-69852256D03*
D11*
X221000000Y-95000000D03*
D12*
X221000000Y-97540000D03*
D16*
X227037745Y-63542256D03*
D19*
X224497745Y-63542256D03*
X221957745Y-63542256D03*
X219417745Y-63542256D03*
X219417745Y-71162256D03*
X221957745Y-71162256D03*
X224497745Y-71162256D03*
X227037745Y-71162256D03*
D23*
X230600000Y-72000000D03*
X231412299Y-70587701D03*
X209400000Y-87200000D03*
X209147631Y-84147631D03*
X215400000Y-69400000D03*
X212800000Y-79200000D03*
X211600000Y-78200000D03*
X214200000Y-94400000D03*
X240000000Y-67800000D03*
X241600000Y-69484500D03*
D24*
X242570000Y-97430000D02*
X242570000Y-89420000D01*
X226295000Y-99400000D02*
X240600000Y-99400000D01*
X240600000Y-99400000D02*
X242570000Y-97430000D01*
X224775000Y-97880000D02*
X226295000Y-99400000D01*
X212400000Y-89730000D02*
X212090000Y-89420000D01*
X212400000Y-97400000D02*
X212400000Y-89730000D01*
X230512256Y-71912256D02*
X230600000Y-72000000D01*
X229437745Y-71912256D02*
X230512256Y-71912256D01*
X232024598Y-71200000D02*
X231412299Y-70587701D01*
X233260000Y-71200000D02*
X232024598Y-71200000D01*
X208839700Y-88540000D02*
X207210001Y-88540000D01*
X209400000Y-87979700D02*
X208839700Y-88540000D01*
X209400000Y-87200000D02*
X209400000Y-87979700D01*
X209147631Y-84202370D02*
X209147631Y-84147631D01*
X207210001Y-86140000D02*
X209147631Y-84202370D01*
X207210001Y-88540000D02*
X202075000Y-93675001D01*
X202075000Y-93675001D02*
X202075000Y-97575000D01*
X216045489Y-74845489D02*
X229495489Y-88295489D01*
X216045489Y-74000000D02*
X216045489Y-74845489D01*
X229495489Y-88295489D02*
X236365489Y-88295489D01*
X213425489Y-73055489D02*
X215100978Y-73055489D01*
X215100978Y-73055489D02*
X216045489Y-74000000D01*
X211045000Y-70675000D02*
X213425489Y-73055489D01*
X236365489Y-88295489D02*
X237490000Y-89420000D01*
X216161691Y-70161691D02*
X215400000Y-69400000D01*
X218417180Y-70161691D02*
X216161691Y-70161691D01*
X219417745Y-71162256D02*
X218417180Y-70161691D01*
X202474512Y-88165489D02*
X201300001Y-89340000D01*
X204000000Y-88165489D02*
X202474512Y-88165489D01*
X204270009Y-87895480D02*
X204000000Y-88165489D01*
X206424380Y-87895480D02*
X204270009Y-87895480D01*
X212800000Y-81519860D02*
X206424380Y-87895480D01*
X212800000Y-79200000D02*
X212800000Y-81519860D01*
X206224380Y-85495480D02*
X202604521Y-85495480D01*
X202604521Y-85495480D02*
X201300001Y-86800000D01*
X211600000Y-80119860D02*
X206224380Y-85495480D01*
X211600000Y-78200000D02*
X211600000Y-80119860D01*
X236110000Y-72800000D02*
X237490000Y-74180000D01*
X224579700Y-72800000D02*
X236110000Y-72800000D01*
X223400000Y-73979700D02*
X224579700Y-72800000D01*
X223400000Y-74800000D02*
X223400000Y-73979700D01*
X222800000Y-75400000D02*
X223400000Y-74800000D01*
X220834511Y-74354811D02*
X221879700Y-75400000D01*
X220833234Y-73233234D02*
X220834511Y-73234511D01*
X220834511Y-73234511D02*
X220834511Y-74354811D01*
X220833234Y-73233234D02*
X220833234Y-70987445D01*
X221879700Y-75400000D02*
X222800000Y-75400000D01*
X215200000Y-63340000D02*
X214460000Y-62600000D01*
X215200000Y-67880000D02*
X215200000Y-63340000D01*
X216720000Y-69400000D02*
X215200000Y-67880000D01*
X219245789Y-69400000D02*
X216720000Y-69400000D01*
X220833234Y-70987445D02*
X219245789Y-69400000D01*
X230752256Y-70952256D02*
X229437745Y-70952256D01*
X232150480Y-72350480D02*
X230752256Y-70952256D01*
X237001207Y-73055489D02*
X236296198Y-72350480D01*
X238800000Y-73899700D02*
X237955789Y-73055489D01*
X241154511Y-78154511D02*
X238800000Y-75800000D01*
X238800000Y-75800000D02*
X238800000Y-73899700D01*
X237955789Y-73055489D02*
X237001207Y-73055489D01*
X236296198Y-72350480D02*
X232150480Y-72350480D01*
X217449520Y-91150480D02*
X214200000Y-94400000D01*
X236890890Y-91150480D02*
X228400000Y-91150480D01*
X228400000Y-91150480D02*
X217449520Y-91150480D01*
X237490000Y-90551370D02*
X236890890Y-91150480D01*
X237490000Y-89420000D02*
X237490000Y-90551370D01*
X242784500Y-69484500D02*
X243080000Y-69780000D01*
X241600000Y-69484500D02*
X242784500Y-69484500D01*
X238564283Y-67800000D02*
X240000000Y-67800000D01*
X236512026Y-69852256D02*
X238564283Y-67800000D01*
X229437745Y-69852256D02*
X236512026Y-69852256D01*
X241154511Y-71474511D02*
X241154511Y-78154511D01*
X243080000Y-70780000D02*
X241300000Y-70780000D01*
X229437745Y-70952256D02*
X227247745Y-70952256D01*
X241154511Y-78154511D02*
X241154511Y-88004511D01*
X227247745Y-70952256D02*
X227037745Y-71162256D01*
X240880000Y-71200000D02*
X241154511Y-71474511D01*
X241154511Y-88004511D02*
X242570000Y-89420000D01*
X241300000Y-70780000D02*
X240880000Y-71200000D01*
X216437745Y-67122256D02*
X217037745Y-67722256D01*
X224497745Y-63542256D02*
X221647745Y-66392256D01*
X221647745Y-66392256D02*
X216437745Y-66392256D01*
X216437745Y-66392256D02*
X216437745Y-67122256D01*
X216437745Y-63092256D02*
X218012256Y-64666767D01*
X220833234Y-64666767D02*
X221957745Y-63542256D01*
X226680000Y-60200000D02*
X225505489Y-61374511D01*
X225505489Y-61374511D02*
X224125490Y-61374511D01*
X218012256Y-64666767D02*
X220833234Y-64666767D01*
X224125490Y-61374511D02*
X221957745Y-63542256D01*
X230280000Y-66430000D02*
X230280000Y-67160000D01*
X235490000Y-66430000D02*
X230280000Y-66430000D01*
X238340000Y-63580000D02*
X235490000Y-66430000D01*
X230280000Y-67160000D02*
X230880000Y-67760000D01*
X235800000Y-63580000D02*
X234675489Y-64704511D01*
X239940000Y-60342256D02*
X236702256Y-63580000D01*
X234675489Y-64704511D02*
X231854511Y-64704511D01*
X236702256Y-63580000D02*
X235800000Y-63580000D01*
X231854511Y-64704511D02*
X230280000Y-63130000D01*
X209240489Y-66759511D02*
X209240489Y-68870489D01*
X211240000Y-62600000D02*
X211240000Y-64760000D01*
X211240000Y-64760000D02*
X209240489Y-66759511D01*
X209240489Y-68870489D02*
X211045000Y-70675000D01*
X237200000Y-72600000D02*
X238450000Y-72600000D01*
X235800000Y-71200000D02*
X237200000Y-72600000D01*
X238240000Y-68760000D02*
X235800000Y-71200000D01*
X243080000Y-68760000D02*
X238240000Y-68760000D01*
X238450000Y-72600000D02*
X240030000Y-74180000D01*
X216205000Y-70675000D02*
X219710000Y-74180000D01*
X214265000Y-70675000D02*
X216205000Y-70675000D01*
X229437745Y-68832256D02*
X224287745Y-68832256D01*
X221957745Y-73887745D02*
X222250000Y-74180000D01*
X224287745Y-68832256D02*
X221957745Y-71162256D01*
X221957745Y-71162256D02*
X221957745Y-73887745D01*
X214630000Y-82170000D02*
X214630000Y-74180000D01*
X210674511Y-86125489D02*
X214630000Y-82170000D01*
X204615000Y-97575000D02*
X210674511Y-91515489D01*
X210674511Y-91515489D02*
X210674511Y-86125489D01*
X225622256Y-62890978D02*
X225622256Y-64177744D01*
X226095489Y-62417745D02*
X225622256Y-62890978D01*
X227854511Y-59713501D02*
X227854511Y-60686499D01*
X227166499Y-59025489D02*
X227854511Y-59713501D01*
X224140000Y-60200000D02*
X225314511Y-59025489D01*
X226123265Y-62417745D02*
X226095489Y-62417745D01*
X227854511Y-60686499D02*
X226123265Y-62417745D01*
X221057744Y-68742256D02*
X217037745Y-68742256D01*
X225622256Y-64177744D02*
X221057744Y-68742256D01*
X225314511Y-59025489D02*
X227166499Y-59025489D01*
X234820000Y-68780000D02*
X230880000Y-68780000D01*
X239464511Y-62478755D02*
X239464511Y-64135489D01*
X241114511Y-60828755D02*
X239464511Y-62478755D01*
X237400000Y-60342256D02*
X238574511Y-59167745D01*
X240426499Y-59167745D02*
X241114511Y-59855757D01*
X241114511Y-59855757D02*
X241114511Y-60828755D01*
X238574511Y-59167745D02*
X240426499Y-59167745D01*
X239464511Y-64135489D02*
X234820000Y-68780000D01*
X212015000Y-60175000D02*
X212015000Y-62355000D01*
X212015000Y-62355000D02*
X212260000Y-62600000D01*
X213440000Y-61290000D02*
X213440000Y-62600000D01*
X214555000Y-60175000D02*
X213440000Y-61290000D01*
X212065000Y-69825000D02*
X212065000Y-70675000D01*
X210415000Y-68175000D02*
X212065000Y-69825000D01*
X212955000Y-68175000D02*
X212955000Y-70385000D01*
X212955000Y-70385000D02*
X213245000Y-70675000D01*
X221000000Y-95000000D02*
X223095000Y-95000000D01*
X223095000Y-95000000D02*
X224775000Y-93320000D01*
X203840001Y-79180000D02*
X205550001Y-79180000D01*
X205550001Y-79180000D02*
X206190001Y-78540000D01*
X205410001Y-81720000D02*
X206190001Y-80940000D01*
X203840001Y-81720000D02*
X205410001Y-81720000D01*
X203840001Y-84260000D02*
X205470001Y-84260000D01*
X205470001Y-84260000D02*
X206190001Y-83540000D01*
X205530001Y-86800000D02*
X206190001Y-86140000D01*
X203840001Y-86800000D02*
X205530001Y-86800000D01*
X203840001Y-89340000D02*
X205390001Y-89340000D01*
X205390001Y-89340000D02*
X206190001Y-88540000D01*
X205490001Y-76640000D02*
X206190001Y-75940000D01*
X203840001Y-76640000D02*
X205490001Y-76640000D01*
X205430001Y-74100000D02*
X206190001Y-73340000D01*
X203840001Y-74100000D02*
X205430001Y-74100000D01*
X205370001Y-71560000D02*
X206190001Y-70740000D01*
X203840001Y-71560000D02*
X205370001Y-71560000D01*
G04 #@! TA.AperFunction,Conductor*
G36*
X224699526Y-58528502D02*
G01*
X224746019Y-58582158D01*
X224756123Y-58652432D01*
X224726629Y-58717012D01*
X224720500Y-58723595D01*
X224597345Y-58846750D01*
X224535033Y-58880776D01*
X224486154Y-58881702D01*
X224273373Y-58843800D01*
X224273367Y-58843799D01*
X224268284Y-58842894D01*
X224194452Y-58841992D01*
X224050081Y-58840228D01*
X224050079Y-58840228D01*
X224044911Y-58840165D01*
X223824091Y-58873955D01*
X223611756Y-58943357D01*
X223413607Y-59046507D01*
X223409474Y-59049610D01*
X223409471Y-59049612D01*
X223239100Y-59177530D01*
X223234965Y-59180635D01*
X223178022Y-59240223D01*
X223154283Y-59265064D01*
X223092759Y-59300494D01*
X223021846Y-59297037D01*
X222964060Y-59255791D01*
X222945207Y-59222243D01*
X222903767Y-59111703D01*
X222900615Y-59103295D01*
X222813261Y-58986739D01*
X222696705Y-58899385D01*
X222560316Y-58848255D01*
X222498134Y-58841500D01*
X220701866Y-58841500D01*
X220639684Y-58848255D01*
X220503295Y-58899385D01*
X220386739Y-58986739D01*
X220299385Y-59103295D01*
X220248255Y-59239684D01*
X220241500Y-59301866D01*
X220241500Y-61098134D01*
X220248255Y-61160316D01*
X220299385Y-61296705D01*
X220386739Y-61413261D01*
X220503295Y-61500615D01*
X220639684Y-61551745D01*
X220701866Y-61558500D01*
X222498134Y-61558500D01*
X222560316Y-61551745D01*
X222696705Y-61500615D01*
X222813261Y-61413261D01*
X222900615Y-61296705D01*
X222916106Y-61255382D01*
X222944598Y-61179382D01*
X222987240Y-61122618D01*
X223053802Y-61097918D01*
X223123150Y-61113126D01*
X223157817Y-61141114D01*
X223186250Y-61173938D01*
X223196162Y-61182167D01*
X223213165Y-61196284D01*
X223252800Y-61255187D01*
X223254297Y-61326168D01*
X223221774Y-61382322D01*
X222370992Y-62233104D01*
X222308680Y-62267130D01*
X222249287Y-62265716D01*
X222185832Y-62248713D01*
X221957745Y-62228758D01*
X221729658Y-62248713D01*
X221724345Y-62250137D01*
X221724343Y-62250137D01*
X221513812Y-62306549D01*
X221513810Y-62306550D01*
X221508502Y-62307972D01*
X221503521Y-62310295D01*
X221503520Y-62310295D01*
X221305983Y-62402407D01*
X221305978Y-62402410D01*
X221300996Y-62404733D01*
X221228308Y-62455630D01*
X221117956Y-62532899D01*
X221117953Y-62532901D01*
X221113445Y-62536058D01*
X220951547Y-62697956D01*
X220948390Y-62702464D01*
X220948388Y-62702467D01*
X220893647Y-62780645D01*
X220820222Y-62885507D01*
X220817899Y-62890489D01*
X220817896Y-62890494D01*
X220801940Y-62924713D01*
X220755023Y-62977998D01*
X220686746Y-62997459D01*
X220618786Y-62976917D01*
X220573550Y-62924713D01*
X220557594Y-62890494D01*
X220557591Y-62890489D01*
X220555268Y-62885507D01*
X220481843Y-62780645D01*
X220427102Y-62702467D01*
X220427100Y-62702464D01*
X220423943Y-62697956D01*
X220262045Y-62536058D01*
X220257537Y-62532901D01*
X220257534Y-62532899D01*
X220147182Y-62455630D01*
X220074494Y-62404733D01*
X220069512Y-62402410D01*
X220069507Y-62402407D01*
X219871970Y-62310295D01*
X219871969Y-62310295D01*
X219866988Y-62307972D01*
X219861680Y-62306550D01*
X219861678Y-62306549D01*
X219651147Y-62250137D01*
X219651145Y-62250137D01*
X219645832Y-62248713D01*
X219417745Y-62228758D01*
X219189658Y-62248713D01*
X219184345Y-62250137D01*
X219184343Y-62250137D01*
X218973812Y-62306549D01*
X218973810Y-62306550D01*
X218968502Y-62307972D01*
X218963521Y-62310295D01*
X218963520Y-62310295D01*
X218765983Y-62402407D01*
X218765978Y-62402410D01*
X218760996Y-62404733D01*
X218688308Y-62455630D01*
X218577956Y-62532899D01*
X218577953Y-62532901D01*
X218573445Y-62536058D01*
X218411547Y-62697956D01*
X218408390Y-62702464D01*
X218408388Y-62702467D01*
X218353647Y-62780645D01*
X218280222Y-62885507D01*
X218277899Y-62890489D01*
X218277896Y-62890494D01*
X218203789Y-63049419D01*
X218183461Y-63093013D01*
X218182039Y-63098321D01*
X218182038Y-63098323D01*
X218169028Y-63146877D01*
X218124202Y-63314169D01*
X218104247Y-63542256D01*
X218104726Y-63547731D01*
X218104726Y-63547732D01*
X218104813Y-63548727D01*
X218104726Y-63549160D01*
X218104726Y-63553238D01*
X218103906Y-63553238D01*
X218090823Y-63618332D01*
X218041423Y-63669324D01*
X217972297Y-63685514D01*
X217905392Y-63661761D01*
X217890196Y-63648803D01*
X217844695Y-63603301D01*
X217583149Y-63341755D01*
X217549124Y-63279443D01*
X217546245Y-63252660D01*
X217546245Y-62594122D01*
X217539490Y-62531940D01*
X217488360Y-62395551D01*
X217401006Y-62278995D01*
X217284450Y-62191641D01*
X217148061Y-62140511D01*
X217085879Y-62133756D01*
X215789611Y-62133756D01*
X215727429Y-62140511D01*
X215591040Y-62191641D01*
X215474484Y-62278995D01*
X215446518Y-62316310D01*
X215389659Y-62358825D01*
X215318840Y-62363851D01*
X215256547Y-62329791D01*
X215224695Y-62275898D01*
X215192481Y-62165017D01*
X215192480Y-62165015D01*
X215190269Y-62157404D01*
X215150303Y-62089824D01*
X215111540Y-62024280D01*
X215107506Y-62017459D01*
X214992541Y-61902494D01*
X214852596Y-61819731D01*
X214844985Y-61817520D01*
X214844983Y-61817519D01*
X214702641Y-61776165D01*
X214696466Y-61774371D01*
X214693906Y-61774170D01*
X214631737Y-61742879D01*
X214595644Y-61681741D01*
X214598334Y-61610795D01*
X214638953Y-61552566D01*
X214701786Y-61525871D01*
X214793656Y-61514102D01*
X214833289Y-61509025D01*
X214833292Y-61509024D01*
X214838416Y-61508368D01*
X214864258Y-61500615D01*
X215047429Y-61445661D01*
X215047434Y-61445659D01*
X215052384Y-61444174D01*
X215252994Y-61345896D01*
X215434860Y-61216173D01*
X215447000Y-61204076D01*
X215525359Y-61125990D01*
X215593096Y-61058489D01*
X215635791Y-60999073D01*
X215720435Y-60881277D01*
X215723453Y-60877077D01*
X215725907Y-60872113D01*
X215820136Y-60681453D01*
X215820137Y-60681451D01*
X215822430Y-60676811D01*
X215873986Y-60507121D01*
X215885865Y-60468023D01*
X215885865Y-60468021D01*
X215887370Y-60463069D01*
X215916529Y-60241590D01*
X215918156Y-60175000D01*
X215899852Y-59952361D01*
X215845431Y-59735702D01*
X215756354Y-59530840D01*
X215693665Y-59433938D01*
X215637822Y-59347617D01*
X215637820Y-59347614D01*
X215635014Y-59343277D01*
X215484670Y-59178051D01*
X215480619Y-59174852D01*
X215480615Y-59174848D01*
X215313414Y-59042800D01*
X215313410Y-59042798D01*
X215309359Y-59039598D01*
X215269905Y-59017818D01*
X215225463Y-58993285D01*
X215113789Y-58931638D01*
X215108920Y-58929914D01*
X215108916Y-58929912D01*
X214908087Y-58858795D01*
X214908083Y-58858794D01*
X214903212Y-58857069D01*
X214898119Y-58856162D01*
X214898116Y-58856161D01*
X214688373Y-58818800D01*
X214688367Y-58818799D01*
X214683284Y-58817894D01*
X214609452Y-58816992D01*
X214465081Y-58815228D01*
X214465079Y-58815228D01*
X214459911Y-58815165D01*
X214239091Y-58848955D01*
X214026756Y-58918357D01*
X213996443Y-58934137D01*
X213838781Y-59016211D01*
X213828607Y-59021507D01*
X213824474Y-59024610D01*
X213824471Y-59024612D01*
X213708477Y-59111703D01*
X213649965Y-59155635D01*
X213624894Y-59181870D01*
X213513470Y-59298469D01*
X213495629Y-59317138D01*
X213388201Y-59474621D01*
X213333293Y-59519621D01*
X213262768Y-59527792D01*
X213199021Y-59496538D01*
X213178324Y-59472054D01*
X213097822Y-59347617D01*
X213097820Y-59347614D01*
X213095014Y-59343277D01*
X212944670Y-59178051D01*
X212940619Y-59174852D01*
X212940615Y-59174848D01*
X212773414Y-59042800D01*
X212773410Y-59042798D01*
X212769359Y-59039598D01*
X212729905Y-59017818D01*
X212685463Y-58993285D01*
X212573789Y-58931638D01*
X212568920Y-58929914D01*
X212568916Y-58929912D01*
X212368087Y-58858795D01*
X212368083Y-58858794D01*
X212363212Y-58857069D01*
X212358119Y-58856162D01*
X212358116Y-58856161D01*
X212148373Y-58818800D01*
X212148367Y-58818799D01*
X212143284Y-58817894D01*
X212069452Y-58816992D01*
X211925081Y-58815228D01*
X211925079Y-58815228D01*
X211919911Y-58815165D01*
X211699091Y-58848955D01*
X211486756Y-58918357D01*
X211456443Y-58934137D01*
X211298781Y-59016211D01*
X211288607Y-59021507D01*
X211284474Y-59024610D01*
X211284471Y-59024612D01*
X211168477Y-59111703D01*
X211109965Y-59155635D01*
X211106393Y-59159373D01*
X211028898Y-59240466D01*
X210967374Y-59275895D01*
X210896462Y-59272438D01*
X210838676Y-59231192D01*
X210819823Y-59197644D01*
X210778324Y-59086946D01*
X210769786Y-59071351D01*
X210693285Y-58969276D01*
X210680724Y-58956715D01*
X210578649Y-58880214D01*
X210563054Y-58871676D01*
X210442606Y-58826522D01*
X210427351Y-58822895D01*
X210376486Y-58817369D01*
X210369672Y-58817000D01*
X209747115Y-58817000D01*
X209731876Y-58821475D01*
X209730671Y-58822865D01*
X209729000Y-58830548D01*
X209729000Y-61514884D01*
X209733475Y-61530123D01*
X209734865Y-61531328D01*
X209742548Y-61532999D01*
X210369669Y-61532999D01*
X210376490Y-61532629D01*
X210427352Y-61527105D01*
X210442604Y-61523479D01*
X210563054Y-61478324D01*
X210578649Y-61469786D01*
X210680724Y-61393285D01*
X210693285Y-61380724D01*
X210769786Y-61278649D01*
X210778324Y-61263054D01*
X210819225Y-61153952D01*
X210861867Y-61097188D01*
X210928428Y-61072488D01*
X210997777Y-61087696D01*
X211032444Y-61115684D01*
X211057865Y-61145031D01*
X211057869Y-61145035D01*
X211061250Y-61148938D01*
X211177362Y-61245336D01*
X211223176Y-61283371D01*
X211233126Y-61291632D01*
X211319070Y-61341853D01*
X211367794Y-61393491D01*
X211381500Y-61450641D01*
X211381500Y-61645500D01*
X211361498Y-61713621D01*
X211307842Y-61760114D01*
X211255501Y-61771500D01*
X211046585Y-61771501D01*
X211040012Y-61771501D01*
X211003534Y-61774371D01*
X210906730Y-61802495D01*
X210855017Y-61817519D01*
X210855015Y-61817520D01*
X210847404Y-61819731D01*
X210707459Y-61902494D01*
X210592494Y-62017459D01*
X210588460Y-62024280D01*
X210549698Y-62089824D01*
X210509731Y-62157404D01*
X210507520Y-62165015D01*
X210507519Y-62165017D01*
X210503921Y-62177402D01*
X210464371Y-62313534D01*
X210463867Y-62319941D01*
X210463866Y-62319945D01*
X210463371Y-62326233D01*
X210461500Y-62350011D01*
X210461501Y-62849988D01*
X210464371Y-62886466D01*
X210509731Y-63042596D01*
X210513766Y-63049418D01*
X210513766Y-63049419D01*
X210588954Y-63176555D01*
X210606500Y-63240694D01*
X210606500Y-64445406D01*
X210586498Y-64513527D01*
X210569595Y-64534501D01*
X208848236Y-66255859D01*
X208839950Y-66263399D01*
X208833471Y-66267511D01*
X208828046Y-66273288D01*
X208786846Y-66317162D01*
X208784091Y-66320004D01*
X208764354Y-66339741D01*
X208761874Y-66342938D01*
X208754171Y-66351958D01*
X208723903Y-66384190D01*
X208720084Y-66391136D01*
X208720082Y-66391139D01*
X208714141Y-66401945D01*
X208703290Y-66418464D01*
X208690875Y-66434470D01*
X208687730Y-66441739D01*
X208687727Y-66441743D01*
X208673315Y-66475048D01*
X208668098Y-66485698D01*
X208646794Y-66524451D01*
X208644823Y-66532126D01*
X208644823Y-66532127D01*
X208641756Y-66544073D01*
X208635352Y-66562777D01*
X208627308Y-66581366D01*
X208626069Y-66589189D01*
X208626066Y-66589199D01*
X208620390Y-66625035D01*
X208617984Y-66636655D01*
X208606989Y-66679481D01*
X208606989Y-66691000D01*
X208606193Y-66693711D01*
X208605996Y-66695271D01*
X208605744Y-66695239D01*
X208586987Y-66759121D01*
X208533331Y-66805614D01*
X208480989Y-66817000D01*
X208147115Y-66817000D01*
X208131876Y-66821475D01*
X208130671Y-66822865D01*
X208129000Y-66830548D01*
X208129000Y-69514884D01*
X208133475Y-69530123D01*
X208134865Y-69531328D01*
X208142548Y-69532999D01*
X208769669Y-69532999D01*
X208776490Y-69532629D01*
X208827350Y-69527105D01*
X208842601Y-69523479D01*
X208879356Y-69509700D01*
X208950163Y-69504517D01*
X209012682Y-69538587D01*
X210229596Y-70755501D01*
X210263622Y-70817813D01*
X210266501Y-70844596D01*
X210266501Y-70924988D01*
X210269371Y-70961466D01*
X210292882Y-71042390D01*
X210301312Y-71071406D01*
X210314731Y-71117596D01*
X210397494Y-71257541D01*
X210512459Y-71372506D01*
X210519280Y-71376540D01*
X210606442Y-71428087D01*
X210652404Y-71455269D01*
X210660015Y-71457480D01*
X210660017Y-71457481D01*
X210750750Y-71483841D01*
X210808534Y-71500629D01*
X210814941Y-71501133D01*
X210814945Y-71501134D01*
X210842556Y-71503307D01*
X210842562Y-71503307D01*
X210845011Y-71503500D01*
X210925405Y-71503500D01*
X210993526Y-71523502D01*
X211014500Y-71540405D01*
X212129371Y-72655276D01*
X212163397Y-72717588D01*
X212158332Y-72788403D01*
X212115785Y-72845239D01*
X212051258Y-72869891D01*
X211963789Y-72877544D01*
X211867394Y-72885977D01*
X211867389Y-72885978D01*
X211861913Y-72886457D01*
X211856600Y-72887881D01*
X211856598Y-72887881D01*
X211646067Y-72944293D01*
X211646065Y-72944294D01*
X211640757Y-72945716D01*
X211635776Y-72948039D01*
X211635775Y-72948039D01*
X211438238Y-73040151D01*
X211438233Y-73040154D01*
X211433251Y-73042477D01*
X211368872Y-73087556D01*
X211250211Y-73170643D01*
X211250208Y-73170645D01*
X211245700Y-73173802D01*
X211083802Y-73335700D01*
X210952477Y-73523251D01*
X210950154Y-73528233D01*
X210950151Y-73528238D01*
X210934195Y-73562457D01*
X210887278Y-73615742D01*
X210819001Y-73635203D01*
X210751041Y-73614661D01*
X210705805Y-73562457D01*
X210689849Y-73528238D01*
X210689846Y-73528233D01*
X210687523Y-73523251D01*
X210556198Y-73335700D01*
X210394300Y-73173802D01*
X210389792Y-73170645D01*
X210389789Y-73170643D01*
X210271128Y-73087556D01*
X210206749Y-73042477D01*
X210201767Y-73040154D01*
X210201762Y-73040151D01*
X210004225Y-72948039D01*
X210004224Y-72948039D01*
X209999243Y-72945716D01*
X209993935Y-72944294D01*
X209993933Y-72944293D01*
X209783402Y-72887881D01*
X209783400Y-72887881D01*
X209778087Y-72886457D01*
X209550000Y-72866502D01*
X209321913Y-72886457D01*
X209316600Y-72887881D01*
X209316598Y-72887881D01*
X209106067Y-72944293D01*
X209106065Y-72944294D01*
X209100757Y-72945716D01*
X209095776Y-72948039D01*
X209095775Y-72948039D01*
X208898238Y-73040151D01*
X208898233Y-73040154D01*
X208893251Y-73042477D01*
X208828872Y-73087556D01*
X208710211Y-73170643D01*
X208710208Y-73170645D01*
X208705700Y-73173802D01*
X208543802Y-73335700D01*
X208412477Y-73523251D01*
X208410154Y-73528233D01*
X208410151Y-73528238D01*
X208318039Y-73725775D01*
X208315716Y-73730757D01*
X208314294Y-73736065D01*
X208314293Y-73736067D01*
X208285220Y-73844570D01*
X208256457Y-73951913D01*
X208236502Y-74180000D01*
X208256457Y-74408087D01*
X208257881Y-74413400D01*
X208257881Y-74413402D01*
X208308366Y-74601811D01*
X208315716Y-74629243D01*
X208318039Y-74634224D01*
X208318039Y-74634225D01*
X208410151Y-74831762D01*
X208410154Y-74831767D01*
X208412477Y-74836749D01*
X208543802Y-75024300D01*
X208705700Y-75186198D01*
X208710208Y-75189355D01*
X208710211Y-75189357D01*
X208771380Y-75232188D01*
X208893251Y-75317523D01*
X208898233Y-75319846D01*
X208898238Y-75319849D01*
X209068825Y-75399394D01*
X209100757Y-75414284D01*
X209106065Y-75415706D01*
X209106067Y-75415707D01*
X209316598Y-75472119D01*
X209316600Y-75472119D01*
X209321913Y-75473543D01*
X209550000Y-75493498D01*
X209778087Y-75473543D01*
X209783400Y-75472119D01*
X209783402Y-75472119D01*
X209993933Y-75415707D01*
X209993935Y-75415706D01*
X209999243Y-75414284D01*
X210031175Y-75399394D01*
X210201762Y-75319849D01*
X210201767Y-75319846D01*
X210206749Y-75317523D01*
X210328620Y-75232188D01*
X210389789Y-75189357D01*
X210389792Y-75189355D01*
X210394300Y-75186198D01*
X210556198Y-75024300D01*
X210687523Y-74836749D01*
X210689846Y-74831767D01*
X210689849Y-74831762D01*
X210705805Y-74797543D01*
X210752722Y-74744258D01*
X210820999Y-74724797D01*
X210888959Y-74745339D01*
X210934195Y-74797543D01*
X210950151Y-74831762D01*
X210950154Y-74831767D01*
X210952477Y-74836749D01*
X211083802Y-75024300D01*
X211245700Y-75186198D01*
X211250208Y-75189355D01*
X211250211Y-75189357D01*
X211311380Y-75232188D01*
X211433251Y-75317523D01*
X211438233Y-75319846D01*
X211438238Y-75319849D01*
X211608825Y-75399394D01*
X211640757Y-75414284D01*
X211646065Y-75415706D01*
X211646067Y-75415707D01*
X211856598Y-75472119D01*
X211856600Y-75472119D01*
X211861913Y-75473543D01*
X212090000Y-75493498D01*
X212318087Y-75473543D01*
X212323400Y-75472119D01*
X212323402Y-75472119D01*
X212533933Y-75415707D01*
X212533935Y-75415706D01*
X212539243Y-75414284D01*
X212571175Y-75399394D01*
X212741762Y-75319849D01*
X212741767Y-75319846D01*
X212746749Y-75317523D01*
X212868620Y-75232188D01*
X212929789Y-75189357D01*
X212929792Y-75189355D01*
X212934300Y-75186198D01*
X213096198Y-75024300D01*
X213227523Y-74836749D01*
X213229846Y-74831767D01*
X213229849Y-74831762D01*
X213245805Y-74797543D01*
X213292722Y-74744258D01*
X213360999Y-74724797D01*
X213428959Y-74745339D01*
X213474195Y-74797543D01*
X213490151Y-74831762D01*
X213490154Y-74831767D01*
X213492477Y-74836749D01*
X213623802Y-75024300D01*
X213785700Y-75186198D01*
X213790208Y-75189355D01*
X213790211Y-75189357D01*
X213942771Y-75296181D01*
X213987099Y-75351638D01*
X213996500Y-75399394D01*
X213996500Y-81855405D01*
X213976498Y-81923526D01*
X213959595Y-81944500D01*
X210282258Y-85621837D01*
X210273972Y-85629377D01*
X210267493Y-85633489D01*
X210262068Y-85639266D01*
X210220868Y-85683140D01*
X210218113Y-85685982D01*
X210198376Y-85705719D01*
X210195896Y-85708916D01*
X210188193Y-85717936D01*
X210157925Y-85750168D01*
X210154106Y-85757114D01*
X210154104Y-85757117D01*
X210148163Y-85767923D01*
X210137312Y-85784442D01*
X210124897Y-85800448D01*
X210121752Y-85807717D01*
X210121749Y-85807721D01*
X210107337Y-85841026D01*
X210102120Y-85851676D01*
X210080816Y-85890429D01*
X210078845Y-85898104D01*
X210078845Y-85898105D01*
X210075778Y-85910051D01*
X210069374Y-85928755D01*
X210061330Y-85947344D01*
X210060091Y-85955167D01*
X210060088Y-85955177D01*
X210054412Y-85991013D01*
X210052006Y-86002633D01*
X210041011Y-86045459D01*
X210041011Y-86065713D01*
X210039460Y-86085423D01*
X210036291Y-86105432D01*
X210037037Y-86113324D01*
X210040452Y-86149450D01*
X210041011Y-86161308D01*
X210041011Y-88032701D01*
X210021009Y-88100822D01*
X209967353Y-88147315D01*
X209897079Y-88157419D01*
X209882407Y-88154410D01*
X209778087Y-88126457D01*
X209550000Y-88106502D01*
X209321913Y-88126457D01*
X209316600Y-88127881D01*
X209316598Y-88127881D01*
X209106067Y-88184293D01*
X209106065Y-88184294D01*
X209100757Y-88185716D01*
X209095776Y-88188039D01*
X209095775Y-88188039D01*
X208898238Y-88280151D01*
X208898233Y-88280154D01*
X208893251Y-88282477D01*
X208836080Y-88322509D01*
X208710211Y-88410643D01*
X208710208Y-88410645D01*
X208705700Y-88413802D01*
X208543802Y-88575700D01*
X208540645Y-88580208D01*
X208540643Y-88580211D01*
X208485902Y-88658389D01*
X208412477Y-88763251D01*
X208410154Y-88768233D01*
X208410151Y-88768238D01*
X208318039Y-88965775D01*
X208315716Y-88970757D01*
X208256457Y-89191913D01*
X208236502Y-89420000D01*
X208256457Y-89648087D01*
X208257881Y-89653400D01*
X208257881Y-89653402D01*
X208303381Y-89823207D01*
X208315716Y-89869243D01*
X208318039Y-89874224D01*
X208318039Y-89874225D01*
X208410151Y-90071762D01*
X208410154Y-90071767D01*
X208412477Y-90076749D01*
X208415634Y-90081257D01*
X208523088Y-90234717D01*
X208543802Y-90264300D01*
X208705700Y-90426198D01*
X208710208Y-90429355D01*
X208710211Y-90429357D01*
X208768011Y-90469829D01*
X208893251Y-90557523D01*
X208898233Y-90559846D01*
X208898238Y-90559849D01*
X209091703Y-90650062D01*
X209100757Y-90654284D01*
X209106065Y-90655706D01*
X209106067Y-90655707D01*
X209316598Y-90712119D01*
X209316600Y-90712119D01*
X209321913Y-90713543D01*
X209550000Y-90733498D01*
X209778087Y-90713543D01*
X209882401Y-90685592D01*
X209953376Y-90687282D01*
X210012172Y-90727076D01*
X210040120Y-90792340D01*
X210041011Y-90807299D01*
X210041011Y-91200895D01*
X210021009Y-91269016D01*
X210004106Y-91289990D01*
X205072345Y-96221750D01*
X205010033Y-96255776D01*
X204961154Y-96256702D01*
X204748373Y-96218800D01*
X204748367Y-96218799D01*
X204743284Y-96217894D01*
X204669452Y-96216992D01*
X204525081Y-96215228D01*
X204525079Y-96215228D01*
X204519911Y-96215165D01*
X204299091Y-96248955D01*
X204086756Y-96318357D01*
X204056443Y-96334137D01*
X203916014Y-96407240D01*
X203888607Y-96421507D01*
X203884474Y-96424610D01*
X203884471Y-96424612D01*
X203717791Y-96549759D01*
X203709965Y-96555635D01*
X203706393Y-96559373D01*
X203628898Y-96640466D01*
X203567374Y-96675895D01*
X203496462Y-96672438D01*
X203438676Y-96631192D01*
X203419823Y-96597644D01*
X203378324Y-96486946D01*
X203369786Y-96471351D01*
X203293285Y-96369276D01*
X203280724Y-96356715D01*
X203178649Y-96280214D01*
X203163054Y-96271676D01*
X203042606Y-96226522D01*
X203027351Y-96222895D01*
X202976486Y-96217369D01*
X202969672Y-96217000D01*
X202347115Y-96217000D01*
X202331876Y-96221475D01*
X202330671Y-96222865D01*
X202329000Y-96230548D01*
X202329000Y-98914884D01*
X202333475Y-98930123D01*
X202334865Y-98931328D01*
X202342548Y-98932999D01*
X202969669Y-98932999D01*
X202976490Y-98932629D01*
X203027352Y-98927105D01*
X203042604Y-98923479D01*
X203163054Y-98878324D01*
X203178649Y-98869786D01*
X203280724Y-98793285D01*
X203293285Y-98780724D01*
X203369786Y-98678649D01*
X203378324Y-98663054D01*
X203419225Y-98553952D01*
X203461867Y-98497188D01*
X203528428Y-98472488D01*
X203597777Y-98487696D01*
X203632444Y-98515684D01*
X203657865Y-98545031D01*
X203657869Y-98545035D01*
X203661250Y-98548938D01*
X203833126Y-98691632D01*
X204026000Y-98804338D01*
X204234692Y-98884030D01*
X204239760Y-98885061D01*
X204239763Y-98885062D01*
X204347017Y-98906883D01*
X204453597Y-98928567D01*
X204458772Y-98928757D01*
X204458774Y-98928757D01*
X204671673Y-98936564D01*
X204671677Y-98936564D01*
X204676837Y-98936753D01*
X204681957Y-98936097D01*
X204681959Y-98936097D01*
X204893288Y-98909025D01*
X204893289Y-98909025D01*
X204898416Y-98908368D01*
X204903366Y-98906883D01*
X205107429Y-98845661D01*
X205107434Y-98845659D01*
X205112384Y-98844174D01*
X205312994Y-98745896D01*
X205494860Y-98616173D01*
X205504988Y-98606081D01*
X205607535Y-98503891D01*
X205653096Y-98458489D01*
X205668438Y-98437139D01*
X205783453Y-98277077D01*
X205784776Y-98278028D01*
X205831645Y-98234857D01*
X205901580Y-98222625D01*
X205967026Y-98250144D01*
X205994875Y-98281994D01*
X206002672Y-98294717D01*
X206054987Y-98380088D01*
X206201250Y-98548938D01*
X206373126Y-98691632D01*
X206566000Y-98804338D01*
X206774692Y-98884030D01*
X206779760Y-98885061D01*
X206779763Y-98885062D01*
X206887017Y-98906883D01*
X206993597Y-98928567D01*
X206998772Y-98928757D01*
X206998774Y-98928757D01*
X207211673Y-98936564D01*
X207211677Y-98936564D01*
X207216837Y-98936753D01*
X207221957Y-98936097D01*
X207221959Y-98936097D01*
X207433288Y-98909025D01*
X207433289Y-98909025D01*
X207438416Y-98908368D01*
X207443366Y-98906883D01*
X207647429Y-98845661D01*
X207647434Y-98845659D01*
X207652384Y-98844174D01*
X207852994Y-98745896D01*
X208034860Y-98616173D01*
X208044988Y-98606081D01*
X208147535Y-98503891D01*
X208193096Y-98458489D01*
X208208438Y-98437139D01*
X208320435Y-98281277D01*
X208323453Y-98277077D01*
X208344320Y-98234857D01*
X208420136Y-98081453D01*
X208420137Y-98081451D01*
X208422430Y-98076811D01*
X208487370Y-97863069D01*
X208516529Y-97641590D01*
X208518156Y-97575000D01*
X208499852Y-97352361D01*
X208445431Y-97135702D01*
X208356354Y-96930840D01*
X208312239Y-96862649D01*
X208237822Y-96747617D01*
X208237820Y-96747614D01*
X208235014Y-96743277D01*
X208084670Y-96578051D01*
X208080619Y-96574852D01*
X208080615Y-96574848D01*
X207913414Y-96442800D01*
X207913410Y-96442798D01*
X207909359Y-96439598D01*
X207896112Y-96432285D01*
X207850742Y-96407240D01*
X207713789Y-96331638D01*
X207708920Y-96329914D01*
X207708916Y-96329912D01*
X207508087Y-96258795D01*
X207508083Y-96258794D01*
X207503212Y-96257069D01*
X207498119Y-96256162D01*
X207498116Y-96256161D01*
X207288373Y-96218800D01*
X207288367Y-96218799D01*
X207283284Y-96217894D01*
X207172009Y-96216535D01*
X207104140Y-96195702D01*
X207058306Y-96141483D01*
X207049061Y-96071091D01*
X207079340Y-96006875D01*
X207084455Y-96001449D01*
X211066758Y-92019146D01*
X211075048Y-92011602D01*
X211081529Y-92007489D01*
X211128170Y-91957821D01*
X211130924Y-91954980D01*
X211150646Y-91935258D01*
X211153123Y-91932065D01*
X211160828Y-91923044D01*
X211191097Y-91890810D01*
X211194918Y-91883860D01*
X211200857Y-91873057D01*
X211211713Y-91856530D01*
X211219268Y-91846791D01*
X211219269Y-91846789D01*
X211224125Y-91840529D01*
X211241685Y-91799949D01*
X211246902Y-91789301D01*
X211264386Y-91757498D01*
X211264387Y-91757496D01*
X211268206Y-91750549D01*
X211273244Y-91730926D01*
X211279648Y-91712223D01*
X211284544Y-91700909D01*
X211284544Y-91700908D01*
X211287692Y-91693634D01*
X211288931Y-91685811D01*
X211288934Y-91685801D01*
X211294610Y-91649965D01*
X211297016Y-91638345D01*
X211306039Y-91603200D01*
X211306039Y-91603199D01*
X211308011Y-91595519D01*
X211308011Y-91575265D01*
X211309562Y-91555554D01*
X211311491Y-91543375D01*
X211312731Y-91535546D01*
X211308570Y-91491527D01*
X211308011Y-91479670D01*
X211308011Y-90696903D01*
X211328013Y-90628782D01*
X211381669Y-90582289D01*
X211451943Y-90572185D01*
X211487260Y-90582708D01*
X211539130Y-90606895D01*
X211629490Y-90649030D01*
X211640757Y-90654284D01*
X211646062Y-90655706D01*
X211646069Y-90655708D01*
X211673110Y-90662953D01*
X211733733Y-90699904D01*
X211764755Y-90763765D01*
X211766500Y-90784660D01*
X211766500Y-95915500D01*
X211746498Y-95983621D01*
X211692842Y-96030114D01*
X211640500Y-96041500D01*
X211501866Y-96041500D01*
X211439684Y-96048255D01*
X211303295Y-96099385D01*
X211186739Y-96186739D01*
X211099385Y-96303295D01*
X211048255Y-96439684D01*
X211041500Y-96501866D01*
X211041500Y-98298134D01*
X211048255Y-98360316D01*
X211099385Y-98496705D01*
X211186739Y-98613261D01*
X211303295Y-98700615D01*
X211439684Y-98751745D01*
X211501866Y-98758500D01*
X213298134Y-98758500D01*
X213360316Y-98751745D01*
X213496705Y-98700615D01*
X213613261Y-98613261D01*
X213700615Y-98496705D01*
X213726817Y-98426812D01*
X213744798Y-98378848D01*
X213787440Y-98322084D01*
X213854001Y-98297384D01*
X213923350Y-98312592D01*
X213958017Y-98340580D01*
X213983218Y-98369673D01*
X213990580Y-98376883D01*
X214154434Y-98512916D01*
X214162881Y-98518831D01*
X214346756Y-98626279D01*
X214356042Y-98630729D01*
X214555001Y-98706703D01*
X214564899Y-98709579D01*
X214668250Y-98730606D01*
X214682299Y-98729410D01*
X214686000Y-98719065D01*
X214686000Y-98718517D01*
X215194000Y-98718517D01*
X215198064Y-98732359D01*
X215211478Y-98734393D01*
X215218184Y-98733534D01*
X215228262Y-98731392D01*
X215432255Y-98670191D01*
X215441842Y-98666433D01*
X215633095Y-98572739D01*
X215641945Y-98567464D01*
X215815328Y-98443792D01*
X215823200Y-98437139D01*
X215974052Y-98286812D01*
X215980730Y-98278965D01*
X216105003Y-98106020D01*
X216110313Y-98097183D01*
X216204670Y-97906267D01*
X216208469Y-97896672D01*
X216235420Y-97807966D01*
X219668257Y-97807966D01*
X219698565Y-97942446D01*
X219701645Y-97952275D01*
X219781770Y-98149603D01*
X219786413Y-98158794D01*
X219897694Y-98340388D01*
X219903777Y-98348699D01*
X220043213Y-98509667D01*
X220050580Y-98516883D01*
X220214434Y-98652916D01*
X220222881Y-98658831D01*
X220406756Y-98766279D01*
X220416042Y-98770729D01*
X220615001Y-98846703D01*
X220624899Y-98849579D01*
X220728250Y-98870606D01*
X220742299Y-98869410D01*
X220746000Y-98859065D01*
X220746000Y-98858517D01*
X221254000Y-98858517D01*
X221258064Y-98872359D01*
X221271478Y-98874393D01*
X221278184Y-98873534D01*
X221288262Y-98871392D01*
X221492255Y-98810191D01*
X221501842Y-98806433D01*
X221693095Y-98712739D01*
X221701945Y-98707464D01*
X221875328Y-98583792D01*
X221883200Y-98577139D01*
X222034052Y-98426812D01*
X222040730Y-98418965D01*
X222165003Y-98246020D01*
X222170313Y-98237183D01*
X222264670Y-98046267D01*
X222268469Y-98036672D01*
X222330377Y-97832910D01*
X222332555Y-97822837D01*
X222333986Y-97811962D01*
X222331775Y-97797778D01*
X222318617Y-97794000D01*
X221272115Y-97794000D01*
X221256876Y-97798475D01*
X221255671Y-97799865D01*
X221254000Y-97807548D01*
X221254000Y-98858517D01*
X220746000Y-98858517D01*
X220746000Y-97812115D01*
X220741525Y-97796876D01*
X220740135Y-97795671D01*
X220732452Y-97794000D01*
X219683225Y-97794000D01*
X219669694Y-97797973D01*
X219668257Y-97807966D01*
X216235420Y-97807966D01*
X216270377Y-97692910D01*
X216272555Y-97682837D01*
X216273986Y-97671962D01*
X216271775Y-97657778D01*
X216258617Y-97654000D01*
X215212115Y-97654000D01*
X215196876Y-97658475D01*
X215195671Y-97659865D01*
X215194000Y-97667548D01*
X215194000Y-98718517D01*
X214686000Y-98718517D01*
X214686000Y-97127885D01*
X215194000Y-97127885D01*
X215198475Y-97143124D01*
X215199865Y-97144329D01*
X215207548Y-97146000D01*
X216258344Y-97146000D01*
X216271875Y-97142027D01*
X216273180Y-97132947D01*
X216231214Y-96965875D01*
X216227894Y-96956124D01*
X216142972Y-96760814D01*
X216138105Y-96751739D01*
X216022426Y-96572926D01*
X216016136Y-96564757D01*
X215872806Y-96407240D01*
X215865273Y-96400215D01*
X215698139Y-96268222D01*
X215689552Y-96262517D01*
X215503117Y-96159599D01*
X215493705Y-96155369D01*
X215292959Y-96084280D01*
X215282988Y-96081646D01*
X215211837Y-96068972D01*
X215198540Y-96070432D01*
X215194000Y-96084989D01*
X215194000Y-97127885D01*
X214686000Y-97127885D01*
X214686000Y-96083102D01*
X214682082Y-96069758D01*
X214667806Y-96067771D01*
X214629324Y-96073660D01*
X214619288Y-96076051D01*
X214416868Y-96142212D01*
X214407359Y-96146209D01*
X214218463Y-96244542D01*
X214209738Y-96250036D01*
X214039433Y-96377905D01*
X214031726Y-96384748D01*
X213954478Y-96465584D01*
X213892954Y-96501014D01*
X213822042Y-96497557D01*
X213764255Y-96456311D01*
X213745402Y-96422763D01*
X213703767Y-96311703D01*
X213700615Y-96303295D01*
X213613261Y-96186739D01*
X213496705Y-96099385D01*
X213360316Y-96048255D01*
X213298134Y-96041500D01*
X213159500Y-96041500D01*
X213091379Y-96021498D01*
X213044886Y-95967842D01*
X213033500Y-95915500D01*
X213033500Y-95898134D01*
X219641500Y-95898134D01*
X219648255Y-95960316D01*
X219699385Y-96096705D01*
X219786739Y-96213261D01*
X219903295Y-96300615D01*
X219911704Y-96303767D01*
X219911705Y-96303768D01*
X220020960Y-96344726D01*
X220077725Y-96387367D01*
X220102425Y-96453929D01*
X220087218Y-96523278D01*
X220067825Y-96549759D01*
X219944590Y-96678717D01*
X219938104Y-96686727D01*
X219818098Y-96862649D01*
X219813000Y-96871623D01*
X219723338Y-97064783D01*
X219719775Y-97074470D01*
X219664389Y-97274183D01*
X219665912Y-97282607D01*
X219678292Y-97286000D01*
X222318344Y-97286000D01*
X222331875Y-97282027D01*
X222333180Y-97272947D01*
X222291214Y-97105875D01*
X222287894Y-97096124D01*
X222202972Y-96900814D01*
X222198105Y-96891739D01*
X222082426Y-96712926D01*
X222076136Y-96704757D01*
X221932293Y-96546677D01*
X221901241Y-96482831D01*
X221909635Y-96412333D01*
X221954812Y-96357564D01*
X221981256Y-96343895D01*
X222088297Y-96303767D01*
X222096705Y-96300615D01*
X222213261Y-96213261D01*
X222300615Y-96096705D01*
X222351745Y-95960316D01*
X222358500Y-95898134D01*
X222358500Y-95759500D01*
X222378502Y-95691379D01*
X222432158Y-95644886D01*
X222484500Y-95633500D01*
X223016233Y-95633500D01*
X223027416Y-95634027D01*
X223034909Y-95635702D01*
X223042835Y-95635453D01*
X223042836Y-95635453D01*
X223102986Y-95633562D01*
X223106945Y-95633500D01*
X223134856Y-95633500D01*
X223138791Y-95633003D01*
X223138856Y-95632995D01*
X223150693Y-95632062D01*
X223182951Y-95631048D01*
X223186970Y-95630922D01*
X223194889Y-95630673D01*
X223214343Y-95625021D01*
X223233700Y-95621013D01*
X223245930Y-95619468D01*
X223245931Y-95619468D01*
X223253797Y-95618474D01*
X223261168Y-95615555D01*
X223261170Y-95615555D01*
X223294912Y-95602196D01*
X223306142Y-95598351D01*
X223340983Y-95588229D01*
X223340984Y-95588229D01*
X223348593Y-95586018D01*
X223355412Y-95581985D01*
X223355417Y-95581983D01*
X223366028Y-95575707D01*
X223383776Y-95567012D01*
X223402617Y-95559552D01*
X223438387Y-95533564D01*
X223448307Y-95527048D01*
X223479535Y-95508580D01*
X223479538Y-95508578D01*
X223486362Y-95504542D01*
X223500683Y-95490221D01*
X223515717Y-95477380D01*
X223525694Y-95470131D01*
X223532107Y-95465472D01*
X223560298Y-95431395D01*
X223568278Y-95422626D01*
X223663019Y-95327885D01*
X227367000Y-95327885D01*
X227371475Y-95343124D01*
X227372865Y-95344329D01*
X227380548Y-95346000D01*
X230802885Y-95346000D01*
X230818124Y-95341525D01*
X230819329Y-95340135D01*
X230821000Y-95332452D01*
X230821000Y-92210116D01*
X230816525Y-92194877D01*
X230815135Y-92193672D01*
X230807452Y-92192001D01*
X227830331Y-92192001D01*
X227823510Y-92192371D01*
X227772648Y-92197895D01*
X227757396Y-92201521D01*
X227636946Y-92246676D01*
X227621351Y-92255214D01*
X227519276Y-92331715D01*
X227506715Y-92344276D01*
X227430214Y-92446351D01*
X227421676Y-92461946D01*
X227376522Y-92582394D01*
X227372895Y-92597649D01*
X227367369Y-92648514D01*
X227367000Y-92655328D01*
X227367000Y-95327885D01*
X223663019Y-95327885D01*
X224525502Y-94465403D01*
X224587812Y-94431379D01*
X224614595Y-94428500D01*
X225923134Y-94428500D01*
X225985316Y-94421745D01*
X226121705Y-94370615D01*
X226238261Y-94283261D01*
X226325615Y-94166705D01*
X226376745Y-94030316D01*
X226383500Y-93968134D01*
X226383500Y-92671866D01*
X226376745Y-92609684D01*
X226325615Y-92473295D01*
X226238261Y-92356739D01*
X226121705Y-92269385D01*
X225985316Y-92218255D01*
X225923134Y-92211500D01*
X223626866Y-92211500D01*
X223564684Y-92218255D01*
X223428295Y-92269385D01*
X223311739Y-92356739D01*
X223224385Y-92473295D01*
X223173255Y-92609684D01*
X223166500Y-92671866D01*
X223166500Y-93968134D01*
X223166868Y-93971519D01*
X223166946Y-93972966D01*
X223150654Y-94042068D01*
X223130225Y-94068870D01*
X222869500Y-94329595D01*
X222807188Y-94363621D01*
X222780405Y-94366500D01*
X222484500Y-94366500D01*
X222416379Y-94346498D01*
X222369886Y-94292842D01*
X222358500Y-94240500D01*
X222358500Y-94101866D01*
X222351745Y-94039684D01*
X222300615Y-93903295D01*
X222213261Y-93786739D01*
X222096705Y-93699385D01*
X221960316Y-93648255D01*
X221898134Y-93641500D01*
X220101866Y-93641500D01*
X220039684Y-93648255D01*
X219903295Y-93699385D01*
X219786739Y-93786739D01*
X219699385Y-93903295D01*
X219648255Y-94039684D01*
X219641500Y-94101866D01*
X219641500Y-95898134D01*
X213033500Y-95898134D01*
X213033500Y-90379188D01*
X213053502Y-90311067D01*
X213070405Y-90290093D01*
X213096198Y-90264300D01*
X213116913Y-90234717D01*
X213224366Y-90081257D01*
X213227523Y-90076749D01*
X213229846Y-90071767D01*
X213229849Y-90071762D01*
X213245805Y-90037543D01*
X213292722Y-89984258D01*
X213360999Y-89964797D01*
X213428959Y-89985339D01*
X213474195Y-90037543D01*
X213490151Y-90071762D01*
X213490154Y-90071767D01*
X213492477Y-90076749D01*
X213495634Y-90081257D01*
X213603088Y-90234717D01*
X213623802Y-90264300D01*
X213785700Y-90426198D01*
X213790208Y-90429355D01*
X213790211Y-90429357D01*
X213848011Y-90469829D01*
X213973251Y-90557523D01*
X213978233Y-90559846D01*
X213978238Y-90559849D01*
X214171703Y-90650062D01*
X214180757Y-90654284D01*
X214186065Y-90655706D01*
X214186067Y-90655707D01*
X214396598Y-90712119D01*
X214396600Y-90712119D01*
X214401913Y-90713543D01*
X214630000Y-90733498D01*
X214858087Y-90713543D01*
X214863400Y-90712119D01*
X214863402Y-90712119D01*
X215073933Y-90655707D01*
X215073935Y-90655706D01*
X215079243Y-90654284D01*
X215088297Y-90650062D01*
X215281762Y-90559849D01*
X215281767Y-90559846D01*
X215286749Y-90557523D01*
X215411989Y-90469829D01*
X215469789Y-90429357D01*
X215469792Y-90429355D01*
X215474300Y-90426198D01*
X215636198Y-90264300D01*
X215656913Y-90234717D01*
X215764366Y-90081257D01*
X215767523Y-90076749D01*
X215769846Y-90071767D01*
X215769849Y-90071762D01*
X215785805Y-90037543D01*
X215832722Y-89984258D01*
X215900999Y-89964797D01*
X215968959Y-89985339D01*
X216014195Y-90037543D01*
X216030151Y-90071762D01*
X216030154Y-90071767D01*
X216032477Y-90076749D01*
X216035634Y-90081257D01*
X216143088Y-90234717D01*
X216163802Y-90264300D01*
X216325700Y-90426198D01*
X216330208Y-90429355D01*
X216330211Y-90429357D01*
X216388011Y-90469829D01*
X216513251Y-90557523D01*
X216518233Y-90559846D01*
X216518238Y-90559849D01*
X216711703Y-90650062D01*
X216720757Y-90654284D01*
X216726065Y-90655706D01*
X216726067Y-90655707D01*
X216726071Y-90655708D01*
X216769473Y-90667337D01*
X216830095Y-90704289D01*
X216861116Y-90768149D01*
X216852688Y-90838644D01*
X216825956Y-90878139D01*
X214249500Y-93454595D01*
X214187188Y-93488621D01*
X214160405Y-93491500D01*
X214104513Y-93491500D01*
X214098061Y-93492872D01*
X214098056Y-93492872D01*
X214011113Y-93511353D01*
X213917712Y-93531206D01*
X213911682Y-93533891D01*
X213911681Y-93533891D01*
X213749278Y-93606197D01*
X213749276Y-93606198D01*
X213743248Y-93608882D01*
X213588747Y-93721134D01*
X213460960Y-93863056D01*
X213365473Y-94028444D01*
X213306458Y-94210072D01*
X213305768Y-94216633D01*
X213305768Y-94216635D01*
X213298200Y-94288642D01*
X213286496Y-94400000D01*
X213306458Y-94589928D01*
X213365473Y-94771556D01*
X213460960Y-94936944D01*
X213588747Y-95078866D01*
X213743248Y-95191118D01*
X213749276Y-95193802D01*
X213749278Y-95193803D01*
X213911681Y-95266109D01*
X213917712Y-95268794D01*
X214011113Y-95288647D01*
X214098056Y-95307128D01*
X214098061Y-95307128D01*
X214104513Y-95308500D01*
X214295487Y-95308500D01*
X214301939Y-95307128D01*
X214301944Y-95307128D01*
X214388887Y-95288647D01*
X214482288Y-95268794D01*
X214488319Y-95266109D01*
X214650722Y-95193803D01*
X214650724Y-95193802D01*
X214656752Y-95191118D01*
X214811253Y-95078866D01*
X214939040Y-94936944D01*
X215034527Y-94771556D01*
X215093542Y-94589928D01*
X215110907Y-94424706D01*
X215137920Y-94359050D01*
X215147122Y-94348782D01*
X217675019Y-91820885D01*
X217737331Y-91786859D01*
X217764114Y-91783980D01*
X235074000Y-91783980D01*
X235142121Y-91803982D01*
X235188614Y-91857638D01*
X235200000Y-91909980D01*
X235200000Y-93485650D01*
X235191631Y-93530804D01*
X235093387Y-93786739D01*
X235068167Y-93852438D01*
X235054540Y-93903295D01*
X235030706Y-93992244D01*
X234993754Y-94052867D01*
X234929894Y-94083888D01*
X234859399Y-94075460D01*
X234804652Y-94030257D01*
X234782999Y-93959633D01*
X234782999Y-92655331D01*
X234782629Y-92648510D01*
X234777105Y-92597648D01*
X234773479Y-92582396D01*
X234728324Y-92461946D01*
X234719786Y-92446351D01*
X234643285Y-92344276D01*
X234630724Y-92331715D01*
X234528649Y-92255214D01*
X234513054Y-92246676D01*
X234392606Y-92201522D01*
X234377351Y-92197895D01*
X234326486Y-92192369D01*
X234319672Y-92192000D01*
X231347115Y-92192000D01*
X231331876Y-92196475D01*
X231330671Y-92197865D01*
X231329000Y-92205548D01*
X231329000Y-95728000D01*
X231308998Y-95796121D01*
X231255342Y-95842614D01*
X231203000Y-95854000D01*
X227385116Y-95854000D01*
X227369877Y-95858475D01*
X227368672Y-95859865D01*
X227367001Y-95867548D01*
X227367001Y-98544669D01*
X227367371Y-98551490D01*
X227372895Y-98602352D01*
X227375035Y-98611353D01*
X227371334Y-98682253D01*
X227329889Y-98739897D01*
X227263858Y-98765983D01*
X227252453Y-98766500D01*
X226609595Y-98766500D01*
X226541474Y-98746498D01*
X226520499Y-98729595D01*
X226419774Y-98628869D01*
X226385749Y-98566557D01*
X226383054Y-98532964D01*
X226383132Y-98531521D01*
X226383500Y-98528134D01*
X226383500Y-97231866D01*
X226376745Y-97169684D01*
X226325615Y-97033295D01*
X226238261Y-96916739D01*
X226121705Y-96829385D01*
X225985316Y-96778255D01*
X225923134Y-96771500D01*
X223626866Y-96771500D01*
X223564684Y-96778255D01*
X223428295Y-96829385D01*
X223311739Y-96916739D01*
X223224385Y-97033295D01*
X223173255Y-97169684D01*
X223166500Y-97231866D01*
X223166500Y-98528134D01*
X223173255Y-98590316D01*
X223224385Y-98726705D01*
X223311739Y-98843261D01*
X223428295Y-98930615D01*
X223564684Y-98981745D01*
X223626866Y-98988500D01*
X224935406Y-98988500D01*
X225003527Y-99008502D01*
X225024501Y-99025405D01*
X225184001Y-99184905D01*
X225218027Y-99247217D01*
X225212962Y-99318032D01*
X225170415Y-99374868D01*
X225103895Y-99399679D01*
X225094906Y-99400000D01*
X199726000Y-99400000D01*
X199657879Y-99379998D01*
X199611386Y-99326342D01*
X199600000Y-99274000D01*
X199600000Y-98469669D01*
X200717001Y-98469669D01*
X200717371Y-98476490D01*
X200722895Y-98527352D01*
X200726521Y-98542604D01*
X200771676Y-98663054D01*
X200780214Y-98678649D01*
X200856715Y-98780724D01*
X200869276Y-98793285D01*
X200971351Y-98869786D01*
X200986946Y-98878324D01*
X201107394Y-98923478D01*
X201122649Y-98927105D01*
X201173514Y-98932631D01*
X201180328Y-98933000D01*
X201802885Y-98933000D01*
X201818124Y-98928525D01*
X201819329Y-98927135D01*
X201821000Y-98919452D01*
X201821000Y-97847115D01*
X201816525Y-97831876D01*
X201815135Y-97830671D01*
X201807452Y-97829000D01*
X200735116Y-97829000D01*
X200719877Y-97833475D01*
X200718672Y-97834865D01*
X200717001Y-97842548D01*
X200717001Y-98469669D01*
X199600000Y-98469669D01*
X199600000Y-97302885D01*
X200717000Y-97302885D01*
X200721475Y-97318124D01*
X200722865Y-97319329D01*
X200730548Y-97321000D01*
X201802885Y-97321000D01*
X201818124Y-97316525D01*
X201819329Y-97315135D01*
X201821000Y-97307452D01*
X201821000Y-96235116D01*
X201816525Y-96219877D01*
X201815135Y-96218672D01*
X201807452Y-96217001D01*
X201180331Y-96217001D01*
X201173510Y-96217371D01*
X201122648Y-96222895D01*
X201107396Y-96226521D01*
X200986946Y-96271676D01*
X200971351Y-96280214D01*
X200869276Y-96356715D01*
X200856715Y-96369276D01*
X200780214Y-96471351D01*
X200771676Y-96486946D01*
X200726522Y-96607394D01*
X200722895Y-96622649D01*
X200717369Y-96673514D01*
X200717000Y-96680328D01*
X200717000Y-97302885D01*
X199600000Y-97302885D01*
X199600000Y-86766695D01*
X199937252Y-86766695D01*
X199950111Y-86989715D01*
X199951248Y-86994761D01*
X199951249Y-86994767D01*
X199975305Y-87101508D01*
X199999223Y-87207639D01*
X200083267Y-87414616D01*
X200199988Y-87605088D01*
X200346251Y-87773938D01*
X200350231Y-87777242D01*
X200354982Y-87781187D01*
X200394617Y-87840090D01*
X200396114Y-87911071D01*
X200358998Y-87971593D01*
X200318726Y-87996112D01*
X200269759Y-88014469D01*
X200203296Y-88039385D01*
X200086740Y-88126739D01*
X199999386Y-88243295D01*
X199948256Y-88379684D01*
X199941501Y-88441866D01*
X199941501Y-90238134D01*
X199948256Y-90300316D01*
X199999386Y-90436705D01*
X200086740Y-90553261D01*
X200203296Y-90640615D01*
X200339685Y-90691745D01*
X200401867Y-90698500D01*
X202198135Y-90698500D01*
X202260317Y-90691745D01*
X202396706Y-90640615D01*
X202513262Y-90553261D01*
X202600616Y-90436705D01*
X202627798Y-90364197D01*
X202644599Y-90319382D01*
X202687241Y-90262618D01*
X202753803Y-90237918D01*
X202823151Y-90253126D01*
X202857818Y-90281114D01*
X202886251Y-90313938D01*
X203058127Y-90456632D01*
X203251001Y-90569338D01*
X203255826Y-90571180D01*
X203255827Y-90571181D01*
X203284916Y-90582289D01*
X203459693Y-90649030D01*
X203464761Y-90650061D01*
X203464764Y-90650062D01*
X203528126Y-90662953D01*
X203678598Y-90693567D01*
X203683773Y-90693757D01*
X203683775Y-90693757D01*
X203896674Y-90701564D01*
X203896678Y-90701564D01*
X203901838Y-90701753D01*
X203906958Y-90701097D01*
X203906960Y-90701097D01*
X204118289Y-90674025D01*
X204118290Y-90674025D01*
X204123417Y-90673368D01*
X204128367Y-90671883D01*
X204332430Y-90610661D01*
X204332435Y-90610659D01*
X204337385Y-90609174D01*
X204537995Y-90510896D01*
X204719861Y-90381173D01*
X204728015Y-90373048D01*
X204863617Y-90237918D01*
X204878097Y-90223489D01*
X205008454Y-90042077D01*
X205010747Y-90037437D01*
X205012447Y-90034608D01*
X205064675Y-89986518D01*
X205120452Y-89973500D01*
X205311234Y-89973500D01*
X205322417Y-89974027D01*
X205329910Y-89975702D01*
X205337836Y-89975453D01*
X205337837Y-89975453D01*
X205397987Y-89973562D01*
X205401946Y-89973500D01*
X205429857Y-89973500D01*
X205433792Y-89973003D01*
X205433857Y-89972995D01*
X205445694Y-89972062D01*
X205477952Y-89971048D01*
X205481971Y-89970922D01*
X205489890Y-89970673D01*
X205509344Y-89965021D01*
X205528701Y-89961013D01*
X205540931Y-89959468D01*
X205540932Y-89959468D01*
X205548798Y-89958474D01*
X205556169Y-89955555D01*
X205556171Y-89955555D01*
X205589913Y-89942196D01*
X205601143Y-89938351D01*
X205635984Y-89928229D01*
X205635985Y-89928229D01*
X205643594Y-89926018D01*
X205650413Y-89921985D01*
X205650418Y-89921983D01*
X205661029Y-89915707D01*
X205678777Y-89907012D01*
X205697618Y-89899552D01*
X205733388Y-89873564D01*
X205743308Y-89867048D01*
X205774536Y-89848580D01*
X205774539Y-89848578D01*
X205781363Y-89844542D01*
X205795684Y-89830221D01*
X205810718Y-89817380D01*
X205820695Y-89810131D01*
X205827108Y-89805472D01*
X205832159Y-89799367D01*
X205832164Y-89799362D01*
X205855295Y-89771402D01*
X205863282Y-89762624D01*
X206220501Y-89405404D01*
X206282814Y-89371379D01*
X206309597Y-89368499D01*
X206389989Y-89368499D01*
X206426467Y-89365629D01*
X206523271Y-89337505D01*
X206574984Y-89322481D01*
X206574986Y-89322480D01*
X206582597Y-89320269D01*
X206636354Y-89288477D01*
X206705167Y-89271018D01*
X206764631Y-89288478D01*
X206810781Y-89315771D01*
X206825218Y-89322019D01*
X206938606Y-89354961D01*
X206952706Y-89354921D01*
X206956001Y-89347651D01*
X206956001Y-89341900D01*
X207464001Y-89341900D01*
X207467974Y-89355431D01*
X207475872Y-89356566D01*
X207594784Y-89322019D01*
X207609223Y-89315770D01*
X207735406Y-89241146D01*
X207747842Y-89231499D01*
X207851500Y-89127841D01*
X207861147Y-89115405D01*
X207935771Y-88989222D01*
X207942020Y-88974783D01*
X207983339Y-88832564D01*
X207985638Y-88819977D01*
X207986261Y-88812057D01*
X207983091Y-88796970D01*
X207971627Y-88794000D01*
X207482116Y-88794000D01*
X207466877Y-88798475D01*
X207465672Y-88799865D01*
X207464001Y-88807548D01*
X207464001Y-89341900D01*
X206956001Y-89341900D01*
X206956001Y-88877542D01*
X206961004Y-88842390D01*
X206963835Y-88832647D01*
X206963836Y-88832640D01*
X206965630Y-88826466D01*
X206968186Y-88794000D01*
X206968308Y-88792444D01*
X206968308Y-88792438D01*
X206968501Y-88789989D01*
X206968500Y-88411999D01*
X206988502Y-88343880D01*
X207042157Y-88297387D01*
X207094500Y-88286000D01*
X207969567Y-88286000D01*
X207984362Y-88281656D01*
X207986422Y-88269997D01*
X207985638Y-88260023D01*
X207983339Y-88247436D01*
X207942020Y-88105217D01*
X207935771Y-88090778D01*
X207861147Y-87964595D01*
X207851500Y-87952159D01*
X207747842Y-87848501D01*
X207735411Y-87838859D01*
X207649951Y-87788318D01*
X207601498Y-87736425D01*
X207588793Y-87666575D01*
X207615868Y-87600943D01*
X207624995Y-87590769D01*
X213192247Y-82023517D01*
X213200537Y-82015973D01*
X213207018Y-82011860D01*
X213253659Y-81962192D01*
X213256413Y-81959351D01*
X213276134Y-81939630D01*
X213278612Y-81936435D01*
X213286318Y-81927413D01*
X213298193Y-81914767D01*
X213316586Y-81895181D01*
X213326346Y-81877428D01*
X213337199Y-81860905D01*
X213344753Y-81851166D01*
X213349613Y-81844901D01*
X213367176Y-81804317D01*
X213372383Y-81793687D01*
X213393695Y-81754920D01*
X213395666Y-81747243D01*
X213395668Y-81747238D01*
X213398732Y-81735302D01*
X213405138Y-81716590D01*
X213405493Y-81715771D01*
X213413181Y-81698005D01*
X213414421Y-81690177D01*
X213414423Y-81690170D01*
X213420099Y-81654336D01*
X213422505Y-81642716D01*
X213431528Y-81607571D01*
X213431528Y-81607570D01*
X213433500Y-81599890D01*
X213433500Y-81579636D01*
X213435051Y-81559925D01*
X213436980Y-81547746D01*
X213438220Y-81539917D01*
X213434059Y-81495898D01*
X213433500Y-81484041D01*
X213433500Y-79902524D01*
X213453502Y-79834403D01*
X213465858Y-79818221D01*
X213539040Y-79736944D01*
X213614163Y-79606827D01*
X213631223Y-79577279D01*
X213631224Y-79577278D01*
X213634527Y-79571556D01*
X213693542Y-79389928D01*
X213695136Y-79374767D01*
X213712814Y-79206565D01*
X213713504Y-79200000D01*
X213708443Y-79151851D01*
X213694232Y-79016635D01*
X213694232Y-79016633D01*
X213693542Y-79010072D01*
X213634527Y-78828444D01*
X213616356Y-78796970D01*
X213542341Y-78668774D01*
X213539040Y-78663056D01*
X213411253Y-78521134D01*
X213275626Y-78422595D01*
X213262094Y-78412763D01*
X213262093Y-78412762D01*
X213256752Y-78408882D01*
X213250724Y-78406198D01*
X213250722Y-78406197D01*
X213088319Y-78333891D01*
X213088318Y-78333891D01*
X213082288Y-78331206D01*
X212988887Y-78311353D01*
X212901944Y-78292872D01*
X212901939Y-78292872D01*
X212895487Y-78291500D01*
X212704513Y-78291500D01*
X212698061Y-78292872D01*
X212698056Y-78292872D01*
X212663964Y-78300119D01*
X212593173Y-78294717D01*
X212536541Y-78251900D01*
X212512457Y-78190042D01*
X212511723Y-78183051D01*
X212495596Y-78029612D01*
X212494232Y-78016635D01*
X212494232Y-78016633D01*
X212493542Y-78010072D01*
X212434527Y-77828444D01*
X212423249Y-77808909D01*
X212374826Y-77725039D01*
X212339040Y-77663056D01*
X212211253Y-77521134D01*
X212056752Y-77408882D01*
X212050724Y-77406198D01*
X212050722Y-77406197D01*
X211888319Y-77333891D01*
X211888318Y-77333891D01*
X211882288Y-77331206D01*
X211788887Y-77311353D01*
X211701944Y-77292872D01*
X211701939Y-77292872D01*
X211695487Y-77291500D01*
X211504513Y-77291500D01*
X211498061Y-77292872D01*
X211498056Y-77292872D01*
X211411113Y-77311353D01*
X211317712Y-77331206D01*
X211311682Y-77333891D01*
X211311681Y-77333891D01*
X211149278Y-77406197D01*
X211149276Y-77406198D01*
X211143248Y-77408882D01*
X210988747Y-77521134D01*
X210860960Y-77663056D01*
X210825174Y-77725039D01*
X210776752Y-77808909D01*
X210765473Y-77828444D01*
X210706458Y-78010072D01*
X210705768Y-78016633D01*
X210705768Y-78016635D01*
X210688614Y-78179848D01*
X210686496Y-78200000D01*
X210687186Y-78206565D01*
X210705416Y-78380010D01*
X210706458Y-78389928D01*
X210765473Y-78571556D01*
X210860960Y-78736944D01*
X210934137Y-78818215D01*
X210964853Y-78882221D01*
X210966500Y-78902524D01*
X210966500Y-79805266D01*
X210946498Y-79873387D01*
X210929595Y-79894361D01*
X207950740Y-82873215D01*
X207888432Y-82907239D01*
X207817617Y-82902174D01*
X207772554Y-82873213D01*
X207747842Y-82848501D01*
X207735406Y-82838854D01*
X207609223Y-82764230D01*
X207594784Y-82757981D01*
X207481396Y-82725039D01*
X207467296Y-82725079D01*
X207464001Y-82732349D01*
X207464001Y-83307764D01*
X207443999Y-83375885D01*
X207427096Y-83396859D01*
X207183596Y-83640359D01*
X207121284Y-83674385D01*
X207050469Y-83669320D01*
X206993633Y-83626773D01*
X206968822Y-83560253D01*
X206968501Y-83551264D01*
X206968500Y-83292484D01*
X206968500Y-83290012D01*
X206965630Y-83253534D01*
X206962969Y-83244373D01*
X206961004Y-83237610D01*
X206956001Y-83202458D01*
X206956001Y-82738100D01*
X206952028Y-82724569D01*
X206944130Y-82723434D01*
X206825218Y-82757981D01*
X206810781Y-82764229D01*
X206764631Y-82791522D01*
X206695814Y-82808982D01*
X206636355Y-82791523D01*
X206582597Y-82759731D01*
X206574986Y-82757520D01*
X206574984Y-82757519D01*
X206432645Y-82716166D01*
X206432646Y-82716166D01*
X206426467Y-82714371D01*
X206420060Y-82713867D01*
X206420056Y-82713866D01*
X206392445Y-82711693D01*
X206392439Y-82711693D01*
X206389990Y-82711500D01*
X206190123Y-82711500D01*
X205990013Y-82711501D01*
X205953535Y-82714371D01*
X205856731Y-82742495D01*
X205805018Y-82757519D01*
X205805016Y-82757520D01*
X205797405Y-82759731D01*
X205790583Y-82763766D01*
X205790582Y-82763766D01*
X205667372Y-82836632D01*
X205657460Y-82842494D01*
X205542495Y-82957459D01*
X205538461Y-82964280D01*
X205477909Y-83066669D01*
X205459732Y-83097404D01*
X205414372Y-83253534D01*
X205413868Y-83259941D01*
X205413867Y-83259945D01*
X205411694Y-83287556D01*
X205411501Y-83290011D01*
X205411501Y-83370405D01*
X205391499Y-83438526D01*
X205374596Y-83459500D01*
X205244501Y-83589595D01*
X205182189Y-83623621D01*
X205155406Y-83626500D01*
X205116806Y-83626500D01*
X205048685Y-83606498D01*
X205011014Y-83568940D01*
X204922823Y-83432617D01*
X204922821Y-83432614D01*
X204920015Y-83428277D01*
X204769671Y-83263051D01*
X204765620Y-83259852D01*
X204765616Y-83259848D01*
X204598415Y-83127800D01*
X204598411Y-83127798D01*
X204594360Y-83124598D01*
X204553054Y-83101796D01*
X204503085Y-83051364D01*
X204488313Y-82981921D01*
X204513429Y-82915516D01*
X204540781Y-82888909D01*
X204605852Y-82842494D01*
X204719861Y-82761173D01*
X204756122Y-82725039D01*
X204874436Y-82607137D01*
X204878097Y-82603489D01*
X204932652Y-82527568D01*
X205005436Y-82426277D01*
X205008454Y-82422077D01*
X205010747Y-82417437D01*
X205012447Y-82414608D01*
X205064675Y-82366518D01*
X205120452Y-82353500D01*
X205331234Y-82353500D01*
X205342417Y-82354027D01*
X205349910Y-82355702D01*
X205357836Y-82355453D01*
X205357837Y-82355453D01*
X205417987Y-82353562D01*
X205421946Y-82353500D01*
X205449857Y-82353500D01*
X205453792Y-82353003D01*
X205453857Y-82352995D01*
X205465694Y-82352062D01*
X205497952Y-82351048D01*
X205501971Y-82350922D01*
X205509890Y-82350673D01*
X205529344Y-82345021D01*
X205548701Y-82341013D01*
X205560931Y-82339468D01*
X205560932Y-82339468D01*
X205568798Y-82338474D01*
X205576169Y-82335555D01*
X205576171Y-82335555D01*
X205609913Y-82322196D01*
X205621143Y-82318351D01*
X205655984Y-82308229D01*
X205655985Y-82308229D01*
X205663594Y-82306018D01*
X205670413Y-82301985D01*
X205670418Y-82301983D01*
X205681029Y-82295707D01*
X205698777Y-82287012D01*
X205717618Y-82279552D01*
X205753388Y-82253564D01*
X205763308Y-82247048D01*
X205794536Y-82228580D01*
X205794539Y-82228578D01*
X205801363Y-82224542D01*
X205815684Y-82210221D01*
X205830718Y-82197380D01*
X205840695Y-82190131D01*
X205847108Y-82185472D01*
X205875299Y-82151395D01*
X205883289Y-82142616D01*
X206220501Y-81805404D01*
X206282813Y-81771378D01*
X206309596Y-81768499D01*
X206389989Y-81768499D01*
X206426467Y-81765629D01*
X206530853Y-81735302D01*
X206574984Y-81722481D01*
X206574986Y-81722480D01*
X206582597Y-81720269D01*
X206636354Y-81688477D01*
X206705167Y-81671018D01*
X206764631Y-81688478D01*
X206810781Y-81715771D01*
X206825218Y-81722019D01*
X206938606Y-81754961D01*
X206952706Y-81754921D01*
X206956001Y-81747651D01*
X206956001Y-81741900D01*
X207464001Y-81741900D01*
X207467974Y-81755431D01*
X207475872Y-81756566D01*
X207594784Y-81722019D01*
X207609223Y-81715770D01*
X207735406Y-81641146D01*
X207747842Y-81631499D01*
X207851500Y-81527841D01*
X207861147Y-81515405D01*
X207935771Y-81389222D01*
X207942020Y-81374783D01*
X207983339Y-81232564D01*
X207985638Y-81219977D01*
X207986261Y-81212057D01*
X207983091Y-81196970D01*
X207971627Y-81194000D01*
X207482116Y-81194000D01*
X207466877Y-81198475D01*
X207465672Y-81199865D01*
X207464001Y-81207548D01*
X207464001Y-81741900D01*
X206956001Y-81741900D01*
X206956001Y-81277542D01*
X206961004Y-81242390D01*
X206963835Y-81232647D01*
X206963836Y-81232640D01*
X206965630Y-81226466D01*
X206968186Y-81194000D01*
X206968308Y-81192444D01*
X206968308Y-81192438D01*
X206968501Y-81189989D01*
X206968500Y-80690012D01*
X206966759Y-80667885D01*
X207464001Y-80667885D01*
X207468476Y-80683124D01*
X207469866Y-80684329D01*
X207477549Y-80686000D01*
X207969567Y-80686000D01*
X207984362Y-80681656D01*
X207986422Y-80669997D01*
X207985638Y-80660023D01*
X207983339Y-80647436D01*
X207942020Y-80505217D01*
X207935771Y-80490778D01*
X207861147Y-80364595D01*
X207851500Y-80352159D01*
X207747842Y-80248501D01*
X207735406Y-80238854D01*
X207609223Y-80164230D01*
X207594784Y-80157981D01*
X207481396Y-80125039D01*
X207467296Y-80125079D01*
X207464001Y-80132349D01*
X207464001Y-80667885D01*
X206966759Y-80667885D01*
X206965630Y-80653534D01*
X206961004Y-80637610D01*
X206956001Y-80602458D01*
X206956001Y-80138100D01*
X206952028Y-80124569D01*
X206944130Y-80123434D01*
X206825218Y-80157981D01*
X206810781Y-80164229D01*
X206764631Y-80191522D01*
X206695814Y-80208982D01*
X206636355Y-80191523D01*
X206582597Y-80159731D01*
X206574986Y-80157520D01*
X206574984Y-80157519D01*
X206432645Y-80116166D01*
X206432646Y-80116166D01*
X206426467Y-80114371D01*
X206420060Y-80113867D01*
X206420056Y-80113866D01*
X206392445Y-80111693D01*
X206392439Y-80111693D01*
X206389990Y-80111500D01*
X206190123Y-80111500D01*
X205990013Y-80111501D01*
X205953535Y-80114371D01*
X205856731Y-80142495D01*
X205805018Y-80157519D01*
X205805016Y-80157520D01*
X205797405Y-80159731D01*
X205790583Y-80163766D01*
X205790582Y-80163766D01*
X205664281Y-80238460D01*
X205657460Y-80242494D01*
X205542495Y-80357459D01*
X205538461Y-80364280D01*
X205513860Y-80405879D01*
X205459732Y-80497404D01*
X205457521Y-80505015D01*
X205457520Y-80505017D01*
X205431160Y-80595750D01*
X205414372Y-80653534D01*
X205413868Y-80659941D01*
X205413867Y-80659945D01*
X205411694Y-80687556D01*
X205411501Y-80690011D01*
X205411501Y-80770405D01*
X205391499Y-80838526D01*
X205374596Y-80859500D01*
X205197495Y-81036601D01*
X205135183Y-81070627D01*
X205064368Y-81065562D01*
X205007532Y-81023015D01*
X205002608Y-81015946D01*
X204922823Y-80892617D01*
X204922821Y-80892614D01*
X204920015Y-80888277D01*
X204769671Y-80723051D01*
X204765620Y-80719852D01*
X204765616Y-80719848D01*
X204598415Y-80587800D01*
X204598411Y-80587798D01*
X204594360Y-80584598D01*
X204553054Y-80561796D01*
X204503085Y-80511364D01*
X204488313Y-80441921D01*
X204513429Y-80375516D01*
X204540781Y-80348909D01*
X204584604Y-80317650D01*
X204719861Y-80221173D01*
X204878097Y-80063489D01*
X204937595Y-79980689D01*
X205005436Y-79886277D01*
X205008454Y-79882077D01*
X205010747Y-79877437D01*
X205012447Y-79874608D01*
X205064675Y-79826518D01*
X205120452Y-79813500D01*
X205471234Y-79813500D01*
X205482417Y-79814027D01*
X205489910Y-79815702D01*
X205497836Y-79815453D01*
X205497837Y-79815453D01*
X205557987Y-79813562D01*
X205561946Y-79813500D01*
X205589857Y-79813500D01*
X205593792Y-79813003D01*
X205593857Y-79812995D01*
X205605694Y-79812062D01*
X205637952Y-79811048D01*
X205641971Y-79810922D01*
X205649890Y-79810673D01*
X205669344Y-79805021D01*
X205688701Y-79801013D01*
X205700931Y-79799468D01*
X205700932Y-79799468D01*
X205708798Y-79798474D01*
X205716169Y-79795555D01*
X205716171Y-79795555D01*
X205749913Y-79782196D01*
X205761143Y-79778351D01*
X205795984Y-79768229D01*
X205795985Y-79768229D01*
X205803594Y-79766018D01*
X205810413Y-79761985D01*
X205810418Y-79761983D01*
X205821029Y-79755707D01*
X205838777Y-79747012D01*
X205857618Y-79739552D01*
X205893388Y-79713564D01*
X205903308Y-79707048D01*
X205934536Y-79688580D01*
X205934539Y-79688578D01*
X205941363Y-79684542D01*
X205955684Y-79670221D01*
X205970718Y-79657380D01*
X205980695Y-79650131D01*
X205987108Y-79645472D01*
X206015299Y-79611395D01*
X206023289Y-79602616D01*
X206220501Y-79405404D01*
X206282813Y-79371378D01*
X206309596Y-79368499D01*
X206389989Y-79368499D01*
X206426467Y-79365629D01*
X206523271Y-79337505D01*
X206574984Y-79322481D01*
X206574986Y-79322480D01*
X206582597Y-79320269D01*
X206636354Y-79288477D01*
X206705167Y-79271018D01*
X206764631Y-79288478D01*
X206810781Y-79315771D01*
X206825218Y-79322019D01*
X206938606Y-79354961D01*
X206952706Y-79354921D01*
X206956001Y-79347651D01*
X206956001Y-79341900D01*
X207464001Y-79341900D01*
X207467974Y-79355431D01*
X207475872Y-79356566D01*
X207594784Y-79322019D01*
X207609223Y-79315770D01*
X207735406Y-79241146D01*
X207747842Y-79231499D01*
X207851500Y-79127841D01*
X207861147Y-79115405D01*
X207935771Y-78989222D01*
X207942020Y-78974783D01*
X207983339Y-78832564D01*
X207985638Y-78819977D01*
X207986261Y-78812057D01*
X207983091Y-78796970D01*
X207971627Y-78794000D01*
X207482116Y-78794000D01*
X207466877Y-78798475D01*
X207465672Y-78799865D01*
X207464001Y-78807548D01*
X207464001Y-79341900D01*
X206956001Y-79341900D01*
X206956001Y-78877542D01*
X206961004Y-78842390D01*
X206963835Y-78832647D01*
X206963836Y-78832640D01*
X206965630Y-78826466D01*
X206968186Y-78794000D01*
X206968308Y-78792444D01*
X206968308Y-78792438D01*
X206968501Y-78789989D01*
X206968500Y-78290012D01*
X206966759Y-78267885D01*
X207464001Y-78267885D01*
X207468476Y-78283124D01*
X207469866Y-78284329D01*
X207477549Y-78286000D01*
X207969567Y-78286000D01*
X207984362Y-78281656D01*
X207986422Y-78269997D01*
X207985638Y-78260023D01*
X207983339Y-78247436D01*
X207942020Y-78105217D01*
X207935771Y-78090778D01*
X207861147Y-77964595D01*
X207851500Y-77952159D01*
X207747842Y-77848501D01*
X207735406Y-77838854D01*
X207609223Y-77764230D01*
X207594784Y-77757981D01*
X207481396Y-77725039D01*
X207467296Y-77725079D01*
X207464001Y-77732349D01*
X207464001Y-78267885D01*
X206966759Y-78267885D01*
X206965630Y-78253534D01*
X206961004Y-78237610D01*
X206956001Y-78202458D01*
X206956001Y-77738100D01*
X206952028Y-77724569D01*
X206944130Y-77723434D01*
X206825218Y-77757981D01*
X206810781Y-77764229D01*
X206764631Y-77791522D01*
X206695814Y-77808982D01*
X206636355Y-77791523D01*
X206582597Y-77759731D01*
X206574986Y-77757520D01*
X206574984Y-77757519D01*
X206432645Y-77716166D01*
X206432646Y-77716166D01*
X206426467Y-77714371D01*
X206420060Y-77713867D01*
X206420056Y-77713866D01*
X206392445Y-77711693D01*
X206392439Y-77711693D01*
X206389990Y-77711500D01*
X206190123Y-77711500D01*
X205990013Y-77711501D01*
X205953535Y-77714371D01*
X205856731Y-77742495D01*
X205805018Y-77757519D01*
X205805016Y-77757520D01*
X205797405Y-77759731D01*
X205790583Y-77763766D01*
X205790582Y-77763766D01*
X205743649Y-77791522D01*
X205657460Y-77842494D01*
X205542495Y-77957459D01*
X205538461Y-77964280D01*
X205507499Y-78016635D01*
X205459732Y-78097404D01*
X205414372Y-78253534D01*
X205413868Y-78259941D01*
X205413867Y-78259945D01*
X205411694Y-78287556D01*
X205411501Y-78290011D01*
X205411501Y-78370405D01*
X205391499Y-78438526D01*
X205374596Y-78459500D01*
X205324501Y-78509595D01*
X205262189Y-78543621D01*
X205235406Y-78546500D01*
X205116806Y-78546500D01*
X205048685Y-78526498D01*
X205011014Y-78488940D01*
X204922823Y-78352617D01*
X204922821Y-78352614D01*
X204920015Y-78348277D01*
X204769671Y-78183051D01*
X204765620Y-78179852D01*
X204765616Y-78179848D01*
X204598415Y-78047800D01*
X204598411Y-78047798D01*
X204594360Y-78044598D01*
X204553054Y-78021796D01*
X204503085Y-77971364D01*
X204488313Y-77901921D01*
X204513429Y-77835516D01*
X204540781Y-77808909D01*
X204609726Y-77759731D01*
X204719861Y-77681173D01*
X204732304Y-77668774D01*
X204874436Y-77527137D01*
X204878097Y-77523489D01*
X204882580Y-77517251D01*
X205005436Y-77346277D01*
X205008454Y-77342077D01*
X205010747Y-77337437D01*
X205012447Y-77334608D01*
X205064675Y-77286518D01*
X205120452Y-77273500D01*
X205411234Y-77273500D01*
X205422417Y-77274027D01*
X205429910Y-77275702D01*
X205437836Y-77275453D01*
X205437837Y-77275453D01*
X205497987Y-77273562D01*
X205501946Y-77273500D01*
X205529857Y-77273500D01*
X205533792Y-77273003D01*
X205533857Y-77272995D01*
X205545694Y-77272062D01*
X205577952Y-77271048D01*
X205581971Y-77270922D01*
X205589890Y-77270673D01*
X205609344Y-77265021D01*
X205628701Y-77261013D01*
X205640931Y-77259468D01*
X205640932Y-77259468D01*
X205648798Y-77258474D01*
X205656169Y-77255555D01*
X205656171Y-77255555D01*
X205689913Y-77242196D01*
X205701143Y-77238351D01*
X205735984Y-77228229D01*
X205735985Y-77228229D01*
X205743594Y-77226018D01*
X205750413Y-77221985D01*
X205750418Y-77221983D01*
X205761029Y-77215707D01*
X205778777Y-77207012D01*
X205797618Y-77199552D01*
X205833388Y-77173564D01*
X205843308Y-77167048D01*
X205874536Y-77148580D01*
X205874539Y-77148578D01*
X205881363Y-77144542D01*
X205895684Y-77130221D01*
X205910718Y-77117380D01*
X205920695Y-77110131D01*
X205927108Y-77105472D01*
X205955299Y-77071395D01*
X205963289Y-77062616D01*
X206220501Y-76805404D01*
X206282813Y-76771378D01*
X206309596Y-76768499D01*
X206389989Y-76768499D01*
X206426467Y-76765629D01*
X206523271Y-76737505D01*
X206574984Y-76722481D01*
X206574986Y-76722480D01*
X206582597Y-76720269D01*
X206636354Y-76688477D01*
X206705167Y-76671018D01*
X206764631Y-76688478D01*
X206810781Y-76715771D01*
X206825218Y-76722019D01*
X206938606Y-76754961D01*
X206952706Y-76754921D01*
X206956001Y-76747651D01*
X206956001Y-76741900D01*
X207464001Y-76741900D01*
X207467974Y-76755431D01*
X207475872Y-76756566D01*
X207594784Y-76722019D01*
X207609223Y-76715770D01*
X207735406Y-76641146D01*
X207747842Y-76631499D01*
X207851500Y-76527841D01*
X207861147Y-76515405D01*
X207935771Y-76389222D01*
X207942020Y-76374783D01*
X207983339Y-76232564D01*
X207985638Y-76219977D01*
X207986261Y-76212057D01*
X207983091Y-76196970D01*
X207971627Y-76194000D01*
X207482116Y-76194000D01*
X207466877Y-76198475D01*
X207465672Y-76199865D01*
X207464001Y-76207548D01*
X207464001Y-76741900D01*
X206956001Y-76741900D01*
X206956001Y-76277542D01*
X206961004Y-76242390D01*
X206963835Y-76232647D01*
X206963836Y-76232640D01*
X206965630Y-76226466D01*
X206967952Y-76196973D01*
X206968308Y-76192444D01*
X206968308Y-76192438D01*
X206968501Y-76189989D01*
X206968500Y-75690012D01*
X206966759Y-75667885D01*
X207464001Y-75667885D01*
X207468476Y-75683124D01*
X207469866Y-75684329D01*
X207477549Y-75686000D01*
X207969567Y-75686000D01*
X207984362Y-75681656D01*
X207986422Y-75669997D01*
X207985638Y-75660023D01*
X207983339Y-75647436D01*
X207942020Y-75505217D01*
X207935771Y-75490778D01*
X207861147Y-75364595D01*
X207851500Y-75352159D01*
X207747842Y-75248501D01*
X207735406Y-75238854D01*
X207609223Y-75164230D01*
X207594784Y-75157981D01*
X207481396Y-75125039D01*
X207467296Y-75125079D01*
X207464001Y-75132349D01*
X207464001Y-75667885D01*
X206966759Y-75667885D01*
X206965630Y-75653534D01*
X206962585Y-75643051D01*
X206961004Y-75637610D01*
X206956001Y-75602458D01*
X206956001Y-75138100D01*
X206952028Y-75124569D01*
X206944130Y-75123434D01*
X206825218Y-75157981D01*
X206810781Y-75164229D01*
X206764631Y-75191522D01*
X206695814Y-75208982D01*
X206636355Y-75191523D01*
X206582597Y-75159731D01*
X206574986Y-75157520D01*
X206574984Y-75157519D01*
X206432645Y-75116166D01*
X206432646Y-75116166D01*
X206426467Y-75114371D01*
X206420060Y-75113867D01*
X206420056Y-75113866D01*
X206392445Y-75111693D01*
X206392439Y-75111693D01*
X206389990Y-75111500D01*
X206190123Y-75111500D01*
X205990013Y-75111501D01*
X205953535Y-75114371D01*
X205870534Y-75138485D01*
X205805018Y-75157519D01*
X205805016Y-75157520D01*
X205797405Y-75159731D01*
X205790583Y-75163766D01*
X205790582Y-75163766D01*
X205667002Y-75236851D01*
X205657460Y-75242494D01*
X205542495Y-75357459D01*
X205538461Y-75364280D01*
X205489737Y-75446669D01*
X205459732Y-75497404D01*
X205457521Y-75505015D01*
X205457520Y-75505017D01*
X205441065Y-75561657D01*
X205414372Y-75653534D01*
X205413868Y-75659941D01*
X205413867Y-75659945D01*
X205411694Y-75687556D01*
X205411501Y-75690011D01*
X205411501Y-75770405D01*
X205391499Y-75838526D01*
X205374596Y-75859500D01*
X205264501Y-75969595D01*
X205202189Y-76003621D01*
X205175406Y-76006500D01*
X205116806Y-76006500D01*
X205048685Y-75986498D01*
X205011014Y-75948940D01*
X204922823Y-75812617D01*
X204922821Y-75812614D01*
X204920015Y-75808277D01*
X204769671Y-75643051D01*
X204765620Y-75639852D01*
X204765616Y-75639848D01*
X204598415Y-75507800D01*
X204598411Y-75507798D01*
X204594360Y-75504598D01*
X204553054Y-75481796D01*
X204503085Y-75431364D01*
X204488313Y-75361921D01*
X204513429Y-75295516D01*
X204540781Y-75268909D01*
X204609671Y-75219770D01*
X204719861Y-75141173D01*
X204736012Y-75125079D01*
X204874436Y-74987137D01*
X204878097Y-74983489D01*
X204937595Y-74900689D01*
X205005436Y-74806277D01*
X205008454Y-74802077D01*
X205010747Y-74797437D01*
X205012447Y-74794608D01*
X205064675Y-74746518D01*
X205120452Y-74733500D01*
X205351234Y-74733500D01*
X205362417Y-74734027D01*
X205369910Y-74735702D01*
X205377836Y-74735453D01*
X205377837Y-74735453D01*
X205437987Y-74733562D01*
X205441946Y-74733500D01*
X205469857Y-74733500D01*
X205473792Y-74733003D01*
X205473857Y-74732995D01*
X205485694Y-74732062D01*
X205517952Y-74731048D01*
X205521971Y-74730922D01*
X205529890Y-74730673D01*
X205549344Y-74725021D01*
X205568701Y-74721013D01*
X205580931Y-74719468D01*
X205580932Y-74719468D01*
X205588798Y-74718474D01*
X205596169Y-74715555D01*
X205596171Y-74715555D01*
X205629913Y-74702196D01*
X205641143Y-74698351D01*
X205675984Y-74688229D01*
X205675985Y-74688229D01*
X205683594Y-74686018D01*
X205690413Y-74681985D01*
X205690418Y-74681983D01*
X205701029Y-74675707D01*
X205718777Y-74667012D01*
X205737618Y-74659552D01*
X205773388Y-74633564D01*
X205783308Y-74627048D01*
X205814536Y-74608580D01*
X205814539Y-74608578D01*
X205821363Y-74604542D01*
X205835684Y-74590221D01*
X205850718Y-74577380D01*
X205860695Y-74570131D01*
X205867108Y-74565472D01*
X205895299Y-74531395D01*
X205903289Y-74522616D01*
X206220501Y-74205404D01*
X206282813Y-74171378D01*
X206309596Y-74168499D01*
X206389989Y-74168499D01*
X206426467Y-74165629D01*
X206523271Y-74137505D01*
X206574984Y-74122481D01*
X206574986Y-74122480D01*
X206582597Y-74120269D01*
X206636354Y-74088477D01*
X206705167Y-74071018D01*
X206764631Y-74088478D01*
X206810781Y-74115771D01*
X206825218Y-74122019D01*
X206938606Y-74154961D01*
X206952706Y-74154921D01*
X206956001Y-74147651D01*
X206956001Y-74141900D01*
X207464001Y-74141900D01*
X207467974Y-74155431D01*
X207475872Y-74156566D01*
X207594784Y-74122019D01*
X207609223Y-74115770D01*
X207735406Y-74041146D01*
X207747842Y-74031499D01*
X207851500Y-73927841D01*
X207861147Y-73915405D01*
X207935771Y-73789222D01*
X207942020Y-73774783D01*
X207983339Y-73632564D01*
X207985638Y-73619977D01*
X207986261Y-73612057D01*
X207983091Y-73596970D01*
X207971627Y-73594000D01*
X207482116Y-73594000D01*
X207466877Y-73598475D01*
X207465672Y-73599865D01*
X207464001Y-73607548D01*
X207464001Y-74141900D01*
X206956001Y-74141900D01*
X206956001Y-73677542D01*
X206961004Y-73642390D01*
X206963835Y-73632647D01*
X206963836Y-73632640D01*
X206965630Y-73626466D01*
X206966560Y-73614661D01*
X206968308Y-73592444D01*
X206968308Y-73592438D01*
X206968501Y-73589989D01*
X206968500Y-73090012D01*
X206966759Y-73067885D01*
X207464001Y-73067885D01*
X207468476Y-73083124D01*
X207469866Y-73084329D01*
X207477549Y-73086000D01*
X207969567Y-73086000D01*
X207984362Y-73081656D01*
X207986422Y-73069997D01*
X207985638Y-73060023D01*
X207983339Y-73047436D01*
X207942020Y-72905217D01*
X207935771Y-72890778D01*
X207861147Y-72764595D01*
X207851500Y-72752159D01*
X207747842Y-72648501D01*
X207735406Y-72638854D01*
X207609223Y-72564230D01*
X207594784Y-72557981D01*
X207481396Y-72525039D01*
X207467296Y-72525079D01*
X207464001Y-72532349D01*
X207464001Y-73067885D01*
X206966759Y-73067885D01*
X206965630Y-73053534D01*
X206961004Y-73037610D01*
X206956001Y-73002458D01*
X206956001Y-72538100D01*
X206952028Y-72524569D01*
X206944130Y-72523434D01*
X206825218Y-72557981D01*
X206810781Y-72564229D01*
X206764631Y-72591522D01*
X206695814Y-72608982D01*
X206636355Y-72591523D01*
X206582597Y-72559731D01*
X206574986Y-72557520D01*
X206574984Y-72557519D01*
X206463097Y-72525013D01*
X206426467Y-72514371D01*
X206420060Y-72513867D01*
X206420056Y-72513866D01*
X206392445Y-72511693D01*
X206392439Y-72511693D01*
X206389990Y-72511500D01*
X206190123Y-72511500D01*
X205990013Y-72511501D01*
X205953535Y-72514371D01*
X205856731Y-72542495D01*
X205805018Y-72557519D01*
X205805016Y-72557520D01*
X205797405Y-72559731D01*
X205790583Y-72563766D01*
X205790582Y-72563766D01*
X205768406Y-72576881D01*
X205657460Y-72642494D01*
X205542495Y-72757459D01*
X205538461Y-72764280D01*
X205466744Y-72885548D01*
X205459732Y-72897404D01*
X205457521Y-72905015D01*
X205457520Y-72905017D01*
X205449889Y-72931283D01*
X205414372Y-73053534D01*
X205413868Y-73059941D01*
X205413867Y-73059945D01*
X205411694Y-73087556D01*
X205411501Y-73090011D01*
X205411501Y-73170405D01*
X205391499Y-73238526D01*
X205374596Y-73259500D01*
X205205351Y-73428745D01*
X205143039Y-73462771D01*
X205072224Y-73457706D01*
X205015388Y-73415159D01*
X205010464Y-73408090D01*
X204922823Y-73272617D01*
X204922821Y-73272614D01*
X204920015Y-73268277D01*
X204769671Y-73103051D01*
X204765620Y-73099852D01*
X204765616Y-73099848D01*
X204598415Y-72967800D01*
X204598411Y-72967798D01*
X204594360Y-72964598D01*
X204553054Y-72941796D01*
X204503085Y-72891364D01*
X204488313Y-72821921D01*
X204513429Y-72755516D01*
X204540781Y-72728909D01*
X204584604Y-72697650D01*
X204719861Y-72601173D01*
X204741757Y-72579354D01*
X204846078Y-72475396D01*
X204878097Y-72443489D01*
X204884712Y-72434284D01*
X205005436Y-72266277D01*
X205008454Y-72262077D01*
X205010747Y-72257437D01*
X205012447Y-72254608D01*
X205064675Y-72206518D01*
X205120452Y-72193500D01*
X205291234Y-72193500D01*
X205302417Y-72194027D01*
X205309910Y-72195702D01*
X205317836Y-72195453D01*
X205317837Y-72195453D01*
X205377987Y-72193562D01*
X205381946Y-72193500D01*
X205409857Y-72193500D01*
X205413792Y-72193003D01*
X205413857Y-72192995D01*
X205425694Y-72192062D01*
X205457952Y-72191048D01*
X205461971Y-72190922D01*
X205469890Y-72190673D01*
X205489344Y-72185021D01*
X205508701Y-72181013D01*
X205520931Y-72179468D01*
X205520932Y-72179468D01*
X205528798Y-72178474D01*
X205536169Y-72175555D01*
X205536171Y-72175555D01*
X205569913Y-72162196D01*
X205581143Y-72158351D01*
X205615984Y-72148229D01*
X205615985Y-72148229D01*
X205623594Y-72146018D01*
X205630413Y-72141985D01*
X205630418Y-72141983D01*
X205641029Y-72135707D01*
X205658777Y-72127012D01*
X205677618Y-72119552D01*
X205713388Y-72093564D01*
X205723308Y-72087048D01*
X205754536Y-72068580D01*
X205754539Y-72068578D01*
X205761363Y-72064542D01*
X205775684Y-72050221D01*
X205790718Y-72037380D01*
X205807108Y-72025472D01*
X205812159Y-72019367D01*
X205812164Y-72019362D01*
X205835295Y-71991402D01*
X205843282Y-71982624D01*
X206031624Y-71794282D01*
X206220501Y-71605404D01*
X206282814Y-71571379D01*
X206309597Y-71568499D01*
X206389989Y-71568499D01*
X206426467Y-71565629D01*
X206542732Y-71531851D01*
X206574984Y-71522481D01*
X206574986Y-71522480D01*
X206582597Y-71520269D01*
X206636354Y-71488477D01*
X206705167Y-71471018D01*
X206764631Y-71488478D01*
X206810781Y-71515771D01*
X206825218Y-71522019D01*
X206938606Y-71554961D01*
X206952706Y-71554921D01*
X206956001Y-71547651D01*
X206956001Y-71541900D01*
X207464001Y-71541900D01*
X207467974Y-71555431D01*
X207475872Y-71556566D01*
X207594784Y-71522019D01*
X207609223Y-71515770D01*
X207735406Y-71441146D01*
X207747842Y-71431499D01*
X207851500Y-71327841D01*
X207861147Y-71315405D01*
X207935771Y-71189222D01*
X207942020Y-71174783D01*
X207983339Y-71032564D01*
X207985638Y-71019977D01*
X207986261Y-71012057D01*
X207983091Y-70996970D01*
X207971627Y-70994000D01*
X207482116Y-70994000D01*
X207466877Y-70998475D01*
X207465672Y-70999865D01*
X207464001Y-71007548D01*
X207464001Y-71541900D01*
X206956001Y-71541900D01*
X206956001Y-71077542D01*
X206961004Y-71042390D01*
X206963835Y-71032647D01*
X206963836Y-71032640D01*
X206965630Y-71026466D01*
X206968186Y-70994000D01*
X206968308Y-70992444D01*
X206968308Y-70992438D01*
X206968501Y-70989989D01*
X206968500Y-70490012D01*
X206966759Y-70467885D01*
X207464001Y-70467885D01*
X207468476Y-70483124D01*
X207469866Y-70484329D01*
X207477549Y-70486000D01*
X207969567Y-70486000D01*
X207984362Y-70481656D01*
X207986422Y-70469997D01*
X207985638Y-70460023D01*
X207983339Y-70447436D01*
X207942020Y-70305217D01*
X207935771Y-70290778D01*
X207861147Y-70164595D01*
X207851500Y-70152159D01*
X207747842Y-70048501D01*
X207735406Y-70038854D01*
X207609223Y-69964230D01*
X207594784Y-69957981D01*
X207481396Y-69925039D01*
X207467296Y-69925079D01*
X207464001Y-69932349D01*
X207464001Y-70467885D01*
X206966759Y-70467885D01*
X206965630Y-70453534D01*
X206961004Y-70437610D01*
X206956001Y-70402458D01*
X206956001Y-69938100D01*
X206952028Y-69924569D01*
X206944130Y-69923434D01*
X206825218Y-69957981D01*
X206810781Y-69964229D01*
X206764631Y-69991522D01*
X206695814Y-70008982D01*
X206636355Y-69991523D01*
X206582597Y-69959731D01*
X206574986Y-69957520D01*
X206574984Y-69957519D01*
X206432645Y-69916166D01*
X206432646Y-69916166D01*
X206426467Y-69914371D01*
X206420060Y-69913867D01*
X206420056Y-69913866D01*
X206392445Y-69911693D01*
X206392439Y-69911693D01*
X206389990Y-69911500D01*
X206190123Y-69911500D01*
X205990013Y-69911501D01*
X205953535Y-69914371D01*
X205856731Y-69942495D01*
X205805018Y-69957519D01*
X205805016Y-69957520D01*
X205797405Y-69959731D01*
X205790583Y-69963766D01*
X205790582Y-69963766D01*
X205667122Y-70036780D01*
X205657460Y-70042494D01*
X205542495Y-70157459D01*
X205538461Y-70164280D01*
X205497256Y-70233955D01*
X205459732Y-70297404D01*
X205457521Y-70305015D01*
X205457520Y-70305017D01*
X205452357Y-70322789D01*
X205414372Y-70453534D01*
X205413868Y-70459941D01*
X205413867Y-70459945D01*
X205411694Y-70487556D01*
X205411501Y-70490011D01*
X205411501Y-70570405D01*
X205391499Y-70638526D01*
X205374596Y-70659500D01*
X205181783Y-70852313D01*
X205119471Y-70886339D01*
X205048656Y-70881274D01*
X204991820Y-70838727D01*
X204986896Y-70831659D01*
X204931446Y-70745947D01*
X204920015Y-70728277D01*
X204769671Y-70563051D01*
X204765620Y-70559852D01*
X204765616Y-70559848D01*
X204598415Y-70427800D01*
X204598411Y-70427798D01*
X204594360Y-70424598D01*
X204398790Y-70316638D01*
X204393921Y-70314914D01*
X204393917Y-70314912D01*
X204193088Y-70243795D01*
X204193084Y-70243794D01*
X204188213Y-70242069D01*
X204183120Y-70241162D01*
X204183117Y-70241161D01*
X203973374Y-70203800D01*
X203973368Y-70203799D01*
X203968285Y-70202894D01*
X203894453Y-70201992D01*
X203750082Y-70200228D01*
X203750080Y-70200228D01*
X203744912Y-70200165D01*
X203524092Y-70233955D01*
X203311757Y-70303357D01*
X203113608Y-70406507D01*
X203109475Y-70409610D01*
X203109472Y-70409612D01*
X202974585Y-70510888D01*
X202934966Y-70540635D01*
X202780630Y-70702138D01*
X202673202Y-70859621D01*
X202618294Y-70904621D01*
X202547769Y-70912792D01*
X202484022Y-70881538D01*
X202463325Y-70857054D01*
X202382823Y-70732617D01*
X202382819Y-70732612D01*
X202380015Y-70728277D01*
X202229671Y-70563051D01*
X202225620Y-70559852D01*
X202225616Y-70559848D01*
X202058415Y-70427800D01*
X202058411Y-70427798D01*
X202054360Y-70424598D01*
X201858790Y-70316638D01*
X201853921Y-70314914D01*
X201853917Y-70314912D01*
X201653088Y-70243795D01*
X201653084Y-70243794D01*
X201648213Y-70242069D01*
X201643120Y-70241162D01*
X201643117Y-70241161D01*
X201433374Y-70203800D01*
X201433368Y-70203799D01*
X201428285Y-70202894D01*
X201354453Y-70201992D01*
X201210082Y-70200228D01*
X201210080Y-70200228D01*
X201204912Y-70200165D01*
X200984092Y-70233955D01*
X200771757Y-70303357D01*
X200573608Y-70406507D01*
X200569475Y-70409610D01*
X200569472Y-70409612D01*
X200434585Y-70510888D01*
X200394966Y-70540635D01*
X200240630Y-70702138D01*
X200237721Y-70706403D01*
X200237715Y-70706411D01*
X200207464Y-70750757D01*
X200114744Y-70886680D01*
X200020689Y-71089305D01*
X199960990Y-71304570D01*
X199937252Y-71526695D01*
X199937549Y-71531848D01*
X199937549Y-71531851D01*
X199948317Y-71718595D01*
X199950111Y-71749715D01*
X199951248Y-71754761D01*
X199951249Y-71754767D01*
X199975248Y-71861257D01*
X199999223Y-71967639D01*
X200054741Y-72104364D01*
X200076663Y-72158351D01*
X200083267Y-72174616D01*
X200132286Y-72254608D01*
X200197292Y-72360688D01*
X200199988Y-72365088D01*
X200346251Y-72533938D01*
X200518127Y-72676632D01*
X200585024Y-72715723D01*
X200591446Y-72719476D01*
X200640170Y-72771114D01*
X200653241Y-72840897D01*
X200626510Y-72906669D01*
X200586056Y-72940027D01*
X200573608Y-72946507D01*
X200569475Y-72949610D01*
X200569472Y-72949612D01*
X200399101Y-73077530D01*
X200394966Y-73080635D01*
X200391394Y-73084373D01*
X200255498Y-73226580D01*
X200240630Y-73242138D01*
X200237721Y-73246403D01*
X200237715Y-73246411D01*
X200213677Y-73281649D01*
X200114744Y-73426680D01*
X200097991Y-73462771D01*
X200024983Y-73620055D01*
X200020689Y-73629305D01*
X199960990Y-73844570D01*
X199937252Y-74066695D01*
X199937549Y-74071848D01*
X199937549Y-74071851D01*
X199943111Y-74168305D01*
X199950111Y-74289715D01*
X199951248Y-74294761D01*
X199951249Y-74294767D01*
X199975305Y-74401508D01*
X199999223Y-74507639D01*
X200050624Y-74634225D01*
X200076663Y-74698351D01*
X200083267Y-74714616D01*
X200132286Y-74794608D01*
X200197292Y-74900688D01*
X200199988Y-74905088D01*
X200346251Y-75073938D01*
X200456578Y-75165533D01*
X200508913Y-75208982D01*
X200518127Y-75216632D01*
X200573772Y-75249148D01*
X200591446Y-75259476D01*
X200640170Y-75311114D01*
X200653241Y-75380897D01*
X200626510Y-75446669D01*
X200586056Y-75480027D01*
X200582007Y-75482135D01*
X200573608Y-75486507D01*
X200569475Y-75489610D01*
X200569472Y-75489612D01*
X200403804Y-75613999D01*
X200394966Y-75620635D01*
X200357393Y-75659953D01*
X200287499Y-75733093D01*
X200240630Y-75782138D01*
X200237721Y-75786403D01*
X200237715Y-75786411D01*
X200202165Y-75838526D01*
X200114744Y-75966680D01*
X200071233Y-76060417D01*
X200032720Y-76143387D01*
X200020689Y-76169305D01*
X199960990Y-76384570D01*
X199937252Y-76606695D01*
X199937549Y-76611848D01*
X199937549Y-76611851D01*
X199943901Y-76722019D01*
X199950111Y-76829715D01*
X199951248Y-76834761D01*
X199951249Y-76834767D01*
X199975305Y-76941508D01*
X199999223Y-77047639D01*
X200059015Y-77194890D01*
X200076663Y-77238351D01*
X200083267Y-77254616D01*
X200130201Y-77331206D01*
X200197292Y-77440688D01*
X200199988Y-77445088D01*
X200346251Y-77613938D01*
X200518127Y-77756632D01*
X200577834Y-77791522D01*
X200591446Y-77799476D01*
X200640170Y-77851114D01*
X200653241Y-77920897D01*
X200626510Y-77986669D01*
X200586056Y-78020027D01*
X200573608Y-78026507D01*
X200569475Y-78029610D01*
X200569472Y-78029612D01*
X200419005Y-78142586D01*
X200394966Y-78160635D01*
X200391394Y-78164373D01*
X200279316Y-78281656D01*
X200240630Y-78322138D01*
X200237721Y-78326403D01*
X200237715Y-78326411D01*
X200158646Y-78442322D01*
X200114744Y-78506680D01*
X200020689Y-78709305D01*
X199960990Y-78924570D01*
X199937252Y-79146695D01*
X199937549Y-79151848D01*
X199937549Y-79151851D01*
X199948507Y-79341900D01*
X199950111Y-79369715D01*
X199951248Y-79374761D01*
X199951249Y-79374767D01*
X199953187Y-79383365D01*
X199999223Y-79587639D01*
X200057527Y-79731226D01*
X200076663Y-79778351D01*
X200083267Y-79794616D01*
X200121775Y-79857456D01*
X200197292Y-79980688D01*
X200199988Y-79985088D01*
X200346251Y-80153938D01*
X200518127Y-80296632D01*
X200588596Y-80337811D01*
X200591446Y-80339476D01*
X200640170Y-80391114D01*
X200653241Y-80460897D01*
X200626510Y-80526669D01*
X200586056Y-80560027D01*
X200573608Y-80566507D01*
X200569475Y-80569610D01*
X200569472Y-80569612D01*
X200405827Y-80692480D01*
X200394966Y-80700635D01*
X200240630Y-80862138D01*
X200114744Y-81046680D01*
X200096260Y-81086500D01*
X200023899Y-81242390D01*
X200020689Y-81249305D01*
X199960990Y-81464570D01*
X199937252Y-81686695D01*
X199937549Y-81691848D01*
X199937549Y-81691851D01*
X199947297Y-81860905D01*
X199950111Y-81909715D01*
X199951248Y-81914761D01*
X199951249Y-81914767D01*
X199971829Y-82006083D01*
X199999223Y-82127639D01*
X200052039Y-82257711D01*
X200076663Y-82318351D01*
X200083267Y-82334616D01*
X200126435Y-82405060D01*
X200197292Y-82520688D01*
X200199988Y-82525088D01*
X200346251Y-82693938D01*
X200518127Y-82836632D01*
X200580728Y-82873213D01*
X200591446Y-82879476D01*
X200640170Y-82931114D01*
X200653241Y-83000897D01*
X200626510Y-83066669D01*
X200586056Y-83100027D01*
X200573608Y-83106507D01*
X200569475Y-83109610D01*
X200569472Y-83109612D01*
X200545248Y-83127800D01*
X200394966Y-83240635D01*
X200240630Y-83402138D01*
X200114744Y-83586680D01*
X200020689Y-83789305D01*
X199960990Y-84004570D01*
X199937252Y-84226695D01*
X199937549Y-84231848D01*
X199937549Y-84231851D01*
X199945263Y-84365629D01*
X199950111Y-84449715D01*
X199951248Y-84454761D01*
X199951249Y-84454767D01*
X199975305Y-84561508D01*
X199999223Y-84667639D01*
X200029908Y-84743207D01*
X200078644Y-84863230D01*
X200083267Y-84874616D01*
X200199988Y-85065088D01*
X200346251Y-85233938D01*
X200518127Y-85376632D01*
X200588596Y-85417811D01*
X200591446Y-85419476D01*
X200640170Y-85471114D01*
X200653241Y-85540897D01*
X200626510Y-85606669D01*
X200586056Y-85640027D01*
X200573608Y-85646507D01*
X200569475Y-85649610D01*
X200569472Y-85649612D01*
X200400332Y-85776606D01*
X200394966Y-85780635D01*
X200240630Y-85942138D01*
X200114744Y-86126680D01*
X200020689Y-86329305D01*
X199960990Y-86544570D01*
X199937252Y-86766695D01*
X199600000Y-86766695D01*
X199600000Y-68926000D01*
X199620002Y-68857879D01*
X199673658Y-68811386D01*
X199726000Y-68800000D01*
X206391001Y-68800000D01*
X206459122Y-68820002D01*
X206505615Y-68873658D01*
X206517001Y-68926000D01*
X206517001Y-69069669D01*
X206517371Y-69076490D01*
X206522895Y-69127352D01*
X206526521Y-69142604D01*
X206571676Y-69263054D01*
X206580214Y-69278649D01*
X206656715Y-69380724D01*
X206669276Y-69393285D01*
X206771351Y-69469786D01*
X206786946Y-69478324D01*
X206907394Y-69523478D01*
X206922649Y-69527105D01*
X206973514Y-69532631D01*
X206980328Y-69533000D01*
X207602885Y-69533000D01*
X207618124Y-69528525D01*
X207619329Y-69527135D01*
X207621000Y-69519452D01*
X207621000Y-66835116D01*
X207616525Y-66819877D01*
X207615135Y-66818672D01*
X207607452Y-66817001D01*
X207326000Y-66817001D01*
X207257879Y-66796999D01*
X207211386Y-66743343D01*
X207200000Y-66691001D01*
X207200000Y-65114350D01*
X207208369Y-65069196D01*
X207330647Y-64750652D01*
X207330648Y-64750650D01*
X207331833Y-64747562D01*
X207432438Y-64372099D01*
X207478426Y-64081745D01*
X207492732Y-63991424D01*
X207492733Y-63991416D01*
X207493246Y-63988176D01*
X207513589Y-63600000D01*
X207493246Y-63211824D01*
X207490827Y-63196547D01*
X207448330Y-62928238D01*
X207432438Y-62827901D01*
X207331833Y-62452438D01*
X207327117Y-62440151D01*
X207208369Y-62130804D01*
X207200000Y-62085650D01*
X207200000Y-61069669D01*
X208117001Y-61069669D01*
X208117371Y-61076490D01*
X208122895Y-61127352D01*
X208126521Y-61142604D01*
X208171676Y-61263054D01*
X208180214Y-61278649D01*
X208256715Y-61380724D01*
X208269276Y-61393285D01*
X208371351Y-61469786D01*
X208386946Y-61478324D01*
X208507394Y-61523478D01*
X208522649Y-61527105D01*
X208573514Y-61532631D01*
X208580328Y-61533000D01*
X209202885Y-61533000D01*
X209218124Y-61528525D01*
X209219329Y-61527135D01*
X209221000Y-61519452D01*
X209221000Y-60447115D01*
X209216525Y-60431876D01*
X209215135Y-60430671D01*
X209207452Y-60429000D01*
X208135116Y-60429000D01*
X208119877Y-60433475D01*
X208118672Y-60434865D01*
X208117001Y-60442548D01*
X208117001Y-61069669D01*
X207200000Y-61069669D01*
X207200000Y-59902885D01*
X208117000Y-59902885D01*
X208121475Y-59918124D01*
X208122865Y-59919329D01*
X208130548Y-59921000D01*
X209202885Y-59921000D01*
X209218124Y-59916525D01*
X209219329Y-59915135D01*
X209221000Y-59907452D01*
X209221000Y-58835116D01*
X209216525Y-58819877D01*
X209215135Y-58818672D01*
X209207452Y-58817001D01*
X208580331Y-58817001D01*
X208573510Y-58817371D01*
X208522648Y-58822895D01*
X208507396Y-58826521D01*
X208386946Y-58871676D01*
X208371351Y-58880214D01*
X208269276Y-58956715D01*
X208256715Y-58969276D01*
X208180214Y-59071351D01*
X208171676Y-59086946D01*
X208126522Y-59207394D01*
X208122895Y-59222649D01*
X208117369Y-59273514D01*
X208117000Y-59280328D01*
X208117000Y-59902885D01*
X207200000Y-59902885D01*
X207200000Y-58634500D01*
X207220002Y-58566379D01*
X207273658Y-58519886D01*
X207326000Y-58508500D01*
X224631405Y-58508500D01*
X224699526Y-58528502D01*
G37*
G04 #@! TD.AperFunction*
G04 #@! TA.AperFunction,Conductor*
G36*
X212084532Y-80635398D02*
G01*
X212141368Y-80677945D01*
X212166179Y-80744465D01*
X212166500Y-80753454D01*
X212166500Y-81205265D01*
X212146498Y-81273386D01*
X212129595Y-81294360D01*
X207950743Y-85473212D01*
X207888431Y-85507238D01*
X207817616Y-85502173D01*
X207772553Y-85473212D01*
X207747842Y-85448501D01*
X207735406Y-85438854D01*
X207609223Y-85364230D01*
X207594782Y-85357981D01*
X207538244Y-85341555D01*
X207478408Y-85303343D01*
X207448730Y-85238847D01*
X207458633Y-85168544D01*
X207484301Y-85131463D01*
X211951405Y-80664359D01*
X212013717Y-80630333D01*
X212084532Y-80635398D01*
G37*
G04 #@! TD.AperFunction*
G04 #@! TA.AperFunction,Conductor*
G36*
X236288959Y-74745339D02*
G01*
X236334195Y-74797543D01*
X236350151Y-74831762D01*
X236350154Y-74831767D01*
X236352477Y-74836749D01*
X236483802Y-75024300D01*
X236645700Y-75186198D01*
X236650208Y-75189355D01*
X236650211Y-75189357D01*
X236711380Y-75232188D01*
X236833251Y-75317523D01*
X236838233Y-75319846D01*
X236838238Y-75319849D01*
X237008825Y-75399394D01*
X237040757Y-75414284D01*
X237046065Y-75415706D01*
X237046067Y-75415707D01*
X237256598Y-75472119D01*
X237256600Y-75472119D01*
X237261913Y-75473543D01*
X237490000Y-75493498D01*
X237718087Y-75473543D01*
X237723400Y-75472119D01*
X237723402Y-75472119D01*
X237933933Y-75415707D01*
X237933935Y-75415706D01*
X237939243Y-75414284D01*
X237987250Y-75391898D01*
X238057442Y-75381237D01*
X238122254Y-75410217D01*
X238161111Y-75469637D01*
X238166500Y-75506093D01*
X238166500Y-75721233D01*
X238165973Y-75732416D01*
X238164298Y-75739909D01*
X238164547Y-75747835D01*
X238164547Y-75747836D01*
X238166438Y-75807986D01*
X238166500Y-75811945D01*
X238166500Y-75839856D01*
X238166997Y-75843790D01*
X238166997Y-75843791D01*
X238167005Y-75843856D01*
X238167938Y-75855693D01*
X238169327Y-75899889D01*
X238172601Y-75911158D01*
X238174978Y-75919339D01*
X238178987Y-75938700D01*
X238181526Y-75958797D01*
X238184445Y-75966168D01*
X238184445Y-75966170D01*
X238197804Y-75999912D01*
X238201649Y-76011142D01*
X238211771Y-76045983D01*
X238213982Y-76053593D01*
X238218015Y-76060412D01*
X238218017Y-76060417D01*
X238224293Y-76071028D01*
X238232988Y-76088776D01*
X238240448Y-76107617D01*
X238245110Y-76114033D01*
X238245110Y-76114034D01*
X238266436Y-76143387D01*
X238272952Y-76153307D01*
X238285366Y-76174297D01*
X238295458Y-76191362D01*
X238309779Y-76205683D01*
X238322619Y-76220716D01*
X238334528Y-76237107D01*
X238340634Y-76242158D01*
X238368605Y-76265298D01*
X238377384Y-76273288D01*
X240484106Y-78380010D01*
X240518132Y-78442322D01*
X240521011Y-78469105D01*
X240521011Y-87925744D01*
X240520484Y-87936927D01*
X240518809Y-87944420D01*
X240519058Y-87952346D01*
X240519058Y-87952347D01*
X240520949Y-88012497D01*
X240521011Y-88016456D01*
X240521011Y-88033218D01*
X240501009Y-88101339D01*
X240447353Y-88147832D01*
X240377079Y-88157936D01*
X240362400Y-88154925D01*
X240263312Y-88128375D01*
X240252519Y-88126472D01*
X240035475Y-88107483D01*
X240024525Y-88107483D01*
X239807481Y-88126472D01*
X239796688Y-88128375D01*
X239586239Y-88184764D01*
X239575947Y-88188510D01*
X239378489Y-88280586D01*
X239368994Y-88286069D01*
X239316952Y-88322509D01*
X239308576Y-88332988D01*
X239315644Y-88346434D01*
X241104287Y-90135077D01*
X241116062Y-90141507D01*
X241128077Y-90132211D01*
X241163931Y-90081006D01*
X241169414Y-90071511D01*
X241185529Y-90036951D01*
X241232446Y-89983666D01*
X241300723Y-89964205D01*
X241368683Y-89984747D01*
X241413919Y-90036951D01*
X241430151Y-90071762D01*
X241430154Y-90071767D01*
X241432477Y-90076749D01*
X241435634Y-90081257D01*
X241543088Y-90234717D01*
X241563802Y-90264300D01*
X241725700Y-90426198D01*
X241730208Y-90429355D01*
X241730211Y-90429357D01*
X241882771Y-90536181D01*
X241927099Y-90591638D01*
X241936500Y-90639394D01*
X241936500Y-91674000D01*
X241916498Y-91742121D01*
X241862842Y-91788614D01*
X241810500Y-91800000D01*
X240518032Y-91800000D01*
X240456950Y-91783634D01*
X240456795Y-91783938D01*
X240455363Y-91783208D01*
X240455362Y-91783208D01*
X240376195Y-91742870D01*
X240113393Y-91608966D01*
X240110453Y-91607468D01*
X239889453Y-91522634D01*
X239750652Y-91469353D01*
X239750650Y-91469352D01*
X239747562Y-91468167D01*
X239372099Y-91367562D01*
X239168207Y-91335268D01*
X238991424Y-91307268D01*
X238991416Y-91307267D01*
X238988176Y-91306754D01*
X238600000Y-91286411D01*
X238211824Y-91306754D01*
X238208584Y-91307267D01*
X238208576Y-91307268D01*
X237904137Y-91355487D01*
X237833726Y-91346387D01*
X237779412Y-91300665D01*
X237758439Y-91232837D01*
X237777466Y-91164438D01*
X237795331Y-91141943D01*
X237882247Y-91055027D01*
X237890537Y-91047483D01*
X237897018Y-91043370D01*
X237943659Y-90993702D01*
X237946413Y-90990861D01*
X237966134Y-90971140D01*
X237968612Y-90967945D01*
X237976318Y-90958923D01*
X238001158Y-90932471D01*
X238006586Y-90926691D01*
X238016346Y-90908938D01*
X238027199Y-90892415D01*
X238034753Y-90882676D01*
X238039613Y-90876411D01*
X238057176Y-90835827D01*
X238062383Y-90825197D01*
X238083695Y-90786430D01*
X238085666Y-90778753D01*
X238085668Y-90778748D01*
X238088732Y-90766812D01*
X238095138Y-90748100D01*
X238100034Y-90736787D01*
X238103181Y-90729515D01*
X238105937Y-90712119D01*
X238110097Y-90685851D01*
X238112504Y-90674230D01*
X238121528Y-90639081D01*
X238121528Y-90639080D01*
X238123500Y-90631400D01*
X238123500Y-90624116D01*
X238151765Y-90559303D01*
X238176119Y-90536958D01*
X238220243Y-90506062D01*
X239308493Y-90506062D01*
X239317789Y-90518077D01*
X239368994Y-90553931D01*
X239378489Y-90559414D01*
X239575947Y-90651490D01*
X239586239Y-90655236D01*
X239796688Y-90711625D01*
X239807481Y-90713528D01*
X240024525Y-90732517D01*
X240035475Y-90732517D01*
X240252519Y-90713528D01*
X240263312Y-90711625D01*
X240473761Y-90655236D01*
X240484053Y-90651490D01*
X240681511Y-90559414D01*
X240691006Y-90553931D01*
X240743048Y-90517491D01*
X240751424Y-90507012D01*
X240744356Y-90493566D01*
X240042812Y-89792022D01*
X240028868Y-89784408D01*
X240027035Y-89784539D01*
X240020420Y-89788790D01*
X239314923Y-90494287D01*
X239308493Y-90506062D01*
X238220243Y-90506062D01*
X238271989Y-90469829D01*
X238329789Y-90429357D01*
X238329792Y-90429355D01*
X238334300Y-90426198D01*
X238496198Y-90264300D01*
X238516913Y-90234717D01*
X238624366Y-90081257D01*
X238627523Y-90076749D01*
X238629846Y-90071767D01*
X238629849Y-90071762D01*
X238646081Y-90036951D01*
X238692998Y-89983666D01*
X238761275Y-89964205D01*
X238829235Y-89984747D01*
X238874471Y-90036951D01*
X238890586Y-90071511D01*
X238896069Y-90081006D01*
X238932509Y-90133048D01*
X238942988Y-90141424D01*
X238956434Y-90134356D01*
X239657978Y-89432812D01*
X239665592Y-89418868D01*
X239665461Y-89417035D01*
X239661210Y-89410420D01*
X238955713Y-88704923D01*
X238943938Y-88698493D01*
X238931923Y-88707789D01*
X238896069Y-88758994D01*
X238890586Y-88768489D01*
X238874471Y-88803049D01*
X238827554Y-88856334D01*
X238759277Y-88875795D01*
X238691317Y-88855253D01*
X238646081Y-88803049D01*
X238629849Y-88768238D01*
X238629846Y-88768233D01*
X238627523Y-88763251D01*
X238554098Y-88658389D01*
X238499357Y-88580211D01*
X238499355Y-88580208D01*
X238496198Y-88575700D01*
X238334300Y-88413802D01*
X238329792Y-88410645D01*
X238329789Y-88410643D01*
X238203920Y-88322509D01*
X238146749Y-88282477D01*
X238141767Y-88280154D01*
X238141762Y-88280151D01*
X237944225Y-88188039D01*
X237944224Y-88188039D01*
X237939243Y-88185716D01*
X237933935Y-88184294D01*
X237933933Y-88184293D01*
X237723402Y-88127881D01*
X237723400Y-88127881D01*
X237718087Y-88126457D01*
X237490000Y-88106502D01*
X237261913Y-88126457D01*
X237256608Y-88127879D01*
X237256594Y-88127881D01*
X237198461Y-88143459D01*
X237127484Y-88141771D01*
X237076752Y-88110848D01*
X236982361Y-88016456D01*
X236869136Y-87903231D01*
X236861602Y-87894952D01*
X236857489Y-87888471D01*
X236807837Y-87841845D01*
X236804996Y-87839091D01*
X236785259Y-87819354D01*
X236782062Y-87816874D01*
X236773040Y-87809169D01*
X236746589Y-87784330D01*
X236740810Y-87778903D01*
X236733864Y-87775084D01*
X236733861Y-87775082D01*
X236723055Y-87769141D01*
X236706536Y-87758290D01*
X236706072Y-87757930D01*
X236690530Y-87745875D01*
X236683261Y-87742730D01*
X236683257Y-87742727D01*
X236649952Y-87728315D01*
X236639302Y-87723098D01*
X236600549Y-87701794D01*
X236580926Y-87696756D01*
X236562223Y-87690352D01*
X236550909Y-87685456D01*
X236550908Y-87685456D01*
X236543634Y-87682308D01*
X236535811Y-87681069D01*
X236535801Y-87681066D01*
X236499965Y-87675390D01*
X236488345Y-87672984D01*
X236453200Y-87663961D01*
X236453199Y-87663961D01*
X236445519Y-87661989D01*
X236425265Y-87661989D01*
X236405554Y-87660438D01*
X236393375Y-87658509D01*
X236385546Y-87657269D01*
X236377654Y-87658015D01*
X236341528Y-87661430D01*
X236329670Y-87661989D01*
X229810084Y-87661989D01*
X229741963Y-87641987D01*
X229720989Y-87625084D01*
X217672111Y-75576206D01*
X217638085Y-75513894D01*
X217643150Y-75443079D01*
X217685697Y-75386243D01*
X217707955Y-75372917D01*
X217741105Y-75357459D01*
X217821758Y-75319851D01*
X217821764Y-75319847D01*
X217826749Y-75317523D01*
X217948620Y-75232188D01*
X218009789Y-75189357D01*
X218009792Y-75189355D01*
X218014300Y-75186198D01*
X218176198Y-75024300D01*
X218307523Y-74836749D01*
X218309846Y-74831767D01*
X218309849Y-74831762D01*
X218325805Y-74797543D01*
X218372722Y-74744258D01*
X218440999Y-74724797D01*
X218508959Y-74745339D01*
X218554195Y-74797543D01*
X218570151Y-74831762D01*
X218570154Y-74831767D01*
X218572477Y-74836749D01*
X218703802Y-75024300D01*
X218865700Y-75186198D01*
X218870208Y-75189355D01*
X218870211Y-75189357D01*
X218931380Y-75232188D01*
X219053251Y-75317523D01*
X219058233Y-75319846D01*
X219058238Y-75319849D01*
X219228825Y-75399394D01*
X219260757Y-75414284D01*
X219266065Y-75415706D01*
X219266067Y-75415707D01*
X219476598Y-75472119D01*
X219476600Y-75472119D01*
X219481913Y-75473543D01*
X219710000Y-75493498D01*
X219938087Y-75473543D01*
X219943400Y-75472119D01*
X219943402Y-75472119D01*
X220153933Y-75415707D01*
X220153935Y-75415706D01*
X220159243Y-75414284D01*
X220191175Y-75399394D01*
X220361762Y-75319849D01*
X220361767Y-75319846D01*
X220366749Y-75317523D01*
X220488620Y-75232188D01*
X220549789Y-75189357D01*
X220549792Y-75189355D01*
X220554300Y-75186198D01*
X220573052Y-75167446D01*
X220635364Y-75133420D01*
X220706179Y-75138485D01*
X220751242Y-75167446D01*
X221376043Y-75792247D01*
X221383587Y-75800537D01*
X221387700Y-75807018D01*
X221393477Y-75812443D01*
X221437367Y-75853658D01*
X221440209Y-75856413D01*
X221459930Y-75876134D01*
X221463125Y-75878612D01*
X221472147Y-75886318D01*
X221504379Y-75916586D01*
X221511328Y-75920406D01*
X221522132Y-75926346D01*
X221538656Y-75937199D01*
X221554659Y-75949613D01*
X221595243Y-75967176D01*
X221605873Y-75972383D01*
X221644640Y-75993695D01*
X221652317Y-75995666D01*
X221652322Y-75995668D01*
X221664258Y-75998732D01*
X221682966Y-76005137D01*
X221701555Y-76013181D01*
X221709380Y-76014420D01*
X221709382Y-76014421D01*
X221745219Y-76020097D01*
X221756840Y-76022504D01*
X221788659Y-76030673D01*
X221799670Y-76033500D01*
X221819931Y-76033500D01*
X221839640Y-76035051D01*
X221859643Y-76038219D01*
X221867535Y-76037473D01*
X221872762Y-76036979D01*
X221903654Y-76034059D01*
X221915511Y-76033500D01*
X222721233Y-76033500D01*
X222732416Y-76034027D01*
X222739909Y-76035702D01*
X222747835Y-76035453D01*
X222747836Y-76035453D01*
X222807986Y-76033562D01*
X222811945Y-76033500D01*
X222839856Y-76033500D01*
X222843791Y-76033003D01*
X222843856Y-76032995D01*
X222855693Y-76032062D01*
X222887951Y-76031048D01*
X222891970Y-76030922D01*
X222899889Y-76030673D01*
X222919343Y-76025021D01*
X222938700Y-76021013D01*
X222950930Y-76019468D01*
X222950931Y-76019468D01*
X222958797Y-76018474D01*
X222966168Y-76015555D01*
X222966170Y-76015555D01*
X222999912Y-76002196D01*
X223011142Y-75998351D01*
X223045983Y-75988229D01*
X223045984Y-75988229D01*
X223053593Y-75986018D01*
X223060412Y-75981985D01*
X223060417Y-75981983D01*
X223071028Y-75975707D01*
X223088776Y-75967012D01*
X223107617Y-75959552D01*
X223119485Y-75950930D01*
X223143387Y-75933564D01*
X223153307Y-75927048D01*
X223184535Y-75908580D01*
X223184538Y-75908578D01*
X223191362Y-75904542D01*
X223205683Y-75890221D01*
X223220717Y-75877380D01*
X223222432Y-75876134D01*
X223237107Y-75865472D01*
X223265298Y-75831395D01*
X223273288Y-75822616D01*
X223792247Y-75303657D01*
X223800537Y-75296113D01*
X223807018Y-75292000D01*
X223838771Y-75258186D01*
X223847259Y-75249148D01*
X223908472Y-75213182D01*
X223979412Y-75216021D01*
X224011380Y-75232188D01*
X224113500Y-75303693D01*
X224133251Y-75317523D01*
X224138233Y-75319846D01*
X224138238Y-75319849D01*
X224308825Y-75399394D01*
X224340757Y-75414284D01*
X224346065Y-75415706D01*
X224346067Y-75415707D01*
X224556598Y-75472119D01*
X224556600Y-75472119D01*
X224561913Y-75473543D01*
X224790000Y-75493498D01*
X225018087Y-75473543D01*
X225023400Y-75472119D01*
X225023402Y-75472119D01*
X225233933Y-75415707D01*
X225233935Y-75415706D01*
X225239243Y-75414284D01*
X225271175Y-75399394D01*
X225441762Y-75319849D01*
X225441767Y-75319846D01*
X225446749Y-75317523D01*
X225568620Y-75232188D01*
X225629789Y-75189357D01*
X225629792Y-75189355D01*
X225634300Y-75186198D01*
X225796198Y-75024300D01*
X225927523Y-74836749D01*
X225929846Y-74831767D01*
X225929849Y-74831762D01*
X225945805Y-74797543D01*
X225992722Y-74744258D01*
X226060999Y-74724797D01*
X226128959Y-74745339D01*
X226174195Y-74797543D01*
X226190151Y-74831762D01*
X226190154Y-74831767D01*
X226192477Y-74836749D01*
X226323802Y-75024300D01*
X226485700Y-75186198D01*
X226490208Y-75189355D01*
X226490211Y-75189357D01*
X226551380Y-75232188D01*
X226673251Y-75317523D01*
X226678233Y-75319846D01*
X226678238Y-75319849D01*
X226848825Y-75399394D01*
X226880757Y-75414284D01*
X226886065Y-75415706D01*
X226886067Y-75415707D01*
X227096598Y-75472119D01*
X227096600Y-75472119D01*
X227101913Y-75473543D01*
X227330000Y-75493498D01*
X227558087Y-75473543D01*
X227563400Y-75472119D01*
X227563402Y-75472119D01*
X227773933Y-75415707D01*
X227773935Y-75415706D01*
X227779243Y-75414284D01*
X227811175Y-75399394D01*
X227981762Y-75319849D01*
X227981767Y-75319846D01*
X227986749Y-75317523D01*
X228108620Y-75232188D01*
X228169789Y-75189357D01*
X228169792Y-75189355D01*
X228174300Y-75186198D01*
X228336198Y-75024300D01*
X228467523Y-74836749D01*
X228469846Y-74831767D01*
X228469849Y-74831762D01*
X228485805Y-74797543D01*
X228532722Y-74744258D01*
X228600999Y-74724797D01*
X228668959Y-74745339D01*
X228714195Y-74797543D01*
X228730151Y-74831762D01*
X228730154Y-74831767D01*
X228732477Y-74836749D01*
X228863802Y-75024300D01*
X229025700Y-75186198D01*
X229030208Y-75189355D01*
X229030211Y-75189357D01*
X229091380Y-75232188D01*
X229213251Y-75317523D01*
X229218233Y-75319846D01*
X229218238Y-75319849D01*
X229388825Y-75399394D01*
X229420757Y-75414284D01*
X229426065Y-75415706D01*
X229426067Y-75415707D01*
X229636598Y-75472119D01*
X229636600Y-75472119D01*
X229641913Y-75473543D01*
X229870000Y-75493498D01*
X230098087Y-75473543D01*
X230103400Y-75472119D01*
X230103402Y-75472119D01*
X230313933Y-75415707D01*
X230313935Y-75415706D01*
X230319243Y-75414284D01*
X230351175Y-75399394D01*
X230521762Y-75319849D01*
X230521767Y-75319846D01*
X230526749Y-75317523D01*
X230648620Y-75232188D01*
X230709789Y-75189357D01*
X230709792Y-75189355D01*
X230714300Y-75186198D01*
X230876198Y-75024300D01*
X231007523Y-74836749D01*
X231009846Y-74831767D01*
X231009849Y-74831762D01*
X231025805Y-74797543D01*
X231072722Y-74744258D01*
X231140999Y-74724797D01*
X231208959Y-74745339D01*
X231254195Y-74797543D01*
X231270151Y-74831762D01*
X231270154Y-74831767D01*
X231272477Y-74836749D01*
X231403802Y-75024300D01*
X231565700Y-75186198D01*
X231570208Y-75189355D01*
X231570211Y-75189357D01*
X231631380Y-75232188D01*
X231753251Y-75317523D01*
X231758233Y-75319846D01*
X231758238Y-75319849D01*
X231928825Y-75399394D01*
X231960757Y-75414284D01*
X231966065Y-75415706D01*
X231966067Y-75415707D01*
X232176598Y-75472119D01*
X232176600Y-75472119D01*
X232181913Y-75473543D01*
X232410000Y-75493498D01*
X232638087Y-75473543D01*
X232643400Y-75472119D01*
X232643402Y-75472119D01*
X232853933Y-75415707D01*
X232853935Y-75415706D01*
X232859243Y-75414284D01*
X232891175Y-75399394D01*
X233061762Y-75319849D01*
X233061767Y-75319846D01*
X233066749Y-75317523D01*
X233188620Y-75232188D01*
X233249789Y-75189357D01*
X233249792Y-75189355D01*
X233254300Y-75186198D01*
X233416198Y-75024300D01*
X233547523Y-74836749D01*
X233549846Y-74831767D01*
X233549849Y-74831762D01*
X233565805Y-74797543D01*
X233612722Y-74744258D01*
X233680999Y-74724797D01*
X233748959Y-74745339D01*
X233794195Y-74797543D01*
X233810151Y-74831762D01*
X233810154Y-74831767D01*
X233812477Y-74836749D01*
X233943802Y-75024300D01*
X234105700Y-75186198D01*
X234110208Y-75189355D01*
X234110211Y-75189357D01*
X234171380Y-75232188D01*
X234293251Y-75317523D01*
X234298233Y-75319846D01*
X234298238Y-75319849D01*
X234468825Y-75399394D01*
X234500757Y-75414284D01*
X234506065Y-75415706D01*
X234506067Y-75415707D01*
X234716598Y-75472119D01*
X234716600Y-75472119D01*
X234721913Y-75473543D01*
X234950000Y-75493498D01*
X235178087Y-75473543D01*
X235183400Y-75472119D01*
X235183402Y-75472119D01*
X235393933Y-75415707D01*
X235393935Y-75415706D01*
X235399243Y-75414284D01*
X235431175Y-75399394D01*
X235601762Y-75319849D01*
X235601767Y-75319846D01*
X235606749Y-75317523D01*
X235728620Y-75232188D01*
X235789789Y-75189357D01*
X235789792Y-75189355D01*
X235794300Y-75186198D01*
X235956198Y-75024300D01*
X236087523Y-74836749D01*
X236089846Y-74831767D01*
X236089849Y-74831762D01*
X236105805Y-74797543D01*
X236152722Y-74744258D01*
X236220999Y-74724797D01*
X236288959Y-74745339D01*
G37*
G04 #@! TD.AperFunction*
G04 #@! TA.AperFunction,Conductor*
G36*
X243200000Y-72746000D02*
G01*
X243179998Y-72814121D01*
X243126342Y-72860614D01*
X243074000Y-72872000D01*
X242842115Y-72872000D01*
X242826876Y-72876475D01*
X242825671Y-72877865D01*
X242824000Y-72885548D01*
X242824000Y-75469884D01*
X242828475Y-75485123D01*
X242829865Y-75486328D01*
X242837548Y-75487999D01*
X243074000Y-75487999D01*
X243142121Y-75508001D01*
X243188614Y-75561657D01*
X243200000Y-75613999D01*
X243200000Y-88072224D01*
X243179998Y-88140345D01*
X243126342Y-88186838D01*
X243056068Y-88196942D01*
X243029703Y-88189084D01*
X243029398Y-88189922D01*
X243024225Y-88188039D01*
X243019243Y-88185716D01*
X243013935Y-88184294D01*
X243013933Y-88184293D01*
X242803402Y-88127881D01*
X242803400Y-88127881D01*
X242798087Y-88126457D01*
X242570000Y-88106502D01*
X242341913Y-88126457D01*
X242336608Y-88127879D01*
X242336594Y-88127881D01*
X242278461Y-88143459D01*
X242207484Y-88141771D01*
X242156752Y-88110848D01*
X241998064Y-87952159D01*
X241824915Y-87779010D01*
X241790890Y-87716698D01*
X241788011Y-87689915D01*
X241788011Y-78233274D01*
X241788538Y-78222090D01*
X241790212Y-78214602D01*
X241788073Y-78146543D01*
X241788011Y-78142586D01*
X241788011Y-75614000D01*
X241808013Y-75545879D01*
X241861669Y-75499386D01*
X241914011Y-75488000D01*
X242297885Y-75488000D01*
X242313124Y-75483525D01*
X242314329Y-75482135D01*
X242316000Y-75474452D01*
X242316000Y-72890116D01*
X242311525Y-72874877D01*
X242310135Y-72873672D01*
X242302452Y-72872001D01*
X241914011Y-72872001D01*
X241845890Y-72851999D01*
X241799397Y-72798343D01*
X241788011Y-72746001D01*
X241788011Y-72194677D01*
X241808013Y-72126556D01*
X241824916Y-72105582D01*
X241886198Y-72044300D01*
X241891044Y-72037380D01*
X242014366Y-71861257D01*
X242017523Y-71856749D01*
X242019847Y-71851764D01*
X242019851Y-71851758D01*
X242021805Y-71847567D01*
X242068721Y-71794282D01*
X242136998Y-71774820D01*
X242204959Y-71795361D01*
X242251025Y-71849384D01*
X242262000Y-71900816D01*
X242262000Y-71942969D01*
X242262193Y-71947898D01*
X242264386Y-71975756D01*
X242266688Y-71988359D01*
X242308357Y-72131784D01*
X242314604Y-72146220D01*
X242389876Y-72273499D01*
X242399516Y-72285926D01*
X242504074Y-72390484D01*
X242516501Y-72400124D01*
X242643780Y-72475396D01*
X242658216Y-72481643D01*
X242801641Y-72523312D01*
X242809609Y-72524768D01*
X242823031Y-72521948D01*
X242826000Y-72510487D01*
X242826000Y-71694500D01*
X242846002Y-71626379D01*
X242899658Y-71579886D01*
X242952000Y-71568500D01*
X243200000Y-71568500D01*
X243200000Y-72746000D01*
G37*
G04 #@! TD.AperFunction*
G04 #@! TA.AperFunction,Conductor*
G36*
X218460641Y-70053502D02*
G01*
X218507134Y-70107158D01*
X218517238Y-70177432D01*
X218487744Y-70242012D01*
X218481615Y-70248595D01*
X218415829Y-70314381D01*
X218408773Y-70322789D01*
X218283814Y-70501249D01*
X218278331Y-70510745D01*
X218186255Y-70708203D01*
X218182509Y-70718495D01*
X218136351Y-70890759D01*
X218136687Y-70904855D01*
X218144629Y-70908256D01*
X219545745Y-70908256D01*
X219613866Y-70928258D01*
X219660359Y-70981914D01*
X219671745Y-71034256D01*
X219671745Y-72430223D01*
X219675718Y-72443754D01*
X219684267Y-72444983D01*
X219861506Y-72397492D01*
X219871798Y-72393746D01*
X220020484Y-72324412D01*
X220090675Y-72313751D01*
X220155488Y-72342731D01*
X220194345Y-72402150D01*
X220199734Y-72438607D01*
X220199734Y-72792359D01*
X220179732Y-72860480D01*
X220126076Y-72906973D01*
X220055802Y-72917077D01*
X220041122Y-72914065D01*
X219943409Y-72887882D01*
X219943398Y-72887880D01*
X219938087Y-72886457D01*
X219710000Y-72866502D01*
X219481913Y-72886457D01*
X219476602Y-72887880D01*
X219476591Y-72887882D01*
X219418459Y-72903459D01*
X219347483Y-72901770D01*
X219296752Y-72870848D01*
X219084044Y-72658140D01*
X219050018Y-72595828D01*
X219055083Y-72525013D01*
X219097630Y-72468177D01*
X219154312Y-72448559D01*
X219159643Y-72444951D01*
X219163745Y-72435372D01*
X219163745Y-71434371D01*
X219159270Y-71419132D01*
X219157880Y-71417927D01*
X219150197Y-71416256D01*
X218149778Y-71416256D01*
X218136247Y-71420229D01*
X218135601Y-71424723D01*
X218106108Y-71489303D01*
X218046381Y-71527686D01*
X217975385Y-71527686D01*
X217921790Y-71495886D01*
X216708652Y-70282747D01*
X216701112Y-70274461D01*
X216697000Y-70267982D01*
X216679288Y-70251349D01*
X216643323Y-70190136D01*
X216646162Y-70119197D01*
X216686903Y-70061053D01*
X216752611Y-70034165D01*
X216765542Y-70033500D01*
X218392520Y-70033500D01*
X218460641Y-70053502D01*
G37*
G04 #@! TD.AperFunction*
G04 #@! TA.AperFunction,Conductor*
G36*
X228584817Y-71605758D02*
G01*
X228622499Y-71643332D01*
X228629544Y-71654226D01*
X228638436Y-71658256D01*
X228916366Y-71658256D01*
X228980505Y-71675802D01*
X229008148Y-71692150D01*
X229015759Y-71694361D01*
X229015761Y-71694362D01*
X229059445Y-71707053D01*
X229165491Y-71737862D01*
X229171896Y-71738366D01*
X229171901Y-71738367D01*
X229199805Y-71740563D01*
X229199813Y-71740563D01*
X229202261Y-71740756D01*
X229673229Y-71740756D01*
X229675677Y-71740563D01*
X229675685Y-71740563D01*
X229703589Y-71738367D01*
X229703594Y-71738366D01*
X229709999Y-71737862D01*
X229816045Y-71707053D01*
X229859729Y-71694362D01*
X229859731Y-71694361D01*
X229867342Y-71692150D01*
X229894985Y-71675802D01*
X229959124Y-71658256D01*
X230231303Y-71658256D01*
X230246542Y-71653781D01*
X230267805Y-71629243D01*
X230327531Y-71590860D01*
X230363029Y-71585756D01*
X230437662Y-71585756D01*
X230505783Y-71605758D01*
X230526757Y-71622661D01*
X230855501Y-71951405D01*
X230889527Y-72013717D01*
X230884462Y-72084532D01*
X230841915Y-72141368D01*
X230775395Y-72166179D01*
X230766406Y-72166500D01*
X230252987Y-72166500D01*
X230245830Y-72166256D01*
X228626938Y-72166256D01*
X228625241Y-72166500D01*
X228173993Y-72166500D01*
X228105872Y-72146498D01*
X228059379Y-72092842D01*
X228049275Y-72022568D01*
X228070780Y-71968229D01*
X228117983Y-71900816D01*
X228175268Y-71819005D01*
X228177592Y-71814020D01*
X228177596Y-71814014D01*
X228250109Y-71658507D01*
X228297026Y-71605221D01*
X228364304Y-71585756D01*
X228516696Y-71585756D01*
X228584817Y-71605758D01*
G37*
G04 #@! TD.AperFunction*
G04 #@! TA.AperFunction,Conductor*
G36*
X232020180Y-70505758D02*
G01*
X232066673Y-70559414D01*
X232076777Y-70629688D01*
X232066254Y-70665006D01*
X232028510Y-70745947D01*
X232024764Y-70756239D01*
X231968375Y-70966688D01*
X231966472Y-70977480D01*
X231966443Y-70977808D01*
X231966390Y-70977944D01*
X231965516Y-70982900D01*
X231964520Y-70982724D01*
X231940580Y-71043926D01*
X231883077Y-71085566D01*
X231812190Y-71089507D01*
X231751827Y-71055922D01*
X231396756Y-70700851D01*
X231362730Y-70638539D01*
X231367795Y-70567724D01*
X231410342Y-70510888D01*
X231476862Y-70486077D01*
X231485851Y-70485756D01*
X231952059Y-70485756D01*
X232020180Y-70505758D01*
G37*
G04 #@! TD.AperFunction*
G04 #@! TA.AperFunction,Conductor*
G36*
X212914139Y-63301457D02*
G01*
X213040576Y-63376231D01*
X213047404Y-63380269D01*
X213055015Y-63382480D01*
X213055017Y-63382481D01*
X213145750Y-63408841D01*
X213203534Y-63425629D01*
X213209941Y-63426133D01*
X213209945Y-63426134D01*
X213237556Y-63428307D01*
X213237562Y-63428307D01*
X213240011Y-63428500D01*
X213439878Y-63428500D01*
X213639988Y-63428499D01*
X213676466Y-63425629D01*
X213773270Y-63397505D01*
X213824983Y-63382481D01*
X213824985Y-63382480D01*
X213832596Y-63380269D01*
X213839421Y-63376233D01*
X213839425Y-63376231D01*
X213885861Y-63348769D01*
X213954677Y-63331309D01*
X214014139Y-63348769D01*
X214060575Y-63376231D01*
X214060579Y-63376233D01*
X214067404Y-63380269D01*
X214075015Y-63382480D01*
X214075017Y-63382481D01*
X214165750Y-63408841D01*
X214223534Y-63425629D01*
X214229941Y-63426133D01*
X214229945Y-63426134D01*
X214257556Y-63428307D01*
X214257562Y-63428307D01*
X214260011Y-63428500D01*
X214340405Y-63428500D01*
X214408526Y-63448502D01*
X214429500Y-63465405D01*
X214529595Y-63565500D01*
X214563621Y-63627812D01*
X214566500Y-63654595D01*
X214566500Y-67801233D01*
X214565973Y-67812416D01*
X214564298Y-67819909D01*
X214564547Y-67827835D01*
X214564547Y-67827836D01*
X214566438Y-67887986D01*
X214566500Y-67891945D01*
X214566500Y-67919856D01*
X214566997Y-67923790D01*
X214566997Y-67923791D01*
X214567005Y-67923856D01*
X214567938Y-67935693D01*
X214569327Y-67979889D01*
X214574143Y-67996466D01*
X214574978Y-67999339D01*
X214578987Y-68018700D01*
X214581526Y-68038797D01*
X214584445Y-68046168D01*
X214584445Y-68046170D01*
X214597804Y-68079912D01*
X214601649Y-68091142D01*
X214607852Y-68112494D01*
X214613982Y-68133593D01*
X214618015Y-68140412D01*
X214618017Y-68140417D01*
X214624293Y-68151028D01*
X214632988Y-68168776D01*
X214640448Y-68187617D01*
X214645110Y-68194033D01*
X214645110Y-68194034D01*
X214666436Y-68223387D01*
X214672952Y-68233307D01*
X214689684Y-68261598D01*
X214695458Y-68271362D01*
X214709779Y-68285683D01*
X214722619Y-68300716D01*
X214734528Y-68317107D01*
X214740634Y-68322158D01*
X214768605Y-68345298D01*
X214777384Y-68353288D01*
X216216343Y-69792247D01*
X216223887Y-69800537D01*
X216228000Y-69807018D01*
X216233777Y-69812443D01*
X216233778Y-69812444D01*
X216245712Y-69823651D01*
X216281677Y-69884864D01*
X216278838Y-69955803D01*
X216238097Y-70013947D01*
X216172389Y-70040835D01*
X216159458Y-70041500D01*
X214913737Y-70041500D01*
X214845616Y-70021498D01*
X214824642Y-70004595D01*
X214797541Y-69977494D01*
X214784076Y-69969531D01*
X214664419Y-69898766D01*
X214664418Y-69898766D01*
X214657596Y-69894731D01*
X214649985Y-69892520D01*
X214649983Y-69892519D01*
X214524476Y-69856056D01*
X214501466Y-69849371D01*
X214495059Y-69848867D01*
X214495055Y-69848866D01*
X214467444Y-69846693D01*
X214467438Y-69846693D01*
X214464989Y-69846500D01*
X214265122Y-69846500D01*
X214065012Y-69846501D01*
X214028534Y-69849371D01*
X213957057Y-69870137D01*
X213880017Y-69892519D01*
X213880015Y-69892520D01*
X213872404Y-69894731D01*
X213865579Y-69898767D01*
X213865575Y-69898769D01*
X213819139Y-69926231D01*
X213750323Y-69943691D01*
X213690860Y-69926231D01*
X213650360Y-69902279D01*
X213601908Y-69850386D01*
X213588500Y-69793826D01*
X213588500Y-69455427D01*
X213608502Y-69387306D01*
X213649618Y-69347550D01*
X213652994Y-69345896D01*
X213834860Y-69216173D01*
X213901213Y-69150052D01*
X213989435Y-69062137D01*
X213993096Y-69058489D01*
X214014081Y-69029286D01*
X214120435Y-68881277D01*
X214123453Y-68877077D01*
X214155920Y-68811386D01*
X214220136Y-68681453D01*
X214220137Y-68681451D01*
X214222430Y-68676811D01*
X214287370Y-68463069D01*
X214316529Y-68241590D01*
X214316717Y-68233901D01*
X214318074Y-68178365D01*
X214318074Y-68178361D01*
X214318156Y-68175000D01*
X214299852Y-67952361D01*
X214245431Y-67735702D01*
X214156354Y-67530840D01*
X214094177Y-67434729D01*
X214037822Y-67347617D01*
X214037820Y-67347614D01*
X214035014Y-67343277D01*
X213884670Y-67178051D01*
X213880619Y-67174852D01*
X213880615Y-67174848D01*
X213713414Y-67042800D01*
X213713410Y-67042798D01*
X213709359Y-67039598D01*
X213701534Y-67035278D01*
X213553977Y-66953823D01*
X213513789Y-66931638D01*
X213508920Y-66929914D01*
X213508916Y-66929912D01*
X213308087Y-66858795D01*
X213308083Y-66858794D01*
X213303212Y-66857069D01*
X213298119Y-66856162D01*
X213298116Y-66856161D01*
X213088373Y-66818800D01*
X213088367Y-66818799D01*
X213083284Y-66817894D01*
X213009452Y-66816992D01*
X212865081Y-66815228D01*
X212865079Y-66815228D01*
X212859911Y-66815165D01*
X212639091Y-66848955D01*
X212426756Y-66918357D01*
X212228607Y-67021507D01*
X212224474Y-67024610D01*
X212224471Y-67024612D01*
X212054100Y-67152530D01*
X212049965Y-67155635D01*
X212022072Y-67184823D01*
X211932462Y-67278595D01*
X211895629Y-67317138D01*
X211788201Y-67474621D01*
X211733293Y-67519621D01*
X211662768Y-67527792D01*
X211599021Y-67496538D01*
X211578324Y-67472054D01*
X211497822Y-67347617D01*
X211497820Y-67347614D01*
X211495014Y-67343277D01*
X211344670Y-67178051D01*
X211340619Y-67174852D01*
X211340615Y-67174848D01*
X211173414Y-67042800D01*
X211173410Y-67042798D01*
X211169359Y-67039598D01*
X211161534Y-67035278D01*
X211013977Y-66953823D01*
X210973789Y-66931638D01*
X210968920Y-66929914D01*
X210968916Y-66929912D01*
X210768087Y-66858795D01*
X210768083Y-66858794D01*
X210763212Y-66857069D01*
X210758119Y-66856162D01*
X210758116Y-66856161D01*
X210548373Y-66818800D01*
X210548367Y-66818799D01*
X210543284Y-66817894D01*
X210450398Y-66816759D01*
X210382615Y-66815931D01*
X210314743Y-66795098D01*
X210268909Y-66740878D01*
X210259665Y-66670486D01*
X210289945Y-66606270D01*
X210295059Y-66600845D01*
X211632247Y-65263657D01*
X211640537Y-65256113D01*
X211647018Y-65252000D01*
X211655964Y-65242474D01*
X211693658Y-65202333D01*
X211696413Y-65199491D01*
X211716135Y-65179769D01*
X211718612Y-65176576D01*
X211726317Y-65167555D01*
X211751159Y-65141100D01*
X211756586Y-65135321D01*
X211760407Y-65128371D01*
X211766346Y-65117568D01*
X211777202Y-65101041D01*
X211784757Y-65091302D01*
X211784758Y-65091300D01*
X211789614Y-65085040D01*
X211807174Y-65044460D01*
X211812391Y-65033812D01*
X211829875Y-65002009D01*
X211829876Y-65002007D01*
X211833695Y-64995060D01*
X211838733Y-64975437D01*
X211845137Y-64956734D01*
X211850033Y-64945420D01*
X211850033Y-64945419D01*
X211853181Y-64938145D01*
X211854420Y-64930322D01*
X211854423Y-64930312D01*
X211860099Y-64894476D01*
X211862505Y-64882856D01*
X211871528Y-64847711D01*
X211871528Y-64847710D01*
X211873500Y-64840030D01*
X211873500Y-64819776D01*
X211875051Y-64800065D01*
X211876980Y-64787886D01*
X211878220Y-64780057D01*
X211874059Y-64736038D01*
X211873500Y-64724181D01*
X211873500Y-63548657D01*
X211893502Y-63480536D01*
X211947158Y-63434043D01*
X212020897Y-63424863D01*
X212023534Y-63425629D01*
X212029941Y-63426133D01*
X212029945Y-63426134D01*
X212057556Y-63428307D01*
X212057562Y-63428307D01*
X212060011Y-63428500D01*
X212259878Y-63428500D01*
X212459988Y-63428499D01*
X212496466Y-63425629D01*
X212593270Y-63397505D01*
X212644983Y-63382481D01*
X212644985Y-63382480D01*
X212652596Y-63380269D01*
X212659424Y-63376231D01*
X212785861Y-63301457D01*
X212854678Y-63283998D01*
X212914139Y-63301457D01*
G37*
G04 #@! TD.AperFunction*
M02*
