G04 #@! TF.GenerationSoftware,KiCad,Pcbnew,(6.0.5)*
G04 #@! TF.CreationDate,2022-06-14T17:18:27+02:00*
G04 #@! TF.ProjectId,midiperformer,6d696469-7065-4726-966f-726d65722e6b,rev?*
G04 #@! TF.SameCoordinates,Original*
G04 #@! TF.FileFunction,Legend,Bot*
G04 #@! TF.FilePolarity,Positive*
%FSLAX46Y46*%
G04 Gerber Fmt 4.6, Leading zero omitted, Abs format (unit mm)*
G04 Created by KiCad (PCBNEW (6.0.5)) date 2022-06-14 17:18:27*
%MOMM*%
%LPD*%
G01*
G04 APERTURE LIST*
%ADD10C,0.150000*%
%ADD11R,1.700000X1.700000*%
%ADD12O,1.700000X1.700000*%
%ADD13R,1.600000X1.600000*%
%ADD14C,1.600000*%
%ADD15O,1.600000X1.600000*%
%ADD16C,6.400000*%
G04 APERTURE END LIST*
D10*
X236038095Y-75599047D02*
X239466666Y-80741904D01*
X234704761Y-79789523D02*
X234704761Y-75789523D01*
X232419047Y-79789523D02*
X234133333Y-77503809D01*
X232419047Y-75789523D02*
X234704761Y-78075238D01*
X230704761Y-79789523D02*
X230704761Y-75789523D01*
X226514285Y-79408571D02*
X226704761Y-79599047D01*
X227276190Y-79789523D01*
X227657142Y-79789523D01*
X228228571Y-79599047D01*
X228609523Y-79218095D01*
X228800000Y-78837142D01*
X228990476Y-78075238D01*
X228990476Y-77503809D01*
X228800000Y-76741904D01*
X228609523Y-76360952D01*
X228228571Y-75980000D01*
X227657142Y-75789523D01*
X227276190Y-75789523D01*
X226704761Y-75980000D01*
X226514285Y-76170476D01*
X224800000Y-79789523D02*
X224800000Y-75789523D01*
X222514285Y-79789523D02*
X224228571Y-77503809D01*
X222514285Y-75789523D02*
X224800000Y-78075238D01*
X237752380Y-86229523D02*
X237752380Y-83562857D01*
X237752380Y-84324761D02*
X237561904Y-83943809D01*
X237371428Y-83753333D01*
X236990476Y-83562857D01*
X236609523Y-83562857D01*
X233752380Y-86039047D02*
X234133333Y-86229523D01*
X234895238Y-86229523D01*
X235276190Y-86039047D01*
X235466666Y-85658095D01*
X235466666Y-84134285D01*
X235276190Y-83753333D01*
X234895238Y-83562857D01*
X234133333Y-83562857D01*
X233752380Y-83753333D01*
X233561904Y-84134285D01*
X233561904Y-84515238D01*
X235466666Y-84896190D01*
X232228571Y-83562857D02*
X231276190Y-86229523D01*
X230323809Y-83562857D01*
X225942857Y-82610476D02*
X225752380Y-82420000D01*
X225371428Y-82229523D01*
X224419047Y-82229523D01*
X224038095Y-82420000D01*
X223847619Y-82610476D01*
X223657142Y-82991428D01*
X223657142Y-83372380D01*
X223847619Y-83943809D01*
X226133333Y-86229523D01*
X223657142Y-86229523D01*
%LPC*%
D11*
X207875000Y-68175000D03*
D12*
X210415000Y-68175000D03*
X212955000Y-68175000D03*
D11*
X209475000Y-60175000D03*
D12*
X212015000Y-60175000D03*
X214555000Y-60175000D03*
D11*
X212400000Y-97400000D03*
D12*
X214940000Y-97400000D03*
D11*
X221600000Y-60200000D03*
D12*
X224140000Y-60200000D03*
X226680000Y-60200000D03*
D11*
X201300001Y-89340000D03*
D12*
X203840001Y-89340000D03*
X201300001Y-86800000D03*
X203840001Y-86800000D03*
X201300001Y-84260000D03*
X203840001Y-84260000D03*
X201300001Y-81720000D03*
X203840001Y-81720000D03*
X201300001Y-79180000D03*
X203840001Y-79180000D03*
X201300001Y-76640000D03*
X203840001Y-76640000D03*
X201300001Y-74100000D03*
X203840001Y-74100000D03*
X201300001Y-71560000D03*
X203840001Y-71560000D03*
D13*
X242570000Y-74180000D03*
D14*
X240030000Y-74180000D03*
X237490000Y-74180000D03*
X234950000Y-74180000D03*
X232410000Y-74180000D03*
X229870000Y-74180000D03*
X227330000Y-74180000D03*
X224790000Y-74180000D03*
X222250000Y-74180000D03*
X219710000Y-74180000D03*
X217170000Y-74180000D03*
X214630000Y-74180000D03*
X212090000Y-74180000D03*
X209550000Y-74180000D03*
X209550000Y-89420000D03*
X212090000Y-89420000D03*
X214630000Y-89420000D03*
X217170000Y-89420000D03*
X219710000Y-89420000D03*
X222250000Y-89420000D03*
X224790000Y-89420000D03*
X227330000Y-89420000D03*
X229870000Y-89420000D03*
X232410000Y-89420000D03*
X234950000Y-89420000D03*
X237490000Y-89420000D03*
X240030000Y-89420000D03*
X242570000Y-89420000D03*
D11*
X234860000Y-60342256D03*
D12*
X237400000Y-60342256D03*
X239940000Y-60342256D03*
D13*
X240880000Y-63580000D03*
D15*
X238340000Y-63580000D03*
X235800000Y-63580000D03*
X233260000Y-63580000D03*
X233260000Y-71200000D03*
X235800000Y-71200000D03*
X238340000Y-71200000D03*
X240880000Y-71200000D03*
D16*
X238600000Y-95000000D03*
D11*
X202075000Y-97575000D03*
D12*
X204615000Y-97575000D03*
X207155000Y-97575000D03*
D16*
X203800000Y-63600000D03*
D11*
X221000000Y-95000000D03*
D12*
X221000000Y-97540000D03*
D13*
X227037745Y-63542256D03*
D15*
X224497745Y-63542256D03*
X221957745Y-63542256D03*
X219417745Y-63542256D03*
X219417745Y-71162256D03*
X221957745Y-71162256D03*
X224497745Y-71162256D03*
X227037745Y-71162256D03*
M02*
