M48
; DRILL file {KiCad (6.0.5)} date Sun Jul 17 18:42:08 2022
; FORMAT={-:-/ absolute / inch / decimal}
; #@! TF.CreationDate,2022-07-17T18:42:08+02:00
; #@! TF.GenerationSoftware,Kicad,Pcbnew,(6.0.5)
; #@! TF.FileFunction,Plated,1,2,PTH
FMAT,2
INCH
; #@! TA.AperFunction,Plated,PTH,ViaDrill
T1C0.0157
; #@! TA.AperFunction,Plated,PTH,ComponentDrill
T2C0.0197
; #@! TA.AperFunction,Plated,PTH,ComponentDrill
T3C0.0236
; #@! TA.AperFunction,Plated,PTH,ViaDrill
T4C0.0315
; #@! TA.AperFunction,Plated,PTH,ComponentDrill
T5C0.0315
; #@! TA.AperFunction,Plated,PTH,ComponentDrill
T6C0.0394
; #@! TA.AperFunction,Plated,PTH,ComponentDrill
T7C0.0433
; #@! TA.AperFunction,Plated,PTH,ComponentDrill
T8C0.0472
; #@! TA.AperFunction,Plated,PTH,ComponentDrill
T9C0.0492
; #@! TA.AperFunction,Plated,PTH,ComponentDrill
T10C0.0787
; #@! TA.AperFunction,Plated,PTH,ComponentDrill
T11C0.1260
; #@! TA.AperFunction,Plated,PTH,ComponentDrill
T12C0.1661
%
G90
G05
T1
X2.2511Y-2.1401
X2.5975Y-3.4275
X2.6369Y-2.5614
X2.8179Y-2.9186
X2.8692Y-3.7267
X2.8731Y-4.0338
X2.9203Y-2.1283
X2.9282Y-3.648
X2.9754Y-3.206
X3.0601Y-3.5259
X3.066Y-3.4039
X3.0975Y-4.0327
X3.1959Y-3.5456
X3.2943Y-4.8831
X3.3259Y-3.4236
X3.3439Y-4.6666
X3.377Y-3.3212
X3.4168Y-3.5236
X3.4469Y-2.6257
X3.4715Y-3.1283
X3.4955Y-4.1047
X3.503Y-3.6784
X3.5073Y-2.8645
X3.5188Y-2.2937
X3.5227Y-2.4275
X3.5306Y-2.1401
X3.5424Y-3.0335
X3.5503Y-5.2425
X3.5703Y-3.4177
X3.5735Y-4.7853
X3.5739Y-4.6637
X3.5768Y-4.4265
X3.5896Y-4.0839
X3.6057Y-3.5771
X3.6408Y-2.7776
X3.6605Y-3.3091
X3.6924Y-3.4393
X3.7196Y-2.6126
X3.7826Y-3.1952
X3.7868Y-3.2504
X3.7943Y-4.8949
X3.8175Y-4.1858
X3.8223Y-3.1598
X3.8735Y-3.1519
X3.8927Y-3.8674
X3.8931Y-3.4511
X3.8967Y-3.0532
X3.917Y-3.4194
X3.9222Y-3.9583
X3.9406Y-3.3879
X3.9408Y-2.9916
X3.9479Y-3.8123
X3.9479Y-5.1548
X3.9636Y-4.5564
X3.9715Y-2.6637
X3.9758Y-3.0511
X4.0345Y-2.2622
X4.07Y-2.3763
X4.1014Y-2.5771
X4.1329Y-3.4196
X4.1369Y-2.6952
X4.1822Y-3.2011
X4.2274Y-2.3606
X4.2314Y-1.9866
X4.2511Y-3.0535
X4.2632Y-3.9787
X4.2707Y-2.6244
X4.2747Y-3.4393
X4.275Y-3.8527
X4.2983Y-4.9737
X4.3062Y-3.0299
X4.3262Y-4.0181
X4.3284Y-3.8387
X4.3774Y-3.8488
X4.3849Y-2.148
X4.3853Y-4.0142
X4.4124Y-2.706
X4.4184Y-2.3153
X4.4361Y-3.0496
X4.451Y-3.9226
X4.4597Y-3.2149
X4.4715Y-2.8882
X4.5227Y-3.0063
X4.5227Y-3.4157
X4.5778Y-3.7149
X4.5936Y-2.8842
X4.6093Y-3.0614
X4.6329Y-2.5141
X4.6599Y-3.2143
X4.7235Y-3.77
X4.7274Y-1.9826
X4.74Y-3.0791
X4.7766Y-3.2478
X4.8022Y-3.4354
X4.8062Y-2.6834
X4.8731Y-3.6244
X4.9007Y-3.2543
X4.9676Y-4.9658
X4.9676Y-4.6874
X4.9991Y-3.3803
X5.007Y-2.2228
X5.0188Y-3.0614
X5.0188Y-3.6165
X5.1172Y-2.7346
X5.1211Y-2.0378
X5.1487Y-4.8409
X5.192Y-2.5614
X5.1959Y-4.5693
X5.2038Y-2.274
X5.2077Y-4.3527
X5.2156Y-4.2622
X5.2196Y-2.7189
X5.2196Y-4.1559
X5.2199Y-2.6086
X5.2314Y-2.3842
X5.2392Y-2.2307
X5.3081Y-2.6354
X5.3179Y-5.1508
X5.3219Y-4.1126
X5.3495Y-2.522
X5.3498Y-3.0732
X5.3656Y-2.7322
X5.3695Y-3.3252
X5.377Y-3.0303
X5.3889Y-2.211
X5.3947Y-2.3548
X5.3947Y-2.4138
X5.3967Y-2.2779
X5.4125Y-2.8862
X5.4164Y-4.8291
X5.4322Y-2.4905
X5.444Y-3.3882
X5.4479Y-4.9776
X5.4479Y-5.1351
X5.4518Y-2.9945
X5.4715Y-2.3882
X5.4794Y-1.896
X5.4932Y-2.209
X5.499Y-4.9501
X5.5033Y-2.3018
X5.5036Y-2.7903
X5.5067Y-5.1274
X5.5191Y-2.3488
X5.5227Y-2.8842
X5.5306Y-4.6677
X5.5502Y-4.3477
X5.5599Y-2.0452
X5.5661Y-3.7343
X5.5699Y-5.0721
X5.5835Y-5.1491
X5.59Y-2.7244
X5.5935Y-4.269
X5.5937Y-2.2661
X5.5939Y-2.7893
X5.5939Y-3.7622
X5.5979Y-3.707
X5.6132Y-5.0249
X5.6176Y-2.4196
X5.619Y-5.1322
X5.6251Y-3.6165
X5.6369Y-2.0968
X5.6372Y-2.8291
X5.6451Y-2.5811
X5.6451Y-2.7598
X5.6526Y-4.8949
X5.6648Y-2.4415
X5.6782Y-2.0791
X5.6809Y-2.6724
X5.6872Y-2.8378
X5.7235Y-4.5012
X5.7274Y-4.1508
X5.7353Y-4.4107
X5.7471Y-5.0879
X5.7629Y-4.9551
X5.8101Y-4.2886
X5.8183Y-2.9567
X5.8613Y-1.5417
X5.8927Y-4.6705
X5.9128Y-1.4921
X5.9286Y-1.8803
X5.9321Y-5.3713
X5.9361Y-4.9265
X5.9637Y-3.5771
X5.9754Y-4.5445
X5.9754Y-5.1036
X5.9951Y-5.2099
X6.0073Y-3.1378
X6.0467Y-3.463
X6.0502Y-4.706
X6.0502Y-4.8359
X6.1014Y-3.5338
X6.1136Y-3.7622
X6.1254Y-1.5
X6.153Y-3.7346
X6.1565Y-4.9186
X6.1727Y-3.6952
X6.1762Y-5.2099
X6.1845Y-1.9708
X6.192Y-2.4551
X6.1926Y-2.581
X6.2116Y-5.1902
X6.2117Y-1.522
X6.2117Y-2.833
X6.2195Y-4.7532
X6.2235Y-2.7582
X6.2278Y-3.3543
X6.2313Y-4.9343
X6.2471Y-5.1036
X6.2632Y-2.3543
X6.2707Y-2.4275
X6.2786Y-2.5023
X6.2808Y-2.0732
X6.2904Y-2.7189
X6.3062Y-2.5889
X6.3101Y-5.017
X6.3101Y-5.0997
X6.3258Y-2.3976
X6.3298Y-5.3831
X6.3301Y-1.9905
X6.3356Y-3.1275
X6.3377Y-2.6874
X6.3459Y-1.7756
X6.3523Y-3.7199
X6.3573Y-4.9028
X6.3613Y-5.0445
X6.3613Y-5.0997
X6.3632Y-5.2119
X6.3723Y-3.0803
X6.377Y-2.8448
X6.3786Y-3.4504
X6.3892Y-1.9708
X6.3928Y-3.2228
X6.4089Y-2.4724
X6.4207Y-3.2582
X6.4243Y-1.9
X6.4243Y-2.9
X6.4247Y-3.0685
X6.4522Y-2.3645
X6.4597Y-5.143
X6.4601Y-2.0693
X6.464Y-3.2661
X6.4794Y-5.1942
X6.4837Y-2.3015
X6.5113Y-2.2464
X6.5113Y-3.2622
X6.5148Y-1.8055
X6.5305Y-5.1942
X6.5388Y-2.8027
X6.5388Y-2.3015
X6.5424Y-4.9107
X6.5463Y-5.2768
X6.5503Y-3.5378
X6.5546Y-2.0968
X6.5624Y-3.3842
X6.5664Y-2.2661
X6.5857Y-5.1272
X6.5857Y-3.959
X6.6057Y-1.9866
X6.6254Y-2.2189
X6.6294Y-3.3015
X6.6325Y-3.5338
X6.6353Y-2.8504
X6.6408Y-4.6834
X6.6487Y-4.1351
X6.6684Y-1.9
X6.688Y-3.6902
X6.7117Y-3.6322
X6.7217Y-1.8004
X6.7553Y-1.9945
X6.7611Y-2.3133
X6.8341Y-1.9866
X6.8604Y-2.253
X6.877Y-3.8685
X6.8809Y-5.1115
X6.8889Y-4.2937
X6.8928Y-3.4787
X6.8967Y-3.648
X6.8971Y-2.8173
X6.9089Y-2.3543
X6.9168Y-3.0275
X6.9313Y-4.0031
X6.9443Y-3.5496
X6.9601Y-1.2149
X6.964Y-1.5259
X6.9687Y-2.7114
X6.9798Y-2.1574
X7.003Y-4.522
X7.034Y-4.3572
X7.1054Y-4.6716
X7.1766Y-3.0472
X7.1924Y-2.3661
X7.1951Y-4.2669
X7.2042Y-2.1716
X7.2116Y-4.9186
X7.216Y-3.3055
X7.2353Y-2.3172
X7.2396Y-2.6007
X7.2435Y-1.959
X7.2475Y-3.1417
X7.2514Y-2.833
X7.2553Y-2.9748
X7.2746Y-5.1548
X7.2826Y-3.6362
X7.2904Y-2.1441
X7.2908Y-2.5299
X7.3062Y-3.7543
X7.3105Y-2.0102
X7.3223Y-2.4433
X7.3223Y-2.9984
X7.3416Y-4.3871
X7.3574Y-2.5338
X7.3695Y-2.37
X7.3889Y-3.0607
X7.3928Y-2.2779
X7.3988Y-3.1835
X7.4164Y-2.8803
X7.4286Y-2.4905
X7.4286Y-3.2464
X7.431Y-3.1378
X7.4325Y-2.3763
X7.4363Y-3.1992
X7.4518Y-2.8173
X7.4518Y-4.9265
X7.4601Y-2.1598
X7.4676Y-3.0811
X7.4794Y-3.5299
X7.4833Y-3.0299
X7.4836Y-3.2462
X7.4837Y-2.7795
X7.4951Y-3.1559
X7.503Y-3.3055
X7.5031Y-3.388
X7.5087Y-1.7915
X7.5106Y-5.155
X7.5149Y-1.9696
X7.5188Y-2.9826
X7.5191Y-2.4803
X7.5384Y-5.076
X7.562Y-4.6548
X7.5624Y-3.0472
X7.5664Y-1.8819
X7.5699Y-4.4461
X7.5742Y-2.7283
X7.5742Y-2.8385
X7.5821Y-2.5378
X7.7117Y-5.1126
X7.7156Y-5.337
X7.7392Y-3.6047
X7.9912Y-5.0712
X8.0896Y-5.1106
X8.4046Y-1.5181
X8.4637Y-1.4689
X8.4637Y-5.0712
X8.503Y-1.4196
X8.631Y-1.3015
X9.0247Y-5.1106
X9.2904Y-1.4393
X9.3692Y-1.4196
X9.5236Y-5.2385
X9.8484Y-5.1007
X10.3799Y-5.1795
X10.7244Y-5.1007
X11.2362Y-5.1893
X11.5905Y-5.1007
X11.8692Y-1.5279
X11.9479Y-1.5082
X12.122Y-5.2385
X12.424Y-5.1303
X12.7944Y-1.3901
X12.9518Y-1.3704
X12.9555Y-5.1401
T2
X2.3062Y-1.8921
X2.3338Y-1.8253
X2.3338Y-1.9589
X2.4007Y-1.7976
X2.4007Y-1.9866
X2.4675Y-1.8253
X2.4675Y-1.9589
X2.4951Y-1.8921
X4.3022Y-4.5338
X4.3299Y-4.467
X4.3299Y-4.6006
X4.3967Y-4.4393
X4.3967Y-4.6283
X4.4635Y-4.467
X4.4635Y-4.6006
X4.4912Y-4.5338
X6.5857Y-3.1441
X6.6134Y-3.0772
X6.6134Y-3.2109
X6.6802Y-3.0496
X6.6802Y-3.2385
X6.747Y-3.0772
X6.747Y-3.2109
X6.7747Y-3.1441
X6.9754Y-5.2453
X7.0031Y-5.1785
X7.0031Y-5.3121
X7.0699Y-5.1508
X7.0699Y-5.3398
X7.1367Y-5.1785
X7.1367Y-5.3121
X7.1644Y-5.2453
T4
X3.255Y-3.0378
X3.3101Y-3.1007
X3.3259Y-2.959
X3.7983Y-2.1086
X3.8339Y-2.3744
X3.8574Y-2.148
X3.8967Y-2.1086
X3.8969Y-2.4059
X3.9558Y-2.148
T5
X3.1085Y-3.6433
X3.1085Y-3.7433
X3.1085Y-3.8433
X3.1085Y-3.9433
X3.4085Y-3.6433
X3.4085Y-3.7433
X3.4085Y-3.8433
X3.4085Y-3.9433
X4.5522Y-2.3326
X4.5522Y-2.6326
X4.6522Y-2.3326
X4.6522Y-2.6326
X4.7522Y-2.3326
X4.7522Y-2.6326
X4.8522Y-2.3326
X4.8522Y-2.6326
X4.9522Y-2.3326
X4.9522Y-2.6326
X4.9652Y-3.1828
X4.9652Y-3.4828
X5.0522Y-2.3326
X5.0522Y-2.6326
X5.0652Y-3.1828
X5.0652Y-3.4828
X5.1652Y-3.1828
X5.1652Y-3.4828
X5.2652Y-3.1828
X5.2652Y-3.4828
X5.5164Y-3.1828
X5.5164Y-3.4828
X5.6164Y-3.1828
X5.6164Y-3.4828
X5.7164Y-3.1828
X5.7164Y-3.4828
X5.8164Y-3.1828
X5.8164Y-3.4828
T6
X2.3022Y-5.2779
X2.566Y-5.2779
X2.8219Y-5.2779
X2.9916Y-2.5945
X2.9951Y-2.7267
X3.007Y-5.274
X3.4125Y-5.274
X3.6998Y-4.8201
X3.6998Y-4.9201
X3.6998Y-5.0201
X3.6998Y-5.1201
X3.6998Y-5.2201
X3.6998Y-5.3201
X3.8179Y-2.9745
X4.1117Y-3.3015
X4.1156Y-3.6086
X4.2117Y-3.3015
X4.2156Y-3.6086
X4.3117Y-3.3015
X4.3156Y-3.6086
X4.3692Y-2.4039
X4.3692Y-2.5039
X4.4117Y-3.3015
X4.4156Y-3.6086
X4.5117Y-3.3015
X4.5156Y-3.6086
X4.6117Y-3.3015
X4.6156Y-3.6086
X4.7117Y-3.3015
X4.7156Y-3.6086
X5.4233Y-4.2102
X5.4233Y-4.3102
X5.4233Y-4.4102
X5.4233Y-4.5102
X7.0782Y-1.5795
X7.0782Y-1.6795
X7.0782Y-1.7795
X7.0782Y-1.8795
X7.0782Y-1.9795
X7.0782Y-2.0795
X7.0782Y-2.1795
X7.0782Y-2.2795
X7.0782Y-2.3795
X7.0782Y-2.4795
X7.0782Y-2.5795
X7.0782Y-2.6795
X7.0782Y-2.7795
X7.0782Y-2.8795
X7.0782Y-2.9795
X7.0782Y-3.0795
X7.0782Y-3.1795
X7.0782Y-3.2795
X7.0782Y-3.3795
X7.0782Y-3.4795
X7.2483Y-4.5496
X7.3483Y-4.5496
X7.4483Y-4.5496
X7.5483Y-4.5496
X7.6368Y-4.8201
X7.6368Y-4.9201
X7.6368Y-5.0201
X7.6368Y-5.1201
X7.6368Y-5.2201
X7.6368Y-5.3201
X7.6782Y-1.5795
X7.6782Y-1.6795
X7.6782Y-1.7795
X7.6782Y-1.8795
X7.6782Y-1.9795
X7.6782Y-2.0795
X7.6782Y-2.1795
X7.6782Y-2.2795
X7.6782Y-2.3795
X7.6782Y-2.4795
X7.6782Y-2.5795
X7.6782Y-2.6795
X7.6782Y-2.7795
X7.6782Y-2.8795
X7.6782Y-2.9795
X7.6782Y-3.0795
X7.6782Y-3.1795
X7.6782Y-3.2795
X7.6782Y-3.3795
X7.6782Y-3.4795
X8.0354Y-1.3015
X8.0393Y-5.2385
X8.1354Y-1.3015
X8.1393Y-5.2385
X8.2354Y-1.3015
X8.2393Y-5.2385
X8.3354Y-1.3015
X8.3393Y-5.2385
X8.4354Y-1.3015
X8.4393Y-5.2385
X8.5354Y-1.3015
X8.5393Y-5.2385
X8.8967Y-1.3015
X8.8967Y-5.2385
X8.9967Y-1.3015
X8.9967Y-5.2385
X9.0967Y-1.3015
X9.0967Y-5.2385
X9.1967Y-1.3015
X9.1967Y-5.2385
X9.2967Y-1.3015
X9.2967Y-5.2385
X9.3967Y-1.3015
X9.3967Y-5.2385
X9.7629Y-1.3015
X9.7629Y-5.2385
X9.8629Y-1.3015
X9.8629Y-5.2385
X9.9629Y-1.3015
X9.9629Y-5.2385
X10.0629Y-1.3015
X10.0629Y-5.2385
X10.1629Y-1.3015
X10.1629Y-5.2385
X10.2629Y-1.3015
X10.2629Y-5.2385
X10.629Y-1.3015
X10.629Y-5.2385
X10.729Y-1.3015
X10.729Y-5.2385
X10.829Y-1.3015
X10.829Y-5.2385
X10.929Y-1.3015
X10.929Y-5.2385
X11.029Y-1.3015
X11.029Y-5.2385
X11.129Y-1.3015
X11.129Y-5.2385
X11.4951Y-1.3015
X11.4951Y-5.2385
X11.5951Y-1.3015
X11.5951Y-5.2385
X11.6951Y-1.3015
X11.6951Y-5.2385
X11.7951Y-1.3015
X11.7951Y-5.2385
X11.8951Y-1.3015
X11.8951Y-5.2385
X11.9951Y-1.3015
X11.9951Y-5.2385
X12.3613Y-1.3015
X12.3613Y-5.2385
X12.4613Y-1.3015
X12.4613Y-5.2385
X12.5613Y-1.3015
X12.5613Y-5.2385
X12.6613Y-1.3015
X12.6613Y-5.2385
X12.7613Y-1.3015
X12.7613Y-5.2385
X12.8613Y-1.3015
X12.8613Y-5.2385
T7
X5.9361Y-4.0456
X5.9361Y-4.1441
X5.9361Y-4.2425
X6.507Y-4.0456
X6.507Y-4.2425
T8
X2.4007Y-2.1834
X2.4007Y-2.2819
X2.4007Y-2.3803
X2.4991Y-2.1834
X2.4991Y-2.2819
X2.4991Y-2.3803
X2.7451Y-2.1834
X2.7451Y-2.3803
T9
X2.3318Y-4.2346
X2.3318Y-4.4315
X2.3318Y-4.7661
X2.3318Y-4.963
X2.8239Y-4.2346
X2.8239Y-4.4315
X2.8239Y-4.7661
X2.8239Y-4.963
X2.942Y-4.2346
X2.942Y-4.4315
X2.942Y-4.7661
X2.942Y-4.963
X3.4341Y-4.2346
X3.4341Y-4.4315
X3.4341Y-4.7661
X3.4341Y-4.963
T11
X2.4007Y-1.8921
X4.3967Y-4.5338
X6.6802Y-3.1441
X7.0699Y-5.2453
T12
X6.7919Y-2.5929
T3
G00X2.2505Y-3.3842
M15
G01X2.2505Y-3.3409
M16
G05
G00X2.2511Y-2.9059
M15
G01X2.2511Y-2.8626
M16
G05
G00X2.2511Y-3.8626
M15
G01X2.2511Y-3.8193
M16
G05
G00X2.347Y-3.3055
M15
G01X2.347Y-3.2622
M16
G05
G00X2.3475Y-2.8271
M15
G01X2.3475Y-2.7838
M16
G05
G00X2.3475Y-3.7838
M15
G01X2.3475Y-3.7405
M16
G05
G00X2.4926Y-3.3842
M15
G01X2.4926Y-3.3409
M16
G05
G00X2.4932Y-2.9059
M15
G01X2.4932Y-2.8626
M16
G05
G00X2.4932Y-3.8626
M15
G01X2.4932Y-3.8193
M16
G05
G00X2.5674Y-3.3055
M15
G01X2.5674Y-3.2622
M16
G05
G00X2.568Y-2.8271
M15
G01X2.568Y-2.7838
M16
G05
G00X2.568Y-3.7838
M15
G01X2.568Y-3.7405
M16
G05
G00X2.7151Y-3.3842
M15
G01X2.7151Y-3.3409
M16
G05
G00X2.7156Y-2.9059
M15
G01X2.7156Y-2.8626
M16
G05
G00X2.7156Y-3.8626
M15
G01X2.7156Y-3.8193
M16
G05
G00X5.8645Y-1.2198
M15
G01X5.8645Y-1.1962
M16
G05
G00X5.8645Y-1.3943
M15
G01X5.8645Y-1.3509
M16
G05
G00X6.2046Y-1.2198
M15
G01X6.2046Y-1.1962
M16
G05
G00X6.2046Y-1.3943
M15
G01X6.2046Y-1.3509
M16
G05
T10
G00X6.2471Y-3.9196
M15
G01X6.2156Y-3.9196
M16
G05
G00X6.2471Y-4.3685
M15
G01X6.2156Y-4.3685
M16
G05
T0
M30
