%TF.GenerationSoftware,KiCad,Pcbnew,(6.0.5)*%
%TF.CreationDate,2022-07-17T18:42:08+02:00*%
%TF.ProjectId,clarinoid-devboard,636c6172-696e-46f6-9964-2d646576626f,rev?*%
%TF.SameCoordinates,Original*%
%TF.FileFunction,Legend,Bot*%
%TF.FilePolarity,Positive*%
%FSLAX46Y46*%
G04 Gerber Fmt 4.6, Leading zero omitted, Abs format (unit mm)*
G04 Created by KiCad (PCBNEW (6.0.5)) date 2022-07-17 18:42:08*
%MOMM*%
%LPD*%
G01*
G04 APERTURE LIST*
%ADD10C,0.300000*%
%ADD11C,1.000000*%
%ADD12C,0.976388*%
%ADD13C,0.150000*%
%ADD14C,0.500000*%
%ADD15C,0.120000*%
%ADD16C,0.400000*%
%ADD17C,0.170000*%
%ADD18C,1.150000*%
%ADD19C,1.650000*%
%ADD20R,1.700000X1.700000*%
%ADD21O,1.700000X1.700000*%
%ADD22C,2.000000*%
%ADD23C,0.500000*%
%ADD24C,1.300000*%
%ADD25C,1.850000*%
%ADD26C,3.450000*%
%ADD27C,2.390000*%
%ADD28C,1.000000*%
%ADD29O,1.700000X2.800000*%
%ADD30C,6.200000*%
%ADD31C,0.800000*%
%ADD32C,6.400000*%
%ADD33C,0.650000*%
%ADD34O,1.000000X1.600000*%
%ADD35O,1.000000X2.100000*%
%ADD36R,1.600000X1.600000*%
%ADD37O,1.600000X1.600000*%
%ADD38C,1.800000*%
%ADD39R,1.650000X1.650000*%
%ADD40O,6.000000X3.000000*%
%ADD41C,1.200000*%
%ADD42C,1.600000*%
G04 APERTURE END LIST*
D10*
X291146880Y-54877499D02*
X307146880Y-54877499D01*
X313456880Y-49752499D02*
X329456880Y-49752499D01*
X285276804Y-109409034D02*
X269276804Y-109409034D01*
X263276804Y-117409034D02*
X247276804Y-117409034D01*
D11*
X285276804Y-110409034D02*
X269276804Y-110409034D01*
D10*
X219449304Y-105409034D02*
X203449304Y-105409034D01*
D12*
X327736110Y-130309034D02*
G75*
G03*
X327736110Y-130309034I-488194J0D01*
G01*
X261236110Y-130309034D02*
G75*
G03*
X261236110Y-130309034I-488194J0D01*
G01*
D10*
X313456880Y-48752499D02*
X329456880Y-48752499D01*
X224776804Y-44909034D02*
X240776804Y-44909034D01*
X291146880Y-55877499D02*
X307146880Y-55877499D01*
D12*
X226387498Y-36460422D02*
G75*
G03*
X226387498Y-36460422I-488194J0D01*
G01*
X248637498Y-36460422D02*
G75*
G03*
X248637498Y-36460422I-488194J0D01*
G01*
X314887498Y-36710422D02*
G75*
G03*
X314887498Y-36710422I-488194J0D01*
G01*
D13*
G36*
X257776804Y-37339034D02*
G01*
X252776804Y-37339034D01*
X255276804Y-34839034D01*
X257776804Y-37339034D01*
G37*
X257776804Y-37339034D02*
X252776804Y-37339034D01*
X255276804Y-34839034D01*
X257776804Y-37339034D01*
D10*
X247276804Y-49409034D02*
X263276804Y-49409034D01*
D12*
X239637498Y-130059034D02*
G75*
G03*
X239637498Y-130059034I-488194J0D01*
G01*
D10*
X307776804Y-110909034D02*
X291776804Y-110909034D01*
X203449304Y-60409034D02*
X219449304Y-60409034D01*
D11*
X203449304Y-59409034D02*
X219449304Y-59409034D01*
D10*
X329276804Y-116409034D02*
X313276804Y-116409034D01*
D13*
G36*
X213449304Y-37409034D02*
G01*
X208449304Y-37409034D01*
X210949304Y-34909034D01*
X213449304Y-37409034D01*
G37*
X213449304Y-37409034D02*
X208449304Y-37409034D01*
X210949304Y-34909034D01*
X213449304Y-37409034D01*
D11*
X313456880Y-47752499D02*
X329456880Y-47752499D01*
D10*
X240776804Y-121909034D02*
X224776804Y-121909034D01*
X263276804Y-116409034D02*
X247276804Y-116409034D01*
X219449304Y-106409034D02*
X203449304Y-106409034D01*
D11*
X240776804Y-123909034D02*
X224776804Y-123909034D01*
D13*
G36*
X301776804Y-37409034D02*
G01*
X296776804Y-37409034D01*
X299276804Y-34909034D01*
X301776804Y-37409034D01*
G37*
X301776804Y-37409034D02*
X296776804Y-37409034D01*
X299276804Y-34909034D01*
X301776804Y-37409034D01*
D12*
X283637498Y-130309034D02*
G75*
G03*
X283637498Y-130309034I-488194J0D01*
G01*
D11*
X291146880Y-53877499D02*
X307146880Y-53877499D01*
D13*
G36*
X323776804Y-37409034D02*
G01*
X318776804Y-37409034D01*
X321276804Y-34909034D01*
X323776804Y-37409034D01*
G37*
X323776804Y-37409034D02*
X318776804Y-37409034D01*
X321276804Y-34909034D01*
X323776804Y-37409034D01*
D11*
X224776804Y-42909034D02*
X240776804Y-42909034D01*
D10*
X269499880Y-57268499D02*
X285499880Y-57268499D01*
D12*
X305137498Y-129809034D02*
G75*
G03*
X305137498Y-129809034I-488194J0D01*
G01*
D10*
X203449304Y-61409034D02*
X219449304Y-61409034D01*
X329276804Y-117409034D02*
X313276804Y-117409034D01*
D12*
X217387498Y-129809034D02*
G75*
G03*
X217387498Y-129809034I-488194J0D01*
G01*
D11*
X247276804Y-48409034D02*
X263276804Y-48409034D01*
D10*
X285276804Y-108409034D02*
X269276804Y-108409034D01*
D12*
X270887498Y-36710422D02*
G75*
G03*
X270887498Y-36710422I-488194J0D01*
G01*
D11*
X219449304Y-107409034D02*
X203449304Y-107409034D01*
D10*
X224776804Y-43909034D02*
X240776804Y-43909034D01*
X307776804Y-111909034D02*
X291776804Y-111909034D01*
X240776804Y-122909034D02*
X224776804Y-122909034D01*
D13*
G36*
X279776804Y-37409034D02*
G01*
X274776804Y-37409034D01*
X277276804Y-34909034D01*
X279776804Y-37409034D01*
G37*
X279776804Y-37409034D02*
X274776804Y-37409034D01*
X277276804Y-34909034D01*
X279776804Y-37409034D01*
D12*
X204587498Y-36309034D02*
G75*
G03*
X204587498Y-36309034I-488194J0D01*
G01*
D10*
X269499880Y-58268499D02*
X285499880Y-58268499D01*
D11*
X307776804Y-112909034D02*
X291776804Y-112909034D01*
X269499880Y-56268499D02*
X285499880Y-56268499D01*
D13*
G36*
X235776804Y-37409034D02*
G01*
X230776804Y-37409034D01*
X233276804Y-34909034D01*
X235776804Y-37409034D01*
G37*
X235776804Y-37409034D02*
X230776804Y-37409034D01*
X233276804Y-34909034D01*
X235776804Y-37409034D01*
D12*
X292637498Y-36960422D02*
G75*
G03*
X292637498Y-36960422I-488194J0D01*
G01*
D10*
X247276804Y-50409034D02*
X263276804Y-50409034D01*
D11*
X263276804Y-118409034D02*
X247276804Y-118409034D01*
X329276804Y-118409034D02*
X313276804Y-118409034D01*
D14*
X258639299Y-126772854D02*
X258639299Y-128439521D01*
X259234537Y-125820473D02*
X259829775Y-127606188D01*
X258282156Y-127606188D01*
X257567870Y-128439521D02*
X256258347Y-126772854D01*
X257567870Y-126772854D02*
X256258347Y-128439521D01*
X254234537Y-126772854D02*
X254234537Y-128439521D01*
X254829775Y-125820473D02*
X255425013Y-127606188D01*
X253877394Y-127606188D01*
X253163108Y-128439521D02*
X251853585Y-126772854D01*
X253163108Y-126772854D02*
X251853585Y-128439521D01*
X251020251Y-126177616D02*
X250901204Y-126058569D01*
X250663108Y-125939521D01*
X250067870Y-125939521D01*
X249829775Y-126058569D01*
X249710728Y-126177616D01*
X249591680Y-126415711D01*
X249591680Y-126653807D01*
X249710728Y-127010949D01*
X251139299Y-128439521D01*
X249591680Y-128439521D01*
X303435299Y-122904854D02*
X303435299Y-124571521D01*
X304030537Y-121952473D02*
X304625775Y-123738188D01*
X303078156Y-123738188D01*
X302363870Y-124571521D02*
X301054347Y-122904854D01*
X302363870Y-122904854D02*
X301054347Y-124571521D01*
X299030537Y-122904854D02*
X299030537Y-124571521D01*
X299625775Y-121952473D02*
X300221013Y-123738188D01*
X298673394Y-123738188D01*
X297959108Y-124571521D02*
X296649585Y-122904854D01*
X297959108Y-122904854D02*
X296649585Y-124571521D01*
X294387680Y-124571521D02*
X295816251Y-124571521D01*
X295101966Y-124571521D02*
X295101966Y-122071521D01*
X295340061Y-122428664D01*
X295578156Y-122666759D01*
X295816251Y-122785807D01*
X216687399Y-118789986D02*
X215139780Y-118789986D01*
X215973113Y-119742367D01*
X215615970Y-119742367D01*
X215377875Y-119861414D01*
X215258827Y-119980462D01*
X215139780Y-120218557D01*
X215139780Y-120813795D01*
X215258827Y-121051891D01*
X215377875Y-121170938D01*
X215615970Y-121289986D01*
X216330256Y-121289986D01*
X216568351Y-121170938D01*
X216687399Y-121051891D01*
X214306446Y-121289986D02*
X212996923Y-119623319D01*
X214306446Y-119623319D02*
X212996923Y-121289986D01*
X212282637Y-118789986D02*
X210735018Y-118789986D01*
X211568351Y-119742367D01*
X211211208Y-119742367D01*
X210973113Y-119861414D01*
X210854065Y-119980462D01*
X210735018Y-120218557D01*
X210735018Y-120813795D01*
X210854065Y-121051891D01*
X210973113Y-121170938D01*
X211211208Y-121289986D01*
X211925494Y-121289986D01*
X212163589Y-121170938D01*
X212282637Y-121051891D01*
X209901684Y-121289986D02*
X208592161Y-119623319D01*
X209901684Y-119623319D02*
X208592161Y-121289986D01*
X206330256Y-121289986D02*
X207758827Y-121289986D01*
X207044542Y-121289986D02*
X207044542Y-118789986D01*
X207282637Y-119147129D01*
X207520732Y-119385224D01*
X207758827Y-119504272D01*
X259539299Y-40272854D02*
X259539299Y-41939521D01*
X260134537Y-39320473D02*
X260729775Y-41106188D01*
X259182156Y-41106188D01*
X258467870Y-41939521D02*
X257158347Y-40272854D01*
X258467870Y-40272854D02*
X257158347Y-41939521D01*
X255134537Y-40272854D02*
X255134537Y-41939521D01*
X255729775Y-39320473D02*
X256325013Y-41106188D01*
X254777394Y-41106188D01*
X254063108Y-41939521D02*
X252753585Y-40272854D01*
X254063108Y-40272854D02*
X252753585Y-41939521D01*
X251920251Y-39677616D02*
X251801204Y-39558569D01*
X251563108Y-39439521D01*
X250967870Y-39439521D01*
X250729775Y-39558569D01*
X250610728Y-39677616D01*
X250491680Y-39915711D01*
X250491680Y-40153807D01*
X250610728Y-40510949D01*
X252039299Y-41939521D01*
X250491680Y-41939521D01*
X236319299Y-127233854D02*
X236319299Y-128900521D01*
X236914537Y-126281473D02*
X237509775Y-128067188D01*
X235962156Y-128067188D01*
X235247870Y-128900521D02*
X233938347Y-127233854D01*
X235247870Y-127233854D02*
X233938347Y-128900521D01*
X231914537Y-127233854D02*
X231914537Y-128900521D01*
X232509775Y-126281473D02*
X233105013Y-128067188D01*
X231557394Y-128067188D01*
X230843108Y-128900521D02*
X229533585Y-127233854D01*
X230843108Y-127233854D02*
X229533585Y-128900521D01*
X228819299Y-126400521D02*
X227271680Y-126400521D01*
X228105013Y-127352902D01*
X227747870Y-127352902D01*
X227509775Y-127471949D01*
X227390728Y-127590997D01*
X227271680Y-127829092D01*
X227271680Y-128424330D01*
X227390728Y-128662426D01*
X227509775Y-128781473D01*
X227747870Y-128900521D01*
X228462156Y-128900521D01*
X228700251Y-128781473D01*
X228819299Y-128662426D01*
X282868013Y-121913854D02*
X282868013Y-123580521D01*
X283463251Y-120961473D02*
X284058489Y-122747188D01*
X282510870Y-122747188D01*
X281796585Y-123580521D02*
X280487061Y-121913854D01*
X281796585Y-121913854D02*
X280487061Y-123580521D01*
X278463251Y-121913854D02*
X278463251Y-123580521D01*
X279058489Y-120961473D02*
X279653728Y-122747188D01*
X278106108Y-122747188D01*
X277391823Y-123580521D02*
X276082299Y-121913854D01*
X277391823Y-121913854D02*
X276082299Y-123580521D01*
X274653728Y-121080521D02*
X274415632Y-121080521D01*
X274177537Y-121199569D01*
X274058489Y-121318616D01*
X273939442Y-121556711D01*
X273820394Y-122032902D01*
X273820394Y-122628140D01*
X273939442Y-123104330D01*
X274058489Y-123342426D01*
X274177537Y-123461473D01*
X274415632Y-123580521D01*
X274653728Y-123580521D01*
X274891823Y-123461473D01*
X275010870Y-123342426D01*
X275129918Y-123104330D01*
X275248966Y-122628140D01*
X275248966Y-122032902D01*
X275129918Y-121556711D01*
X275010870Y-121318616D01*
X274891823Y-121199569D01*
X274653728Y-121080521D01*
X272748966Y-123342426D02*
X272629918Y-123461473D01*
X272748966Y-123580521D01*
X272868013Y-123461473D01*
X272748966Y-123342426D01*
X272748966Y-123580521D01*
X270368013Y-121080521D02*
X271558489Y-121080521D01*
X271677537Y-122270997D01*
X271558489Y-122151949D01*
X271320394Y-122032902D01*
X270725156Y-122032902D01*
X270487061Y-122151949D01*
X270368013Y-122270997D01*
X270248966Y-122509092D01*
X270248966Y-123104330D01*
X270368013Y-123342426D01*
X270487061Y-123461473D01*
X270725156Y-123580521D01*
X271320394Y-123580521D01*
X271558489Y-123461473D01*
X271677537Y-123342426D01*
X325006251Y-124439986D02*
X326196728Y-124439986D01*
X326315775Y-125630462D01*
X326196728Y-125511414D01*
X325958632Y-125392367D01*
X325363394Y-125392367D01*
X325125299Y-125511414D01*
X325006251Y-125630462D01*
X324887204Y-125868557D01*
X324887204Y-126463795D01*
X325006251Y-126701891D01*
X325125299Y-126820938D01*
X325363394Y-126939986D01*
X325958632Y-126939986D01*
X326196728Y-126820938D01*
X326315775Y-126701891D01*
X324053870Y-126939986D02*
X322744347Y-125273319D01*
X324053870Y-125273319D02*
X322744347Y-126939986D01*
X320601489Y-124439986D02*
X321791966Y-124439986D01*
X321911013Y-125630462D01*
X321791966Y-125511414D01*
X321553870Y-125392367D01*
X320958632Y-125392367D01*
X320720537Y-125511414D01*
X320601489Y-125630462D01*
X320482442Y-125868557D01*
X320482442Y-126463795D01*
X320601489Y-126701891D01*
X320720537Y-126820938D01*
X320958632Y-126939986D01*
X321553870Y-126939986D01*
X321791966Y-126820938D01*
X321911013Y-126701891D01*
X319649108Y-126939986D02*
X318339585Y-125273319D01*
X319649108Y-125273319D02*
X318339585Y-126939986D01*
X316077680Y-126939986D02*
X317506251Y-126939986D01*
X316791966Y-126939986D02*
X316791966Y-124439986D01*
X317030061Y-124797129D01*
X317268156Y-125035224D01*
X317506251Y-125154272D01*
X325086327Y-39539986D02*
X326276804Y-39539986D01*
X326395851Y-40730462D01*
X326276804Y-40611414D01*
X326038708Y-40492367D01*
X325443470Y-40492367D01*
X325205375Y-40611414D01*
X325086327Y-40730462D01*
X324967280Y-40968557D01*
X324967280Y-41563795D01*
X325086327Y-41801891D01*
X325205375Y-41920938D01*
X325443470Y-42039986D01*
X326038708Y-42039986D01*
X326276804Y-41920938D01*
X326395851Y-41801891D01*
X324133946Y-42039986D02*
X322824423Y-40373319D01*
X324133946Y-40373319D02*
X322824423Y-42039986D01*
X320681565Y-39539986D02*
X321872042Y-39539986D01*
X321991089Y-40730462D01*
X321872042Y-40611414D01*
X321633946Y-40492367D01*
X321038708Y-40492367D01*
X320800613Y-40611414D01*
X320681565Y-40730462D01*
X320562518Y-40968557D01*
X320562518Y-41563795D01*
X320681565Y-41801891D01*
X320800613Y-41920938D01*
X321038708Y-42039986D01*
X321633946Y-42039986D01*
X321872042Y-41920938D01*
X321991089Y-41801891D01*
X319729184Y-42039986D02*
X318419661Y-40373319D01*
X319729184Y-40373319D02*
X318419661Y-42039986D01*
X316157756Y-42039986D02*
X317586327Y-42039986D01*
X316872042Y-42039986D02*
X316872042Y-39539986D01*
X317110137Y-39897129D01*
X317348232Y-40135224D01*
X317586327Y-40254272D01*
X302705375Y-43373319D02*
X302705375Y-45039986D01*
X303300613Y-42420938D02*
X303895851Y-44206653D01*
X302348232Y-44206653D01*
X301633946Y-45039986D02*
X300324423Y-43373319D01*
X301633946Y-43373319D02*
X300324423Y-45039986D01*
X298300613Y-43373319D02*
X298300613Y-45039986D01*
X298895851Y-42420938D02*
X299491089Y-44206653D01*
X297943470Y-44206653D01*
X297229184Y-45039986D02*
X295919661Y-43373319D01*
X297229184Y-43373319D02*
X295919661Y-45039986D01*
X293657756Y-45039986D02*
X295086327Y-45039986D01*
X294372042Y-45039986D02*
X294372042Y-42539986D01*
X294610137Y-42897129D01*
X294848232Y-43135224D01*
X295086327Y-43254272D01*
X237205375Y-39373319D02*
X237205375Y-41039986D01*
X237800613Y-38420938D02*
X238395851Y-40206653D01*
X236848232Y-40206653D01*
X236133946Y-41039986D02*
X234824423Y-39373319D01*
X236133946Y-39373319D02*
X234824423Y-41039986D01*
X232800613Y-39373319D02*
X232800613Y-41039986D01*
X233395851Y-38420938D02*
X233991089Y-40206653D01*
X232443470Y-40206653D01*
X231729184Y-41039986D02*
X230419661Y-39373319D01*
X231729184Y-39373319D02*
X230419661Y-41039986D01*
X229705375Y-38539986D02*
X228157756Y-38539986D01*
X228991089Y-39492367D01*
X228633946Y-39492367D01*
X228395851Y-39611414D01*
X228276804Y-39730462D01*
X228157756Y-39968557D01*
X228157756Y-40563795D01*
X228276804Y-40801891D01*
X228395851Y-40920938D01*
X228633946Y-41039986D01*
X229348232Y-41039986D01*
X229586327Y-40920938D01*
X229705375Y-40801891D01*
X216587399Y-44489986D02*
X215039780Y-44489986D01*
X215873113Y-45442367D01*
X215515970Y-45442367D01*
X215277875Y-45561414D01*
X215158827Y-45680462D01*
X215039780Y-45918557D01*
X215039780Y-46513795D01*
X215158827Y-46751891D01*
X215277875Y-46870938D01*
X215515970Y-46989986D01*
X216230256Y-46989986D01*
X216468351Y-46870938D01*
X216587399Y-46751891D01*
X214206446Y-46989986D02*
X212896923Y-45323319D01*
X214206446Y-45323319D02*
X212896923Y-46989986D01*
X212182637Y-44489986D02*
X210635018Y-44489986D01*
X211468351Y-45442367D01*
X211111208Y-45442367D01*
X210873113Y-45561414D01*
X210754065Y-45680462D01*
X210635018Y-45918557D01*
X210635018Y-46513795D01*
X210754065Y-46751891D01*
X210873113Y-46870938D01*
X211111208Y-46989986D01*
X211825494Y-46989986D01*
X212063589Y-46870938D01*
X212182637Y-46751891D01*
X209801684Y-46989986D02*
X208492161Y-45323319D01*
X209801684Y-45323319D02*
X208492161Y-46989986D01*
X206230256Y-46989986D02*
X207658827Y-46989986D01*
X206944542Y-46989986D02*
X206944542Y-44489986D01*
X207182637Y-44847129D01*
X207420732Y-45085224D01*
X207658827Y-45204272D01*
X282991089Y-43873319D02*
X282991089Y-45539986D01*
X283586327Y-42920938D02*
X284181565Y-44706653D01*
X282633946Y-44706653D01*
X281919661Y-45539986D02*
X280610137Y-43873319D01*
X281919661Y-43873319D02*
X280610137Y-45539986D01*
X278586327Y-43873319D02*
X278586327Y-45539986D01*
X279181565Y-42920938D02*
X279776804Y-44706653D01*
X278229184Y-44706653D01*
X277514899Y-45539986D02*
X276205375Y-43873319D01*
X277514899Y-43873319D02*
X276205375Y-45539986D01*
X274776804Y-43039986D02*
X274538708Y-43039986D01*
X274300613Y-43159034D01*
X274181565Y-43278081D01*
X274062518Y-43516176D01*
X273943470Y-43992367D01*
X273943470Y-44587605D01*
X274062518Y-45063795D01*
X274181565Y-45301891D01*
X274300613Y-45420938D01*
X274538708Y-45539986D01*
X274776804Y-45539986D01*
X275014899Y-45420938D01*
X275133946Y-45301891D01*
X275252994Y-45063795D01*
X275372042Y-44587605D01*
X275372042Y-43992367D01*
X275252994Y-43516176D01*
X275133946Y-43278081D01*
X275014899Y-43159034D01*
X274776804Y-43039986D01*
X272872042Y-45301891D02*
X272752994Y-45420938D01*
X272872042Y-45539986D01*
X272991089Y-45420938D01*
X272872042Y-45301891D01*
X272872042Y-45539986D01*
X270491089Y-43039986D02*
X271681565Y-43039986D01*
X271800613Y-44230462D01*
X271681565Y-44111414D01*
X271443470Y-43992367D01*
X270848232Y-43992367D01*
X270610137Y-44111414D01*
X270491089Y-44230462D01*
X270372042Y-44468557D01*
X270372042Y-45063795D01*
X270491089Y-45301891D01*
X270610137Y-45420938D01*
X270848232Y-45539986D01*
X271443470Y-45539986D01*
X271681565Y-45420938D01*
X271800613Y-45301891D01*
D13*
%TO.C,J20*%
X209101684Y-57249510D02*
X209815970Y-57249510D01*
X209958827Y-57201891D01*
X210054065Y-57106653D01*
X210101684Y-56963795D01*
X210101684Y-56868557D01*
X209196923Y-57678081D02*
X209149304Y-57725700D01*
X209101684Y-57820938D01*
X209101684Y-58059034D01*
X209149304Y-58154272D01*
X209196923Y-58201891D01*
X209292161Y-58249510D01*
X209387399Y-58249510D01*
X209530256Y-58201891D01*
X210101684Y-57630462D01*
X210101684Y-58249510D01*
X209101684Y-58868557D02*
X209101684Y-58963795D01*
X209149304Y-59059034D01*
X209196923Y-59106653D01*
X209292161Y-59154272D01*
X209482637Y-59201891D01*
X209720732Y-59201891D01*
X209911208Y-59154272D01*
X210006446Y-59106653D01*
X210054065Y-59059034D01*
X210101684Y-58963795D01*
X210101684Y-58868557D01*
X210054065Y-58773319D01*
X210006446Y-58725700D01*
X209911208Y-58678081D01*
X209720732Y-58630462D01*
X209482637Y-58630462D01*
X209292161Y-58678081D01*
X209196923Y-58725700D01*
X209149304Y-58773319D01*
X209101684Y-58868557D01*
D15*
%TO.C,J16*%
X255976804Y-84559034D02*
X258976804Y-81559034D01*
X251976804Y-84559034D02*
X254976804Y-81559034D01*
X260976804Y-82559034D02*
X258976804Y-84559034D01*
X259976804Y-81559034D02*
X256976804Y-84559034D01*
X250976804Y-84559034D02*
X253976804Y-81559034D01*
X248976804Y-84559034D02*
X251976804Y-81559034D01*
X250976804Y-81559034D02*
X248976804Y-83559034D01*
X252976804Y-81559034D02*
X249976804Y-84559034D01*
X257976804Y-84559034D02*
X260976804Y-81559034D01*
X248976804Y-82559034D02*
X249976804Y-81559034D01*
X255976804Y-81559034D02*
X252976804Y-84559034D01*
X253976804Y-84559034D02*
X256976804Y-81559034D01*
X257976804Y-81559034D02*
X254976804Y-84559034D01*
X259976804Y-84559034D02*
X260976804Y-83559034D01*
%TO.C,J23*%
D16*
X272676804Y-82059034D02*
G75*
G03*
X272676804Y-82059034I-200000J0D01*
G01*
X274676804Y-84059034D02*
G75*
G03*
X274676804Y-84059034I-200000J0D01*
G01*
X273676804Y-84059034D02*
G75*
G03*
X273676804Y-84059034I-200000J0D01*
G01*
X278176804Y-83059034D02*
G75*
G03*
X278176804Y-83059034I-200000J0D01*
G01*
X280676804Y-84059034D02*
G75*
G03*
X280676804Y-84059034I-200000J0D01*
G01*
X276176804Y-83059034D02*
G75*
G03*
X276176804Y-83059034I-200000J0D01*
G01*
X275676804Y-84059034D02*
G75*
G03*
X275676804Y-84059034I-200000J0D01*
G01*
X282676804Y-82059034D02*
G75*
G03*
X282676804Y-82059034I-200000J0D01*
G01*
X278676804Y-82059034D02*
G75*
G03*
X278676804Y-82059034I-200000J0D01*
G01*
X271676804Y-84059034D02*
G75*
G03*
X271676804Y-84059034I-200000J0D01*
G01*
X279676804Y-82059034D02*
G75*
G03*
X279676804Y-82059034I-200000J0D01*
G01*
X279176804Y-83059034D02*
G75*
G03*
X279176804Y-83059034I-200000J0D01*
G01*
X281176804Y-83059034D02*
G75*
G03*
X281176804Y-83059034I-200000J0D01*
G01*
X279676804Y-84059034D02*
G75*
G03*
X279676804Y-84059034I-200000J0D01*
G01*
X276676804Y-84059034D02*
G75*
G03*
X276676804Y-84059034I-200000J0D01*
G01*
X280676804Y-82059034D02*
G75*
G03*
X280676804Y-82059034I-200000J0D01*
G01*
X277676804Y-82059034D02*
G75*
G03*
X277676804Y-82059034I-200000J0D01*
G01*
X280176804Y-83059034D02*
G75*
G03*
X280176804Y-83059034I-200000J0D01*
G01*
X274176804Y-83059034D02*
G75*
G03*
X274176804Y-83059034I-200000J0D01*
G01*
X281676804Y-84059034D02*
G75*
G03*
X281676804Y-84059034I-200000J0D01*
G01*
X273176804Y-83059034D02*
G75*
G03*
X273176804Y-83059034I-200000J0D01*
G01*
X272676804Y-84059034D02*
G75*
G03*
X272676804Y-84059034I-200000J0D01*
G01*
X275176804Y-83059034D02*
G75*
G03*
X275176804Y-83059034I-200000J0D01*
G01*
X282176804Y-83059034D02*
G75*
G03*
X282176804Y-83059034I-200000J0D01*
G01*
X282676804Y-84059034D02*
G75*
G03*
X282676804Y-84059034I-200000J0D01*
G01*
X278676804Y-84059034D02*
G75*
G03*
X278676804Y-84059034I-200000J0D01*
G01*
X276676804Y-82059034D02*
G75*
G03*
X276676804Y-82059034I-200000J0D01*
G01*
X273676804Y-82059034D02*
G75*
G03*
X273676804Y-82059034I-200000J0D01*
G01*
X281676804Y-82059034D02*
G75*
G03*
X281676804Y-82059034I-200000J0D01*
G01*
X274676804Y-82059034D02*
G75*
G03*
X274676804Y-82059034I-200000J0D01*
G01*
X271676804Y-82059034D02*
G75*
G03*
X271676804Y-82059034I-200000J0D01*
G01*
X271176804Y-83059034D02*
G75*
G03*
X271176804Y-83059034I-200000J0D01*
G01*
X277676804Y-84059034D02*
G75*
G03*
X277676804Y-84059034I-200000J0D01*
G01*
X277176804Y-83059034D02*
G75*
G03*
X277176804Y-83059034I-200000J0D01*
G01*
X275676804Y-82059034D02*
G75*
G03*
X275676804Y-82059034I-200000J0D01*
G01*
X283176804Y-83059034D02*
G75*
G03*
X283176804Y-83059034I-200000J0D01*
G01*
X272176804Y-83059034D02*
G75*
G03*
X272176804Y-83059034I-200000J0D01*
G01*
D17*
%TO.C,J28*%
X328476804Y-83559034D02*
X313476804Y-83559034D01*
X328476804Y-84059034D02*
X313476804Y-84059034D01*
X328476804Y-81559034D02*
X313476804Y-81559034D01*
X328476804Y-81059034D02*
X313476804Y-81059034D01*
D11*
X328476804Y-82559034D02*
X313476804Y-82559034D01*
D17*
X328476804Y-84559034D02*
X313476804Y-84559034D01*
X328476804Y-80559034D02*
X313476804Y-80559034D01*
%TO.C,J20*%
D16*
X212849304Y-83059034D02*
G75*
G03*
X212849304Y-83059034I-200000J0D01*
G01*
X213849304Y-83059034D02*
G75*
G03*
X213849304Y-83059034I-200000J0D01*
G01*
X214849304Y-83059034D02*
G75*
G03*
X214849304Y-83059034I-200000J0D01*
G01*
X215849304Y-83059034D02*
G75*
G03*
X215849304Y-83059034I-200000J0D01*
G01*
X206849304Y-83059034D02*
G75*
G03*
X206849304Y-83059034I-200000J0D01*
G01*
X209849304Y-83059034D02*
G75*
G03*
X209849304Y-83059034I-200000J0D01*
G01*
X211849304Y-83059034D02*
G75*
G03*
X211849304Y-83059034I-200000J0D01*
G01*
X210849304Y-83059034D02*
G75*
G03*
X210849304Y-83059034I-200000J0D01*
G01*
X208849304Y-83059034D02*
G75*
G03*
X208849304Y-83059034I-200000J0D01*
G01*
X207849304Y-83059034D02*
G75*
G03*
X207849304Y-83059034I-200000J0D01*
G01*
D15*
%TO.C,J22*%
X237976804Y-81559034D02*
X234976804Y-84559034D01*
X229976804Y-84559034D02*
X232976804Y-81559034D01*
X226976804Y-82559034D02*
X227976804Y-81559034D01*
X233976804Y-84559034D02*
X236976804Y-81559034D01*
X228976804Y-81559034D02*
X226976804Y-83559034D01*
X235976804Y-81559034D02*
X232976804Y-84559034D01*
X226976804Y-84559034D02*
X229976804Y-81559034D01*
X237976804Y-84559034D02*
X238976804Y-83559034D01*
X231976804Y-84559034D02*
X234976804Y-81559034D01*
X238976804Y-82559034D02*
X236976804Y-84559034D01*
X233976804Y-81559034D02*
X230976804Y-84559034D01*
X228976804Y-84559034D02*
X231976804Y-81559034D01*
X230976804Y-81559034D02*
X227976804Y-84559034D01*
X235976804Y-84559034D02*
X238976804Y-81559034D01*
%TO.C,J29*%
D16*
X293676804Y-82059034D02*
G75*
G03*
X293676804Y-82059034I-200000J0D01*
G01*
X293176804Y-83059034D02*
G75*
G03*
X293176804Y-83059034I-200000J0D01*
G01*
X302676804Y-84059034D02*
G75*
G03*
X302676804Y-84059034I-200000J0D01*
G01*
X302676804Y-82059034D02*
G75*
G03*
X302676804Y-82059034I-200000J0D01*
G01*
X296676804Y-82059034D02*
G75*
G03*
X296676804Y-82059034I-200000J0D01*
G01*
X298176804Y-83059034D02*
G75*
G03*
X298176804Y-83059034I-200000J0D01*
G01*
X295676804Y-84059034D02*
G75*
G03*
X295676804Y-84059034I-200000J0D01*
G01*
X304176804Y-83059034D02*
G75*
G03*
X304176804Y-83059034I-200000J0D01*
G01*
X300676804Y-84059034D02*
G75*
G03*
X300676804Y-84059034I-200000J0D01*
G01*
X296676804Y-84059034D02*
G75*
G03*
X296676804Y-84059034I-200000J0D01*
G01*
X296176804Y-83059034D02*
G75*
G03*
X296176804Y-83059034I-200000J0D01*
G01*
X304676804Y-82059034D02*
G75*
G03*
X304676804Y-82059034I-200000J0D01*
G01*
X297176804Y-83059034D02*
G75*
G03*
X297176804Y-83059034I-200000J0D01*
G01*
X300176804Y-83059034D02*
G75*
G03*
X300176804Y-83059034I-200000J0D01*
G01*
X304676804Y-84059034D02*
G75*
G03*
X304676804Y-84059034I-200000J0D01*
G01*
X299676804Y-84059034D02*
G75*
G03*
X299676804Y-84059034I-200000J0D01*
G01*
X301676804Y-84059034D02*
G75*
G03*
X301676804Y-84059034I-200000J0D01*
G01*
X303176804Y-83059034D02*
G75*
G03*
X303176804Y-83059034I-200000J0D01*
G01*
X297676804Y-84059034D02*
G75*
G03*
X297676804Y-84059034I-200000J0D01*
G01*
X294176804Y-83059034D02*
G75*
G03*
X294176804Y-83059034I-200000J0D01*
G01*
X299676804Y-82059034D02*
G75*
G03*
X299676804Y-82059034I-200000J0D01*
G01*
X295176804Y-83059034D02*
G75*
G03*
X295176804Y-83059034I-200000J0D01*
G01*
X303676804Y-84059034D02*
G75*
G03*
X303676804Y-84059034I-200000J0D01*
G01*
X293676804Y-84059034D02*
G75*
G03*
X293676804Y-84059034I-200000J0D01*
G01*
X297676804Y-82059034D02*
G75*
G03*
X297676804Y-82059034I-200000J0D01*
G01*
X303676804Y-82059034D02*
G75*
G03*
X303676804Y-82059034I-200000J0D01*
G01*
X301176804Y-83059034D02*
G75*
G03*
X301176804Y-83059034I-200000J0D01*
G01*
X298676804Y-82059034D02*
G75*
G03*
X298676804Y-82059034I-200000J0D01*
G01*
X299176804Y-83059034D02*
G75*
G03*
X299176804Y-83059034I-200000J0D01*
G01*
X305176804Y-83059034D02*
G75*
G03*
X305176804Y-83059034I-200000J0D01*
G01*
X302176804Y-83059034D02*
G75*
G03*
X302176804Y-83059034I-200000J0D01*
G01*
X301676804Y-82059034D02*
G75*
G03*
X301676804Y-82059034I-200000J0D01*
G01*
X294676804Y-84059034D02*
G75*
G03*
X294676804Y-84059034I-200000J0D01*
G01*
X298676804Y-84059034D02*
G75*
G03*
X298676804Y-84059034I-200000J0D01*
G01*
X300676804Y-82059034D02*
G75*
G03*
X300676804Y-82059034I-200000J0D01*
G01*
X294676804Y-82059034D02*
G75*
G03*
X294676804Y-82059034I-200000J0D01*
G01*
X295676804Y-82059034D02*
G75*
G03*
X295676804Y-82059034I-200000J0D01*
G01*
%TD*%
%LPC*%
D14*
X147275804Y-136095819D02*
X147561518Y-136238676D01*
X148132946Y-136238676D01*
X148418661Y-136095819D01*
X148561518Y-135952962D01*
X148704375Y-135667248D01*
X148704375Y-134810105D01*
X148561518Y-134524391D01*
X148418661Y-134381534D01*
X148132946Y-134238676D01*
X147561518Y-134238676D01*
X147275804Y-134381534D01*
X145561518Y-136238676D02*
X145847232Y-136095819D01*
X145990089Y-135810105D01*
X145990089Y-133238676D01*
X143132946Y-136238676D02*
X143132946Y-134667248D01*
X143275804Y-134381534D01*
X143561518Y-134238676D01*
X144132946Y-134238676D01*
X144418661Y-134381534D01*
X143132946Y-136095819D02*
X143418661Y-136238676D01*
X144132946Y-136238676D01*
X144418661Y-136095819D01*
X144561518Y-135810105D01*
X144561518Y-135524391D01*
X144418661Y-135238676D01*
X144132946Y-135095819D01*
X143418661Y-135095819D01*
X143132946Y-134952962D01*
X141704375Y-136238676D02*
X141704375Y-134238676D01*
X141704375Y-134810105D02*
X141561518Y-134524391D01*
X141418661Y-134381534D01*
X141132946Y-134238676D01*
X140847232Y-134238676D01*
X139847232Y-136238676D02*
X139847232Y-134238676D01*
X139847232Y-133238676D02*
X139990089Y-133381534D01*
X139847232Y-133524391D01*
X139704375Y-133381534D01*
X139847232Y-133238676D01*
X139847232Y-133524391D01*
X138418661Y-134238676D02*
X138418661Y-136238676D01*
X138418661Y-134524391D02*
X138275804Y-134381534D01*
X137990089Y-134238676D01*
X137561518Y-134238676D01*
X137275804Y-134381534D01*
X137132946Y-134667248D01*
X137132946Y-136238676D01*
X135275804Y-136238676D02*
X135561518Y-136095819D01*
X135704375Y-135952962D01*
X135847232Y-135667248D01*
X135847232Y-134810105D01*
X135704375Y-134524391D01*
X135561518Y-134381534D01*
X135275804Y-134238676D01*
X134847232Y-134238676D01*
X134561518Y-134381534D01*
X134418661Y-134524391D01*
X134275804Y-134810105D01*
X134275804Y-135667248D01*
X134418661Y-135952962D01*
X134561518Y-136095819D01*
X134847232Y-136238676D01*
X135275804Y-136238676D01*
X132990089Y-136238676D02*
X132990089Y-134238676D01*
X132990089Y-133238676D02*
X133132946Y-133381534D01*
X132990089Y-133524391D01*
X132847232Y-133381534D01*
X132990089Y-133238676D01*
X132990089Y-133524391D01*
X130275804Y-136238676D02*
X130275804Y-133238676D01*
X130275804Y-136095819D02*
X130561518Y-136238676D01*
X131132946Y-136238676D01*
X131418661Y-136095819D01*
X131561518Y-135952962D01*
X131704375Y-135667248D01*
X131704375Y-134810105D01*
X131561518Y-134524391D01*
X131418661Y-134381534D01*
X131132946Y-134238676D01*
X130561518Y-134238676D01*
X130275804Y-134381534D01*
X126990089Y-134238676D02*
X125847232Y-134238676D01*
X126561518Y-133238676D02*
X126561518Y-135810105D01*
X126418661Y-136095819D01*
X126132946Y-136238676D01*
X125847232Y-136238676D01*
X123704375Y-136095819D02*
X123990089Y-136238676D01*
X124561518Y-136238676D01*
X124847232Y-136095819D01*
X124990089Y-135810105D01*
X124990089Y-134667248D01*
X124847232Y-134381534D01*
X124561518Y-134238676D01*
X123990089Y-134238676D01*
X123704375Y-134381534D01*
X123561518Y-134667248D01*
X123561518Y-134952962D01*
X124990089Y-135238676D01*
X122418661Y-136095819D02*
X122132946Y-136238676D01*
X121561518Y-136238676D01*
X121275804Y-136095819D01*
X121132946Y-135810105D01*
X121132946Y-135667248D01*
X121275804Y-135381534D01*
X121561518Y-135238676D01*
X121990089Y-135238676D01*
X122275804Y-135095819D01*
X122418661Y-134810105D01*
X122418661Y-134667248D01*
X122275804Y-134381534D01*
X121990089Y-134238676D01*
X121561518Y-134238676D01*
X121275804Y-134381534D01*
X120275804Y-134238676D02*
X119132946Y-134238676D01*
X119847232Y-133238676D02*
X119847232Y-135810105D01*
X119704375Y-136095819D01*
X119418661Y-136238676D01*
X119132946Y-136238676D01*
X114561518Y-136238676D02*
X114561518Y-133238676D01*
X114561518Y-136095819D02*
X114847232Y-136238676D01*
X115418661Y-136238676D01*
X115704375Y-136095819D01*
X115847232Y-135952962D01*
X115990089Y-135667248D01*
X115990089Y-134810105D01*
X115847232Y-134524391D01*
X115704375Y-134381534D01*
X115418661Y-134238676D01*
X114847232Y-134238676D01*
X114561518Y-134381534D01*
X111990089Y-136095819D02*
X112275804Y-136238676D01*
X112847232Y-136238676D01*
X113132946Y-136095819D01*
X113275804Y-135810105D01*
X113275804Y-134667248D01*
X113132946Y-134381534D01*
X112847232Y-134238676D01*
X112275804Y-134238676D01*
X111990089Y-134381534D01*
X111847232Y-134667248D01*
X111847232Y-134952962D01*
X113275804Y-135238676D01*
X110847232Y-134238676D02*
X110132946Y-136238676D01*
X109418661Y-134238676D01*
X108275804Y-136238676D02*
X108275804Y-134238676D01*
X108275804Y-133238676D02*
X108418661Y-133381534D01*
X108275804Y-133524391D01*
X108132946Y-133381534D01*
X108275804Y-133238676D01*
X108275804Y-133524391D01*
X105561518Y-136095819D02*
X105847232Y-136238676D01*
X106418661Y-136238676D01*
X106704375Y-136095819D01*
X106847232Y-135952962D01*
X106990089Y-135667248D01*
X106990089Y-134810105D01*
X106847232Y-134524391D01*
X106704375Y-134381534D01*
X106418661Y-134238676D01*
X105847232Y-134238676D01*
X105561518Y-134381534D01*
X103132946Y-136095819D02*
X103418661Y-136238676D01*
X103990089Y-136238676D01*
X104275804Y-136095819D01*
X104418661Y-135810105D01*
X104418661Y-134667248D01*
X104275804Y-134381534D01*
X103990089Y-134238676D01*
X103418661Y-134238676D01*
X103132946Y-134381534D01*
X102990089Y-134667248D01*
X102990089Y-134952962D01*
X104418661Y-135238676D01*
X99561518Y-133524391D02*
X99418661Y-133381534D01*
X99132946Y-133238676D01*
X98418661Y-133238676D01*
X98132946Y-133381534D01*
X97990089Y-133524391D01*
X97847232Y-133810105D01*
X97847232Y-134095819D01*
X97990089Y-134524391D01*
X99704375Y-136238676D01*
X97847232Y-136238676D01*
D18*
%TO.C,U16*%
X152514304Y-71859034D03*
D19*
X152514304Y-51859034D03*
%TD*%
D20*
%TO.C,J15*%
X260676804Y-133059034D03*
D21*
X258136804Y-133059034D03*
X255596804Y-133059034D03*
X253056804Y-133059034D03*
X250516804Y-133059034D03*
X247976804Y-133059034D03*
%TD*%
D22*
%TO.C,TP7*%
X76376804Y-133959034D03*
%TD*%
D23*
%TO.C,U35*%
X242726804Y-128809034D03*
X242726804Y-129559034D03*
X242726804Y-131059034D03*
X245226804Y-128809034D03*
X242726804Y-130309034D03*
X245226804Y-130309034D03*
X245226804Y-131059034D03*
X245226804Y-129559034D03*
%TD*%
D20*
%TO.C,J7*%
X110976804Y-61059034D03*
D21*
X110976804Y-63599034D03*
%TD*%
D22*
%TO.C,TP4*%
X86676804Y-133959034D03*
%TD*%
D24*
%TO.C,SW10*%
X126116804Y-88464034D03*
X128656804Y-88464034D03*
X131196804Y-88464034D03*
X133736804Y-88464034D03*
X133736804Y-80844034D03*
X131196804Y-80844034D03*
X128656804Y-80844034D03*
X126116804Y-80844034D03*
%TD*%
D20*
%TO.C,J25*%
X326676804Y-133059034D03*
D21*
X324136804Y-133059034D03*
X321596804Y-133059034D03*
X319056804Y-133059034D03*
X316516804Y-133059034D03*
X313976804Y-133059034D03*
%TD*%
D20*
%TO.C,U2*%
X195026804Y-88379034D03*
D21*
X195026804Y-85839034D03*
X195026804Y-83299034D03*
X195026804Y-80759034D03*
X195026804Y-78219034D03*
X195026804Y-75679034D03*
X195026804Y-73139034D03*
X195026804Y-70599034D03*
X195026804Y-68059034D03*
X195026804Y-65519034D03*
X195026804Y-62979034D03*
X195026804Y-60439034D03*
X195026804Y-57899034D03*
X195026804Y-55359034D03*
X195026804Y-52819034D03*
X195026804Y-50279034D03*
X195026804Y-47739034D03*
X195026804Y-45199034D03*
X195026804Y-42659034D03*
X195026804Y-40119034D03*
%TD*%
D23*
%TO.C,U25*%
X308726804Y-130309034D03*
X311226804Y-131059034D03*
X311226804Y-130309034D03*
X308726804Y-128809034D03*
X308726804Y-129559034D03*
X311226804Y-129559034D03*
X308726804Y-131059034D03*
X311226804Y-128809034D03*
%TD*%
D20*
%TO.C,J21*%
X282676804Y-133059034D03*
D21*
X280136804Y-133059034D03*
X277596804Y-133059034D03*
X275056804Y-133059034D03*
X272516804Y-133059034D03*
X269976804Y-133059034D03*
%TD*%
D25*
%TO.C,SW4*%
X65476804Y-119059034D03*
X65476804Y-128059034D03*
D22*
X71726804Y-126059034D03*
X59226804Y-126059034D03*
X71726804Y-121059034D03*
X59226804Y-121059034D03*
%TD*%
D26*
%TO.C,BT1*%
X131576804Y-31059034D03*
X76376804Y-47059034D03*
D27*
X68046804Y-31059034D03*
%TD*%
D20*
%TO.C,J3*%
X184106804Y-115559034D03*
D21*
X186646804Y-115559034D03*
X189186804Y-115559034D03*
X191726804Y-115559034D03*
%TD*%
D28*
%TO.C,J30*%
X172480804Y-32046534D03*
X164480804Y-32046534D03*
%TD*%
D25*
%TO.C,SW3*%
X65476804Y-114559034D03*
X65476804Y-105559034D03*
D22*
X71726804Y-112559034D03*
X59226804Y-112559034D03*
X71726804Y-107559034D03*
X59226804Y-107559034D03*
%TD*%
D24*
%TO.C,SW8*%
X140116804Y-88464034D03*
X142656804Y-88464034D03*
X145196804Y-88464034D03*
X147736804Y-88464034D03*
X147736804Y-80844034D03*
X145196804Y-80844034D03*
X142656804Y-80844034D03*
X140116804Y-80844034D03*
%TD*%
D23*
%TO.C,U37*%
X286726804Y-35559034D03*
X286726804Y-36309034D03*
X289226804Y-34809034D03*
X289226804Y-37059034D03*
X289226804Y-36309034D03*
X286726804Y-37059034D03*
X286726804Y-34809034D03*
X289226804Y-35559034D03*
%TD*%
D29*
%TO.C,J10*%
X57176804Y-97559034D03*
X59626804Y-95559034D03*
X63326804Y-97559034D03*
X65226804Y-95559034D03*
X68976804Y-97559034D03*
%TD*%
D30*
%TO.C,H4*%
X172514304Y-65859034D03*
%TD*%
D31*
%TO.C,H2*%
X59279748Y-46361978D03*
X60976804Y-50459034D03*
X63376804Y-48059034D03*
X62673860Y-46361978D03*
X58576804Y-48059034D03*
X59279748Y-49756090D03*
X62673860Y-49756090D03*
D32*
X60976804Y-48059034D03*
D31*
X60976804Y-45659034D03*
%TD*%
D20*
%TO.C,J9*%
X204099304Y-33059034D03*
D21*
X206639304Y-33059034D03*
X209179304Y-33059034D03*
X211719304Y-33059034D03*
X214259304Y-33059034D03*
X216799304Y-33059034D03*
%TD*%
D31*
%TO.C,H1*%
X167276804Y-79859034D03*
D32*
X169676804Y-79859034D03*
D31*
X167979748Y-78161978D03*
X171373860Y-78161978D03*
X169676804Y-77459034D03*
X169676804Y-82259034D03*
X172076804Y-79859034D03*
X167979748Y-81556090D03*
X171373860Y-81556090D03*
%TD*%
D20*
%TO.C,J19*%
X269976804Y-33059034D03*
D21*
X272516804Y-33059034D03*
X275056804Y-33059034D03*
X277596804Y-33059034D03*
X280136804Y-33059034D03*
X282676804Y-33059034D03*
%TD*%
D23*
%TO.C,U27*%
X201226804Y-129559034D03*
X201226804Y-131059034D03*
X201226804Y-130309034D03*
X198726804Y-131059034D03*
X198726804Y-130309034D03*
X198726804Y-128809034D03*
X198726804Y-129559034D03*
X201226804Y-128809034D03*
%TD*%
D20*
%TO.C,J5*%
X137751804Y-114559034D03*
D21*
X137751804Y-112019034D03*
X137751804Y-109479034D03*
X137751804Y-106939034D03*
%TD*%
D33*
%TO.C,J2*%
X156167293Y-34364034D03*
X150387293Y-34364034D03*
D34*
X148957293Y-30684034D03*
D35*
X157597293Y-34864034D03*
X148957293Y-34864034D03*
D34*
X157597293Y-30684034D03*
%TD*%
D25*
%TO.C,SW2*%
X80976804Y-114559034D03*
X80976804Y-105559034D03*
D22*
X87226804Y-112559034D03*
X74726804Y-112559034D03*
X87226804Y-107559034D03*
X74726804Y-107559034D03*
%TD*%
%TO.C,TP3*%
X75985804Y-65899034D03*
%TD*%
D20*
%TO.C,U3*%
X179786804Y-88379034D03*
D21*
X179786804Y-85839034D03*
X179786804Y-83299034D03*
X179786804Y-80759034D03*
X179786804Y-78219034D03*
X179786804Y-75679034D03*
X179786804Y-73139034D03*
X179786804Y-70599034D03*
X179786804Y-68059034D03*
X179786804Y-65519034D03*
X179786804Y-62979034D03*
X179786804Y-60439034D03*
X179786804Y-57899034D03*
X179786804Y-55359034D03*
X179786804Y-52819034D03*
X179786804Y-50279034D03*
X179786804Y-47739034D03*
X179786804Y-45199034D03*
X179786804Y-42659034D03*
X179786804Y-40119034D03*
%TD*%
D20*
%TO.C,J13*%
X216899304Y-133059034D03*
D21*
X214359304Y-133059034D03*
X211819304Y-133059034D03*
X209279304Y-133059034D03*
X206739304Y-133059034D03*
X204199304Y-133059034D03*
%TD*%
D23*
%TO.C,U22*%
X264726804Y-131059034D03*
X264726804Y-129559034D03*
X267226804Y-128809034D03*
X267226804Y-130309034D03*
X267226804Y-129559034D03*
X267226804Y-131059034D03*
X264726804Y-130309034D03*
X264726804Y-128809034D03*
%TD*%
D22*
%TO.C,TP6*%
X96975804Y-75551534D03*
%TD*%
D20*
%TO.C,J24*%
X313976804Y-33059034D03*
D21*
X316516804Y-33059034D03*
X319056804Y-33059034D03*
X321596804Y-33059034D03*
X324136804Y-33059034D03*
X326676804Y-33059034D03*
%TD*%
D23*
%TO.C,U26*%
X201226804Y-37059034D03*
X201226804Y-36309034D03*
X198726804Y-37059034D03*
X201226804Y-34809034D03*
X198726804Y-36309034D03*
X198726804Y-34809034D03*
X198726804Y-35559034D03*
X201226804Y-35559034D03*
%TD*%
%TO.C,U30*%
X245226804Y-83309034D03*
X245226804Y-84059034D03*
X242726804Y-82559034D03*
X242726804Y-84059034D03*
X245226804Y-82559034D03*
X242726804Y-83309034D03*
X242726804Y-81809034D03*
X245226804Y-81809034D03*
%TD*%
%TO.C,U20*%
X308726804Y-83309034D03*
X311226804Y-81809034D03*
X311226804Y-83309034D03*
X308726804Y-84059034D03*
X308726804Y-81809034D03*
X311226804Y-82559034D03*
X308726804Y-82559034D03*
X311226804Y-84059034D03*
%TD*%
D20*
%TO.C,J18*%
X238676804Y-133059034D03*
D21*
X236136804Y-133059034D03*
X233596804Y-133059034D03*
X231056804Y-133059034D03*
X228516804Y-133059034D03*
X225976804Y-133059034D03*
%TD*%
D36*
%TO.C,U8*%
X86576804Y-100159034D03*
D37*
X86576804Y-97619034D03*
X86576804Y-95079034D03*
X86576804Y-92539034D03*
X78956804Y-92539034D03*
X78956804Y-95079034D03*
X78956804Y-97619034D03*
X78956804Y-100159034D03*
%TD*%
D38*
%TO.C,R13*%
X60976804Y-55459034D03*
X60976804Y-57959034D03*
X60976804Y-60459034D03*
X63476804Y-55459034D03*
X63476804Y-57959034D03*
X63476804Y-60459034D03*
X69726804Y-55459034D03*
X69726804Y-60459034D03*
%TD*%
D23*
%TO.C,U32*%
X223226804Y-83309034D03*
X223226804Y-84059034D03*
X220726804Y-83309034D03*
X223226804Y-82559034D03*
X220726804Y-84059034D03*
X223226804Y-81809034D03*
X220726804Y-82559034D03*
X220726804Y-81809034D03*
%TD*%
D20*
%TO.C,J17*%
X225976804Y-33059034D03*
D21*
X228516804Y-33059034D03*
X231056804Y-33059034D03*
X233596804Y-33059034D03*
X236136804Y-33059034D03*
X238676804Y-33059034D03*
%TD*%
D31*
%TO.C,H5*%
X177878748Y-134928590D03*
X181975804Y-133231534D03*
X181272860Y-134928590D03*
D32*
X179575804Y-133231534D03*
D31*
X177878748Y-131534478D03*
X179575804Y-130831534D03*
X179575804Y-135631534D03*
X177175804Y-133231534D03*
X181272860Y-131534478D03*
%TD*%
D22*
%TO.C,TP8*%
X76076804Y-69259034D03*
%TD*%
%TO.C,TP1*%
X65176804Y-134059034D03*
%TD*%
D20*
%TO.C,J4*%
X104436804Y-83859034D03*
D21*
X106976804Y-83859034D03*
X109516804Y-83859034D03*
X112056804Y-83859034D03*
X114596804Y-83859034D03*
X117136804Y-83859034D03*
X119676804Y-83859034D03*
%TD*%
D29*
%TO.C,J1*%
X57176804Y-73259034D03*
X59626804Y-71259034D03*
X63326804Y-73259034D03*
X65226804Y-71259034D03*
X68976804Y-73259034D03*
%TD*%
D20*
%TO.C,J26*%
X291976804Y-33059034D03*
D21*
X294516804Y-33059034D03*
X297056804Y-33059034D03*
X299596804Y-33059034D03*
X302136804Y-33059034D03*
X304676804Y-33059034D03*
%TD*%
D22*
%TO.C,TP5*%
X71676804Y-134059034D03*
%TD*%
D20*
%TO.C,J27*%
X304676804Y-133059034D03*
D21*
X302136804Y-133059034D03*
X299596804Y-133059034D03*
X297056804Y-133059034D03*
X294516804Y-133059034D03*
X291976804Y-133059034D03*
%TD*%
D20*
%TO.C,J12*%
X104536804Y-91659034D03*
D21*
X107076804Y-91659034D03*
X109616804Y-91659034D03*
X112156804Y-91659034D03*
X114696804Y-91659034D03*
X117236804Y-91659034D03*
X119776804Y-91659034D03*
%TD*%
D25*
%TO.C,SW5*%
X80976804Y-119059034D03*
X80976804Y-128059034D03*
D22*
X87226804Y-126059034D03*
X74726804Y-126059034D03*
X87226804Y-121059034D03*
X74726804Y-121059034D03*
%TD*%
D20*
%TO.C,J8*%
X193975804Y-135131534D03*
D21*
X193975804Y-132591534D03*
X193975804Y-130051534D03*
X193975804Y-127511534D03*
X193975804Y-124971534D03*
X193975804Y-122431534D03*
%TD*%
D24*
%TO.C,SW9*%
X128326804Y-59249034D03*
X125786804Y-59249034D03*
X123246804Y-59249034D03*
X120706804Y-59249034D03*
X118166804Y-59249034D03*
X115626804Y-59249034D03*
X115626804Y-66869034D03*
X118166804Y-66869034D03*
X120706804Y-66869034D03*
X123246804Y-66869034D03*
X125786804Y-66869034D03*
X128326804Y-66869034D03*
%TD*%
D29*
%TO.C,J11*%
X57162591Y-85409034D03*
X59612591Y-83409034D03*
X63312591Y-85409034D03*
X65212591Y-83409034D03*
X68962591Y-85409034D03*
%TD*%
D20*
%TO.C,J6*%
X93975804Y-122431534D03*
D21*
X93975804Y-124971534D03*
X93975804Y-127511534D03*
X93975804Y-130051534D03*
X93975804Y-132591534D03*
X93975804Y-135131534D03*
%TD*%
D20*
%TO.C,J14*%
X247976804Y-33059034D03*
D21*
X250516804Y-33059034D03*
X253056804Y-33059034D03*
X255596804Y-33059034D03*
X258136804Y-33059034D03*
X260676804Y-33059034D03*
%TD*%
D31*
%TO.C,H3*%
X113373860Y-113461978D03*
X109979748Y-116856090D03*
X114076804Y-115159034D03*
X109276804Y-115159034D03*
X109979748Y-113461978D03*
X111676804Y-112759034D03*
D32*
X111676804Y-115159034D03*
D31*
X113373860Y-116856090D03*
X111676804Y-117559034D03*
%TD*%
D23*
%TO.C,U36*%
X289226804Y-128809034D03*
X289226804Y-129559034D03*
X286726804Y-130309034D03*
X286726804Y-131059034D03*
X286726804Y-128809034D03*
X289226804Y-130309034D03*
X286726804Y-129559034D03*
X289226804Y-131059034D03*
%TD*%
%TO.C,U34*%
X223226804Y-34809034D03*
X223226804Y-36309034D03*
X223226804Y-37059034D03*
X223226804Y-35559034D03*
X220726804Y-35559034D03*
X220726804Y-37059034D03*
X220726804Y-34809034D03*
X220726804Y-36309034D03*
%TD*%
%TO.C,U21*%
X201226804Y-81809034D03*
X198726804Y-82559034D03*
X201226804Y-84059034D03*
X198726804Y-81809034D03*
X201226804Y-83309034D03*
X201226804Y-82559034D03*
X198726804Y-83309034D03*
X198726804Y-84059034D03*
%TD*%
D22*
%TO.C,TP2*%
X58476804Y-134059034D03*
%TD*%
D23*
%TO.C,U31*%
X242726804Y-36309034D03*
X245226804Y-34809034D03*
X242726804Y-34809034D03*
X245226804Y-36309034D03*
X245226804Y-35559034D03*
X242726804Y-37059034D03*
X245226804Y-37059034D03*
X242726804Y-35559034D03*
%TD*%
%TO.C,U29*%
X264726804Y-34809034D03*
X267226804Y-34809034D03*
X267226804Y-36309034D03*
X267226804Y-35559034D03*
X267226804Y-37059034D03*
X264726804Y-37059034D03*
X264726804Y-35559034D03*
X264726804Y-36309034D03*
%TD*%
%TO.C,U24*%
X264726804Y-82559034D03*
X267226804Y-82559034D03*
X264726804Y-84059034D03*
X264726804Y-81809034D03*
X267226804Y-81809034D03*
X267226804Y-83309034D03*
X264726804Y-83309034D03*
X267226804Y-84059034D03*
%TD*%
%TO.C,U28*%
X286726804Y-82559034D03*
X289226804Y-81809034D03*
X286726804Y-81809034D03*
X286726804Y-84059034D03*
X289226804Y-84059034D03*
X289226804Y-82559034D03*
X286726804Y-83309034D03*
X289226804Y-83309034D03*
%TD*%
%TO.C,U33*%
X308726804Y-36309034D03*
X308726804Y-35559034D03*
X311226804Y-37059034D03*
X308726804Y-37059034D03*
X308726804Y-34809034D03*
X311226804Y-34809034D03*
X311226804Y-36309034D03*
X311226804Y-35559034D03*
%TD*%
D39*
%TO.C,SW7*%
X165276804Y-102759034D03*
D19*
X165276804Y-107759034D03*
X150776804Y-102759034D03*
X150776804Y-107759034D03*
X150776804Y-105259034D03*
D40*
X158276804Y-99559034D03*
X158276804Y-110959034D03*
%TD*%
D23*
%TO.C,U23*%
X220726804Y-130309034D03*
X223226804Y-130309034D03*
X220726804Y-131059034D03*
X223226804Y-129559034D03*
X223226804Y-131059034D03*
X220726804Y-129559034D03*
X223226804Y-128809034D03*
X220726804Y-128809034D03*
%TD*%
D31*
X168536682Y-72399156D03*
X184775804Y-130931034D03*
X74176804Y-54059034D03*
X188685804Y-63259034D03*
X100876804Y-67659034D03*
X166175804Y-124731534D03*
X140476804Y-118559034D03*
X102476804Y-57459034D03*
X158675804Y-129631534D03*
X163186304Y-77938736D03*
X158185804Y-85199034D03*
X108576804Y-87359034D03*
X192385804Y-69299034D03*
X164075804Y-130631534D03*
X126976804Y-85859034D03*
X117076804Y-77759034D03*
X166685804Y-85959034D03*
X189976804Y-89659034D03*
X162376804Y-81859034D03*
X157276803Y-62359033D03*
X107376804Y-59959034D03*
X167276804Y-100559034D03*
X173585804Y-50459034D03*
X124476804Y-82659034D03*
X89085804Y-72759034D03*
X157085804Y-50059034D03*
D41*
X100476804Y-54559034D03*
D31*
X89476804Y-61659034D03*
X135075804Y-130831534D03*
X143575804Y-124331534D03*
X167785804Y-50459034D03*
X163176804Y-48259534D03*
X132176804Y-57759034D03*
X127476804Y-91859034D03*
X161348956Y-94485125D03*
X195976804Y-135559034D03*
X83675804Y-124031534D03*
X157975804Y-120731534D03*
X131876804Y-65059034D03*
X176785804Y-30859034D03*
X132476804Y-108259034D03*
X143385804Y-65559034D03*
X100275804Y-130931534D03*
X142075804Y-108431534D03*
X132576804Y-105559034D03*
X174976804Y-109059034D03*
X149675804Y-118631534D03*
D41*
X97976804Y-54559034D03*
D31*
X185685804Y-51059034D03*
X152275804Y-132331534D03*
X109175804Y-126331534D03*
X94476804Y-66359034D03*
X112226804Y-58809034D03*
X89376804Y-58259034D03*
X180476804Y-118659034D03*
X146376804Y-125859034D03*
X88975804Y-93431534D03*
X196576804Y-91559034D03*
X137476804Y-73309034D03*
X88176804Y-79459034D03*
X119976804Y-95759034D03*
X183985804Y-49759034D03*
X176055926Y-101679912D03*
X174775804Y-129831534D03*
X150775804Y-125132034D03*
D41*
X97381804Y-60309034D03*
D31*
X96375804Y-124331534D03*
D42*
X84476804Y-75159034D03*
D31*
X136285804Y-69399034D03*
X98975804Y-77551534D03*
X176885804Y-38759034D03*
X162785804Y-62799034D03*
X188882427Y-81259534D03*
X106226804Y-81309034D03*
X150675804Y-136431534D03*
X116276804Y-94359034D03*
X84476804Y-86959034D03*
X168875804Y-105031534D03*
X85776804Y-84359034D03*
X154976804Y-89759034D03*
X72876804Y-94659034D03*
X169376804Y-48259534D03*
X137576804Y-122659034D03*
X147785804Y-75099034D03*
X91175804Y-103731534D03*
X138276804Y-86059034D03*
X89676804Y-54359034D03*
X90851327Y-112433557D03*
X166376804Y-89859034D03*
X165476804Y-45859534D03*
X161475804Y-124531534D03*
X174253266Y-57226496D03*
X84934815Y-118531534D03*
X113276804Y-81659034D03*
X162285804Y-50059034D03*
X120076804Y-50359034D03*
X91585804Y-90859034D03*
X191475804Y-128931534D03*
X89975804Y-77051534D03*
X150185804Y-37899034D03*
X132276804Y-110559034D03*
X117676804Y-63859034D03*
X107976804Y-77559034D03*
X175685804Y-76899034D03*
X184976804Y-92359034D03*
X183885804Y-66059034D03*
X147575804Y-108931534D03*
X131976804Y-116059034D03*
X184185804Y-71959034D03*
X107476804Y-50459034D03*
X130776804Y-122959034D03*
X166485804Y-53259034D03*
X182985804Y-55159034D03*
X175176804Y-92659034D03*
X100275804Y-96831534D03*
X189276804Y-125132034D03*
X184085804Y-79799034D03*
X161625804Y-132381534D03*
X190770426Y-130936912D03*
X140975804Y-110431534D03*
X184285804Y-75559034D03*
X168676804Y-118959034D03*
X160775804Y-136731534D03*
X159085804Y-59799034D03*
X113576804Y-73359034D03*
X192585804Y-64459034D03*
X157776804Y-71959034D03*
X192185804Y-47799034D03*
X182755926Y-108379912D03*
X100675804Y-115731534D03*
X151775804Y-115431534D03*
X123776804Y-92059034D03*
X175185804Y-71559034D03*
X122076804Y-68159034D03*
X130076804Y-51759034D03*
X126175804Y-126131534D03*
X161185804Y-45099034D03*
X74376804Y-92659034D03*
X92475804Y-70551534D03*
X77726804Y-89559034D03*
X104976804Y-86859034D03*
X145375804Y-114331534D03*
X65976804Y-87059034D03*
X182285804Y-77399034D03*
X121324486Y-82493045D03*
X126176804Y-119059034D03*
X186475804Y-111431534D03*
X182685804Y-60099034D03*
X81176804Y-90059034D03*
D41*
X98981804Y-61109034D03*
D31*
X192075804Y-118231534D03*
X111376804Y-54559034D03*
X152585804Y-79699034D03*
X166275804Y-134031534D03*
X77876804Y-86459034D03*
X192275804Y-112931534D03*
X90176804Y-133159034D03*
X166085304Y-71188519D03*
X150585804Y-47759034D03*
X175485804Y-59799534D03*
X103376804Y-60359034D03*
X112075804Y-68731534D03*
D41*
X98976804Y-53559034D03*
D31*
X187185804Y-60199034D03*
X183175804Y-124931534D03*
X132876804Y-60559034D03*
X96076804Y-81159034D03*
X167275804Y-130231534D03*
X138976804Y-60659034D03*
X192385804Y-72099034D03*
X96964577Y-106320307D03*
X155585804Y-38099034D03*
X157291012Y-65558044D03*
X118362182Y-81644412D03*
X104176804Y-65459034D03*
X185576804Y-95359034D03*
D41*
X96476804Y-53559034D03*
D31*
X160176804Y-65759034D03*
D42*
X84076804Y-78759034D03*
D31*
X195876804Y-129859034D03*
X142876804Y-91859034D03*
X127476804Y-77759034D03*
X139176804Y-48159034D03*
X192085804Y-77399034D03*
X170730815Y-45729556D03*
X136876804Y-56159034D03*
X190376804Y-80159034D03*
X116676804Y-73259034D03*
X87550081Y-66692265D03*
X183285804Y-83958534D03*
X78675804Y-102431534D03*
X189485804Y-54859034D03*
X92975804Y-84051534D03*
X151775804Y-129631534D03*
X105076804Y-68459034D03*
X140276804Y-73259034D03*
X174676804Y-98259034D03*
X114876804Y-86759034D03*
X153675804Y-122831534D03*
X158275804Y-125331534D03*
X99624815Y-100540454D03*
X129976804Y-69459034D03*
X139526804Y-56109034D03*
X185176804Y-54459034D03*
X109376804Y-76959034D03*
X137076804Y-57859034D03*
X156875804Y-132331534D03*
X161856781Y-78239011D03*
X145475804Y-105431534D03*
X160976804Y-68259034D03*
X177005804Y-68869034D03*
X156375804Y-124931534D03*
X159776804Y-69059034D03*
X160925304Y-79439011D03*
X157775804Y-131831534D03*
X144455926Y-72079912D03*
X143185804Y-71859034D03*
X144295926Y-67878156D03*
X136575768Y-76970825D03*
X190576804Y-83959034D03*
X157776804Y-38659034D03*
X148876804Y-39159034D03*
X133076804Y-56659034D03*
X175076804Y-88359034D03*
X100096632Y-75986665D03*
X139790920Y-70873150D03*
X143385804Y-70099034D03*
X90685804Y-86808534D03*
X127176804Y-56459034D03*
X72976804Y-102459034D03*
X141985804Y-69199034D03*
X138476804Y-76059034D03*
X190577793Y-86055250D03*
X86785804Y-89499034D03*
X98385804Y-80059034D03*
X100091170Y-86051859D03*
X111185804Y-97759034D03*
X156285804Y-94859034D03*
X164185804Y-82959034D03*
X111385804Y-101959534D03*
X164685804Y-58459034D03*
X141379049Y-94852279D03*
X109941182Y-97503656D03*
X97085804Y-80259034D03*
X155285804Y-95559034D03*
X142085804Y-95559034D03*
X165385804Y-57058534D03*
X109885804Y-102059034D03*
X165385804Y-82859034D03*
X99492559Y-86852279D03*
X163885804Y-60059034D03*
X156785804Y-93859034D03*
X98885804Y-87659034D03*
X142185804Y-94159034D03*
X163085804Y-82759034D03*
X96185804Y-82559034D03*
X108585804Y-97858044D03*
X108285804Y-101059034D03*
X137025815Y-61311641D03*
X132576804Y-69059034D03*
X114876804Y-76359034D03*
X139782918Y-58465148D03*
X177285804Y-54799034D03*
X142079531Y-57559034D03*
X112676804Y-77459034D03*
X132585804Y-66259034D03*
X187776804Y-57859034D03*
X137025815Y-59812622D03*
X159276804Y-61659034D03*
X161976804Y-72259034D03*
X163176804Y-73659034D03*
X160675676Y-60899034D03*
X140185804Y-59659034D03*
X188785804Y-60359034D03*
X136385804Y-84459034D03*
X183777803Y-58858044D03*
X187677304Y-77741531D03*
X190985804Y-62999034D03*
X143176804Y-53259034D03*
X190976804Y-75759034D03*
X162015804Y-87639790D03*
X176385804Y-90159034D03*
X186876804Y-64359034D03*
X141220486Y-51949008D03*
X190721426Y-45503656D03*
X169875804Y-93731534D03*
X190076804Y-76959034D03*
X190085804Y-70599034D03*
X144226804Y-52809034D03*
X168465038Y-89758534D03*
X168385804Y-83859034D03*
X143885804Y-62012873D03*
X190082182Y-82453656D03*
X170476804Y-92258045D03*
X189676804Y-78259034D03*
X189276804Y-71559034D03*
X188747760Y-79699955D03*
X188376804Y-73159034D03*
X171731984Y-58758534D03*
X158076804Y-70059034D03*
X159476804Y-63559034D03*
X187929339Y-80860023D03*
X142685804Y-61459034D03*
X188685804Y-82459034D03*
X178663475Y-110672363D03*
X185985804Y-76159034D03*
X121976804Y-87259034D03*
X185985804Y-62059034D03*
X151476804Y-90859034D03*
X177877304Y-114859034D03*
X98875315Y-98232023D03*
X108476804Y-66659034D03*
X90765855Y-121545352D03*
X90776804Y-118459034D03*
X139870426Y-130236912D03*
X139675804Y-125731534D03*
X138375804Y-130431534D03*
X138375804Y-126431534D03*
X145975804Y-129231534D03*
X164575804Y-131931534D03*
X161575804Y-129531534D03*
X161575804Y-128131534D03*
X160275804Y-127431534D03*
X160275804Y-129531534D03*
X213476804Y-38559034D03*
X205476804Y-129809034D03*
X215976804Y-36059034D03*
X214976804Y-37309034D03*
X219226804Y-33059034D03*
X214976804Y-128809034D03*
X202976804Y-128809034D03*
X250149304Y-129559034D03*
X263649304Y-131559034D03*
X235976804Y-36559034D03*
X241899304Y-133059034D03*
X237976804Y-36059034D03*
X229226804Y-129809034D03*
X285399304Y-131809034D03*
X272399304Y-129559034D03*
X324976804Y-35309034D03*
X315569304Y-130309034D03*
X328976804Y-34809034D03*
X329069304Y-130559034D03*
X303476804Y-38309034D03*
X301476804Y-38809034D03*
X294399304Y-129559034D03*
X307899304Y-133059034D03*
X159532182Y-52660023D03*
X164085804Y-52559034D03*
X171585804Y-50659034D03*
X160785804Y-50559034D03*
X153585804Y-87959034D03*
X142085804Y-70848534D03*
X135885304Y-78058534D03*
X190877304Y-50028517D03*
X134826304Y-66939089D03*
X120396443Y-78209534D03*
X113054762Y-99634054D03*
X137976804Y-63259034D03*
X93785804Y-87359034D03*
X100985804Y-77499034D03*
X88785804Y-104259034D03*
X71575804Y-74131534D03*
D42*
X82676804Y-77159034D03*
D31*
X66976804Y-65059034D03*
X75575804Y-81431534D03*
X57176804Y-54359034D03*
X165875804Y-131931534D03*
X145675804Y-112031534D03*
X135176804Y-104459034D03*
X153675804Y-119531534D03*
X135876804Y-64059034D03*
X142723305Y-130358175D03*
X142575804Y-127631534D03*
X141475804Y-128831534D03*
X141820426Y-130786912D03*
X166785804Y-57559034D03*
X185185804Y-64259034D03*
X168285804Y-56359034D03*
X166085804Y-58459034D03*
M02*
