M48
; DRILL file {KiCad (6.0.5)} date Sun Jul 17 18:42:08 2022
; FORMAT={-:-/ absolute / inch / decimal}
; #@! TF.CreationDate,2022-07-17T18:42:08+02:00
; #@! TF.GenerationSoftware,Kicad,Pcbnew,(6.0.5)
; #@! TF.FileFunction,NonPlated,1,2,NPTH
FMAT,2
INCH
; #@! TA.AperFunction,NonPlated,NPTH,ComponentDrill
T1C0.0197
; #@! TA.AperFunction,NonPlated,NPTH,ComponentDrill
T2C0.0256
; #@! TA.AperFunction,NonPlated,NPTH,ComponentDrill
T3C0.0394
; #@! TA.AperFunction,NonPlated,NPTH,ComponentDrill
T4C0.0453
; #@! TA.AperFunction,NonPlated,NPTH,ComponentDrill
T5C0.0650
; #@! TA.AperFunction,NonPlated,NPTH,ComponentDrill
T6C0.0728
; #@! TA.AperFunction,NonPlated,NPTH,ComponentDrill
T7C0.0941
; #@! TA.AperFunction,NonPlated,NPTH,ComponentDrill
T8C0.1358
%
G90
G05
T1
X7.8239Y-1.3704
X7.8239Y-1.4
X7.8239Y-1.4295
X7.8239Y-1.459
X7.8239Y-3.2208
X7.8239Y-3.2504
X7.8239Y-3.2799
X7.8239Y-3.3094
X7.8239Y-5.0712
X7.8239Y-5.1007
X7.8239Y-5.1303
X7.8239Y-5.1598
X7.9223Y-1.3704
X7.9223Y-1.4
X7.9223Y-1.4295
X7.9223Y-1.459
X7.9223Y-3.2208
X7.9223Y-3.2504
X7.9223Y-3.2799
X7.9223Y-3.3094
X7.9223Y-5.0712
X7.9223Y-5.1007
X7.9223Y-5.1303
X7.9223Y-5.1598
X8.69Y-1.3704
X8.69Y-1.4
X8.69Y-1.4295
X8.69Y-1.459
X8.69Y-3.2208
X8.69Y-3.2504
X8.69Y-3.2799
X8.69Y-3.3094
X8.69Y-5.0712
X8.69Y-5.1007
X8.69Y-5.1303
X8.69Y-5.1598
X8.7885Y-1.3704
X8.7885Y-1.4
X8.7885Y-1.4295
X8.7885Y-1.459
X8.7885Y-3.2208
X8.7885Y-3.2504
X8.7885Y-3.2799
X8.7885Y-3.3094
X8.7885Y-5.0712
X8.7885Y-5.1007
X8.7885Y-5.1303
X8.7885Y-5.1598
X9.5562Y-1.3704
X9.5562Y-1.4
X9.5562Y-1.4295
X9.5562Y-1.459
X9.5562Y-3.2208
X9.5562Y-3.2504
X9.5562Y-3.2799
X9.5562Y-3.3094
X9.5562Y-5.0712
X9.5562Y-5.1007
X9.5562Y-5.1303
X9.5562Y-5.1598
X9.6546Y-1.3704
X9.6546Y-1.4
X9.6546Y-1.4295
X9.6546Y-1.459
X9.6546Y-3.2208
X9.6546Y-3.2504
X9.6546Y-3.2799
X9.6546Y-3.3094
X9.6546Y-5.0712
X9.6546Y-5.1007
X9.6546Y-5.1303
X9.6546Y-5.1598
X10.4223Y-1.3704
X10.4223Y-1.4
X10.4223Y-1.4295
X10.4223Y-1.459
X10.4223Y-3.2208
X10.4223Y-3.2504
X10.4223Y-3.2799
X10.4223Y-3.3094
X10.4223Y-5.0712
X10.4223Y-5.1007
X10.4223Y-5.1303
X10.4223Y-5.1598
X10.5207Y-1.3704
X10.5207Y-1.4
X10.5207Y-1.4295
X10.5207Y-1.459
X10.5207Y-3.2208
X10.5207Y-3.2504
X10.5207Y-3.2799
X10.5207Y-3.3094
X10.5207Y-5.0712
X10.5207Y-5.1007
X10.5207Y-5.1303
X10.5207Y-5.1598
X11.2885Y-1.3704
X11.2885Y-1.4
X11.2885Y-1.4295
X11.2885Y-1.459
X11.2885Y-3.2208
X11.2885Y-3.2504
X11.2885Y-3.2799
X11.2885Y-3.3094
X11.2885Y-5.0712
X11.2885Y-5.1007
X11.2885Y-5.1303
X11.2885Y-5.1598
X11.3869Y-1.3704
X11.3869Y-1.4
X11.3869Y-1.4295
X11.3869Y-1.459
X11.3869Y-3.2208
X11.3869Y-3.2504
X11.3869Y-3.2799
X11.3869Y-3.3094
X11.3869Y-5.0712
X11.3869Y-5.1007
X11.3869Y-5.1303
X11.3869Y-5.1598
X12.1546Y-1.3704
X12.1546Y-1.4
X12.1546Y-1.4295
X12.1546Y-1.459
X12.1546Y-3.2208
X12.1546Y-3.2504
X12.1546Y-3.2799
X12.1546Y-3.3094
X12.1546Y-5.0712
X12.1546Y-5.1007
X12.1546Y-5.1303
X12.1546Y-5.1598
X12.253Y-1.3704
X12.253Y-1.4
X12.253Y-1.4295
X12.253Y-1.459
X12.253Y-3.2208
X12.253Y-3.2504
X12.253Y-3.2799
X12.253Y-3.3094
X12.253Y-5.0712
X12.253Y-5.1007
X12.253Y-5.1303
X12.253Y-5.1598
T2
X5.9208Y-1.3529
X6.1483Y-1.3529
T3
X6.4756Y-1.2617
X6.7906Y-1.2617
T4
X6.0045Y-2.8291
T5
X6.0045Y-2.0417
T6
X2.5778Y-4.1559
X2.5778Y-4.5102
X2.5778Y-4.6874
X2.5778Y-5.0417
X3.1881Y-4.1559
X3.1881Y-4.5102
X3.1881Y-4.6874
X3.1881Y-5.0417
T7
X2.679Y-1.2228
T8
X3.007Y-1.8527
X5.1802Y-1.2228
T0
M30
