%TF.GenerationSoftware,KiCad,Pcbnew,(6.0.5)*%
%TF.CreationDate,2022-07-28T21:37:22+02:00*%
%TF.ProjectId,clarinoid-devboard,636c6172-696e-46f6-9964-2d646576626f,rev?*%
%TF.SameCoordinates,Original*%
%TF.FileFunction,Paste,Top*%
%TF.FilePolarity,Positive*%
%FSLAX46Y46*%
G04 Gerber Fmt 4.6, Leading zero omitted, Abs format (unit mm)*
G04 Created by KiCad (PCBNEW (6.0.5)) date 2022-07-28 21:37:22*
%MOMM*%
%LPD*%
G01*
G04 APERTURE LIST*
G04 Aperture macros list*
%AMRoundRect*
0 Rectangle with rounded corners*
0 $1 Rounding radius*
0 $2 $3 $4 $5 $6 $7 $8 $9 X,Y pos of 4 corners*
0 Add a 4 corners polygon primitive as box body*
4,1,4,$2,$3,$4,$5,$6,$7,$8,$9,$2,$3,0*
0 Add four circle primitives for the rounded corners*
1,1,$1+$1,$2,$3*
1,1,$1+$1,$4,$5*
1,1,$1+$1,$6,$7*
1,1,$1+$1,$8,$9*
0 Add four rect primitives between the rounded corners*
20,1,$1+$1,$2,$3,$4,$5,0*
20,1,$1+$1,$4,$5,$6,$7,0*
20,1,$1+$1,$6,$7,$8,$9,0*
20,1,$1+$1,$8,$9,$2,$3,0*%
%AMFreePoly0*
4,1,14,0.354215,0.088284,0.450784,-0.008285,0.462500,-0.036569,0.462500,-0.060000,0.450784,-0.088284,0.422500,-0.100000,-0.422500,-0.100000,-0.450784,-0.088284,-0.462500,-0.060000,-0.462500,0.060000,-0.450784,0.088284,-0.422500,0.100000,0.325931,0.100000,0.354215,0.088284,0.354215,0.088284,$1*%
%AMFreePoly1*
4,1,14,0.450784,0.088284,0.462500,0.060000,0.462500,0.036569,0.450784,0.008285,0.354215,-0.088284,0.325931,-0.100000,-0.422500,-0.100000,-0.450784,-0.088284,-0.462500,-0.060000,-0.462500,0.060000,-0.450784,0.088284,-0.422500,0.100000,0.422500,0.100000,0.450784,0.088284,0.450784,0.088284,$1*%
%AMFreePoly2*
4,1,14,0.088284,0.450784,0.100000,0.422500,0.100000,-0.422500,0.088284,-0.450784,0.060000,-0.462500,-0.060000,-0.462500,-0.088284,-0.450784,-0.100000,-0.422500,-0.100000,0.325931,-0.088284,0.354215,0.008285,0.450784,0.036569,0.462500,0.060000,0.462500,0.088284,0.450784,0.088284,0.450784,$1*%
%AMFreePoly3*
4,1,14,-0.008285,0.450784,0.088284,0.354215,0.100000,0.325931,0.100000,-0.422500,0.088284,-0.450784,0.060000,-0.462500,-0.060000,-0.462500,-0.088284,-0.450784,-0.100000,-0.422500,-0.100000,0.422500,-0.088284,0.450784,-0.060000,0.462500,-0.036569,0.462500,-0.008285,0.450784,-0.008285,0.450784,$1*%
%AMFreePoly4*
4,1,14,0.450784,0.088284,0.462500,0.060000,0.462500,-0.060000,0.450784,-0.088284,0.422500,-0.100000,-0.325931,-0.100000,-0.354215,-0.088284,-0.450784,0.008285,-0.462500,0.036569,-0.462500,0.060000,-0.450784,0.088284,-0.422500,0.100000,0.422500,0.100000,0.450784,0.088284,0.450784,0.088284,$1*%
%AMFreePoly5*
4,1,14,0.450784,0.088284,0.462500,0.060000,0.462500,-0.060000,0.450784,-0.088284,0.422500,-0.100000,-0.422500,-0.100000,-0.450784,-0.088284,-0.462500,-0.060000,-0.462500,-0.036569,-0.450784,-0.008285,-0.354215,0.088284,-0.325931,0.100000,0.422500,0.100000,0.450784,0.088284,0.450784,0.088284,$1*%
%AMFreePoly6*
4,1,14,0.088284,0.450784,0.100000,0.422500,0.100000,-0.325931,0.088284,-0.354215,-0.008285,-0.450784,-0.036569,-0.462500,-0.060000,-0.462500,-0.088284,-0.450784,-0.100000,-0.422500,-0.100000,0.422500,-0.088284,0.450784,-0.060000,0.462500,0.060000,0.462500,0.088284,0.450784,0.088284,0.450784,$1*%
%AMFreePoly7*
4,1,14,0.088284,0.450784,0.100000,0.422500,0.100000,-0.422500,0.088284,-0.450784,0.060000,-0.462500,0.036569,-0.462500,0.008285,-0.450784,-0.088284,-0.354215,-0.100000,-0.325931,-0.100000,0.422500,-0.088284,0.450784,-0.060000,0.462500,0.060000,0.462500,0.088284,0.450784,0.088284,0.450784,$1*%
G04 Aperture macros list end*
%ADD10R,1.300000X1.700000*%
%ADD11RoundRect,0.218750X-0.256250X0.218750X-0.256250X-0.218750X0.256250X-0.218750X0.256250X0.218750X0*%
%ADD12RoundRect,0.250000X-0.475000X0.250000X-0.475000X-0.250000X0.475000X-0.250000X0.475000X0.250000X0*%
%ADD13RoundRect,0.250000X0.475000X-0.250000X0.475000X0.250000X-0.475000X0.250000X-0.475000X-0.250000X0*%
%ADD14RoundRect,0.250000X0.625000X-0.312500X0.625000X0.312500X-0.625000X0.312500X-0.625000X-0.312500X0*%
%ADD15RoundRect,0.250000X-0.312500X-0.625000X0.312500X-0.625000X0.312500X0.625000X-0.312500X0.625000X0*%
%ADD16RoundRect,0.250000X0.250000X0.475000X-0.250000X0.475000X-0.250000X-0.475000X0.250000X-0.475000X0*%
%ADD17R,0.450000X1.475000*%
%ADD18R,0.700000X0.950000*%
%ADD19R,2.850000X2.250000*%
%ADD20R,7.340000X6.350000*%
%ADD21R,1.850000X3.500000*%
%ADD22R,1.000000X0.750000*%
%ADD23RoundRect,0.243750X-0.456250X0.243750X-0.456250X-0.243750X0.456250X-0.243750X0.456250X0.243750X0*%
%ADD24R,0.300000X0.800000*%
%ADD25R,0.800000X0.300000*%
%ADD26R,1.800000X1.800000*%
%ADD27FreePoly0,0.000000*%
%ADD28RoundRect,0.050000X-0.412500X-0.050000X0.412500X-0.050000X0.412500X0.050000X-0.412500X0.050000X0*%
%ADD29FreePoly1,0.000000*%
%ADD30FreePoly2,0.000000*%
%ADD31RoundRect,0.050000X-0.050000X-0.412500X0.050000X-0.412500X0.050000X0.412500X-0.050000X0.412500X0*%
%ADD32FreePoly3,0.000000*%
%ADD33FreePoly4,0.000000*%
%ADD34FreePoly5,0.000000*%
%ADD35FreePoly6,0.000000*%
%ADD36FreePoly7,0.000000*%
%ADD37R,0.300000X1.150000*%
%ADD38RoundRect,0.243750X0.456250X-0.243750X0.456250X0.243750X-0.456250X0.243750X-0.456250X-0.243750X0*%
%ADD39RoundRect,0.250000X0.312500X0.625000X-0.312500X0.625000X-0.312500X-0.625000X0.312500X-0.625000X0*%
%ADD40RoundRect,0.250000X-0.250000X-0.475000X0.250000X-0.475000X0.250000X0.475000X-0.250000X0.475000X0*%
%ADD41R,1.600000X0.700000*%
%ADD42R,1.500000X1.200000*%
%ADD43R,2.200000X1.200000*%
%ADD44R,1.500000X1.600000*%
%ADD45RoundRect,0.100000X-0.637500X-0.100000X0.637500X-0.100000X0.637500X0.100000X-0.637500X0.100000X0*%
%ADD46R,1.550000X0.300000*%
%ADD47R,2.750000X1.200000*%
%ADD48R,0.450000X0.600000*%
%ADD49RoundRect,0.150000X-0.512500X-0.150000X0.512500X-0.150000X0.512500X0.150000X-0.512500X0.150000X0*%
%ADD50RoundRect,0.150000X0.512500X0.150000X-0.512500X0.150000X-0.512500X-0.150000X0.512500X-0.150000X0*%
G04 APERTURE END LIST*
D10*
%TO.C,D12*%
X532526804Y-150850034D03*
X536026804Y-150850034D03*
%TD*%
D11*
%TO.C,D5*%
X384739304Y-95600034D03*
X384739304Y-97175034D03*
%TD*%
D12*
%TO.C,C4*%
X353084556Y-35125729D03*
X353084556Y-37025729D03*
%TD*%
D13*
%TO.C,C21*%
X422789304Y-72150034D03*
X422789304Y-70250034D03*
%TD*%
D11*
%TO.C,D7*%
X383139304Y-95600034D03*
X383139304Y-97175034D03*
%TD*%
D14*
%TO.C,R35*%
X384339304Y-93850034D03*
X384339304Y-90925034D03*
%TD*%
D15*
%TO.C,R40*%
X343876804Y-60350034D03*
X346801804Y-60350034D03*
%TD*%
D12*
%TO.C,C1*%
X523339304Y-147000034D03*
X523339304Y-148900034D03*
%TD*%
D13*
%TO.C,C23*%
X426989304Y-72150034D03*
X426989304Y-70250034D03*
%TD*%
D15*
%TO.C,R10*%
X381746804Y-174050034D03*
X384671804Y-174050034D03*
%TD*%
D16*
%TO.C,C14*%
X369684556Y-29675729D03*
X367784556Y-29675729D03*
%TD*%
D13*
%TO.C,C29*%
X534539304Y-148900034D03*
X534539304Y-147000034D03*
%TD*%
D16*
%TO.C,C25*%
X488761804Y-144051034D03*
X486861804Y-144051034D03*
%TD*%
D11*
%TO.C,D9*%
X379939304Y-95600034D03*
X379939304Y-97175034D03*
%TD*%
D16*
%TO.C,C18*%
X358980304Y-175810034D03*
X357080304Y-175810034D03*
%TD*%
D13*
%TO.C,C20*%
X420689304Y-72150034D03*
X420689304Y-70250034D03*
%TD*%
D17*
%TO.C,IC1*%
X345864304Y-94788034D03*
X346514304Y-94788034D03*
X347164304Y-94788034D03*
X347814304Y-94788034D03*
X348464304Y-94788034D03*
X349114304Y-94788034D03*
X349764304Y-94788034D03*
X350414304Y-94788034D03*
X350414304Y-88912034D03*
X349764304Y-88912034D03*
X349114304Y-88912034D03*
X348464304Y-88912034D03*
X347814304Y-88912034D03*
X347164304Y-88912034D03*
X346514304Y-88912034D03*
X345864304Y-88912034D03*
%TD*%
D14*
%TO.C,R19*%
X368184556Y-54138229D03*
X368184556Y-51213229D03*
%TD*%
D18*
%TO.C,IC2*%
X375234304Y-177750034D03*
X376504304Y-177750034D03*
X377774304Y-177750034D03*
X379044304Y-177750034D03*
X379044304Y-171800034D03*
X377774304Y-171800034D03*
X376504304Y-171800034D03*
X375234304Y-171800034D03*
D19*
X377139304Y-174775034D03*
%TD*%
D12*
%TO.C,C12*%
X348684556Y-32825729D03*
X348684556Y-34725729D03*
%TD*%
%TO.C,C26*%
X527539304Y-147000034D03*
X527539304Y-148900034D03*
%TD*%
D20*
%TO.C,BT1*%
X335534449Y-160015736D03*
X414194449Y-160015736D03*
%TD*%
D21*
%TO.C,L1*%
X367045304Y-174535034D03*
X361445304Y-174535034D03*
%TD*%
D13*
%TO.C,C27*%
X350984556Y-55625729D03*
X350984556Y-53725729D03*
%TD*%
D15*
%TO.C,R4*%
X488749304Y-146351034D03*
X491674304Y-146351034D03*
%TD*%
D22*
%TO.C,SW6*%
X536539304Y-153675034D03*
X536539304Y-157425034D03*
X542539304Y-153675034D03*
X542539304Y-157425034D03*
%TD*%
D15*
%TO.C,R41*%
X351876804Y-60450034D03*
X354801804Y-60450034D03*
%TD*%
D23*
%TO.C,D1*%
X405246137Y-172135034D03*
X405246137Y-174010034D03*
%TD*%
D12*
%TO.C,C15*%
X345309304Y-173100034D03*
X345309304Y-175000034D03*
%TD*%
D15*
%TO.C,R7*%
X382939304Y-17635034D03*
X385864304Y-17635034D03*
%TD*%
D16*
%TO.C,C8*%
X360134556Y-23875729D03*
X358234556Y-23875729D03*
%TD*%
D13*
%TO.C,C5*%
X364784556Y-37025729D03*
X364784556Y-35125729D03*
%TD*%
%TO.C,C9*%
X348684556Y-31225729D03*
X348684556Y-29325729D03*
%TD*%
D24*
%TO.C,IC3*%
X492669304Y-121850034D03*
X492169304Y-121850034D03*
X491669304Y-121850034D03*
X491169304Y-121850034D03*
D25*
X490419304Y-122600034D03*
X490419304Y-123100034D03*
X490419304Y-123600034D03*
X490419304Y-124100034D03*
D24*
X491169304Y-124850034D03*
X491669304Y-124850034D03*
X492169304Y-124850034D03*
X492669304Y-124850034D03*
D25*
X493419304Y-124100034D03*
X493419304Y-123600034D03*
X493419304Y-123100034D03*
X493419304Y-122600034D03*
D26*
X491919304Y-123350034D03*
%TD*%
D27*
%TO.C,U45*%
X492961804Y-149060034D03*
D28*
X492961804Y-149460034D03*
X492961804Y-149860034D03*
X492961804Y-150260034D03*
D29*
X492961804Y-150660034D03*
D30*
X493549304Y-151247534D03*
D31*
X493949304Y-151247534D03*
X494349304Y-151247534D03*
X494749304Y-151247534D03*
D32*
X495149304Y-151247534D03*
D33*
X495736804Y-150660034D03*
D28*
X495736804Y-150260034D03*
X495736804Y-149860034D03*
X495736804Y-149460034D03*
D34*
X495736804Y-149060034D03*
D35*
X495149304Y-148472534D03*
D31*
X494749304Y-148472534D03*
X494349304Y-148472534D03*
X493949304Y-148472534D03*
D36*
X493549304Y-148472534D03*
%TD*%
D37*
%TO.C,J2*%
X390789304Y-12220034D03*
X389989304Y-12220034D03*
X388689304Y-12220034D03*
X387689304Y-12220034D03*
X387189304Y-12220034D03*
X386189304Y-12220034D03*
X384889304Y-12220034D03*
X384089304Y-12220034D03*
X384389304Y-12220034D03*
X385189304Y-12220034D03*
X385689304Y-12220034D03*
X386689304Y-12220034D03*
X388189304Y-12220034D03*
X389189304Y-12220034D03*
X389689304Y-12220034D03*
X390489304Y-12220034D03*
%TD*%
D11*
%TO.C,D8*%
X381539304Y-95600034D03*
X381539304Y-97175034D03*
%TD*%
D38*
%TO.C,D2*%
X403030304Y-174010034D03*
X403030304Y-172135034D03*
%TD*%
D39*
%TO.C,R6*%
X353547056Y-32075729D03*
X350622056Y-32075729D03*
%TD*%
D13*
%TO.C,C30*%
X536639304Y-148900034D03*
X536639304Y-147000034D03*
%TD*%
D16*
%TO.C,C32*%
X491119304Y-119920034D03*
X489219304Y-119920034D03*
%TD*%
D12*
%TO.C,C24*%
X489839304Y-151100034D03*
X489839304Y-153000034D03*
%TD*%
D40*
%TO.C,C11*%
X364284556Y-29675729D03*
X366184556Y-29675729D03*
%TD*%
D14*
%TO.C,R34*%
X386739304Y-93850034D03*
X386739304Y-90925034D03*
%TD*%
D13*
%TO.C,C6*%
X362684556Y-37025729D03*
X362684556Y-35125729D03*
%TD*%
%TO.C,C17*%
X418589304Y-72150034D03*
X418589304Y-70250034D03*
%TD*%
D12*
%TO.C,C2*%
X525439304Y-147000034D03*
X525439304Y-148900034D03*
%TD*%
D15*
%TO.C,R21*%
X346984556Y-42775729D03*
X349909556Y-42775729D03*
%TD*%
D38*
%TO.C,D4*%
X398598638Y-174010034D03*
X398598638Y-172135034D03*
%TD*%
D14*
%TO.C,R37*%
X379539304Y-93850034D03*
X379539304Y-90925034D03*
%TD*%
%TO.C,R22*%
X350584556Y-51938229D03*
X350584556Y-49013229D03*
%TD*%
D41*
%TO.C,J38*%
X521091553Y-164100034D03*
X521091553Y-163000034D03*
X521091553Y-161900034D03*
X521091553Y-160800034D03*
X521091553Y-159700034D03*
X521091553Y-158600034D03*
X521091553Y-157500034D03*
X521091553Y-156400034D03*
X521091553Y-155300034D03*
D42*
X520091553Y-154100034D03*
D43*
X510491553Y-154100034D03*
X510491553Y-169600034D03*
D44*
X520091553Y-168700034D03*
%TD*%
D39*
%TO.C,R8*%
X391164304Y-17635034D03*
X388239304Y-17635034D03*
%TD*%
%TO.C,R14*%
X530639304Y-150850034D03*
X527714304Y-150850034D03*
%TD*%
D15*
%TO.C,R11*%
X355967804Y-173610034D03*
X358892804Y-173610034D03*
%TD*%
D39*
%TO.C,R3*%
X369647056Y-36675729D03*
X366722056Y-36675729D03*
%TD*%
D40*
%TO.C,C13*%
X367784556Y-26668229D03*
X369684556Y-26668229D03*
%TD*%
D15*
%TO.C,R15*%
X523876804Y-163650034D03*
X526801804Y-163650034D03*
%TD*%
D39*
%TO.C,R1*%
X369647056Y-31875729D03*
X366722056Y-31875729D03*
%TD*%
D12*
%TO.C,C3*%
X355184556Y-35125729D03*
X355184556Y-37025729D03*
%TD*%
D45*
%TO.C,U1*%
X355922056Y-27750729D03*
X355922056Y-28400729D03*
X355922056Y-29050729D03*
X355922056Y-29700729D03*
X355922056Y-30350729D03*
X355922056Y-31000729D03*
X355922056Y-31650729D03*
X355922056Y-32300729D03*
X355922056Y-32950729D03*
X355922056Y-33600729D03*
X361647056Y-33600729D03*
X361647056Y-32950729D03*
X361647056Y-32300729D03*
X361647056Y-31650729D03*
X361647056Y-31000729D03*
X361647056Y-30350729D03*
X361647056Y-29700729D03*
X361647056Y-29050729D03*
X361647056Y-28400729D03*
X361647056Y-27750729D03*
%TD*%
D23*
%TO.C,D3*%
X400814471Y-172135034D03*
X400814471Y-174010034D03*
%TD*%
D40*
%TO.C,C28*%
X523789304Y-160950034D03*
X525689304Y-160950034D03*
%TD*%
D13*
%TO.C,C31*%
X538739304Y-148900034D03*
X538739304Y-147000034D03*
%TD*%
D16*
%TO.C,C10*%
X366184556Y-26668229D03*
X364284556Y-26668229D03*
%TD*%
D14*
%TO.C,R36*%
X381939304Y-93850034D03*
X381939304Y-90925034D03*
%TD*%
%TO.C,R9*%
X340909304Y-176012534D03*
X340909304Y-173087534D03*
%TD*%
D46*
%TO.C,U40*%
X574161659Y-150455034D03*
X566611659Y-150705034D03*
X574161659Y-150955034D03*
X566611659Y-151205034D03*
X574161659Y-151455034D03*
X566611659Y-151705034D03*
X574161659Y-151955034D03*
X566611659Y-152205034D03*
X574161659Y-152455034D03*
X566611659Y-152705034D03*
X574161659Y-152955034D03*
X566611659Y-153205034D03*
X574161659Y-153455034D03*
X566611659Y-153705034D03*
X574161659Y-153955034D03*
X566611659Y-154205034D03*
X574161659Y-154455034D03*
X566611659Y-154705034D03*
X574161659Y-154955034D03*
X566611659Y-155205034D03*
X574161659Y-155455034D03*
X566611659Y-155705034D03*
X574161659Y-155955034D03*
X566611659Y-158205034D03*
X574161659Y-158455034D03*
X566611659Y-158705034D03*
X574161659Y-158955034D03*
X566611659Y-159205034D03*
X574161659Y-159455034D03*
X566611659Y-159705034D03*
X574161659Y-159955034D03*
X566611659Y-160205034D03*
X574161659Y-160455034D03*
X566611659Y-160705034D03*
X574161659Y-160955034D03*
X566611659Y-161205034D03*
X574161659Y-161455034D03*
X566611659Y-161705034D03*
X574161659Y-161955034D03*
X566611659Y-162205034D03*
X574161659Y-162455034D03*
X566611659Y-162705034D03*
X574161659Y-162955034D03*
X566611659Y-163205034D03*
X574161659Y-163455034D03*
X566611659Y-163705034D03*
X574161659Y-163955034D03*
X566611659Y-164205034D03*
X574161659Y-164455034D03*
X566611659Y-164705034D03*
X574161659Y-164955034D03*
X566611659Y-165205034D03*
X574161659Y-165455034D03*
X566611659Y-165705034D03*
X574161659Y-165955034D03*
X566611659Y-166205034D03*
X574161659Y-166455034D03*
X566611659Y-166705034D03*
X574161659Y-166955034D03*
X566611659Y-167205034D03*
X574161659Y-167455034D03*
X566611659Y-167705034D03*
X574161659Y-167955034D03*
X566611659Y-168205034D03*
X574161659Y-168455034D03*
X566611659Y-168705034D03*
X574161659Y-168955034D03*
D47*
X573386659Y-149355034D03*
X573386659Y-170055034D03*
%TD*%
D48*
%TO.C,D6*%
X364684556Y-51525729D03*
X364684556Y-49425729D03*
%TD*%
D39*
%TO.C,R5*%
X353547056Y-29675729D03*
X350622056Y-29675729D03*
%TD*%
D13*
%TO.C,C22*%
X424889304Y-72150034D03*
X424889304Y-70250034D03*
%TD*%
D39*
%TO.C,R2*%
X369647056Y-34275729D03*
X366722056Y-34275729D03*
%TD*%
D14*
%TO.C,R12*%
X492549304Y-155922534D03*
X492549304Y-152997534D03*
%TD*%
D13*
%TO.C,C19*%
X354030304Y-173960034D03*
X354030304Y-172060034D03*
%TD*%
%TO.C,C16*%
X343209304Y-176050034D03*
X343209304Y-174150034D03*
%TD*%
D15*
%TO.C,R20*%
X346984556Y-40375729D03*
X349909556Y-40375729D03*
%TD*%
D22*
%TO.C,SW1*%
X386909304Y-172175034D03*
X386909304Y-175925034D03*
X392909304Y-172175034D03*
X392909304Y-175925034D03*
%TD*%
D49*
%TO.C,U19*%
X530201804Y-147000034D03*
X530201804Y-147950034D03*
X530201804Y-148900034D03*
X532476804Y-148900034D03*
X532476804Y-147000034D03*
%TD*%
D40*
%TO.C,C7*%
X357234556Y-25975729D03*
X359134556Y-25975729D03*
%TD*%
D50*
%TO.C,U7*%
X359522056Y-37025729D03*
X359522056Y-36075729D03*
X359522056Y-35125729D03*
X357247056Y-35125729D03*
X357247056Y-37025729D03*
%TD*%
M02*
