%TF.GenerationSoftware,KiCad,Pcbnew,(6.0.5)*%
%TF.CreationDate,2022-07-17T18:42:08+02:00*%
%TF.ProjectId,clarinoid-devboard,636c6172-696e-46f6-9964-2d646576626f,rev?*%
%TF.SameCoordinates,Original*%
%TF.FileFunction,Other,Comment*%
%FSLAX46Y46*%
G04 Gerber Fmt 4.6, Leading zero omitted, Abs format (unit mm)*
G04 Created by KiCad (PCBNEW (6.0.5)) date 2022-07-17 18:42:08*
%MOMM*%
%LPD*%
G01*
G04 APERTURE LIST*
%ADD10C,0.150000*%
%ADD11C,0.010000*%
%ADD12C,0.120000*%
%ADD13C,0.100000*%
%ADD14C,2.000000*%
G04 APERTURE END LIST*
D10*
X310976804Y-135059034D02*
X330976804Y-135059034D01*
X330976804Y-135059034D02*
X330976804Y-83059034D01*
X330976804Y-83059034D02*
X310976804Y-83059034D01*
X310976804Y-83059034D02*
X310976804Y-135059034D01*
X244976804Y-135059034D02*
X264976804Y-135059034D01*
X264976804Y-135059034D02*
X264976804Y-83059034D01*
X264976804Y-83059034D02*
X244976804Y-83059034D01*
X244976804Y-83059034D02*
X244976804Y-135059034D01*
X242976804Y-135059034D02*
X232976804Y-135059034D01*
X232976804Y-135059034D02*
X232976804Y-31059034D01*
X232976804Y-31059034D02*
X242976804Y-31059034D01*
X242976804Y-31059034D02*
X242976804Y-135059034D01*
X286976804Y-135059034D02*
X276976804Y-135059034D01*
X276976804Y-135059034D02*
X276976804Y-31059034D01*
X276976804Y-31059034D02*
X286976804Y-31059034D01*
X286976804Y-31059034D02*
X286976804Y-135059034D01*
X308976804Y-135059034D02*
X298976804Y-135059034D01*
X298976804Y-135059034D02*
X298976804Y-31059034D01*
X298976804Y-31059034D02*
X308976804Y-31059034D01*
X308976804Y-31059034D02*
X308976804Y-135059034D01*
X288976804Y-135059034D02*
X308976804Y-135059034D01*
X308976804Y-135059034D02*
X308976804Y-83059034D01*
X308976804Y-83059034D02*
X288976804Y-83059034D01*
X288976804Y-83059034D02*
X288976804Y-135059034D01*
X264976804Y-135059034D02*
X254976804Y-135059034D01*
X254976804Y-135059034D02*
X254976804Y-31059034D01*
X254976804Y-31059034D02*
X264976804Y-31059034D01*
X264976804Y-31059034D02*
X264976804Y-135059034D01*
X221149304Y-135059034D02*
X211149304Y-135059034D01*
X211149304Y-135059034D02*
X211149304Y-31059034D01*
X211149304Y-31059034D02*
X221149304Y-31059034D01*
X221149304Y-31059034D02*
X221149304Y-135059034D01*
X330976804Y-135059034D02*
X320976804Y-135059034D01*
X320976804Y-135059034D02*
X320976804Y-31059034D01*
X320976804Y-31059034D02*
X330976804Y-31059034D01*
X330976804Y-31059034D02*
X330976804Y-135059034D01*
D11*
X106681804Y-65709034D02*
X90581804Y-65709034D01*
X90581804Y-65709034D02*
X90581804Y-50109034D01*
X90581804Y-50109034D02*
X106681804Y-50109034D01*
X106681804Y-50109034D02*
X106681804Y-65709034D01*
D10*
X201149304Y-135059034D02*
X221149304Y-135059034D01*
X221149304Y-135059034D02*
X221149304Y-83059034D01*
X221149304Y-83059034D02*
X201149304Y-83059034D01*
X201149304Y-83059034D02*
X201149304Y-135059034D01*
X222976804Y-135059034D02*
X242976804Y-135059034D01*
X242976804Y-135059034D02*
X242976804Y-83059034D01*
X242976804Y-83059034D02*
X222976804Y-83059034D01*
X222976804Y-83059034D02*
X222976804Y-135059034D01*
X173276804Y-105159034D02*
G75*
G03*
X173276804Y-105159034I-15000000J0D01*
G01*
X266976804Y-135059034D02*
X286976804Y-135059034D01*
X286976804Y-135059034D02*
X286976804Y-83059034D01*
X286976804Y-83059034D02*
X266976804Y-83059034D01*
X266976804Y-83059034D02*
X266976804Y-135059034D01*
%TO.C,U6*%
X193954184Y-88093319D02*
X193954184Y-88664748D01*
X193954184Y-88379034D02*
X192954184Y-88379034D01*
X193097042Y-88474272D01*
X193192280Y-88569510D01*
X193239899Y-88664748D01*
%TO.C,SW6*%
X152288471Y-86797128D02*
X152288471Y-86320937D01*
X152574185Y-86892366D02*
X151574185Y-86559033D01*
X152574185Y-86225699D01*
X152050376Y-82487604D02*
X152097995Y-82344747D01*
X152145614Y-82297128D01*
X152240852Y-82249509D01*
X152383709Y-82249509D01*
X152478947Y-82297128D01*
X152526566Y-82344747D01*
X152574185Y-82439985D01*
X152574185Y-82820937D01*
X151574185Y-82820937D01*
X151574185Y-82487604D01*
X151621805Y-82392366D01*
X151669424Y-82344747D01*
X151764662Y-82297128D01*
X151859900Y-82297128D01*
X151955138Y-82344747D01*
X152002757Y-82392366D01*
X152050376Y-82487604D01*
X152050376Y-82820937D01*
%TO.C,U5*%
X96706280Y-134679153D02*
X97277708Y-134679153D01*
X96991994Y-134679153D02*
X96991994Y-135679153D01*
X97087232Y-135536295D01*
X97182470Y-135441057D01*
X97277708Y-135393438D01*
X96325327Y-135583914D02*
X96277708Y-135631534D01*
X96182470Y-135679153D01*
X95944375Y-135679153D01*
X95849137Y-135631534D01*
X95801518Y-135583914D01*
X95753899Y-135488676D01*
X95753899Y-135393438D01*
X95801518Y-135250581D01*
X96372946Y-134679153D01*
X95753899Y-134679153D01*
X191977327Y-122979153D02*
X192167804Y-122979153D01*
X192263042Y-122931534D01*
X192310661Y-122883914D01*
X192405899Y-122741057D01*
X192453518Y-122550581D01*
X192453518Y-122169629D01*
X192405899Y-122074391D01*
X192358280Y-122026772D01*
X192263042Y-121979153D01*
X192072565Y-121979153D01*
X191977327Y-122026772D01*
X191929708Y-122074391D01*
X191882089Y-122169629D01*
X191882089Y-122407724D01*
X191929708Y-122502962D01*
X191977327Y-122550581D01*
X192072565Y-122598200D01*
X192263042Y-122598200D01*
X192358280Y-122550581D01*
X192405899Y-122502962D01*
X192453518Y-122407724D01*
X96087137Y-122979153D02*
X95420470Y-122979153D01*
X95849042Y-121979153D01*
X192466089Y-134679153D02*
X193037518Y-134679153D01*
X192751804Y-134679153D02*
X192751804Y-135679153D01*
X192847042Y-135536295D01*
X192942280Y-135441057D01*
X193037518Y-135393438D01*
%TO.C,SW1*%
X82214899Y-54692367D02*
X81738708Y-54692367D01*
X82310137Y-54406653D02*
X81976804Y-55406653D01*
X81643470Y-54406653D01*
X77905375Y-54930462D02*
X77762518Y-54882843D01*
X77714899Y-54835224D01*
X77667280Y-54739986D01*
X77667280Y-54597129D01*
X77714899Y-54501891D01*
X77762518Y-54454272D01*
X77857756Y-54406653D01*
X78238708Y-54406653D01*
X78238708Y-55406653D01*
X77905375Y-55406653D01*
X77810137Y-55359034D01*
X77762518Y-55311414D01*
X77714899Y-55216176D01*
X77714899Y-55120938D01*
X77762518Y-55025700D01*
X77810137Y-54978081D01*
X77905375Y-54930462D01*
X78238708Y-54930462D01*
%TO.C,U9*%
X204601684Y-33997319D02*
X204601684Y-34568748D01*
X204601684Y-34283034D02*
X203601684Y-34283034D01*
X203744542Y-34378272D01*
X203839780Y-34473510D01*
X203887399Y-34568748D01*
X216301684Y-131614367D02*
X216301684Y-130947700D01*
X217301684Y-131376272D01*
X204601684Y-130709510D02*
X204601684Y-131280938D01*
X204601684Y-130995224D02*
X203601684Y-130995224D01*
X203744542Y-131090462D01*
X203839780Y-131185700D01*
X203887399Y-131280938D01*
X203696923Y-130328557D02*
X203649304Y-130280938D01*
X203601684Y-130185700D01*
X203601684Y-129947605D01*
X203649304Y-129852367D01*
X203696923Y-129804748D01*
X203792161Y-129757129D01*
X203887399Y-129757129D01*
X204030256Y-129804748D01*
X204601684Y-130376176D01*
X204601684Y-129757129D01*
X216301684Y-34676557D02*
X216301684Y-34867034D01*
X216349304Y-34962272D01*
X216396923Y-35009891D01*
X216539780Y-35105129D01*
X216730256Y-35152748D01*
X217111208Y-35152748D01*
X217206446Y-35105129D01*
X217254065Y-35057510D01*
X217301684Y-34962272D01*
X217301684Y-34771795D01*
X217254065Y-34676557D01*
X217206446Y-34628938D01*
X217111208Y-34581319D01*
X216873113Y-34581319D01*
X216777875Y-34628938D01*
X216730256Y-34676557D01*
X216682637Y-34771795D01*
X216682637Y-34962272D01*
X216730256Y-35057510D01*
X216777875Y-35105129D01*
X216873113Y-35152748D01*
%TO.C,U13*%
X282129184Y-34676557D02*
X282129184Y-34867034D01*
X282176804Y-34962272D01*
X282224423Y-35009891D01*
X282367280Y-35105129D01*
X282557756Y-35152748D01*
X282938708Y-35152748D01*
X283033946Y-35105129D01*
X283081565Y-35057510D01*
X283129184Y-34962272D01*
X283129184Y-34771795D01*
X283081565Y-34676557D01*
X283033946Y-34628938D01*
X282938708Y-34581319D01*
X282700613Y-34581319D01*
X282605375Y-34628938D01*
X282557756Y-34676557D01*
X282510137Y-34771795D01*
X282510137Y-34962272D01*
X282557756Y-35057510D01*
X282605375Y-35105129D01*
X282700613Y-35152748D01*
X282129184Y-131614367D02*
X282129184Y-130947700D01*
X283129184Y-131376272D01*
X270429184Y-33997319D02*
X270429184Y-34568748D01*
X270429184Y-34283034D02*
X269429184Y-34283034D01*
X269572042Y-34378272D01*
X269667280Y-34473510D01*
X269714899Y-34568748D01*
X270429184Y-130709510D02*
X270429184Y-131280938D01*
X270429184Y-130995224D02*
X269429184Y-130995224D01*
X269572042Y-131090462D01*
X269667280Y-131185700D01*
X269714899Y-131280938D01*
X269524423Y-130328557D02*
X269476804Y-130280938D01*
X269429184Y-130185700D01*
X269429184Y-129947605D01*
X269476804Y-129852367D01*
X269524423Y-129804748D01*
X269619661Y-129757129D01*
X269714899Y-129757129D01*
X269857756Y-129804748D01*
X270429184Y-130376176D01*
X270429184Y-129757129D01*
%TO.C,U14*%
X314429184Y-130709510D02*
X314429184Y-131280938D01*
X314429184Y-130995224D02*
X313429184Y-130995224D01*
X313572042Y-131090462D01*
X313667280Y-131185700D01*
X313714899Y-131280938D01*
X313524423Y-130328557D02*
X313476804Y-130280938D01*
X313429184Y-130185700D01*
X313429184Y-129947605D01*
X313476804Y-129852367D01*
X313524423Y-129804748D01*
X313619661Y-129757129D01*
X313714899Y-129757129D01*
X313857756Y-129804748D01*
X314429184Y-130376176D01*
X314429184Y-129757129D01*
X314429184Y-33997319D02*
X314429184Y-34568748D01*
X314429184Y-34283034D02*
X313429184Y-34283034D01*
X313572042Y-34378272D01*
X313667280Y-34473510D01*
X313714899Y-34568748D01*
X326129184Y-131614367D02*
X326129184Y-130947700D01*
X327129184Y-131376272D01*
X326129184Y-34676557D02*
X326129184Y-34867034D01*
X326176804Y-34962272D01*
X326224423Y-35009891D01*
X326367280Y-35105129D01*
X326557756Y-35152748D01*
X326938708Y-35152748D01*
X327033946Y-35105129D01*
X327081565Y-35057510D01*
X327129184Y-34962272D01*
X327129184Y-34771795D01*
X327081565Y-34676557D01*
X327033946Y-34628938D01*
X326938708Y-34581319D01*
X326700613Y-34581319D01*
X326605375Y-34628938D01*
X326557756Y-34676557D01*
X326510137Y-34771795D01*
X326510137Y-34962272D01*
X326557756Y-35057510D01*
X326605375Y-35105129D01*
X326700613Y-35152748D01*
%TO.C,U15*%
X304129184Y-34676557D02*
X304129184Y-34867034D01*
X304176804Y-34962272D01*
X304224423Y-35009891D01*
X304367280Y-35105129D01*
X304557756Y-35152748D01*
X304938708Y-35152748D01*
X305033946Y-35105129D01*
X305081565Y-35057510D01*
X305129184Y-34962272D01*
X305129184Y-34771795D01*
X305081565Y-34676557D01*
X305033946Y-34628938D01*
X304938708Y-34581319D01*
X304700613Y-34581319D01*
X304605375Y-34628938D01*
X304557756Y-34676557D01*
X304510137Y-34771795D01*
X304510137Y-34962272D01*
X304557756Y-35057510D01*
X304605375Y-35105129D01*
X304700613Y-35152748D01*
X292429184Y-130709510D02*
X292429184Y-131280938D01*
X292429184Y-130995224D02*
X291429184Y-130995224D01*
X291572042Y-131090462D01*
X291667280Y-131185700D01*
X291714899Y-131280938D01*
X291524423Y-130328557D02*
X291476804Y-130280938D01*
X291429184Y-130185700D01*
X291429184Y-129947605D01*
X291476804Y-129852367D01*
X291524423Y-129804748D01*
X291619661Y-129757129D01*
X291714899Y-129757129D01*
X291857756Y-129804748D01*
X292429184Y-130376176D01*
X292429184Y-129757129D01*
X304129184Y-131614367D02*
X304129184Y-130947700D01*
X305129184Y-131376272D01*
X292429184Y-33997319D02*
X292429184Y-34568748D01*
X292429184Y-34283034D02*
X291429184Y-34283034D01*
X291572042Y-34378272D01*
X291667280Y-34473510D01*
X291714899Y-34568748D01*
%TO.C,U10*%
X248429184Y-130709510D02*
X248429184Y-131280938D01*
X248429184Y-130995224D02*
X247429184Y-130995224D01*
X247572042Y-131090462D01*
X247667280Y-131185700D01*
X247714899Y-131280938D01*
X247524423Y-130328557D02*
X247476804Y-130280938D01*
X247429184Y-130185700D01*
X247429184Y-129947605D01*
X247476804Y-129852367D01*
X247524423Y-129804748D01*
X247619661Y-129757129D01*
X247714899Y-129757129D01*
X247857756Y-129804748D01*
X248429184Y-130376176D01*
X248429184Y-129757129D01*
X260129184Y-34676557D02*
X260129184Y-34867034D01*
X260176804Y-34962272D01*
X260224423Y-35009891D01*
X260367280Y-35105129D01*
X260557756Y-35152748D01*
X260938708Y-35152748D01*
X261033946Y-35105129D01*
X261081565Y-35057510D01*
X261129184Y-34962272D01*
X261129184Y-34771795D01*
X261081565Y-34676557D01*
X261033946Y-34628938D01*
X260938708Y-34581319D01*
X260700613Y-34581319D01*
X260605375Y-34628938D01*
X260557756Y-34676557D01*
X260510137Y-34771795D01*
X260510137Y-34962272D01*
X260557756Y-35057510D01*
X260605375Y-35105129D01*
X260700613Y-35152748D01*
X248429184Y-33997319D02*
X248429184Y-34568748D01*
X248429184Y-34283034D02*
X247429184Y-34283034D01*
X247572042Y-34378272D01*
X247667280Y-34473510D01*
X247714899Y-34568748D01*
X260129184Y-131614367D02*
X260129184Y-130947700D01*
X261129184Y-131376272D01*
%TO.C,U11*%
X226429184Y-130709510D02*
X226429184Y-131280938D01*
X226429184Y-130995224D02*
X225429184Y-130995224D01*
X225572042Y-131090462D01*
X225667280Y-131185700D01*
X225714899Y-131280938D01*
X225524423Y-130328557D02*
X225476804Y-130280938D01*
X225429184Y-130185700D01*
X225429184Y-129947605D01*
X225476804Y-129852367D01*
X225524423Y-129804748D01*
X225619661Y-129757129D01*
X225714899Y-129757129D01*
X225857756Y-129804748D01*
X226429184Y-130376176D01*
X226429184Y-129757129D01*
X226429184Y-33997319D02*
X226429184Y-34568748D01*
X226429184Y-34283034D02*
X225429184Y-34283034D01*
X225572042Y-34378272D01*
X225667280Y-34473510D01*
X225714899Y-34568748D01*
X238129184Y-34676557D02*
X238129184Y-34867034D01*
X238176804Y-34962272D01*
X238224423Y-35009891D01*
X238367280Y-35105129D01*
X238557756Y-35152748D01*
X238938708Y-35152748D01*
X239033946Y-35105129D01*
X239081565Y-35057510D01*
X239129184Y-34962272D01*
X239129184Y-34771795D01*
X239081565Y-34676557D01*
X239033946Y-34628938D01*
X238938708Y-34581319D01*
X238700613Y-34581319D01*
X238605375Y-34628938D01*
X238557756Y-34676557D01*
X238510137Y-34771795D01*
X238510137Y-34962272D01*
X238557756Y-35057510D01*
X238605375Y-35105129D01*
X238700613Y-35152748D01*
X238129184Y-131614367D02*
X238129184Y-130947700D01*
X239129184Y-131376272D01*
D12*
%TO.C,U6*%
X181055804Y-41389034D02*
X193755804Y-41389034D01*
X193755804Y-41389034D02*
X193755804Y-28689034D01*
X193755804Y-28689034D02*
X181055804Y-28689034D01*
X181055804Y-28689034D02*
X181055804Y-41389034D01*
X183595804Y-90919034D02*
X191215804Y-90919034D01*
X191215804Y-90919034D02*
X191215804Y-84569034D01*
X191215804Y-84569034D02*
X183595804Y-84569034D01*
X183595804Y-84569034D02*
X183595804Y-90919034D01*
X193755804Y-28689034D02*
X181055804Y-28689034D01*
X181055804Y-28689034D02*
X181055804Y-13689034D01*
X181055804Y-13689034D02*
X193755804Y-13689034D01*
X193755804Y-13689034D02*
X193755804Y-28689034D01*
X193755804Y-119919034D02*
X181055804Y-119919034D01*
X181055804Y-119919034D02*
X181055804Y-90919034D01*
X181055804Y-90919034D02*
X193755804Y-90919034D01*
X193755804Y-90919034D02*
X193755804Y-119919034D01*
X178515804Y-89649034D02*
X196295804Y-89649034D01*
X196295804Y-89649034D02*
X196295804Y-28689034D01*
X196295804Y-28689034D02*
X178515804Y-28689034D01*
X178515804Y-28689034D02*
X178515804Y-89649034D01*
X182325804Y-29959034D02*
X192485804Y-29959034D01*
X192485804Y-29959034D02*
X192485804Y-28689034D01*
X192485804Y-28689034D02*
X182325804Y-28689034D01*
X182325804Y-28689034D02*
X182325804Y-29959034D01*
X195787804Y-29959034D02*
G75*
G03*
X195787804Y-29959034I-762000J0D01*
G01*
X180547804Y-32499034D02*
G75*
G03*
X180547804Y-32499034I-762000J0D01*
G01*
X195787804Y-32499034D02*
G75*
G03*
X195787804Y-32499034I-762000J0D01*
G01*
X195533804Y-88379034D02*
G75*
G03*
X195533804Y-88379034I-508000J0D01*
G01*
X180547804Y-29959034D02*
G75*
G03*
X180547804Y-29959034I-762000J0D01*
G01*
X179785804Y-29959034D02*
G75*
G03*
X179785804Y-29959034I0J0D01*
G01*
X195025804Y-88379034D02*
G75*
G03*
X195025804Y-88379034I0J0D01*
G01*
X179785804Y-88379034D02*
G75*
G03*
X179785804Y-88379034I0J0D01*
G01*
X195025804Y-85839034D02*
G75*
G03*
X195025804Y-85839034I0J0D01*
G01*
X195787804Y-83299034D02*
G75*
G03*
X195787804Y-83299034I-762000J0D01*
G01*
X180547804Y-88379034D02*
G75*
G03*
X180547804Y-88379034I-762000J0D01*
G01*
X195025804Y-29959034D02*
G75*
G03*
X195025804Y-29959034I0J0D01*
G01*
X195025804Y-32499034D02*
G75*
G03*
X195025804Y-32499034I0J0D01*
G01*
X179785804Y-85839034D02*
G75*
G03*
X179785804Y-85839034I0J0D01*
G01*
X195787804Y-85839034D02*
G75*
G03*
X195787804Y-85839034I-762000J0D01*
G01*
X180547804Y-85839034D02*
G75*
G03*
X180547804Y-85839034I-762000J0D01*
G01*
X179785804Y-32499034D02*
G75*
G03*
X179785804Y-32499034I0J0D01*
G01*
%TO.C,U35*%
X242976804Y-133059034D02*
X242976804Y-127059034D01*
X244976804Y-133059034D02*
X244976804Y-127059034D01*
D13*
X244976804Y-132059034D02*
G75*
G03*
X242976804Y-132059034I-1000000J0D01*
G01*
X242976804Y-127809034D02*
G75*
G03*
X244976804Y-127809034I1000000J0D01*
G01*
D12*
%TO.C,U25*%
X308976804Y-133059034D02*
X308976804Y-127059034D01*
X310976804Y-133059034D02*
X310976804Y-127059034D01*
D13*
X308976804Y-127809034D02*
G75*
G03*
X310976804Y-127809034I1000000J0D01*
G01*
X310976804Y-132059034D02*
G75*
G03*
X308976804Y-132059034I-1000000J0D01*
G01*
D12*
%TO.C,U12*%
X98109948Y-114158200D02*
X126109948Y-114158200D01*
X126109948Y-94158200D02*
X98149948Y-94158200D01*
X98149948Y-94158200D02*
X98149948Y-108658200D01*
X98149948Y-108658200D02*
X126109948Y-108658200D01*
X126109948Y-108658200D02*
X126109948Y-94158200D01*
X105109948Y-114158200D02*
X119109948Y-114158200D01*
X119109948Y-114158200D02*
X119109948Y-118158200D01*
X119109948Y-118158200D02*
X105109948Y-118158200D01*
X105109948Y-118158200D02*
X105109948Y-114158200D01*
X98149948Y-90158200D02*
X126149948Y-90158200D01*
X126149948Y-90158200D02*
X126149948Y-118158200D01*
X126149948Y-118158200D02*
X98149948Y-118158200D01*
X98149948Y-118158200D02*
X98149948Y-90158200D01*
X108069948Y-91658200D02*
G75*
G03*
X108069948Y-91658200I-1000000J0D01*
G01*
X115689948Y-91658200D02*
G75*
G03*
X115689948Y-91658200I-1000000J0D01*
G01*
X118229948Y-91658200D02*
G75*
G03*
X118229948Y-91658200I-1000000J0D01*
G01*
D14*
X101149948Y-92158200D02*
G75*
G03*
X101149948Y-92158200I-1000000J0D01*
G01*
D12*
X113149948Y-91658200D02*
G75*
G03*
X113149948Y-91658200I-1000000J0D01*
G01*
D14*
X125149948Y-116158200D02*
G75*
G03*
X125149948Y-116158200I-1000000J0D01*
G01*
X101149948Y-116158200D02*
G75*
G03*
X101149948Y-116158200I-1000000J0D01*
G01*
D12*
X110609948Y-91658200D02*
G75*
G03*
X110609948Y-91658200I-1000000J0D01*
G01*
X120769948Y-91658200D02*
G75*
G03*
X120769948Y-91658200I-1000000J0D01*
G01*
X105529948Y-91658200D02*
G75*
G03*
X105529948Y-91658200I-1000000J0D01*
G01*
D14*
X125149948Y-92158200D02*
G75*
G03*
X125149948Y-92158200I-1000000J0D01*
G01*
D12*
%TO.C,SW6*%
X152121805Y-85959033D02*
X152121805Y-83159033D01*
X152121805Y-84559033D02*
X153321805Y-84559033D01*
X153321805Y-84559033D02*
X154521805Y-85359033D01*
X155721805Y-84559033D02*
X154521805Y-84559033D01*
X155721805Y-83159033D02*
X155721805Y-85959033D01*
X154721805Y-84559033D02*
G75*
G03*
X154721805Y-84559033I-200000J0D01*
G01*
X153521805Y-84559033D02*
G75*
G03*
X153521805Y-84559033I-200000J0D01*
G01*
%TO.C,U37*%
X286976804Y-39059034D02*
X286976804Y-33059034D01*
X288976804Y-39059034D02*
X288976804Y-33059034D01*
D13*
X288976804Y-38059034D02*
G75*
G03*
X286976804Y-38059034I-1000000J0D01*
G01*
X286976804Y-33809034D02*
G75*
G03*
X288976804Y-33809034I1000000J0D01*
G01*
D10*
%TO.C,H4*%
X175514304Y-65859034D02*
G75*
G03*
X175514304Y-65859034I-3000000J0D01*
G01*
%TO.C,H2*%
X64176804Y-48059034D02*
G75*
G03*
X64176804Y-48059034I-3200000J0D01*
G01*
%TO.C,H1*%
X172876804Y-79859034D02*
G75*
G03*
X172876804Y-79859034I-3200000J0D01*
G01*
D12*
%TO.C,U27*%
X200976804Y-133059034D02*
X200976804Y-127059034D01*
X198976804Y-133059034D02*
X198976804Y-127059034D01*
D13*
X200976804Y-132059034D02*
G75*
G03*
X198976804Y-132059034I-1000000J0D01*
G01*
X198976804Y-127809034D02*
G75*
G03*
X200976804Y-127809034I1000000J0D01*
G01*
D12*
%TO.C,U22*%
X264976804Y-133059034D02*
X264976804Y-127059034D01*
X266976804Y-133059034D02*
X266976804Y-127059034D01*
D13*
X266976804Y-132059034D02*
G75*
G03*
X264976804Y-132059034I-1000000J0D01*
G01*
X264976804Y-127809034D02*
G75*
G03*
X266976804Y-127809034I1000000J0D01*
G01*
D12*
%TO.C,U26*%
X198976804Y-39059034D02*
X198976804Y-33059034D01*
X200976804Y-39059034D02*
X200976804Y-33059034D01*
D13*
X200976804Y-38059034D02*
G75*
G03*
X198976804Y-38059034I-1000000J0D01*
G01*
X198976804Y-33809034D02*
G75*
G03*
X200976804Y-33809034I1000000J0D01*
G01*
D12*
%TO.C,U30*%
X244976804Y-86059034D02*
X244976804Y-80059034D01*
X242976804Y-86059034D02*
X242976804Y-80059034D01*
D13*
X244976804Y-85059034D02*
G75*
G03*
X242976804Y-85059034I-1000000J0D01*
G01*
X242976804Y-80809034D02*
G75*
G03*
X244976804Y-80809034I1000000J0D01*
G01*
D12*
%TO.C,U20*%
X308976804Y-86059034D02*
X308976804Y-80059034D01*
X310976804Y-86059034D02*
X310976804Y-80059034D01*
D13*
X308976804Y-80809034D02*
G75*
G03*
X310976804Y-80809034I1000000J0D01*
G01*
X310976804Y-85059034D02*
G75*
G03*
X308976804Y-85059034I-1000000J0D01*
G01*
D12*
%TO.C,U32*%
X222976804Y-86059034D02*
X222976804Y-80059034D01*
X220976804Y-86059034D02*
X220976804Y-80059034D01*
D13*
X220976804Y-80809034D02*
G75*
G03*
X222976804Y-80809034I1000000J0D01*
G01*
X222976804Y-85059034D02*
G75*
G03*
X220976804Y-85059034I-1000000J0D01*
G01*
D10*
%TO.C,H5*%
X182775804Y-133231534D02*
G75*
G03*
X182775804Y-133231534I-3200000J0D01*
G01*
%TO.C,H3*%
X114876804Y-115159034D02*
G75*
G03*
X114876804Y-115159034I-3200000J0D01*
G01*
D12*
%TO.C,U36*%
X288976804Y-133059034D02*
X288976804Y-127059034D01*
X286976804Y-133059034D02*
X286976804Y-127059034D01*
D13*
X286976804Y-127809034D02*
G75*
G03*
X288976804Y-127809034I1000000J0D01*
G01*
X288976804Y-132059034D02*
G75*
G03*
X286976804Y-132059034I-1000000J0D01*
G01*
D12*
%TO.C,U34*%
X220976804Y-39059034D02*
X220976804Y-33059034D01*
X222976804Y-39059034D02*
X222976804Y-33059034D01*
D13*
X222976804Y-38059034D02*
G75*
G03*
X220976804Y-38059034I-1000000J0D01*
G01*
X220976804Y-33809034D02*
G75*
G03*
X222976804Y-33809034I1000000J0D01*
G01*
D12*
%TO.C,U5*%
X195975804Y-138131534D02*
X91975804Y-138131534D01*
X91975804Y-138131534D02*
X91975804Y-118131534D01*
X91975804Y-118131534D02*
X195975804Y-118131534D01*
X195975804Y-118131534D02*
X195975804Y-138131534D01*
X194737804Y-130051534D02*
G75*
G03*
X194737804Y-130051534I-762000J0D01*
G01*
X93975804Y-130051534D02*
G75*
G03*
X93975804Y-130051534I0J0D01*
G01*
X194737804Y-132591534D02*
G75*
G03*
X194737804Y-132591534I-762000J0D01*
G01*
X193975804Y-127511534D02*
G75*
G03*
X193975804Y-127511534I0J0D01*
G01*
X94737804Y-135131534D02*
G75*
G03*
X94737804Y-135131534I-762000J0D01*
G01*
X194737804Y-127511534D02*
G75*
G03*
X194737804Y-127511534I-762000J0D01*
G01*
X193975804Y-132591534D02*
G75*
G03*
X193975804Y-132591534I0J0D01*
G01*
X94737804Y-127511534D02*
G75*
G03*
X94737804Y-127511534I-762000J0D01*
G01*
X93975804Y-135131534D02*
G75*
G03*
X93975804Y-135131534I0J0D01*
G01*
X193975804Y-124971534D02*
G75*
G03*
X193975804Y-124971534I0J0D01*
G01*
X93975804Y-124971534D02*
G75*
G03*
X93975804Y-124971534I0J0D01*
G01*
X194737804Y-122431534D02*
G75*
G03*
X194737804Y-122431534I-762000J0D01*
G01*
X193975804Y-135131534D02*
G75*
G03*
X193975804Y-135131534I0J0D01*
G01*
X194737804Y-135131534D02*
G75*
G03*
X194737804Y-135131534I-762000J0D01*
G01*
X94737804Y-132591534D02*
G75*
G03*
X94737804Y-132591534I-762000J0D01*
G01*
X94737804Y-124971534D02*
G75*
G03*
X94737804Y-124971534I-762000J0D01*
G01*
X93975804Y-132591534D02*
G75*
G03*
X93975804Y-132591534I0J0D01*
G01*
X93975804Y-122431534D02*
G75*
G03*
X93975804Y-122431534I0J0D01*
G01*
X194737804Y-124971534D02*
G75*
G03*
X194737804Y-124971534I-762000J0D01*
G01*
X94737804Y-122431534D02*
G75*
G03*
X94737804Y-122431534I-762000J0D01*
G01*
X193975804Y-122431534D02*
G75*
G03*
X193975804Y-122431534I0J0D01*
G01*
X193975804Y-130051534D02*
G75*
G03*
X193975804Y-130051534I0J0D01*
G01*
X93975804Y-127511534D02*
G75*
G03*
X93975804Y-127511534I0J0D01*
G01*
X94737804Y-130051534D02*
G75*
G03*
X94737804Y-130051534I-762000J0D01*
G01*
%TO.C,U21*%
X200976804Y-86059034D02*
X200976804Y-80059034D01*
X198976804Y-86059034D02*
X198976804Y-80059034D01*
D13*
X200976804Y-85059034D02*
G75*
G03*
X198976804Y-85059034I-1000000J0D01*
G01*
X198976804Y-80809034D02*
G75*
G03*
X200976804Y-80809034I1000000J0D01*
G01*
D12*
%TO.C,U31*%
X244976804Y-39059034D02*
X244976804Y-33059034D01*
X242976804Y-39059034D02*
X242976804Y-33059034D01*
D13*
X244976804Y-38059034D02*
G75*
G03*
X242976804Y-38059034I-1000000J0D01*
G01*
X242976804Y-33809034D02*
G75*
G03*
X244976804Y-33809034I1000000J0D01*
G01*
D12*
%TO.C,U29*%
X264976804Y-39059034D02*
X264976804Y-33059034D01*
X266976804Y-39059034D02*
X266976804Y-33059034D01*
D13*
X264976804Y-33809034D02*
G75*
G03*
X266976804Y-33809034I1000000J0D01*
G01*
X266976804Y-38059034D02*
G75*
G03*
X264976804Y-38059034I-1000000J0D01*
G01*
D12*
%TO.C,U24*%
X266976804Y-86059034D02*
X266976804Y-80059034D01*
X264976804Y-86059034D02*
X264976804Y-80059034D01*
D13*
X264976804Y-80809034D02*
G75*
G03*
X266976804Y-80809034I1000000J0D01*
G01*
X266976804Y-85059034D02*
G75*
G03*
X264976804Y-85059034I-1000000J0D01*
G01*
D12*
%TO.C,U28*%
X288976804Y-86059034D02*
X288976804Y-80059034D01*
X286976804Y-86059034D02*
X286976804Y-80059034D01*
D13*
X288976804Y-85059034D02*
G75*
G03*
X286976804Y-85059034I-1000000J0D01*
G01*
X286976804Y-80809034D02*
G75*
G03*
X288976804Y-80809034I1000000J0D01*
G01*
D12*
%TO.C,SW1*%
X79976804Y-54859034D02*
X79976804Y-53659034D01*
X79976804Y-53659034D02*
X80776804Y-52459034D01*
X79976804Y-51259034D02*
X79976804Y-52459034D01*
X78576804Y-51259034D02*
X81376804Y-51259034D01*
X81376804Y-54859034D02*
X78576804Y-54859034D01*
X80176804Y-53659034D02*
G75*
G03*
X80176804Y-53659034I-200000J0D01*
G01*
X80176804Y-52459034D02*
G75*
G03*
X80176804Y-52459034I-200000J0D01*
G01*
%TO.C,U33*%
X310976804Y-39059034D02*
X310976804Y-33059034D01*
X308976804Y-39059034D02*
X308976804Y-33059034D01*
D13*
X308976804Y-33809034D02*
G75*
G03*
X310976804Y-33809034I1000000J0D01*
G01*
X310976804Y-38059034D02*
G75*
G03*
X308976804Y-38059034I-1000000J0D01*
G01*
D12*
%TO.C,U23*%
X220976804Y-133059034D02*
X220976804Y-127059034D01*
X222976804Y-133059034D02*
X222976804Y-127059034D01*
D13*
X220976804Y-127809034D02*
G75*
G03*
X222976804Y-127809034I1000000J0D01*
G01*
X222976804Y-132059034D02*
G75*
G03*
X220976804Y-132059034I-1000000J0D01*
G01*
D12*
%TO.C,U9*%
X201149304Y-31059034D02*
X221149304Y-31059034D01*
X221149304Y-31059034D02*
X221149304Y-135059034D01*
X221149304Y-135059034D02*
X201149304Y-135059034D01*
X201149304Y-135059034D02*
X201149304Y-31059034D01*
X217611304Y-33059034D02*
G75*
G03*
X217611304Y-33059034I-762000J0D01*
G01*
X206689304Y-133059034D02*
G75*
G03*
X206689304Y-133059034I0J0D01*
G01*
X211769304Y-133059034D02*
G75*
G03*
X211769304Y-133059034I0J0D01*
G01*
X215071304Y-133059034D02*
G75*
G03*
X215071304Y-133059034I-762000J0D01*
G01*
X214309304Y-133059034D02*
G75*
G03*
X214309304Y-133059034I0J0D01*
G01*
X209229304Y-33059034D02*
G75*
G03*
X209229304Y-33059034I0J0D01*
G01*
X215071304Y-33059034D02*
G75*
G03*
X215071304Y-33059034I-762000J0D01*
G01*
X207451304Y-33059034D02*
G75*
G03*
X207451304Y-33059034I-762000J0D01*
G01*
X216849304Y-133059034D02*
G75*
G03*
X216849304Y-133059034I0J0D01*
G01*
X217611304Y-133059034D02*
G75*
G03*
X217611304Y-133059034I-762000J0D01*
G01*
X216849304Y-33059034D02*
G75*
G03*
X216849304Y-33059034I0J0D01*
G01*
X212531304Y-33059034D02*
G75*
G03*
X212531304Y-33059034I-762000J0D01*
G01*
X211769304Y-33059034D02*
G75*
G03*
X211769304Y-33059034I0J0D01*
G01*
X204911304Y-33059034D02*
G75*
G03*
X204911304Y-33059034I-762000J0D01*
G01*
X204149304Y-33059034D02*
G75*
G03*
X204149304Y-33059034I0J0D01*
G01*
X212531304Y-133059034D02*
G75*
G03*
X212531304Y-133059034I-762000J0D01*
G01*
X214309304Y-33059034D02*
G75*
G03*
X214309304Y-33059034I0J0D01*
G01*
X209991304Y-133059034D02*
G75*
G03*
X209991304Y-133059034I-762000J0D01*
G01*
X209991304Y-33059034D02*
G75*
G03*
X209991304Y-33059034I-762000J0D01*
G01*
X204911304Y-133059034D02*
G75*
G03*
X204911304Y-133059034I-762000J0D01*
G01*
X204149304Y-133059034D02*
G75*
G03*
X204149304Y-133059034I0J0D01*
G01*
X206689304Y-33059034D02*
G75*
G03*
X206689304Y-33059034I0J0D01*
G01*
X209229304Y-133059034D02*
G75*
G03*
X209229304Y-133059034I0J0D01*
G01*
X207451304Y-133059034D02*
G75*
G03*
X207451304Y-133059034I-762000J0D01*
G01*
%TO.C,U13*%
X266976804Y-31059034D02*
X286976804Y-31059034D01*
X286976804Y-31059034D02*
X286976804Y-135059034D01*
X286976804Y-135059034D02*
X266976804Y-135059034D01*
X266976804Y-135059034D02*
X266976804Y-31059034D01*
X283438804Y-133059034D02*
G75*
G03*
X283438804Y-133059034I-762000J0D01*
G01*
X275056804Y-133059034D02*
G75*
G03*
X275056804Y-133059034I0J0D01*
G01*
X280136804Y-133059034D02*
G75*
G03*
X280136804Y-133059034I0J0D01*
G01*
X277596804Y-33059034D02*
G75*
G03*
X277596804Y-33059034I0J0D01*
G01*
X282676804Y-33059034D02*
G75*
G03*
X282676804Y-33059034I0J0D01*
G01*
X272516804Y-33059034D02*
G75*
G03*
X272516804Y-33059034I0J0D01*
G01*
X269976804Y-33059034D02*
G75*
G03*
X269976804Y-33059034I0J0D01*
G01*
X280898804Y-33059034D02*
G75*
G03*
X280898804Y-33059034I-762000J0D01*
G01*
X283438804Y-33059034D02*
G75*
G03*
X283438804Y-33059034I-762000J0D01*
G01*
X277596804Y-133059034D02*
G75*
G03*
X277596804Y-133059034I0J0D01*
G01*
X275056804Y-33059034D02*
G75*
G03*
X275056804Y-33059034I0J0D01*
G01*
X270738804Y-133059034D02*
G75*
G03*
X270738804Y-133059034I-762000J0D01*
G01*
X270738804Y-33059034D02*
G75*
G03*
X270738804Y-33059034I-762000J0D01*
G01*
X272516804Y-133059034D02*
G75*
G03*
X272516804Y-133059034I0J0D01*
G01*
X282676804Y-133059034D02*
G75*
G03*
X282676804Y-133059034I0J0D01*
G01*
X280136804Y-33059034D02*
G75*
G03*
X280136804Y-33059034I0J0D01*
G01*
X278358804Y-133059034D02*
G75*
G03*
X278358804Y-133059034I-762000J0D01*
G01*
X269976804Y-133059034D02*
G75*
G03*
X269976804Y-133059034I0J0D01*
G01*
X280898804Y-133059034D02*
G75*
G03*
X280898804Y-133059034I-762000J0D01*
G01*
X273278804Y-33059034D02*
G75*
G03*
X273278804Y-33059034I-762000J0D01*
G01*
X278358804Y-33059034D02*
G75*
G03*
X278358804Y-33059034I-762000J0D01*
G01*
X275818804Y-133059034D02*
G75*
G03*
X275818804Y-133059034I-762000J0D01*
G01*
X273278804Y-133059034D02*
G75*
G03*
X273278804Y-133059034I-762000J0D01*
G01*
X275818804Y-33059034D02*
G75*
G03*
X275818804Y-33059034I-762000J0D01*
G01*
%TO.C,U14*%
X310976804Y-31059034D02*
X330976804Y-31059034D01*
X330976804Y-31059034D02*
X330976804Y-135059034D01*
X330976804Y-135059034D02*
X310976804Y-135059034D01*
X310976804Y-135059034D02*
X310976804Y-31059034D01*
X314738804Y-133059034D02*
G75*
G03*
X314738804Y-133059034I-762000J0D01*
G01*
X327438804Y-33059034D02*
G75*
G03*
X327438804Y-33059034I-762000J0D01*
G01*
X317278804Y-33059034D02*
G75*
G03*
X317278804Y-33059034I-762000J0D01*
G01*
X321596804Y-133059034D02*
G75*
G03*
X321596804Y-133059034I0J0D01*
G01*
X326676804Y-33059034D02*
G75*
G03*
X326676804Y-33059034I0J0D01*
G01*
X313976804Y-33059034D02*
G75*
G03*
X313976804Y-33059034I0J0D01*
G01*
X326676804Y-133059034D02*
G75*
G03*
X326676804Y-133059034I0J0D01*
G01*
X314738804Y-33059034D02*
G75*
G03*
X314738804Y-33059034I-762000J0D01*
G01*
X321596804Y-33059034D02*
G75*
G03*
X321596804Y-33059034I0J0D01*
G01*
X324898804Y-33059034D02*
G75*
G03*
X324898804Y-33059034I-762000J0D01*
G01*
X324136804Y-133059034D02*
G75*
G03*
X324136804Y-133059034I0J0D01*
G01*
X327438804Y-133059034D02*
G75*
G03*
X327438804Y-133059034I-762000J0D01*
G01*
X319056804Y-33059034D02*
G75*
G03*
X319056804Y-33059034I0J0D01*
G01*
X319818804Y-133059034D02*
G75*
G03*
X319818804Y-133059034I-762000J0D01*
G01*
X322358804Y-133059034D02*
G75*
G03*
X322358804Y-133059034I-762000J0D01*
G01*
X324898804Y-133059034D02*
G75*
G03*
X324898804Y-133059034I-762000J0D01*
G01*
X313976804Y-133059034D02*
G75*
G03*
X313976804Y-133059034I0J0D01*
G01*
X319056804Y-133059034D02*
G75*
G03*
X319056804Y-133059034I0J0D01*
G01*
X316516804Y-33059034D02*
G75*
G03*
X316516804Y-33059034I0J0D01*
G01*
X324136804Y-33059034D02*
G75*
G03*
X324136804Y-33059034I0J0D01*
G01*
X316516804Y-133059034D02*
G75*
G03*
X316516804Y-133059034I0J0D01*
G01*
X317278804Y-133059034D02*
G75*
G03*
X317278804Y-133059034I-762000J0D01*
G01*
X322358804Y-33059034D02*
G75*
G03*
X322358804Y-33059034I-762000J0D01*
G01*
X319818804Y-33059034D02*
G75*
G03*
X319818804Y-33059034I-762000J0D01*
G01*
%TO.C,U15*%
X288976804Y-31059034D02*
X308976804Y-31059034D01*
X308976804Y-31059034D02*
X308976804Y-135059034D01*
X308976804Y-135059034D02*
X288976804Y-135059034D01*
X288976804Y-135059034D02*
X288976804Y-31059034D01*
X291976804Y-133059034D02*
G75*
G03*
X291976804Y-133059034I0J0D01*
G01*
X302898804Y-33059034D02*
G75*
G03*
X302898804Y-33059034I-762000J0D01*
G01*
X295278804Y-133059034D02*
G75*
G03*
X295278804Y-133059034I-762000J0D01*
G01*
X297056804Y-133059034D02*
G75*
G03*
X297056804Y-133059034I0J0D01*
G01*
X302136804Y-133059034D02*
G75*
G03*
X302136804Y-133059034I0J0D01*
G01*
X295278804Y-33059034D02*
G75*
G03*
X295278804Y-33059034I-762000J0D01*
G01*
X294516804Y-33059034D02*
G75*
G03*
X294516804Y-33059034I0J0D01*
G01*
X305438804Y-33059034D02*
G75*
G03*
X305438804Y-33059034I-762000J0D01*
G01*
X304676804Y-133059034D02*
G75*
G03*
X304676804Y-133059034I0J0D01*
G01*
X292738804Y-133059034D02*
G75*
G03*
X292738804Y-133059034I-762000J0D01*
G01*
X292738804Y-33059034D02*
G75*
G03*
X292738804Y-33059034I-762000J0D01*
G01*
X305438804Y-133059034D02*
G75*
G03*
X305438804Y-133059034I-762000J0D01*
G01*
X304676804Y-33059034D02*
G75*
G03*
X304676804Y-33059034I0J0D01*
G01*
X300358804Y-33059034D02*
G75*
G03*
X300358804Y-33059034I-762000J0D01*
G01*
X294516804Y-133059034D02*
G75*
G03*
X294516804Y-133059034I0J0D01*
G01*
X299596804Y-133059034D02*
G75*
G03*
X299596804Y-133059034I0J0D01*
G01*
X291976804Y-33059034D02*
G75*
G03*
X291976804Y-33059034I0J0D01*
G01*
X299596804Y-33059034D02*
G75*
G03*
X299596804Y-33059034I0J0D01*
G01*
X297818804Y-133059034D02*
G75*
G03*
X297818804Y-133059034I-762000J0D01*
G01*
X302136804Y-33059034D02*
G75*
G03*
X302136804Y-33059034I0J0D01*
G01*
X297056804Y-33059034D02*
G75*
G03*
X297056804Y-33059034I0J0D01*
G01*
X302898804Y-133059034D02*
G75*
G03*
X302898804Y-133059034I-762000J0D01*
G01*
X297818804Y-33059034D02*
G75*
G03*
X297818804Y-33059034I-762000J0D01*
G01*
X300358804Y-133059034D02*
G75*
G03*
X300358804Y-133059034I-762000J0D01*
G01*
%TO.C,U10*%
X244976804Y-31059034D02*
X264976804Y-31059034D01*
X264976804Y-31059034D02*
X264976804Y-135059034D01*
X264976804Y-135059034D02*
X244976804Y-135059034D01*
X244976804Y-135059034D02*
X244976804Y-31059034D01*
X258898804Y-33059034D02*
G75*
G03*
X258898804Y-33059034I-762000J0D01*
G01*
X253056804Y-133059034D02*
G75*
G03*
X253056804Y-133059034I0J0D01*
G01*
X253056804Y-33059034D02*
G75*
G03*
X253056804Y-33059034I0J0D01*
G01*
X251278804Y-133059034D02*
G75*
G03*
X251278804Y-133059034I-762000J0D01*
G01*
X253818804Y-133059034D02*
G75*
G03*
X253818804Y-133059034I-762000J0D01*
G01*
X256358804Y-133059034D02*
G75*
G03*
X256358804Y-133059034I-762000J0D01*
G01*
X251278804Y-33059034D02*
G75*
G03*
X251278804Y-33059034I-762000J0D01*
G01*
X253818804Y-33059034D02*
G75*
G03*
X253818804Y-33059034I-762000J0D01*
G01*
X247976804Y-33059034D02*
G75*
G03*
X247976804Y-33059034I0J0D01*
G01*
X248738804Y-33059034D02*
G75*
G03*
X248738804Y-33059034I-762000J0D01*
G01*
X258898804Y-133059034D02*
G75*
G03*
X258898804Y-133059034I-762000J0D01*
G01*
X260676804Y-33059034D02*
G75*
G03*
X260676804Y-33059034I0J0D01*
G01*
X260676804Y-133059034D02*
G75*
G03*
X260676804Y-133059034I0J0D01*
G01*
X250516804Y-33059034D02*
G75*
G03*
X250516804Y-33059034I0J0D01*
G01*
X256358804Y-33059034D02*
G75*
G03*
X256358804Y-33059034I-762000J0D01*
G01*
X248738804Y-133059034D02*
G75*
G03*
X248738804Y-133059034I-762000J0D01*
G01*
X247976804Y-133059034D02*
G75*
G03*
X247976804Y-133059034I0J0D01*
G01*
X261438804Y-133059034D02*
G75*
G03*
X261438804Y-133059034I-762000J0D01*
G01*
X258136804Y-33059034D02*
G75*
G03*
X258136804Y-33059034I0J0D01*
G01*
X258136804Y-133059034D02*
G75*
G03*
X258136804Y-133059034I0J0D01*
G01*
X250516804Y-133059034D02*
G75*
G03*
X250516804Y-133059034I0J0D01*
G01*
X255596804Y-133059034D02*
G75*
G03*
X255596804Y-133059034I0J0D01*
G01*
X255596804Y-33059034D02*
G75*
G03*
X255596804Y-33059034I0J0D01*
G01*
X261438804Y-33059034D02*
G75*
G03*
X261438804Y-33059034I-762000J0D01*
G01*
%TO.C,U11*%
X222976804Y-31059034D02*
X242976804Y-31059034D01*
X242976804Y-31059034D02*
X242976804Y-135059034D01*
X242976804Y-135059034D02*
X222976804Y-135059034D01*
X222976804Y-135059034D02*
X222976804Y-31059034D01*
X234358804Y-33059034D02*
G75*
G03*
X234358804Y-33059034I-762000J0D01*
G01*
X231818804Y-133059034D02*
G75*
G03*
X231818804Y-133059034I-762000J0D01*
G01*
X238676804Y-133059034D02*
G75*
G03*
X238676804Y-133059034I0J0D01*
G01*
X228516804Y-133059034D02*
G75*
G03*
X228516804Y-133059034I0J0D01*
G01*
X236898804Y-133059034D02*
G75*
G03*
X236898804Y-133059034I-762000J0D01*
G01*
X226738804Y-33059034D02*
G75*
G03*
X226738804Y-33059034I-762000J0D01*
G01*
X226738804Y-133059034D02*
G75*
G03*
X226738804Y-133059034I-762000J0D01*
G01*
X233596804Y-33059034D02*
G75*
G03*
X233596804Y-33059034I0J0D01*
G01*
X231056804Y-33059034D02*
G75*
G03*
X231056804Y-33059034I0J0D01*
G01*
X236136804Y-33059034D02*
G75*
G03*
X236136804Y-33059034I0J0D01*
G01*
X234358804Y-133059034D02*
G75*
G03*
X234358804Y-133059034I-762000J0D01*
G01*
X236898804Y-33059034D02*
G75*
G03*
X236898804Y-33059034I-762000J0D01*
G01*
X239438804Y-33059034D02*
G75*
G03*
X239438804Y-33059034I-762000J0D01*
G01*
X229278804Y-33059034D02*
G75*
G03*
X229278804Y-33059034I-762000J0D01*
G01*
X225976804Y-33059034D02*
G75*
G03*
X225976804Y-33059034I0J0D01*
G01*
X236136804Y-133059034D02*
G75*
G03*
X236136804Y-133059034I0J0D01*
G01*
X225976804Y-133059034D02*
G75*
G03*
X225976804Y-133059034I0J0D01*
G01*
X228516804Y-33059034D02*
G75*
G03*
X228516804Y-33059034I0J0D01*
G01*
X239438804Y-133059034D02*
G75*
G03*
X239438804Y-133059034I-762000J0D01*
G01*
X229278804Y-133059034D02*
G75*
G03*
X229278804Y-133059034I-762000J0D01*
G01*
X231056804Y-133059034D02*
G75*
G03*
X231056804Y-133059034I0J0D01*
G01*
X233596804Y-133059034D02*
G75*
G03*
X233596804Y-133059034I0J0D01*
G01*
X238676804Y-33059034D02*
G75*
G03*
X238676804Y-33059034I0J0D01*
G01*
X231818804Y-33059034D02*
G75*
G03*
X231818804Y-33059034I-762000J0D01*
G01*
%TD*%
M02*
