%TF.GenerationSoftware,KiCad,Pcbnew,(6.0.5)*%
%TF.CreationDate,2022-07-17T18:42:08+02:00*%
%TF.ProjectId,clarinoid-devboard,636c6172-696e-46f6-9964-2d646576626f,rev?*%
%TF.SameCoordinates,Original*%
%TF.FileFunction,Paste,Top*%
%TF.FilePolarity,Positive*%
%FSLAX46Y46*%
G04 Gerber Fmt 4.6, Leading zero omitted, Abs format (unit mm)*
G04 Created by KiCad (PCBNEW (6.0.5)) date 2022-07-17 18:42:08*
%MOMM*%
%LPD*%
G01*
G04 APERTURE LIST*
G04 Aperture macros list*
%AMRoundRect*
0 Rectangle with rounded corners*
0 $1 Rounding radius*
0 $2 $3 $4 $5 $6 $7 $8 $9 X,Y pos of 4 corners*
0 Add a 4 corners polygon primitive as box body*
4,1,4,$2,$3,$4,$5,$6,$7,$8,$9,$2,$3,0*
0 Add four circle primitives for the rounded corners*
1,1,$1+$1,$2,$3*
1,1,$1+$1,$4,$5*
1,1,$1+$1,$6,$7*
1,1,$1+$1,$8,$9*
0 Add four rect primitives between the rounded corners*
20,1,$1+$1,$2,$3,$4,$5,0*
20,1,$1+$1,$4,$5,$6,$7,0*
20,1,$1+$1,$6,$7,$8,$9,0*
20,1,$1+$1,$8,$9,$2,$3,0*%
%AMFreePoly0*
4,1,14,0.354215,0.088284,0.450784,-0.008285,0.462500,-0.036569,0.462500,-0.060000,0.450784,-0.088284,0.422500,-0.100000,-0.422500,-0.100000,-0.450784,-0.088284,-0.462500,-0.060000,-0.462500,0.060000,-0.450784,0.088284,-0.422500,0.100000,0.325931,0.100000,0.354215,0.088284,0.354215,0.088284,$1*%
%AMFreePoly1*
4,1,14,0.450784,0.088284,0.462500,0.060000,0.462500,0.036569,0.450784,0.008285,0.354215,-0.088284,0.325931,-0.100000,-0.422500,-0.100000,-0.450784,-0.088284,-0.462500,-0.060000,-0.462500,0.060000,-0.450784,0.088284,-0.422500,0.100000,0.422500,0.100000,0.450784,0.088284,0.450784,0.088284,$1*%
%AMFreePoly2*
4,1,14,0.088284,0.450784,0.100000,0.422500,0.100000,-0.422500,0.088284,-0.450784,0.060000,-0.462500,-0.060000,-0.462500,-0.088284,-0.450784,-0.100000,-0.422500,-0.100000,0.325931,-0.088284,0.354215,0.008285,0.450784,0.036569,0.462500,0.060000,0.462500,0.088284,0.450784,0.088284,0.450784,$1*%
%AMFreePoly3*
4,1,14,-0.008285,0.450784,0.088284,0.354215,0.100000,0.325931,0.100000,-0.422500,0.088284,-0.450784,0.060000,-0.462500,-0.060000,-0.462500,-0.088284,-0.450784,-0.100000,-0.422500,-0.100000,0.422500,-0.088284,0.450784,-0.060000,0.462500,-0.036569,0.462500,-0.008285,0.450784,-0.008285,0.450784,$1*%
%AMFreePoly4*
4,1,14,0.450784,0.088284,0.462500,0.060000,0.462500,-0.060000,0.450784,-0.088284,0.422500,-0.100000,-0.325931,-0.100000,-0.354215,-0.088284,-0.450784,0.008285,-0.462500,0.036569,-0.462500,0.060000,-0.450784,0.088284,-0.422500,0.100000,0.422500,0.100000,0.450784,0.088284,0.450784,0.088284,$1*%
%AMFreePoly5*
4,1,14,0.450784,0.088284,0.462500,0.060000,0.462500,-0.060000,0.450784,-0.088284,0.422500,-0.100000,-0.422500,-0.100000,-0.450784,-0.088284,-0.462500,-0.060000,-0.462500,-0.036569,-0.450784,-0.008285,-0.354215,0.088284,-0.325931,0.100000,0.422500,0.100000,0.450784,0.088284,0.450784,0.088284,$1*%
%AMFreePoly6*
4,1,14,0.088284,0.450784,0.100000,0.422500,0.100000,-0.325931,0.088284,-0.354215,-0.008285,-0.450784,-0.036569,-0.462500,-0.060000,-0.462500,-0.088284,-0.450784,-0.100000,-0.422500,-0.100000,0.422500,-0.088284,0.450784,-0.060000,0.462500,0.060000,0.462500,0.088284,0.450784,0.088284,0.450784,$1*%
%AMFreePoly7*
4,1,14,0.088284,0.450784,0.100000,0.422500,0.100000,-0.422500,0.088284,-0.450784,0.060000,-0.462500,0.036569,-0.462500,0.008285,-0.450784,-0.088284,-0.354215,-0.100000,-0.325931,-0.100000,0.422500,-0.088284,0.450784,-0.060000,0.462500,0.060000,0.462500,0.088284,0.450784,0.088284,0.450784,$1*%
G04 Aperture macros list end*
%ADD10RoundRect,0.218750X0.256250X-0.218750X0.256250X0.218750X-0.256250X0.218750X-0.256250X-0.218750X0*%
%ADD11RoundRect,0.250000X-0.475000X0.250000X-0.475000X-0.250000X0.475000X-0.250000X0.475000X0.250000X0*%
%ADD12RoundRect,0.250000X-0.625000X0.312500X-0.625000X-0.312500X0.625000X-0.312500X0.625000X0.312500X0*%
%ADD13R,1.550000X0.300000*%
%ADD14R,2.750000X1.200000*%
%ADD15RoundRect,0.250000X0.475000X-0.250000X0.475000X0.250000X-0.475000X0.250000X-0.475000X-0.250000X0*%
%ADD16RoundRect,0.250000X0.625000X-0.312500X0.625000X0.312500X-0.625000X0.312500X-0.625000X-0.312500X0*%
%ADD17RoundRect,0.250000X0.312500X0.625000X-0.312500X0.625000X-0.312500X-0.625000X0.312500X-0.625000X0*%
%ADD18RoundRect,0.250000X0.250000X0.475000X-0.250000X0.475000X-0.250000X-0.475000X0.250000X-0.475000X0*%
%ADD19RoundRect,0.250000X-0.250000X-0.475000X0.250000X-0.475000X0.250000X0.475000X-0.250000X0.475000X0*%
%ADD20R,1.475000X0.450000*%
%ADD21R,0.950000X0.700000*%
%ADD22R,2.250000X2.850000*%
%ADD23R,7.340000X6.350000*%
%ADD24R,3.500000X1.850000*%
%ADD25R,0.700000X1.600000*%
%ADD26R,1.200000X1.500000*%
%ADD27R,1.200000X2.200000*%
%ADD28R,1.600000X1.500000*%
%ADD29R,0.750000X1.000000*%
%ADD30RoundRect,0.243750X-0.243750X-0.456250X0.243750X-0.456250X0.243750X0.456250X-0.243750X0.456250X0*%
%ADD31RoundRect,0.250000X-0.312500X-0.625000X0.312500X-0.625000X0.312500X0.625000X-0.312500X0.625000X0*%
%ADD32R,0.300000X0.800000*%
%ADD33R,0.800000X0.300000*%
%ADD34R,1.800000X1.800000*%
%ADD35R,0.300000X1.150000*%
%ADD36R,1.500000X1.000000*%
%ADD37RoundRect,0.243750X0.243750X0.456250X-0.243750X0.456250X-0.243750X-0.456250X0.243750X-0.456250X0*%
%ADD38FreePoly0,270.000000*%
%ADD39RoundRect,0.050000X-0.050000X0.412500X-0.050000X-0.412500X0.050000X-0.412500X0.050000X0.412500X0*%
%ADD40FreePoly1,270.000000*%
%ADD41FreePoly2,270.000000*%
%ADD42RoundRect,0.050000X-0.412500X0.050000X-0.412500X-0.050000X0.412500X-0.050000X0.412500X0.050000X0*%
%ADD43FreePoly3,270.000000*%
%ADD44FreePoly4,270.000000*%
%ADD45FreePoly5,270.000000*%
%ADD46FreePoly6,270.000000*%
%ADD47FreePoly7,270.000000*%
%ADD48RoundRect,0.150000X0.512500X0.150000X-0.512500X0.150000X-0.512500X-0.150000X0.512500X-0.150000X0*%
%ADD49RoundRect,0.100000X-0.637500X-0.100000X0.637500X-0.100000X0.637500X0.100000X-0.637500X0.100000X0*%
%ADD50R,1.300000X1.700000*%
%ADD51R,0.450000X0.600000*%
%ADD52R,1.000000X0.750000*%
%ADD53RoundRect,0.150000X-0.512500X-0.150000X0.512500X-0.150000X0.512500X0.150000X-0.512500X0.150000X0*%
G04 APERTURE END LIST*
D10*
%TO.C,D5*%
X170576804Y-119146534D03*
X170576804Y-117571534D03*
%TD*%
D11*
%TO.C,C4*%
X77876804Y-81009034D03*
X77876804Y-82909034D03*
%TD*%
D12*
%TO.C,R38*%
X178026804Y-120784034D03*
X178026804Y-123709034D03*
%TD*%
D13*
%TO.C,U16*%
X147239304Y-71109034D03*
X154789304Y-70859034D03*
X147239304Y-70609034D03*
X154789304Y-70359034D03*
X147239304Y-70109034D03*
X154789304Y-69859034D03*
X147239304Y-69609034D03*
X154789304Y-69359034D03*
X147239304Y-69109034D03*
X154789304Y-68859034D03*
X147239304Y-68609034D03*
X154789304Y-68359034D03*
X147239304Y-68109034D03*
X154789304Y-67859034D03*
X147239304Y-67609034D03*
X154789304Y-67359034D03*
X147239304Y-67109034D03*
X154789304Y-66859034D03*
X147239304Y-66609034D03*
X154789304Y-66359034D03*
X147239304Y-66109034D03*
X154789304Y-65859034D03*
X147239304Y-65609034D03*
X154789304Y-63359034D03*
X147239304Y-63109034D03*
X154789304Y-62859034D03*
X147239304Y-62609034D03*
X154789304Y-62359034D03*
X147239304Y-62109034D03*
X154789304Y-61859034D03*
X147239304Y-61609034D03*
X154789304Y-61359034D03*
X147239304Y-61109034D03*
X154789304Y-60859034D03*
X147239304Y-60609034D03*
X154789304Y-60359034D03*
X147239304Y-60109034D03*
X154789304Y-59859034D03*
X147239304Y-59609034D03*
X154789304Y-59359034D03*
X147239304Y-59109034D03*
X154789304Y-58859034D03*
X147239304Y-58609034D03*
X154789304Y-58359034D03*
X147239304Y-58109034D03*
X154789304Y-57859034D03*
X147239304Y-57609034D03*
X154789304Y-57359034D03*
X147239304Y-57109034D03*
X154789304Y-56859034D03*
X147239304Y-56609034D03*
X154789304Y-56359034D03*
X147239304Y-56109034D03*
X154789304Y-55859034D03*
X147239304Y-55609034D03*
X154789304Y-55359034D03*
X147239304Y-55109034D03*
X154789304Y-54859034D03*
X147239304Y-54609034D03*
X154789304Y-54359034D03*
X147239304Y-54109034D03*
X154789304Y-53859034D03*
X147239304Y-53609034D03*
X154789304Y-53359034D03*
X147239304Y-53109034D03*
X154789304Y-52859034D03*
X147239304Y-52609034D03*
D14*
X148014304Y-72209034D03*
X148014304Y-51509034D03*
%TD*%
D15*
%TO.C,C21*%
X77485804Y-60349034D03*
X77485804Y-58449034D03*
%TD*%
D10*
%TO.C,D7*%
X172176804Y-119146534D03*
X172176804Y-117571534D03*
%TD*%
D12*
%TO.C,R35*%
X171126804Y-120784034D03*
X171126804Y-123709034D03*
%TD*%
D16*
%TO.C,R40*%
X130151804Y-112159034D03*
X130151804Y-109234034D03*
%TD*%
D11*
%TO.C,C1*%
X124947054Y-54109034D03*
X124947054Y-56009034D03*
%TD*%
D15*
%TO.C,C23*%
X81685804Y-60349034D03*
X81685804Y-58449034D03*
%TD*%
D17*
%TO.C,R10*%
X87601804Y-51659034D03*
X84676804Y-51659034D03*
%TD*%
D18*
%TO.C,C14*%
X94476804Y-75559034D03*
X92576804Y-75559034D03*
%TD*%
D19*
%TO.C,C29*%
X117776804Y-52059034D03*
X119676804Y-52059034D03*
%TD*%
D15*
%TO.C,C25*%
X143576804Y-122359034D03*
X143576804Y-120459034D03*
%TD*%
D10*
%TO.C,D9*%
X175376804Y-119146534D03*
X175376804Y-117571534D03*
%TD*%
D18*
%TO.C,C18*%
X93251804Y-56309034D03*
X91351804Y-56309034D03*
%TD*%
D15*
%TO.C,C20*%
X75385804Y-60349034D03*
X75385804Y-58449034D03*
%TD*%
D20*
%TO.C,IC1*%
X128038804Y-120284034D03*
X128038804Y-120934034D03*
X128038804Y-121584034D03*
X128038804Y-122234034D03*
X128038804Y-122884034D03*
X128038804Y-123534034D03*
X128038804Y-124184034D03*
X128038804Y-124834034D03*
X133914804Y-124834034D03*
X133914804Y-124184034D03*
X133914804Y-123534034D03*
X133914804Y-122884034D03*
X133914804Y-122234034D03*
X133914804Y-121584034D03*
X133914804Y-120934034D03*
X133914804Y-120284034D03*
%TD*%
D16*
%TO.C,R19*%
X92976804Y-100021534D03*
X92976804Y-97096534D03*
%TD*%
D21*
%TO.C,IC2*%
X101171804Y-62609034D03*
X101171804Y-61339034D03*
X101171804Y-60069034D03*
X101171804Y-58799034D03*
X95221804Y-58799034D03*
X95221804Y-60069034D03*
X95221804Y-61339034D03*
X95221804Y-62609034D03*
D22*
X98196804Y-60704034D03*
%TD*%
D11*
%TO.C,C12*%
X73476804Y-78709034D03*
X73476804Y-80609034D03*
%TD*%
%TO.C,C26*%
X120883054Y-54109034D03*
X120883054Y-56009034D03*
%TD*%
D23*
%TO.C,BT1*%
X64646804Y-39059034D03*
X143306804Y-39059034D03*
%TD*%
D24*
%TO.C,L1*%
X98496804Y-56824034D03*
X98496804Y-51224034D03*
%TD*%
D15*
%TO.C,C27*%
X75776804Y-101509034D03*
X75776804Y-99609034D03*
%TD*%
D12*
%TO.C,R4*%
X149776804Y-120546534D03*
X149776804Y-123471534D03*
%TD*%
D25*
%TO.C,J30*%
X165280804Y-43046534D03*
X166380804Y-43046534D03*
X167480804Y-43046534D03*
X168580804Y-43046534D03*
X169680804Y-43046534D03*
X170780804Y-43046534D03*
X171880804Y-43046534D03*
X172980804Y-43046534D03*
X174080804Y-43046534D03*
D26*
X175280804Y-42046534D03*
D27*
X175280804Y-32446534D03*
X159780804Y-32446534D03*
D28*
X160680804Y-42046534D03*
%TD*%
D29*
%TO.C,SW6*%
X152046805Y-87559033D03*
X155796805Y-87559033D03*
X152046805Y-81559033D03*
X155796805Y-81559033D03*
%TD*%
D12*
%TO.C,R41*%
X130151804Y-104434034D03*
X130151804Y-107359034D03*
%TD*%
D10*
%TO.C,D11*%
X178576804Y-119146534D03*
X178576804Y-117571534D03*
%TD*%
D30*
%TO.C,D1*%
X104006804Y-51109034D03*
X105881804Y-51109034D03*
%TD*%
D18*
%TO.C,C15*%
X105831804Y-59957366D03*
X103931804Y-59957366D03*
%TD*%
D31*
%TO.C,R7*%
X148777293Y-40844034D03*
X151702293Y-40844034D03*
%TD*%
D18*
%TO.C,C8*%
X84926804Y-69759034D03*
X83026804Y-69759034D03*
%TD*%
D15*
%TO.C,C5*%
X89576804Y-82909034D03*
X89576804Y-81009034D03*
%TD*%
%TO.C,C9*%
X73476804Y-77109034D03*
X73476804Y-75209034D03*
%TD*%
D32*
%TO.C,IC3*%
X160625804Y-134131534D03*
X161125804Y-134131534D03*
X161625804Y-134131534D03*
X162125804Y-134131534D03*
D33*
X162875804Y-133381534D03*
X162875804Y-132881534D03*
X162875804Y-132381534D03*
X162875804Y-131881534D03*
D32*
X162125804Y-131131534D03*
X161625804Y-131131534D03*
X161125804Y-131131534D03*
X160625804Y-131131534D03*
D33*
X159875804Y-131881534D03*
X159875804Y-132381534D03*
X159875804Y-132881534D03*
X159875804Y-133381534D03*
D34*
X161375804Y-132631534D03*
%TD*%
D35*
%TO.C,J2*%
X156627293Y-35429034D03*
X155827293Y-35429034D03*
X154527293Y-35429034D03*
X153527293Y-35429034D03*
X153027293Y-35429034D03*
X152027293Y-35429034D03*
X150727293Y-35429034D03*
X149927293Y-35429034D03*
X150227293Y-35429034D03*
X151027293Y-35429034D03*
X151527293Y-35429034D03*
X152527293Y-35429034D03*
X154027293Y-35429034D03*
X155027293Y-35429034D03*
X155527293Y-35429034D03*
X156327293Y-35429034D03*
%TD*%
D10*
%TO.C,D8*%
X173776804Y-119146534D03*
X173776804Y-117571534D03*
%TD*%
D36*
%TO.C,D13*%
X177526804Y-103459034D03*
X177526804Y-100259034D03*
X172626804Y-100259034D03*
X172626804Y-103459034D03*
%TD*%
D37*
%TO.C,D2*%
X105881804Y-53324867D03*
X104006804Y-53324867D03*
%TD*%
D17*
%TO.C,R6*%
X78339304Y-77959034D03*
X75414304Y-77959034D03*
%TD*%
D11*
%TO.C,C30*%
X114526804Y-54109034D03*
X114526804Y-56009034D03*
%TD*%
D15*
%TO.C,C24*%
X145676804Y-122359034D03*
X145676804Y-120459034D03*
%TD*%
D19*
%TO.C,C11*%
X89076804Y-75559034D03*
X90976804Y-75559034D03*
%TD*%
D12*
%TO.C,R34*%
X168826804Y-120784034D03*
X168826804Y-123709034D03*
%TD*%
D15*
%TO.C,C6*%
X87476804Y-82909034D03*
X87476804Y-81009034D03*
%TD*%
%TO.C,C17*%
X73285804Y-60349034D03*
X73285804Y-58449034D03*
%TD*%
D16*
%TO.C,R16*%
X115539304Y-99471534D03*
X115539304Y-96546534D03*
%TD*%
D11*
%TO.C,C2*%
X122915054Y-54109034D03*
X122915054Y-56009034D03*
%TD*%
D31*
%TO.C,R21*%
X71776804Y-88659034D03*
X74701804Y-88659034D03*
%TD*%
D37*
%TO.C,D4*%
X105881804Y-57756533D03*
X104006804Y-57756533D03*
%TD*%
D12*
%TO.C,R37*%
X175726804Y-120784034D03*
X175726804Y-123709034D03*
%TD*%
D16*
%TO.C,R22*%
X75376804Y-97821534D03*
X75376804Y-94896534D03*
%TD*%
D38*
%TO.C,U4*%
X147176804Y-124521534D03*
D39*
X146776804Y-124521534D03*
X146376804Y-124521534D03*
X145976804Y-124521534D03*
D40*
X145576804Y-124521534D03*
D41*
X144989304Y-125109034D03*
D42*
X144989304Y-125509034D03*
X144989304Y-125909034D03*
X144989304Y-126309034D03*
D43*
X144989304Y-126709034D03*
D44*
X145576804Y-127296534D03*
D39*
X145976804Y-127296534D03*
X146376804Y-127296534D03*
X146776804Y-127296534D03*
D45*
X147176804Y-127296534D03*
D46*
X147764304Y-126709034D03*
D42*
X147764304Y-126309034D03*
X147764304Y-125909034D03*
X147764304Y-125509034D03*
D47*
X147764304Y-125109034D03*
%TD*%
D19*
%TO.C,C33*%
X162725804Y-135831534D03*
X164625804Y-135831534D03*
%TD*%
D17*
%TO.C,R8*%
X157002293Y-40844034D03*
X154077293Y-40844034D03*
%TD*%
%TO.C,R14*%
X158748304Y-45959034D03*
X155823304Y-45959034D03*
%TD*%
D12*
%TO.C,R11*%
X93881804Y-51109034D03*
X93881804Y-54034034D03*
%TD*%
D48*
%TO.C,U17*%
X118864304Y-56009034D03*
X118864304Y-55059034D03*
X118864304Y-54109034D03*
X116589304Y-54109034D03*
X116589304Y-56009034D03*
%TD*%
D17*
%TO.C,R3*%
X94439304Y-82559034D03*
X91514304Y-82559034D03*
%TD*%
D19*
%TO.C,C13*%
X92576804Y-72551534D03*
X94476804Y-72551534D03*
%TD*%
D12*
%TO.C,R15*%
X127126804Y-51896534D03*
X127126804Y-54821534D03*
%TD*%
D11*
%TO.C,C32*%
X121939304Y-97559034D03*
X121939304Y-99459034D03*
%TD*%
D17*
%TO.C,R1*%
X94439304Y-77759034D03*
X91514304Y-77759034D03*
%TD*%
D10*
%TO.C,D10*%
X176976804Y-119146534D03*
X176976804Y-117571534D03*
%TD*%
D11*
%TO.C,C3*%
X79976804Y-81009034D03*
X79976804Y-82909034D03*
%TD*%
D49*
%TO.C,U1*%
X80714304Y-73634034D03*
X80714304Y-74284034D03*
X80714304Y-74934034D03*
X80714304Y-75584034D03*
X80714304Y-76234034D03*
X80714304Y-76884034D03*
X80714304Y-77534034D03*
X80714304Y-78184034D03*
X80714304Y-78834034D03*
X80714304Y-79484034D03*
X86439304Y-79484034D03*
X86439304Y-78834034D03*
X86439304Y-78184034D03*
X86439304Y-77534034D03*
X86439304Y-76884034D03*
X86439304Y-76234034D03*
X86439304Y-75584034D03*
X86439304Y-74934034D03*
X86439304Y-74284034D03*
X86439304Y-73634034D03*
%TD*%
D30*
%TO.C,D3*%
X104006804Y-55540700D03*
X105881804Y-55540700D03*
%TD*%
D36*
%TO.C,D12*%
X177526804Y-97759034D03*
X177526804Y-94559034D03*
X172626804Y-94559034D03*
X172626804Y-97759034D03*
%TD*%
D19*
%TO.C,C28*%
X167726804Y-48559034D03*
X169626804Y-48559034D03*
%TD*%
D18*
%TO.C,C31*%
X116176804Y-52059034D03*
X114276804Y-52059034D03*
%TD*%
%TO.C,C10*%
X90976804Y-72551534D03*
X89076804Y-72551534D03*
%TD*%
D12*
%TO.C,R36*%
X173426804Y-120784034D03*
X173426804Y-123709034D03*
%TD*%
D50*
%TO.C,D16*%
X124976804Y-52159034D03*
X121476804Y-52159034D03*
%TD*%
D36*
%TO.C,D14*%
X177526804Y-109159034D03*
X177526804Y-105959034D03*
X172626804Y-105959034D03*
X172626804Y-109159034D03*
%TD*%
D31*
%TO.C,R9*%
X102919304Y-62283199D03*
X105844304Y-62283199D03*
%TD*%
D51*
%TO.C,D6*%
X89476804Y-97409034D03*
X89476804Y-95309034D03*
%TD*%
D17*
%TO.C,R5*%
X78339304Y-75559034D03*
X75414304Y-75559034D03*
%TD*%
D15*
%TO.C,C22*%
X79585804Y-60349034D03*
X79585804Y-58449034D03*
%TD*%
D17*
%TO.C,R2*%
X94439304Y-80159034D03*
X91514304Y-80159034D03*
%TD*%
D16*
%TO.C,R12*%
X141376804Y-123471534D03*
X141376804Y-120546534D03*
%TD*%
D36*
%TO.C,D15*%
X177526804Y-114859034D03*
X177526804Y-111659034D03*
X172626804Y-111659034D03*
X172626804Y-114859034D03*
%TD*%
D11*
%TO.C,C19*%
X91581804Y-51059034D03*
X91581804Y-52959034D03*
%TD*%
D18*
%TO.C,C16*%
X105831804Y-64609034D03*
X103931804Y-64609034D03*
%TD*%
D31*
%TO.C,R20*%
X71776804Y-86259034D03*
X74701804Y-86259034D03*
%TD*%
D52*
%TO.C,SW1*%
X82976804Y-54934034D03*
X82976804Y-51184034D03*
X76976804Y-54934034D03*
X76976804Y-51184034D03*
%TD*%
D53*
%TO.C,U19*%
X117701804Y-97559034D03*
X117701804Y-98509034D03*
X117701804Y-99459034D03*
X119976804Y-99459034D03*
X119976804Y-97559034D03*
%TD*%
D19*
%TO.C,C7*%
X82026804Y-71859034D03*
X83926804Y-71859034D03*
%TD*%
D12*
%TO.C,R39*%
X180326804Y-120784034D03*
X180326804Y-123709034D03*
%TD*%
D48*
%TO.C,U7*%
X84314304Y-82909034D03*
X84314304Y-81959034D03*
X84314304Y-81009034D03*
X82039304Y-81009034D03*
X82039304Y-82909034D03*
%TD*%
M02*
