M48
; DRILL file {KiCad (6.0.5)} date Thu Jul 28 21:37:23 2022
; FORMAT={-:-/ absolute / inch / decimal}
; #@! TF.CreationDate,2022-07-28T21:37:23+02:00
; #@! TF.GenerationSoftware,Kicad,Pcbnew,(6.0.5)
; #@! TF.FileFunction,NonPlated,1,2,NPTH
FMAT,2
INCH
; #@! TA.AperFunction,NonPlated,NPTH,ComponentDrill
T1C0.0197
; #@! TA.AperFunction,NonPlated,NPTH,ComponentDrill
T2C0.0256
; #@! TA.AperFunction,NonPlated,NPTH,ComponentDrill
T3C0.0394
; #@! TA.AperFunction,NonPlated,NPTH,ComponentDrill
T4C0.0453
; #@! TA.AperFunction,NonPlated,NPTH,ComponentDrill
T5C0.0650
; #@! TA.AperFunction,NonPlated,NPTH,ComponentDrill
T6C0.0728
; #@! TA.AperFunction,NonPlated,NPTH,ComponentDrill
T7C0.0941
; #@! TA.AperFunction,NonPlated,NPTH,ComponentDrill
T8C0.1260
; #@! TA.AperFunction,NonPlated,NPTH,ComponentDrill
T9C0.1358
%
G90
G05
T1
X13.4701Y-4.5118
X13.4701Y-4.6102
X13.4996Y-4.5118
X13.4996Y-4.6102
X13.5291Y-4.5118
X13.5291Y-4.6102
X13.5488Y-5.7717
X13.5488Y-5.8701
X13.5586Y-4.5118
X13.5586Y-4.6102
X13.5783Y-5.7717
X13.5783Y-5.8701
X13.6078Y-5.7717
X13.6078Y-5.8701
X13.6374Y-5.7717
X13.6374Y-5.8701
X14.533Y-5.1417
X14.533Y-5.2402
X14.5626Y-5.1417
X14.5626Y-5.2402
X14.5921Y-5.1417
X14.5921Y-5.2402
X14.6216Y-5.1417
X14.6216Y-5.2402
X16.0685Y-5.7717
X16.0685Y-5.8701
X16.098Y-5.7717
X16.098Y-5.8701
X16.1078Y-4.5118
X16.1078Y-4.6102
X16.1275Y-5.7717
X16.1275Y-5.8701
X16.1374Y-4.5118
X16.1374Y-4.6102
X16.1571Y-5.7717
X16.1571Y-5.8701
X16.1669Y-4.5118
X16.1669Y-4.6102
X16.1964Y-4.5118
X16.1964Y-4.6102
X16.3047Y-5.1417
X16.3047Y-5.2402
X16.3342Y-5.1417
X16.3342Y-5.2402
X16.3638Y-5.1417
X16.3638Y-5.2402
X16.3933Y-5.1417
X16.3933Y-5.2402
X16.5704Y-6.4016
X16.5704Y-6.4311
X16.5704Y-6.4606
X16.5704Y-6.4902
X16.6689Y-6.4016
X16.6689Y-6.4311
X16.6689Y-6.4606
X16.6689Y-6.4902
X17.2102Y-4.5118
X17.2102Y-4.6102
X17.2397Y-4.5118
X17.2397Y-4.6102
X17.2693Y-4.5118
X17.2693Y-4.6102
X17.2988Y-4.5118
X17.2988Y-4.6102
X17.3677Y-5.7717
X17.3677Y-5.8701
X17.3972Y-5.7717
X17.3972Y-5.8701
X17.4267Y-5.7717
X17.4267Y-5.8701
X17.4563Y-5.7717
X17.4563Y-5.8701
X17.9484Y-0.3386
X17.9484Y-0.3681
X17.9484Y-0.3976
X17.9484Y-0.4272
X17.9484Y-2.189
X17.9484Y-2.2185
X17.9484Y-2.248
X17.9484Y-2.2776
X17.9484Y-4.0394
X17.9484Y-4.0689
X17.9484Y-4.0984
X17.9484Y-4.128
X17.9484Y-5.1024
X17.9484Y-5.1319
X17.9484Y-5.1614
X17.9484Y-5.1909
X17.9484Y-6.4016
X17.9484Y-6.4311
X17.9484Y-6.4606
X17.9484Y-6.4902
X18.0468Y-0.3386
X18.0468Y-0.3681
X18.0468Y-0.3976
X18.0468Y-0.4272
X18.0468Y-2.189
X18.0468Y-2.2185
X18.0468Y-2.248
X18.0468Y-2.2776
X18.0468Y-4.0394
X18.0468Y-4.0689
X18.0468Y-4.0984
X18.0468Y-4.128
X18.0468Y-5.1024
X18.0468Y-5.1319
X18.0468Y-5.1614
X18.0468Y-5.1909
X18.0468Y-6.4016
X18.0468Y-6.4311
X18.0468Y-6.4606
X18.0468Y-6.4902
X18.4307Y-4.2756
X18.4307Y-4.374
X18.4602Y-4.2756
X18.4602Y-4.374
X18.4897Y-4.2756
X18.4897Y-4.374
X18.5193Y-4.2756
X18.5193Y-4.374
X18.8145Y-0.3386
X18.8145Y-0.3681
X18.8145Y-0.3976
X18.8145Y-0.4272
X18.8145Y-2.189
X18.8145Y-2.2185
X18.8145Y-2.248
X18.8145Y-2.2776
X18.8145Y-4.0394
X18.8145Y-4.0689
X18.8145Y-4.0984
X18.8145Y-4.128
X18.8933Y-5.0236
X18.8933Y-5.0532
X18.8933Y-5.0827
X18.8933Y-5.1122
X18.8933Y-5.6535
X18.8933Y-5.6831
X18.8933Y-5.7126
X18.8933Y-5.7421
X18.913Y-0.3386
X18.913Y-0.3681
X18.913Y-0.3976
X18.913Y-0.4272
X18.913Y-2.189
X18.913Y-2.2185
X18.913Y-2.248
X18.913Y-2.2776
X18.913Y-4.0394
X18.913Y-4.0689
X18.913Y-4.0984
X18.913Y-4.128
X18.9917Y-5.0236
X18.9917Y-5.0532
X18.9917Y-5.0827
X18.9917Y-5.1122
X18.9917Y-5.6535
X18.9917Y-5.6831
X18.9917Y-5.7126
X18.9917Y-5.7421
X19.4149Y-4.2756
X19.4149Y-4.374
X19.4445Y-4.2756
X19.4445Y-4.374
X19.474Y-4.2756
X19.474Y-4.374
X19.5035Y-4.2756
X19.5035Y-4.374
X19.6807Y-0.3386
X19.6807Y-0.3681
X19.6807Y-0.3976
X19.6807Y-0.4272
X19.6807Y-2.189
X19.6807Y-2.2185
X19.6807Y-2.248
X19.6807Y-2.2776
X19.6807Y-4.0394
X19.6807Y-4.0689
X19.6807Y-4.0984
X19.6807Y-4.128
X19.7791Y-0.3386
X19.7791Y-0.3681
X19.7791Y-0.3976
X19.7791Y-0.4272
X19.7791Y-2.189
X19.7791Y-2.2185
X19.7791Y-2.248
X19.7791Y-2.2776
X19.7791Y-4.0394
X19.7791Y-4.0689
X19.7791Y-4.0984
X19.7791Y-4.128
X19.8382Y-5.1417
X19.8382Y-5.1713
X19.8382Y-5.2008
X19.8382Y-5.2303
X19.8382Y-6.2047
X19.8382Y-6.2343
X19.8382Y-6.2638
X19.8382Y-6.2933
X19.9366Y-5.1417
X19.9366Y-5.1713
X19.9366Y-5.2008
X19.9366Y-5.2303
X19.9366Y-6.2047
X19.9366Y-6.2343
X19.9366Y-6.2638
X19.9366Y-6.2933
X20.3204Y-5.6142
X20.3204Y-5.7126
X20.35Y-5.6142
X20.35Y-5.7126
X20.3795Y-5.6142
X20.3795Y-5.7126
X20.409Y-5.6142
X20.409Y-5.7126
X20.5468Y-0.3386
X20.5468Y-0.3681
X20.5468Y-0.3976
X20.5468Y-0.4272
X20.5468Y-2.189
X20.5468Y-2.2185
X20.5468Y-2.248
X20.5468Y-2.2776
X20.5468Y-4.0394
X20.5468Y-4.0689
X20.5468Y-4.0984
X20.5468Y-4.128
X20.6452Y-0.3386
X20.6452Y-0.3681
X20.6452Y-0.3976
X20.6452Y-0.4272
X20.6452Y-2.189
X20.6452Y-2.2185
X20.6452Y-2.248
X20.6452Y-2.2776
X20.6452Y-4.0394
X20.6452Y-4.0689
X20.6452Y-4.0984
X20.6452Y-4.128
X20.9897Y-4.2756
X20.9897Y-4.374
X21.0193Y-4.2756
X21.0193Y-4.374
X21.0488Y-4.2756
X21.0488Y-4.374
X21.0783Y-4.2756
X21.0783Y-4.374
X21.413Y-0.3386
X21.413Y-0.3681
X21.413Y-0.3976
X21.413Y-0.4272
X21.413Y-2.189
X21.413Y-2.2185
X21.413Y-2.248
X21.413Y-2.2776
X21.413Y-4.0394
X21.413Y-4.0689
X21.413Y-4.0984
X21.413Y-4.128
X21.5114Y-0.3386
X21.5114Y-0.3681
X21.5114Y-0.3976
X21.5114Y-0.4272
X21.5114Y-2.189
X21.5114Y-2.2185
X21.5114Y-2.248
X21.5114Y-2.2776
X21.5114Y-4.0394
X21.5114Y-4.0689
X21.5114Y-4.0984
X21.5114Y-4.128
X22.2791Y-0.3386
X22.2791Y-0.3681
X22.2791Y-0.3976
X22.2791Y-0.4272
X22.2791Y-2.189
X22.2791Y-2.2185
X22.2791Y-2.248
X22.2791Y-2.2776
X22.2791Y-4.0394
X22.2791Y-4.0689
X22.2791Y-4.0984
X22.2791Y-4.128
X22.3775Y-0.3386
X22.3775Y-0.3681
X22.3775Y-0.3976
X22.3775Y-0.4272
X22.3775Y-2.189
X22.3775Y-2.2185
X22.3775Y-2.248
X22.3775Y-2.2776
X22.3775Y-4.0394
X22.3775Y-4.0689
X22.3775Y-4.0984
X22.3775Y-4.128
X22.6433Y-5.6142
X22.6433Y-5.7126
X22.6728Y-5.6142
X22.6728Y-5.7126
X22.7023Y-5.6142
X22.7023Y-5.7126
X22.7319Y-5.6142
X22.7319Y-5.7126
X22.8401Y-4.2756
X22.8401Y-4.374
X22.8697Y-4.2756
X22.8697Y-4.374
X22.8992Y-4.2756
X22.8992Y-4.374
X22.9287Y-4.2756
X22.9287Y-4.374
T2
X15.1397Y-0.4392
X15.3673Y-0.4392
T3
X20.0823Y-6.1772
X20.0823Y-6.4921
T4
X22.3971Y-5.8939
T5
X22.3971Y-6.6813
T6
X13.1551Y-4.187
X13.5094Y-4.187
X13.7063Y-4.187
X14.0606Y-4.187
X14.2575Y-4.187
X14.6118Y-4.187
X14.8086Y-4.187
X15.163Y-4.187
T7
X13.3439Y-5.9849
T8
X13.1783Y-5.6441
X15.4823Y-3.5815
X16.4389Y-5.9976
X16.7767Y-0.3323
X16.9145Y-3.9543
X17.8169Y-4.7378
X19.1Y-4.8563
X19.1Y-5.9193
X20.0724Y-5.8445
X23.0094Y-5.4823
T9
X13.6718Y-6.6148
X15.8451Y-5.9849
T0
M30
