%TF.GenerationSoftware,KiCad,Pcbnew,(6.0.5)*%
%TF.CreationDate,2022-07-28T21:37:23+02:00*%
%TF.ProjectId,clarinoid-devboard,636c6172-696e-46f6-9964-2d646576626f,rev?*%
%TF.SameCoordinates,Original*%
%TF.FileFunction,Profile,NP*%
%FSLAX46Y46*%
G04 Gerber Fmt 4.6, Leading zero omitted, Abs format (unit mm)*
G04 Created by KiCad (PCBNEW (6.0.5)) date 2022-07-28 21:37:23*
%MOMM*%
%LPD*%
G01*
G04 APERTURE LIST*
%TA.AperFunction,Profile*%
%ADD10C,0.100000*%
%TD*%
G04 APERTURE END LIST*
D10*
X525139305Y-4850035D02*
X543139304Y-4850034D01*
X504139274Y-111850064D02*
X504139304Y-129600034D01*
X412389304Y-114849966D02*
G75*
G03*
X412389304Y-116850034I-4J-1000034D01*
G01*
X422139304Y-132850104D02*
G75*
G03*
X423139304Y-131850034I-4J1000004D01*
G01*
X347389304Y-146849966D02*
G75*
G03*
X347389304Y-148850034I-4J-1000034D01*
G01*
X456139304Y-148850034D02*
X456139304Y-161600034D01*
X568139304Y-58850034D02*
G75*
G03*
X566139304Y-58850034I-1000000J0D01*
G01*
X504139304Y-129600034D02*
G75*
G03*
X506139304Y-129600034I1000000J0D01*
G01*
X368139304Y-130850034D02*
X365139304Y-130850034D01*
X331139266Y-113850034D02*
G75*
G03*
X332139304Y-114850034I1000034J34D01*
G01*
X423139304Y-148850034D02*
X440139304Y-148850034D01*
X467139304Y-110849966D02*
G75*
G03*
X467139304Y-108850034I-4J999966D01*
G01*
X568139304Y-105850034D02*
X568139304Y-107850034D01*
X507139304Y-110850004D02*
G75*
G03*
X506139304Y-111850034I-4J-999996D01*
G01*
X587139303Y-108850033D02*
X583389304Y-108850034D01*
X347389304Y-148850034D02*
X407139304Y-148850034D01*
X566139304Y-101600034D02*
G75*
G03*
X568139304Y-101600034I1000000J0D01*
G01*
X482139366Y-134850034D02*
G75*
G03*
X483139304Y-135850034I999934J-66D01*
G01*
X500139304Y-105850034D02*
X500139303Y-107850033D01*
X471389304Y-110850034D02*
X480139304Y-110850034D01*
X436139304Y-116849966D02*
G75*
G03*
X436139304Y-114850034I-4J999966D01*
G01*
X587139274Y-142849974D02*
G75*
G03*
X588139274Y-141850004I26J999974D01*
G01*
X502139304Y-58850034D02*
G75*
G03*
X500139304Y-58850034I-1000000J0D01*
G01*
X455139274Y-116850064D02*
X440389304Y-116850034D01*
X480139304Y-7600034D02*
X480139305Y-5850035D01*
X455139274Y-146850004D02*
X444389304Y-146850034D01*
X456139304Y-58850034D02*
X456139304Y-101600034D01*
X543139303Y-108850003D02*
G75*
G03*
X544139303Y-107850033I-3J1000003D01*
G01*
X365139304Y-130850004D02*
G75*
G03*
X364139304Y-131850034I-4J-999996D01*
G01*
X483139304Y-135850034D02*
X503139274Y-135850004D01*
X456139304Y-105850034D02*
X456139304Y-113850034D01*
X519389304Y-142850034D02*
X574139304Y-142850034D01*
X440389304Y-114850034D02*
X455139304Y-114850034D01*
X480139304Y-146850034D02*
X480139304Y-178850034D01*
X345389304Y-114850034D02*
X408139304Y-114850034D01*
X421139304Y-161600034D02*
X421139274Y-149850064D01*
X544139304Y-101600034D02*
G75*
G03*
X546139304Y-101600034I1000000J0D01*
G01*
X524139304Y-11850034D02*
G75*
G03*
X522139304Y-11850034I-1000000J0D01*
G01*
X413139304Y-132849966D02*
G75*
G03*
X413139304Y-130850034I-4J999966D01*
G01*
X532139304Y-110849966D02*
G75*
G03*
X532139304Y-108850034I-4J999966D01*
G01*
X421139244Y-177850034D02*
X421139304Y-165850034D01*
X522139304Y-54600034D02*
G75*
G03*
X524139304Y-54600034I1000000J0D01*
G01*
X587139304Y-144850034D02*
X578389304Y-144850034D01*
X506139304Y-145850034D02*
X506139304Y-156600034D01*
X544139304Y-54600034D02*
X544139304Y-11850034D01*
X500139304Y-101600034D02*
G75*
G03*
X502139304Y-101600034I1000000J0D01*
G01*
X332139304Y-148850004D02*
G75*
G03*
X331139304Y-149850034I-4J-999996D01*
G01*
X521139303Y-108850003D02*
G75*
G03*
X522139303Y-107850033I-3J1000003D01*
G01*
X568139304Y-105850034D02*
G75*
G03*
X566139304Y-105850034I-1000000J0D01*
G01*
X332139304Y-114850034D02*
X341139304Y-114850034D01*
X458139304Y-132850034D02*
G75*
G03*
X456139304Y-132850034I-1000000J0D01*
G01*
X574139304Y-144849966D02*
G75*
G03*
X574139304Y-142850034I-4J999966D01*
G01*
X372389304Y-130849966D02*
G75*
G03*
X372389304Y-132850034I-4J-1000034D01*
G01*
X331139366Y-177850034D02*
G75*
G03*
X332139304Y-178850034I999934J-66D01*
G01*
X458139304Y-5850034D02*
X458139304Y-7600034D01*
X504139236Y-111850064D02*
G75*
G03*
X503139274Y-110850064I-999936J64D01*
G01*
X524139304Y-107850034D02*
X524139304Y-105850034D01*
X588139266Y-145850034D02*
G75*
G03*
X587139304Y-144850034I-999966J34D01*
G01*
X332139304Y-4850034D02*
X455139304Y-4850034D01*
X579139304Y-110850034D02*
X536389304Y-110850034D01*
X546139304Y-101600034D02*
X546139304Y-58850034D01*
X481139305Y-4850005D02*
G75*
G03*
X480139305Y-5850035I-5J-999995D01*
G01*
X459139304Y-4850034D02*
X477139303Y-4850035D01*
X482139304Y-130850034D02*
G75*
G03*
X480139304Y-130850034I-1000000J0D01*
G01*
X532139304Y-110850034D02*
X507139304Y-110850034D01*
X458139267Y-107850033D02*
G75*
G03*
X459139305Y-108850033I1000033J33D01*
G01*
X467139304Y-110850034D02*
X458139304Y-110850034D01*
X424139304Y-116850004D02*
G75*
G03*
X423139304Y-117850034I-4J-999996D01*
G01*
X507139304Y-142850034D02*
X515139304Y-142850034D01*
X544139304Y-7600034D02*
G75*
G03*
X546139304Y-7600034I1000000J0D01*
G01*
X456139304Y-11850034D02*
X456139304Y-54600034D01*
X420139304Y-130850034D02*
X417389304Y-130850034D01*
X408139304Y-116849966D02*
G75*
G03*
X408139304Y-114850034I-4J999966D01*
G01*
X478139304Y-11850034D02*
X478139304Y-54600034D01*
X566139304Y-54600034D02*
G75*
G03*
X568139304Y-54600034I1000000J0D01*
G01*
X524139304Y-105850034D02*
G75*
G03*
X522139304Y-105850034I-1000000J0D01*
G01*
X456139304Y-7600034D02*
X456139304Y-5850034D01*
X407139304Y-148849966D02*
G75*
G03*
X407139304Y-146850034I-4J999966D01*
G01*
X566139304Y-101600034D02*
X566139304Y-58850034D01*
X504139236Y-138850064D02*
G75*
G03*
X503139274Y-137850064I-999936J64D01*
G01*
X423139304Y-178850034D02*
X423139304Y-165850034D01*
X506139304Y-133850034D02*
X506139304Y-141850034D01*
X478139304Y-105850034D02*
X478139304Y-107850034D01*
X480139304Y-130850034D02*
X480139304Y-142600034D01*
X417389304Y-132850034D02*
X422139304Y-132850034D01*
X347389304Y-146850034D02*
X363139274Y-146850004D01*
X569139304Y-4850004D02*
G75*
G03*
X568139304Y-5850034I-4J-999996D01*
G01*
X506139304Y-160850034D02*
G75*
G03*
X504139304Y-160850034I-1000000J0D01*
G01*
X458139304Y-58850034D02*
G75*
G03*
X456139304Y-58850034I-1000000J0D01*
G01*
X459139304Y-4850104D02*
G75*
G03*
X458139304Y-5850034I-4J-999996D01*
G01*
X547139305Y-4850035D02*
X565139304Y-4850034D01*
X583389304Y-110850034D02*
X587139274Y-110850064D01*
X524139304Y-101600034D02*
X524139304Y-58850034D01*
X587139303Y-108850003D02*
G75*
G03*
X588139303Y-107850033I-3J1000003D01*
G01*
X503139305Y-4850035D02*
X521139304Y-4850034D01*
X343139304Y-148849966D02*
G75*
G03*
X343139304Y-146850034I-4J999966D01*
G01*
X423139304Y-161600034D02*
X423139304Y-148850034D01*
X455139274Y-146849974D02*
G75*
G03*
X456139274Y-145850004I26J999974D01*
G01*
X569139304Y-4850035D02*
X587139303Y-4850034D01*
X456139266Y-5850034D02*
G75*
G03*
X455139304Y-4850034I-999966J34D01*
G01*
X343139304Y-148850034D02*
X332139304Y-148850034D01*
X579139304Y-108850034D02*
X569139304Y-108850034D01*
X502139304Y-105850034D02*
G75*
G03*
X500139304Y-105850034I-1000000J0D01*
G01*
X363139274Y-146849974D02*
G75*
G03*
X364139274Y-145850004I26J999974D01*
G01*
X503139274Y-162850074D02*
G75*
G03*
X504139274Y-161850034I26J999974D01*
G01*
X482139304Y-146850034D02*
G75*
G03*
X480139304Y-146850034I-1000000J0D01*
G01*
X525139304Y-108850034D02*
X532139304Y-108850034D01*
X544139304Y-105850034D02*
X544139303Y-107850033D01*
X411389304Y-146850034D02*
X440139304Y-146850034D01*
X500139304Y-101600034D02*
X500139304Y-58850034D01*
X507139304Y-144850004D02*
G75*
G03*
X506139304Y-145850034I-4J-999996D01*
G01*
X482139304Y-146850034D02*
X482139304Y-161850034D01*
X524139304Y-58850034D02*
G75*
G03*
X522139304Y-58850034I-1000000J0D01*
G01*
X502139304Y-107850034D02*
X502139304Y-105850034D01*
X536389304Y-108850034D02*
X543139303Y-108850033D01*
X332139304Y-116850004D02*
G75*
G03*
X331139304Y-117850034I-4J-999996D01*
G01*
X521139303Y-108850033D02*
X503139304Y-108850034D01*
X456139304Y-178850034D02*
X423139304Y-178850034D01*
X506139304Y-133850034D02*
G75*
G03*
X504139304Y-133850034I-1000000J0D01*
G01*
X458139304Y-161600034D02*
X458139304Y-132850034D01*
X500139304Y-7600034D02*
X500139304Y-5850034D01*
X480139304Y-11850034D02*
G75*
G03*
X478139304Y-11850034I-1000000J0D01*
G01*
X588139274Y-111850064D02*
X588139274Y-141850004D01*
X417389304Y-130849966D02*
G75*
G03*
X417389304Y-132850034I-4J-1000034D01*
G01*
X546139304Y-7600034D02*
X546139305Y-5850035D01*
X546139304Y-105850034D02*
G75*
G03*
X544139304Y-105850034I-1000000J0D01*
G01*
X480139304Y-58850034D02*
G75*
G03*
X478139304Y-58850034I-1000000J0D01*
G01*
X503139274Y-137850064D02*
X483139304Y-137850034D01*
X587139304Y-176850034D02*
X507139304Y-176850034D01*
X341139304Y-116849966D02*
G75*
G03*
X341139304Y-114850034I-4J999966D01*
G01*
X436139304Y-116850034D02*
X424139304Y-116850034D01*
X456139304Y-7600034D02*
G75*
G03*
X458139304Y-7600034I1000000J0D01*
G01*
X480139304Y-101600034D02*
X480139304Y-58850034D01*
X496389304Y-108850034D02*
X499139303Y-108850033D01*
X506139304Y-160850034D02*
X506139304Y-175850034D01*
X407139304Y-146850034D02*
X367139304Y-146850034D01*
X478139304Y-7600034D02*
G75*
G03*
X480139304Y-7600034I1000000J0D01*
G01*
X481139304Y-108850034D02*
X492139304Y-108850034D01*
X504139304Y-156600034D02*
G75*
G03*
X506139304Y-156600034I1000000J0D01*
G01*
X456139304Y-101600034D02*
G75*
G03*
X458139304Y-101600034I1000000J0D01*
G01*
X506139366Y-141850034D02*
G75*
G03*
X507139304Y-142850034I999934J-66D01*
G01*
X578389304Y-142849966D02*
G75*
G03*
X578389304Y-144850034I-4J-1000034D01*
G01*
X568139304Y-101600034D02*
X568139304Y-58850034D01*
X331139304Y-117850034D02*
X331139304Y-145850034D01*
X456139304Y-161600034D02*
G75*
G03*
X458139304Y-161600034I1000000J0D01*
G01*
X483139334Y-110850034D02*
G75*
G03*
X482139334Y-111850064I-34J-999966D01*
G01*
X423139304Y-131850034D02*
X423139304Y-117850034D01*
X478139265Y-5850035D02*
G75*
G03*
X477139303Y-4850035I-999965J35D01*
G01*
X480139304Y-110850034D02*
X480139304Y-126600034D01*
X480139304Y-107850034D02*
X480139304Y-105850034D01*
X588139304Y-145850034D02*
X588139304Y-175850034D01*
X411389304Y-146849966D02*
G75*
G03*
X411389304Y-148850034I-4J-1000034D01*
G01*
X566139304Y-7600034D02*
X566139304Y-5850034D01*
X372389304Y-130850034D02*
X413139304Y-130850034D01*
X566139304Y-105850034D02*
X566139303Y-107850033D01*
X522139304Y-105850034D02*
X522139303Y-107850033D01*
X456139304Y-132850034D02*
X456139274Y-145850004D01*
X502139304Y-54600034D02*
X502139304Y-11850034D01*
X456139304Y-128600034D02*
G75*
G03*
X458139304Y-128600034I1000000J0D01*
G01*
X588139236Y-111850064D02*
G75*
G03*
X587139274Y-110850064I-999936J64D01*
G01*
X547139305Y-4850005D02*
G75*
G03*
X546139305Y-5850035I-5J-999995D01*
G01*
X504139304Y-160850034D02*
X504139274Y-161850034D01*
X482139366Y-161850034D02*
G75*
G03*
X483139304Y-162850034I999934J-66D01*
G01*
X579139304Y-110849966D02*
G75*
G03*
X579139304Y-108850034I-4J999966D01*
G01*
X496389304Y-110850034D02*
X503139274Y-110850064D01*
X506139366Y-175850034D02*
G75*
G03*
X507139304Y-176850034I999934J-66D01*
G01*
X502139304Y-101600034D02*
X502139304Y-58850034D01*
X459139305Y-108850033D02*
X467139304Y-108850034D01*
X456139304Y-165850034D02*
X456139304Y-178850034D01*
X367139304Y-132850004D02*
G75*
G03*
X366139304Y-133850034I-4J-999996D01*
G01*
X506139304Y-129600034D02*
X506139304Y-111850034D01*
X515139304Y-144849966D02*
G75*
G03*
X515139304Y-142850034I-4J999966D01*
G01*
X503139274Y-135849974D02*
G75*
G03*
X504139274Y-134850004I26J999974D01*
G01*
X456139236Y-117850064D02*
G75*
G03*
X455139274Y-116850064I-999936J64D01*
G01*
X522139304Y-7600034D02*
X522139304Y-5850034D01*
X368139304Y-132849966D02*
G75*
G03*
X368139304Y-130850034I-4J999966D01*
G01*
X546139304Y-58850034D02*
G75*
G03*
X544139304Y-58850034I-1000000J0D01*
G01*
X331139304Y-149850034D02*
X331139304Y-177850034D01*
X522139304Y-101600034D02*
X522139304Y-58850034D01*
X588139303Y-5850034D02*
X588139303Y-107850033D01*
X458139304Y-165850034D02*
G75*
G03*
X456139304Y-165850034I-1000000J0D01*
G01*
X478139304Y-58850034D02*
X478139304Y-101600034D01*
X332139304Y-116850034D02*
X341139304Y-116850034D01*
X500139266Y-5850034D02*
G75*
G03*
X499139304Y-4850034I-999966J34D01*
G01*
X480139304Y-142600034D02*
G75*
G03*
X482139304Y-142600034I1000000J0D01*
G01*
X421139266Y-117850034D02*
G75*
G03*
X420139304Y-116850034I-999966J34D01*
G01*
X492139304Y-110849966D02*
G75*
G03*
X492139304Y-108850034I-4J999966D01*
G01*
X566139304Y-54600034D02*
X566139304Y-11850034D01*
X546139304Y-54600034D02*
X546139304Y-11850034D01*
X519389304Y-142849966D02*
G75*
G03*
X519389304Y-144850034I-4J-1000034D01*
G01*
X478139304Y-54600034D02*
G75*
G03*
X480139304Y-54600034I1000000J0D01*
G01*
X413139304Y-132850034D02*
X372389304Y-132850034D01*
X525139305Y-4850005D02*
G75*
G03*
X524139305Y-5850035I-5J-999995D01*
G01*
X566139266Y-5850034D02*
G75*
G03*
X565139304Y-4850034I-999966J34D01*
G01*
X423139304Y-165850034D02*
G75*
G03*
X421139304Y-165850034I-1000000J0D01*
G01*
X480139304Y-126600034D02*
G75*
G03*
X482139304Y-126600034I1000000J0D01*
G01*
X574139304Y-144850034D02*
X519389304Y-144850034D01*
X366139304Y-145850034D02*
X366139304Y-133850034D01*
X478139304Y-101600034D02*
G75*
G03*
X480139304Y-101600034I1000000J0D01*
G01*
X500139304Y-54600034D02*
X500139304Y-11850034D01*
X331139366Y-145850034D02*
G75*
G03*
X332139304Y-146850034I999934J-66D01*
G01*
X458139304Y-11850034D02*
G75*
G03*
X456139304Y-11850034I-1000000J0D01*
G01*
X481139305Y-4850035D02*
X499139304Y-4850034D01*
X544139266Y-5850034D02*
G75*
G03*
X543139304Y-4850034I-999966J34D01*
G01*
X588139266Y-5850034D02*
G75*
G03*
X587139303Y-4850034I-999966J34D01*
G01*
X587139304Y-176850104D02*
G75*
G03*
X588139304Y-175850034I-4J1000004D01*
G01*
X566139304Y-7600034D02*
G75*
G03*
X568139304Y-7600034I1000000J0D01*
G01*
X331139304Y-113850034D02*
X331139304Y-5850034D01*
X522139266Y-5850034D02*
G75*
G03*
X521139304Y-4850034I-999966J34D01*
G01*
X499139303Y-108850003D02*
G75*
G03*
X500139303Y-107850033I-3J1000003D01*
G01*
X524139304Y-7600034D02*
X524139305Y-5850035D01*
X480139304Y-54600034D02*
X480139304Y-11850034D01*
X444389304Y-146849966D02*
G75*
G03*
X444389304Y-148850034I-4J-1000034D01*
G01*
X515139304Y-144850034D02*
X507139304Y-144850034D01*
X536389304Y-108849966D02*
G75*
G03*
X536389304Y-110850034I-4J-1000034D01*
G01*
X544139304Y-7600034D02*
X544139304Y-5850034D01*
X502139304Y-11850034D02*
G75*
G03*
X500139304Y-11850034I-1000000J0D01*
G01*
X456139304Y-54600034D02*
G75*
G03*
X458139304Y-54600034I1000000J0D01*
G01*
X544139304Y-54600034D02*
G75*
G03*
X546139304Y-54600034I1000000J0D01*
G01*
X502139304Y-7600034D02*
X502139305Y-5850035D01*
X502139266Y-107850034D02*
G75*
G03*
X503139304Y-108850034I1000034J34D01*
G01*
X482139334Y-111850064D02*
X482139304Y-126600034D01*
X421139236Y-149850064D02*
G75*
G03*
X420139274Y-148850064I-999936J64D01*
G01*
X477139304Y-108850104D02*
G75*
G03*
X478139304Y-107850034I-4J1000004D01*
G01*
X480139304Y-105850034D02*
G75*
G03*
X478139304Y-105850034I-1000000J0D01*
G01*
X420139304Y-130850104D02*
G75*
G03*
X421139304Y-129850034I-4J1000004D01*
G01*
X524139304Y-54600034D02*
X524139304Y-11850034D01*
X456139274Y-117850064D02*
X456139304Y-128600034D01*
X568139266Y-107850034D02*
G75*
G03*
X569139304Y-108850034I1000034J34D01*
G01*
X458139304Y-58850034D02*
X458139304Y-101600034D01*
X482139304Y-130850034D02*
X482139304Y-134850034D01*
X500139304Y-7600034D02*
G75*
G03*
X502139304Y-7600034I1000000J0D01*
G01*
X421139304Y-161600034D02*
G75*
G03*
X423139304Y-161600034I1000000J0D01*
G01*
X458139304Y-110850034D02*
X458139304Y-128600034D01*
X480139304Y-178850034D02*
X458139304Y-178850034D01*
X458139304Y-165850034D02*
X458139304Y-178850034D01*
X420139244Y-178850044D02*
G75*
G03*
X421139244Y-177850034I56J999944D01*
G01*
X332139304Y-146850034D02*
X343139304Y-146850034D01*
X565139303Y-108850033D02*
X547139304Y-108850034D01*
X345389304Y-116850034D02*
X408139304Y-116850034D01*
X482139304Y-138850034D02*
X482139304Y-142600034D01*
X332139304Y-178850034D02*
X420139244Y-178850034D01*
X444389304Y-148850034D02*
X456139304Y-148850034D01*
X345389304Y-114849966D02*
G75*
G03*
X345389304Y-116850034I-4J-1000034D01*
G01*
X458139304Y-105850034D02*
G75*
G03*
X456139304Y-105850034I-1000000J0D01*
G01*
X546139304Y-11850034D02*
G75*
G03*
X544139304Y-11850034I-1000000J0D01*
G01*
X471389304Y-108850034D02*
X477139304Y-108850034D01*
X483139304Y-137850004D02*
G75*
G03*
X482139304Y-138850034I-4J-999996D01*
G01*
X421139304Y-117850034D02*
X421139304Y-129850034D01*
X480139266Y-107850034D02*
G75*
G03*
X481139304Y-108850034I1000034J34D01*
G01*
X568139304Y-54600034D02*
X568139304Y-11850034D01*
X522139304Y-7600034D02*
G75*
G03*
X524139304Y-7600034I1000000J0D01*
G01*
X364139304Y-131850034D02*
X364139274Y-145850004D01*
X366139366Y-145850034D02*
G75*
G03*
X367139304Y-146850034I999934J-66D01*
G01*
X458139305Y-107850033D02*
X458139304Y-105850034D01*
X496389304Y-108849966D02*
G75*
G03*
X496389304Y-110850034I-4J-1000034D01*
G01*
X504139304Y-133850034D02*
X504139274Y-134850004D01*
X420139274Y-148850064D02*
X411389304Y-148850034D01*
X478139303Y-5850035D02*
X478139304Y-7600034D01*
X440389304Y-114849966D02*
G75*
G03*
X440389304Y-116850034I-4J-1000034D01*
G01*
X440139304Y-148849966D02*
G75*
G03*
X440139304Y-146850034I-4J999966D01*
G01*
X471389304Y-108849966D02*
G75*
G03*
X471389304Y-110850034I-4J-1000034D01*
G01*
X367139304Y-132850034D02*
X368139304Y-132850034D01*
X583389304Y-108849966D02*
G75*
G03*
X583389304Y-110850034I-4J-1000034D01*
G01*
X568139304Y-7600034D02*
X568139304Y-5850034D01*
X500139304Y-54600034D02*
G75*
G03*
X502139304Y-54600034I1000000J0D01*
G01*
X483139304Y-162850034D02*
X503139274Y-162850034D01*
X578389304Y-142850034D02*
X587139274Y-142850004D01*
X568139304Y-11850034D02*
G75*
G03*
X566139304Y-11850034I-1000000J0D01*
G01*
X455139304Y-114850104D02*
G75*
G03*
X456139304Y-113850034I-4J1000004D01*
G01*
X332139304Y-4850104D02*
G75*
G03*
X331139304Y-5850034I-4J-999996D01*
G01*
X544139304Y-101600034D02*
X544139304Y-58850034D01*
X420139304Y-116850034D02*
X412389304Y-116850034D01*
X546139266Y-107850034D02*
G75*
G03*
X547139304Y-108850034I1000034J34D01*
G01*
X503139305Y-4850005D02*
G75*
G03*
X502139305Y-5850035I-5J-999995D01*
G01*
X546139304Y-107850034D02*
X546139304Y-105850034D01*
X504139304Y-156600034D02*
X504139274Y-138850064D01*
X524139266Y-107850034D02*
G75*
G03*
X525139304Y-108850034I1000034J34D01*
G01*
X492139304Y-110850034D02*
X483139334Y-110850064D01*
X522139304Y-101600034D02*
G75*
G03*
X524139304Y-101600034I1000000J0D01*
G01*
X412389304Y-114850034D02*
X436139304Y-114850034D01*
X458139304Y-11850034D02*
X458139304Y-54600034D01*
X522139304Y-54600034D02*
X522139304Y-11850034D01*
X565139303Y-108850003D02*
G75*
G03*
X566139303Y-107850033I-3J1000003D01*
G01*
M02*
