%TF.GenerationSoftware,KiCad,Pcbnew,(6.0.5)*%
%TF.CreationDate,2022-07-28T21:37:23+02:00*%
%TF.ProjectId,clarinoid-devboard,636c6172-696e-46f6-9964-2d646576626f,rev?*%
%TF.SameCoordinates,Original*%
%TF.FileFunction,Legend,Bot*%
%TF.FilePolarity,Positive*%
%FSLAX46Y46*%
G04 Gerber Fmt 4.6, Leading zero omitted, Abs format (unit mm)*
G04 Created by KiCad (PCBNEW (6.0.5)) date 2022-07-28 21:37:23*
%MOMM*%
%LPD*%
G01*
G04 APERTURE LIST*
%ADD10C,0.300000*%
%ADD11C,1.000000*%
%ADD12C,0.976388*%
%ADD13C,0.150000*%
%ADD14C,0.500000*%
%ADD15C,0.120000*%
%ADD16C,0.400000*%
%ADD17C,0.170000*%
%ADD18C,0.500000*%
%ADD19R,1.700000X1.700000*%
%ADD20O,1.700000X1.700000*%
%ADD21C,3.200000*%
%ADD22C,1.850000*%
%ADD23C,2.000000*%
%ADD24C,3.450000*%
%ADD25C,2.390000*%
%ADD26O,1.700000X2.800000*%
%ADD27C,6.200000*%
%ADD28C,0.800000*%
%ADD29C,6.400000*%
%ADD30R,6.400000X6.400000*%
%ADD31C,0.650000*%
%ADD32O,1.000000X1.600000*%
%ADD33O,1.000000X2.100000*%
%ADD34R,1.600000X1.600000*%
%ADD35O,1.600000X1.600000*%
%ADD36C,1.800000*%
%ADD37C,1.000000*%
%ADD38C,1.650000*%
%ADD39C,1.150000*%
%ADD40R,1.650000X1.650000*%
%ADD41O,3.000000X6.000000*%
%ADD42C,1.600000*%
G04 APERTURE END LIST*
D10*
X548309380Y-28668499D02*
X564309380Y-28668499D01*
X570619380Y-23543499D02*
X586619380Y-23543499D01*
X542439304Y-83200034D02*
X526439304Y-83200034D01*
X520439304Y-91200034D02*
X504439304Y-91200034D01*
D11*
X542439304Y-84200034D02*
X526439304Y-84200034D01*
D10*
X476611804Y-79200034D02*
X460611804Y-79200034D01*
D12*
X584898610Y-104100034D02*
G75*
G03*
X584898610Y-104100034I-488194J0D01*
G01*
X518398610Y-104100034D02*
G75*
G03*
X518398610Y-104100034I-488194J0D01*
G01*
D10*
X570619380Y-22543499D02*
X586619380Y-22543499D01*
X481939304Y-18700034D02*
X497939304Y-18700034D01*
X548309380Y-29668499D02*
X564309380Y-29668499D01*
D12*
X483549998Y-10251422D02*
G75*
G03*
X483549998Y-10251422I-488194J0D01*
G01*
X505799998Y-10251422D02*
G75*
G03*
X505799998Y-10251422I-488194J0D01*
G01*
X572049998Y-10501422D02*
G75*
G03*
X572049998Y-10501422I-488194J0D01*
G01*
D13*
G36*
X514939304Y-11130034D02*
G01*
X509939304Y-11130034D01*
X512439304Y-8630034D01*
X514939304Y-11130034D01*
G37*
X514939304Y-11130034D02*
X509939304Y-11130034D01*
X512439304Y-8630034D01*
X514939304Y-11130034D01*
D10*
X504439304Y-23200034D02*
X520439304Y-23200034D01*
D12*
X496799998Y-103850034D02*
G75*
G03*
X496799998Y-103850034I-488194J0D01*
G01*
D10*
X564939304Y-84700034D02*
X548939304Y-84700034D01*
X460611804Y-34200034D02*
X476611804Y-34200034D01*
D11*
X460611804Y-33200034D02*
X476611804Y-33200034D01*
D10*
X586439304Y-90200034D02*
X570439304Y-90200034D01*
D13*
G36*
X470611804Y-11200034D02*
G01*
X465611804Y-11200034D01*
X468111804Y-8700034D01*
X470611804Y-11200034D01*
G37*
X470611804Y-11200034D02*
X465611804Y-11200034D01*
X468111804Y-8700034D01*
X470611804Y-11200034D01*
D11*
X570619380Y-21543499D02*
X586619380Y-21543499D01*
D10*
X497939304Y-95700034D02*
X481939304Y-95700034D01*
X520439304Y-90200034D02*
X504439304Y-90200034D01*
X476611804Y-80200034D02*
X460611804Y-80200034D01*
D11*
X497939304Y-97700034D02*
X481939304Y-97700034D01*
D13*
G36*
X558939304Y-11200034D02*
G01*
X553939304Y-11200034D01*
X556439304Y-8700034D01*
X558939304Y-11200034D01*
G37*
X558939304Y-11200034D02*
X553939304Y-11200034D01*
X556439304Y-8700034D01*
X558939304Y-11200034D01*
D12*
X540799998Y-104100034D02*
G75*
G03*
X540799998Y-104100034I-488194J0D01*
G01*
D11*
X548309380Y-27668499D02*
X564309380Y-27668499D01*
D13*
G36*
X580939304Y-11200034D02*
G01*
X575939304Y-11200034D01*
X578439304Y-8700034D01*
X580939304Y-11200034D01*
G37*
X580939304Y-11200034D02*
X575939304Y-11200034D01*
X578439304Y-8700034D01*
X580939304Y-11200034D01*
D11*
X481939304Y-16700034D02*
X497939304Y-16700034D01*
D10*
X526662380Y-31059499D02*
X542662380Y-31059499D01*
D12*
X562299998Y-103600034D02*
G75*
G03*
X562299998Y-103600034I-488194J0D01*
G01*
D10*
X460611804Y-35200034D02*
X476611804Y-35200034D01*
X586439304Y-91200034D02*
X570439304Y-91200034D01*
D12*
X474549998Y-103600034D02*
G75*
G03*
X474549998Y-103600034I-488194J0D01*
G01*
D11*
X504439304Y-22200034D02*
X520439304Y-22200034D01*
D10*
X542439304Y-82200034D02*
X526439304Y-82200034D01*
D12*
X528049998Y-10501422D02*
G75*
G03*
X528049998Y-10501422I-488194J0D01*
G01*
D11*
X476611804Y-81200034D02*
X460611804Y-81200034D01*
D10*
X481939304Y-17700034D02*
X497939304Y-17700034D01*
X564939304Y-85700034D02*
X548939304Y-85700034D01*
X497939304Y-96700034D02*
X481939304Y-96700034D01*
D13*
G36*
X536939304Y-11200034D02*
G01*
X531939304Y-11200034D01*
X534439304Y-8700034D01*
X536939304Y-11200034D01*
G37*
X536939304Y-11200034D02*
X531939304Y-11200034D01*
X534439304Y-8700034D01*
X536939304Y-11200034D01*
D12*
X461749998Y-10100034D02*
G75*
G03*
X461749998Y-10100034I-488194J0D01*
G01*
D10*
X526662380Y-32059499D02*
X542662380Y-32059499D01*
D11*
X564939304Y-86700034D02*
X548939304Y-86700034D01*
X526662380Y-30059499D02*
X542662380Y-30059499D01*
D13*
G36*
X492939304Y-11200034D02*
G01*
X487939304Y-11200034D01*
X490439304Y-8700034D01*
X492939304Y-11200034D01*
G37*
X492939304Y-11200034D02*
X487939304Y-11200034D01*
X490439304Y-8700034D01*
X492939304Y-11200034D01*
D12*
X549799998Y-10751422D02*
G75*
G03*
X549799998Y-10751422I-488194J0D01*
G01*
D10*
X504439304Y-24200034D02*
X520439304Y-24200034D01*
D11*
X520439304Y-92200034D02*
X504439304Y-92200034D01*
X586439304Y-92200034D02*
X570439304Y-92200034D01*
D14*
X515801799Y-100563854D02*
X515801799Y-102230521D01*
X516397037Y-99611473D02*
X516992275Y-101397188D01*
X515444656Y-101397188D01*
X514730370Y-102230521D02*
X513420847Y-100563854D01*
X514730370Y-100563854D02*
X513420847Y-102230521D01*
X511397037Y-100563854D02*
X511397037Y-102230521D01*
X511992275Y-99611473D02*
X512587513Y-101397188D01*
X511039894Y-101397188D01*
X510325608Y-102230521D02*
X509016085Y-100563854D01*
X510325608Y-100563854D02*
X509016085Y-102230521D01*
X508182751Y-99968616D02*
X508063704Y-99849569D01*
X507825608Y-99730521D01*
X507230370Y-99730521D01*
X506992275Y-99849569D01*
X506873228Y-99968616D01*
X506754180Y-100206711D01*
X506754180Y-100444807D01*
X506873228Y-100801949D01*
X508301799Y-102230521D01*
X506754180Y-102230521D01*
X560597799Y-96695854D02*
X560597799Y-98362521D01*
X561193037Y-95743473D02*
X561788275Y-97529188D01*
X560240656Y-97529188D01*
X559526370Y-98362521D02*
X558216847Y-96695854D01*
X559526370Y-96695854D02*
X558216847Y-98362521D01*
X556193037Y-96695854D02*
X556193037Y-98362521D01*
X556788275Y-95743473D02*
X557383513Y-97529188D01*
X555835894Y-97529188D01*
X555121608Y-98362521D02*
X553812085Y-96695854D01*
X555121608Y-96695854D02*
X553812085Y-98362521D01*
X551550180Y-98362521D02*
X552978751Y-98362521D01*
X552264466Y-98362521D02*
X552264466Y-95862521D01*
X552502561Y-96219664D01*
X552740656Y-96457759D01*
X552978751Y-96576807D01*
X473849899Y-92580986D02*
X472302280Y-92580986D01*
X473135613Y-93533367D01*
X472778470Y-93533367D01*
X472540375Y-93652414D01*
X472421327Y-93771462D01*
X472302280Y-94009557D01*
X472302280Y-94604795D01*
X472421327Y-94842891D01*
X472540375Y-94961938D01*
X472778470Y-95080986D01*
X473492756Y-95080986D01*
X473730851Y-94961938D01*
X473849899Y-94842891D01*
X471468946Y-95080986D02*
X470159423Y-93414319D01*
X471468946Y-93414319D02*
X470159423Y-95080986D01*
X469445137Y-92580986D02*
X467897518Y-92580986D01*
X468730851Y-93533367D01*
X468373708Y-93533367D01*
X468135613Y-93652414D01*
X468016565Y-93771462D01*
X467897518Y-94009557D01*
X467897518Y-94604795D01*
X468016565Y-94842891D01*
X468135613Y-94961938D01*
X468373708Y-95080986D01*
X469087994Y-95080986D01*
X469326089Y-94961938D01*
X469445137Y-94842891D01*
X467064184Y-95080986D02*
X465754661Y-93414319D01*
X467064184Y-93414319D02*
X465754661Y-95080986D01*
X463492756Y-95080986D02*
X464921327Y-95080986D01*
X464207042Y-95080986D02*
X464207042Y-92580986D01*
X464445137Y-92938129D01*
X464683232Y-93176224D01*
X464921327Y-93295272D01*
X516701799Y-14063854D02*
X516701799Y-15730521D01*
X517297037Y-13111473D02*
X517892275Y-14897188D01*
X516344656Y-14897188D01*
X515630370Y-15730521D02*
X514320847Y-14063854D01*
X515630370Y-14063854D02*
X514320847Y-15730521D01*
X512297037Y-14063854D02*
X512297037Y-15730521D01*
X512892275Y-13111473D02*
X513487513Y-14897188D01*
X511939894Y-14897188D01*
X511225608Y-15730521D02*
X509916085Y-14063854D01*
X511225608Y-14063854D02*
X509916085Y-15730521D01*
X509082751Y-13468616D02*
X508963704Y-13349569D01*
X508725608Y-13230521D01*
X508130370Y-13230521D01*
X507892275Y-13349569D01*
X507773228Y-13468616D01*
X507654180Y-13706711D01*
X507654180Y-13944807D01*
X507773228Y-14301949D01*
X509201799Y-15730521D01*
X507654180Y-15730521D01*
X493481799Y-101024854D02*
X493481799Y-102691521D01*
X494077037Y-100072473D02*
X494672275Y-101858188D01*
X493124656Y-101858188D01*
X492410370Y-102691521D02*
X491100847Y-101024854D01*
X492410370Y-101024854D02*
X491100847Y-102691521D01*
X489077037Y-101024854D02*
X489077037Y-102691521D01*
X489672275Y-100072473D02*
X490267513Y-101858188D01*
X488719894Y-101858188D01*
X488005608Y-102691521D02*
X486696085Y-101024854D01*
X488005608Y-101024854D02*
X486696085Y-102691521D01*
X485981799Y-100191521D02*
X484434180Y-100191521D01*
X485267513Y-101143902D01*
X484910370Y-101143902D01*
X484672275Y-101262949D01*
X484553228Y-101381997D01*
X484434180Y-101620092D01*
X484434180Y-102215330D01*
X484553228Y-102453426D01*
X484672275Y-102572473D01*
X484910370Y-102691521D01*
X485624656Y-102691521D01*
X485862751Y-102572473D01*
X485981799Y-102453426D01*
X540030513Y-95704854D02*
X540030513Y-97371521D01*
X540625751Y-94752473D02*
X541220989Y-96538188D01*
X539673370Y-96538188D01*
X538959085Y-97371521D02*
X537649561Y-95704854D01*
X538959085Y-95704854D02*
X537649561Y-97371521D01*
X535625751Y-95704854D02*
X535625751Y-97371521D01*
X536220989Y-94752473D02*
X536816228Y-96538188D01*
X535268608Y-96538188D01*
X534554323Y-97371521D02*
X533244799Y-95704854D01*
X534554323Y-95704854D02*
X533244799Y-97371521D01*
X531816228Y-94871521D02*
X531578132Y-94871521D01*
X531340037Y-94990569D01*
X531220989Y-95109616D01*
X531101942Y-95347711D01*
X530982894Y-95823902D01*
X530982894Y-96419140D01*
X531101942Y-96895330D01*
X531220989Y-97133426D01*
X531340037Y-97252473D01*
X531578132Y-97371521D01*
X531816228Y-97371521D01*
X532054323Y-97252473D01*
X532173370Y-97133426D01*
X532292418Y-96895330D01*
X532411466Y-96419140D01*
X532411466Y-95823902D01*
X532292418Y-95347711D01*
X532173370Y-95109616D01*
X532054323Y-94990569D01*
X531816228Y-94871521D01*
X529911466Y-97133426D02*
X529792418Y-97252473D01*
X529911466Y-97371521D01*
X530030513Y-97252473D01*
X529911466Y-97133426D01*
X529911466Y-97371521D01*
X527530513Y-94871521D02*
X528720989Y-94871521D01*
X528840037Y-96061997D01*
X528720989Y-95942949D01*
X528482894Y-95823902D01*
X527887656Y-95823902D01*
X527649561Y-95942949D01*
X527530513Y-96061997D01*
X527411466Y-96300092D01*
X527411466Y-96895330D01*
X527530513Y-97133426D01*
X527649561Y-97252473D01*
X527887656Y-97371521D01*
X528482894Y-97371521D01*
X528720989Y-97252473D01*
X528840037Y-97133426D01*
X582168751Y-98230986D02*
X583359228Y-98230986D01*
X583478275Y-99421462D01*
X583359228Y-99302414D01*
X583121132Y-99183367D01*
X582525894Y-99183367D01*
X582287799Y-99302414D01*
X582168751Y-99421462D01*
X582049704Y-99659557D01*
X582049704Y-100254795D01*
X582168751Y-100492891D01*
X582287799Y-100611938D01*
X582525894Y-100730986D01*
X583121132Y-100730986D01*
X583359228Y-100611938D01*
X583478275Y-100492891D01*
X581216370Y-100730986D02*
X579906847Y-99064319D01*
X581216370Y-99064319D02*
X579906847Y-100730986D01*
X577763989Y-98230986D02*
X578954466Y-98230986D01*
X579073513Y-99421462D01*
X578954466Y-99302414D01*
X578716370Y-99183367D01*
X578121132Y-99183367D01*
X577883037Y-99302414D01*
X577763989Y-99421462D01*
X577644942Y-99659557D01*
X577644942Y-100254795D01*
X577763989Y-100492891D01*
X577883037Y-100611938D01*
X578121132Y-100730986D01*
X578716370Y-100730986D01*
X578954466Y-100611938D01*
X579073513Y-100492891D01*
X576811608Y-100730986D02*
X575502085Y-99064319D01*
X576811608Y-99064319D02*
X575502085Y-100730986D01*
X573240180Y-100730986D02*
X574668751Y-100730986D01*
X573954466Y-100730986D02*
X573954466Y-98230986D01*
X574192561Y-98588129D01*
X574430656Y-98826224D01*
X574668751Y-98945272D01*
X582248827Y-13330986D02*
X583439304Y-13330986D01*
X583558351Y-14521462D01*
X583439304Y-14402414D01*
X583201208Y-14283367D01*
X582605970Y-14283367D01*
X582367875Y-14402414D01*
X582248827Y-14521462D01*
X582129780Y-14759557D01*
X582129780Y-15354795D01*
X582248827Y-15592891D01*
X582367875Y-15711938D01*
X582605970Y-15830986D01*
X583201208Y-15830986D01*
X583439304Y-15711938D01*
X583558351Y-15592891D01*
X581296446Y-15830986D02*
X579986923Y-14164319D01*
X581296446Y-14164319D02*
X579986923Y-15830986D01*
X577844065Y-13330986D02*
X579034542Y-13330986D01*
X579153589Y-14521462D01*
X579034542Y-14402414D01*
X578796446Y-14283367D01*
X578201208Y-14283367D01*
X577963113Y-14402414D01*
X577844065Y-14521462D01*
X577725018Y-14759557D01*
X577725018Y-15354795D01*
X577844065Y-15592891D01*
X577963113Y-15711938D01*
X578201208Y-15830986D01*
X578796446Y-15830986D01*
X579034542Y-15711938D01*
X579153589Y-15592891D01*
X576891684Y-15830986D02*
X575582161Y-14164319D01*
X576891684Y-14164319D02*
X575582161Y-15830986D01*
X573320256Y-15830986D02*
X574748827Y-15830986D01*
X574034542Y-15830986D02*
X574034542Y-13330986D01*
X574272637Y-13688129D01*
X574510732Y-13926224D01*
X574748827Y-14045272D01*
X559867875Y-17164319D02*
X559867875Y-18830986D01*
X560463113Y-16211938D02*
X561058351Y-17997653D01*
X559510732Y-17997653D01*
X558796446Y-18830986D02*
X557486923Y-17164319D01*
X558796446Y-17164319D02*
X557486923Y-18830986D01*
X555463113Y-17164319D02*
X555463113Y-18830986D01*
X556058351Y-16211938D02*
X556653589Y-17997653D01*
X555105970Y-17997653D01*
X554391684Y-18830986D02*
X553082161Y-17164319D01*
X554391684Y-17164319D02*
X553082161Y-18830986D01*
X550820256Y-18830986D02*
X552248827Y-18830986D01*
X551534542Y-18830986D02*
X551534542Y-16330986D01*
X551772637Y-16688129D01*
X552010732Y-16926224D01*
X552248827Y-17045272D01*
X494367875Y-13164319D02*
X494367875Y-14830986D01*
X494963113Y-12211938D02*
X495558351Y-13997653D01*
X494010732Y-13997653D01*
X493296446Y-14830986D02*
X491986923Y-13164319D01*
X493296446Y-13164319D02*
X491986923Y-14830986D01*
X489963113Y-13164319D02*
X489963113Y-14830986D01*
X490558351Y-12211938D02*
X491153589Y-13997653D01*
X489605970Y-13997653D01*
X488891684Y-14830986D02*
X487582161Y-13164319D01*
X488891684Y-13164319D02*
X487582161Y-14830986D01*
X486867875Y-12330986D02*
X485320256Y-12330986D01*
X486153589Y-13283367D01*
X485796446Y-13283367D01*
X485558351Y-13402414D01*
X485439304Y-13521462D01*
X485320256Y-13759557D01*
X485320256Y-14354795D01*
X485439304Y-14592891D01*
X485558351Y-14711938D01*
X485796446Y-14830986D01*
X486510732Y-14830986D01*
X486748827Y-14711938D01*
X486867875Y-14592891D01*
X473749899Y-18280986D02*
X472202280Y-18280986D01*
X473035613Y-19233367D01*
X472678470Y-19233367D01*
X472440375Y-19352414D01*
X472321327Y-19471462D01*
X472202280Y-19709557D01*
X472202280Y-20304795D01*
X472321327Y-20542891D01*
X472440375Y-20661938D01*
X472678470Y-20780986D01*
X473392756Y-20780986D01*
X473630851Y-20661938D01*
X473749899Y-20542891D01*
X471368946Y-20780986D02*
X470059423Y-19114319D01*
X471368946Y-19114319D02*
X470059423Y-20780986D01*
X469345137Y-18280986D02*
X467797518Y-18280986D01*
X468630851Y-19233367D01*
X468273708Y-19233367D01*
X468035613Y-19352414D01*
X467916565Y-19471462D01*
X467797518Y-19709557D01*
X467797518Y-20304795D01*
X467916565Y-20542891D01*
X468035613Y-20661938D01*
X468273708Y-20780986D01*
X468987994Y-20780986D01*
X469226089Y-20661938D01*
X469345137Y-20542891D01*
X466964184Y-20780986D02*
X465654661Y-19114319D01*
X466964184Y-19114319D02*
X465654661Y-20780986D01*
X463392756Y-20780986D02*
X464821327Y-20780986D01*
X464107042Y-20780986D02*
X464107042Y-18280986D01*
X464345137Y-18638129D01*
X464583232Y-18876224D01*
X464821327Y-18995272D01*
X540153589Y-17664319D02*
X540153589Y-19330986D01*
X540748827Y-16711938D02*
X541344065Y-18497653D01*
X539796446Y-18497653D01*
X539082161Y-19330986D02*
X537772637Y-17664319D01*
X539082161Y-17664319D02*
X537772637Y-19330986D01*
X535748827Y-17664319D02*
X535748827Y-19330986D01*
X536344065Y-16711938D02*
X536939304Y-18497653D01*
X535391684Y-18497653D01*
X534677399Y-19330986D02*
X533367875Y-17664319D01*
X534677399Y-17664319D02*
X533367875Y-19330986D01*
X531939304Y-16830986D02*
X531701208Y-16830986D01*
X531463113Y-16950034D01*
X531344065Y-17069081D01*
X531225018Y-17307176D01*
X531105970Y-17783367D01*
X531105970Y-18378605D01*
X531225018Y-18854795D01*
X531344065Y-19092891D01*
X531463113Y-19211938D01*
X531701208Y-19330986D01*
X531939304Y-19330986D01*
X532177399Y-19211938D01*
X532296446Y-19092891D01*
X532415494Y-18854795D01*
X532534542Y-18378605D01*
X532534542Y-17783367D01*
X532415494Y-17307176D01*
X532296446Y-17069081D01*
X532177399Y-16950034D01*
X531939304Y-16830986D01*
X530034542Y-19092891D02*
X529915494Y-19211938D01*
X530034542Y-19330986D01*
X530153589Y-19211938D01*
X530034542Y-19092891D01*
X530034542Y-19330986D01*
X527653589Y-16830986D02*
X528844065Y-16830986D01*
X528963113Y-18021462D01*
X528844065Y-17902414D01*
X528605970Y-17783367D01*
X528010732Y-17783367D01*
X527772637Y-17902414D01*
X527653589Y-18021462D01*
X527534542Y-18259557D01*
X527534542Y-18854795D01*
X527653589Y-19092891D01*
X527772637Y-19211938D01*
X528010732Y-19330986D01*
X528605970Y-19330986D01*
X528844065Y-19211938D01*
X528963113Y-19092891D01*
D13*
%TO.C,J20*%
X466264184Y-31040510D02*
X466978470Y-31040510D01*
X467121327Y-30992891D01*
X467216565Y-30897653D01*
X467264184Y-30754795D01*
X467264184Y-30659557D01*
X466359423Y-31469081D02*
X466311804Y-31516700D01*
X466264184Y-31611938D01*
X466264184Y-31850034D01*
X466311804Y-31945272D01*
X466359423Y-31992891D01*
X466454661Y-32040510D01*
X466549899Y-32040510D01*
X466692756Y-31992891D01*
X467264184Y-31421462D01*
X467264184Y-32040510D01*
X466264184Y-32659557D02*
X466264184Y-32754795D01*
X466311804Y-32850034D01*
X466359423Y-32897653D01*
X466454661Y-32945272D01*
X466645137Y-32992891D01*
X466883232Y-32992891D01*
X467073708Y-32945272D01*
X467168946Y-32897653D01*
X467216565Y-32850034D01*
X467264184Y-32754795D01*
X467264184Y-32659557D01*
X467216565Y-32564319D01*
X467168946Y-32516700D01*
X467073708Y-32469081D01*
X466883232Y-32421462D01*
X466645137Y-32421462D01*
X466454661Y-32469081D01*
X466359423Y-32516700D01*
X466311804Y-32564319D01*
X466264184Y-32659557D01*
D15*
%TO.C,J16*%
X506139304Y-58350034D02*
X509139304Y-55350034D01*
X518139304Y-56350034D02*
X516139304Y-58350034D01*
X508139304Y-55350034D02*
X506139304Y-57350034D01*
X506139304Y-56350034D02*
X507139304Y-55350034D01*
X517139304Y-55350034D02*
X514139304Y-58350034D01*
X515139304Y-55350034D02*
X512139304Y-58350034D01*
X509139304Y-58350034D02*
X512139304Y-55350034D01*
X513139304Y-58350034D02*
X516139304Y-55350034D01*
X508139304Y-58350034D02*
X511139304Y-55350034D01*
X511139304Y-58350034D02*
X514139304Y-55350034D01*
X517139304Y-58350034D02*
X518139304Y-57350034D01*
X510139304Y-55350034D02*
X507139304Y-58350034D01*
X515139304Y-58350034D02*
X518139304Y-55350034D01*
X513139304Y-55350034D02*
X510139304Y-58350034D01*
%TO.C,J23*%
D16*
X534839304Y-55850034D02*
G75*
G03*
X534839304Y-55850034I-200000J0D01*
G01*
X538839304Y-57850034D02*
G75*
G03*
X538839304Y-57850034I-200000J0D01*
G01*
X529339304Y-56850034D02*
G75*
G03*
X529339304Y-56850034I-200000J0D01*
G01*
X536839304Y-55850034D02*
G75*
G03*
X536839304Y-55850034I-200000J0D01*
G01*
X530839304Y-55850034D02*
G75*
G03*
X530839304Y-55850034I-200000J0D01*
G01*
X533839304Y-57850034D02*
G75*
G03*
X533839304Y-57850034I-200000J0D01*
G01*
X535339304Y-56850034D02*
G75*
G03*
X535339304Y-56850034I-200000J0D01*
G01*
X537839304Y-55850034D02*
G75*
G03*
X537839304Y-55850034I-200000J0D01*
G01*
X532839304Y-57850034D02*
G75*
G03*
X532839304Y-57850034I-200000J0D01*
G01*
X533839304Y-55850034D02*
G75*
G03*
X533839304Y-55850034I-200000J0D01*
G01*
X528839304Y-55850034D02*
G75*
G03*
X528839304Y-55850034I-200000J0D01*
G01*
X530339304Y-56850034D02*
G75*
G03*
X530339304Y-56850034I-200000J0D01*
G01*
X529839304Y-57850034D02*
G75*
G03*
X529839304Y-57850034I-200000J0D01*
G01*
X534339304Y-56850034D02*
G75*
G03*
X534339304Y-56850034I-200000J0D01*
G01*
X535839304Y-55850034D02*
G75*
G03*
X535839304Y-55850034I-200000J0D01*
G01*
X539839304Y-57850034D02*
G75*
G03*
X539839304Y-57850034I-200000J0D01*
G01*
X539339304Y-56850034D02*
G75*
G03*
X539339304Y-56850034I-200000J0D01*
G01*
X532839304Y-55850034D02*
G75*
G03*
X532839304Y-55850034I-200000J0D01*
G01*
X536839304Y-57850034D02*
G75*
G03*
X536839304Y-57850034I-200000J0D01*
G01*
X531839304Y-57850034D02*
G75*
G03*
X531839304Y-57850034I-200000J0D01*
G01*
X537339304Y-56850034D02*
G75*
G03*
X537339304Y-56850034I-200000J0D01*
G01*
X528839304Y-57850034D02*
G75*
G03*
X528839304Y-57850034I-200000J0D01*
G01*
X538839304Y-55850034D02*
G75*
G03*
X538839304Y-55850034I-200000J0D01*
G01*
X539839304Y-55850034D02*
G75*
G03*
X539839304Y-55850034I-200000J0D01*
G01*
X531339304Y-56850034D02*
G75*
G03*
X531339304Y-56850034I-200000J0D01*
G01*
X533339304Y-56850034D02*
G75*
G03*
X533339304Y-56850034I-200000J0D01*
G01*
X530839304Y-57850034D02*
G75*
G03*
X530839304Y-57850034I-200000J0D01*
G01*
X531839304Y-55850034D02*
G75*
G03*
X531839304Y-55850034I-200000J0D01*
G01*
X534839304Y-57850034D02*
G75*
G03*
X534839304Y-57850034I-200000J0D01*
G01*
X528339304Y-56850034D02*
G75*
G03*
X528339304Y-56850034I-200000J0D01*
G01*
X535839304Y-57850034D02*
G75*
G03*
X535839304Y-57850034I-200000J0D01*
G01*
X538339304Y-56850034D02*
G75*
G03*
X538339304Y-56850034I-200000J0D01*
G01*
X536339304Y-56850034D02*
G75*
G03*
X536339304Y-56850034I-200000J0D01*
G01*
X537839304Y-57850034D02*
G75*
G03*
X537839304Y-57850034I-200000J0D01*
G01*
X540339304Y-56850034D02*
G75*
G03*
X540339304Y-56850034I-200000J0D01*
G01*
X532339304Y-56850034D02*
G75*
G03*
X532339304Y-56850034I-200000J0D01*
G01*
X529839304Y-55850034D02*
G75*
G03*
X529839304Y-55850034I-200000J0D01*
G01*
D17*
%TO.C,J28*%
X585639304Y-55350034D02*
X570639304Y-55350034D01*
X585639304Y-57350034D02*
X570639304Y-57350034D01*
X585639304Y-54850034D02*
X570639304Y-54850034D01*
D11*
X585639304Y-56350034D02*
X570639304Y-56350034D01*
D17*
X585639304Y-58350034D02*
X570639304Y-58350034D01*
X585639304Y-57850034D02*
X570639304Y-57850034D01*
X585639304Y-54350034D02*
X570639304Y-54350034D01*
%TO.C,J20*%
D16*
X464011804Y-56850034D02*
G75*
G03*
X464011804Y-56850034I-200000J0D01*
G01*
X472011804Y-56850034D02*
G75*
G03*
X472011804Y-56850034I-200000J0D01*
G01*
X468011804Y-56850034D02*
G75*
G03*
X468011804Y-56850034I-200000J0D01*
G01*
X469011804Y-56850034D02*
G75*
G03*
X469011804Y-56850034I-200000J0D01*
G01*
X473011804Y-56850034D02*
G75*
G03*
X473011804Y-56850034I-200000J0D01*
G01*
X466011804Y-56850034D02*
G75*
G03*
X466011804Y-56850034I-200000J0D01*
G01*
X465011804Y-56850034D02*
G75*
G03*
X465011804Y-56850034I-200000J0D01*
G01*
X471011804Y-56850034D02*
G75*
G03*
X471011804Y-56850034I-200000J0D01*
G01*
X467011804Y-56850034D02*
G75*
G03*
X467011804Y-56850034I-200000J0D01*
G01*
X470011804Y-56850034D02*
G75*
G03*
X470011804Y-56850034I-200000J0D01*
G01*
D15*
%TO.C,J22*%
X495139304Y-58350034D02*
X496139304Y-57350034D01*
X486139304Y-55350034D02*
X484139304Y-57350034D01*
X484139304Y-58350034D02*
X487139304Y-55350034D01*
X496139304Y-56350034D02*
X494139304Y-58350034D01*
X486139304Y-58350034D02*
X489139304Y-55350034D01*
X488139304Y-55350034D02*
X485139304Y-58350034D01*
X489139304Y-58350034D02*
X492139304Y-55350034D01*
X484139304Y-56350034D02*
X485139304Y-55350034D01*
X487139304Y-58350034D02*
X490139304Y-55350034D01*
X493139304Y-58350034D02*
X496139304Y-55350034D01*
X493139304Y-55350034D02*
X490139304Y-58350034D01*
X491139304Y-55350034D02*
X488139304Y-58350034D01*
X491139304Y-58350034D02*
X494139304Y-55350034D01*
X495139304Y-55350034D02*
X492139304Y-58350034D01*
%TO.C,J29*%
D16*
X560839304Y-57850034D02*
G75*
G03*
X560839304Y-57850034I-200000J0D01*
G01*
X558339304Y-56850034D02*
G75*
G03*
X558339304Y-56850034I-200000J0D01*
G01*
X550839304Y-55850034D02*
G75*
G03*
X550839304Y-55850034I-200000J0D01*
G01*
X553339304Y-56850034D02*
G75*
G03*
X553339304Y-56850034I-200000J0D01*
G01*
X550839304Y-57850034D02*
G75*
G03*
X550839304Y-57850034I-200000J0D01*
G01*
X559839304Y-57850034D02*
G75*
G03*
X559839304Y-57850034I-200000J0D01*
G01*
X554839304Y-55850034D02*
G75*
G03*
X554839304Y-55850034I-200000J0D01*
G01*
X553839304Y-57850034D02*
G75*
G03*
X553839304Y-57850034I-200000J0D01*
G01*
X560839304Y-55850034D02*
G75*
G03*
X560839304Y-55850034I-200000J0D01*
G01*
X555839304Y-55850034D02*
G75*
G03*
X555839304Y-55850034I-200000J0D01*
G01*
X557339304Y-56850034D02*
G75*
G03*
X557339304Y-56850034I-200000J0D01*
G01*
X561839304Y-57850034D02*
G75*
G03*
X561839304Y-57850034I-200000J0D01*
G01*
X553839304Y-55850034D02*
G75*
G03*
X553839304Y-55850034I-200000J0D01*
G01*
X551339304Y-56850034D02*
G75*
G03*
X551339304Y-56850034I-200000J0D01*
G01*
X552339304Y-56850034D02*
G75*
G03*
X552339304Y-56850034I-200000J0D01*
G01*
X558839304Y-57850034D02*
G75*
G03*
X558839304Y-57850034I-200000J0D01*
G01*
X551839304Y-57850034D02*
G75*
G03*
X551839304Y-57850034I-200000J0D01*
G01*
X552839304Y-55850034D02*
G75*
G03*
X552839304Y-55850034I-200000J0D01*
G01*
X555339304Y-56850034D02*
G75*
G03*
X555339304Y-56850034I-200000J0D01*
G01*
X556839304Y-55850034D02*
G75*
G03*
X556839304Y-55850034I-200000J0D01*
G01*
X561339304Y-56850034D02*
G75*
G03*
X561339304Y-56850034I-200000J0D01*
G01*
X554339304Y-56850034D02*
G75*
G03*
X554339304Y-56850034I-200000J0D01*
G01*
X557839304Y-57850034D02*
G75*
G03*
X557839304Y-57850034I-200000J0D01*
G01*
X559339304Y-56850034D02*
G75*
G03*
X559339304Y-56850034I-200000J0D01*
G01*
X552839304Y-57850034D02*
G75*
G03*
X552839304Y-57850034I-200000J0D01*
G01*
X559839304Y-55850034D02*
G75*
G03*
X559839304Y-55850034I-200000J0D01*
G01*
X560339304Y-56850034D02*
G75*
G03*
X560339304Y-56850034I-200000J0D01*
G01*
X557839304Y-55850034D02*
G75*
G03*
X557839304Y-55850034I-200000J0D01*
G01*
X554839304Y-57850034D02*
G75*
G03*
X554839304Y-57850034I-200000J0D01*
G01*
X555839304Y-57850034D02*
G75*
G03*
X555839304Y-57850034I-200000J0D01*
G01*
X556339304Y-56850034D02*
G75*
G03*
X556339304Y-56850034I-200000J0D01*
G01*
X551839304Y-55850034D02*
G75*
G03*
X551839304Y-55850034I-200000J0D01*
G01*
X556839304Y-57850034D02*
G75*
G03*
X556839304Y-57850034I-200000J0D01*
G01*
X558839304Y-55850034D02*
G75*
G03*
X558839304Y-55850034I-200000J0D01*
G01*
X550339304Y-56850034D02*
G75*
G03*
X550339304Y-56850034I-200000J0D01*
G01*
X562339304Y-56850034D02*
G75*
G03*
X562339304Y-56850034I-200000J0D01*
G01*
X561839304Y-55850034D02*
G75*
G03*
X561839304Y-55850034I-200000J0D01*
G01*
%TD*%
%LPC*%
D14*
X450993589Y-35040034D02*
X451136446Y-34754319D01*
X451136446Y-34182891D01*
X450993589Y-33897176D01*
X450850732Y-33754319D01*
X450565018Y-33611462D01*
X449707875Y-33611462D01*
X449422161Y-33754319D01*
X449279304Y-33897176D01*
X449136446Y-34182891D01*
X449136446Y-34754319D01*
X449279304Y-35040034D01*
X451136446Y-36754319D02*
X450993589Y-36468605D01*
X450707875Y-36325748D01*
X448136446Y-36325748D01*
X451136446Y-39182891D02*
X449565018Y-39182891D01*
X449279304Y-39040034D01*
X449136446Y-38754319D01*
X449136446Y-38182891D01*
X449279304Y-37897176D01*
X450993589Y-39182891D02*
X451136446Y-38897176D01*
X451136446Y-38182891D01*
X450993589Y-37897176D01*
X450707875Y-37754319D01*
X450422161Y-37754319D01*
X450136446Y-37897176D01*
X449993589Y-38182891D01*
X449993589Y-38897176D01*
X449850732Y-39182891D01*
X451136446Y-40611462D02*
X449136446Y-40611462D01*
X449707875Y-40611462D02*
X449422161Y-40754319D01*
X449279304Y-40897176D01*
X449136446Y-41182891D01*
X449136446Y-41468605D01*
X451136446Y-42468605D02*
X449136446Y-42468605D01*
X448136446Y-42468605D02*
X448279304Y-42325748D01*
X448422161Y-42468605D01*
X448279304Y-42611462D01*
X448136446Y-42468605D01*
X448422161Y-42468605D01*
X449136446Y-43897176D02*
X451136446Y-43897176D01*
X449422161Y-43897176D02*
X449279304Y-44040034D01*
X449136446Y-44325748D01*
X449136446Y-44754319D01*
X449279304Y-45040034D01*
X449565018Y-45182891D01*
X451136446Y-45182891D01*
X451136446Y-47040034D02*
X450993589Y-46754319D01*
X450850732Y-46611462D01*
X450565018Y-46468605D01*
X449707875Y-46468605D01*
X449422161Y-46611462D01*
X449279304Y-46754319D01*
X449136446Y-47040034D01*
X449136446Y-47468605D01*
X449279304Y-47754319D01*
X449422161Y-47897176D01*
X449707875Y-48040034D01*
X450565018Y-48040034D01*
X450850732Y-47897176D01*
X450993589Y-47754319D01*
X451136446Y-47468605D01*
X451136446Y-47040034D01*
X451136446Y-49325748D02*
X449136446Y-49325748D01*
X448136446Y-49325748D02*
X448279304Y-49182891D01*
X448422161Y-49325748D01*
X448279304Y-49468605D01*
X448136446Y-49325748D01*
X448422161Y-49325748D01*
X451136446Y-52040034D02*
X448136446Y-52040034D01*
X450993589Y-52040034D02*
X451136446Y-51754319D01*
X451136446Y-51182891D01*
X450993589Y-50897176D01*
X450850732Y-50754319D01*
X450565018Y-50611462D01*
X449707875Y-50611462D01*
X449422161Y-50754319D01*
X449279304Y-50897176D01*
X449136446Y-51182891D01*
X449136446Y-51754319D01*
X449279304Y-52040034D01*
X449136446Y-55325748D02*
X449136446Y-56468605D01*
X448136446Y-55754319D02*
X450707875Y-55754319D01*
X450993589Y-55897176D01*
X451136446Y-56182891D01*
X451136446Y-56468605D01*
X450993589Y-58611462D02*
X451136446Y-58325748D01*
X451136446Y-57754319D01*
X450993589Y-57468605D01*
X450707875Y-57325748D01*
X449565018Y-57325748D01*
X449279304Y-57468605D01*
X449136446Y-57754319D01*
X449136446Y-58325748D01*
X449279304Y-58611462D01*
X449565018Y-58754319D01*
X449850732Y-58754319D01*
X450136446Y-57325748D01*
X450993589Y-59897176D02*
X451136446Y-60182891D01*
X451136446Y-60754319D01*
X450993589Y-61040034D01*
X450707875Y-61182891D01*
X450565018Y-61182891D01*
X450279304Y-61040034D01*
X450136446Y-60754319D01*
X450136446Y-60325748D01*
X449993589Y-60040034D01*
X449707875Y-59897176D01*
X449565018Y-59897176D01*
X449279304Y-60040034D01*
X449136446Y-60325748D01*
X449136446Y-60754319D01*
X449279304Y-61040034D01*
X449136446Y-62040034D02*
X449136446Y-63182891D01*
X448136446Y-62468605D02*
X450707875Y-62468605D01*
X450993589Y-62611462D01*
X451136446Y-62897176D01*
X451136446Y-63182891D01*
X451136446Y-67754319D02*
X448136446Y-67754319D01*
X450993589Y-67754319D02*
X451136446Y-67468605D01*
X451136446Y-66897176D01*
X450993589Y-66611462D01*
X450850732Y-66468605D01*
X450565018Y-66325748D01*
X449707875Y-66325748D01*
X449422161Y-66468605D01*
X449279304Y-66611462D01*
X449136446Y-66897176D01*
X449136446Y-67468605D01*
X449279304Y-67754319D01*
X450993589Y-70325748D02*
X451136446Y-70040034D01*
X451136446Y-69468605D01*
X450993589Y-69182891D01*
X450707875Y-69040034D01*
X449565018Y-69040034D01*
X449279304Y-69182891D01*
X449136446Y-69468605D01*
X449136446Y-70040034D01*
X449279304Y-70325748D01*
X449565018Y-70468605D01*
X449850732Y-70468605D01*
X450136446Y-69040034D01*
X449136446Y-71468605D02*
X451136446Y-72182891D01*
X449136446Y-72897176D01*
X451136446Y-74040034D02*
X449136446Y-74040034D01*
X448136446Y-74040034D02*
X448279304Y-73897176D01*
X448422161Y-74040034D01*
X448279304Y-74182891D01*
X448136446Y-74040034D01*
X448422161Y-74040034D01*
X450993589Y-76754319D02*
X451136446Y-76468605D01*
X451136446Y-75897176D01*
X450993589Y-75611462D01*
X450850732Y-75468605D01*
X450565018Y-75325748D01*
X449707875Y-75325748D01*
X449422161Y-75468605D01*
X449279304Y-75611462D01*
X449136446Y-75897176D01*
X449136446Y-76468605D01*
X449279304Y-76754319D01*
X450993589Y-79182891D02*
X451136446Y-78897176D01*
X451136446Y-78325748D01*
X450993589Y-78040034D01*
X450707875Y-77897176D01*
X449565018Y-77897176D01*
X449279304Y-78040034D01*
X449136446Y-78325748D01*
X449136446Y-78897176D01*
X449279304Y-79182891D01*
X449565018Y-79325748D01*
X449850732Y-79325748D01*
X450136446Y-77897176D01*
X448422161Y-82754319D02*
X448279304Y-82897176D01*
X448136446Y-83182891D01*
X448136446Y-83897176D01*
X448279304Y-84182891D01*
X448422161Y-84325748D01*
X448707875Y-84468605D01*
X448993589Y-84468605D01*
X449422161Y-84325748D01*
X451136446Y-82611462D01*
X451136446Y-84468605D01*
%TO.C,H1*%
G36*
X442039304Y-95650034D02*
G01*
X448639304Y-95650034D01*
X448639304Y-102350034D01*
X442039304Y-102350034D01*
X442039304Y-95650034D01*
G37*
%TD*%
D18*
%TO.C,U58*%
X442639304Y-146600034D03*
X441139304Y-149100034D03*
X443389304Y-149100034D03*
X442639304Y-149100034D03*
X441889304Y-149100034D03*
X441889304Y-146600034D03*
X443389304Y-146600034D03*
X441139304Y-146600034D03*
%TD*%
D19*
%TO.C,U38*%
X406539304Y-91250034D03*
D20*
X403999304Y-91250034D03*
X401459304Y-91250034D03*
%TD*%
D19*
%TO.C,J15*%
X517839304Y-106850034D03*
D20*
X515299304Y-106850034D03*
X512759304Y-106850034D03*
X510219304Y-106850034D03*
X507679304Y-106850034D03*
X505139304Y-106850034D03*
%TD*%
D18*
%TO.C,U35*%
X499889304Y-104100034D03*
X502389304Y-102600034D03*
X499889304Y-104850034D03*
X502389304Y-104850034D03*
X502389304Y-104100034D03*
X502389304Y-103350034D03*
X499889304Y-102600034D03*
X499889304Y-103350034D03*
%TD*%
D21*
%TO.C,H15*%
X426129304Y-8440034D03*
%TD*%
%TO.C,H10*%
X584439304Y-139250034D03*
%TD*%
D19*
%TO.C,J7*%
X418549304Y-175470034D03*
D20*
X416009304Y-175470034D03*
%TD*%
D19*
%TO.C,J33*%
X435139304Y-140580034D03*
D20*
X435139304Y-143120034D03*
%TD*%
D21*
%TO.C,H7*%
X452549304Y-120340034D03*
%TD*%
D19*
%TO.C,J25*%
X583839304Y-106850034D03*
D20*
X581299304Y-106850034D03*
X578759304Y-106850034D03*
X576219304Y-106850034D03*
X573679304Y-106850034D03*
X571139304Y-106850034D03*
%TD*%
D21*
%TO.C,H14*%
X429629304Y-100440034D03*
%TD*%
D18*
%TO.C,U53*%
X344389304Y-117100034D03*
X343639304Y-114600034D03*
X342889304Y-117100034D03*
X342139304Y-114600034D03*
X344389304Y-114600034D03*
X343639304Y-117100034D03*
X342889304Y-114600034D03*
X342139304Y-117100034D03*
%TD*%
%TO.C,U66*%
X458389304Y-131850034D03*
X455889304Y-131100034D03*
X455889304Y-130350034D03*
X455889304Y-129600034D03*
X458389304Y-130350034D03*
X458389304Y-129600034D03*
X458389304Y-131100034D03*
X455889304Y-131850034D03*
%TD*%
D19*
%TO.C,U2*%
X536709304Y-117784034D03*
D20*
X539249304Y-117784034D03*
X541789304Y-117784034D03*
X544329304Y-117784034D03*
X546869304Y-117784034D03*
X549409304Y-117784034D03*
X551949304Y-117784034D03*
X554489304Y-117784034D03*
X557029304Y-117784034D03*
X559569304Y-117784034D03*
X562109304Y-117784034D03*
X564649304Y-117784034D03*
X567189304Y-117784034D03*
X569729304Y-117784034D03*
X572269304Y-117784034D03*
X574809304Y-117784034D03*
X577349304Y-117784034D03*
X579889304Y-117784034D03*
X582429304Y-117784034D03*
X584969304Y-117784034D03*
%TD*%
D19*
%TO.C,J45*%
X438311804Y-108851034D03*
D20*
X440851804Y-108851034D03*
X443391804Y-108851034D03*
X445931804Y-108851034D03*
X448471804Y-108851034D03*
X451011804Y-108851034D03*
%TD*%
D18*
%TO.C,U25*%
X565889304Y-102600034D03*
X565889304Y-103350034D03*
X568389304Y-104100034D03*
X565889304Y-104850034D03*
X565889304Y-104100034D03*
X568389304Y-102600034D03*
X568389304Y-103350034D03*
X568389304Y-104850034D03*
%TD*%
D19*
%TO.C,J21*%
X539839304Y-106850034D03*
D20*
X537299304Y-106850034D03*
X534759304Y-106850034D03*
X532219304Y-106850034D03*
X529679304Y-106850034D03*
X527139304Y-106850034D03*
%TD*%
D22*
%TO.C,SW4*%
X362139304Y-106350034D03*
X371139304Y-106350034D03*
D23*
X369139304Y-100100034D03*
X369139304Y-112600034D03*
X364139304Y-100100034D03*
X364139304Y-112600034D03*
%TD*%
D24*
%TO.C,BT1*%
X402464449Y-152015736D03*
X347264449Y-168015736D03*
D25*
X338934449Y-152015736D03*
%TD*%
D19*
%TO.C,J48*%
X501919304Y-153820034D03*
D20*
X501919304Y-151280034D03*
X501919304Y-148740034D03*
X501919304Y-146200034D03*
%TD*%
D19*
%TO.C,J3*%
X522509304Y-113810034D03*
D20*
X519969304Y-113810034D03*
X517429304Y-113810034D03*
X514889304Y-113810034D03*
%TD*%
D18*
%TO.C,U67*%
X582389304Y-111100034D03*
X581639304Y-108600034D03*
X580889304Y-111100034D03*
X581639304Y-111100034D03*
X582389304Y-108600034D03*
X580889304Y-108600034D03*
X580139304Y-111100034D03*
X580139304Y-108600034D03*
%TD*%
D19*
%TO.C,J30*%
X368729304Y-135850034D03*
D20*
X368729304Y-138390034D03*
X368729304Y-140930034D03*
X368729304Y-143470034D03*
%TD*%
D22*
%TO.C,SW3*%
X357139304Y-106350034D03*
X348139304Y-106350034D03*
D23*
X355139304Y-100100034D03*
X355139304Y-112600034D03*
X350139304Y-100100034D03*
X350139304Y-112600034D03*
%TD*%
D18*
%TO.C,U37*%
X543889304Y-9350034D03*
X543889304Y-8600034D03*
X546389304Y-10100034D03*
X546389304Y-10850034D03*
X546389304Y-8600034D03*
X546389304Y-9350034D03*
X543889304Y-10850034D03*
X543889304Y-10100034D03*
%TD*%
%TO.C,U64*%
X495389304Y-108600034D03*
X493889304Y-111100034D03*
X494639304Y-108600034D03*
X493139304Y-108600034D03*
X493889304Y-108600034D03*
X495389304Y-111100034D03*
X494639304Y-111100034D03*
X493139304Y-111100034D03*
%TD*%
%TO.C,U50*%
X416389304Y-133100034D03*
X415639304Y-133100034D03*
X414889304Y-130600034D03*
X414889304Y-133100034D03*
X414139304Y-133100034D03*
X416389304Y-130600034D03*
X415639304Y-130600034D03*
X414139304Y-130600034D03*
%TD*%
D26*
%TO.C,J10*%
X332384556Y-51675729D03*
X334834556Y-49675729D03*
X338534556Y-51675729D03*
X340434556Y-49675729D03*
X344184556Y-51675729D03*
%TD*%
D19*
%TO.C,J43*%
X399629304Y-7440034D03*
D20*
X399629304Y-9980034D03*
X399629304Y-12520034D03*
X399629304Y-15060034D03*
X399629304Y-17600034D03*
X399629304Y-20140034D03*
X399629304Y-22680034D03*
X399629304Y-25220034D03*
X399629304Y-27760034D03*
X399629304Y-30300034D03*
X399629304Y-32840034D03*
X399629304Y-35380034D03*
X399629304Y-37920034D03*
X399629304Y-40460034D03*
X399629304Y-43000034D03*
X399629304Y-45540034D03*
X399629304Y-48080034D03*
X399629304Y-50620034D03*
X399629304Y-53160034D03*
X399629304Y-55700034D03*
%TD*%
D27*
%TO.C,H4*%
X548886659Y-155705034D03*
%TD*%
D18*
%TO.C,U59*%
X479889304Y-145100034D03*
X482389304Y-143600034D03*
X479889304Y-143600034D03*
X482389304Y-145850034D03*
X479889304Y-144350034D03*
X479889304Y-145850034D03*
X482389304Y-145100034D03*
X482389304Y-144350034D03*
%TD*%
D28*
%TO.C,H2*%
X340336360Y-91652978D03*
X336942248Y-91652978D03*
X338639304Y-95750034D03*
X336239304Y-93350034D03*
X336942248Y-95047090D03*
X341039304Y-93350034D03*
X338639304Y-90950034D03*
X340336360Y-95047090D03*
D29*
X338639304Y-93350034D03*
%TD*%
D18*
%TO.C,U56*%
X346389304Y-149100034D03*
X344139304Y-146600034D03*
X344889304Y-149100034D03*
X345639304Y-149100034D03*
X344889304Y-146600034D03*
X346389304Y-146600034D03*
X345639304Y-146600034D03*
X344139304Y-149100034D03*
%TD*%
%TO.C,U65*%
X576639304Y-142600034D03*
X576639304Y-145100034D03*
X575139304Y-142600034D03*
X575889304Y-142600034D03*
X575139304Y-145100034D03*
X575889304Y-145100034D03*
X577389304Y-142600034D03*
X577389304Y-145100034D03*
%TD*%
%TO.C,U49*%
X437889304Y-114600034D03*
X439389304Y-114600034D03*
X438639304Y-117100034D03*
X437139304Y-117100034D03*
X438639304Y-114600034D03*
X437139304Y-114600034D03*
X439389304Y-117100034D03*
X437889304Y-117100034D03*
%TD*%
%TO.C,U57*%
X482389304Y-128350034D03*
X479889304Y-128350034D03*
X482389304Y-129850034D03*
X479889304Y-127600034D03*
X479889304Y-129850034D03*
X482389304Y-127600034D03*
X482389304Y-129100034D03*
X479889304Y-129100034D03*
%TD*%
D19*
%TO.C,J9*%
X461261804Y-6850034D03*
D20*
X463801804Y-6850034D03*
X466341804Y-6850034D03*
X468881804Y-6850034D03*
X471421804Y-6850034D03*
X473961804Y-6850034D03*
%TD*%
D30*
%TO.C,H1*%
X445239304Y-98850034D03*
%TD*%
D19*
%TO.C,J46*%
X484139304Y-160850034D03*
D20*
X486679304Y-160850034D03*
X489219304Y-160850034D03*
X491759304Y-160850034D03*
X494299304Y-160850034D03*
X496839304Y-160850034D03*
%TD*%
D18*
%TO.C,U63*%
X506389304Y-157600034D03*
X503889304Y-159100034D03*
X506389304Y-158350034D03*
X506389304Y-159850034D03*
X503889304Y-159850034D03*
X503889304Y-157600034D03*
X506389304Y-159100034D03*
X503889304Y-158350034D03*
%TD*%
D19*
%TO.C,J19*%
X527139304Y-6850034D03*
D20*
X529679304Y-6850034D03*
X532219304Y-6850034D03*
X534759304Y-6850034D03*
X537299304Y-6850034D03*
X539839304Y-6850034D03*
%TD*%
D19*
%TO.C,J47*%
X498109304Y-139850034D03*
D20*
X495569304Y-139850034D03*
X493029304Y-139850034D03*
X490489304Y-139850034D03*
X487949304Y-139850034D03*
X485409304Y-139850034D03*
%TD*%
D19*
%TO.C,J42*%
X508179304Y-140725034D03*
D20*
X508179304Y-138185034D03*
X508179304Y-135645034D03*
X508179304Y-133105034D03*
X508179304Y-130565034D03*
X508179304Y-128025034D03*
X508179304Y-125485034D03*
X508179304Y-122945034D03*
%TD*%
D19*
%TO.C,J44*%
X427569304Y-84700034D03*
D20*
X425029304Y-84700034D03*
X422489304Y-84700034D03*
X419949304Y-84700034D03*
X417409304Y-84700034D03*
X414869304Y-84700034D03*
X412329304Y-84700034D03*
X409789304Y-84700034D03*
%TD*%
D18*
%TO.C,U27*%
X455889304Y-103350034D03*
X458389304Y-103350034D03*
X455889304Y-104850034D03*
X455889304Y-102600034D03*
X458389304Y-102600034D03*
X458389304Y-104100034D03*
X455889304Y-104100034D03*
X458389304Y-104850034D03*
%TD*%
D19*
%TO.C,J5*%
X341539304Y-63325034D03*
D20*
X344079304Y-63325034D03*
X346619304Y-63325034D03*
X349159304Y-63325034D03*
%TD*%
D19*
%TO.C,J50*%
X484139304Y-133850034D03*
D20*
X486679304Y-133850034D03*
X489219304Y-133850034D03*
X491759304Y-133850034D03*
X494299304Y-133850034D03*
X496839304Y-133850034D03*
%TD*%
D31*
%TO.C,J2*%
X390329304Y-11155034D03*
X384549304Y-11155034D03*
D32*
X391759304Y-7475034D03*
X383119304Y-7475034D03*
D33*
X391759304Y-11655034D03*
X383119304Y-11655034D03*
%TD*%
D22*
%TO.C,SW2*%
X334139304Y-106350034D03*
X343139304Y-106350034D03*
D23*
X341139304Y-100100034D03*
X341139304Y-112600034D03*
X336139304Y-100100034D03*
X336139304Y-112600034D03*
%TD*%
%TO.C,TP3*%
X351193556Y-20015729D03*
%TD*%
D21*
%TO.C,H11*%
X485139304Y-150350034D03*
%TD*%
D19*
%TO.C,U3*%
X536709304Y-133024034D03*
D20*
X539249304Y-133024034D03*
X541789304Y-133024034D03*
X544329304Y-133024034D03*
X546869304Y-133024034D03*
X549409304Y-133024034D03*
X551949304Y-133024034D03*
X554489304Y-133024034D03*
X557029304Y-133024034D03*
X559569304Y-133024034D03*
X562109304Y-133024034D03*
X564649304Y-133024034D03*
X567189304Y-133024034D03*
X569729304Y-133024034D03*
X572269304Y-133024034D03*
X574809304Y-133024034D03*
X577349304Y-133024034D03*
X579889304Y-133024034D03*
X582429304Y-133024034D03*
X584969304Y-133024034D03*
%TD*%
D19*
%TO.C,J13*%
X474061804Y-106850034D03*
D20*
X471521804Y-106850034D03*
X468981804Y-106850034D03*
X466441804Y-106850034D03*
X463901804Y-106850034D03*
X461361804Y-106850034D03*
%TD*%
D18*
%TO.C,U22*%
X524389304Y-104100034D03*
X521889304Y-103350034D03*
X521889304Y-102600034D03*
X521889304Y-104100034D03*
X524389304Y-103350034D03*
X524389304Y-102600034D03*
X524389304Y-104850034D03*
X521889304Y-104850034D03*
%TD*%
D19*
%TO.C,J52*%
X430629304Y-89940034D03*
D20*
X428089304Y-89940034D03*
X425549304Y-89940034D03*
X423009304Y-89940034D03*
X420469304Y-89940034D03*
X417929304Y-89940034D03*
%TD*%
D23*
%TO.C,TP6*%
X364433556Y-22123229D03*
%TD*%
D19*
%TO.C,J40*%
X586099304Y-147029332D03*
D20*
X586099304Y-149569332D03*
X586099304Y-152109332D03*
X586099304Y-154649332D03*
X586099304Y-157189332D03*
X586099304Y-159729332D03*
X586099304Y-162269332D03*
X586099304Y-164809332D03*
%TD*%
D19*
%TO.C,J24*%
X571139304Y-6850034D03*
D20*
X573679304Y-6850034D03*
X576219304Y-6850034D03*
X578759304Y-6850034D03*
X581299304Y-6850034D03*
X583839304Y-6850034D03*
%TD*%
D18*
%TO.C,U26*%
X458389304Y-10850034D03*
X455889304Y-9350034D03*
X458389304Y-9350034D03*
X455889304Y-10100034D03*
X458389304Y-10100034D03*
X455889304Y-8600034D03*
X455889304Y-10850034D03*
X458389304Y-8600034D03*
%TD*%
%TO.C,U30*%
X502389304Y-57850034D03*
X502389304Y-57100034D03*
X499889304Y-57100034D03*
X502389304Y-56350034D03*
X499889304Y-57850034D03*
X499889304Y-55600034D03*
X499889304Y-56350034D03*
X502389304Y-55600034D03*
%TD*%
D21*
%TO.C,H8*%
X334729304Y-143360034D03*
%TD*%
D18*
%TO.C,U20*%
X568389304Y-56350034D03*
X565889304Y-57100034D03*
X568389304Y-57100034D03*
X565889304Y-56350034D03*
X565889304Y-57850034D03*
X568389304Y-55600034D03*
X568389304Y-57850034D03*
X565889304Y-55600034D03*
%TD*%
D19*
%TO.C,J18*%
X495839304Y-106850034D03*
D20*
X493299304Y-106850034D03*
X490759304Y-106850034D03*
X488219304Y-106850034D03*
X485679304Y-106850034D03*
X483139304Y-106850034D03*
%TD*%
D34*
%TO.C,U8*%
X361784556Y-54275729D03*
D35*
X361784556Y-51735729D03*
X361784556Y-49195729D03*
X361784556Y-46655729D03*
X354164556Y-46655729D03*
X354164556Y-49195729D03*
X354164556Y-51735729D03*
X354164556Y-54275729D03*
%TD*%
D36*
%TO.C,R13*%
X336199640Y-9751424D03*
X336199640Y-12251424D03*
X336199640Y-14751424D03*
X338699640Y-9751424D03*
X338699640Y-12251424D03*
X338699640Y-14751424D03*
X344949640Y-9751424D03*
X344949640Y-14751424D03*
%TD*%
D21*
%TO.C,H12*%
X485139304Y-123350034D03*
%TD*%
D18*
%TO.C,U32*%
X477889304Y-56350034D03*
X480389304Y-55600034D03*
X477889304Y-57100034D03*
X480389304Y-56350034D03*
X477889304Y-57850034D03*
X477889304Y-55600034D03*
X480389304Y-57100034D03*
X480389304Y-57850034D03*
%TD*%
D19*
%TO.C,J17*%
X483139304Y-6850034D03*
D20*
X485679304Y-6850034D03*
X488219304Y-6850034D03*
X490759304Y-6850034D03*
X493299304Y-6850034D03*
X495839304Y-6850034D03*
%TD*%
D18*
%TO.C,U62*%
X503889304Y-132100034D03*
X506389304Y-130600034D03*
X503889304Y-132850034D03*
X503889304Y-131350034D03*
X503889304Y-130600034D03*
X506389304Y-131350034D03*
X506389304Y-132850034D03*
X506389304Y-132100034D03*
%TD*%
D28*
%TO.C,H5*%
X447414748Y-21553978D03*
D29*
X449111804Y-23251034D03*
D28*
X447414748Y-24948090D03*
X451511804Y-23251034D03*
X446711804Y-23251034D03*
X450808860Y-21553978D03*
X449111804Y-25651034D03*
X450808860Y-24948090D03*
X449111804Y-20851034D03*
%TD*%
D21*
%TO.C,H9*%
X509839304Y-148450034D03*
%TD*%
D18*
%TO.C,U61*%
X455889304Y-164100034D03*
X455889304Y-163350034D03*
X455889304Y-162600034D03*
X458389304Y-164100034D03*
X458389304Y-162600034D03*
X458389304Y-164850034D03*
X458389304Y-163350034D03*
X455889304Y-164850034D03*
%TD*%
D37*
%TO.C,J38*%
X510091553Y-164900034D03*
X510091553Y-156900034D03*
%TD*%
D19*
%TO.C,J34*%
X333729304Y-167850034D03*
D20*
X333729304Y-170390034D03*
X333729304Y-172930034D03*
X333729304Y-175470034D03*
%TD*%
D23*
%TO.C,TP8*%
X351284556Y-23375729D03*
%TD*%
D19*
%TO.C,J31*%
X377739304Y-7150034D03*
D20*
X375199304Y-7150034D03*
X372659304Y-7150034D03*
X370119304Y-7150034D03*
%TD*%
D26*
%TO.C,J1*%
X332384556Y-27375729D03*
X334834556Y-25375729D03*
X338534556Y-27375729D03*
X340434556Y-25375729D03*
X344184556Y-27375729D03*
%TD*%
D19*
%TO.C,J26*%
X549139304Y-6850034D03*
D20*
X551679304Y-6850034D03*
X554219304Y-6850034D03*
X556759304Y-6850034D03*
X559299304Y-6850034D03*
X561839304Y-6850034D03*
%TD*%
D18*
%TO.C,U54*%
X468889304Y-108600034D03*
X468139304Y-111100034D03*
X468889304Y-111100034D03*
X469639304Y-108600034D03*
X470389304Y-108600034D03*
X468139304Y-108600034D03*
X469639304Y-111100034D03*
X470389304Y-111100034D03*
%TD*%
D19*
%TO.C,J49*%
X501919304Y-126820034D03*
D20*
X501919304Y-124280034D03*
X501919304Y-121740034D03*
X501919304Y-119200034D03*
%TD*%
D18*
%TO.C,U52*%
X408139304Y-149100034D03*
X408139304Y-146600034D03*
X410389304Y-149100034D03*
X408889304Y-149100034D03*
X409639304Y-149100034D03*
X410389304Y-146600034D03*
X409639304Y-146600034D03*
X408889304Y-146600034D03*
%TD*%
D19*
%TO.C,J37*%
X333729304Y-120230034D03*
D20*
X336269304Y-120230034D03*
%TD*%
D18*
%TO.C,U60*%
X516139304Y-142600034D03*
X516139304Y-145100034D03*
X517639304Y-142600034D03*
X517639304Y-145100034D03*
X516889304Y-142600034D03*
X518389304Y-145100034D03*
X516889304Y-145100034D03*
X518389304Y-142600034D03*
%TD*%
%TO.C,U68*%
X535389304Y-108600034D03*
X533139304Y-111100034D03*
X533889304Y-111100034D03*
X533889304Y-108600034D03*
X535389304Y-111100034D03*
X533139304Y-108600034D03*
X534639304Y-111100034D03*
X534639304Y-108600034D03*
%TD*%
%TO.C,U55*%
X410639304Y-114600034D03*
X411389304Y-117100034D03*
X409139304Y-114600034D03*
X409139304Y-117100034D03*
X411389304Y-114600034D03*
X409889304Y-114600034D03*
X409889304Y-117100034D03*
X410639304Y-117100034D03*
%TD*%
D19*
%TO.C,J27*%
X561839304Y-106850034D03*
D20*
X559299304Y-106850034D03*
X556759304Y-106850034D03*
X554219304Y-106850034D03*
X551679304Y-106850034D03*
X549139304Y-106850034D03*
%TD*%
D19*
%TO.C,J12*%
X341039304Y-69325034D03*
D20*
X343579304Y-69325034D03*
X346119304Y-69325034D03*
X348659304Y-69325034D03*
X351199304Y-69325034D03*
X353739304Y-69325034D03*
X356279304Y-69325034D03*
%TD*%
D19*
%TO.C,J36*%
X418549304Y-127850034D03*
D20*
X418549304Y-125310034D03*
X418549304Y-122770034D03*
X418549304Y-120230034D03*
%TD*%
D19*
%TO.C,J32*%
X370119304Y-91970034D03*
D20*
X370119304Y-89430034D03*
%TD*%
D21*
%TO.C,H6*%
X417549304Y-152340034D03*
%TD*%
D22*
%TO.C,SW5*%
X376139304Y-106350034D03*
X385139304Y-106350034D03*
D23*
X383139304Y-100100034D03*
X383139304Y-112600034D03*
X378139304Y-100100034D03*
X378139304Y-112600034D03*
%TD*%
D19*
%TO.C,J8*%
X412849304Y-96970034D03*
D20*
X412849304Y-99510034D03*
X412849304Y-102050034D03*
X412849304Y-104590034D03*
%TD*%
D21*
%TO.C,H13*%
X393249304Y-90970034D03*
%TD*%
D26*
%TO.C,J11*%
X332370343Y-39525729D03*
X334820343Y-37525729D03*
X338520343Y-39525729D03*
X340420343Y-37525729D03*
X344170343Y-39525729D03*
%TD*%
D19*
%TO.C,J6*%
X451011804Y-8851034D03*
D20*
X448471804Y-8851034D03*
X445931804Y-8851034D03*
X443391804Y-8851034D03*
X440851804Y-8851034D03*
X438311804Y-8851034D03*
%TD*%
D38*
%TO.C,U40*%
X568886659Y-169705034D03*
D39*
X568886659Y-149705034D03*
%TD*%
D19*
%TO.C,J14*%
X505139304Y-6850034D03*
D20*
X507679304Y-6850034D03*
X510219304Y-6850034D03*
X512759304Y-6850034D03*
X515299304Y-6850034D03*
X517839304Y-6850034D03*
%TD*%
D28*
%TO.C,H3*%
X357942248Y-11152978D03*
X361336360Y-14547090D03*
X359639304Y-10450034D03*
X362039304Y-12850034D03*
X357239304Y-12850034D03*
X359639304Y-15250034D03*
D29*
X359639304Y-12850034D03*
D28*
X361336360Y-11152978D03*
X357942248Y-14547090D03*
%TD*%
D19*
%TO.C,J53*%
X416659304Y-110940034D03*
D20*
X419199304Y-110940034D03*
X421739304Y-110940034D03*
X424279304Y-110940034D03*
X426819304Y-110940034D03*
X429359304Y-110940034D03*
%TD*%
D18*
%TO.C,U36*%
X546389304Y-104850034D03*
X543889304Y-102600034D03*
X543889304Y-104100034D03*
X543889304Y-104850034D03*
X546389304Y-104100034D03*
X543889304Y-103350034D03*
X546389304Y-103350034D03*
X546389304Y-102600034D03*
%TD*%
%TO.C,U34*%
X477889304Y-10100034D03*
X480389304Y-9350034D03*
X480389304Y-8600034D03*
X477889304Y-8600034D03*
X477889304Y-9350034D03*
X480389304Y-10100034D03*
X477889304Y-10850034D03*
X480389304Y-10850034D03*
%TD*%
%TO.C,U48*%
X369139304Y-133100034D03*
X371389304Y-133100034D03*
X371389304Y-130600034D03*
X369889304Y-130600034D03*
X369139304Y-130600034D03*
X369889304Y-133100034D03*
X370639304Y-133100034D03*
X370639304Y-130600034D03*
%TD*%
%TO.C,U21*%
X458389304Y-57850034D03*
X458389304Y-55600034D03*
X455889304Y-55600034D03*
X455889304Y-57850034D03*
X458389304Y-57100034D03*
X455889304Y-57100034D03*
X458389304Y-56350034D03*
X455889304Y-56350034D03*
%TD*%
%TO.C,U51*%
X423389304Y-162600034D03*
X420889304Y-164100034D03*
X420889304Y-162600034D03*
X423389304Y-163350034D03*
X420889304Y-163350034D03*
X423389304Y-164850034D03*
X423389304Y-164100034D03*
X420889304Y-164850034D03*
%TD*%
%TO.C,U31*%
X499889304Y-10850034D03*
X499889304Y-10100034D03*
X502389304Y-10100034D03*
X499889304Y-8600034D03*
X499889304Y-9350034D03*
X502389304Y-8600034D03*
X502389304Y-10850034D03*
X502389304Y-9350034D03*
%TD*%
D19*
%TO.C,J39*%
X508839304Y-174950034D03*
D20*
X511379304Y-174950034D03*
X513919304Y-174950034D03*
X516459304Y-174950034D03*
X518999304Y-174950034D03*
X521539304Y-174950034D03*
X524079304Y-174950034D03*
X526619304Y-174950034D03*
X529159304Y-174950034D03*
X531699304Y-174950034D03*
X534239304Y-174950034D03*
X536779304Y-174950034D03*
X539319304Y-174950034D03*
X541859304Y-174950034D03*
X544399304Y-174950034D03*
X546939304Y-174950034D03*
X549479304Y-174950034D03*
X552019304Y-174950034D03*
X554559304Y-174950034D03*
X557099304Y-174950034D03*
%TD*%
D18*
%TO.C,U29*%
X521889304Y-10850034D03*
X524389304Y-10100034D03*
X521889304Y-8600034D03*
X524389304Y-10850034D03*
X524389304Y-9350034D03*
X521889304Y-10100034D03*
X524389304Y-8600034D03*
X521889304Y-9350034D03*
%TD*%
D19*
%TO.C,J51*%
X498109304Y-112850034D03*
D20*
X495569304Y-112850034D03*
X493029304Y-112850034D03*
X490489304Y-112850034D03*
X487949304Y-112850034D03*
X485409304Y-112850034D03*
%TD*%
D18*
%TO.C,U24*%
X521889304Y-57100034D03*
X524389304Y-57850034D03*
X524389304Y-56350034D03*
X521889304Y-57850034D03*
X524389304Y-57100034D03*
X521889304Y-55600034D03*
X524389304Y-55600034D03*
X521889304Y-56350034D03*
%TD*%
%TO.C,U28*%
X546389304Y-55600034D03*
X546389304Y-57100034D03*
X546389304Y-57850034D03*
X543889304Y-56350034D03*
X543889304Y-55600034D03*
X543889304Y-57100034D03*
X546389304Y-56350034D03*
X543889304Y-57850034D03*
%TD*%
%TO.C,U33*%
X568389304Y-9350034D03*
X568389304Y-10850034D03*
X568389304Y-10100034D03*
X568389304Y-8600034D03*
X565889304Y-9350034D03*
X565889304Y-10850034D03*
X565889304Y-8600034D03*
X565889304Y-10100034D03*
%TD*%
D19*
%TO.C,J35*%
X453549304Y-143470034D03*
D20*
X451009304Y-143470034D03*
%TD*%
D40*
%TO.C,SW7*%
X403029304Y-112440034D03*
D38*
X398029304Y-112440034D03*
X403029304Y-97940034D03*
X398029304Y-97940034D03*
X400529304Y-97940034D03*
D41*
X406229304Y-105440034D03*
X394829304Y-105440034D03*
%TD*%
D19*
%TO.C,J41*%
X585439304Y-112750034D03*
D20*
X582899304Y-112750034D03*
X580359304Y-112750034D03*
X577819304Y-112750034D03*
X575279304Y-112750034D03*
X572739304Y-112750034D03*
X570199304Y-112750034D03*
X567659304Y-112750034D03*
X565119304Y-112750034D03*
X562579304Y-112750034D03*
X560039304Y-112750034D03*
X557499304Y-112750034D03*
X554959304Y-112750034D03*
X552419304Y-112750034D03*
X549879304Y-112750034D03*
X547339304Y-112750034D03*
X544799304Y-112750034D03*
X542259304Y-112750034D03*
X539719304Y-112750034D03*
X537179304Y-112750034D03*
%TD*%
D18*
%TO.C,U23*%
X480389304Y-104100034D03*
X480389304Y-104850034D03*
X480389304Y-102600034D03*
X480389304Y-103350034D03*
X477889304Y-102600034D03*
X477889304Y-104850034D03*
X477889304Y-104100034D03*
X477889304Y-103350034D03*
%TD*%
D28*
X470639304Y-12350034D03*
X462639304Y-103600034D03*
X473139304Y-9850034D03*
X472139304Y-11100034D03*
X476389304Y-6850034D03*
X472139304Y-102600034D03*
X460139304Y-102600034D03*
X507311804Y-103350034D03*
X520811804Y-105350034D03*
X493139304Y-10350034D03*
X499061804Y-106850034D03*
X495139304Y-9850034D03*
X486389304Y-103600034D03*
X542561804Y-105600034D03*
X529561804Y-103350034D03*
X582139304Y-9100034D03*
X572731804Y-104100034D03*
X586139304Y-8600034D03*
X586231804Y-104350034D03*
X560639304Y-12100034D03*
X558639304Y-12600034D03*
X551561804Y-103350034D03*
X565061804Y-106850034D03*
X333139304Y-12350034D03*
X335239304Y-28350034D03*
X346783556Y-28248229D03*
D42*
X357884556Y-31275729D03*
D28*
X340639304Y-14350034D03*
X342184556Y-19175729D03*
X350783556Y-35548229D03*
X332384556Y-8475729D03*
X341739304Y-28350034D03*
X384939304Y-14650034D03*
X389839304Y-14450034D03*
X424839304Y-68650034D03*
X422839304Y-64450034D03*
X384339304Y-48150034D03*
X385939304Y-32650034D03*
X524039304Y-150750034D03*
X554439304Y-170250034D03*
X533639304Y-154350034D03*
X518639304Y-156250034D03*
X582939304Y-162450034D03*
X544139304Y-148850034D03*
X536639304Y-171350034D03*
X534139304Y-157750034D03*
X563839304Y-149450034D03*
X577139304Y-148350034D03*
X583839304Y-168550034D03*
X560439304Y-174850034D03*
X553839304Y-158550034D03*
X519439304Y-147650034D03*
X562739304Y-158850034D03*
X577239304Y-162950034D03*
X548639304Y-162450034D03*
X559539304Y-165150034D03*
X519939304Y-172650034D03*
X524139304Y-154150034D03*
X512539304Y-172250034D03*
X576939304Y-159250034D03*
X517139304Y-171950034D03*
X522639304Y-172550034D03*
X533339304Y-172150034D03*
X518039304Y-160650034D03*
X540739304Y-147550034D03*
X534239304Y-150850034D03*
X528639304Y-171750034D03*
X556439304Y-153150034D03*
X538239304Y-169550034D03*
X518839304Y-165750034D03*
X525539304Y-172350034D03*
X527739304Y-158050034D03*
X571739304Y-174950034D03*
X531739304Y-171250034D03*
X528339304Y-162050034D03*
X526809304Y-115224034D03*
X549409304Y-121124034D03*
X569709304Y-120324034D03*
X563609304Y-137724034D03*
X532809304Y-120924034D03*
X558009304Y-135524034D03*
X531409304Y-133824034D03*
X577909304Y-120924034D03*
X580509304Y-136024034D03*
X538009304Y-140624034D03*
X573609304Y-124324034D03*
X584709304Y-120924034D03*
X541909304Y-121124034D03*
X544909304Y-124124034D03*
X530209304Y-124324034D03*
X546909304Y-120924034D03*
X571809304Y-130524034D03*
X554509304Y-127424034D03*
X585809304Y-130024034D03*
X559909304Y-127224034D03*
X526209304Y-120124034D03*
X518809304Y-124224034D03*
X517909304Y-130824034D03*
X518009304Y-138824034D03*
X511309304Y-117424034D03*
X567509304Y-121624034D03*
X581809304Y-120924034D03*
X532409304Y-113924034D03*
X516209304Y-124324034D03*
X568109304Y-136024034D03*
X544609304Y-120824034D03*
X578109304Y-130424034D03*
X560609304Y-135924034D03*
X516309304Y-118124034D03*
X571209304Y-137224034D03*
X580109304Y-115024034D03*
X561782836Y-169050534D03*
X562711044Y-166021775D03*
X561457021Y-166248546D03*
X560339304Y-168550034D03*
X563621247Y-166434734D03*
X562681037Y-167508301D03*
X549909304Y-125524034D03*
X547309304Y-123924034D03*
X558310077Y-122024534D03*
X561409304Y-119724034D03*
X575309304Y-115973045D03*
X577809304Y-115573534D03*
X569214682Y-122329412D03*
X572309304Y-120224034D03*
X544409304Y-138324034D03*
X538209304Y-137524034D03*
X553909304Y-138024034D03*
X556609304Y-137824034D03*
X550809304Y-137123035D03*
X540809304Y-136124034D03*
X567709304Y-130824034D03*
X543009304Y-135724034D03*
X552009304Y-123424034D03*
X548340222Y-126302358D03*
X546809304Y-127924034D03*
X543809304Y-128324034D03*
X562539284Y-130124534D03*
X565309304Y-128624034D03*
X559239304Y-158750034D03*
X559539304Y-153650034D03*
X549164697Y-166481213D03*
X548269239Y-166037186D03*
X558539304Y-154450034D03*
X581239304Y-168750034D03*
X581239304Y-159550034D03*
X560539304Y-163550534D03*
X580439304Y-167350034D03*
X580439304Y-158650034D03*
X562939304Y-156150034D03*
X547139304Y-169495849D03*
X561539304Y-155950034D03*
X548739304Y-172150034D03*
X561039304Y-157050034D03*
X560230669Y-157762911D03*
X550539304Y-172350034D03*
X551939304Y-167150034D03*
X563339304Y-161849534D03*
X552527840Y-167957889D03*
X562448051Y-162301942D03*
X561539304Y-162850034D03*
X553239304Y-168750034D03*
X579739304Y-173650034D03*
X579739304Y-165450034D03*
X579039304Y-174750034D03*
X579039304Y-166241013D03*
X578339304Y-167250034D03*
X576939304Y-175050034D03*
X575939304Y-174650034D03*
X577639304Y-168550034D03*
X576939304Y-169950034D03*
X575180937Y-173950534D03*
X348239304Y-46850034D03*
X348239304Y-52050034D03*
X365339304Y-38350034D03*
X348339304Y-60350034D03*
X386939304Y-27650034D03*
X382639304Y-169850034D03*
X336139304Y-171850034D03*
X367139304Y-169350034D03*
X353639304Y-176350034D03*
X355139304Y-169850034D03*
X372639304Y-176850034D03*
X397639304Y-177350034D03*
X417639304Y-170850034D03*
X406139304Y-168850034D03*
X347139304Y-176850034D03*
X412639304Y-174850034D03*
X449039304Y-141050034D03*
X438139304Y-135850034D03*
X376639304Y-136350034D03*
X376639304Y-140850034D03*
X409639304Y-123850034D03*
X334639304Y-124350034D03*
X339639304Y-122850034D03*
X410139304Y-129350034D03*
X394939304Y-96150034D03*
X407439304Y-28050034D03*
X350639304Y-53650034D03*
X410639304Y-13050034D03*
X391239304Y-44450034D03*
X341139304Y-54350034D03*
X363339304Y-61750034D03*
X347939304Y-98150034D03*
X348139304Y-9850034D03*
X364739304Y-54450034D03*
X431939304Y-106150034D03*
X343839304Y-96650034D03*
X370939304Y-95450034D03*
X389139304Y-32850034D03*
X401439304Y-50450034D03*
X336739304Y-66150034D03*
X387539304Y-50250034D03*
X379539304Y-90350034D03*
X395639304Y-36550034D03*
X352539304Y-89850034D03*
X346239304Y-66350034D03*
X339139304Y-58650034D03*
X368339304Y-41050034D03*
X360039304Y-36050034D03*
X391639304Y-40350034D03*
X362739304Y-63550034D03*
X425339304Y-54950034D03*
X370439304Y-53250034D03*
X357239304Y-44250034D03*
X350439304Y-73450034D03*
X379939304Y-30150034D03*
X343639304Y-48850034D03*
X414439304Y-82250034D03*
X408639304Y-44550034D03*
X335139304Y-53850034D03*
X425239304Y-40650034D03*
X346239304Y-85250034D03*
X393839304Y-75150034D03*
X341639304Y-84350034D03*
X343139304Y-36850034D03*
X409239304Y-89250034D03*
D42*
X359684556Y-29275729D03*
D28*
X390239304Y-93750034D03*
X384339304Y-90350034D03*
X383439304Y-84150034D03*
X355039304Y-63150034D03*
X381939304Y-90350034D03*
X380483926Y-37205412D03*
X387339304Y-97750034D03*
X404139304Y-73450034D03*
X365039304Y-31250034D03*
X378139304Y-32850034D03*
X418339304Y-64550034D03*
X366139304Y-5850034D03*
X358239304Y-51950034D03*
X342839304Y-90050034D03*
X411439304Y-80450034D03*
X404239304Y-78550034D03*
X402339304Y-29650034D03*
X350639304Y-47350034D03*
X377839304Y-22950034D03*
X334639304Y-42350034D03*
X337639304Y-36850034D03*
X412239304Y-20850034D03*
X341039304Y-41350034D03*
X398339304Y-69350034D03*
X393939304Y-25850034D03*
X422239304Y-24050034D03*
X409539304Y-66750034D03*
X391239304Y-31150034D03*
X341139304Y-109650034D03*
X379739304Y-41150034D03*
X356139304Y-57650034D03*
X395339304Y-39750034D03*
X416239304Y-104250034D03*
X372139304Y-85450034D03*
X352239304Y-93350034D03*
X395739304Y-53250034D03*
X364739304Y-57550034D03*
X416339304Y-69550034D03*
X389139304Y-36450034D03*
X404139304Y-12350034D03*
X363839304Y-26650034D03*
X399939304Y-61850034D03*
X375239304Y-92150034D03*
X413839304Y-74050034D03*
X366139304Y-10850034D03*
X419739304Y-95650034D03*
X419539304Y-29850034D03*
X419439304Y-48250034D03*
X388339304Y-102350034D03*
X363339304Y-33750034D03*
X418139304Y-78850034D03*
X390939304Y-46850034D03*
X419839304Y-62250034D03*
X379339304Y-38650034D03*
X402139304Y-37650034D03*
X378939304Y-45250034D03*
X402339304Y-23050034D03*
D42*
X359284556Y-32875729D03*
D28*
X413139304Y-108950034D03*
X356239304Y-73150034D03*
X345939304Y-73450034D03*
X356239304Y-54350034D03*
X406839304Y-62850034D03*
X353639304Y-40550034D03*
X396039304Y-46850034D03*
X426539304Y-80650034D03*
X384439304Y-28050034D03*
X365339304Y-71550034D03*
X368439304Y-67150034D03*
X350139304Y-86650034D03*
X407039304Y-69550034D03*
X402369821Y-65549534D03*
X386839304Y-33850034D03*
X387439304Y-46450034D03*
X400139304Y-64850034D03*
X418539304Y-68650034D03*
X498339304Y-157750034D03*
X490839304Y-157850034D03*
X490839304Y-149750034D03*
X487139304Y-155850034D03*
X500639304Y-159350034D03*
X499139304Y-147550034D03*
X490539304Y-155150034D03*
X498039304Y-151150034D03*
X490711804Y-144351034D03*
X491839304Y-123350034D03*
X496439304Y-123550034D03*
X485139304Y-117350034D03*
X497539304Y-126750034D03*
X501139304Y-132350034D03*
X493409304Y-117124034D03*
X485639304Y-128850034D03*
X489039304Y-122650034D03*
X489639304Y-130350034D03*
X493339304Y-131250034D03*
X495711804Y-129651034D03*
X493711165Y-126051672D03*
X494811804Y-124851034D03*
X496711804Y-121751034D03*
X496711804Y-119151034D03*
X372639304Y-13850034D03*
X388139304Y-7350034D03*
X383639304Y-19850034D03*
X380139304Y-11850034D03*
X387607980Y-28588594D03*
X381639304Y-40550034D03*
X489639304Y-149050034D03*
X488539304Y-147950034D03*
X538039304Y-152250034D03*
X578239304Y-152350034D03*
X413239304Y-76450034D03*
X386104986Y-31415716D03*
X384439304Y-40550034D03*
X415139304Y-91350034D03*
X413539304Y-90750034D03*
X383139304Y-40650034D03*
X411747378Y-76247352D03*
X388633926Y-29544656D03*
X348639304Y-66450034D03*
X398739304Y-81550034D03*
X399639304Y-93450034D03*
X397639304Y-93350034D03*
X397639304Y-80750034D03*
X396339304Y-80650034D03*
X396139304Y-93450034D03*
M02*
