M48
; DRILL file {KiCad 8.0.8} date 2025-02-10T19:44:41+0100
; FORMAT={-:-/ absolute / inch / decimal}
; #@! TF.CreationDate,2025-02-10T19:44:41+01:00
; #@! TF.GenerationSoftware,Kicad,Pcbnew,8.0.8
; #@! TF.FileFunction,NonPlated,1,2,NPTH
FMAT,2
INCH
; #@! TA.AperFunction,NonPlated,NPTH,ComponentDrill
T1C0.0197
%
G90
G05
T1
X-0.8556Y-0.9804
X-0.8556Y-1.01
X-0.8556Y-1.0395
X-0.8556Y-1.069
X-0.8556Y-2.634
X-0.8556Y-2.6635
X-0.8556Y-2.693
X-0.8556Y-2.7226
X-0.8556Y-4.2875
X-0.8556Y-4.317
X-0.8556Y-4.3466
X-0.8556Y-4.3761
X-0.7571Y-0.9804
X-0.7571Y-1.01
X-0.7571Y-1.0395
X-0.7571Y-1.069
X-0.7571Y-2.634
X-0.7571Y-2.6635
X-0.7571Y-2.693
X-0.7571Y-2.7226
X-0.7571Y-4.2875
X-0.7571Y-4.317
X-0.7571Y-4.3466
X-0.7571Y-4.3761
X0.0106Y-0.9804
X0.0106Y-1.01
X0.0106Y-1.0395
X0.0106Y-1.069
X0.0106Y-2.634
X0.0106Y-2.6635
X0.0106Y-2.693
X0.0106Y-2.7226
X0.0106Y-4.2875
X0.0106Y-4.317
X0.0106Y-4.3466
X0.0106Y-4.3761
X0.109Y-0.9804
X0.109Y-1.01
X0.109Y-1.0395
X0.109Y-1.069
X0.109Y-2.634
X0.109Y-2.6635
X0.109Y-2.693
X0.109Y-2.7226
X0.109Y-4.2875
X0.109Y-4.317
X0.109Y-4.3466
X0.109Y-4.3761
X0.8767Y-0.9804
X0.8767Y-1.01
X0.8767Y-1.0395
X0.8767Y-1.069
X0.8767Y-2.634
X0.8767Y-2.6635
X0.8767Y-2.693
X0.8767Y-2.7226
X0.8767Y-4.2875
X0.8767Y-4.317
X0.8767Y-4.3466
X0.8767Y-4.3761
X0.9751Y-0.9804
X0.9751Y-1.01
X0.9751Y-1.0395
X0.9751Y-1.069
X0.9751Y-2.634
X0.9751Y-2.6635
X0.9751Y-2.693
X0.9751Y-2.7226
X0.9751Y-4.2875
X0.9751Y-4.317
X0.9751Y-4.3466
X0.9751Y-4.3761
X1.7429Y-0.9804
X1.7429Y-1.01
X1.7429Y-1.0395
X1.7429Y-1.069
X1.7429Y-2.634
X1.7429Y-2.6635
X1.7429Y-2.693
X1.7429Y-2.7226
X1.7429Y-4.2875
X1.7429Y-4.317
X1.7429Y-4.3466
X1.7429Y-4.3761
X1.8413Y-0.9804
X1.8413Y-1.01
X1.8413Y-1.0395
X1.8413Y-1.069
X1.8413Y-2.634
X1.8413Y-2.6635
X1.8413Y-2.693
X1.8413Y-2.7226
X1.8413Y-4.2875
X1.8413Y-4.317
X1.8413Y-4.3466
X1.8413Y-4.3761
X2.609Y-0.9804
X2.609Y-1.01
X2.609Y-1.0395
X2.609Y-1.069
X2.609Y-2.634
X2.609Y-2.6635
X2.609Y-2.693
X2.609Y-2.7226
X2.609Y-4.2875
X2.609Y-4.317
X2.609Y-4.3466
X2.609Y-4.3761
X2.7074Y-0.9804
X2.7074Y-1.01
X2.7074Y-1.0395
X2.7074Y-1.069
X2.7074Y-2.634
X2.7074Y-2.6635
X2.7074Y-2.693
X2.7074Y-2.7226
X2.7074Y-4.2875
X2.7074Y-4.317
X2.7074Y-4.3466
X2.7074Y-4.3761
X3.4751Y-0.9804
X3.4751Y-1.01
X3.4751Y-1.0395
X3.4751Y-1.069
X3.4751Y-2.634
X3.4751Y-2.6635
X3.4751Y-2.693
X3.4751Y-2.7226
X3.4751Y-4.2875
X3.4751Y-4.317
X3.4751Y-4.3466
X3.4751Y-4.3761
X3.5736Y-0.9804
X3.5736Y-1.01
X3.5736Y-1.0395
X3.5736Y-1.069
X3.5736Y-2.634
X3.5736Y-2.6635
X3.5736Y-2.693
X3.5736Y-2.7226
X3.5736Y-4.2875
X3.5736Y-4.317
X3.5736Y-4.3466
X3.5736Y-4.3761
X4.3413Y-0.9804
X4.3413Y-1.01
X4.3413Y-1.0395
X4.3413Y-1.069
X4.3413Y-2.634
X4.3413Y-2.6635
X4.3413Y-2.693
X4.3413Y-2.7226
X4.3413Y-4.2875
X4.3413Y-4.317
X4.3413Y-4.3466
X4.3413Y-4.3761
X4.4397Y-0.9804
X4.4397Y-1.01
X4.4397Y-1.0395
X4.4397Y-1.069
X4.4397Y-2.634
X4.4397Y-2.6635
X4.4397Y-2.693
X4.4397Y-2.7226
X4.4397Y-4.2875
X4.4397Y-4.317
X4.4397Y-4.3466
X4.4397Y-4.3761
X5.2074Y-0.9804
X5.2074Y-1.01
X5.2074Y-1.0395
X5.2074Y-1.069
X5.2074Y-2.634
X5.2074Y-2.6635
X5.2074Y-2.693
X5.2074Y-2.7226
X5.2074Y-4.2875
X5.2074Y-4.317
X5.2074Y-4.3466
X5.2074Y-4.3761
X5.3058Y-0.9804
X5.3058Y-1.01
X5.3058Y-1.0395
X5.3058Y-1.069
X5.3058Y-2.634
X5.3058Y-2.6635
X5.3058Y-2.693
X5.3058Y-2.7226
X5.3058Y-4.2875
X5.3058Y-4.317
X5.3058Y-4.3466
X5.3058Y-4.3761
X6.0736Y-0.9804
X6.0736Y-1.01
X6.0736Y-1.0395
X6.0736Y-1.069
X6.0736Y-2.634
X6.0736Y-2.6635
X6.0736Y-2.693
X6.0736Y-2.7226
X6.0736Y-4.2875
X6.0736Y-4.317
X6.0736Y-4.3466
X6.0736Y-4.3761
X6.172Y-0.9804
X6.172Y-1.01
X6.172Y-1.0395
X6.172Y-1.069
X6.172Y-2.634
X6.172Y-2.6635
X6.172Y-2.693
X6.172Y-2.7226
X6.172Y-4.2875
X6.172Y-4.317
X6.172Y-4.3466
X6.172Y-4.3761
M30
