%TF.GenerationSoftware,KiCad,Pcbnew,8.0.8*%
%TF.CreationDate,2025-02-10T19:44:41+01:00*%
%TF.ProjectId,clarinoid-devboard,636c6172-696e-46f6-9964-2d646576626f,rev?*%
%TF.SameCoordinates,Original*%
%TF.FileFunction,Copper,L1,Top*%
%TF.FilePolarity,Positive*%
%FSLAX46Y46*%
G04 Gerber Fmt 4.6, Leading zero omitted, Abs format (unit mm)*
G04 Created by KiCad (PCBNEW 8.0.8) date 2025-02-10 19:44:41*
%MOMM*%
%LPD*%
G01*
G04 APERTURE LIST*
G04 Aperture macros list*
%AMFreePoly0*
4,1,11,5.000000,0.000000,-7.000000,-2.000000,5.000000,-4.000000,-7.000000,-6.000000,-13.000000,-6.000000,-1.000000,-4.000000,-13.000000,-2.000000,-1.000000,0.000000,-13.000000,2.000000,-7.000000,2.000000,5.000000,0.000000,5.000000,0.000000,$1*%
%AMFreePoly1*
4,1,13,5.500000,0.000000,-6.500000,-2.000000,5.500000,-4.000000,-6.500000,-6.000000,-12.500000,-6.000000,-0.500000,-4.000000,-12.500000,-2.000000,-0.757170,-0.042861,-0.762000,0.000000,-0.757170,0.042861,-12.500000,2.000000,-6.500000,2.000000,5.500000,0.000000,5.500000,0.000000,$1*%
%AMFreePoly2*
4,1,7,4.500000,0.000000,-12.500000,-4.000000,-18.000000,-4.000000,-1.000000,0.000000,-18.000000,4.000000,-12.500000,4.000000,4.500000,0.000000,4.500000,0.000000,$1*%
%AMFreePoly3*
4,1,11,4.500000,0.000000,-12.500000,-4.000000,4.500000,-8.000000,-12.500000,-12.000000,-18.000000,-12.000000,-1.000000,-8.000000,-18.000000,-4.000000,-1.000000,0.000000,-18.000000,4.000000,-12.500000,4.000000,4.500000,0.000000,4.500000,0.000000,$1*%
%AMFreePoly4*
4,1,11,4.500000,0.000000,-5.000000,-2.500000,4.500000,-5.000000,-5.000000,-7.500000,-10.500000,-7.500000,-1.000000,-5.000000,-10.500000,-2.500000,-1.000000,0.000000,-10.500000,2.500000,-5.000000,2.500000,4.500000,0.000000,4.500000,0.000000,$1*%
%AMFreePoly5*
4,1,11,4.000000,0.000000,-5.500000,-2.500000,4.000000,-5.000000,-5.500000,-7.500000,-11.000000,-7.500000,-1.500000,-5.000000,-11.000000,-2.500000,-1.500000,0.000000,-11.000000,2.500000,-5.500000,2.500000,4.000000,0.000000,4.000000,0.000000,$1*%
%AMFreePoly6*
4,1,9,4.500000,0.000000,-5.000000,-2.500000,4.500000,-5.000000,-1.000000,-5.000000,-10.500000,-2.500000,-1.000000,0.000000,-10.500000,2.500000,-5.000000,2.500000,4.500000,0.000000,4.500000,0.000000,$1*%
%AMFreePoly7*
4,1,9,4.000000,0.000000,-5.500000,-2.500000,4.000000,-5.000000,-1.500000,-5.000000,-11.000000,-2.500000,-1.500000,0.000000,-11.000000,2.500000,-5.500000,2.500000,4.000000,0.000000,4.000000,0.000000,$1*%
%AMFreePoly8*
4,1,7,4.000000,0.000000,-5.500000,-2.500000,-11.000000,-2.500000,-1.500000,0.000000,-11.000000,2.500000,-5.500000,2.500000,4.000000,0.000000,4.000000,0.000000,$1*%
%AMFreePoly9*
4,1,7,4.500000,0.000000,-5.000000,-2.500000,-10.500000,-2.500000,-1.000000,0.000000,-10.500000,2.500000,-5.000000,2.500000,4.500000,0.000000,4.500000,0.000000,$1*%
%AMFreePoly10*
4,1,9,2.121320,4.949747,2.121320,-2.121320,-4.949747,-2.121320,-4.949747,-9.192388,-8.485281,-5.656854,-8.485281,1.414214,-1.414214,1.414214,-1.414214,8.485281,2.121320,4.949747,2.121320,4.949747,$1*%
%AMFreePoly11*
4,1,11,6.000000,0.000000,-6.500000,-2.500000,6.000000,-5.000000,-6.500000,-7.500000,-14.000000,-7.500000,-1.500000,-5.000000,-14.000000,-2.500000,-1.500000,0.000000,-14.000000,2.500000,-6.500000,2.500000,6.000000,0.000000,6.000000,0.000000,$1*%
%AMFreePoly12*
4,1,11,5.000000,0.000000,-7.500000,-2.500000,5.000000,-5.000000,-7.500000,-7.500000,-15.000000,-7.500000,-2.500000,-5.000000,-15.000000,-2.500000,-2.500000,0.000000,-15.000000,2.500000,-7.500000,2.500000,5.000000,0.000000,5.000000,0.000000,$1*%
%AMFreePoly13*
4,1,11,5.500000,0.000000,-7.000000,-2.500000,5.500000,-5.000000,-7.000000,-7.500000,-14.500000,-7.500000,-2.000000,-5.000000,-14.500000,-2.500000,-2.000000,0.000000,-14.500000,2.500000,-7.000000,2.500000,5.500000,0.000000,5.500000,0.000000,$1*%
G04 Aperture macros list end*
%TA.AperFunction,SMDPad,CuDef*%
%ADD10C,0.500000*%
%TD*%
%TA.AperFunction,SMDPad,CuDef*%
%ADD11FreePoly0,270.000000*%
%TD*%
%TA.AperFunction,SMDPad,CuDef*%
%ADD12FreePoly1,270.000000*%
%TD*%
%TA.AperFunction,ComponentPad*%
%ADD13R,1.700000X1.700000*%
%TD*%
%TA.AperFunction,ComponentPad*%
%ADD14O,1.700000X1.700000*%
%TD*%
%TA.AperFunction,SMDPad,CuDef*%
%ADD15R,8.000000X8.000000*%
%TD*%
%TA.AperFunction,SMDPad,CuDef*%
%ADD16C,1.000000*%
%TD*%
%TA.AperFunction,SMDPad,CuDef*%
%ADD17FreePoly2,270.000000*%
%TD*%
%TA.AperFunction,SMDPad,CuDef*%
%ADD18FreePoly3,270.000000*%
%TD*%
%TA.AperFunction,SMDPad,CuDef*%
%ADD19FreePoly4,270.000000*%
%TD*%
%TA.AperFunction,SMDPad,CuDef*%
%ADD20FreePoly5,270.000000*%
%TD*%
%TA.AperFunction,SMDPad,CuDef*%
%ADD21FreePoly6,270.000000*%
%TD*%
%TA.AperFunction,SMDPad,CuDef*%
%ADD22FreePoly7,270.000000*%
%TD*%
%TA.AperFunction,SMDPad,CuDef*%
%ADD23FreePoly8,270.000000*%
%TD*%
%TA.AperFunction,SMDPad,CuDef*%
%ADD24FreePoly9,270.000000*%
%TD*%
%TA.AperFunction,SMDPad,CuDef*%
%ADD25FreePoly10,315.000000*%
%TD*%
%TA.AperFunction,SMDPad,CuDef*%
%ADD26FreePoly11,270.000000*%
%TD*%
%TA.AperFunction,SMDPad,CuDef*%
%ADD27FreePoly12,270.000000*%
%TD*%
%TA.AperFunction,SMDPad,CuDef*%
%ADD28FreePoly13,270.000000*%
%TD*%
%TA.AperFunction,ViaPad*%
%ADD29C,0.800000*%
%TD*%
%TA.AperFunction,Conductor*%
%ADD30C,0.200000*%
%TD*%
G04 APERTURE END LIST*
D10*
%TO.P,J6,1,Pin_1*%
%TO.N,Net-(J4-Pin_2)*%
X118978501Y-35277999D03*
D11*
X124478501Y-42277999D03*
D10*
%TO.P,J6,2,Pin_2*%
%TO.N,Net-(J4-Pin_3)*%
X118978501Y-44277999D03*
D11*
X124478501Y-51277999D03*
D10*
%TO.P,J6,3,Pin_3*%
%TO.N,Net-(J4-Pin_4)*%
X118978501Y-53277999D03*
D11*
X124478501Y-60277999D03*
D10*
%TO.P,J6,4,Pin_4*%
%TO.N,Net-(J4-Pin_5)*%
X118978501Y-62277999D03*
D12*
X124478501Y-68777999D03*
D10*
%TO.P,J6,5,Pin_5*%
%TO.N,Net-(J4-Pin_6)*%
X118978501Y-71277999D03*
D11*
X124478501Y-78277999D03*
D10*
%TO.P,J6,6,Pin_6*%
%TO.N,Net-(J5-Pin_6)*%
X118978501Y-80277999D03*
D11*
X124478501Y-87277999D03*
D10*
%TO.P,J6,7,Pin_7*%
%TO.N,Net-(J5-Pin_5)*%
X118978501Y-89277999D03*
D11*
X124478501Y-96277999D03*
D10*
%TO.P,J6,8,Pin_8*%
%TO.N,Net-(J5-Pin_4)*%
X118978501Y-98277999D03*
D12*
X124478501Y-104777999D03*
%TD*%
D13*
%TO.P,J14,1,Pin_1*%
%TO.N,GND*%
X41518501Y-18152999D03*
D14*
%TO.P,J14,2,Pin_2*%
%TO.N,Net-(J14-Pin_2)*%
X38978501Y-18152999D03*
%TO.P,J14,3,Pin_3*%
%TO.N,Net-(J14-Pin_3)*%
X36438501Y-18152999D03*
%TO.P,J14,4,Pin_4*%
%TO.N,Net-(J14-Pin_4)*%
X33898501Y-18152999D03*
%TO.P,J14,5,Pin_5*%
%TO.N,Net-(J14-Pin_5)*%
X31358501Y-18152999D03*
%TO.P,J14,6,Pin_6*%
%TO.N,Net-(J14-Pin_6)*%
X28818501Y-18152999D03*
%TD*%
D13*
%TO.P,J24,1,Pin_1*%
%TO.N,GND*%
X85518501Y-18152999D03*
D14*
%TO.P,J24,2,Pin_2*%
%TO.N,Net-(J24-Pin_2)*%
X82978501Y-18152999D03*
%TO.P,J24,3,Pin_3*%
%TO.N,Net-(J24-Pin_3)*%
X80438501Y-18152999D03*
%TO.P,J24,4,Pin_4*%
%TO.N,Net-(J24-Pin_4)*%
X77898501Y-18152999D03*
%TO.P,J24,5,Pin_5*%
%TO.N,Net-(J24-Pin_5)*%
X75358501Y-18152999D03*
%TO.P,J24,6,Pin_6*%
%TO.N,Net-(J24-Pin_6)*%
X72818501Y-18152999D03*
%TD*%
D13*
%TO.P,J18,1,Pin_1*%
%TO.N,GND*%
X63518501Y-118152999D03*
D14*
%TO.P,J18,2,Pin_2*%
%TO.N,Net-(J18-Pin_2)*%
X60978501Y-118152999D03*
%TO.P,J18,3,Pin_3*%
%TO.N,Net-(J18-Pin_3)*%
X58438501Y-118152999D03*
%TO.P,J18,4,Pin_4*%
%TO.N,Net-(J18-Pin_4)*%
X55898501Y-118152999D03*
%TO.P,J18,5,Pin_5*%
%TO.N,Net-(J18-Pin_5)*%
X53358501Y-118152999D03*
%TO.P,J18,6,Pin_6*%
%TO.N,Net-(J18-Pin_6)*%
X50818501Y-118152999D03*
%TD*%
D13*
%TO.P,J12,1,Pin_1*%
%TO.N,GND*%
X173518501Y-118152999D03*
D14*
%TO.P,J12,2,Pin_2*%
%TO.N,Net-(J12-Pin_2)*%
X170978501Y-118152999D03*
%TO.P,J12,3,Pin_3*%
%TO.N,Net-(J12-Pin_3)*%
X168438501Y-118152999D03*
%TO.P,J12,4,Pin_4*%
%TO.N,Net-(J12-Pin_4)*%
X165898501Y-118152999D03*
%TO.P,J12,5,Pin_5*%
%TO.N,Net-(J12-Pin_5)*%
X163358501Y-118152999D03*
%TO.P,J12,6,Pin_6*%
%TO.N,Net-(J12-Pin_6)*%
X160818501Y-118152999D03*
%TD*%
D13*
%TO.P,J5,1,Pin_1*%
%TO.N,GND*%
X129518501Y-118152999D03*
D14*
%TO.P,J5,2,Pin_2*%
%TO.N,unconnected-(J5-Pin_2-Pad2)*%
X126978501Y-118152999D03*
%TO.P,J5,3,Pin_3*%
%TO.N,unconnected-(J5-Pin_3-Pad3)*%
X124438501Y-118152999D03*
%TO.P,J5,4,Pin_4*%
%TO.N,Net-(J5-Pin_4)*%
X121898501Y-118152999D03*
%TO.P,J5,5,Pin_5*%
%TO.N,Net-(J5-Pin_5)*%
X119358501Y-118152999D03*
%TO.P,J5,6,Pin_6*%
%TO.N,Net-(J5-Pin_6)*%
X116818501Y-118152999D03*
%TD*%
D13*
%TO.P,J11,1,Pin_1*%
%TO.N,GND*%
X173518501Y-18152999D03*
D14*
%TO.P,J11,2,Pin_2*%
%TO.N,Net-(J11-Pin_2)*%
X170978501Y-18152999D03*
%TO.P,J11,3,Pin_3*%
%TO.N,Net-(J11-Pin_3)*%
X168438501Y-18152999D03*
%TO.P,J11,4,Pin_4*%
%TO.N,Net-(J11-Pin_4)*%
X165898501Y-18152999D03*
%TO.P,J11,5,Pin_5*%
%TO.N,Net-(J11-Pin_5)*%
X163358501Y-18152999D03*
%TO.P,J11,6,Pin_6*%
%TO.N,Net-(J11-Pin_6)*%
X160818501Y-18152999D03*
%TD*%
D15*
%TO.P,J23,1,Pin_1*%
%TO.N,Net-(J19-Pin_2)*%
X-11521499Y-27652999D03*
%TO.P,J23,2,Pin_2*%
%TO.N,Net-(J19-Pin_3)*%
X-7521499Y-36652999D03*
%TO.P,J23,3,Pin_3*%
%TO.N,Net-(J19-Pin_4)*%
X-11521499Y-45652999D03*
%TO.P,J23,4,Pin_4*%
%TO.N,Net-(J19-Pin_5)*%
X-7521499Y-54652999D03*
%TO.P,J23,5,Pin_5*%
%TO.N,Net-(J19-Pin_6)*%
X-11521499Y-63652999D03*
%TO.P,J23,6,Pin_6*%
%TO.N,Net-(J21-Pin_6)*%
X-7521499Y-72652999D03*
%TO.P,J23,7,Pin_7*%
%TO.N,Net-(J21-Pin_5)*%
X-11521499Y-81652999D03*
%TO.P,J23,8,Pin_8*%
%TO.N,Net-(J21-Pin_4)*%
X-7521499Y-90652999D03*
%TO.P,J23,9,Pin_9*%
%TO.N,Net-(J21-Pin_3)*%
X-11521499Y-99652999D03*
%TO.P,J23,10,Pin_10*%
%TO.N,Net-(J21-Pin_2)*%
X-7521499Y-108652999D03*
%TD*%
D16*
%TO.P,J10,1,Pin_1*%
%TO.N,Net-(J10-Pin_1)*%
X140853501Y-28777999D03*
D17*
X144353501Y-42277999D03*
D16*
%TO.P,J10,2,Pin_2*%
%TO.N,Net-(J10-Pin_2)*%
X140853501Y-36277999D03*
D17*
X144353501Y-49777999D03*
D16*
%TO.P,J10,3,Pin_3*%
%TO.N,Net-(J10-Pin_3)*%
X140853501Y-43777999D03*
D17*
X144353501Y-57277999D03*
D16*
%TO.P,J10,4,Pin_4*%
%TO.N,Net-(J10-Pin_4)*%
X140853501Y-51277999D03*
D17*
X144353501Y-64777999D03*
D16*
%TO.P,J10,5,Pin_5*%
%TO.N,Net-(J10-Pin_5)*%
X140853501Y-58777999D03*
D17*
X144353501Y-72277999D03*
D16*
%TO.P,J10,6,Pin_6*%
%TO.N,Net-(J10-Pin_6)*%
X140853501Y-66277999D03*
D17*
X144353501Y-79777999D03*
D16*
%TO.P,J10,7,Pin_7*%
%TO.N,Net-(J10-Pin_7)*%
X140853501Y-73777999D03*
D17*
X144353501Y-87277999D03*
D16*
%TO.P,J10,8,Pin_8*%
%TO.N,Net-(J10-Pin_8)*%
X140853501Y-81277999D03*
D17*
X144353501Y-94777999D03*
D16*
%TO.P,J10,9,Pin_9*%
%TO.N,Net-(J10-Pin_9)*%
X140853501Y-88777999D03*
D17*
X144353501Y-102277999D03*
D16*
%TO.P,J10,10,Pin_10*%
%TO.N,Net-(J10-Pin_10)*%
X140853501Y-96277999D03*
D17*
X144353501Y-109777999D03*
%TD*%
D13*
%TO.P,J9,1,Pin_1*%
%TO.N,GND*%
X-24481499Y-18152999D03*
D14*
%TO.P,J9,2,Pin_2*%
%TO.N,Net-(J20-Pin_1)*%
X-27021499Y-18152999D03*
%TO.P,J9,3,Pin_3*%
%TO.N,Net-(J20-Pin_2)*%
X-29561499Y-18152999D03*
%TO.P,J9,4,Pin_4*%
%TO.N,Net-(J20-Pin_3)*%
X-32101499Y-18152999D03*
%TO.P,J9,5,Pin_5*%
%TO.N,Net-(J20-Pin_4)*%
X-34641499Y-18152999D03*
%TO.P,J9,6,Pin_6*%
%TO.N,Net-(J20-Pin_5)*%
X-37181499Y-18152999D03*
%TD*%
D13*
%TO.P,J4,1,Pin_1*%
%TO.N,GND*%
X129518501Y-18152999D03*
D14*
%TO.P,J4,2,Pin_2*%
%TO.N,Net-(J4-Pin_2)*%
X126978501Y-18152999D03*
%TO.P,J4,3,Pin_3*%
%TO.N,Net-(J4-Pin_3)*%
X124438501Y-18152999D03*
%TO.P,J4,4,Pin_4*%
%TO.N,Net-(J4-Pin_4)*%
X121898501Y-18152999D03*
%TO.P,J4,5,Pin_5*%
%TO.N,Net-(J4-Pin_5)*%
X119358501Y-18152999D03*
%TO.P,J4,6,Pin_6*%
%TO.N,Net-(J4-Pin_6)*%
X116818501Y-18152999D03*
%TD*%
D13*
%TO.P,J19,1,Pin_1*%
%TO.N,GND*%
X-2481499Y-18152999D03*
D14*
%TO.P,J19,2,Pin_2*%
%TO.N,Net-(J19-Pin_2)*%
X-5021499Y-18152999D03*
%TO.P,J19,3,Pin_3*%
%TO.N,Net-(J19-Pin_3)*%
X-7561499Y-18152999D03*
%TO.P,J19,4,Pin_4*%
%TO.N,Net-(J19-Pin_4)*%
X-10101499Y-18152999D03*
%TO.P,J19,5,Pin_5*%
%TO.N,Net-(J19-Pin_5)*%
X-12641499Y-18152999D03*
%TO.P,J19,6,Pin_6*%
%TO.N,Net-(J19-Pin_6)*%
X-15181499Y-18152999D03*
%TD*%
D16*
%TO.P,J30,1,Pin_1*%
%TO.N,Net-(J11-Pin_2)*%
X159768501Y-28777999D03*
D18*
X171268501Y-42277999D03*
D16*
%TO.P,J30,2,Pin_2*%
%TO.N,Net-(J11-Pin_3)*%
X159768501Y-36277999D03*
D18*
X171268501Y-49777999D03*
D16*
%TO.P,J30,3,Pin_3*%
%TO.N,Net-(J11-Pin_4)*%
X159768501Y-43777999D03*
D18*
X171268501Y-57277999D03*
D16*
%TO.P,J30,4,Pin_4*%
%TO.N,Net-(J11-Pin_5)*%
X159768501Y-51277999D03*
D18*
X171268501Y-64777999D03*
D16*
%TO.P,J30,5,Pin_5*%
%TO.N,Net-(J11-Pin_6)*%
X159768501Y-58777999D03*
D18*
X171268501Y-72277999D03*
D16*
%TO.P,J30,6,Pin_6*%
%TO.N,Net-(J12-Pin_6)*%
X159768501Y-66277999D03*
D18*
X171268501Y-79777999D03*
D16*
%TO.P,J30,7,Pin_7*%
%TO.N,Net-(J12-Pin_5)*%
X159768501Y-73777999D03*
D18*
X171268501Y-87277999D03*
D16*
%TO.P,J30,8,Pin_8*%
%TO.N,Net-(J12-Pin_4)*%
X159768501Y-81277999D03*
D18*
X171268501Y-94777999D03*
D16*
%TO.P,J30,9,Pin_9*%
%TO.N,Net-(J12-Pin_3)*%
X159768501Y-88777999D03*
D18*
X171268501Y-102277999D03*
D16*
%TO.P,J30,10,Pin_10*%
%TO.N,Net-(J12-Pin_2)*%
X159768501Y-96277999D03*
D18*
X171268501Y-109777999D03*
%TD*%
D16*
%TO.P,J3,1,Pin_1*%
%TO.N,Net-(J1-Pin_2)*%
X98018501Y-34652999D03*
D19*
X105018501Y-41152999D03*
D16*
%TO.P,J3,2,Pin_2*%
%TO.N,Net-(J1-Pin_3)*%
X98018501Y-42152999D03*
D19*
X105018501Y-48652999D03*
D16*
%TO.P,J3,3,Pin_3*%
%TO.N,Net-(J1-Pin_4)*%
X98018501Y-49652999D03*
D20*
X105018501Y-56652999D03*
D16*
%TO.P,J3,4,Pin_4*%
%TO.N,Net-(J1-Pin_5)*%
X98018501Y-57152999D03*
D19*
X105018501Y-63652999D03*
D16*
%TO.P,J3,5,Pin_5*%
%TO.N,Net-(J1-Pin_6)*%
X98018501Y-64652999D03*
D19*
X105018501Y-71152999D03*
D16*
%TO.P,J3,6,Pin_6*%
%TO.N,Net-(J2-Pin_6)*%
X98018501Y-72152999D03*
D20*
X105018501Y-79152999D03*
D16*
%TO.P,J3,7,Pin_7*%
%TO.N,Net-(J2-Pin_5)*%
X98018501Y-79652999D03*
D19*
X105018501Y-86152999D03*
D16*
%TO.P,J3,8,Pin_8*%
%TO.N,Net-(J2-Pin_4)*%
X98018501Y-87152999D03*
D19*
X105018501Y-93652999D03*
D16*
%TO.P,J3,9,Pin_9*%
%TO.N,Net-(J2-Pin_3)*%
X98018501Y-94652999D03*
D19*
X105018501Y-101152999D03*
D16*
%TO.P,J3,10,Pin_10*%
%TO.N,Net-(J2-Pin_2)*%
X98018501Y-102152999D03*
D19*
X105018501Y-108652999D03*
%TD*%
D21*
%TO.P,J28,1,Pin_1*%
%TO.N,Net-(J24-Pin_2)*%
X79603501Y-41152999D03*
D16*
X75103501Y-41652999D03*
D21*
%TO.P,J28,2,Pin_2*%
%TO.N,Net-(J24-Pin_3)*%
X79603501Y-48652999D03*
D16*
X75103501Y-49152999D03*
D22*
%TO.P,J28,3,Pin_3*%
%TO.N,Net-(J24-Pin_4)*%
X79603501Y-56652999D03*
D16*
X75103501Y-56652999D03*
D21*
%TO.P,J28,4,Pin_4*%
%TO.N,Net-(J24-Pin_5)*%
X79603501Y-63652999D03*
D16*
X75103501Y-64152999D03*
D21*
%TO.P,J28,5,Pin_5*%
%TO.N,Net-(J24-Pin_6)*%
X79603501Y-71152999D03*
D16*
X75103501Y-71652999D03*
D22*
%TO.P,J28,6,Pin_6*%
%TO.N,Net-(J25-Pin_6)*%
X79603501Y-79152999D03*
D16*
X75103501Y-79152999D03*
D21*
%TO.P,J28,7,Pin_7*%
%TO.N,Net-(J25-Pin_5)*%
X79603501Y-86152999D03*
D16*
X75103501Y-86652999D03*
D21*
%TO.P,J28,8,Pin_8*%
%TO.N,Net-(J25-Pin_4)*%
X79603501Y-93652999D03*
D16*
X75103501Y-94152999D03*
D21*
%TO.P,J28,9,Pin_9*%
%TO.N,Net-(J25-Pin_3)*%
X79603501Y-101152999D03*
D16*
X75103501Y-101652999D03*
D21*
%TO.P,J28,10,Pin_10*%
%TO.N,Net-(J25-Pin_2)*%
X79603501Y-108652999D03*
D16*
X75103501Y-109152999D03*
%TD*%
%TO.P,J22,1,Pin_1*%
%TO.N,Net-(J17-Pin_2)*%
X54353501Y-31027999D03*
D23*
X56353501Y-38027999D03*
D16*
%TO.P,J22,2,Pin_2*%
%TO.N,Net-(J17-Pin_3)*%
X54353501Y-38527999D03*
D24*
X56353501Y-45027999D03*
D16*
%TO.P,J22,3,Pin_3*%
%TO.N,Net-(J17-Pin_4)*%
X54353501Y-46027999D03*
D24*
X56353501Y-52527999D03*
D16*
%TO.P,J22,4,Pin_4*%
%TO.N,Net-(J17-Pin_5)*%
X54353501Y-53527999D03*
D23*
X56353501Y-60527999D03*
D16*
%TO.P,J22,5,Pin_5*%
%TO.N,Net-(J17-Pin_6)*%
X54353501Y-61027999D03*
D23*
X56353501Y-68027999D03*
D16*
%TO.P,J22,6,Pin_6*%
%TO.N,Net-(J18-Pin_6)*%
X54353501Y-68527999D03*
D23*
X56353501Y-75527999D03*
D16*
%TO.P,J22,7,Pin_7*%
%TO.N,Net-(J18-Pin_5)*%
X54353501Y-76027999D03*
D23*
X56353501Y-83027999D03*
D16*
%TO.P,J22,8,Pin_8*%
%TO.N,Net-(J18-Pin_4)*%
X54353501Y-83527999D03*
D24*
X56353501Y-90027999D03*
D16*
%TO.P,J22,9,Pin_9*%
%TO.N,Net-(J18-Pin_3)*%
X54353501Y-91027999D03*
D24*
X56353501Y-97527999D03*
D16*
%TO.P,J22,10,Pin_10*%
%TO.N,Net-(J18-Pin_2)*%
X54353501Y-98527999D03*
D24*
X56353501Y-105027999D03*
%TD*%
D13*
%TO.P,J27,1,Pin_1*%
%TO.N,GND*%
X19518501Y-18152999D03*
D14*
%TO.P,J27,2,Pin_2*%
%TO.N,Net-(J27-Pin_2)*%
X16978501Y-18152999D03*
%TO.P,J27,3,Pin_3*%
%TO.N,Net-(J27-Pin_3)*%
X14438501Y-18152999D03*
%TO.P,J27,4,Pin_4*%
%TO.N,Net-(J27-Pin_4)*%
X11898501Y-18152999D03*
%TO.P,J27,5,Pin_5*%
%TO.N,Net-(J27-Pin_5)*%
X9358501Y-18152999D03*
%TO.P,J27,6,Pin_6*%
%TO.N,Net-(J27-Pin_6)*%
X6818501Y-18152999D03*
%TD*%
D13*
%TO.P,J13,1,Pin_1*%
%TO.N,GND*%
X-24481499Y-118152999D03*
D14*
%TO.P,J13,2,Pin_2*%
%TO.N,Net-(J13-Pin_2)*%
X-27021499Y-118152999D03*
%TO.P,J13,3,Pin_3*%
%TO.N,Net-(J13-Pin_3)*%
X-29561499Y-118152999D03*
%TO.P,J13,4,Pin_4*%
%TO.N,Net-(J13-Pin_4)*%
X-32101499Y-118152999D03*
%TO.P,J13,5,Pin_5*%
%TO.N,Net-(J13-Pin_5)*%
X-34641499Y-118152999D03*
%TO.P,J13,6,Pin_6*%
%TO.N,Net-(J13-Pin_6)*%
X-37181499Y-118152999D03*
%TD*%
D25*
%TO.P,J29,1,Pin_1*%
%TO.N,Net-(J27-Pin_2)*%
X15768501Y-42652999D03*
%TO.P,J29,2,Pin_2*%
%TO.N,Net-(J27-Pin_3)*%
X15768501Y-48152999D03*
%TO.P,J29,3,Pin_3*%
%TO.N,Net-(J27-Pin_4)*%
X15768501Y-53652999D03*
%TO.P,J29,4,Pin_4*%
%TO.N,Net-(J27-Pin_5)*%
X15768501Y-59152999D03*
%TO.P,J29,5,Pin_5*%
%TO.N,Net-(J27-Pin_6)*%
X15768501Y-64652999D03*
%TO.P,J29,6,Pin_6*%
%TO.N,Net-(J26-Pin_6)*%
X15768501Y-70152999D03*
%TO.P,J29,7,Pin_7*%
%TO.N,Net-(J26-Pin_5)*%
X15768501Y-75652999D03*
%TO.P,J29,8,Pin_8*%
%TO.N,Net-(J26-Pin_4)*%
X15768501Y-81152999D03*
%TO.P,J29,9,Pin_9*%
%TO.N,Net-(J26-Pin_3)*%
X15768502Y-86652999D03*
%TO.P,J29,10,Pin_10*%
%TO.N,Net-(J26-Pin_2)*%
X15768501Y-92152999D03*
%TD*%
D13*
%TO.P,J15,1,Pin_1*%
%TO.N,GND*%
X41518501Y-118152999D03*
D14*
%TO.P,J15,2,Pin_2*%
%TO.N,unconnected-(J15-Pin_2-Pad2)*%
X38978501Y-118152999D03*
%TO.P,J15,3,Pin_3*%
%TO.N,unconnected-(J15-Pin_3-Pad3)*%
X36438501Y-118152999D03*
%TO.P,J15,4,Pin_4*%
%TO.N,unconnected-(J15-Pin_4-Pad4)*%
X33898501Y-118152999D03*
%TO.P,J15,5,Pin_5*%
%TO.N,unconnected-(J15-Pin_5-Pad5)*%
X31358501Y-118152999D03*
%TO.P,J15,6,Pin_6*%
%TO.N,Net-(J15-Pin_6)*%
X28818501Y-118152999D03*
%TD*%
D13*
%TO.P,J21,1,Pin_1*%
%TO.N,GND*%
X-2481499Y-118152999D03*
D14*
%TO.P,J21,2,Pin_2*%
%TO.N,Net-(J21-Pin_2)*%
X-5021499Y-118152999D03*
%TO.P,J21,3,Pin_3*%
%TO.N,Net-(J21-Pin_3)*%
X-7561499Y-118152999D03*
%TO.P,J21,4,Pin_4*%
%TO.N,Net-(J21-Pin_4)*%
X-10101499Y-118152999D03*
%TO.P,J21,5,Pin_5*%
%TO.N,Net-(J21-Pin_5)*%
X-12641499Y-118152999D03*
%TO.P,J21,6,Pin_6*%
%TO.N,Net-(J21-Pin_6)*%
X-15181499Y-118152999D03*
%TD*%
D13*
%TO.P,J25,1,Pin_1*%
%TO.N,GND*%
X85518501Y-118152999D03*
D14*
%TO.P,J25,2,Pin_2*%
%TO.N,Net-(J25-Pin_2)*%
X82978501Y-118152999D03*
%TO.P,J25,3,Pin_3*%
%TO.N,Net-(J25-Pin_3)*%
X80438501Y-118152999D03*
%TO.P,J25,4,Pin_4*%
%TO.N,Net-(J25-Pin_4)*%
X77898501Y-118152999D03*
%TO.P,J25,5,Pin_5*%
%TO.N,Net-(J25-Pin_5)*%
X75358501Y-118152999D03*
%TO.P,J25,6,Pin_6*%
%TO.N,Net-(J25-Pin_6)*%
X72818501Y-118152999D03*
%TD*%
D13*
%TO.P,J7,1,Pin_1*%
%TO.N,GND*%
X151518501Y-18152999D03*
D14*
%TO.P,J7,2,Pin_2*%
%TO.N,Net-(J10-Pin_1)*%
X148978501Y-18152999D03*
%TO.P,J7,3,Pin_3*%
%TO.N,Net-(J10-Pin_2)*%
X146438501Y-18152999D03*
%TO.P,J7,4,Pin_4*%
%TO.N,Net-(J10-Pin_3)*%
X143898501Y-18152999D03*
%TO.P,J7,5,Pin_5*%
%TO.N,Net-(J10-Pin_4)*%
X141358501Y-18152999D03*
%TO.P,J7,6,Pin_6*%
%TO.N,Net-(J10-Pin_5)*%
X138818501Y-18152999D03*
%TD*%
D15*
%TO.P,J20,1,Pin_1*%
%TO.N,Net-(J20-Pin_1)*%
X-33521499Y-27652999D03*
%TO.P,J20,2,Pin_2*%
%TO.N,Net-(J20-Pin_2)*%
X-29521499Y-36652999D03*
%TO.P,J20,3,Pin_3*%
%TO.N,Net-(J20-Pin_3)*%
X-33521499Y-45652999D03*
%TO.P,J20,4,Pin_4*%
%TO.N,Net-(J20-Pin_4)*%
X-29521499Y-54652999D03*
%TO.P,J20,5,Pin_5*%
%TO.N,Net-(J20-Pin_5)*%
X-33521499Y-63652999D03*
%TO.P,J20,6,Pin_6*%
%TO.N,Net-(J13-Pin_6)*%
X-29521499Y-72652999D03*
%TO.P,J20,7,Pin_7*%
%TO.N,Net-(J13-Pin_5)*%
X-33521499Y-81652999D03*
%TO.P,J20,8,Pin_8*%
%TO.N,Net-(J13-Pin_4)*%
X-29521499Y-90652999D03*
%TO.P,J20,9,Pin_9*%
%TO.N,Net-(J13-Pin_3)*%
X-33521499Y-99652999D03*
%TO.P,J20,10,Pin_10*%
%TO.N,Net-(J13-Pin_2)*%
X-29521499Y-108652999D03*
%TD*%
D13*
%TO.P,J1,1,Pin_1*%
%TO.N,GND*%
X107518501Y-18152999D03*
D14*
%TO.P,J1,2,Pin_2*%
%TO.N,Net-(J1-Pin_2)*%
X104978501Y-18152999D03*
%TO.P,J1,3,Pin_3*%
%TO.N,Net-(J1-Pin_3)*%
X102438501Y-18152999D03*
%TO.P,J1,4,Pin_4*%
%TO.N,Net-(J1-Pin_4)*%
X99898501Y-18152999D03*
%TO.P,J1,5,Pin_5*%
%TO.N,Net-(J1-Pin_5)*%
X97358501Y-18152999D03*
%TO.P,J1,6,Pin_6*%
%TO.N,Net-(J1-Pin_6)*%
X94818501Y-18152999D03*
%TD*%
D13*
%TO.P,J26,1,Pin_1*%
%TO.N,GND*%
X19518501Y-118152999D03*
D14*
%TO.P,J26,2,Pin_2*%
%TO.N,Net-(J26-Pin_2)*%
X16978501Y-118152999D03*
%TO.P,J26,3,Pin_3*%
%TO.N,Net-(J26-Pin_3)*%
X14438501Y-118152999D03*
%TO.P,J26,4,Pin_4*%
%TO.N,Net-(J26-Pin_4)*%
X11898501Y-118152999D03*
%TO.P,J26,5,Pin_5*%
%TO.N,Net-(J26-Pin_5)*%
X9358501Y-118152999D03*
%TO.P,J26,6,Pin_6*%
%TO.N,Net-(J26-Pin_6)*%
X6818501Y-118152999D03*
%TD*%
D16*
%TO.P,J16,1,Pin_1*%
%TO.N,Net-(J14-Pin_2)*%
X31518501Y-36652999D03*
D26*
X38518501Y-44652999D03*
D16*
%TO.P,J16,2,Pin_2*%
%TO.N,Net-(J14-Pin_3)*%
X31518501Y-49152999D03*
D27*
X38518501Y-58152999D03*
D16*
%TO.P,J16,3,Pin_3*%
%TO.N,Net-(J14-Pin_4)*%
X31518501Y-61152999D03*
D26*
X38518501Y-69652999D03*
D16*
%TO.P,J16,4,Pin_4*%
%TO.N,Net-(J14-Pin_5)*%
X31518501Y-74152999D03*
D28*
X38518501Y-82652999D03*
D16*
%TO.P,J16,5,Pin_5*%
%TO.N,Net-(J14-Pin_6)*%
X31518501Y-86652999D03*
D26*
X38518501Y-94652999D03*
D16*
%TO.P,J16,6,Pin_6*%
%TO.N,Net-(J15-Pin_6)*%
X31518501Y-98652999D03*
D28*
X38518501Y-107652999D03*
%TD*%
D13*
%TO.P,J17,1,Pin_1*%
%TO.N,GND*%
X63518501Y-18152999D03*
D14*
%TO.P,J17,2,Pin_2*%
%TO.N,Net-(J17-Pin_2)*%
X60978501Y-18152999D03*
%TO.P,J17,3,Pin_3*%
%TO.N,Net-(J17-Pin_3)*%
X58438501Y-18152999D03*
%TO.P,J17,4,Pin_4*%
%TO.N,Net-(J17-Pin_4)*%
X55898501Y-18152999D03*
%TO.P,J17,5,Pin_5*%
%TO.N,Net-(J17-Pin_5)*%
X53358501Y-18152999D03*
%TO.P,J17,6,Pin_6*%
%TO.N,Net-(J17-Pin_6)*%
X50818501Y-18152999D03*
%TD*%
D13*
%TO.P,J2,1,Pin_1*%
%TO.N,GND*%
X107518501Y-118152999D03*
D14*
%TO.P,J2,2,Pin_2*%
%TO.N,Net-(J2-Pin_2)*%
X104978501Y-118152999D03*
%TO.P,J2,3,Pin_3*%
%TO.N,Net-(J2-Pin_3)*%
X102438501Y-118152999D03*
%TO.P,J2,4,Pin_4*%
%TO.N,Net-(J2-Pin_4)*%
X99898501Y-118152999D03*
%TO.P,J2,5,Pin_5*%
%TO.N,Net-(J2-Pin_5)*%
X97358501Y-118152999D03*
%TO.P,J2,6,Pin_6*%
%TO.N,Net-(J2-Pin_6)*%
X94818501Y-118152999D03*
%TD*%
D13*
%TO.P,J8,1,Pin_1*%
%TO.N,GND*%
X151518501Y-118152999D03*
D14*
%TO.P,J8,2,Pin_2*%
%TO.N,Net-(J10-Pin_10)*%
X148978501Y-118152999D03*
%TO.P,J8,3,Pin_3*%
%TO.N,Net-(J10-Pin_9)*%
X146438501Y-118152999D03*
%TO.P,J8,4,Pin_4*%
%TO.N,Net-(J10-Pin_8)*%
X143898501Y-118152999D03*
%TO.P,J8,5,Pin_5*%
%TO.N,Net-(J10-Pin_7)*%
X141358501Y-118152999D03*
%TO.P,J8,6,Pin_6*%
%TO.N,Net-(J10-Pin_6)*%
X138818501Y-118152999D03*
%TD*%
D29*
%TO.N,Net-(J20-Pin_5)*%
X-33521499Y-63652999D03*
%TO.N,Net-(J20-Pin_4)*%
X-29521499Y-54652999D03*
%TO.N,Net-(J20-Pin_3)*%
X-33521499Y-45652999D03*
%TO.N,Net-(J20-Pin_2)*%
X-29521499Y-36652999D03*
%TO.N,Net-(J13-Pin_3)*%
X-33521499Y-99652999D03*
%TO.N,Net-(J13-Pin_5)*%
X-33521499Y-81652999D03*
%TO.N,Net-(J13-Pin_4)*%
X-29521499Y-90652999D03*
%TO.N,Net-(J14-Pin_6)*%
X29768501Y-84902999D03*
%TO.N,Net-(J14-Pin_5)*%
X29768501Y-72152999D03*
%TO.N,Net-(J14-Pin_3)*%
X29768501Y-47652999D03*
%TO.N,Net-(J14-Pin_4)*%
X29768501Y-59652999D03*
%TO.N,Net-(J17-Pin_4)*%
X53018501Y-45152999D03*
%TO.N,Net-(J17-Pin_5)*%
X53018501Y-52902999D03*
%TO.N,Net-(J17-Pin_3)*%
X53018501Y-38152999D03*
%TO.N,Net-(J17-Pin_6)*%
X53018501Y-60652999D03*
%TO.N,Net-(J18-Pin_4)*%
X53018501Y-82652999D03*
%TO.N,Net-(J18-Pin_5)*%
X53018501Y-75152999D03*
%TO.N,Net-(J18-Pin_3)*%
X53018501Y-90152999D03*
%TO.N,Net-(J5-Pin_5)*%
X116518501Y-86652999D03*
%TO.N,Net-(J19-Pin_3)*%
X-12981499Y-35902999D03*
%TO.N,Net-(J19-Pin_4)*%
X-16731499Y-44652999D03*
%TO.N,Net-(J19-Pin_5)*%
X-17481499Y-53902999D03*
%TO.N,Net-(J19-Pin_6)*%
X-17231499Y-62902999D03*
%TO.N,Net-(J21-Pin_3)*%
X-16231499Y-99652999D03*
%TO.N,Net-(J21-Pin_4)*%
X-16231499Y-91902999D03*
%TO.N,Net-(J24-Pin_5)*%
X73018501Y-64152999D03*
%TO.N,Net-(J24-Pin_4)*%
X73018501Y-56652999D03*
%TO.N,Net-(J24-Pin_6)*%
X73018501Y-71652999D03*
%TO.N,Net-(J24-Pin_3)*%
X73018501Y-49152999D03*
%TO.N,Net-(J25-Pin_3)*%
X73018501Y-101652999D03*
%TO.N,Net-(J25-Pin_4)*%
X73018501Y-94152999D03*
%TO.N,Net-(J25-Pin_5)*%
X73018501Y-86652999D03*
%TO.N,Net-(J26-Pin_4)*%
X5018501Y-81652999D03*
%TO.N,Net-(J26-Pin_5)*%
X4768501Y-76152999D03*
%TO.N,Net-(J26-Pin_3)*%
X5268501Y-87152999D03*
%TO.N,Net-(J26-Pin_6)*%
X5018501Y-70652999D03*
%TO.N,Net-(J27-Pin_3)*%
X5018501Y-48152999D03*
%TO.N,Net-(J27-Pin_4)*%
X5018501Y-53902999D03*
%TO.N,Net-(J27-Pin_5)*%
X5018501Y-59652999D03*
%TO.N,Net-(J1-Pin_3)*%
X95518501Y-42152999D03*
%TO.N,Net-(J1-Pin_4)*%
X95518501Y-49652999D03*
%TO.N,Net-(J1-Pin_6)*%
X95518501Y-64652999D03*
%TO.N,Net-(J1-Pin_5)*%
X95518501Y-57152999D03*
%TO.N,Net-(J2-Pin_4)*%
X95518501Y-87152999D03*
%TO.N,Net-(J2-Pin_5)*%
X95518501Y-79652999D03*
%TO.N,Net-(J2-Pin_3)*%
X95518501Y-94652999D03*
%TO.N,Net-(J4-Pin_5)*%
X116518501Y-59652999D03*
%TO.N,Net-(J4-Pin_6)*%
X116518501Y-68652999D03*
%TO.N,Net-(J4-Pin_3)*%
X116518501Y-41652999D03*
%TO.N,Net-(J4-Pin_4)*%
X116518501Y-50652999D03*
%TO.N,Net-(J10-Pin_4)*%
X138518501Y-49152999D03*
%TO.N,Net-(J10-Pin_5)*%
X138518501Y-56152999D03*
%TO.N,Net-(J10-Pin_6)*%
X138518501Y-64652999D03*
%TO.N,Net-(J10-Pin_2)*%
X138518501Y-34652999D03*
%TO.N,Net-(J10-Pin_3)*%
X138518501Y-41152999D03*
%TO.N,Net-(J10-Pin_9)*%
X138518501Y-87152999D03*
%TO.N,Net-(J10-Pin_8)*%
X138518501Y-79652999D03*
%TO.N,Net-(J10-Pin_7)*%
X138518501Y-71652999D03*
%TO.N,Net-(J11-Pin_6)*%
X158018501Y-56652999D03*
%TO.N,Net-(J11-Pin_3)*%
X158518501Y-36027999D03*
%TO.N,Net-(J11-Pin_4)*%
X158518501Y-40652999D03*
%TO.N,Net-(J11-Pin_5)*%
X157768501Y-49402999D03*
%TO.N,Net-(J12-Pin_4)*%
X158331001Y-79840499D03*
%TO.N,Net-(J12-Pin_3)*%
X158518501Y-87652999D03*
%TO.N,Net-(J12-Pin_5)*%
X158018501Y-72652999D03*
%TO.N,Net-(J21-Pin_5)*%
X-17731499Y-84152999D03*
%TO.N,Net-(J2-Pin_6)*%
X95518501Y-72152999D03*
%TO.N,Net-(J5-Pin_6)*%
X116518501Y-77652999D03*
%TO.N,Net-(J12-Pin_6)*%
X158018501Y-64652999D03*
%TO.N,Net-(J13-Pin_6)*%
X-29521499Y-72652999D03*
%TO.N,Net-(J18-Pin_6)*%
X53018501Y-67652999D03*
%TO.N,Net-(J21-Pin_6)*%
X-12731499Y-75152999D03*
%TO.N,Net-(J25-Pin_6)*%
X73018501Y-79152999D03*
%TO.N,Net-(J27-Pin_6)*%
X4768501Y-64902999D03*
%TD*%
D30*
%TO.N,Net-(J13-Pin_2)*%
X-27021499Y-111152999D02*
X-27021499Y-118152999D01*
X-29521499Y-108652999D02*
X-27021499Y-111152999D01*
%TO.N,Net-(J14-Pin_6)*%
X29768501Y-84902999D02*
X31518501Y-86652999D01*
%TO.N,Net-(J14-Pin_5)*%
X29768501Y-72152999D02*
X29768501Y-72402999D01*
X29768501Y-72402999D02*
X31518501Y-74152999D01*
%TO.N,Net-(J14-Pin_2)*%
X38518501Y-44652999D02*
X38518501Y-18612999D01*
X38518501Y-18612999D02*
X38978501Y-18152999D01*
%TO.N,Net-(J14-Pin_3)*%
X29768501Y-47652999D02*
X30018501Y-47652999D01*
X30018501Y-47652999D02*
X31518501Y-49152999D01*
%TO.N,Net-(J14-Pin_4)*%
X30018501Y-59652999D02*
X31518501Y-61152999D01*
X29768501Y-59652999D02*
X30018501Y-59652999D01*
%TO.N,Net-(J17-Pin_4)*%
X53893501Y-46027999D02*
X54353501Y-46027999D01*
X53018501Y-45152999D02*
X53893501Y-46027999D01*
%TO.N,Net-(J17-Pin_2)*%
X56353501Y-22777999D02*
X60978501Y-18152999D01*
X56353501Y-38027999D02*
X56353501Y-22777999D01*
%TO.N,Net-(J17-Pin_5)*%
X53018501Y-52902999D02*
X53643501Y-53527999D01*
X53643501Y-53527999D02*
X54353501Y-53527999D01*
%TO.N,Net-(J17-Pin_3)*%
X53018501Y-38152999D02*
X53978501Y-38152999D01*
X53978501Y-38152999D02*
X54353501Y-38527999D01*
%TO.N,Net-(J17-Pin_6)*%
X53018501Y-60652999D02*
X53393501Y-61027999D01*
X53393501Y-61027999D02*
X54353501Y-61027999D01*
%TO.N,Net-(J18-Pin_2)*%
X56353501Y-113527999D02*
X60978501Y-118152999D01*
X56353501Y-105027999D02*
X56353501Y-113527999D01*
%TO.N,Net-(J18-Pin_4)*%
X53893501Y-83527999D02*
X54353501Y-83527999D01*
X53018501Y-82652999D02*
X53893501Y-83527999D01*
%TO.N,Net-(J18-Pin_5)*%
X53893501Y-76027999D02*
X54353501Y-76027999D01*
X53018501Y-75152999D02*
X53893501Y-76027999D01*
%TO.N,Net-(J18-Pin_3)*%
X53018501Y-90152999D02*
X53893501Y-91027999D01*
X53893501Y-91027999D02*
X54353501Y-91027999D01*
%TO.N,Net-(J5-Pin_5)*%
X116518501Y-86652999D02*
X116518501Y-86817999D01*
X116518501Y-86817999D02*
X118978501Y-89277999D01*
%TO.N,Net-(J19-Pin_2)*%
X-11521499Y-27652999D02*
X-7981499Y-27652999D01*
X-7981499Y-27652999D02*
X-5021499Y-24692999D01*
X-5021499Y-24692999D02*
X-5021499Y-18152999D01*
%TO.N,Net-(J19-Pin_3)*%
X-12981499Y-35902999D02*
X-12231499Y-36652999D01*
X-12231499Y-36652999D02*
X-7521499Y-36652999D01*
%TO.N,Net-(J19-Pin_4)*%
X-16731499Y-44652999D02*
X-15731499Y-45652999D01*
X-15731499Y-45652999D02*
X-11521499Y-45652999D01*
%TO.N,Net-(J19-Pin_5)*%
X-17481499Y-53902999D02*
X-16731499Y-54652999D01*
X-16731499Y-54652999D02*
X-7521499Y-54652999D01*
%TO.N,Net-(J19-Pin_6)*%
X-16481499Y-63652999D02*
X-11521499Y-63652999D01*
X-17231499Y-62902999D02*
X-16481499Y-63652999D01*
%TO.N,Net-(J21-Pin_2)*%
X-5021499Y-111152999D02*
X-5021499Y-118152999D01*
X-7521499Y-108652999D02*
X-5021499Y-111152999D01*
%TO.N,Net-(J21-Pin_3)*%
X-16231499Y-99652999D02*
X-11521499Y-99652999D01*
%TO.N,Net-(J21-Pin_4)*%
X-14981499Y-90652999D02*
X-7521499Y-90652999D01*
X-16231499Y-91902999D02*
X-14981499Y-90652999D01*
%TO.N,Net-(J24-Pin_5)*%
X73018501Y-64152999D02*
X75103501Y-64152999D01*
%TO.N,Net-(J24-Pin_4)*%
X73018501Y-56652999D02*
X75103501Y-56652999D01*
%TO.N,Net-(J24-Pin_6)*%
X73018501Y-71652999D02*
X75103501Y-71652999D01*
%TO.N,Net-(J24-Pin_2)*%
X79603501Y-21527999D02*
X82978501Y-18152999D01*
X79603501Y-41152999D02*
X79603501Y-21527999D01*
%TO.N,Net-(J24-Pin_3)*%
X73018501Y-49152999D02*
X75103501Y-49152999D01*
%TO.N,Net-(J25-Pin_3)*%
X73018501Y-101652999D02*
X75103501Y-101652999D01*
%TO.N,Net-(J25-Pin_4)*%
X73018501Y-94152999D02*
X75103501Y-94152999D01*
%TO.N,Net-(J25-Pin_2)*%
X79603501Y-108652999D02*
X79603501Y-114777999D01*
X79603501Y-114777999D02*
X82978501Y-118152999D01*
%TO.N,Net-(J25-Pin_5)*%
X73018501Y-86652999D02*
X75103501Y-86652999D01*
%TO.N,Net-(J26-Pin_4)*%
X13668501Y-79052999D02*
X15768501Y-81152999D01*
X8627078Y-81152999D02*
X10727078Y-79052999D01*
X5518501Y-81152999D02*
X8627078Y-81152999D01*
X5018501Y-81652999D02*
X5518501Y-81152999D01*
X10727078Y-79052999D02*
X13668501Y-79052999D01*
%TO.N,Net-(J26-Pin_5)*%
X9127078Y-75152999D02*
X10727078Y-73552999D01*
X5768501Y-75152999D02*
X9127078Y-75152999D01*
X4768501Y-76152999D02*
X5768501Y-75152999D01*
X13668501Y-73552999D02*
X15768501Y-75652999D01*
X10727078Y-73552999D02*
X13668501Y-73552999D01*
%TO.N,Net-(J26-Pin_3)*%
X13668502Y-84552999D02*
X15768502Y-86652999D01*
X8018501Y-86652999D02*
X8627079Y-86652999D01*
X5268501Y-87152999D02*
X7518501Y-87152999D01*
X10727079Y-84552999D02*
X13668502Y-84552999D01*
X7518501Y-87152999D02*
X8018501Y-86652999D01*
X8627079Y-86652999D02*
X10727079Y-84552999D01*
%TO.N,Net-(J26-Pin_6)*%
X5018501Y-70652999D02*
X5518501Y-70152999D01*
X8627078Y-70152999D02*
X10727078Y-68052999D01*
X5518501Y-70152999D02*
X8627078Y-70152999D01*
X13668501Y-68052999D02*
X15768501Y-70152999D01*
X10727078Y-68052999D02*
X13668501Y-68052999D01*
%TO.N,Net-(J26-Pin_2)*%
X17868501Y-90052999D02*
X20809922Y-90052999D01*
X20868500Y-114263000D02*
X16978501Y-118152999D01*
X15768501Y-92152999D02*
X17868501Y-90052999D01*
X20868500Y-90111577D02*
X20868500Y-114263000D01*
X20809922Y-90052999D02*
X20868500Y-90111577D01*
%TO.N,Net-(J27-Pin_3)*%
X5018501Y-48152999D02*
X8627078Y-48152999D01*
X8627078Y-48152999D02*
X10727078Y-46052999D01*
X13668501Y-46052999D02*
X15768501Y-48152999D01*
X10727078Y-46052999D02*
X13668501Y-46052999D01*
%TO.N,Net-(J27-Pin_4)*%
X13668501Y-51552999D02*
X15768501Y-53652999D01*
X5018501Y-53902999D02*
X7368501Y-51552999D01*
X7368501Y-51552999D02*
X13668501Y-51552999D01*
%TO.N,Net-(J27-Pin_5)*%
X6118501Y-57052999D02*
X13668501Y-57052999D01*
X5018501Y-59652999D02*
X5018501Y-58152999D01*
X13668501Y-57052999D02*
X15768501Y-59152999D01*
X5018501Y-58152999D02*
X6118501Y-57052999D01*
%TO.N,Net-(J27-Pin_2)*%
X20868501Y-37552999D02*
X20868501Y-22042999D01*
X15768501Y-42652999D02*
X20868501Y-37552999D01*
X20868501Y-22042999D02*
X16978501Y-18152999D01*
%TO.N,Net-(J10-Pin_1)*%
X144353501Y-42277999D02*
X144353501Y-22777999D01*
X144353501Y-22777999D02*
X148978501Y-18152999D01*
%TO.N,Net-(J20-Pin_1)*%
X-27021499Y-24942999D02*
X-27021499Y-18152999D01*
X-33521499Y-27652999D02*
X-29731499Y-27652999D01*
X-29731499Y-27652999D02*
X-27021499Y-24942999D01*
%TO.N,Net-(J1-Pin_2)*%
X105018501Y-18192999D02*
X104978501Y-18152999D01*
X105018501Y-41152999D02*
X105018501Y-18192999D01*
%TO.N,Net-(J1-Pin_3)*%
X95518501Y-42152999D02*
X98018501Y-42152999D01*
%TO.N,Net-(J1-Pin_4)*%
X95518501Y-49652999D02*
X98018501Y-49652999D01*
%TO.N,Net-(J1-Pin_6)*%
X95518501Y-64652999D02*
X98018501Y-64652999D01*
%TO.N,Net-(J1-Pin_5)*%
X95518501Y-57152999D02*
X98018501Y-57152999D01*
%TO.N,Net-(J2-Pin_4)*%
X95518501Y-87152999D02*
X98018501Y-87152999D01*
%TO.N,Net-(J2-Pin_5)*%
X95518501Y-79652999D02*
X98018501Y-79652999D01*
%TO.N,Net-(J2-Pin_3)*%
X95518501Y-94652999D02*
X98018501Y-94652999D01*
%TO.N,Net-(J2-Pin_2)*%
X105018501Y-118112999D02*
X104978501Y-118152999D01*
X105018501Y-108652999D02*
X105018501Y-118112999D01*
%TO.N,Net-(J4-Pin_2)*%
X124478501Y-42277999D02*
X124478501Y-20652999D01*
X124478501Y-20652999D02*
X126978501Y-18152999D01*
%TO.N,Net-(J4-Pin_5)*%
X116518501Y-59652999D02*
X116518501Y-59817999D01*
X116518501Y-59817999D02*
X118978501Y-62277999D01*
%TO.N,Net-(J4-Pin_6)*%
X116518501Y-68652999D02*
X116518501Y-68817999D01*
X116518501Y-68817999D02*
X118978501Y-71277999D01*
%TO.N,Net-(J4-Pin_3)*%
X116518501Y-41817999D02*
X118978501Y-44277999D01*
X116518501Y-41652999D02*
X116518501Y-41817999D01*
%TO.N,Net-(J4-Pin_4)*%
X116518501Y-50817999D02*
X118978501Y-53277999D01*
X116518501Y-50652999D02*
X116518501Y-50817999D01*
%TO.N,Net-(J5-Pin_4)*%
X124478501Y-104777999D02*
X124478501Y-115572999D01*
X124478501Y-115572999D02*
X121898501Y-118152999D01*
%TO.N,Net-(J10-Pin_4)*%
X138728501Y-49152999D02*
X140853501Y-51277999D01*
X138518501Y-49152999D02*
X138728501Y-49152999D01*
%TO.N,Net-(J10-Pin_5)*%
X138518501Y-56442999D02*
X140853501Y-58777999D01*
X138518501Y-56152999D02*
X138518501Y-56442999D01*
%TO.N,Net-(J10-Pin_6)*%
X138518501Y-64652999D02*
X140143501Y-66277999D01*
X140143501Y-66277999D02*
X140853501Y-66277999D01*
%TO.N,Net-(J10-Pin_2)*%
X138518501Y-34652999D02*
X140143501Y-36277999D01*
X140143501Y-36277999D02*
X140853501Y-36277999D01*
%TO.N,Net-(J10-Pin_3)*%
X138518501Y-41152999D02*
X138518501Y-41442999D01*
X138518501Y-41442999D02*
X140853501Y-43777999D01*
%TO.N,Net-(J10-Pin_9)*%
X138518501Y-87152999D02*
X140143501Y-88777999D01*
X140143501Y-88777999D02*
X140853501Y-88777999D01*
%TO.N,Net-(J10-Pin_8)*%
X140143501Y-81277999D02*
X140853501Y-81277999D01*
X138518501Y-79652999D02*
X140143501Y-81277999D01*
%TO.N,Net-(J10-Pin_7)*%
X138728501Y-71652999D02*
X140853501Y-73777999D01*
X138518501Y-71652999D02*
X138728501Y-71652999D01*
%TO.N,Net-(J10-Pin_10)*%
X144353501Y-109777999D02*
X148978501Y-114402999D01*
X148978501Y-114402999D02*
X148978501Y-118152999D01*
%TO.N,Net-(J11-Pin_6)*%
X158018501Y-56652999D02*
X158018501Y-57027999D01*
X158018501Y-57027999D02*
X159768501Y-58777999D01*
%TO.N,Net-(J11-Pin_3)*%
X158518501Y-36027999D02*
X158768501Y-36277999D01*
X158768501Y-36277999D02*
X159768501Y-36277999D01*
%TO.N,Net-(J11-Pin_4)*%
X158518501Y-40652999D02*
X158518501Y-42527999D01*
X158518501Y-42527999D02*
X159768501Y-43777999D01*
%TO.N,Net-(J11-Pin_5)*%
X157893501Y-49402999D02*
X159768501Y-51277999D01*
X157768501Y-49402999D02*
X157893501Y-49402999D01*
%TO.N,Net-(J11-Pin_2)*%
X171268501Y-42277999D02*
X171268501Y-18442999D01*
X171268501Y-18442999D02*
X170978501Y-18152999D01*
%TO.N,Net-(J12-Pin_4)*%
X158331001Y-79840499D02*
X159768501Y-81277999D01*
%TO.N,Net-(J12-Pin_3)*%
X158518501Y-87652999D02*
X158643501Y-87652999D01*
X158643501Y-87652999D02*
X159768501Y-88777999D01*
%TO.N,Net-(J12-Pin_5)*%
X158643501Y-72652999D02*
X159768501Y-73777999D01*
X158018501Y-72652999D02*
X158643501Y-72652999D01*
%TO.N,Net-(J12-Pin_2)*%
X171268501Y-117862999D02*
X170978501Y-118152999D01*
X171268501Y-109777999D02*
X171268501Y-117862999D01*
%TO.N,Net-(J21-Pin_5)*%
X-17731499Y-84152999D02*
X-15231499Y-81652999D01*
X-15231499Y-81652999D02*
X-11521499Y-81652999D01*
%TO.N,Net-(J2-Pin_6)*%
X95518501Y-72152999D02*
X98018501Y-72152999D01*
%TO.N,Net-(J5-Pin_6)*%
X116518501Y-77817999D02*
X118978501Y-80277999D01*
X116518501Y-77652999D02*
X116518501Y-77817999D01*
%TO.N,Net-(J12-Pin_6)*%
X158143501Y-64652999D02*
X159768501Y-66277999D01*
X158018501Y-64652999D02*
X158143501Y-64652999D01*
%TO.N,Net-(J15-Pin_6)*%
X38518501Y-107652999D02*
X28818501Y-117352999D01*
X28818501Y-117352999D02*
X28818501Y-118152999D01*
%TO.N,Net-(J18-Pin_6)*%
X53018501Y-67652999D02*
X53893501Y-68527999D01*
X53893501Y-68527999D02*
X54353501Y-68527999D01*
%TO.N,Net-(J21-Pin_6)*%
X-12731499Y-75152999D02*
X-10231499Y-72652999D01*
X-10231499Y-72652999D02*
X-7521499Y-72652999D01*
%TO.N,Net-(J25-Pin_6)*%
X73018501Y-79152999D02*
X75103501Y-79152999D01*
%TO.N,Net-(J27-Pin_6)*%
X4768501Y-64902999D02*
X5268501Y-64402999D01*
X10727078Y-62552999D02*
X13668501Y-62552999D01*
X5268501Y-64402999D02*
X8877078Y-64402999D01*
X8877078Y-64402999D02*
X10727078Y-62552999D01*
X13668501Y-62552999D02*
X15768501Y-64652999D01*
%TD*%
M02*
