M48
; DRILL file {KiCad 8.0.8} date 2025-02-10T19:44:41+0100
; FORMAT={-:-/ absolute / inch / decimal}
; #@! TF.CreationDate,2025-02-10T19:44:41+01:00
; #@! TF.GenerationSoftware,Kicad,Pcbnew,8.0.8
; #@! TF.FileFunction,Plated,1,2,PTH
FMAT,2
INCH
; #@! TA.AperFunction,Plated,PTH,ViaDrill
T1C0.0157
; #@! TA.AperFunction,Plated,PTH,ComponentDrill
T2C0.0394
%
G90
G05
T1
X-1.3197Y-1.7974
X-1.3197Y-2.506
X-1.3197Y-3.2147
X-1.3197Y-3.9233
X-1.1623Y-1.443
X-1.1623Y-2.1517
X-1.1623Y-2.8604
X-1.1623Y-3.569
X-0.6981Y-3.3131
X-0.6882Y-2.1222
X-0.6784Y-2.4765
X-0.6587Y-1.758
X-0.639Y-3.6182
X-0.639Y-3.9233
X-0.5111Y-1.4135
X-0.5012Y-2.9588
X0.1877Y-2.5552
X0.1877Y-2.9981
X0.1976Y-1.8958
X0.1976Y-2.1222
X0.1976Y-2.3485
X0.1976Y-2.7816
X0.1976Y-3.2147
X0.2074Y-3.4312
X1.172Y-1.8761
X1.172Y-2.3485
X1.172Y-2.8407
X1.172Y-3.3426
X2.0873Y-1.5021
X2.0873Y-1.7777
X2.0873Y-2.0828
X2.0873Y-2.3879
X2.0873Y-2.6635
X2.0873Y-2.9588
X2.0873Y-3.2541
X2.0873Y-3.5493
X2.8747Y-1.9352
X2.8747Y-2.2304
X2.8747Y-2.5257
X2.8747Y-2.821
X2.8747Y-3.1163
X2.8747Y-3.4115
X2.8747Y-3.7068
X2.8747Y-4.0021
X3.7606Y-1.6596
X3.7606Y-1.9548
X3.7606Y-2.2501
X3.7606Y-2.5454
X3.7606Y-2.8407
X3.7606Y-3.1359
X3.7606Y-3.4312
X3.7606Y-3.7265
X4.5873Y-1.6399
X4.5873Y-1.9942
X4.5873Y-2.3485
X4.5873Y-2.7029
X4.5873Y-3.0572
X4.5873Y-3.4115
X5.4535Y-1.3643
X5.4535Y-1.6202
X5.4535Y-1.9352
X5.4535Y-2.2107
X5.4535Y-2.5454
X5.4535Y-2.821
X5.4535Y-3.1359
X5.4535Y-3.4312
X6.2114Y-1.945
X6.2212Y-2.2304
X6.2212Y-2.5454
X6.2212Y-2.8604
X6.2335Y-3.1433
X6.2409Y-1.4184
X6.2409Y-1.6005
X6.2409Y-3.4509
T2
X-1.4638Y-0.7147
X-1.4638Y-4.6517
X-1.3638Y-0.7147
X-1.3638Y-4.6517
X-1.2638Y-0.7147
X-1.2638Y-4.6517
X-1.1638Y-0.7147
X-1.1638Y-4.6517
X-1.0638Y-0.7147
X-1.0638Y-4.6517
X-0.9638Y-0.7147
X-0.9638Y-4.6517
X-0.5977Y-0.7147
X-0.5977Y-4.6517
X-0.4977Y-0.7147
X-0.4977Y-4.6517
X-0.3977Y-0.7147
X-0.3977Y-4.6517
X-0.2977Y-0.7147
X-0.2977Y-4.6517
X-0.1977Y-0.7147
X-0.1977Y-4.6517
X-0.0977Y-0.7147
X-0.0977Y-4.6517
X0.2684Y-0.7147
X0.2684Y-4.6517
X0.3684Y-0.7147
X0.3684Y-4.6517
X0.4684Y-0.7147
X0.4684Y-4.6517
X0.5684Y-0.7147
X0.5684Y-4.6517
X0.6684Y-0.7147
X0.6684Y-4.6517
X0.7684Y-0.7147
X0.7684Y-4.6517
X1.1346Y-0.7147
X1.1346Y-4.6517
X1.2346Y-0.7147
X1.2346Y-4.6517
X1.3346Y-0.7147
X1.3346Y-4.6517
X1.4346Y-0.7147
X1.4346Y-4.6517
X1.5346Y-0.7147
X1.5346Y-4.6517
X1.6346Y-0.7147
X1.6346Y-4.6517
X2.0007Y-0.7147
X2.0007Y-4.6517
X2.1007Y-0.7147
X2.1007Y-4.6517
X2.2007Y-0.7147
X2.2007Y-4.6517
X2.3007Y-0.7147
X2.3007Y-4.6517
X2.4007Y-0.7147
X2.4007Y-4.6517
X2.5007Y-0.7147
X2.5007Y-4.6517
X2.8669Y-0.7147
X2.8669Y-4.6517
X2.9669Y-0.7147
X2.9669Y-4.6517
X3.0669Y-0.7147
X3.0669Y-4.6517
X3.1669Y-0.7147
X3.1669Y-4.6517
X3.2669Y-0.7147
X3.2669Y-4.6517
X3.3669Y-0.7147
X3.3669Y-4.6517
X3.733Y-0.7147
X3.733Y-4.6517
X3.833Y-0.7147
X3.833Y-4.6517
X3.933Y-0.7147
X3.933Y-4.6517
X4.033Y-0.7147
X4.033Y-4.6517
X4.133Y-0.7147
X4.133Y-4.6517
X4.233Y-0.7147
X4.233Y-4.6517
X4.5992Y-0.7147
X4.5992Y-4.6517
X4.6992Y-0.7147
X4.6992Y-4.6517
X4.7992Y-0.7147
X4.7992Y-4.6517
X4.8992Y-0.7147
X4.8992Y-4.6517
X4.9992Y-0.7147
X4.9992Y-4.6517
X5.0992Y-0.7147
X5.0992Y-4.6517
X5.4653Y-0.7147
X5.4653Y-4.6517
X5.5653Y-0.7147
X5.5653Y-4.6517
X5.6653Y-0.7147
X5.6653Y-4.6517
X5.7653Y-0.7147
X5.7653Y-4.6517
X5.8653Y-0.7147
X5.8653Y-4.6517
X5.9653Y-0.7147
X5.9653Y-4.6517
X6.3314Y-0.7147
X6.3314Y-4.6517
X6.4314Y-0.7147
X6.4314Y-4.6517
X6.5314Y-0.7147
X6.5314Y-4.6517
X6.6314Y-0.7147
X6.6314Y-4.6517
X6.7314Y-0.7147
X6.7314Y-4.6517
X6.8314Y-0.7147
X6.8314Y-4.6517
M30
