%TF.GenerationSoftware,KiCad,Pcbnew,8.0.8*%
%TF.CreationDate,2025-02-10T19:44:41+01:00*%
%TF.ProjectId,clarinoid-devboard,636c6172-696e-46f6-9964-2d646576626f,rev?*%
%TF.SameCoordinates,Original*%
%TF.FileFunction,Profile,NP*%
%FSLAX46Y46*%
G04 Gerber Fmt 4.6, Leading zero omitted, Abs format (unit mm)*
G04 Created by KiCad (PCBNEW 8.0.8) date 2025-02-10 19:44:41*
%MOMM*%
%LPD*%
G01*
G04 APERTURE LIST*
%TA.AperFunction,Profile*%
%ADD10C,0.100000*%
%TD*%
G04 APERTURE END LIST*
D10*
X134518503Y-65903000D02*
G75*
G02*
X133518502Y-66902973I-1000007J34D01*
G01*
X-19481499Y-17152999D02*
X-19481498Y-23903000D01*
X-21481499Y-119153000D02*
G75*
G02*
X-22481500Y-120152971I-1000005J34D01*
G01*
X134518503Y-112152999D02*
X134518501Y-119152998D01*
X23518501Y-66903000D02*
G75*
G02*
X22518462Y-65902999I-5J1000034D01*
G01*
X68518503Y-107903000D02*
G75*
G02*
X67518502Y-108902973I-1000007J34D01*
G01*
X45518502Y-27152998D02*
G75*
G02*
X46518464Y-28152999I-6J-999968D01*
G01*
X156518501Y-17152999D02*
G75*
G02*
X157518502Y-16152971I999995J33D01*
G01*
X90518503Y-65903000D02*
G75*
G02*
X89518502Y-66902973I-1000007J34D01*
G01*
X24518503Y-112152999D02*
X24518501Y-119152998D01*
X-19481499Y-17152999D02*
G75*
G02*
X-18481498Y-16152971I999995J33D01*
G01*
X-21481499Y-112152998D02*
G75*
G02*
X-20481498Y-111152971I999995J32D01*
G01*
X89518501Y-66903000D02*
G75*
G02*
X88518462Y-65902999I-5J1000034D01*
G01*
X44518501Y-119153000D02*
G75*
G02*
X43518500Y-120152971I-1000005J34D01*
G01*
X176518501Y-119153000D02*
G75*
G02*
X175518500Y-120152971I-1000005J34D01*
G01*
X156518503Y-112152999D02*
X156518501Y-119152998D01*
X67518503Y-69152998D02*
G75*
G02*
X68518464Y-70152999I-7J-999968D01*
G01*
X109518502Y-16152998D02*
G75*
G02*
X110518464Y-17152999I-6J-999968D01*
G01*
X-19481497Y-107903000D02*
X-19481497Y-70152999D01*
X112518503Y-112152999D02*
X112518501Y-119152998D01*
X-20481497Y-111152998D02*
G75*
G02*
X-19481536Y-112152999I-7J-999968D01*
G01*
X156518503Y-107903000D02*
X156518503Y-70152999D01*
X22518501Y-112152998D02*
X22518501Y-119153000D01*
X1518502Y-27152998D02*
G75*
G02*
X2518464Y-28152999I-6J-999968D01*
G01*
X68518503Y-112152999D02*
X68518501Y-119152998D01*
X518501Y-70152998D02*
G75*
G02*
X1518502Y-69152971I999995J32D01*
G01*
X88518500Y-28152998D02*
G75*
G02*
X89518501Y-27152970I999996J32D01*
G01*
X24518503Y-107903000D02*
X24518503Y-70152999D01*
X89518501Y-108903000D02*
G75*
G02*
X88518462Y-107902999I-5J1000034D01*
G01*
X46518503Y-107903000D02*
X46518503Y-70152999D01*
X157518501Y-120152999D02*
X175518500Y-120153000D01*
X68518503Y-65903000D02*
G75*
G02*
X67518502Y-66902973I-1000007J34D01*
G01*
X2518503Y-112152999D02*
X2518501Y-119152998D01*
X133518503Y-111152998D02*
G75*
G02*
X134518464Y-112152999I-7J-999968D01*
G01*
X25518501Y-120152999D02*
X43518500Y-120153000D01*
X-481498Y-16152998D02*
G75*
G02*
X518464Y-17152999I-6J-999968D01*
G01*
X89518502Y-27152998D02*
G75*
G02*
X90518464Y-28152999I-6J-999968D01*
G01*
X134518503Y-65903000D02*
X134518502Y-28152999D01*
X91518501Y-120152999D02*
X109518500Y-120153000D01*
X133518501Y-108903000D02*
G75*
G02*
X132518462Y-107902999I-5J1000034D01*
G01*
X113518501Y-120152999D02*
X131518500Y-120153000D01*
X176518500Y-28152998D02*
X176518501Y-65902999D01*
X45518503Y-111152998D02*
G75*
G02*
X46518464Y-112152999I-7J-999968D01*
G01*
X24518502Y-23903000D02*
G75*
G02*
X23518501Y-24902972I-1000006J34D01*
G01*
X133518502Y-27152998D02*
G75*
G02*
X134518464Y-28152999I-6J-999968D01*
G01*
X157518502Y-16152999D02*
X175518502Y-16152998D01*
X1518500Y-24903000D02*
G75*
G02*
X518462Y-23902999I-4J1000034D01*
G01*
X90518501Y-17152999D02*
G75*
G02*
X91518502Y-16152971I999995J33D01*
G01*
X111518501Y-66903000D02*
G75*
G02*
X110518462Y-65902999I-5J1000034D01*
G01*
X23518500Y-24903000D02*
G75*
G02*
X22518462Y-23902999I-4J1000034D01*
G01*
X44518500Y-28152998D02*
G75*
G02*
X45518501Y-27152970I999996J32D01*
G01*
X132518501Y-112152998D02*
X132518501Y-119153000D01*
X-40481499Y-120152998D02*
G75*
G02*
X-41481536Y-119152999I-5J1000032D01*
G01*
X112518503Y-107903000D02*
G75*
G02*
X111518502Y-108902973I-1000007J34D01*
G01*
X132518500Y-28152998D02*
G75*
G02*
X133518501Y-27152970I999996J32D01*
G01*
X110518501Y-112152998D02*
X110518501Y-119153000D01*
X88518502Y-17152999D02*
X88518500Y-23902999D01*
X175518502Y-16152998D02*
G75*
G02*
X176518464Y-17152999I-6J-999968D01*
G01*
X66518501Y-70152998D02*
X66518501Y-107902999D01*
X66518501Y-112152998D02*
G75*
G02*
X67518502Y-111152971I999995J32D01*
G01*
X518501Y-119153000D02*
G75*
G02*
X-481500Y-120152971I-1000005J34D01*
G01*
X66518501Y-119153000D02*
G75*
G02*
X65518500Y-120152971I-1000005J34D01*
G01*
X176518502Y-17152999D02*
X176518500Y-23902999D01*
X2518503Y-65903000D02*
G75*
G02*
X1518502Y-66902973I-1000007J34D01*
G01*
X-20481500Y-24903000D02*
G75*
G02*
X-21481538Y-23902999I-4J1000034D01*
G01*
X44518501Y-70152998D02*
X44518501Y-107902999D01*
X23518501Y-108903000D02*
G75*
G02*
X22518462Y-107902999I-5J1000034D01*
G01*
X24518503Y-107903000D02*
G75*
G02*
X23518502Y-108902973I-1000007J34D01*
G01*
X23518503Y-69152998D02*
G75*
G02*
X24518464Y-70152999I-7J-999968D01*
G01*
X133518501Y-66903000D02*
G75*
G02*
X132518462Y-65902999I-5J1000034D01*
G01*
X-20481499Y-108903000D02*
G75*
G02*
X-21481538Y-107902999I-5J1000034D01*
G01*
X176518501Y-65902999D02*
X176518501Y-70152998D01*
X131518502Y-16152998D02*
G75*
G02*
X132518464Y-17152999I-6J-999968D01*
G01*
X155518503Y-69152998D02*
G75*
G02*
X156518464Y-70152999I-7J-999968D01*
G01*
X22518501Y-70152998D02*
X22518501Y-107902999D01*
X156518501Y-17152999D02*
X156518502Y-23903000D01*
X-20481499Y-66903000D02*
G75*
G02*
X-21481538Y-65902999I-5J1000034D01*
G01*
X135518501Y-120152999D02*
X153518500Y-120153000D01*
X22518502Y-17152999D02*
X22518500Y-23902999D01*
X133518500Y-24903000D02*
G75*
G02*
X132518462Y-23902999I-4J1000034D01*
G01*
X-19481498Y-23903000D02*
G75*
G02*
X-20481499Y-24902972I-1000006J34D01*
G01*
X132518501Y-112152998D02*
G75*
G02*
X133518502Y-111152971I999995J32D01*
G01*
X24518501Y-17152999D02*
X24518502Y-23903000D01*
X44518501Y-70152998D02*
G75*
G02*
X45518502Y-69152971I999995J32D01*
G01*
X-21481500Y-28152998D02*
G75*
G02*
X-20481499Y-27152970I999996J32D01*
G01*
X25518502Y-16152999D02*
X43518502Y-16152998D01*
X66518501Y-112152998D02*
X66518501Y-119153000D01*
X134518503Y-107903000D02*
X134518503Y-70152999D01*
X154518500Y-28152998D02*
X154518501Y-65902999D01*
X112518503Y-65903000D02*
G75*
G02*
X111518502Y-66902973I-1000007J34D01*
G01*
X132518502Y-17152999D02*
X132518500Y-23902999D01*
X111518503Y-111152998D02*
G75*
G02*
X112518464Y-112152999I-7J-999968D01*
G01*
X1518501Y-66903000D02*
G75*
G02*
X518462Y-65902999I-5J1000034D01*
G01*
X-41481498Y-119152999D02*
X-41481499Y-17152999D01*
X-21481498Y-17152999D02*
X-21481500Y-23902999D01*
X154518500Y-28152998D02*
G75*
G02*
X155518501Y-27152970I999996J32D01*
G01*
X90518503Y-107903000D02*
G75*
G02*
X89518502Y-108902973I-1000007J34D01*
G01*
X69518502Y-16152999D02*
X87518502Y-16152998D01*
X132518501Y-70152998D02*
X132518501Y-107902999D01*
X156518503Y-65903000D02*
G75*
G02*
X155518502Y-66902973I-1000007J34D01*
G01*
X113518502Y-16152999D02*
X131518502Y-16152998D01*
X46518503Y-65903000D02*
G75*
G02*
X45518502Y-66902973I-1000007J34D01*
G01*
X176518501Y-107902999D02*
X176518501Y-112152998D01*
X23518502Y-27152998D02*
G75*
G02*
X24518464Y-28152999I-6J-999968D01*
G01*
X-41481499Y-17152999D02*
G75*
G02*
X-40481498Y-16152971I999995J33D01*
G01*
X154518501Y-112152998D02*
X154518501Y-119153000D01*
X22518500Y-28152998D02*
X22518501Y-65902999D01*
X-21481500Y-28152998D02*
X-21481499Y-65902999D01*
X110518501Y-112152998D02*
G75*
G02*
X111518502Y-111152971I999995J32D01*
G01*
X45518503Y-69152998D02*
G75*
G02*
X46518464Y-70152999I-7J-999968D01*
G01*
X518502Y-17152999D02*
X518500Y-23902999D01*
X89518503Y-69152998D02*
G75*
G02*
X90518464Y-70152999I-7J-999968D01*
G01*
X176518500Y-23902999D02*
X176518500Y-28152998D01*
X155518501Y-66903000D02*
G75*
G02*
X154518462Y-65902999I-5J1000034D01*
G01*
X68518501Y-17152999D02*
G75*
G02*
X69518502Y-16152971I999995J33D01*
G01*
X47518502Y-16152999D02*
X65518502Y-16152998D01*
X111518501Y-108903000D02*
G75*
G02*
X110518462Y-107902999I-5J1000034D01*
G01*
X154518501Y-70152998D02*
G75*
G02*
X155518502Y-69152971I999995J32D01*
G01*
X88518500Y-28152998D02*
X88518501Y-65902999D01*
X46518501Y-17152999D02*
G75*
G02*
X47518502Y-16152971I999995J33D01*
G01*
X2518503Y-107903000D02*
X2518503Y-70152999D01*
X44518501Y-112152998D02*
G75*
G02*
X45518502Y-111152971I999995J32D01*
G01*
X154518501Y-119153000D02*
G75*
G02*
X153518500Y-120152971I-1000005J34D01*
G01*
X156518503Y-65903000D02*
X156518502Y-28152999D01*
X155518503Y-111152998D02*
G75*
G02*
X156518464Y-112152999I-7J-999968D01*
G01*
X24518503Y-65903000D02*
G75*
G02*
X23518502Y-66902973I-1000007J34D01*
G01*
X518500Y-28152998D02*
X518501Y-65902999D01*
X3518501Y-120152999D02*
X21518500Y-120153000D01*
X176518501Y-70152998D02*
X176518501Y-107902999D01*
X-40481499Y-120152998D02*
X-22481500Y-120152997D01*
X157518501Y-120152999D02*
G75*
G02*
X156518463Y-119152998I-5J1000033D01*
G01*
X22518501Y-119153000D02*
G75*
G02*
X21518500Y-120152971I-1000005J34D01*
G01*
X135518502Y-16152999D02*
X153518502Y-16152998D01*
X112518502Y-23903000D02*
G75*
G02*
X111518501Y-24902972I-1000006J34D01*
G01*
X68518503Y-107903000D02*
X68518503Y-70152999D01*
X110518501Y-119153000D02*
G75*
G02*
X109518500Y-120152971I-1000005J34D01*
G01*
X518501Y-70152998D02*
X518501Y-107902999D01*
X46518503Y-107903000D02*
G75*
G02*
X45518502Y-108902973I-1000007J34D01*
G01*
X176518501Y-112152998D02*
X176518501Y-119153000D01*
X132518500Y-28152998D02*
X132518501Y-65902999D01*
X44518501Y-112152998D02*
X44518501Y-119153000D01*
X2518503Y-65903000D02*
X2518502Y-28152999D01*
X46518502Y-23903000D02*
G75*
G02*
X45518501Y-24902972I-1000006J34D01*
G01*
X-21481499Y-70152998D02*
G75*
G02*
X-20481498Y-69152971I999995J32D01*
G01*
X91518501Y-120152999D02*
G75*
G02*
X90518463Y-119152998I-5J1000033D01*
G01*
X21518502Y-16152998D02*
G75*
G02*
X22518464Y-17152999I-6J-999968D01*
G01*
X-20481498Y-27152998D02*
G75*
G02*
X-19481536Y-28152999I-6J-999968D01*
G01*
X-18481499Y-120152999D02*
G75*
G02*
X-19481537Y-119152998I-5J1000033D01*
G01*
X3518502Y-16152999D02*
X21518502Y-16152998D01*
X154518501Y-70152998D02*
X154518501Y-107902999D01*
X45518501Y-66903000D02*
G75*
G02*
X44518462Y-65902999I-5J1000034D01*
G01*
X47518501Y-120152999D02*
X65518500Y-120153000D01*
X154518501Y-112152998D02*
G75*
G02*
X155518502Y-111152971I999995J32D01*
G01*
X-22481498Y-16152998D02*
G75*
G02*
X-21481536Y-17152999I-6J-999968D01*
G01*
X134518502Y-23903000D02*
G75*
G02*
X133518501Y-24902972I-1000006J34D01*
G01*
X-18481498Y-16152999D02*
X-481498Y-16152998D01*
X44518500Y-28152998D02*
X44518501Y-65902999D01*
X91518502Y-16152999D02*
X109518502Y-16152998D01*
X1518501Y-108903000D02*
G75*
G02*
X518462Y-107902999I-5J1000034D01*
G01*
X110518501Y-70152998D02*
G75*
G02*
X111518502Y-69152971I999995J32D01*
G01*
X518500Y-28152998D02*
G75*
G02*
X1518501Y-27152970I999996J32D01*
G01*
X88518501Y-70152998D02*
X88518501Y-107902999D01*
X43518502Y-16152998D02*
G75*
G02*
X44518464Y-17152999I-6J-999968D01*
G01*
X45518500Y-24903000D02*
G75*
G02*
X44518462Y-23902999I-4J1000034D01*
G01*
X2518501Y-17152999D02*
G75*
G02*
X3518502Y-16152971I999995J33D01*
G01*
X90518503Y-65903000D02*
X90518502Y-28152999D01*
X25518501Y-120152999D02*
G75*
G02*
X24518463Y-119152998I-5J1000033D01*
G01*
X2518501Y-17152999D02*
X2518502Y-23903000D01*
X88518501Y-112152998D02*
G75*
G02*
X89518502Y-111152971I999995J32D01*
G01*
X110518501Y-70152998D02*
X110518501Y-107902999D01*
X47518501Y-120152999D02*
G75*
G02*
X46518463Y-119152998I-5J1000033D01*
G01*
X69518501Y-120152999D02*
X87518500Y-120153000D01*
X-18481499Y-120152999D02*
X-481500Y-120153000D01*
X89518500Y-24903000D02*
G75*
G02*
X88518462Y-23902999I-4J1000034D01*
G01*
X22518501Y-70152998D02*
G75*
G02*
X23518502Y-69152971I999995J32D01*
G01*
X65518502Y-16152998D02*
G75*
G02*
X66518464Y-17152999I-6J-999968D01*
G01*
X68518501Y-17152999D02*
X68518502Y-23903000D01*
X66518500Y-28152998D02*
G75*
G02*
X67518501Y-27152970I999996J32D01*
G01*
X156518503Y-107903000D02*
G75*
G02*
X155518502Y-108902973I-1000007J34D01*
G01*
X-21481499Y-112152998D02*
X-21481499Y-119153000D01*
X155518501Y-108903000D02*
G75*
G02*
X154518462Y-107902999I-5J1000034D01*
G01*
X134518503Y-107903000D02*
G75*
G02*
X133518502Y-108902973I-1000007J34D01*
G01*
X24518501Y-17152999D02*
G75*
G02*
X25518502Y-16152971I999995J33D01*
G01*
X-20481497Y-69152998D02*
G75*
G02*
X-19481536Y-70152999I-7J-999968D01*
G01*
X67518503Y-111152998D02*
G75*
G02*
X68518464Y-112152999I-7J-999968D01*
G01*
X46518503Y-65903000D02*
X46518502Y-28152999D01*
X66518502Y-17152999D02*
X66518500Y-23902999D01*
X22518501Y-112152998D02*
G75*
G02*
X23518502Y-111152971I999995J32D01*
G01*
X153518502Y-16152998D02*
G75*
G02*
X154518464Y-17152999I-6J-999968D01*
G01*
X1518503Y-69152998D02*
G75*
G02*
X2518464Y-70152999I-7J-999968D01*
G01*
X-40481498Y-16152999D02*
X-22481499Y-16152998D01*
X113518501Y-120152999D02*
G75*
G02*
X112518463Y-119152998I-5J1000033D01*
G01*
X154518502Y-17152999D02*
X154518500Y-23902999D01*
X67518501Y-108903000D02*
G75*
G02*
X66518462Y-107902999I-5J1000034D01*
G01*
X112518503Y-65903000D02*
X112518502Y-28152999D01*
X111518502Y-27152998D02*
G75*
G02*
X112518464Y-28152999I-6J-999968D01*
G01*
X134518501Y-17152999D02*
G75*
G02*
X135518502Y-16152971I999995J33D01*
G01*
X110518500Y-28152998D02*
X110518501Y-65902999D01*
X111518503Y-69152998D02*
G75*
G02*
X112518464Y-70152999I-7J-999968D01*
G01*
X46518503Y-112152999D02*
X46518501Y-119152998D01*
X112518501Y-17152999D02*
G75*
G02*
X113518502Y-16152971I999995J33D01*
G01*
X-19481497Y-65903000D02*
G75*
G02*
X-20481498Y-66902973I-1000007J34D01*
G01*
X67518502Y-27152998D02*
G75*
G02*
X68518464Y-28152999I-6J-999968D01*
G01*
X135518501Y-120152999D02*
G75*
G02*
X134518463Y-119152998I-5J1000033D01*
G01*
X518501Y-112152998D02*
G75*
G02*
X1518502Y-111152971I999995J32D01*
G01*
X132518501Y-70152998D02*
G75*
G02*
X133518502Y-69152971I999995J32D01*
G01*
X-21481499Y-70152998D02*
X-21481499Y-107902999D01*
X2518502Y-23903000D02*
G75*
G02*
X1518501Y-24902972I-1000006J34D01*
G01*
X22518500Y-28152998D02*
G75*
G02*
X23518501Y-27152970I999996J32D01*
G01*
X155518502Y-27152998D02*
G75*
G02*
X156518464Y-28152999I-6J-999968D01*
G01*
X24518503Y-65903000D02*
X24518502Y-28152999D01*
X112518503Y-107903000D02*
X112518503Y-70152999D01*
X155518500Y-24903000D02*
G75*
G02*
X154518462Y-23902999I-4J1000034D01*
G01*
X66518500Y-28152998D02*
X66518501Y-65902999D01*
X87518502Y-16152998D02*
G75*
G02*
X88518464Y-17152999I-6J-999968D01*
G01*
X3518501Y-120152999D02*
G75*
G02*
X2518463Y-119152998I-5J1000033D01*
G01*
X68518503Y-65903000D02*
X68518502Y-28152999D01*
X67518500Y-24903000D02*
G75*
G02*
X66518462Y-23902999I-4J1000034D01*
G01*
X88518501Y-119153000D02*
G75*
G02*
X87518500Y-120152971I-1000005J34D01*
G01*
X132518501Y-119153000D02*
G75*
G02*
X131518500Y-120152971I-1000005J34D01*
G01*
X518501Y-112152998D02*
X518501Y-119153000D01*
X23518503Y-111152998D02*
G75*
G02*
X24518464Y-112152999I-7J-999968D01*
G01*
X112518501Y-17152999D02*
X112518502Y-23903000D01*
X134518501Y-17152999D02*
X134518502Y-23903000D01*
X156518502Y-23903000D02*
G75*
G02*
X155518501Y-24902972I-1000006J34D01*
G01*
X90518502Y-23903000D02*
G75*
G02*
X89518501Y-24902972I-1000006J34D01*
G01*
X88518501Y-112152998D02*
X88518501Y-119153000D01*
X-19481497Y-112152999D02*
X-19481499Y-119152998D01*
X69518501Y-120152999D02*
G75*
G02*
X68518463Y-119152998I-5J1000033D01*
G01*
X111518500Y-24903000D02*
G75*
G02*
X110518462Y-23902999I-4J1000034D01*
G01*
X90518501Y-17152999D02*
X90518502Y-23903000D01*
X-19481497Y-107903000D02*
G75*
G02*
X-20481498Y-108902973I-1000007J34D01*
G01*
X88518501Y-70152998D02*
G75*
G02*
X89518502Y-69152971I999995J32D01*
G01*
X-19481497Y-65903000D02*
X-19481498Y-28152999D01*
X68518502Y-23903000D02*
G75*
G02*
X67518501Y-24902972I-1000006J34D01*
G01*
X1518503Y-111152998D02*
G75*
G02*
X2518464Y-112152999I-7J-999968D01*
G01*
X133518503Y-69152998D02*
G75*
G02*
X134518464Y-70152999I-7J-999968D01*
G01*
X90518503Y-107903000D02*
X90518503Y-70152999D01*
X110518502Y-17152999D02*
X110518500Y-23902999D01*
X46518501Y-17152999D02*
X46518502Y-23903000D01*
X110518500Y-28152998D02*
G75*
G02*
X111518501Y-27152970I999996J32D01*
G01*
X44518502Y-17152999D02*
X44518500Y-23902999D01*
X90518503Y-112152999D02*
X90518501Y-119152998D01*
X45518501Y-108903000D02*
G75*
G02*
X44518462Y-107902999I-5J1000034D01*
G01*
X2518503Y-107903000D02*
G75*
G02*
X1518502Y-108902973I-1000007J34D01*
G01*
X67518501Y-66903000D02*
G75*
G02*
X66518462Y-65902999I-5J1000034D01*
G01*
X66518501Y-70152998D02*
G75*
G02*
X67518502Y-69152971I999995J32D01*
G01*
X89518503Y-111152998D02*
G75*
G02*
X90518464Y-112152999I-7J-999968D01*
G01*
M02*
