%TF.GenerationSoftware,KiCad,Pcbnew,8.0.8*%
%TF.CreationDate,2025-02-10T19:44:41+01:00*%
%TF.ProjectId,clarinoid-devboard,636c6172-696e-46f6-9964-2d646576626f,rev?*%
%TF.SameCoordinates,Original*%
%TF.FileFunction,Copper,L2,Bot*%
%TF.FilePolarity,Positive*%
%FSLAX46Y46*%
G04 Gerber Fmt 4.6, Leading zero omitted, Abs format (unit mm)*
G04 Created by KiCad (PCBNEW 8.0.8) date 2025-02-10 19:44:41*
%MOMM*%
%LPD*%
G01*
G04 APERTURE LIST*
%TA.AperFunction,ComponentPad*%
%ADD10R,1.700000X1.700000*%
%TD*%
%TA.AperFunction,ComponentPad*%
%ADD11O,1.700000X1.700000*%
%TD*%
%TA.AperFunction,ViaPad*%
%ADD12C,0.800000*%
%TD*%
%TA.AperFunction,Conductor*%
%ADD13C,0.200000*%
%TD*%
G04 APERTURE END LIST*
D10*
%TO.P,J14,1,Pin_1*%
%TO.N,GND*%
X41518501Y-18152999D03*
D11*
%TO.P,J14,2,Pin_2*%
%TO.N,Net-(J14-Pin_2)*%
X38978501Y-18152999D03*
%TO.P,J14,3,Pin_3*%
%TO.N,Net-(J14-Pin_3)*%
X36438501Y-18152999D03*
%TO.P,J14,4,Pin_4*%
%TO.N,Net-(J14-Pin_4)*%
X33898501Y-18152999D03*
%TO.P,J14,5,Pin_5*%
%TO.N,Net-(J14-Pin_5)*%
X31358501Y-18152999D03*
%TO.P,J14,6,Pin_6*%
%TO.N,Net-(J14-Pin_6)*%
X28818501Y-18152999D03*
%TD*%
D10*
%TO.P,J24,1,Pin_1*%
%TO.N,GND*%
X85518501Y-18152999D03*
D11*
%TO.P,J24,2,Pin_2*%
%TO.N,Net-(J24-Pin_2)*%
X82978501Y-18152999D03*
%TO.P,J24,3,Pin_3*%
%TO.N,Net-(J24-Pin_3)*%
X80438501Y-18152999D03*
%TO.P,J24,4,Pin_4*%
%TO.N,Net-(J24-Pin_4)*%
X77898501Y-18152999D03*
%TO.P,J24,5,Pin_5*%
%TO.N,Net-(J24-Pin_5)*%
X75358501Y-18152999D03*
%TO.P,J24,6,Pin_6*%
%TO.N,Net-(J24-Pin_6)*%
X72818501Y-18152999D03*
%TD*%
D10*
%TO.P,J18,1,Pin_1*%
%TO.N,GND*%
X63518501Y-118152999D03*
D11*
%TO.P,J18,2,Pin_2*%
%TO.N,Net-(J18-Pin_2)*%
X60978501Y-118152999D03*
%TO.P,J18,3,Pin_3*%
%TO.N,Net-(J18-Pin_3)*%
X58438501Y-118152999D03*
%TO.P,J18,4,Pin_4*%
%TO.N,Net-(J18-Pin_4)*%
X55898501Y-118152999D03*
%TO.P,J18,5,Pin_5*%
%TO.N,Net-(J18-Pin_5)*%
X53358501Y-118152999D03*
%TO.P,J18,6,Pin_6*%
%TO.N,Net-(J18-Pin_6)*%
X50818501Y-118152999D03*
%TD*%
D10*
%TO.P,J12,1,Pin_1*%
%TO.N,GND*%
X173518501Y-118152999D03*
D11*
%TO.P,J12,2,Pin_2*%
%TO.N,Net-(J12-Pin_2)*%
X170978501Y-118152999D03*
%TO.P,J12,3,Pin_3*%
%TO.N,Net-(J12-Pin_3)*%
X168438501Y-118152999D03*
%TO.P,J12,4,Pin_4*%
%TO.N,Net-(J12-Pin_4)*%
X165898501Y-118152999D03*
%TO.P,J12,5,Pin_5*%
%TO.N,Net-(J12-Pin_5)*%
X163358501Y-118152999D03*
%TO.P,J12,6,Pin_6*%
%TO.N,Net-(J12-Pin_6)*%
X160818501Y-118152999D03*
%TD*%
D10*
%TO.P,J5,1,Pin_1*%
%TO.N,GND*%
X129518501Y-118152999D03*
D11*
%TO.P,J5,2,Pin_2*%
%TO.N,unconnected-(J5-Pin_2-Pad2)*%
X126978501Y-118152999D03*
%TO.P,J5,3,Pin_3*%
%TO.N,unconnected-(J5-Pin_3-Pad3)*%
X124438501Y-118152999D03*
%TO.P,J5,4,Pin_4*%
%TO.N,Net-(J5-Pin_4)*%
X121898501Y-118152999D03*
%TO.P,J5,5,Pin_5*%
%TO.N,Net-(J5-Pin_5)*%
X119358501Y-118152999D03*
%TO.P,J5,6,Pin_6*%
%TO.N,Net-(J5-Pin_6)*%
X116818501Y-118152999D03*
%TD*%
D10*
%TO.P,J11,1,Pin_1*%
%TO.N,GND*%
X173518501Y-18152999D03*
D11*
%TO.P,J11,2,Pin_2*%
%TO.N,Net-(J11-Pin_2)*%
X170978501Y-18152999D03*
%TO.P,J11,3,Pin_3*%
%TO.N,Net-(J11-Pin_3)*%
X168438501Y-18152999D03*
%TO.P,J11,4,Pin_4*%
%TO.N,Net-(J11-Pin_4)*%
X165898501Y-18152999D03*
%TO.P,J11,5,Pin_5*%
%TO.N,Net-(J11-Pin_5)*%
X163358501Y-18152999D03*
%TO.P,J11,6,Pin_6*%
%TO.N,Net-(J11-Pin_6)*%
X160818501Y-18152999D03*
%TD*%
D10*
%TO.P,J9,1,Pin_1*%
%TO.N,GND*%
X-24481499Y-18152999D03*
D11*
%TO.P,J9,2,Pin_2*%
%TO.N,Net-(J20-Pin_1)*%
X-27021499Y-18152999D03*
%TO.P,J9,3,Pin_3*%
%TO.N,Net-(J20-Pin_2)*%
X-29561499Y-18152999D03*
%TO.P,J9,4,Pin_4*%
%TO.N,Net-(J20-Pin_3)*%
X-32101499Y-18152999D03*
%TO.P,J9,5,Pin_5*%
%TO.N,Net-(J20-Pin_4)*%
X-34641499Y-18152999D03*
%TO.P,J9,6,Pin_6*%
%TO.N,Net-(J20-Pin_5)*%
X-37181499Y-18152999D03*
%TD*%
D10*
%TO.P,J4,1,Pin_1*%
%TO.N,GND*%
X129518501Y-18152999D03*
D11*
%TO.P,J4,2,Pin_2*%
%TO.N,Net-(J4-Pin_2)*%
X126978501Y-18152999D03*
%TO.P,J4,3,Pin_3*%
%TO.N,Net-(J4-Pin_3)*%
X124438501Y-18152999D03*
%TO.P,J4,4,Pin_4*%
%TO.N,Net-(J4-Pin_4)*%
X121898501Y-18152999D03*
%TO.P,J4,5,Pin_5*%
%TO.N,Net-(J4-Pin_5)*%
X119358501Y-18152999D03*
%TO.P,J4,6,Pin_6*%
%TO.N,Net-(J4-Pin_6)*%
X116818501Y-18152999D03*
%TD*%
D10*
%TO.P,J19,1,Pin_1*%
%TO.N,GND*%
X-2481499Y-18152999D03*
D11*
%TO.P,J19,2,Pin_2*%
%TO.N,Net-(J19-Pin_2)*%
X-5021499Y-18152999D03*
%TO.P,J19,3,Pin_3*%
%TO.N,Net-(J19-Pin_3)*%
X-7561499Y-18152999D03*
%TO.P,J19,4,Pin_4*%
%TO.N,Net-(J19-Pin_4)*%
X-10101499Y-18152999D03*
%TO.P,J19,5,Pin_5*%
%TO.N,Net-(J19-Pin_5)*%
X-12641499Y-18152999D03*
%TO.P,J19,6,Pin_6*%
%TO.N,Net-(J19-Pin_6)*%
X-15181499Y-18152999D03*
%TD*%
D10*
%TO.P,J27,1,Pin_1*%
%TO.N,GND*%
X19518501Y-18152999D03*
D11*
%TO.P,J27,2,Pin_2*%
%TO.N,Net-(J27-Pin_2)*%
X16978501Y-18152999D03*
%TO.P,J27,3,Pin_3*%
%TO.N,Net-(J27-Pin_3)*%
X14438501Y-18152999D03*
%TO.P,J27,4,Pin_4*%
%TO.N,Net-(J27-Pin_4)*%
X11898501Y-18152999D03*
%TO.P,J27,5,Pin_5*%
%TO.N,Net-(J27-Pin_5)*%
X9358501Y-18152999D03*
%TO.P,J27,6,Pin_6*%
%TO.N,Net-(J27-Pin_6)*%
X6818501Y-18152999D03*
%TD*%
D10*
%TO.P,J13,1,Pin_1*%
%TO.N,GND*%
X-24481499Y-118152999D03*
D11*
%TO.P,J13,2,Pin_2*%
%TO.N,Net-(J13-Pin_2)*%
X-27021499Y-118152999D03*
%TO.P,J13,3,Pin_3*%
%TO.N,Net-(J13-Pin_3)*%
X-29561499Y-118152999D03*
%TO.P,J13,4,Pin_4*%
%TO.N,Net-(J13-Pin_4)*%
X-32101499Y-118152999D03*
%TO.P,J13,5,Pin_5*%
%TO.N,Net-(J13-Pin_5)*%
X-34641499Y-118152999D03*
%TO.P,J13,6,Pin_6*%
%TO.N,Net-(J13-Pin_6)*%
X-37181499Y-118152999D03*
%TD*%
D10*
%TO.P,J15,1,Pin_1*%
%TO.N,GND*%
X41518501Y-118152999D03*
D11*
%TO.P,J15,2,Pin_2*%
%TO.N,unconnected-(J15-Pin_2-Pad2)*%
X38978501Y-118152999D03*
%TO.P,J15,3,Pin_3*%
%TO.N,unconnected-(J15-Pin_3-Pad3)*%
X36438501Y-118152999D03*
%TO.P,J15,4,Pin_4*%
%TO.N,unconnected-(J15-Pin_4-Pad4)*%
X33898501Y-118152999D03*
%TO.P,J15,5,Pin_5*%
%TO.N,unconnected-(J15-Pin_5-Pad5)*%
X31358501Y-118152999D03*
%TO.P,J15,6,Pin_6*%
%TO.N,Net-(J15-Pin_6)*%
X28818501Y-118152999D03*
%TD*%
D10*
%TO.P,J21,1,Pin_1*%
%TO.N,GND*%
X-2481499Y-118152999D03*
D11*
%TO.P,J21,2,Pin_2*%
%TO.N,Net-(J21-Pin_2)*%
X-5021499Y-118152999D03*
%TO.P,J21,3,Pin_3*%
%TO.N,Net-(J21-Pin_3)*%
X-7561499Y-118152999D03*
%TO.P,J21,4,Pin_4*%
%TO.N,Net-(J21-Pin_4)*%
X-10101499Y-118152999D03*
%TO.P,J21,5,Pin_5*%
%TO.N,Net-(J21-Pin_5)*%
X-12641499Y-118152999D03*
%TO.P,J21,6,Pin_6*%
%TO.N,Net-(J21-Pin_6)*%
X-15181499Y-118152999D03*
%TD*%
D10*
%TO.P,J25,1,Pin_1*%
%TO.N,GND*%
X85518501Y-118152999D03*
D11*
%TO.P,J25,2,Pin_2*%
%TO.N,Net-(J25-Pin_2)*%
X82978501Y-118152999D03*
%TO.P,J25,3,Pin_3*%
%TO.N,Net-(J25-Pin_3)*%
X80438501Y-118152999D03*
%TO.P,J25,4,Pin_4*%
%TO.N,Net-(J25-Pin_4)*%
X77898501Y-118152999D03*
%TO.P,J25,5,Pin_5*%
%TO.N,Net-(J25-Pin_5)*%
X75358501Y-118152999D03*
%TO.P,J25,6,Pin_6*%
%TO.N,Net-(J25-Pin_6)*%
X72818501Y-118152999D03*
%TD*%
D10*
%TO.P,J7,1,Pin_1*%
%TO.N,GND*%
X151518501Y-18152999D03*
D11*
%TO.P,J7,2,Pin_2*%
%TO.N,Net-(J10-Pin_1)*%
X148978501Y-18152999D03*
%TO.P,J7,3,Pin_3*%
%TO.N,Net-(J10-Pin_2)*%
X146438501Y-18152999D03*
%TO.P,J7,4,Pin_4*%
%TO.N,Net-(J10-Pin_3)*%
X143898501Y-18152999D03*
%TO.P,J7,5,Pin_5*%
%TO.N,Net-(J10-Pin_4)*%
X141358501Y-18152999D03*
%TO.P,J7,6,Pin_6*%
%TO.N,Net-(J10-Pin_5)*%
X138818501Y-18152999D03*
%TD*%
D10*
%TO.P,J1,1,Pin_1*%
%TO.N,GND*%
X107518501Y-18152999D03*
D11*
%TO.P,J1,2,Pin_2*%
%TO.N,Net-(J1-Pin_2)*%
X104978501Y-18152999D03*
%TO.P,J1,3,Pin_3*%
%TO.N,Net-(J1-Pin_3)*%
X102438501Y-18152999D03*
%TO.P,J1,4,Pin_4*%
%TO.N,Net-(J1-Pin_4)*%
X99898501Y-18152999D03*
%TO.P,J1,5,Pin_5*%
%TO.N,Net-(J1-Pin_5)*%
X97358501Y-18152999D03*
%TO.P,J1,6,Pin_6*%
%TO.N,Net-(J1-Pin_6)*%
X94818501Y-18152999D03*
%TD*%
D10*
%TO.P,J26,1,Pin_1*%
%TO.N,GND*%
X19518501Y-118152999D03*
D11*
%TO.P,J26,2,Pin_2*%
%TO.N,Net-(J26-Pin_2)*%
X16978501Y-118152999D03*
%TO.P,J26,3,Pin_3*%
%TO.N,Net-(J26-Pin_3)*%
X14438501Y-118152999D03*
%TO.P,J26,4,Pin_4*%
%TO.N,Net-(J26-Pin_4)*%
X11898501Y-118152999D03*
%TO.P,J26,5,Pin_5*%
%TO.N,Net-(J26-Pin_5)*%
X9358501Y-118152999D03*
%TO.P,J26,6,Pin_6*%
%TO.N,Net-(J26-Pin_6)*%
X6818501Y-118152999D03*
%TD*%
D10*
%TO.P,J17,1,Pin_1*%
%TO.N,GND*%
X63518501Y-18152999D03*
D11*
%TO.P,J17,2,Pin_2*%
%TO.N,Net-(J17-Pin_2)*%
X60978501Y-18152999D03*
%TO.P,J17,3,Pin_3*%
%TO.N,Net-(J17-Pin_3)*%
X58438501Y-18152999D03*
%TO.P,J17,4,Pin_4*%
%TO.N,Net-(J17-Pin_4)*%
X55898501Y-18152999D03*
%TO.P,J17,5,Pin_5*%
%TO.N,Net-(J17-Pin_5)*%
X53358501Y-18152999D03*
%TO.P,J17,6,Pin_6*%
%TO.N,Net-(J17-Pin_6)*%
X50818501Y-18152999D03*
%TD*%
D10*
%TO.P,J2,1,Pin_1*%
%TO.N,GND*%
X107518501Y-118152999D03*
D11*
%TO.P,J2,2,Pin_2*%
%TO.N,Net-(J2-Pin_2)*%
X104978501Y-118152999D03*
%TO.P,J2,3,Pin_3*%
%TO.N,Net-(J2-Pin_3)*%
X102438501Y-118152999D03*
%TO.P,J2,4,Pin_4*%
%TO.N,Net-(J2-Pin_4)*%
X99898501Y-118152999D03*
%TO.P,J2,5,Pin_5*%
%TO.N,Net-(J2-Pin_5)*%
X97358501Y-118152999D03*
%TO.P,J2,6,Pin_6*%
%TO.N,Net-(J2-Pin_6)*%
X94818501Y-118152999D03*
%TD*%
D10*
%TO.P,J8,1,Pin_1*%
%TO.N,GND*%
X151518501Y-118152999D03*
D11*
%TO.P,J8,2,Pin_2*%
%TO.N,Net-(J10-Pin_10)*%
X148978501Y-118152999D03*
%TO.P,J8,3,Pin_3*%
%TO.N,Net-(J10-Pin_9)*%
X146438501Y-118152999D03*
%TO.P,J8,4,Pin_4*%
%TO.N,Net-(J10-Pin_8)*%
X143898501Y-118152999D03*
%TO.P,J8,5,Pin_5*%
%TO.N,Net-(J10-Pin_7)*%
X141358501Y-118152999D03*
%TO.P,J8,6,Pin_6*%
%TO.N,Net-(J10-Pin_6)*%
X138818501Y-118152999D03*
%TD*%
D12*
%TO.N,Net-(J20-Pin_5)*%
X-33521499Y-63652999D03*
%TO.N,Net-(J20-Pin_4)*%
X-29521499Y-54652999D03*
%TO.N,Net-(J20-Pin_3)*%
X-33521499Y-45652999D03*
%TO.N,Net-(J20-Pin_2)*%
X-29521499Y-36652999D03*
%TO.N,Net-(J13-Pin_3)*%
X-33521499Y-99652999D03*
%TO.N,Net-(J13-Pin_5)*%
X-33521499Y-81652999D03*
%TO.N,Net-(J13-Pin_4)*%
X-29521499Y-90652999D03*
%TO.N,Net-(J14-Pin_6)*%
X29768501Y-84902999D03*
%TO.N,Net-(J14-Pin_5)*%
X29768501Y-72152999D03*
%TO.N,Net-(J14-Pin_3)*%
X29768501Y-47652999D03*
%TO.N,Net-(J14-Pin_4)*%
X29768501Y-59652999D03*
%TO.N,Net-(J17-Pin_4)*%
X53018501Y-45152999D03*
%TO.N,Net-(J17-Pin_5)*%
X53018501Y-52902999D03*
%TO.N,Net-(J17-Pin_3)*%
X53018501Y-38152999D03*
%TO.N,Net-(J17-Pin_6)*%
X53018501Y-60652999D03*
%TO.N,Net-(J18-Pin_4)*%
X53018501Y-82652999D03*
%TO.N,Net-(J18-Pin_5)*%
X53018501Y-75152999D03*
%TO.N,Net-(J18-Pin_3)*%
X53018501Y-90152999D03*
%TO.N,Net-(J5-Pin_5)*%
X116518501Y-86652999D03*
%TO.N,Net-(J19-Pin_3)*%
X-12981499Y-35902999D03*
%TO.N,Net-(J19-Pin_4)*%
X-16731499Y-44652999D03*
%TO.N,Net-(J19-Pin_5)*%
X-17481499Y-53902999D03*
%TO.N,Net-(J19-Pin_6)*%
X-17231499Y-62902999D03*
%TO.N,Net-(J21-Pin_3)*%
X-16231499Y-99652999D03*
%TO.N,Net-(J21-Pin_4)*%
X-16231499Y-91902999D03*
%TO.N,Net-(J24-Pin_5)*%
X73018501Y-64152999D03*
%TO.N,Net-(J24-Pin_4)*%
X73018501Y-56652999D03*
%TO.N,Net-(J24-Pin_6)*%
X73018501Y-71652999D03*
%TO.N,Net-(J24-Pin_3)*%
X73018501Y-49152999D03*
%TO.N,Net-(J25-Pin_3)*%
X73018501Y-101652999D03*
%TO.N,Net-(J25-Pin_4)*%
X73018501Y-94152999D03*
%TO.N,Net-(J25-Pin_5)*%
X73018501Y-86652999D03*
%TO.N,Net-(J26-Pin_4)*%
X5018501Y-81652999D03*
%TO.N,Net-(J26-Pin_5)*%
X4768501Y-76152999D03*
%TO.N,Net-(J26-Pin_3)*%
X5268501Y-87152999D03*
%TO.N,Net-(J26-Pin_6)*%
X5018501Y-70652999D03*
%TO.N,Net-(J27-Pin_3)*%
X5018501Y-48152999D03*
%TO.N,Net-(J27-Pin_4)*%
X5018501Y-53902999D03*
%TO.N,Net-(J27-Pin_5)*%
X5018501Y-59652999D03*
%TO.N,Net-(J1-Pin_3)*%
X95518501Y-42152999D03*
%TO.N,Net-(J1-Pin_4)*%
X95518501Y-49652999D03*
%TO.N,Net-(J1-Pin_6)*%
X95518501Y-64652999D03*
%TO.N,Net-(J1-Pin_5)*%
X95518501Y-57152999D03*
%TO.N,Net-(J2-Pin_4)*%
X95518501Y-87152999D03*
%TO.N,Net-(J2-Pin_5)*%
X95518501Y-79652999D03*
%TO.N,Net-(J2-Pin_3)*%
X95518501Y-94652999D03*
%TO.N,Net-(J4-Pin_5)*%
X116518501Y-59652999D03*
%TO.N,Net-(J4-Pin_6)*%
X116518501Y-68652999D03*
%TO.N,Net-(J4-Pin_3)*%
X116518501Y-41652999D03*
%TO.N,Net-(J4-Pin_4)*%
X116518501Y-50652999D03*
%TO.N,Net-(J10-Pin_4)*%
X138518501Y-49152999D03*
%TO.N,Net-(J10-Pin_5)*%
X138518501Y-56152999D03*
%TO.N,Net-(J10-Pin_6)*%
X138518501Y-64652999D03*
%TO.N,Net-(J10-Pin_2)*%
X138518501Y-34652999D03*
%TO.N,Net-(J10-Pin_3)*%
X138518501Y-41152999D03*
%TO.N,Net-(J10-Pin_9)*%
X138518501Y-87152999D03*
%TO.N,Net-(J10-Pin_8)*%
X138518501Y-79652999D03*
%TO.N,Net-(J10-Pin_7)*%
X138518501Y-71652999D03*
%TO.N,Net-(J11-Pin_6)*%
X158018501Y-56652999D03*
%TO.N,Net-(J11-Pin_3)*%
X158518501Y-36027999D03*
%TO.N,Net-(J11-Pin_4)*%
X158518501Y-40652999D03*
%TO.N,Net-(J11-Pin_5)*%
X157768501Y-49402999D03*
%TO.N,Net-(J12-Pin_4)*%
X158331001Y-79840499D03*
%TO.N,Net-(J12-Pin_3)*%
X158518501Y-87652999D03*
%TO.N,Net-(J12-Pin_5)*%
X158018501Y-72652999D03*
%TO.N,Net-(J21-Pin_5)*%
X-17731499Y-84152999D03*
%TO.N,Net-(J2-Pin_6)*%
X95518501Y-72152999D03*
%TO.N,Net-(J5-Pin_6)*%
X116518501Y-77652999D03*
%TO.N,Net-(J12-Pin_6)*%
X158018501Y-64652999D03*
%TO.N,Net-(J13-Pin_6)*%
X-29521499Y-72652999D03*
%TO.N,Net-(J18-Pin_6)*%
X53018501Y-67652999D03*
%TO.N,Net-(J21-Pin_6)*%
X-12731499Y-75152999D03*
%TO.N,Net-(J25-Pin_6)*%
X73018501Y-79152999D03*
%TO.N,Net-(J27-Pin_6)*%
X4768501Y-64902999D03*
%TD*%
D13*
%TO.N,Net-(J20-Pin_5)*%
X-37181499Y-59992999D02*
X-37181499Y-18152999D01*
X-33521499Y-63652999D02*
X-37181499Y-59992999D01*
%TO.N,Net-(J20-Pin_4)*%
X-29521499Y-54652999D02*
X-34641499Y-49532999D01*
X-34641499Y-49532999D02*
X-34641499Y-18152999D01*
%TO.N,Net-(J20-Pin_3)*%
X-32731499Y-18782999D02*
X-32101499Y-18152999D01*
X-32731499Y-44862999D02*
X-32731499Y-18782999D01*
X-33521499Y-45652999D02*
X-32731499Y-44862999D01*
%TO.N,Net-(J20-Pin_2)*%
X-29521499Y-36652999D02*
X-31481499Y-34692999D01*
X-31481499Y-20072999D02*
X-29561499Y-18152999D01*
X-31481499Y-34692999D02*
X-31481499Y-20072999D01*
%TO.N,Net-(J13-Pin_3)*%
X-29561499Y-103612999D02*
X-29561499Y-118152999D01*
X-33521499Y-99652999D02*
X-29561499Y-103612999D01*
%TO.N,Net-(J13-Pin_5)*%
X-33521499Y-81652999D02*
X-34641499Y-82772999D01*
X-34641499Y-82772999D02*
X-34641499Y-118152999D01*
%TO.N,Net-(J13-Pin_4)*%
X-34221499Y-116032999D02*
X-32101499Y-118152999D01*
X-29521499Y-90652999D02*
X-34221499Y-95352999D01*
X-34221499Y-95352999D02*
X-34221499Y-116032999D01*
%TO.N,Net-(J14-Pin_6)*%
X27968501Y-19002999D02*
X28818501Y-18152999D01*
X29768501Y-84902999D02*
X27968501Y-83102999D01*
X27968501Y-83102999D02*
X27968501Y-19002999D01*
%TO.N,Net-(J14-Pin_5)*%
X29768501Y-72152999D02*
X28668501Y-71052999D01*
X28668501Y-71052999D02*
X28668501Y-20842999D01*
X28668501Y-20842999D02*
X31358501Y-18152999D01*
%TO.N,Net-(J14-Pin_3)*%
X29768501Y-47652999D02*
X29768501Y-24822999D01*
X29768501Y-24822999D02*
X36438501Y-18152999D01*
%TO.N,Net-(J14-Pin_4)*%
X29068501Y-58952999D02*
X29068501Y-22982999D01*
X29768501Y-59652999D02*
X29068501Y-58952999D01*
X29068501Y-22982999D02*
X33898501Y-18152999D01*
%TO.N,Net-(J17-Pin_4)*%
X52318501Y-44452999D02*
X52318501Y-21732999D01*
X52318501Y-21732999D02*
X55898501Y-18152999D01*
X53018501Y-45152999D02*
X52318501Y-44452999D01*
%TO.N,Net-(J17-Pin_5)*%
X53358501Y-18152999D02*
X51918501Y-19592999D01*
X51918501Y-19592999D02*
X51918501Y-51802999D01*
X51918501Y-51802999D02*
X53018501Y-52902999D01*
%TO.N,Net-(J17-Pin_3)*%
X53018501Y-38152999D02*
X53018501Y-33152999D01*
X58438501Y-27732999D02*
X58438501Y-18152999D01*
X53018501Y-33152999D02*
X58438501Y-27732999D01*
%TO.N,Net-(J17-Pin_6)*%
X50818501Y-58452999D02*
X50818501Y-18152999D01*
X53018501Y-60652999D02*
X50818501Y-58452999D01*
%TO.N,Net-(J18-Pin_4)*%
X52318501Y-83352999D02*
X53018501Y-82652999D01*
X52318501Y-114572999D02*
X52318501Y-83352999D01*
X55898501Y-118152999D02*
X52318501Y-114572999D01*
%TO.N,Net-(J18-Pin_5)*%
X51918501Y-116712999D02*
X53358501Y-118152999D01*
X53018501Y-75152999D02*
X51918501Y-76252999D01*
X51918501Y-76252999D02*
X51918501Y-116712999D01*
%TO.N,Net-(J18-Pin_3)*%
X53018501Y-90152999D02*
X53018501Y-112732999D01*
X53018501Y-112732999D02*
X58438501Y-118152999D01*
%TO.N,Net-(J5-Pin_5)*%
X116518501Y-86652999D02*
X116518501Y-115312999D01*
X116518501Y-115312999D02*
X119358501Y-118152999D01*
%TO.N,Net-(J19-Pin_3)*%
X-12981499Y-35902999D02*
X-13731499Y-35152999D01*
X-13731499Y-35152999D02*
X-13731499Y-24322999D01*
X-13731499Y-24322999D02*
X-7561499Y-18152999D01*
%TO.N,Net-(J19-Pin_4)*%
X-16731499Y-44652999D02*
X-17731499Y-43652999D01*
X-14381499Y-22432999D02*
X-10101499Y-18152999D01*
X-14381499Y-26684371D02*
X-14381499Y-22432999D01*
X-17731499Y-30034371D02*
X-14381499Y-26684371D01*
X-17731499Y-43652999D02*
X-17731499Y-30034371D01*
%TO.N,Net-(J19-Pin_5)*%
X-18331499Y-53052999D02*
X-18331499Y-30068685D01*
X-14781499Y-26518685D02*
X-14781499Y-20292999D01*
X-14781499Y-20292999D02*
X-12641499Y-18152999D01*
X-17481499Y-53902999D02*
X-18331499Y-53052999D01*
X-18331499Y-30068685D02*
X-14781499Y-26518685D01*
%TO.N,Net-(J19-Pin_6)*%
X-18731499Y-61402999D02*
X-17231499Y-62902999D01*
X-18731499Y-29902999D02*
X-18731499Y-61402999D01*
X-15181499Y-26352999D02*
X-18731499Y-29902999D01*
X-15181499Y-18152999D02*
X-15181499Y-26352999D01*
%TO.N,Net-(J21-Pin_3)*%
X-16231499Y-99652999D02*
X-7561499Y-108322999D01*
X-7561499Y-108322999D02*
X-7561499Y-118152999D01*
%TO.N,Net-(J21-Pin_4)*%
X-16931499Y-92602999D02*
X-16931499Y-111322999D01*
X-16231499Y-91902999D02*
X-16931499Y-92602999D01*
X-16931499Y-111322999D02*
X-10101499Y-118152999D01*
%TO.N,Net-(J24-Pin_5)*%
X71918501Y-63052999D02*
X71918501Y-44672999D01*
X73018501Y-64152999D02*
X71918501Y-63052999D01*
X75358501Y-41232999D02*
X75358501Y-18152999D01*
X71918501Y-44672999D02*
X75358501Y-41232999D01*
%TO.N,Net-(J24-Pin_4)*%
X72318501Y-46852999D02*
X77898501Y-41272999D01*
X72318501Y-55952999D02*
X72318501Y-46852999D01*
X73018501Y-56652999D02*
X72318501Y-55952999D01*
X77898501Y-41272999D02*
X77898501Y-18152999D01*
%TO.N,Net-(J24-Pin_6)*%
X71518501Y-70152999D02*
X71518501Y-19452999D01*
X73018501Y-71652999D02*
X71518501Y-70152999D01*
X71518501Y-19452999D02*
X72818501Y-18152999D01*
%TO.N,Net-(J24-Pin_3)*%
X73018501Y-49152999D02*
X80438501Y-41732999D01*
X80438501Y-41732999D02*
X80438501Y-18152999D01*
%TO.N,Net-(J25-Pin_3)*%
X80438501Y-109072999D02*
X80438501Y-118152999D01*
X73018501Y-101652999D02*
X80438501Y-109072999D01*
%TO.N,Net-(J25-Pin_4)*%
X72318501Y-94852999D02*
X72318501Y-101952999D01*
X73018501Y-94152999D02*
X72318501Y-94852999D01*
X72318501Y-101952999D02*
X77898501Y-107532999D01*
X77898501Y-107532999D02*
X77898501Y-118152999D01*
%TO.N,Net-(J25-Pin_5)*%
X71918501Y-102552999D02*
X75358501Y-105992999D01*
X73018501Y-86652999D02*
X71918501Y-87752999D01*
X75358501Y-105992999D02*
X75358501Y-118152999D01*
X71918501Y-87752999D02*
X71918501Y-102552999D01*
%TO.N,Net-(J26-Pin_4)*%
X11898501Y-95282999D02*
X11898501Y-118152999D01*
X4268501Y-82402999D02*
X4268501Y-87652999D01*
X4268501Y-87652999D02*
X11898501Y-95282999D01*
X5018501Y-81652999D02*
X4268501Y-82402999D01*
%TO.N,Net-(J26-Pin_5)*%
X3518501Y-88152999D02*
X9358501Y-93992999D01*
X4768501Y-76152999D02*
X3518501Y-77402999D01*
X9358501Y-93992999D02*
X9358501Y-118152999D01*
X3518501Y-77402999D02*
X3518501Y-88152999D01*
%TO.N,Net-(J26-Pin_3)*%
X5268501Y-87152999D02*
X14438501Y-96322999D01*
X14438501Y-96322999D02*
X14438501Y-118152999D01*
%TO.N,Net-(J26-Pin_6)*%
X6818501Y-93452999D02*
X6818501Y-118152999D01*
X3118501Y-72552999D02*
X3118501Y-89752999D01*
X5018501Y-70652999D02*
X3118501Y-72552999D01*
X3118501Y-89752999D02*
X6818501Y-93452999D01*
%TO.N,Net-(J27-Pin_3)*%
X5018501Y-48152999D02*
X5018501Y-45652999D01*
X14438501Y-36232999D02*
X14438501Y-18152999D01*
X5018501Y-45652999D02*
X14438501Y-36232999D01*
%TO.N,Net-(J27-Pin_4)*%
X5018501Y-53902999D02*
X3818501Y-52702999D01*
X11898501Y-37272999D02*
X11898501Y-18152999D01*
X3818501Y-52702999D02*
X3818501Y-45352999D01*
X3818501Y-45352999D02*
X11898501Y-37272999D01*
%TO.N,Net-(J27-Pin_5)*%
X5018501Y-59652999D02*
X3418501Y-58052999D01*
X3418501Y-58052999D02*
X3418501Y-43752999D01*
X3418501Y-43752999D02*
X9358501Y-37812999D01*
X9358501Y-37812999D02*
X9358501Y-18152999D01*
%TO.N,Net-(J1-Pin_3)*%
X102438501Y-35232999D02*
X102438501Y-18152999D01*
X95518501Y-42152999D02*
X102438501Y-35232999D01*
%TO.N,Net-(J1-Pin_4)*%
X95518501Y-49652999D02*
X94818501Y-48952999D01*
X94818501Y-48952999D02*
X94818501Y-39352999D01*
X94818501Y-39352999D02*
X99898501Y-34272999D01*
X99898501Y-34272999D02*
X99898501Y-18152999D01*
%TO.N,Net-(J1-Pin_6)*%
X95518501Y-64652999D02*
X94018501Y-63152999D01*
X94018501Y-63152999D02*
X94018501Y-18952999D01*
X94018501Y-18952999D02*
X94818501Y-18152999D01*
%TO.N,Net-(J1-Pin_5)*%
X97358501Y-34312999D02*
X97358501Y-18152999D01*
X95518501Y-57152999D02*
X94418501Y-56052999D01*
X94418501Y-37252999D02*
X97358501Y-34312999D01*
X94418501Y-56052999D02*
X94418501Y-37252999D01*
%TO.N,Net-(J2-Pin_4)*%
X99898501Y-103032999D02*
X99898501Y-118152999D01*
X94818501Y-97952999D02*
X99898501Y-103032999D01*
X94818501Y-87852999D02*
X94818501Y-97952999D01*
X95518501Y-87152999D02*
X94818501Y-87852999D01*
%TO.N,Net-(J2-Pin_5)*%
X95518501Y-79652999D02*
X94418501Y-80752999D01*
X97358501Y-102492999D02*
X97358501Y-118152999D01*
X94418501Y-80752999D02*
X94418501Y-99552999D01*
X94418501Y-99552999D02*
X97358501Y-102492999D01*
%TO.N,Net-(J2-Pin_3)*%
X102438501Y-103572999D02*
X102438501Y-118152999D01*
X95518501Y-96652999D02*
X102438501Y-103572999D01*
X95518501Y-94652999D02*
X95518501Y-96652999D01*
%TO.N,Net-(J4-Pin_5)*%
X119358501Y-34812999D02*
X119358501Y-18152999D01*
X115418501Y-38752999D02*
X119358501Y-34812999D01*
X116518501Y-59652999D02*
X115418501Y-58552999D01*
X115418501Y-58552999D02*
X115418501Y-38752999D01*
%TO.N,Net-(J4-Pin_6)*%
X115018501Y-36652999D02*
X116818501Y-34852999D01*
X115018501Y-67152999D02*
X115018501Y-36652999D01*
X116818501Y-34852999D02*
X116818501Y-18152999D01*
X116518501Y-68652999D02*
X115018501Y-67152999D01*
%TO.N,Net-(J4-Pin_3)*%
X116518501Y-41652999D02*
X124438501Y-33732999D01*
X124438501Y-33732999D02*
X124438501Y-18152999D01*
%TO.N,Net-(J4-Pin_4)*%
X116518501Y-50652999D02*
X115818501Y-49952999D01*
X115818501Y-49952999D02*
X115818501Y-40352999D01*
X121898501Y-34272999D02*
X121898501Y-18152999D01*
X115818501Y-40352999D02*
X121898501Y-34272999D01*
%TO.N,Net-(J10-Pin_4)*%
X138518501Y-49152999D02*
X137418501Y-48052999D01*
X137418501Y-29252999D02*
X141358501Y-25312999D01*
X141358501Y-25312999D02*
X141358501Y-18152999D01*
X137418501Y-48052999D02*
X137418501Y-29252999D01*
%TO.N,Net-(J10-Pin_5)*%
X138518501Y-56152999D02*
X136518501Y-54152999D01*
X136518501Y-54152999D02*
X136518501Y-20452999D01*
X136518501Y-20452999D02*
X138818501Y-18152999D01*
%TO.N,Net-(J10-Pin_6)*%
X138818501Y-99452999D02*
X138818501Y-118152999D01*
X137018501Y-66152999D02*
X137018501Y-97652999D01*
X138518501Y-64652999D02*
X137018501Y-66152999D01*
X137018501Y-97652999D02*
X138818501Y-99452999D01*
%TO.N,Net-(J10-Pin_2)*%
X138518501Y-34652999D02*
X138518501Y-31652999D01*
X138518501Y-31652999D02*
X146438501Y-23732999D01*
X146438501Y-23732999D02*
X146438501Y-18152999D01*
%TO.N,Net-(J10-Pin_3)*%
X137818501Y-40452999D02*
X137818501Y-30852999D01*
X138518501Y-41152999D02*
X137818501Y-40452999D01*
X137818501Y-30852999D02*
X143898501Y-24772999D01*
X143898501Y-24772999D02*
X143898501Y-18152999D01*
%TO.N,Net-(J10-Pin_9)*%
X138518501Y-92152999D02*
X146438501Y-100072999D01*
X146438501Y-100072999D02*
X146438501Y-118152999D01*
X138518501Y-87152999D02*
X138518501Y-92152999D01*
%TO.N,Net-(J10-Pin_8)*%
X138518501Y-80152999D02*
X137818501Y-80852999D01*
X138518501Y-79652999D02*
X138518501Y-80152999D01*
X143898501Y-99532999D02*
X143898501Y-118152999D01*
X137818501Y-93452999D02*
X143898501Y-99532999D01*
X137818501Y-80852999D02*
X137818501Y-93452999D01*
%TO.N,Net-(J10-Pin_7)*%
X137418501Y-95552999D02*
X141358501Y-99492999D01*
X137418501Y-73752999D02*
X137418501Y-95552999D01*
X138518501Y-72652999D02*
X137418501Y-73752999D01*
X138518501Y-71652999D02*
X138518501Y-72652999D01*
X141358501Y-99492999D02*
X141358501Y-118152999D01*
%TO.N,Net-(J11-Pin_6)*%
X161968501Y-17002999D02*
X160818501Y-18152999D01*
X158018501Y-56652999D02*
X170518501Y-44152999D01*
X169588501Y-30722999D02*
X169588501Y-17676653D01*
X170518501Y-31652999D02*
X169588501Y-30722999D01*
X168914847Y-17002999D02*
X161968501Y-17002999D01*
X169588501Y-17676653D02*
X168914847Y-17002999D01*
X170518501Y-44152999D02*
X170518501Y-31652999D01*
%TO.N,Net-(J11-Pin_3)*%
X158518501Y-36027999D02*
X158518501Y-35452999D01*
X168438501Y-25532999D02*
X168438501Y-18152999D01*
X158518501Y-35452999D02*
X168438501Y-25532999D01*
%TO.N,Net-(J11-Pin_4)*%
X157518501Y-34152999D02*
X165898501Y-25772999D01*
X158518501Y-40652999D02*
X157518501Y-39652999D01*
X165898501Y-25772999D02*
X165898501Y-18152999D01*
X157518501Y-39652999D02*
X157518501Y-34152999D01*
%TO.N,Net-(J11-Pin_5)*%
X157118501Y-32552999D02*
X163358501Y-26312999D01*
X157768501Y-49402999D02*
X157118501Y-48752999D01*
X157118501Y-48752999D02*
X157118501Y-32552999D01*
X163358501Y-26312999D02*
X163358501Y-18152999D01*
%TO.N,Net-(J12-Pin_4)*%
X165898501Y-99032999D02*
X165898501Y-118152999D01*
X158331001Y-79840499D02*
X157518501Y-80652999D01*
X157518501Y-90652999D02*
X165898501Y-99032999D01*
X157518501Y-80652999D02*
X157518501Y-90652999D01*
%TO.N,Net-(J12-Pin_3)*%
X158518501Y-87652999D02*
X158518501Y-90652999D01*
X168438501Y-100572999D02*
X168438501Y-118152999D01*
X158518501Y-90652999D02*
X168438501Y-100572999D01*
%TO.N,Net-(J12-Pin_5)*%
X158018501Y-72652999D02*
X157118501Y-73552999D01*
X157118501Y-73552999D02*
X157118501Y-108404471D01*
X157118501Y-108404471D02*
X163358501Y-114644471D01*
X163358501Y-114644471D02*
X163358501Y-118152999D01*
%TO.N,Net-(J21-Pin_5)*%
X-17731499Y-84152999D02*
X-17731499Y-113062999D01*
X-17731499Y-113062999D02*
X-12641499Y-118152999D01*
%TO.N,Net-(J2-Pin_6)*%
X94018501Y-117352999D02*
X94818501Y-118152999D01*
X94018501Y-73652999D02*
X94018501Y-117352999D01*
X95518501Y-72152999D02*
X94018501Y-73652999D01*
%TO.N,Net-(J5-Pin_6)*%
X115818501Y-78352999D02*
X115818501Y-117152999D01*
X115818501Y-117152999D02*
X116818501Y-118152999D01*
X116518501Y-77652999D02*
X115818501Y-78352999D01*
%TO.N,Net-(J12-Pin_6)*%
X169588501Y-76222999D02*
X169588501Y-118629345D01*
X161968501Y-119302999D02*
X160818501Y-118152999D01*
X169588501Y-118629345D02*
X168914847Y-119302999D01*
X158018501Y-64652999D02*
X169588501Y-76222999D01*
X168914847Y-119302999D02*
X161968501Y-119302999D01*
%TO.N,Net-(J13-Pin_6)*%
X-29521499Y-72652999D02*
X-37181499Y-80312999D01*
X-37181499Y-80312999D02*
X-37181499Y-118152999D01*
%TO.N,Net-(J18-Pin_6)*%
X50818501Y-69852999D02*
X53018501Y-67652999D01*
X50818501Y-118152999D02*
X50818501Y-69852999D01*
%TO.N,Net-(J21-Pin_6)*%
X-12731499Y-75152999D02*
X-18481499Y-80902999D01*
X-18481499Y-80902999D02*
X-18481499Y-114852999D01*
X-18481499Y-114852999D02*
X-15181499Y-118152999D01*
%TO.N,Net-(J25-Pin_6)*%
X73018501Y-79152999D02*
X71518501Y-80652999D01*
X71518501Y-116852999D02*
X72818501Y-118152999D01*
X71518501Y-80652999D02*
X71518501Y-116852999D01*
%TO.N,Net-(J27-Pin_6)*%
X3018501Y-63152999D02*
X3018501Y-41902999D01*
X3018501Y-41902999D02*
X6818501Y-38102999D01*
X6818501Y-38102999D02*
X6818501Y-18152999D01*
X4768501Y-64902999D02*
X3018501Y-63152999D01*
%TD*%
M02*
