M48
; DRILL file {KiCad (6.0.5)} date Sat Aug 13 10:07:46 2022
; FORMAT={-:-/ absolute / inch / decimal}
; #@! TF.CreationDate,2022-08-13T10:07:46+02:00
; #@! TF.GenerationSoftware,Kicad,Pcbnew,(6.0.5)
; #@! TF.FileFunction,Plated,1,2,PTH
FMAT,2
INCH
; #@! TA.AperFunction,Plated,PTH,ViaDrill
T1C0.0157
; #@! TA.AperFunction,Plated,PTH,ComponentDrill
T2C0.0197
; #@! TA.AperFunction,Plated,PTH,ComponentDrill
T3C0.0236
; #@! TA.AperFunction,Plated,PTH,ViaDrill
T4C0.0315
; #@! TA.AperFunction,Plated,PTH,ComponentDrill
T5C0.0315
; #@! TA.AperFunction,Plated,PTH,ComponentDrill
T6C0.0394
; #@! TA.AperFunction,Plated,PTH,ComponentDrill
T7C0.0433
; #@! TA.AperFunction,Plated,PTH,ComponentDrill
T8C0.0472
; #@! TA.AperFunction,Plated,PTH,ComponentDrill
T9C0.0492
; #@! TA.AperFunction,Plated,PTH,ComponentDrill
T10C0.0787
; #@! TA.AperFunction,Plated,PTH,ComponentDrill
T11C0.1260
%
G90
G05
T1
X13.086Y-0.3337
X13.1157Y-0.4862
X13.1748Y-1.6673
X13.1945Y-2.1201
X13.1984Y-1.1161
X13.2575Y-2.6043
X13.2929Y-1.4508
X13.3165Y-4.8287
X13.3519Y-2.3091
X13.411Y-0.565
X13.4267Y-1.628
X13.4307Y-2.1398
X13.4307Y-4.3169
X13.4504Y-3.3209
X13.4543Y-1.1161
X13.4718Y-0.7549
X13.4976Y-3.5453
X13.5094Y-1.4508
X13.5291Y-1.9232
X13.537Y-3.8051
X13.6197Y-2.8917
X13.6315Y-2.6122
X13.6315Y-3.3563
X13.6529Y-1.1121
X13.6984Y-3.8642
X13.7063Y-0.3878
X13.7102Y-1.8445
X13.7102Y-2.0492
X13.7141Y-2.376
X13.726Y-2.6161
X13.7456Y-5.0335
X13.785Y-3.4114
X13.7968Y-2.8917
X13.8047Y-1.8642
X13.8047Y-2.1122
X13.8104Y-1.3995
X13.8677Y-3.6752
X13.8795Y-3.5374
X13.9228Y-1.5965
X13.9779Y-2.4862
X14.0212Y-2.2697
X14.0252Y-2.1398
X14.0252Y-2.8799
X14.0645Y-1.7421
X14.1039Y-2.0453
X14.1748Y-1.4193
X14.2811Y-2.502
X14.3047Y-1.3287
X14.3047Y-2.4311
X14.3244Y-1.0492
X14.3598Y-2.1437
X14.3598Y-2.2657
X14.3716Y-1.2303
X14.3834Y-1.5098
X14.3834Y-2.8169
X14.4149Y-0.2303
X14.4149Y-0.4272
X14.5015Y-1.6161
X14.5055Y-2.6437
X14.5842Y-2.0965
X14.6039Y-3.7579
X14.6512Y-3.3642
X14.6708Y-0.5453
X14.7732Y-3.628
X14.848Y-5.2894
X14.8677Y-5.5059
X14.8756Y-0.9035
X14.8874Y-1.2933
X14.9189Y-1.7815
X14.9346Y-1.5217
X14.9425Y-3.5571
X14.9504Y-1.6201
X14.9582Y-1.187
X14.9661Y-0.4665
X14.9797Y-1.4648
X15.0252Y-1.5965
X15.037Y-3.5571
X15.0842Y-1.6004
X15.096Y-3.313
X15.1039Y-0.7815
X15.1315Y-1.8957
X15.1315Y-3.5571
X15.1354Y-1.1043
X15.1354Y-1.5965
X15.1551Y-0.5768
X15.1945Y-1.2854
X15.201Y-1.2368
X15.2299Y-1.3327
X15.2338Y-1.0886
X15.2496Y-3.8484
X15.2535Y-1.8287
X15.2575Y-1.9783
X15.2602Y-1.1255
X15.2811Y-0.2894
X15.2889Y-4.0295
X15.3005Y-1.1632
X15.3204Y-1.2933
X15.3204Y-1.435
X15.348Y-0.5689
X15.3638Y-3.6909
X15.3913Y-1.8445
X15.4031Y-1.2264
X15.4031Y-1.75
X15.4189Y-1.5886
X15.5055Y-2.9587
X15.5094Y-1.0177
X15.5488Y-3.7854
X15.5645Y-1.565
X15.5764Y-1.439
X15.5803Y-2.0965
X15.5921Y-1.8445
X15.596Y-3.6791
X15.6039Y-3.1752
X15.6551Y-3.1791
X15.6551Y-3.6752
X15.6826Y-2.7303
X15.6984Y-3.2106
X15.7338Y-3.6791
X15.7456Y-2.435
X15.7535Y-2.5532
X15.8047Y-1.9862
X15.8323Y-1.4823
X15.8401Y-0.9075
X15.8401Y-1.1673
X15.8413Y-2.5807
X15.911Y-0.4862
X15.911Y-2.8917
X15.9149Y-3.0925
X16.0173Y-2.4744
X16.0252Y-2.7382
X16.0409Y-1.1043
X16.0882Y-1.7539
X16.1118Y-3.5138
X16.1236Y-2.628
X16.1669Y-0.5138
X16.1669Y-4.8366
X16.1669Y-5.0138
X16.1984Y-3.1673
X16.2105Y-3.0019
X16.2299Y-0.8209
X16.2653Y-4.2894
X16.2693Y-3.0098
X16.2811Y-3.5728
X16.2929Y-2.9154
X16.3165Y-3.2382
X16.3441Y-3.5965
X16.3874Y-4.1043
X16.3913Y-2.7382
X16.4622Y-3.1043
X16.4701Y-2.5413
X16.4779Y-2.7028
X16.5134Y-1.8996
X16.5173Y-1.1752
X16.5252Y-3.7657
X16.5291Y-2.4508
X16.6236Y-0.9469
X16.6472Y-2.5374
X16.726Y-2.7028
X16.7417Y-1.6004
X16.7456Y-2.1634
X16.7929Y-3.1752
X17.0055Y-4.1791
X17.6236Y-5.5453
X17.8204Y-5.4862
T2
X13.2378Y-3.6752
X13.2654Y-3.6084
X13.2654Y-3.742
X13.3323Y-3.5807
X13.3323Y-3.7697
X13.3991Y-3.6084
X13.3991Y-3.742
X13.4267Y-3.6752
X14.0645Y-0.5059
X14.0922Y-0.4391
X14.0922Y-0.5727
X14.159Y-0.4114
X14.159Y-0.6004
X14.2258Y-0.4391
X14.2258Y-0.5727
X14.2535Y-0.5059
X17.5871Y-0.9154
X17.6148Y-0.8486
X17.6148Y-0.9822
X17.6816Y-0.8209
X17.6816Y-1.0099
X17.7484Y-0.8486
X17.7484Y-0.9822
X17.7761Y-0.9154
T4
X14.0899Y-1.2313
X14.1451Y-1.2943
X14.1608Y-1.1526
T5
X13.9435Y-1.8368
X13.9435Y-1.9368
X13.9435Y-2.0368
X13.9435Y-2.1368
X14.2435Y-1.8368
X14.2435Y-1.9368
X14.2435Y-2.0368
X14.2435Y-2.1368
T6
X13.1389Y-4.7335
X13.2389Y-4.7335
X13.4267Y-2.7293
X13.4464Y-2.4931
X13.5267Y-2.7293
X13.5464Y-2.4931
X13.6267Y-2.7293
X13.6464Y-2.4931
X13.7267Y-2.7293
X13.7464Y-2.4931
X13.8265Y-0.788
X13.8267Y-2.7293
X13.8301Y-0.9203
X13.8638Y-4.7472
X13.8638Y-4.8472
X13.9267Y-2.7293
X14.0267Y-2.7293
X14.3478Y-0.871
X14.5169Y-5.3484
X14.5169Y-5.4484
X14.5169Y-5.5484
X14.5169Y-5.6484
X14.5716Y-0.2815
X14.5716Y-3.5209
X14.5716Y-3.6209
X14.6716Y-0.2815
X14.7716Y-0.2815
X14.8716Y-0.2815
X15.7334Y-0.2929
X15.7334Y-0.3929
X15.7334Y-0.4929
X15.7334Y-0.5929
X15.7334Y-0.6929
X15.7334Y-0.7929
X15.7334Y-0.8929
X15.7334Y-0.9929
X15.7334Y-1.0929
X15.7334Y-1.1929
X15.7334Y-1.2929
X15.7334Y-1.3929
X15.7334Y-1.4929
X15.7334Y-1.5929
X15.7334Y-1.6929
X15.7334Y-1.7929
X15.7334Y-1.8929
X15.7334Y-1.9929
X15.7334Y-2.0929
X15.7334Y-2.1929
X15.8055Y-3.5925
X15.9055Y-3.5925
X16.0055Y-3.5925
X16.1334Y-3.3346
X16.2334Y-3.3346
X16.2539Y-3.8177
X16.2539Y-3.9177
X16.2539Y-4.0177
X16.2539Y-4.1177
X16.3334Y-3.3346
X16.4039Y-4.3677
X16.4334Y-3.3346
X16.4539Y-3.5409
X16.4783Y-4.7335
X16.4783Y-4.8335
X16.4783Y-4.9335
X16.4783Y-5.0335
X16.5039Y-4.3677
X16.5334Y-3.3346
X16.5539Y-3.5409
X16.6039Y-4.3677
X16.6334Y-3.3346
X16.6539Y-3.5409
X16.7039Y-4.3677
X16.7334Y-3.3346
X16.7539Y-3.5409
X16.8039Y-4.3677
X16.8334Y-3.3346
X16.8539Y-3.5409
X16.9039Y-4.3677
X16.9539Y-3.5409
X17.2564Y-0.3485
X17.2564Y-4.2855
X17.3564Y-0.3485
X17.3564Y-4.2855
X17.4564Y-0.3485
X17.4564Y-4.2855
X17.5564Y-0.3485
X17.5564Y-4.2855
X17.6564Y-0.3485
X17.6564Y-4.2855
X17.7563Y-5.6484
X17.7564Y-0.3485
X17.7564Y-4.2855
X17.8563Y-5.6484
T7
X15.6704Y-3.8559
X15.6704Y-4.4268
X15.7689Y-3.8559
X15.8673Y-3.8559
X15.8673Y-4.4268
T8
X13.2362Y-0.3839
X13.2362Y-0.4823
X13.2362Y-0.5808
X13.3346Y-0.3839
X13.3346Y-0.4823
X13.3346Y-0.5808
X13.5807Y-0.3839
X13.5807Y-0.5808
T9
X13.2338Y-3.9409
X13.2338Y-4.4331
X13.4307Y-3.9409
X13.4307Y-4.4331
X13.785Y-3.9409
X13.785Y-4.4331
X13.9819Y-3.9409
X13.9819Y-4.4331
X14.3362Y-3.9409
X14.3362Y-4.4331
X14.533Y-3.9409
X14.533Y-4.4331
X14.8874Y-3.9409
X14.8874Y-4.4331
X15.0842Y-3.9409
X15.0842Y-4.4331
T11
X13.3323Y-3.6752
X14.159Y-0.5059
X17.5252Y-3.8917
X17.6816Y-0.9154
T3
G00X13.0854Y-1.5778
M15
G01X13.0854Y-1.5345
M16
G05
G00X13.086Y-1.0994
M15
G01X13.086Y-1.0561
M16
G05
G00X13.086Y-2.0561
M15
G01X13.086Y-2.0128
M16
G05
G00X13.1819Y-1.499
M15
G01X13.1819Y-1.4557
M16
G05
G00X13.1825Y-1.0207
M15
G01X13.1825Y-0.9774
M16
G05
G00X13.1825Y-1.9774
M15
G01X13.1825Y-1.9341
M16
G05
G00X13.3276Y-1.5778
M15
G01X13.3276Y-1.5345
M16
G05
G00X13.3281Y-1.0994
M15
G01X13.3281Y-1.0561
M16
G05
G00X13.3281Y-2.0561
M15
G01X13.3281Y-2.0128
M16
G05
G00X13.4024Y-1.499
M15
G01X13.4024Y-1.4557
M16
G05
G00X13.4029Y-1.0207
M15
G01X13.4029Y-0.9774
M16
G05
G00X13.4029Y-1.9774
M15
G01X13.4029Y-1.9341
M16
G05
G00X13.55Y-1.5778
M15
G01X13.55Y-1.5345
M16
G05
G00X13.5506Y-1.0994
M15
G01X13.5506Y-1.0561
M16
G05
G00X13.5506Y-2.0561
M15
G01X13.5506Y-2.0128
M16
G05
G00X15.0834Y-0.3061
M15
G01X15.0834Y-0.2825
M16
G05
G00X15.0834Y-0.4805
M15
G01X15.0834Y-0.4372
M16
G05
G00X15.4236Y-0.3061
M15
G01X15.4236Y-0.2825
M16
G05
G00X15.4236Y-0.4805
M15
G01X15.4236Y-0.4372
M16
G05
T10
G00X15.5445Y-4.1669
M15
G01X15.5445Y-4.1354
M16
G05
G00X15.9933Y-4.1669
M15
G01X15.9933Y-4.1354
M16
G05
T0
M30
