M48
; DRILL file {KiCad (6.0.5)} date Sat Aug 13 10:07:46 2022
; FORMAT={-:-/ absolute / inch / decimal}
; #@! TF.CreationDate,2022-08-13T10:07:46+02:00
; #@! TF.GenerationSoftware,Kicad,Pcbnew,(6.0.5)
; #@! TF.FileFunction,NonPlated,1,2,NPTH
FMAT,2
INCH
; #@! TA.AperFunction,NonPlated,NPTH,ComponentDrill
T1C0.0197
; #@! TA.AperFunction,NonPlated,NPTH,ComponentDrill
T2C0.0256
; #@! TA.AperFunction,NonPlated,NPTH,ComponentDrill
T3C0.0728
; #@! TA.AperFunction,NonPlated,NPTH,ComponentDrill
T4C0.1260
%
G90
G05
T1
X13.5439Y-4.5118
X13.5439Y-4.6102
X13.5734Y-4.5118
X13.5734Y-4.6102
X13.6029Y-4.5118
X13.6029Y-4.6102
X13.6325Y-4.5118
X13.6325Y-4.6102
X14.6019Y-5.1417
X14.6019Y-5.2402
X14.6315Y-5.1417
X14.6315Y-5.2402
X14.661Y-5.1417
X14.661Y-5.2402
X14.6905Y-5.1417
X14.6905Y-5.2402
X16.1128Y-4.5118
X16.1128Y-4.6102
X16.1423Y-4.5118
X16.1423Y-4.6102
X16.1718Y-4.5118
X16.1718Y-4.6102
X16.2014Y-4.5118
X16.2014Y-4.6102
X16.3736Y-5.1417
X16.3736Y-5.2402
X16.4031Y-5.1417
X16.4031Y-5.2402
X16.4327Y-5.1417
X16.4327Y-5.2402
X16.4622Y-5.1417
X16.4622Y-5.2402
X17.3628Y-4.5118
X17.3628Y-4.6102
X17.3923Y-4.5118
X17.3923Y-4.6102
X17.4218Y-4.5118
X17.4218Y-4.6102
X17.4514Y-4.5118
X17.4514Y-4.6102
T2
X15.1397Y-0.4392
X15.3673Y-0.4392
T3
X13.1551Y-4.187
X13.5094Y-4.187
X13.7063Y-4.187
X14.0606Y-4.187
X14.2575Y-4.187
X14.6118Y-4.187
X14.8086Y-4.187
X15.163Y-4.187
T4
X13.1783Y-5.6441
X15.4823Y-3.5815
X16.7767Y-0.3323
X16.9145Y-3.9543
X17.8169Y-4.7378
T0
M30
