%TF.GenerationSoftware,KiCad,Pcbnew,(6.0.5)*%
%TF.CreationDate,2022-08-13T10:07:46+02:00*%
%TF.ProjectId,clarinoid-devboard,636c6172-696e-46f6-9964-2d646576626f,rev?*%
%TF.SameCoordinates,Original*%
%TF.FileFunction,Profile,NP*%
%FSLAX46Y46*%
G04 Gerber Fmt 4.6, Leading zero omitted, Abs format (unit mm)*
G04 Created by KiCad (PCBNEW (6.0.5)) date 2022-08-13 10:07:46*
%MOMM*%
%LPD*%
G01*
G04 APERTURE LIST*
%TA.AperFunction,Profile*%
%ADD10C,0.100000*%
%TD*%
G04 APERTURE END LIST*
D10*
X365139304Y-130850004D02*
G75*
G03*
X364139304Y-131850034I-104J-999896D01*
G01*
X419139304Y-132850034D02*
X422139304Y-132850034D01*
X331139266Y-113850034D02*
G75*
G03*
X332139304Y-114850034I1000034J34D01*
G01*
X332139334Y-146850004D02*
X363139304Y-146850034D01*
X332139334Y-116850064D02*
X342889304Y-116850034D01*
X456139304Y-56850034D02*
X456139304Y-103100034D01*
X422139304Y-132850004D02*
G75*
G03*
X423139304Y-131850034I96J999904D01*
G01*
X456139304Y-103100034D02*
X456139304Y-113850034D01*
X444139304Y-114850034D02*
X455139304Y-114850034D01*
X347139304Y-114850034D02*
X408139304Y-114850034D01*
X414889342Y-132850132D02*
G75*
G03*
X414889342Y-130850068I-42J1000032D01*
G01*
X332139304Y-114850034D02*
X342889304Y-114850034D01*
X374139342Y-130850132D02*
G75*
G03*
X374139342Y-132850068I-42J-999968D01*
G01*
X332139304Y-4850034D02*
X455139304Y-4850034D01*
X412389304Y-114849966D02*
G75*
G03*
X412389304Y-116850034I-4J-1000034D01*
G01*
X363139304Y-146850004D02*
G75*
G03*
X364139304Y-145850034I96J999904D01*
G01*
X367139304Y-132850034D02*
X369889304Y-132850034D01*
X456139334Y-44100034D02*
X456139304Y-5850034D01*
X369889304Y-130850034D02*
X365139304Y-130850034D01*
X439889304Y-116850034D02*
X424139334Y-116850064D01*
X332139334Y-116850034D02*
G75*
G03*
X331139334Y-117850064I66J-1000066D01*
G01*
X456139266Y-5850034D02*
G75*
G03*
X455139304Y-4850034I-999966J34D01*
G01*
X347139304Y-114849966D02*
G75*
G03*
X347139304Y-116850034I-4J-1000034D01*
G01*
X424139334Y-116850034D02*
G75*
G03*
X423139334Y-117850064I66J-1000066D01*
G01*
X342889304Y-116849966D02*
G75*
G03*
X342889304Y-114850034I-4J999966D01*
G01*
X408139304Y-116850034D02*
X347139304Y-116850034D01*
X455139304Y-146850004D02*
G75*
G03*
X456139304Y-145850034I96J999904D01*
G01*
X419139342Y-130850132D02*
G75*
G03*
X419139342Y-132850068I-42J-999968D01*
G01*
X456139334Y-44100034D02*
X456139304Y-56850034D01*
X412389304Y-116850034D02*
X420139304Y-116850034D01*
X456139304Y-145850034D02*
X456139304Y-117850034D01*
X364139304Y-131850034D02*
X364139304Y-145850034D01*
X444139304Y-114849966D02*
G75*
G03*
X444139304Y-116850034I-4J-1000034D01*
G01*
X414889304Y-132850034D02*
X374139304Y-132850034D01*
X420139304Y-130850004D02*
G75*
G03*
X421139304Y-129850034I96J999904D01*
G01*
X331139296Y-145850004D02*
G75*
G03*
X332139334Y-146850004I1000004J4D01*
G01*
X369889342Y-132850132D02*
G75*
G03*
X369889342Y-130850068I-42J1000032D01*
G01*
X366139266Y-145850034D02*
G75*
G03*
X367139304Y-146850034I1000034J34D01*
G01*
X374139304Y-130850034D02*
X414889304Y-130850034D01*
X421139304Y-117850034D02*
X421139304Y-129850034D01*
X456139366Y-117850034D02*
G75*
G03*
X455139304Y-116850034I-1000066J-66D01*
G01*
X439889304Y-116849966D02*
G75*
G03*
X439889304Y-114850034I-4J999966D01*
G01*
X331139304Y-113850034D02*
X331139304Y-5850034D01*
X408139304Y-116849966D02*
G75*
G03*
X408139304Y-114850034I-4J999966D01*
G01*
X367139304Y-132850004D02*
G75*
G03*
X366139304Y-133850034I-104J-999896D01*
G01*
X331139334Y-145850004D02*
X331139334Y-117850064D01*
X455139304Y-116850034D02*
X444139304Y-116850034D01*
X455139304Y-146850034D02*
X367139304Y-146850034D01*
X366139304Y-145850034D02*
X366139304Y-133850034D01*
X423139304Y-131850034D02*
X423139334Y-117850064D01*
X421139366Y-117850034D02*
G75*
G03*
X420139304Y-116850034I-1000066J-66D01*
G01*
X420139304Y-130850034D02*
X419139304Y-130850034D01*
X455139304Y-114850104D02*
G75*
G03*
X456139304Y-113850034I-4J1000004D01*
G01*
X332139304Y-4850104D02*
G75*
G03*
X331139304Y-5850034I-4J-999996D01*
G01*
X412389304Y-114850034D02*
X439889304Y-114850034D01*
M02*
