%TF.GenerationSoftware,KiCad,Pcbnew,(6.0.5)*%
%TF.CreationDate,2022-07-28T21:37:22+02:00*%
%TF.ProjectId,clarinoid-devboard,636c6172-696e-46f6-9964-2d646576626f,rev?*%
%TF.SameCoordinates,Original*%
%TF.FileFunction,Soldermask,Top*%
%TF.FilePolarity,Negative*%
%FSLAX46Y46*%
G04 Gerber Fmt 4.6, Leading zero omitted, Abs format (unit mm)*
G04 Created by KiCad (PCBNEW (6.0.5)) date 2022-07-28 21:37:22*
%MOMM*%
%LPD*%
G01*
G04 APERTURE LIST*
G04 Aperture macros list*
%AMRoundRect*
0 Rectangle with rounded corners*
0 $1 Rounding radius*
0 $2 $3 $4 $5 $6 $7 $8 $9 X,Y pos of 4 corners*
0 Add a 4 corners polygon primitive as box body*
4,1,4,$2,$3,$4,$5,$6,$7,$8,$9,$2,$3,0*
0 Add four circle primitives for the rounded corners*
1,1,$1+$1,$2,$3*
1,1,$1+$1,$4,$5*
1,1,$1+$1,$6,$7*
1,1,$1+$1,$8,$9*
0 Add four rect primitives between the rounded corners*
20,1,$1+$1,$2,$3,$4,$5,0*
20,1,$1+$1,$4,$5,$6,$7,0*
20,1,$1+$1,$6,$7,$8,$9,0*
20,1,$1+$1,$8,$9,$2,$3,0*%
%AMFreePoly0*
4,1,14,0.354215,0.088284,0.450784,-0.008285,0.462500,-0.036569,0.462500,-0.060000,0.450784,-0.088284,0.422500,-0.100000,-0.422500,-0.100000,-0.450784,-0.088284,-0.462500,-0.060000,-0.462500,0.060000,-0.450784,0.088284,-0.422500,0.100000,0.325931,0.100000,0.354215,0.088284,0.354215,0.088284,$1*%
%AMFreePoly1*
4,1,14,0.450784,0.088284,0.462500,0.060000,0.462500,0.036569,0.450784,0.008285,0.354215,-0.088284,0.325931,-0.100000,-0.422500,-0.100000,-0.450784,-0.088284,-0.462500,-0.060000,-0.462500,0.060000,-0.450784,0.088284,-0.422500,0.100000,0.422500,0.100000,0.450784,0.088284,0.450784,0.088284,$1*%
%AMFreePoly2*
4,1,14,0.088284,0.450784,0.100000,0.422500,0.100000,-0.422500,0.088284,-0.450784,0.060000,-0.462500,-0.060000,-0.462500,-0.088284,-0.450784,-0.100000,-0.422500,-0.100000,0.325931,-0.088284,0.354215,0.008285,0.450784,0.036569,0.462500,0.060000,0.462500,0.088284,0.450784,0.088284,0.450784,$1*%
%AMFreePoly3*
4,1,14,-0.008285,0.450784,0.088284,0.354215,0.100000,0.325931,0.100000,-0.422500,0.088284,-0.450784,0.060000,-0.462500,-0.060000,-0.462500,-0.088284,-0.450784,-0.100000,-0.422500,-0.100000,0.422500,-0.088284,0.450784,-0.060000,0.462500,-0.036569,0.462500,-0.008285,0.450784,-0.008285,0.450784,$1*%
%AMFreePoly4*
4,1,14,0.450784,0.088284,0.462500,0.060000,0.462500,-0.060000,0.450784,-0.088284,0.422500,-0.100000,-0.325931,-0.100000,-0.354215,-0.088284,-0.450784,0.008285,-0.462500,0.036569,-0.462500,0.060000,-0.450784,0.088284,-0.422500,0.100000,0.422500,0.100000,0.450784,0.088284,0.450784,0.088284,$1*%
%AMFreePoly5*
4,1,14,0.450784,0.088284,0.462500,0.060000,0.462500,-0.060000,0.450784,-0.088284,0.422500,-0.100000,-0.422500,-0.100000,-0.450784,-0.088284,-0.462500,-0.060000,-0.462500,-0.036569,-0.450784,-0.008285,-0.354215,0.088284,-0.325931,0.100000,0.422500,0.100000,0.450784,0.088284,0.450784,0.088284,$1*%
%AMFreePoly6*
4,1,14,0.088284,0.450784,0.100000,0.422500,0.100000,-0.325931,0.088284,-0.354215,-0.008285,-0.450784,-0.036569,-0.462500,-0.060000,-0.462500,-0.088284,-0.450784,-0.100000,-0.422500,-0.100000,0.422500,-0.088284,0.450784,-0.060000,0.462500,0.060000,0.462500,0.088284,0.450784,0.088284,0.450784,$1*%
%AMFreePoly7*
4,1,14,0.088284,0.450784,0.100000,0.422500,0.100000,-0.422500,0.088284,-0.450784,0.060000,-0.462500,0.036569,-0.462500,0.008285,-0.450784,-0.088284,-0.354215,-0.100000,-0.325931,-0.100000,0.422500,-0.088284,0.450784,-0.060000,0.462500,0.060000,0.462500,0.088284,0.450784,0.088284,0.450784,$1*%
G04 Aperture macros list end*
%ADD10C,0.775000*%
%ADD11C,1.000000*%
%ADD12C,0.500000*%
%ADD13R,1.300000X1.700000*%
%ADD14RoundRect,0.218750X-0.256250X0.218750X-0.256250X-0.218750X0.256250X-0.218750X0.256250X0.218750X0*%
%ADD15RoundRect,0.250000X-0.475000X0.250000X-0.475000X-0.250000X0.475000X-0.250000X0.475000X0.250000X0*%
%ADD16C,0.500000*%
%ADD17R,1.700000X1.700000*%
%ADD18O,1.700000X1.700000*%
%ADD19RoundRect,0.250000X0.475000X-0.250000X0.475000X0.250000X-0.475000X0.250000X-0.475000X-0.250000X0*%
%ADD20RoundRect,0.250000X0.625000X-0.312500X0.625000X0.312500X-0.625000X0.312500X-0.625000X-0.312500X0*%
%ADD21RoundRect,0.250000X-0.312500X-0.625000X0.312500X-0.625000X0.312500X0.625000X-0.312500X0.625000X0*%
%ADD22C,3.200000*%
%ADD23RoundRect,0.250000X0.250000X0.475000X-0.250000X0.475000X-0.250000X-0.475000X0.250000X-0.475000X0*%
%ADD24R,0.450000X1.475000*%
%ADD25R,0.700000X0.950000*%
%ADD26R,2.850000X2.250000*%
%ADD27C,1.850000*%
%ADD28C,2.000000*%
%ADD29C,3.450000*%
%ADD30C,2.390000*%
%ADD31R,7.340000X6.350000*%
%ADD32R,1.850000X3.500000*%
%ADD33R,1.000000X0.750000*%
%ADD34RoundRect,0.243750X-0.456250X0.243750X-0.456250X-0.243750X0.456250X-0.243750X0.456250X0.243750X0*%
%ADD35O,1.700000X2.800000*%
%ADD36C,6.200000*%
%ADD37C,0.800000*%
%ADD38C,6.400000*%
%ADD39R,6.400000X6.400000*%
%ADD40R,0.300000X0.800000*%
%ADD41R,0.800000X0.300000*%
%ADD42R,1.800000X1.800000*%
%ADD43FreePoly0,0.000000*%
%ADD44RoundRect,0.050000X-0.412500X-0.050000X0.412500X-0.050000X0.412500X0.050000X-0.412500X0.050000X0*%
%ADD45FreePoly1,0.000000*%
%ADD46FreePoly2,0.000000*%
%ADD47RoundRect,0.050000X-0.050000X-0.412500X0.050000X-0.412500X0.050000X0.412500X-0.050000X0.412500X0*%
%ADD48FreePoly3,0.000000*%
%ADD49FreePoly4,0.000000*%
%ADD50FreePoly5,0.000000*%
%ADD51FreePoly6,0.000000*%
%ADD52FreePoly7,0.000000*%
%ADD53C,0.650000*%
%ADD54R,0.300000X1.150000*%
%ADD55O,1.000000X1.600000*%
%ADD56O,1.000000X2.100000*%
%ADD57RoundRect,0.243750X0.456250X-0.243750X0.456250X0.243750X-0.456250X0.243750X-0.456250X-0.243750X0*%
%ADD58RoundRect,0.250000X0.312500X0.625000X-0.312500X0.625000X-0.312500X-0.625000X0.312500X-0.625000X0*%
%ADD59RoundRect,0.250000X-0.250000X-0.475000X0.250000X-0.475000X0.250000X0.475000X-0.250000X0.475000X0*%
%ADD60R,1.600000X1.600000*%
%ADD61O,1.600000X1.600000*%
%ADD62C,1.800000*%
%ADD63C,1.000000*%
%ADD64R,1.600000X0.700000*%
%ADD65R,1.500000X1.200000*%
%ADD66R,2.200000X1.200000*%
%ADD67R,1.500000X1.600000*%
%ADD68RoundRect,0.100000X-0.637500X-0.100000X0.637500X-0.100000X0.637500X0.100000X-0.637500X0.100000X0*%
%ADD69C,1.650000*%
%ADD70C,1.150000*%
%ADD71R,1.550000X0.300000*%
%ADD72R,2.750000X1.200000*%
%ADD73R,0.450000X0.600000*%
%ADD74RoundRect,0.150000X-0.512500X-0.150000X0.512500X-0.150000X0.512500X0.150000X-0.512500X0.150000X0*%
%ADD75R,1.650000X1.650000*%
%ADD76O,3.000000X6.000000*%
%ADD77RoundRect,0.150000X0.512500X0.150000X-0.512500X0.150000X-0.512500X-0.150000X0.512500X-0.150000X0*%
%ADD78C,1.600000*%
G04 APERTURE END LIST*
D10*
X359672056Y-32875729D02*
G75*
G03*
X359672056Y-32875729I-387500J0D01*
G01*
D11*
X363859304Y-176650034D02*
X364859304Y-176650034D01*
X364859304Y-176650034D02*
X364859304Y-172650034D01*
X364859304Y-172650034D02*
X363859304Y-172650034D01*
X363859304Y-172650034D02*
X363859304Y-176650034D01*
G36*
X363859304Y-176650034D02*
G01*
X364859304Y-176650034D01*
X364859304Y-172650034D01*
X363859304Y-172650034D01*
X363859304Y-176650034D01*
G37*
D10*
X360072056Y-29275729D02*
G75*
G03*
X360072056Y-29275729I-387500J0D01*
G01*
X358272056Y-31275729D02*
G75*
G03*
X358272056Y-31275729I-387500J0D01*
G01*
D12*
X450843589Y-83440034D02*
X450986446Y-83725748D01*
X450986446Y-84297176D01*
X450843589Y-84582891D01*
X450700732Y-84725748D01*
X450415018Y-84868605D01*
X449557875Y-84868605D01*
X449272161Y-84725748D01*
X449129304Y-84582891D01*
X448986446Y-84297176D01*
X448986446Y-83725748D01*
X449129304Y-83440034D01*
X450986446Y-81725748D02*
X450843589Y-82011462D01*
X450557875Y-82154319D01*
X447986446Y-82154319D01*
X450986446Y-79297176D02*
X449415018Y-79297176D01*
X449129304Y-79440034D01*
X448986446Y-79725748D01*
X448986446Y-80297176D01*
X449129304Y-80582891D01*
X450843589Y-79297176D02*
X450986446Y-79582891D01*
X450986446Y-80297176D01*
X450843589Y-80582891D01*
X450557875Y-80725748D01*
X450272161Y-80725748D01*
X449986446Y-80582891D01*
X449843589Y-80297176D01*
X449843589Y-79582891D01*
X449700732Y-79297176D01*
X450986446Y-77868605D02*
X448986446Y-77868605D01*
X449557875Y-77868605D02*
X449272161Y-77725748D01*
X449129304Y-77582891D01*
X448986446Y-77297176D01*
X448986446Y-77011462D01*
X450986446Y-76011462D02*
X448986446Y-76011462D01*
X447986446Y-76011462D02*
X448129304Y-76154319D01*
X448272161Y-76011462D01*
X448129304Y-75868605D01*
X447986446Y-76011462D01*
X448272161Y-76011462D01*
X448986446Y-74582891D02*
X450986446Y-74582891D01*
X449272161Y-74582891D02*
X449129304Y-74440034D01*
X448986446Y-74154319D01*
X448986446Y-73725748D01*
X449129304Y-73440034D01*
X449415018Y-73297176D01*
X450986446Y-73297176D01*
X450986446Y-71440034D02*
X450843589Y-71725748D01*
X450700732Y-71868605D01*
X450415018Y-72011462D01*
X449557875Y-72011462D01*
X449272161Y-71868605D01*
X449129304Y-71725748D01*
X448986446Y-71440034D01*
X448986446Y-71011462D01*
X449129304Y-70725748D01*
X449272161Y-70582891D01*
X449557875Y-70440034D01*
X450415018Y-70440034D01*
X450700732Y-70582891D01*
X450843589Y-70725748D01*
X450986446Y-71011462D01*
X450986446Y-71440034D01*
X450986446Y-69154319D02*
X448986446Y-69154319D01*
X447986446Y-69154319D02*
X448129304Y-69297176D01*
X448272161Y-69154319D01*
X448129304Y-69011462D01*
X447986446Y-69154319D01*
X448272161Y-69154319D01*
X450986446Y-66440034D02*
X447986446Y-66440034D01*
X450843589Y-66440034D02*
X450986446Y-66725748D01*
X450986446Y-67297176D01*
X450843589Y-67582891D01*
X450700732Y-67725748D01*
X450415018Y-67868605D01*
X449557875Y-67868605D01*
X449272161Y-67725748D01*
X449129304Y-67582891D01*
X448986446Y-67297176D01*
X448986446Y-66725748D01*
X449129304Y-66440034D01*
X448986446Y-63154319D02*
X448986446Y-62011462D01*
X447986446Y-62725748D02*
X450557875Y-62725748D01*
X450843589Y-62582891D01*
X450986446Y-62297176D01*
X450986446Y-62011462D01*
X450843589Y-59868605D02*
X450986446Y-60154319D01*
X450986446Y-60725748D01*
X450843589Y-61011462D01*
X450557875Y-61154319D01*
X449415018Y-61154319D01*
X449129304Y-61011462D01*
X448986446Y-60725748D01*
X448986446Y-60154319D01*
X449129304Y-59868605D01*
X449415018Y-59725748D01*
X449700732Y-59725748D01*
X449986446Y-61154319D01*
X450843589Y-58582891D02*
X450986446Y-58297176D01*
X450986446Y-57725748D01*
X450843589Y-57440034D01*
X450557875Y-57297176D01*
X450415018Y-57297176D01*
X450129304Y-57440034D01*
X449986446Y-57725748D01*
X449986446Y-58154319D01*
X449843589Y-58440034D01*
X449557875Y-58582891D01*
X449415018Y-58582891D01*
X449129304Y-58440034D01*
X448986446Y-58154319D01*
X448986446Y-57725748D01*
X449129304Y-57440034D01*
X448986446Y-56440034D02*
X448986446Y-55297176D01*
X447986446Y-56011462D02*
X450557875Y-56011462D01*
X450843589Y-55868605D01*
X450986446Y-55582891D01*
X450986446Y-55297176D01*
X450986446Y-50725748D02*
X447986446Y-50725748D01*
X450843589Y-50725748D02*
X450986446Y-51011462D01*
X450986446Y-51582891D01*
X450843589Y-51868605D01*
X450700732Y-52011462D01*
X450415018Y-52154319D01*
X449557875Y-52154319D01*
X449272161Y-52011462D01*
X449129304Y-51868605D01*
X448986446Y-51582891D01*
X448986446Y-51011462D01*
X449129304Y-50725748D01*
X450843589Y-48154319D02*
X450986446Y-48440034D01*
X450986446Y-49011462D01*
X450843589Y-49297176D01*
X450557875Y-49440034D01*
X449415018Y-49440034D01*
X449129304Y-49297176D01*
X448986446Y-49011462D01*
X448986446Y-48440034D01*
X449129304Y-48154319D01*
X449415018Y-48011462D01*
X449700732Y-48011462D01*
X449986446Y-49440034D01*
X448986446Y-47011462D02*
X450986446Y-46297176D01*
X448986446Y-45582891D01*
X450986446Y-44440034D02*
X448986446Y-44440034D01*
X447986446Y-44440034D02*
X448129304Y-44582891D01*
X448272161Y-44440034D01*
X448129304Y-44297176D01*
X447986446Y-44440034D01*
X448272161Y-44440034D01*
X450843589Y-41725748D02*
X450986446Y-42011462D01*
X450986446Y-42582891D01*
X450843589Y-42868605D01*
X450700732Y-43011462D01*
X450415018Y-43154319D01*
X449557875Y-43154319D01*
X449272161Y-43011462D01*
X449129304Y-42868605D01*
X448986446Y-42582891D01*
X448986446Y-42011462D01*
X449129304Y-41725748D01*
X450843589Y-39297176D02*
X450986446Y-39582891D01*
X450986446Y-40154319D01*
X450843589Y-40440034D01*
X450557875Y-40582891D01*
X449415018Y-40582891D01*
X449129304Y-40440034D01*
X448986446Y-40154319D01*
X448986446Y-39582891D01*
X449129304Y-39297176D01*
X449415018Y-39154319D01*
X449700732Y-39154319D01*
X449986446Y-40582891D01*
X448272161Y-35725748D02*
X448129304Y-35582891D01*
X447986446Y-35297176D01*
X447986446Y-34582891D01*
X448129304Y-34297176D01*
X448272161Y-34154319D01*
X448557875Y-34011462D01*
X448843589Y-34011462D01*
X449272161Y-34154319D01*
X450986446Y-35868605D01*
X450986446Y-34011462D01*
%TO.C,H1*%
G36*
X441639304Y-95350034D02*
G01*
X448439304Y-95350034D01*
X448439304Y-102050034D01*
X441639304Y-102050034D01*
X441639304Y-95350034D01*
G37*
%TD*%
D13*
%TO.C,D12*%
X532526804Y-150850034D03*
X536026804Y-150850034D03*
%TD*%
D14*
%TO.C,D5*%
X384739304Y-95600034D03*
X384739304Y-97175034D03*
%TD*%
D15*
%TO.C,C4*%
X353084556Y-35125729D03*
X353084556Y-37025729D03*
%TD*%
D16*
%TO.C,U58*%
X442639304Y-146600034D03*
X441139304Y-149100034D03*
X443389304Y-149100034D03*
X442639304Y-149100034D03*
X441889304Y-149100034D03*
X441889304Y-146600034D03*
X443389304Y-146600034D03*
X441139304Y-146600034D03*
%TD*%
D17*
%TO.C,U38*%
X406539304Y-91250034D03*
D18*
X403999304Y-91250034D03*
X401459304Y-91250034D03*
%TD*%
D17*
%TO.C,J15*%
X517839304Y-106850034D03*
D18*
X515299304Y-106850034D03*
X512759304Y-106850034D03*
X510219304Y-106850034D03*
X507679304Y-106850034D03*
X505139304Y-106850034D03*
%TD*%
D19*
%TO.C,C21*%
X422789304Y-72150034D03*
X422789304Y-70250034D03*
%TD*%
D14*
%TO.C,D7*%
X383139304Y-95600034D03*
X383139304Y-97175034D03*
%TD*%
D20*
%TO.C,R35*%
X384339304Y-93850034D03*
X384339304Y-90925034D03*
%TD*%
D21*
%TO.C,R40*%
X343876804Y-60350034D03*
X346801804Y-60350034D03*
%TD*%
D16*
%TO.C,U35*%
X499889304Y-104100034D03*
X502389304Y-102600034D03*
X499889304Y-104850034D03*
X502389304Y-104850034D03*
X502389304Y-104100034D03*
X502389304Y-103350034D03*
X499889304Y-102600034D03*
X499889304Y-103350034D03*
%TD*%
D22*
%TO.C,H15*%
X426129304Y-8440034D03*
%TD*%
%TO.C,H10*%
X584439304Y-139250034D03*
%TD*%
D17*
%TO.C,J7*%
X418549304Y-175470034D03*
D18*
X416009304Y-175470034D03*
%TD*%
D15*
%TO.C,C1*%
X523339304Y-147000034D03*
X523339304Y-148900034D03*
%TD*%
D19*
%TO.C,C23*%
X426989304Y-72150034D03*
X426989304Y-70250034D03*
%TD*%
D21*
%TO.C,R10*%
X381746804Y-174050034D03*
X384671804Y-174050034D03*
%TD*%
D23*
%TO.C,C14*%
X369684556Y-29675729D03*
X367784556Y-29675729D03*
%TD*%
D19*
%TO.C,C29*%
X534539304Y-148900034D03*
X534539304Y-147000034D03*
%TD*%
D23*
%TO.C,C25*%
X488761804Y-144051034D03*
X486861804Y-144051034D03*
%TD*%
D14*
%TO.C,D9*%
X379939304Y-95600034D03*
X379939304Y-97175034D03*
%TD*%
D23*
%TO.C,C18*%
X358980304Y-175810034D03*
X357080304Y-175810034D03*
%TD*%
D19*
%TO.C,C20*%
X420689304Y-72150034D03*
X420689304Y-70250034D03*
%TD*%
D17*
%TO.C,J33*%
X435139304Y-140580034D03*
D18*
X435139304Y-143120034D03*
%TD*%
D24*
%TO.C,IC1*%
X345864304Y-94788034D03*
X346514304Y-94788034D03*
X347164304Y-94788034D03*
X347814304Y-94788034D03*
X348464304Y-94788034D03*
X349114304Y-94788034D03*
X349764304Y-94788034D03*
X350414304Y-94788034D03*
X350414304Y-88912034D03*
X349764304Y-88912034D03*
X349114304Y-88912034D03*
X348464304Y-88912034D03*
X347814304Y-88912034D03*
X347164304Y-88912034D03*
X346514304Y-88912034D03*
X345864304Y-88912034D03*
%TD*%
D20*
%TO.C,R19*%
X368184556Y-54138229D03*
X368184556Y-51213229D03*
%TD*%
D22*
%TO.C,H7*%
X452549304Y-120340034D03*
%TD*%
D17*
%TO.C,J25*%
X583839304Y-106850034D03*
D18*
X581299304Y-106850034D03*
X578759304Y-106850034D03*
X576219304Y-106850034D03*
X573679304Y-106850034D03*
X571139304Y-106850034D03*
%TD*%
D22*
%TO.C,H14*%
X429629304Y-100440034D03*
%TD*%
D16*
%TO.C,U53*%
X344389304Y-117100034D03*
X343639304Y-114600034D03*
X342889304Y-117100034D03*
X342139304Y-114600034D03*
X344389304Y-114600034D03*
X343639304Y-117100034D03*
X342889304Y-114600034D03*
X342139304Y-117100034D03*
%TD*%
%TO.C,U66*%
X458389304Y-131850034D03*
X455889304Y-131100034D03*
X455889304Y-130350034D03*
X455889304Y-129600034D03*
X458389304Y-130350034D03*
X458389304Y-129600034D03*
X458389304Y-131100034D03*
X455889304Y-131850034D03*
%TD*%
D17*
%TO.C,U2*%
X536709304Y-117784034D03*
D18*
X539249304Y-117784034D03*
X541789304Y-117784034D03*
X544329304Y-117784034D03*
X546869304Y-117784034D03*
X549409304Y-117784034D03*
X551949304Y-117784034D03*
X554489304Y-117784034D03*
X557029304Y-117784034D03*
X559569304Y-117784034D03*
X562109304Y-117784034D03*
X564649304Y-117784034D03*
X567189304Y-117784034D03*
X569729304Y-117784034D03*
X572269304Y-117784034D03*
X574809304Y-117784034D03*
X577349304Y-117784034D03*
X579889304Y-117784034D03*
X582429304Y-117784034D03*
X584969304Y-117784034D03*
%TD*%
D17*
%TO.C,J45*%
X438311804Y-108851034D03*
D18*
X440851804Y-108851034D03*
X443391804Y-108851034D03*
X445931804Y-108851034D03*
X448471804Y-108851034D03*
X451011804Y-108851034D03*
%TD*%
D25*
%TO.C,IC2*%
X375234304Y-177750034D03*
X376504304Y-177750034D03*
X377774304Y-177750034D03*
X379044304Y-177750034D03*
X379044304Y-171800034D03*
X377774304Y-171800034D03*
X376504304Y-171800034D03*
X375234304Y-171800034D03*
D26*
X377139304Y-174775034D03*
%TD*%
D16*
%TO.C,U25*%
X565889304Y-102600034D03*
X565889304Y-103350034D03*
X568389304Y-104100034D03*
X565889304Y-104850034D03*
X565889304Y-104100034D03*
X568389304Y-102600034D03*
X568389304Y-103350034D03*
X568389304Y-104850034D03*
%TD*%
D15*
%TO.C,C12*%
X348684556Y-32825729D03*
X348684556Y-34725729D03*
%TD*%
D17*
%TO.C,J21*%
X539839304Y-106850034D03*
D18*
X537299304Y-106850034D03*
X534759304Y-106850034D03*
X532219304Y-106850034D03*
X529679304Y-106850034D03*
X527139304Y-106850034D03*
%TD*%
D27*
%TO.C,SW4*%
X362139304Y-106350034D03*
X371139304Y-106350034D03*
D28*
X369139304Y-100100034D03*
X369139304Y-112600034D03*
X364139304Y-100100034D03*
X364139304Y-112600034D03*
%TD*%
D15*
%TO.C,C26*%
X527539304Y-147000034D03*
X527539304Y-148900034D03*
%TD*%
D29*
%TO.C,BT1*%
X402464449Y-152015736D03*
X347264449Y-168015736D03*
D30*
X338934449Y-152015736D03*
D31*
X335534449Y-160015736D03*
X414194449Y-160015736D03*
%TD*%
D17*
%TO.C,J48*%
X501919304Y-153820034D03*
D18*
X501919304Y-151280034D03*
X501919304Y-148740034D03*
X501919304Y-146200034D03*
%TD*%
D17*
%TO.C,J3*%
X522509304Y-113810034D03*
D18*
X519969304Y-113810034D03*
X517429304Y-113810034D03*
X514889304Y-113810034D03*
%TD*%
D32*
%TO.C,L1*%
X367045304Y-174535034D03*
X361445304Y-174535034D03*
%TD*%
D19*
%TO.C,C27*%
X350984556Y-55625729D03*
X350984556Y-53725729D03*
%TD*%
D21*
%TO.C,R4*%
X488749304Y-146351034D03*
X491674304Y-146351034D03*
%TD*%
D16*
%TO.C,U67*%
X582389304Y-111100034D03*
X581639304Y-108600034D03*
X580889304Y-111100034D03*
X581639304Y-111100034D03*
X582389304Y-108600034D03*
X580889304Y-108600034D03*
X580139304Y-111100034D03*
X580139304Y-108600034D03*
%TD*%
D17*
%TO.C,J30*%
X368729304Y-135850034D03*
D18*
X368729304Y-138390034D03*
X368729304Y-140930034D03*
X368729304Y-143470034D03*
%TD*%
D33*
%TO.C,SW6*%
X536539304Y-153675034D03*
X536539304Y-157425034D03*
X542539304Y-153675034D03*
X542539304Y-157425034D03*
%TD*%
D27*
%TO.C,SW3*%
X357139304Y-106350034D03*
X348139304Y-106350034D03*
D28*
X355139304Y-100100034D03*
X355139304Y-112600034D03*
X350139304Y-100100034D03*
X350139304Y-112600034D03*
%TD*%
D21*
%TO.C,R41*%
X351876804Y-60450034D03*
X354801804Y-60450034D03*
%TD*%
D16*
%TO.C,U37*%
X543889304Y-9350034D03*
X543889304Y-8600034D03*
X546389304Y-10100034D03*
X546389304Y-10850034D03*
X546389304Y-8600034D03*
X546389304Y-9350034D03*
X543889304Y-10850034D03*
X543889304Y-10100034D03*
%TD*%
D34*
%TO.C,D1*%
X405246137Y-172135034D03*
X405246137Y-174010034D03*
%TD*%
D16*
%TO.C,U64*%
X495389304Y-108600034D03*
X493889304Y-111100034D03*
X494639304Y-108600034D03*
X493139304Y-108600034D03*
X493889304Y-108600034D03*
X495389304Y-111100034D03*
X494639304Y-111100034D03*
X493139304Y-111100034D03*
%TD*%
%TO.C,U50*%
X416389304Y-133100034D03*
X415639304Y-133100034D03*
X414889304Y-130600034D03*
X414889304Y-133100034D03*
X414139304Y-133100034D03*
X416389304Y-130600034D03*
X415639304Y-130600034D03*
X414139304Y-130600034D03*
%TD*%
D15*
%TO.C,C15*%
X345309304Y-173100034D03*
X345309304Y-175000034D03*
%TD*%
D35*
%TO.C,J10*%
X332384556Y-51675729D03*
X334834556Y-49675729D03*
X338534556Y-51675729D03*
X340434556Y-49675729D03*
X344184556Y-51675729D03*
%TD*%
D17*
%TO.C,J43*%
X399629304Y-7440034D03*
D18*
X399629304Y-9980034D03*
X399629304Y-12520034D03*
X399629304Y-15060034D03*
X399629304Y-17600034D03*
X399629304Y-20140034D03*
X399629304Y-22680034D03*
X399629304Y-25220034D03*
X399629304Y-27760034D03*
X399629304Y-30300034D03*
X399629304Y-32840034D03*
X399629304Y-35380034D03*
X399629304Y-37920034D03*
X399629304Y-40460034D03*
X399629304Y-43000034D03*
X399629304Y-45540034D03*
X399629304Y-48080034D03*
X399629304Y-50620034D03*
X399629304Y-53160034D03*
X399629304Y-55700034D03*
%TD*%
D36*
%TO.C,H4*%
X548886659Y-155705034D03*
%TD*%
D16*
%TO.C,U59*%
X479889304Y-145100034D03*
X482389304Y-143600034D03*
X479889304Y-143600034D03*
X482389304Y-145850034D03*
X479889304Y-144350034D03*
X479889304Y-145850034D03*
X482389304Y-145100034D03*
X482389304Y-144350034D03*
%TD*%
D37*
%TO.C,H2*%
X340336360Y-91652978D03*
X336942248Y-91652978D03*
X338639304Y-95750034D03*
X336239304Y-93350034D03*
X336942248Y-95047090D03*
X341039304Y-93350034D03*
X338639304Y-90950034D03*
X340336360Y-95047090D03*
D38*
X338639304Y-93350034D03*
%TD*%
D21*
%TO.C,R7*%
X382939304Y-17635034D03*
X385864304Y-17635034D03*
%TD*%
D16*
%TO.C,U56*%
X346389304Y-149100034D03*
X344139304Y-146600034D03*
X344889304Y-149100034D03*
X345639304Y-149100034D03*
X344889304Y-146600034D03*
X346389304Y-146600034D03*
X345639304Y-146600034D03*
X344139304Y-149100034D03*
%TD*%
%TO.C,U65*%
X576639304Y-142600034D03*
X576639304Y-145100034D03*
X575139304Y-142600034D03*
X575889304Y-142600034D03*
X575139304Y-145100034D03*
X575889304Y-145100034D03*
X577389304Y-142600034D03*
X577389304Y-145100034D03*
%TD*%
%TO.C,U49*%
X437889304Y-114600034D03*
X439389304Y-114600034D03*
X438639304Y-117100034D03*
X437139304Y-117100034D03*
X438639304Y-114600034D03*
X437139304Y-114600034D03*
X439389304Y-117100034D03*
X437889304Y-117100034D03*
%TD*%
%TO.C,U57*%
X482389304Y-128350034D03*
X479889304Y-128350034D03*
X482389304Y-129850034D03*
X479889304Y-127600034D03*
X479889304Y-129850034D03*
X482389304Y-127600034D03*
X482389304Y-129100034D03*
X479889304Y-129100034D03*
%TD*%
D17*
%TO.C,J9*%
X461261804Y-6850034D03*
D18*
X463801804Y-6850034D03*
X466341804Y-6850034D03*
X468881804Y-6850034D03*
X471421804Y-6850034D03*
X473961804Y-6850034D03*
%TD*%
D39*
%TO.C,H1*%
X445239304Y-98850034D03*
%TD*%
D17*
%TO.C,J46*%
X484139304Y-160850034D03*
D18*
X486679304Y-160850034D03*
X489219304Y-160850034D03*
X491759304Y-160850034D03*
X494299304Y-160850034D03*
X496839304Y-160850034D03*
%TD*%
D16*
%TO.C,U63*%
X506389304Y-157600034D03*
X503889304Y-159100034D03*
X506389304Y-158350034D03*
X506389304Y-159850034D03*
X503889304Y-159850034D03*
X503889304Y-157600034D03*
X506389304Y-159100034D03*
X503889304Y-158350034D03*
%TD*%
D17*
%TO.C,J19*%
X527139304Y-6850034D03*
D18*
X529679304Y-6850034D03*
X532219304Y-6850034D03*
X534759304Y-6850034D03*
X537299304Y-6850034D03*
X539839304Y-6850034D03*
%TD*%
D17*
%TO.C,J47*%
X498109304Y-139850034D03*
D18*
X495569304Y-139850034D03*
X493029304Y-139850034D03*
X490489304Y-139850034D03*
X487949304Y-139850034D03*
X485409304Y-139850034D03*
%TD*%
D23*
%TO.C,C8*%
X360134556Y-23875729D03*
X358234556Y-23875729D03*
%TD*%
D19*
%TO.C,C5*%
X364784556Y-37025729D03*
X364784556Y-35125729D03*
%TD*%
%TO.C,C9*%
X348684556Y-31225729D03*
X348684556Y-29325729D03*
%TD*%
D17*
%TO.C,J42*%
X508179304Y-140725034D03*
D18*
X508179304Y-138185034D03*
X508179304Y-135645034D03*
X508179304Y-133105034D03*
X508179304Y-130565034D03*
X508179304Y-128025034D03*
X508179304Y-125485034D03*
X508179304Y-122945034D03*
%TD*%
D17*
%TO.C,J44*%
X427569304Y-84700034D03*
D18*
X425029304Y-84700034D03*
X422489304Y-84700034D03*
X419949304Y-84700034D03*
X417409304Y-84700034D03*
X414869304Y-84700034D03*
X412329304Y-84700034D03*
X409789304Y-84700034D03*
%TD*%
D16*
%TO.C,U27*%
X455889304Y-103350034D03*
X458389304Y-103350034D03*
X455889304Y-104850034D03*
X455889304Y-102600034D03*
X458389304Y-102600034D03*
X458389304Y-104100034D03*
X455889304Y-104100034D03*
X458389304Y-104850034D03*
%TD*%
D17*
%TO.C,J5*%
X341539304Y-63325034D03*
D18*
X344079304Y-63325034D03*
X346619304Y-63325034D03*
X349159304Y-63325034D03*
%TD*%
D40*
%TO.C,IC3*%
X492669304Y-121850034D03*
X492169304Y-121850034D03*
X491669304Y-121850034D03*
X491169304Y-121850034D03*
D41*
X490419304Y-122600034D03*
X490419304Y-123100034D03*
X490419304Y-123600034D03*
X490419304Y-124100034D03*
D40*
X491169304Y-124850034D03*
X491669304Y-124850034D03*
X492169304Y-124850034D03*
X492669304Y-124850034D03*
D41*
X493419304Y-124100034D03*
X493419304Y-123600034D03*
X493419304Y-123100034D03*
X493419304Y-122600034D03*
D42*
X491919304Y-123350034D03*
%TD*%
D43*
%TO.C,U45*%
X492961804Y-149060034D03*
D44*
X492961804Y-149460034D03*
X492961804Y-149860034D03*
X492961804Y-150260034D03*
D45*
X492961804Y-150660034D03*
D46*
X493549304Y-151247534D03*
D47*
X493949304Y-151247534D03*
X494349304Y-151247534D03*
X494749304Y-151247534D03*
D48*
X495149304Y-151247534D03*
D49*
X495736804Y-150660034D03*
D44*
X495736804Y-150260034D03*
X495736804Y-149860034D03*
X495736804Y-149460034D03*
D50*
X495736804Y-149060034D03*
D51*
X495149304Y-148472534D03*
D47*
X494749304Y-148472534D03*
X494349304Y-148472534D03*
X493949304Y-148472534D03*
D52*
X493549304Y-148472534D03*
%TD*%
D17*
%TO.C,J50*%
X484139304Y-133850034D03*
D18*
X486679304Y-133850034D03*
X489219304Y-133850034D03*
X491759304Y-133850034D03*
X494299304Y-133850034D03*
X496839304Y-133850034D03*
%TD*%
D53*
%TO.C,J2*%
X390329304Y-11155034D03*
X384549304Y-11155034D03*
D54*
X390789304Y-12220034D03*
X389989304Y-12220034D03*
X388689304Y-12220034D03*
X387689304Y-12220034D03*
X387189304Y-12220034D03*
X386189304Y-12220034D03*
X384889304Y-12220034D03*
X384089304Y-12220034D03*
X384389304Y-12220034D03*
X385189304Y-12220034D03*
X385689304Y-12220034D03*
X386689304Y-12220034D03*
X388189304Y-12220034D03*
X389189304Y-12220034D03*
X389689304Y-12220034D03*
X390489304Y-12220034D03*
D55*
X391759304Y-7475034D03*
X383119304Y-7475034D03*
D56*
X391759304Y-11655034D03*
X383119304Y-11655034D03*
%TD*%
D14*
%TO.C,D8*%
X381539304Y-95600034D03*
X381539304Y-97175034D03*
%TD*%
D57*
%TO.C,D2*%
X403030304Y-174010034D03*
X403030304Y-172135034D03*
%TD*%
D58*
%TO.C,R6*%
X353547056Y-32075729D03*
X350622056Y-32075729D03*
%TD*%
D27*
%TO.C,SW2*%
X334139304Y-106350034D03*
X343139304Y-106350034D03*
D28*
X341139304Y-100100034D03*
X341139304Y-112600034D03*
X336139304Y-100100034D03*
X336139304Y-112600034D03*
%TD*%
D19*
%TO.C,C30*%
X536639304Y-148900034D03*
X536639304Y-147000034D03*
%TD*%
D28*
%TO.C,TP3*%
X351193556Y-20015729D03*
%TD*%
D22*
%TO.C,H11*%
X485139304Y-150350034D03*
%TD*%
D17*
%TO.C,U3*%
X536709304Y-133024034D03*
D18*
X539249304Y-133024034D03*
X541789304Y-133024034D03*
X544329304Y-133024034D03*
X546869304Y-133024034D03*
X549409304Y-133024034D03*
X551949304Y-133024034D03*
X554489304Y-133024034D03*
X557029304Y-133024034D03*
X559569304Y-133024034D03*
X562109304Y-133024034D03*
X564649304Y-133024034D03*
X567189304Y-133024034D03*
X569729304Y-133024034D03*
X572269304Y-133024034D03*
X574809304Y-133024034D03*
X577349304Y-133024034D03*
X579889304Y-133024034D03*
X582429304Y-133024034D03*
X584969304Y-133024034D03*
%TD*%
D17*
%TO.C,J13*%
X474061804Y-106850034D03*
D18*
X471521804Y-106850034D03*
X468981804Y-106850034D03*
X466441804Y-106850034D03*
X463901804Y-106850034D03*
X461361804Y-106850034D03*
%TD*%
D23*
%TO.C,C32*%
X491119304Y-119920034D03*
X489219304Y-119920034D03*
%TD*%
D16*
%TO.C,U22*%
X524389304Y-104100034D03*
X521889304Y-103350034D03*
X521889304Y-102600034D03*
X521889304Y-104100034D03*
X524389304Y-103350034D03*
X524389304Y-102600034D03*
X524389304Y-104850034D03*
X521889304Y-104850034D03*
%TD*%
D15*
%TO.C,C24*%
X489839304Y-151100034D03*
X489839304Y-153000034D03*
%TD*%
D17*
%TO.C,J52*%
X430629304Y-89940034D03*
D18*
X428089304Y-89940034D03*
X425549304Y-89940034D03*
X423009304Y-89940034D03*
X420469304Y-89940034D03*
X417929304Y-89940034D03*
%TD*%
D28*
%TO.C,TP6*%
X364433556Y-22123229D03*
%TD*%
D17*
%TO.C,J40*%
X586099304Y-147029332D03*
D18*
X586099304Y-149569332D03*
X586099304Y-152109332D03*
X586099304Y-154649332D03*
X586099304Y-157189332D03*
X586099304Y-159729332D03*
X586099304Y-162269332D03*
X586099304Y-164809332D03*
%TD*%
D17*
%TO.C,J24*%
X571139304Y-6850034D03*
D18*
X573679304Y-6850034D03*
X576219304Y-6850034D03*
X578759304Y-6850034D03*
X581299304Y-6850034D03*
X583839304Y-6850034D03*
%TD*%
D59*
%TO.C,C11*%
X364284556Y-29675729D03*
X366184556Y-29675729D03*
%TD*%
D16*
%TO.C,U26*%
X458389304Y-10850034D03*
X455889304Y-9350034D03*
X458389304Y-9350034D03*
X455889304Y-10100034D03*
X458389304Y-10100034D03*
X455889304Y-8600034D03*
X455889304Y-10850034D03*
X458389304Y-8600034D03*
%TD*%
D20*
%TO.C,R34*%
X386739304Y-93850034D03*
X386739304Y-90925034D03*
%TD*%
D16*
%TO.C,U30*%
X502389304Y-57850034D03*
X502389304Y-57100034D03*
X499889304Y-57100034D03*
X502389304Y-56350034D03*
X499889304Y-57850034D03*
X499889304Y-55600034D03*
X499889304Y-56350034D03*
X502389304Y-55600034D03*
%TD*%
D19*
%TO.C,C6*%
X362684556Y-37025729D03*
X362684556Y-35125729D03*
%TD*%
D22*
%TO.C,H8*%
X334729304Y-143360034D03*
%TD*%
D16*
%TO.C,U20*%
X568389304Y-56350034D03*
X565889304Y-57100034D03*
X568389304Y-57100034D03*
X565889304Y-56350034D03*
X565889304Y-57850034D03*
X568389304Y-55600034D03*
X568389304Y-57850034D03*
X565889304Y-55600034D03*
%TD*%
D17*
%TO.C,J18*%
X495839304Y-106850034D03*
D18*
X493299304Y-106850034D03*
X490759304Y-106850034D03*
X488219304Y-106850034D03*
X485679304Y-106850034D03*
X483139304Y-106850034D03*
%TD*%
D60*
%TO.C,U8*%
X361784556Y-54275729D03*
D61*
X361784556Y-51735729D03*
X361784556Y-49195729D03*
X361784556Y-46655729D03*
X354164556Y-46655729D03*
X354164556Y-49195729D03*
X354164556Y-51735729D03*
X354164556Y-54275729D03*
%TD*%
D62*
%TO.C,R13*%
X336199640Y-9751424D03*
X336199640Y-12251424D03*
X336199640Y-14751424D03*
X338699640Y-9751424D03*
X338699640Y-12251424D03*
X338699640Y-14751424D03*
X344949640Y-9751424D03*
X344949640Y-14751424D03*
%TD*%
D19*
%TO.C,C17*%
X418589304Y-72150034D03*
X418589304Y-70250034D03*
%TD*%
D22*
%TO.C,H12*%
X485139304Y-123350034D03*
%TD*%
D16*
%TO.C,U32*%
X477889304Y-56350034D03*
X480389304Y-55600034D03*
X477889304Y-57100034D03*
X480389304Y-56350034D03*
X477889304Y-57850034D03*
X477889304Y-55600034D03*
X480389304Y-57100034D03*
X480389304Y-57850034D03*
%TD*%
D15*
%TO.C,C2*%
X525439304Y-147000034D03*
X525439304Y-148900034D03*
%TD*%
D21*
%TO.C,R21*%
X346984556Y-42775729D03*
X349909556Y-42775729D03*
%TD*%
D17*
%TO.C,J17*%
X483139304Y-6850034D03*
D18*
X485679304Y-6850034D03*
X488219304Y-6850034D03*
X490759304Y-6850034D03*
X493299304Y-6850034D03*
X495839304Y-6850034D03*
%TD*%
D16*
%TO.C,U62*%
X503889304Y-132100034D03*
X506389304Y-130600034D03*
X503889304Y-132850034D03*
X503889304Y-131350034D03*
X503889304Y-130600034D03*
X506389304Y-131350034D03*
X506389304Y-132850034D03*
X506389304Y-132100034D03*
%TD*%
D37*
%TO.C,H5*%
X447414748Y-21553978D03*
D38*
X449111804Y-23251034D03*
D37*
X447414748Y-24948090D03*
X451511804Y-23251034D03*
X446711804Y-23251034D03*
X450808860Y-21553978D03*
X449111804Y-25651034D03*
X450808860Y-24948090D03*
X449111804Y-20851034D03*
%TD*%
D57*
%TO.C,D4*%
X398598638Y-174010034D03*
X398598638Y-172135034D03*
%TD*%
D20*
%TO.C,R37*%
X379539304Y-93850034D03*
X379539304Y-90925034D03*
%TD*%
%TO.C,R22*%
X350584556Y-51938229D03*
X350584556Y-49013229D03*
%TD*%
D22*
%TO.C,H9*%
X509839304Y-148450034D03*
%TD*%
D16*
%TO.C,U61*%
X455889304Y-164100034D03*
X455889304Y-163350034D03*
X455889304Y-162600034D03*
X458389304Y-164100034D03*
X458389304Y-162600034D03*
X458389304Y-164850034D03*
X458389304Y-163350034D03*
X455889304Y-164850034D03*
%TD*%
D63*
%TO.C,J38*%
X510091553Y-164900034D03*
X510091553Y-156900034D03*
D64*
X521091553Y-164100034D03*
X521091553Y-163000034D03*
X521091553Y-161900034D03*
X521091553Y-160800034D03*
X521091553Y-159700034D03*
X521091553Y-158600034D03*
X521091553Y-157500034D03*
X521091553Y-156400034D03*
X521091553Y-155300034D03*
D65*
X520091553Y-154100034D03*
D66*
X510491553Y-154100034D03*
X510491553Y-169600034D03*
D67*
X520091553Y-168700034D03*
%TD*%
D58*
%TO.C,R8*%
X391164304Y-17635034D03*
X388239304Y-17635034D03*
%TD*%
D17*
%TO.C,J34*%
X333729304Y-167850034D03*
D18*
X333729304Y-170390034D03*
X333729304Y-172930034D03*
X333729304Y-175470034D03*
%TD*%
D28*
%TO.C,TP8*%
X351284556Y-23375729D03*
%TD*%
D58*
%TO.C,R14*%
X530639304Y-150850034D03*
X527714304Y-150850034D03*
%TD*%
D21*
%TO.C,R11*%
X355967804Y-173610034D03*
X358892804Y-173610034D03*
%TD*%
D17*
%TO.C,J31*%
X377739304Y-7150034D03*
D18*
X375199304Y-7150034D03*
X372659304Y-7150034D03*
X370119304Y-7150034D03*
%TD*%
D58*
%TO.C,R3*%
X369647056Y-36675729D03*
X366722056Y-36675729D03*
%TD*%
D59*
%TO.C,C13*%
X367784556Y-26668229D03*
X369684556Y-26668229D03*
%TD*%
D35*
%TO.C,J1*%
X332384556Y-27375729D03*
X334834556Y-25375729D03*
X338534556Y-27375729D03*
X340434556Y-25375729D03*
X344184556Y-27375729D03*
%TD*%
D21*
%TO.C,R15*%
X523876804Y-163650034D03*
X526801804Y-163650034D03*
%TD*%
D17*
%TO.C,J26*%
X549139304Y-6850034D03*
D18*
X551679304Y-6850034D03*
X554219304Y-6850034D03*
X556759304Y-6850034D03*
X559299304Y-6850034D03*
X561839304Y-6850034D03*
%TD*%
D16*
%TO.C,U54*%
X468889304Y-108600034D03*
X468139304Y-111100034D03*
X468889304Y-111100034D03*
X469639304Y-108600034D03*
X470389304Y-108600034D03*
X468139304Y-108600034D03*
X469639304Y-111100034D03*
X470389304Y-111100034D03*
%TD*%
D58*
%TO.C,R1*%
X369647056Y-31875729D03*
X366722056Y-31875729D03*
%TD*%
D17*
%TO.C,J49*%
X501919304Y-126820034D03*
D18*
X501919304Y-124280034D03*
X501919304Y-121740034D03*
X501919304Y-119200034D03*
%TD*%
D16*
%TO.C,U52*%
X408139304Y-149100034D03*
X408139304Y-146600034D03*
X410389304Y-149100034D03*
X408889304Y-149100034D03*
X409639304Y-149100034D03*
X410389304Y-146600034D03*
X409639304Y-146600034D03*
X408889304Y-146600034D03*
%TD*%
D17*
%TO.C,J37*%
X333729304Y-120230034D03*
D18*
X336269304Y-120230034D03*
%TD*%
D15*
%TO.C,C3*%
X355184556Y-35125729D03*
X355184556Y-37025729D03*
%TD*%
D16*
%TO.C,U60*%
X516139304Y-142600034D03*
X516139304Y-145100034D03*
X517639304Y-142600034D03*
X517639304Y-145100034D03*
X516889304Y-142600034D03*
X518389304Y-145100034D03*
X516889304Y-145100034D03*
X518389304Y-142600034D03*
%TD*%
D68*
%TO.C,U1*%
X355922056Y-27750729D03*
X355922056Y-28400729D03*
X355922056Y-29050729D03*
X355922056Y-29700729D03*
X355922056Y-30350729D03*
X355922056Y-31000729D03*
X355922056Y-31650729D03*
X355922056Y-32300729D03*
X355922056Y-32950729D03*
X355922056Y-33600729D03*
X361647056Y-33600729D03*
X361647056Y-32950729D03*
X361647056Y-32300729D03*
X361647056Y-31650729D03*
X361647056Y-31000729D03*
X361647056Y-30350729D03*
X361647056Y-29700729D03*
X361647056Y-29050729D03*
X361647056Y-28400729D03*
X361647056Y-27750729D03*
%TD*%
D16*
%TO.C,U68*%
X535389304Y-108600034D03*
X533139304Y-111100034D03*
X533889304Y-111100034D03*
X533889304Y-108600034D03*
X535389304Y-111100034D03*
X533139304Y-108600034D03*
X534639304Y-111100034D03*
X534639304Y-108600034D03*
%TD*%
%TO.C,U55*%
X410639304Y-114600034D03*
X411389304Y-117100034D03*
X409139304Y-114600034D03*
X409139304Y-117100034D03*
X411389304Y-114600034D03*
X409889304Y-114600034D03*
X409889304Y-117100034D03*
X410639304Y-117100034D03*
%TD*%
D34*
%TO.C,D3*%
X400814471Y-172135034D03*
X400814471Y-174010034D03*
%TD*%
D17*
%TO.C,J27*%
X561839304Y-106850034D03*
D18*
X559299304Y-106850034D03*
X556759304Y-106850034D03*
X554219304Y-106850034D03*
X551679304Y-106850034D03*
X549139304Y-106850034D03*
%TD*%
D17*
%TO.C,J12*%
X341039304Y-69325034D03*
D18*
X343579304Y-69325034D03*
X346119304Y-69325034D03*
X348659304Y-69325034D03*
X351199304Y-69325034D03*
X353739304Y-69325034D03*
X356279304Y-69325034D03*
%TD*%
D17*
%TO.C,J36*%
X418549304Y-127850034D03*
D18*
X418549304Y-125310034D03*
X418549304Y-122770034D03*
X418549304Y-120230034D03*
%TD*%
D17*
%TO.C,J32*%
X370119304Y-91970034D03*
D18*
X370119304Y-89430034D03*
%TD*%
D22*
%TO.C,H6*%
X417549304Y-152340034D03*
%TD*%
D59*
%TO.C,C28*%
X523789304Y-160950034D03*
X525689304Y-160950034D03*
%TD*%
D27*
%TO.C,SW5*%
X376139304Y-106350034D03*
X385139304Y-106350034D03*
D28*
X383139304Y-100100034D03*
X383139304Y-112600034D03*
X378139304Y-100100034D03*
X378139304Y-112600034D03*
%TD*%
D17*
%TO.C,J8*%
X412849304Y-96970034D03*
D18*
X412849304Y-99510034D03*
X412849304Y-102050034D03*
X412849304Y-104590034D03*
%TD*%
D19*
%TO.C,C31*%
X538739304Y-148900034D03*
X538739304Y-147000034D03*
%TD*%
D23*
%TO.C,C10*%
X366184556Y-26668229D03*
X364284556Y-26668229D03*
%TD*%
D20*
%TO.C,R36*%
X381939304Y-93850034D03*
X381939304Y-90925034D03*
%TD*%
D22*
%TO.C,H13*%
X393249304Y-90970034D03*
%TD*%
D35*
%TO.C,J11*%
X332370343Y-39525729D03*
X334820343Y-37525729D03*
X338520343Y-39525729D03*
X340420343Y-37525729D03*
X344170343Y-39525729D03*
%TD*%
D17*
%TO.C,J6*%
X451011804Y-8851034D03*
D18*
X448471804Y-8851034D03*
X445931804Y-8851034D03*
X443391804Y-8851034D03*
X440851804Y-8851034D03*
X438311804Y-8851034D03*
%TD*%
D20*
%TO.C,R9*%
X340909304Y-176012534D03*
X340909304Y-173087534D03*
%TD*%
D69*
%TO.C,U40*%
X568886659Y-169705034D03*
D70*
X568886659Y-149705034D03*
D71*
X574161659Y-150455034D03*
X566611659Y-150705034D03*
X574161659Y-150955034D03*
X566611659Y-151205034D03*
X574161659Y-151455034D03*
X566611659Y-151705034D03*
X574161659Y-151955034D03*
X566611659Y-152205034D03*
X574161659Y-152455034D03*
X566611659Y-152705034D03*
X574161659Y-152955034D03*
X566611659Y-153205034D03*
X574161659Y-153455034D03*
X566611659Y-153705034D03*
X574161659Y-153955034D03*
X566611659Y-154205034D03*
X574161659Y-154455034D03*
X566611659Y-154705034D03*
X574161659Y-154955034D03*
X566611659Y-155205034D03*
X574161659Y-155455034D03*
X566611659Y-155705034D03*
X574161659Y-155955034D03*
X566611659Y-158205034D03*
X574161659Y-158455034D03*
X566611659Y-158705034D03*
X574161659Y-158955034D03*
X566611659Y-159205034D03*
X574161659Y-159455034D03*
X566611659Y-159705034D03*
X574161659Y-159955034D03*
X566611659Y-160205034D03*
X574161659Y-160455034D03*
X566611659Y-160705034D03*
X574161659Y-160955034D03*
X566611659Y-161205034D03*
X574161659Y-161455034D03*
X566611659Y-161705034D03*
X574161659Y-161955034D03*
X566611659Y-162205034D03*
X574161659Y-162455034D03*
X566611659Y-162705034D03*
X574161659Y-162955034D03*
X566611659Y-163205034D03*
X574161659Y-163455034D03*
X566611659Y-163705034D03*
X574161659Y-163955034D03*
X566611659Y-164205034D03*
X574161659Y-164455034D03*
X566611659Y-164705034D03*
X574161659Y-164955034D03*
X566611659Y-165205034D03*
X574161659Y-165455034D03*
X566611659Y-165705034D03*
X574161659Y-165955034D03*
X566611659Y-166205034D03*
X574161659Y-166455034D03*
X566611659Y-166705034D03*
X574161659Y-166955034D03*
X566611659Y-167205034D03*
X574161659Y-167455034D03*
X566611659Y-167705034D03*
X574161659Y-167955034D03*
X566611659Y-168205034D03*
X574161659Y-168455034D03*
X566611659Y-168705034D03*
X574161659Y-168955034D03*
D72*
X573386659Y-149355034D03*
X573386659Y-170055034D03*
%TD*%
D73*
%TO.C,D6*%
X364684556Y-51525729D03*
X364684556Y-49425729D03*
%TD*%
D58*
%TO.C,R5*%
X353547056Y-29675729D03*
X350622056Y-29675729D03*
%TD*%
D17*
%TO.C,J14*%
X505139304Y-6850034D03*
D18*
X507679304Y-6850034D03*
X510219304Y-6850034D03*
X512759304Y-6850034D03*
X515299304Y-6850034D03*
X517839304Y-6850034D03*
%TD*%
D37*
%TO.C,H3*%
X357942248Y-11152978D03*
X361336360Y-14547090D03*
X359639304Y-10450034D03*
X362039304Y-12850034D03*
X357239304Y-12850034D03*
X359639304Y-15250034D03*
D38*
X359639304Y-12850034D03*
D37*
X361336360Y-11152978D03*
X357942248Y-14547090D03*
%TD*%
D17*
%TO.C,J53*%
X416659304Y-110940034D03*
D18*
X419199304Y-110940034D03*
X421739304Y-110940034D03*
X424279304Y-110940034D03*
X426819304Y-110940034D03*
X429359304Y-110940034D03*
%TD*%
D19*
%TO.C,C22*%
X424889304Y-72150034D03*
X424889304Y-70250034D03*
%TD*%
D58*
%TO.C,R2*%
X369647056Y-34275729D03*
X366722056Y-34275729D03*
%TD*%
D20*
%TO.C,R12*%
X492549304Y-155922534D03*
X492549304Y-152997534D03*
%TD*%
D16*
%TO.C,U36*%
X546389304Y-104850034D03*
X543889304Y-102600034D03*
X543889304Y-104100034D03*
X543889304Y-104850034D03*
X546389304Y-104100034D03*
X543889304Y-103350034D03*
X546389304Y-103350034D03*
X546389304Y-102600034D03*
%TD*%
D19*
%TO.C,C19*%
X354030304Y-173960034D03*
X354030304Y-172060034D03*
%TD*%
%TO.C,C16*%
X343209304Y-176050034D03*
X343209304Y-174150034D03*
%TD*%
D16*
%TO.C,U34*%
X477889304Y-10100034D03*
X480389304Y-9350034D03*
X480389304Y-8600034D03*
X477889304Y-8600034D03*
X477889304Y-9350034D03*
X480389304Y-10100034D03*
X477889304Y-10850034D03*
X480389304Y-10850034D03*
%TD*%
%TO.C,U48*%
X369139304Y-133100034D03*
X371389304Y-133100034D03*
X371389304Y-130600034D03*
X369889304Y-130600034D03*
X369139304Y-130600034D03*
X369889304Y-133100034D03*
X370639304Y-133100034D03*
X370639304Y-130600034D03*
%TD*%
%TO.C,U21*%
X458389304Y-57850034D03*
X458389304Y-55600034D03*
X455889304Y-55600034D03*
X455889304Y-57850034D03*
X458389304Y-57100034D03*
X455889304Y-57100034D03*
X458389304Y-56350034D03*
X455889304Y-56350034D03*
%TD*%
%TO.C,U51*%
X423389304Y-162600034D03*
X420889304Y-164100034D03*
X420889304Y-162600034D03*
X423389304Y-163350034D03*
X420889304Y-163350034D03*
X423389304Y-164850034D03*
X423389304Y-164100034D03*
X420889304Y-164850034D03*
%TD*%
%TO.C,U31*%
X499889304Y-10850034D03*
X499889304Y-10100034D03*
X502389304Y-10100034D03*
X499889304Y-8600034D03*
X499889304Y-9350034D03*
X502389304Y-8600034D03*
X502389304Y-10850034D03*
X502389304Y-9350034D03*
%TD*%
D17*
%TO.C,J39*%
X508839304Y-174950034D03*
D18*
X511379304Y-174950034D03*
X513919304Y-174950034D03*
X516459304Y-174950034D03*
X518999304Y-174950034D03*
X521539304Y-174950034D03*
X524079304Y-174950034D03*
X526619304Y-174950034D03*
X529159304Y-174950034D03*
X531699304Y-174950034D03*
X534239304Y-174950034D03*
X536779304Y-174950034D03*
X539319304Y-174950034D03*
X541859304Y-174950034D03*
X544399304Y-174950034D03*
X546939304Y-174950034D03*
X549479304Y-174950034D03*
X552019304Y-174950034D03*
X554559304Y-174950034D03*
X557099304Y-174950034D03*
%TD*%
D16*
%TO.C,U29*%
X521889304Y-10850034D03*
X524389304Y-10100034D03*
X521889304Y-8600034D03*
X524389304Y-10850034D03*
X524389304Y-9350034D03*
X521889304Y-10100034D03*
X524389304Y-8600034D03*
X521889304Y-9350034D03*
%TD*%
D17*
%TO.C,J51*%
X498109304Y-112850034D03*
D18*
X495569304Y-112850034D03*
X493029304Y-112850034D03*
X490489304Y-112850034D03*
X487949304Y-112850034D03*
X485409304Y-112850034D03*
%TD*%
D16*
%TO.C,U24*%
X521889304Y-57100034D03*
X524389304Y-57850034D03*
X524389304Y-56350034D03*
X521889304Y-57850034D03*
X524389304Y-57100034D03*
X521889304Y-55600034D03*
X524389304Y-55600034D03*
X521889304Y-56350034D03*
%TD*%
D21*
%TO.C,R20*%
X346984556Y-40375729D03*
X349909556Y-40375729D03*
%TD*%
D16*
%TO.C,U28*%
X546389304Y-55600034D03*
X546389304Y-57100034D03*
X546389304Y-57850034D03*
X543889304Y-56350034D03*
X543889304Y-55600034D03*
X543889304Y-57100034D03*
X546389304Y-56350034D03*
X543889304Y-57850034D03*
%TD*%
D33*
%TO.C,SW1*%
X386909304Y-172175034D03*
X386909304Y-175925034D03*
X392909304Y-172175034D03*
X392909304Y-175925034D03*
%TD*%
D16*
%TO.C,U33*%
X568389304Y-9350034D03*
X568389304Y-10850034D03*
X568389304Y-10100034D03*
X568389304Y-8600034D03*
X565889304Y-9350034D03*
X565889304Y-10850034D03*
X565889304Y-8600034D03*
X565889304Y-10100034D03*
%TD*%
D17*
%TO.C,J35*%
X453549304Y-143470034D03*
D18*
X451009304Y-143470034D03*
%TD*%
D74*
%TO.C,U19*%
X530201804Y-147000034D03*
X530201804Y-147950034D03*
X530201804Y-148900034D03*
X532476804Y-148900034D03*
X532476804Y-147000034D03*
%TD*%
D75*
%TO.C,SW7*%
X403029304Y-112440034D03*
D69*
X398029304Y-112440034D03*
X403029304Y-97940034D03*
X398029304Y-97940034D03*
X400529304Y-97940034D03*
D76*
X406229304Y-105440034D03*
X394829304Y-105440034D03*
%TD*%
D59*
%TO.C,C7*%
X357234556Y-25975729D03*
X359134556Y-25975729D03*
%TD*%
D17*
%TO.C,J41*%
X585439304Y-112750034D03*
D18*
X582899304Y-112750034D03*
X580359304Y-112750034D03*
X577819304Y-112750034D03*
X575279304Y-112750034D03*
X572739304Y-112750034D03*
X570199304Y-112750034D03*
X567659304Y-112750034D03*
X565119304Y-112750034D03*
X562579304Y-112750034D03*
X560039304Y-112750034D03*
X557499304Y-112750034D03*
X554959304Y-112750034D03*
X552419304Y-112750034D03*
X549879304Y-112750034D03*
X547339304Y-112750034D03*
X544799304Y-112750034D03*
X542259304Y-112750034D03*
X539719304Y-112750034D03*
X537179304Y-112750034D03*
%TD*%
D77*
%TO.C,U7*%
X359522056Y-37025729D03*
X359522056Y-36075729D03*
X359522056Y-35125729D03*
X357247056Y-35125729D03*
X357247056Y-37025729D03*
%TD*%
D16*
%TO.C,U23*%
X480389304Y-104100034D03*
X480389304Y-104850034D03*
X480389304Y-102600034D03*
X480389304Y-103350034D03*
X477889304Y-102600034D03*
X477889304Y-104850034D03*
X477889304Y-104100034D03*
X477889304Y-103350034D03*
%TD*%
D37*
X470639304Y-12350034D03*
X462639304Y-103600034D03*
X473139304Y-9850034D03*
X472139304Y-11100034D03*
X476389304Y-6850034D03*
X472139304Y-102600034D03*
X460139304Y-102600034D03*
X507311804Y-103350034D03*
X520811804Y-105350034D03*
X493139304Y-10350034D03*
X499061804Y-106850034D03*
X495139304Y-9850034D03*
X486389304Y-103600034D03*
X542561804Y-105600034D03*
X529561804Y-103350034D03*
X582139304Y-9100034D03*
X572731804Y-104100034D03*
X586139304Y-8600034D03*
X586231804Y-104350034D03*
X560639304Y-12100034D03*
X558639304Y-12600034D03*
X551561804Y-103350034D03*
X565061804Y-106850034D03*
X333139304Y-12350034D03*
X335239304Y-28350034D03*
X346783556Y-28248229D03*
D78*
X357884556Y-31275729D03*
D37*
X340639304Y-14350034D03*
X342184556Y-19175729D03*
X350783556Y-35548229D03*
X332384556Y-8475729D03*
X341739304Y-28350034D03*
X384939304Y-14650034D03*
X389839304Y-14450034D03*
X424839304Y-68650034D03*
X422839304Y-64450034D03*
X384339304Y-48150034D03*
X385939304Y-32650034D03*
X524039304Y-150750034D03*
X554439304Y-170250034D03*
X533639304Y-154350034D03*
X518639304Y-156250034D03*
X582939304Y-162450034D03*
X544139304Y-148850034D03*
X536639304Y-171350034D03*
X534139304Y-157750034D03*
X563839304Y-149450034D03*
X577139304Y-148350034D03*
X583839304Y-168550034D03*
X560439304Y-174850034D03*
X553839304Y-158550034D03*
X519439304Y-147650034D03*
X562739304Y-158850034D03*
X577239304Y-162950034D03*
X548639304Y-162450034D03*
X559539304Y-165150034D03*
X519939304Y-172650034D03*
X524139304Y-154150034D03*
X512539304Y-172250034D03*
X576939304Y-159250034D03*
X517139304Y-171950034D03*
X522639304Y-172550034D03*
X533339304Y-172150034D03*
X518039304Y-160650034D03*
X540739304Y-147550034D03*
X534239304Y-150850034D03*
X528639304Y-171750034D03*
X556439304Y-153150034D03*
X538239304Y-169550034D03*
X518839304Y-165750034D03*
X525539304Y-172350034D03*
X527739304Y-158050034D03*
X571739304Y-174950034D03*
X531739304Y-171250034D03*
X528339304Y-162050034D03*
X526809304Y-115224034D03*
X549409304Y-121124034D03*
X569709304Y-120324034D03*
X563609304Y-137724034D03*
X532809304Y-120924034D03*
X558009304Y-135524034D03*
X531409304Y-133824034D03*
X577909304Y-120924034D03*
X580509304Y-136024034D03*
X538009304Y-140624034D03*
X573609304Y-124324034D03*
X584709304Y-120924034D03*
X541909304Y-121124034D03*
X544909304Y-124124034D03*
X530209304Y-124324034D03*
X546909304Y-120924034D03*
X571809304Y-130524034D03*
X554509304Y-127424034D03*
X585809304Y-130024034D03*
X559909304Y-127224034D03*
X526209304Y-120124034D03*
X518809304Y-124224034D03*
X517909304Y-130824034D03*
X518009304Y-138824034D03*
X511309304Y-117424034D03*
X567509304Y-121624034D03*
X581809304Y-120924034D03*
X532409304Y-113924034D03*
X516209304Y-124324034D03*
X568109304Y-136024034D03*
X544609304Y-120824034D03*
X578109304Y-130424034D03*
X560609304Y-135924034D03*
X516309304Y-118124034D03*
X571209304Y-137224034D03*
X580109304Y-115024034D03*
X561782836Y-169050534D03*
X562711044Y-166021775D03*
X561457021Y-166248546D03*
X560339304Y-168550034D03*
X563621247Y-166434734D03*
X562681037Y-167508301D03*
X549909304Y-125524034D03*
X547309304Y-123924034D03*
X558310077Y-122024534D03*
X561409304Y-119724034D03*
X575309304Y-115973045D03*
X577809304Y-115573534D03*
X569214682Y-122329412D03*
X572309304Y-120224034D03*
X544409304Y-138324034D03*
X538209304Y-137524034D03*
X553909304Y-138024034D03*
X556609304Y-137824034D03*
X550809304Y-137123035D03*
X540809304Y-136124034D03*
X567709304Y-130824034D03*
X543009304Y-135724034D03*
X552009304Y-123424034D03*
X548340222Y-126302358D03*
X546809304Y-127924034D03*
X543809304Y-128324034D03*
X562539284Y-130124534D03*
X565309304Y-128624034D03*
X559239304Y-158750034D03*
X559539304Y-153650034D03*
X549164697Y-166481213D03*
X548269239Y-166037186D03*
X558539304Y-154450034D03*
X581239304Y-168750034D03*
X581239304Y-159550034D03*
X560539304Y-163550534D03*
X580439304Y-167350034D03*
X580439304Y-158650034D03*
X562939304Y-156150034D03*
X547139304Y-169495849D03*
X561539304Y-155950034D03*
X548739304Y-172150034D03*
X561039304Y-157050034D03*
X560230669Y-157762911D03*
X550539304Y-172350034D03*
X551939304Y-167150034D03*
X563339304Y-161849534D03*
X552527840Y-167957889D03*
X562448051Y-162301942D03*
X561539304Y-162850034D03*
X553239304Y-168750034D03*
X579739304Y-173650034D03*
X579739304Y-165450034D03*
X579039304Y-174750034D03*
X579039304Y-166241013D03*
X578339304Y-167250034D03*
X576939304Y-175050034D03*
X575939304Y-174650034D03*
X577639304Y-168550034D03*
X576939304Y-169950034D03*
X575180937Y-173950534D03*
X348239304Y-46850034D03*
X348239304Y-52050034D03*
X365339304Y-38350034D03*
X348339304Y-60350034D03*
X386939304Y-27650034D03*
X382639304Y-169850034D03*
X336139304Y-171850034D03*
X367139304Y-169350034D03*
X353639304Y-176350034D03*
X355139304Y-169850034D03*
X372639304Y-176850034D03*
X397639304Y-177350034D03*
X417639304Y-170850034D03*
X406139304Y-168850034D03*
X347139304Y-176850034D03*
X412639304Y-174850034D03*
X449039304Y-141050034D03*
X438139304Y-135850034D03*
X376639304Y-136350034D03*
X376639304Y-140850034D03*
X409639304Y-123850034D03*
X334639304Y-124350034D03*
X339639304Y-122850034D03*
X410139304Y-129350034D03*
X394939304Y-96150034D03*
X407439304Y-28050034D03*
X350639304Y-53650034D03*
X410639304Y-13050034D03*
X391239304Y-44450034D03*
X341139304Y-54350034D03*
X363339304Y-61750034D03*
X347939304Y-98150034D03*
X348139304Y-9850034D03*
X364739304Y-54450034D03*
X431939304Y-106150034D03*
X343839304Y-96650034D03*
X370939304Y-95450034D03*
X389139304Y-32850034D03*
X401439304Y-50450034D03*
X336739304Y-66150034D03*
X387539304Y-50250034D03*
X379539304Y-90350034D03*
X395639304Y-36550034D03*
X352539304Y-89850034D03*
X346239304Y-66350034D03*
X339139304Y-58650034D03*
X368339304Y-41050034D03*
X360039304Y-36050034D03*
X391639304Y-40350034D03*
X362739304Y-63550034D03*
X425339304Y-54950034D03*
X370439304Y-53250034D03*
X357239304Y-44250034D03*
X350439304Y-73450034D03*
X379939304Y-30150034D03*
X343639304Y-48850034D03*
X414439304Y-82250034D03*
X408639304Y-44550034D03*
X335139304Y-53850034D03*
X425239304Y-40650034D03*
X346239304Y-85250034D03*
X393839304Y-75150034D03*
X341639304Y-84350034D03*
X343139304Y-36850034D03*
X409239304Y-89250034D03*
D78*
X359684556Y-29275729D03*
D37*
X390239304Y-93750034D03*
X384339304Y-90350034D03*
X383439304Y-84150034D03*
X355039304Y-63150034D03*
X381939304Y-90350034D03*
X380483926Y-37205412D03*
X387339304Y-97750034D03*
X404139304Y-73450034D03*
X365039304Y-31250034D03*
X378139304Y-32850034D03*
X418339304Y-64550034D03*
X366139304Y-5850034D03*
X358239304Y-51950034D03*
X342839304Y-90050034D03*
X411439304Y-80450034D03*
X404239304Y-78550034D03*
X402339304Y-29650034D03*
X350639304Y-47350034D03*
X377839304Y-22950034D03*
X334639304Y-42350034D03*
X337639304Y-36850034D03*
X412239304Y-20850034D03*
X341039304Y-41350034D03*
X398339304Y-69350034D03*
X393939304Y-25850034D03*
X422239304Y-24050034D03*
X409539304Y-66750034D03*
X391239304Y-31150034D03*
X341139304Y-109650034D03*
X379739304Y-41150034D03*
X356139304Y-57650034D03*
X395339304Y-39750034D03*
X416239304Y-104250034D03*
X372139304Y-85450034D03*
X352239304Y-93350034D03*
X395739304Y-53250034D03*
X364739304Y-57550034D03*
X416339304Y-69550034D03*
X389139304Y-36450034D03*
X404139304Y-12350034D03*
X363839304Y-26650034D03*
X399939304Y-61850034D03*
X375239304Y-92150034D03*
X413839304Y-74050034D03*
X366139304Y-10850034D03*
X419739304Y-95650034D03*
X419539304Y-29850034D03*
X419439304Y-48250034D03*
X388339304Y-102350034D03*
X363339304Y-33750034D03*
X418139304Y-78850034D03*
X390939304Y-46850034D03*
X419839304Y-62250034D03*
X379339304Y-38650034D03*
X402139304Y-37650034D03*
X378939304Y-45250034D03*
X402339304Y-23050034D03*
D78*
X359284556Y-32875729D03*
D37*
X413139304Y-108950034D03*
X356239304Y-73150034D03*
X345939304Y-73450034D03*
X356239304Y-54350034D03*
X406839304Y-62850034D03*
X353639304Y-40550034D03*
X396039304Y-46850034D03*
X426539304Y-80650034D03*
X384439304Y-28050034D03*
X365339304Y-71550034D03*
X368439304Y-67150034D03*
X350139304Y-86650034D03*
X407039304Y-69550034D03*
X402369821Y-65549534D03*
X386839304Y-33850034D03*
X387439304Y-46450034D03*
X400139304Y-64850034D03*
X418539304Y-68650034D03*
X498339304Y-157750034D03*
X490839304Y-157850034D03*
X490839304Y-149750034D03*
X487139304Y-155850034D03*
X500639304Y-159350034D03*
X499139304Y-147550034D03*
X490539304Y-155150034D03*
X498039304Y-151150034D03*
X490711804Y-144351034D03*
X491839304Y-123350034D03*
X496439304Y-123550034D03*
X485139304Y-117350034D03*
X497539304Y-126750034D03*
X501139304Y-132350034D03*
X493409304Y-117124034D03*
X485639304Y-128850034D03*
X489039304Y-122650034D03*
X489639304Y-130350034D03*
X493339304Y-131250034D03*
X495711804Y-129651034D03*
X493711165Y-126051672D03*
X494811804Y-124851034D03*
X496711804Y-121751034D03*
X496711804Y-119151034D03*
X372639304Y-13850034D03*
X388139304Y-7350034D03*
X383639304Y-19850034D03*
X380139304Y-11850034D03*
X387607980Y-28588594D03*
X381639304Y-40550034D03*
X489639304Y-149050034D03*
X488539304Y-147950034D03*
X538039304Y-152250034D03*
X578239304Y-152350034D03*
X413239304Y-76450034D03*
X386104986Y-31415716D03*
X384439304Y-40550034D03*
X415139304Y-91350034D03*
X413539304Y-90750034D03*
X383139304Y-40650034D03*
X411747378Y-76247352D03*
X388633926Y-29544656D03*
X348639304Y-66450034D03*
X398739304Y-81550034D03*
X399639304Y-93450034D03*
X397639304Y-93350034D03*
X397639304Y-80750034D03*
X396339304Y-80650034D03*
X396139304Y-93450034D03*
M02*
