M48
; DRILL file {KiCad (6.0.5)} date Mon Jun 20 23:21:56 2022
; FORMAT={-:-/ absolute / inch / decimal}
; #@! TF.CreationDate,2022-06-20T23:21:56+02:00
; #@! TF.GenerationSoftware,Kicad,Pcbnew,(6.0.5)
; #@! TF.FileFunction,NonPlated,1,2,NPTH
FMAT,2
INCH
; #@! TA.AperFunction,NonPlated,NPTH,ComponentDrill
T1C0.0256
; #@! TA.AperFunction,NonPlated,NPTH,ComponentDrill
T2C0.0394
; #@! TA.AperFunction,NonPlated,NPTH,ComponentDrill
T3C0.0453
; #@! TA.AperFunction,NonPlated,NPTH,ComponentDrill
T4C0.0650
; #@! TA.AperFunction,NonPlated,NPTH,ComponentDrill
T5C0.0728
; #@! TA.AperFunction,NonPlated,NPTH,ComponentDrill
T6C0.0941
; #@! TA.AperFunction,NonPlated,NPTH,ComponentDrill
T7C0.1358
; #@! TA.AperFunction,NonPlated,NPTH,ComponentDrill
T8C0.1732
%
G90
G05
T1
X3.6192Y-1.2579
X3.8468Y-1.2579
T2
X4.1624Y-1.159
X4.4774Y-1.159
T3
X5.7165Y-2.4581
T4
X5.7165Y-3.2455
T5
X5.4212Y-3.7179
X5.4212Y-4.0722
X5.4212Y-4.273
X5.4212Y-4.6273
X6.0905Y-3.7179
X6.0905Y-4.0722
X6.0905Y-4.273
X6.0905Y-4.6273
T6
X4.9365Y-1.116
T7
X5.2645Y-1.7459
X7.4377Y-1.116
T8
X4.3188Y-3.6195
X4.6338Y-1.9069
X7.2898Y-2.0255
X7.5752Y-3.6495
T0
M30
