%TF.GenerationSoftware,KiCad,Pcbnew,(6.0.5)*%
%TF.CreationDate,2022-06-20T23:01:54+02:00*%
%TF.ProjectId,clarinoid-devboard,636c6172-696e-46f6-9964-2d646576626f,rev?*%
%TF.SameCoordinates,Original*%
%TF.FileFunction,Soldermask,Bot*%
%TF.FilePolarity,Negative*%
%FSLAX46Y46*%
G04 Gerber Fmt 4.6, Leading zero omitted, Abs format (unit mm)*
G04 Created by KiCad (PCBNEW (6.0.5)) date 2022-06-20 23:01:54*
%MOMM*%
%LPD*%
G01*
G04 APERTURE LIST*
G04 Aperture macros list*
%AMHorizOval*
0 Thick line with rounded ends*
0 $1 width*
0 $2 $3 position (X,Y) of the first rounded end (center of the circle)*
0 $4 $5 position (X,Y) of the second rounded end (center of the circle)*
0 Add line between two ends*
20,1,$1,$2,$3,$4,$5,0*
0 Add two circle primitives to create the rounded ends*
1,1,$1,$2,$3*
1,1,$1,$4,$5*%
%AMRotRect*
0 Rectangle, with rotation*
0 The origin of the aperture is its center*
0 $1 length*
0 $2 width*
0 $3 Rotation angle, in degrees counterclockwise*
0 Add horizontal line*
21,1,$1,$2,0,0,$3*%
G04 Aperture macros list end*
%ADD10C,0.000000*%
%ADD11C,3.883298*%
%ADD12R,1.700000X1.700000*%
%ADD13O,1.700000X1.700000*%
%ADD14C,2.000000*%
%ADD15RotRect,1.600000X1.600000X45.000000*%
%ADD16HorizOval,1.600000X0.000000X0.000000X0.000000X0.000000X0*%
%ADD17C,6.200000*%
%ADD18C,1.850000*%
%ADD19C,3.450000*%
%ADD20C,2.390000*%
%ADD21C,1.500000*%
%ADD22HorizOval,1.700000X0.388909X-0.388909X-0.388909X0.388909X0*%
%ADD23C,0.300000*%
%ADD24HorizOval,4.500000X-1.590990X1.590990X1.590990X-1.590990X0*%
%ADD25C,1.000000*%
%ADD26C,0.650000*%
%ADD27O,1.000000X1.600000*%
%ADD28O,1.000000X2.100000*%
%ADD29C,1.150000*%
%ADD30C,1.650000*%
%ADD31R,1.650000X1.650000*%
%ADD32O,6.000000X3.000000*%
%ADD33C,4.400000*%
%ADD34C,0.800000*%
G04 APERTURE END LIST*
D10*
G36*
X106660804Y-120447034D02*
G01*
X86660804Y-120447034D01*
X86660804Y-100447034D01*
X106660804Y-120447034D01*
G37*
%TO.C,U5*%
G36*
X190910804Y-119447034D02*
G01*
X194910804Y-119447034D01*
X194910804Y-115447034D01*
X190910804Y-115447034D01*
X190910804Y-119447034D01*
G37*
G36*
X190910804Y-114447034D02*
G01*
X194910804Y-114447034D01*
X194910804Y-110447034D01*
X190910804Y-110447034D01*
X190910804Y-114447034D01*
G37*
G36*
X195910804Y-114447034D02*
G01*
X199910804Y-114447034D01*
X199910804Y-110447034D01*
X195910804Y-110447034D01*
X195910804Y-114447034D01*
G37*
G36*
X190910804Y-104447034D02*
G01*
X194910804Y-104447034D01*
X194910804Y-100447034D01*
X190910804Y-100447034D01*
X190910804Y-104447034D01*
G37*
G36*
X195910804Y-109447034D02*
G01*
X199910804Y-109447034D01*
X199910804Y-105447034D01*
X195910804Y-105447034D01*
X195910804Y-109447034D01*
G37*
G36*
X195910804Y-104447034D02*
G01*
X199910804Y-104447034D01*
X199910804Y-100447034D01*
X195910804Y-100447034D01*
X195910804Y-104447034D01*
G37*
G36*
X190910804Y-109447034D02*
G01*
X194910804Y-109447034D01*
X194910804Y-105447034D01*
X190910804Y-105447034D01*
X190910804Y-109447034D01*
G37*
G36*
X195910804Y-119447034D02*
G01*
X199910804Y-119447034D01*
X199910804Y-115447034D01*
X195910804Y-115447034D01*
X195910804Y-119447034D01*
G37*
%TO.C,H2*%
D11*
X194352453Y-92697034D02*
G75*
G03*
X194352453Y-92697034I-1941649J0D01*
G01*
%TO.C,H4*%
X111639961Y-91934542D02*
G75*
G03*
X111639961Y-91934542I-1941649J0D01*
G01*
%TO.C,H5*%
X187102453Y-51447034D02*
G75*
G03*
X187102453Y-51447034I-1941649J0D01*
G01*
%TO.C,H3*%
X119639961Y-48434542D02*
G75*
G03*
X119639961Y-48434542I-1941649J0D01*
G01*
%TD*%
D12*
%TO.C,J14*%
X185566565Y-78397523D03*
D13*
X185566565Y-75857523D03*
X185566565Y-73317523D03*
X185566565Y-70777523D03*
X185566565Y-68237523D03*
X185566565Y-65697523D03*
X185566565Y-63157523D03*
X185566565Y-60617523D03*
X185566565Y-58077523D03*
%TD*%
D12*
%TO.C,J7*%
X92660804Y-101197034D03*
D13*
X92660804Y-98657034D03*
%TD*%
D14*
%TO.C,TP4*%
X122910804Y-114947034D03*
%TD*%
D15*
%TO.C,U8*%
X103286793Y-77447034D03*
D16*
X105082844Y-79243085D03*
X106878895Y-81039136D03*
X108674947Y-82835188D03*
X114063100Y-77447034D03*
X112267049Y-75650983D03*
X110470998Y-73854932D03*
X108674947Y-72058880D03*
%TD*%
D17*
%TO.C,H1*%
X125198312Y-68434542D03*
%TD*%
D18*
%TO.C,SW4*%
X137698312Y-117534542D03*
X137698312Y-108534542D03*
D14*
X143948312Y-115534542D03*
X131448312Y-115534542D03*
X143948312Y-110534542D03*
X131448312Y-110534542D03*
%TD*%
D19*
%TO.C,BT1*%
X188918304Y-28346568D03*
D20*
X125388304Y-28346568D03*
D19*
X133718304Y-44346568D03*
%TD*%
D21*
%TO.C,SW8*%
X126780804Y-105447034D03*
X126780804Y-102907034D03*
X126780804Y-100367034D03*
X126780804Y-97827034D03*
X119160804Y-97827034D03*
X119160804Y-100367034D03*
X119160804Y-102907034D03*
X119160804Y-105447034D03*
%TD*%
D18*
%TO.C,SW3*%
X137698312Y-103434542D03*
X137698312Y-94434542D03*
D14*
X143948312Y-101434542D03*
X131448312Y-101434542D03*
X143948312Y-96434542D03*
X131448312Y-96434542D03*
%TD*%
D22*
%TO.C,J10*%
X92973798Y-65760028D03*
X96120423Y-66078226D03*
X97322505Y-70108735D03*
X100080221Y-70038024D03*
X101317658Y-74103888D03*
%TD*%
D23*
%TO.C,U5*%
X194410804Y-100947034D03*
X191410804Y-118947034D03*
X193410804Y-105947034D03*
X191410804Y-107447034D03*
X198410804Y-110947034D03*
X194410804Y-112447034D03*
X193410804Y-118947034D03*
X193410804Y-103947034D03*
X192410804Y-105947034D03*
X199410804Y-100947034D03*
X198410804Y-107447034D03*
X191410804Y-103947034D03*
X197410804Y-118947034D03*
X193410804Y-107447034D03*
X198410804Y-103947034D03*
X198410804Y-105947034D03*
X199410804Y-102447034D03*
X192410804Y-112447034D03*
X192410804Y-118947034D03*
X193410804Y-110947034D03*
X196410804Y-117447034D03*
X197410804Y-102447034D03*
X197410804Y-100947034D03*
X191410804Y-105947034D03*
X194410804Y-105947034D03*
X199410804Y-118947034D03*
X191410804Y-112447034D03*
X196410804Y-108947034D03*
X198410804Y-100947034D03*
X191410804Y-110947034D03*
X197410804Y-117447034D03*
X193410804Y-113947034D03*
X194410804Y-107447034D03*
X194410804Y-108947034D03*
X192410804Y-110947034D03*
X196410804Y-103947034D03*
X199410804Y-112447034D03*
X193410804Y-108947034D03*
X196410804Y-115947034D03*
X199410804Y-110947034D03*
X192410804Y-100947034D03*
X199410804Y-107447034D03*
X199410804Y-108947034D03*
X191410804Y-108947034D03*
X198410804Y-117447034D03*
X194410804Y-110947034D03*
X194410804Y-113947034D03*
X191410804Y-115947034D03*
X194410804Y-117447034D03*
X192410804Y-108947034D03*
X194410804Y-102447034D03*
X198410804Y-118947034D03*
X199410804Y-115947034D03*
X192410804Y-103947034D03*
X197410804Y-103947034D03*
X197410804Y-107447034D03*
X193410804Y-102447034D03*
X193410804Y-115947034D03*
X196410804Y-100947034D03*
X192410804Y-117447034D03*
X197410804Y-112447034D03*
X191410804Y-113947034D03*
X191410804Y-100947034D03*
X197410804Y-110947034D03*
X197410804Y-115947034D03*
X192410804Y-102447034D03*
X198410804Y-115947034D03*
X193410804Y-100947034D03*
X199410804Y-117447034D03*
X196410804Y-110947034D03*
X198410804Y-108947034D03*
X191410804Y-102447034D03*
X197410804Y-113947034D03*
X193410804Y-117447034D03*
X196410804Y-102447034D03*
X192410804Y-115947034D03*
X196410804Y-107447034D03*
X192410804Y-113947034D03*
X197410804Y-105947034D03*
X196410804Y-118947034D03*
X194410804Y-103947034D03*
X194410804Y-118947034D03*
X199410804Y-105947034D03*
X196410804Y-113947034D03*
X196410804Y-112447034D03*
X199410804Y-103947034D03*
X198410804Y-102447034D03*
X193410804Y-112447034D03*
X198410804Y-113947034D03*
X197410804Y-108947034D03*
X199410804Y-113947034D03*
X191410804Y-117447034D03*
X198410804Y-112447034D03*
X194410804Y-115947034D03*
X196410804Y-105947034D03*
X192410804Y-107447034D03*
%TD*%
D12*
%TO.C,J5*%
X207698312Y-50934542D03*
D13*
X210238312Y-50934542D03*
X212778312Y-50934542D03*
X215318312Y-50934542D03*
%TD*%
D18*
%TO.C,SW2*%
X154698312Y-103434542D03*
X154698312Y-94434542D03*
D14*
X160948312Y-101434542D03*
X148448312Y-101434542D03*
X160948312Y-96434542D03*
X148448312Y-96434542D03*
%TD*%
%TO.C,TP2*%
X119660804Y-114947034D03*
%TD*%
D24*
%TO.C,TP7*%
X94160804Y-112947034D03*
%TD*%
D14*
%TO.C,TP1*%
X116410804Y-114947034D03*
%TD*%
D25*
%TO.C,J3*%
X105725000Y-29437500D03*
X113725000Y-29437500D03*
%TD*%
D12*
%TO.C,J4*%
X207723312Y-28834542D03*
D13*
X207723312Y-31374542D03*
X207723312Y-33914542D03*
X207723312Y-36454542D03*
X207723312Y-38994542D03*
X207723312Y-41534542D03*
X207723312Y-44074542D03*
%TD*%
D22*
%TO.C,J1*%
X92973798Y-83760028D03*
X96120423Y-84078226D03*
X97322505Y-88108735D03*
X100080221Y-88038024D03*
X101317658Y-92103888D03*
%TD*%
D14*
%TO.C,TP3*%
X126160804Y-114947034D03*
%TD*%
%TO.C,TP8*%
X129160804Y-86447034D03*
%TD*%
D21*
%TO.C,SW9*%
X102005804Y-103165034D03*
X102005804Y-105705034D03*
X102005804Y-108245034D03*
X102005804Y-110785034D03*
X109625804Y-110785034D03*
X109625804Y-108245034D03*
X109625804Y-105705034D03*
X109625804Y-103165034D03*
%TD*%
D14*
%TO.C,TP5*%
X105660804Y-115447034D03*
%TD*%
D12*
%TO.C,J12*%
X160760804Y-61447034D03*
D13*
X163300804Y-61447034D03*
X165840804Y-61447034D03*
X168380804Y-61447034D03*
X170920804Y-61447034D03*
X173460804Y-61447034D03*
X176000804Y-61447034D03*
%TD*%
D26*
%TO.C,J2*%
X91928304Y-31951568D03*
X97708304Y-31951568D03*
D27*
X90498304Y-28271568D03*
D28*
X99138304Y-32451568D03*
D27*
X99138304Y-28271568D03*
D28*
X90498304Y-32451568D03*
%TD*%
D18*
%TO.C,SW5*%
X154698312Y-117534542D03*
X154698312Y-108534542D03*
D14*
X160948312Y-115534542D03*
X148448312Y-115534542D03*
X160948312Y-110534542D03*
X148448312Y-110534542D03*
%TD*%
D12*
%TO.C,J6*%
X207698312Y-54934542D03*
D13*
X210238312Y-54934542D03*
X212778312Y-54934542D03*
X215318312Y-54934542D03*
%TD*%
D29*
%TO.C,U3*%
X145198312Y-62434542D03*
D30*
X145198312Y-82434542D03*
%TD*%
D22*
%TO.C,J11*%
X92973798Y-47760028D03*
X96120423Y-48078226D03*
X97322505Y-52108735D03*
X100080221Y-52038024D03*
X101317658Y-56103888D03*
%TD*%
D14*
%TO.C,TP6*%
X127160804Y-90447034D03*
%TD*%
D31*
%TO.C,SW7*%
X184198312Y-104634542D03*
D30*
X184198312Y-109634542D03*
X169698312Y-104634542D03*
X169698312Y-109634542D03*
X169698312Y-107134542D03*
D32*
X177198312Y-101434542D03*
X177198312Y-112834542D03*
%TD*%
D12*
%TO.C,U9*%
X197273312Y-53259542D03*
D13*
X194733312Y-53259542D03*
X192193312Y-53259542D03*
%TD*%
D33*
%TO.C,H2*%
X192410804Y-92697034D03*
%TD*%
%TO.C,H4*%
X109698312Y-91934542D03*
%TD*%
%TO.C,H5*%
X185160804Y-51447034D03*
%TD*%
%TO.C,H3*%
X117698312Y-48434542D03*
%TD*%
D34*
X147260804Y-62447034D03*
X137510804Y-60697034D03*
X192760804Y-85447034D03*
X193010804Y-79447034D03*
X193010804Y-73447034D03*
X193510804Y-67447034D03*
X199260804Y-85447034D03*
X199260804Y-73447034D03*
X199510804Y-70697034D03*
X114669658Y-83232761D03*
X116083872Y-81677126D03*
X188410804Y-107447034D03*
X203410804Y-93197034D03*
X136910804Y-67447034D03*
X175910804Y-47947034D03*
X141160804Y-34447034D03*
X163660804Y-85447034D03*
X135650799Y-53972866D03*
X135948312Y-51684542D03*
X126660804Y-48447034D03*
X152448312Y-72684542D03*
X107660804Y-53697034D03*
X204410804Y-81697034D03*
X148660804Y-58447034D03*
X182493312Y-69949542D03*
X171993312Y-86199542D03*
X151993312Y-83949542D03*
X203160804Y-97197034D03*
X199260804Y-67447034D03*
X198621733Y-50051754D03*
X194993312Y-35949542D03*
X177160804Y-98197034D03*
X192493312Y-42699542D03*
X191981304Y-63197034D03*
X119065487Y-84203873D03*
X115910804Y-53197034D03*
X157160804Y-81947034D03*
X191260804Y-76197034D03*
X133760804Y-53347034D03*
X162410804Y-77197034D03*
X198660804Y-94197034D03*
X166243312Y-85949542D03*
X207993312Y-62199542D03*
X133160804Y-94197034D03*
X188410804Y-117447034D03*
X128655426Y-54552412D03*
X159910804Y-57947034D03*
X137410804Y-89197034D03*
X104160804Y-72697034D03*
X193410804Y-97947034D03*
X143198312Y-54684542D03*
X202160804Y-44697034D03*
X94410804Y-77197034D03*
X184660804Y-34697034D03*
X122910804Y-73447034D03*
X205160804Y-78447034D03*
X133160804Y-60447034D03*
X204660804Y-86447034D03*
X171410804Y-71697034D03*
X122910804Y-47947034D03*
X202910804Y-101197034D03*
X92910804Y-50447034D03*
X110910804Y-78697034D03*
X115910804Y-94197034D03*
X95410804Y-92447034D03*
X188410804Y-100947034D03*
X203160804Y-105697034D03*
X112160804Y-104447034D03*
X197410804Y-63197034D03*
X197410804Y-59197034D03*
X132591182Y-56516656D03*
X177160804Y-75697034D03*
X147910804Y-73447034D03*
X161910804Y-65197034D03*
X121410804Y-111197034D03*
X188410804Y-112447034D03*
X104410804Y-86447034D03*
X106910804Y-63947034D03*
X144698312Y-52684542D03*
X203660804Y-89447034D03*
X121660804Y-96947034D03*
X109660804Y-55697034D03*
X187910804Y-45947034D03*
X168243312Y-85949542D03*
X146410804Y-78697034D03*
X202410804Y-110947034D03*
X198760804Y-79447034D03*
X124160804Y-45447034D03*
X159410804Y-90947034D03*
X125660303Y-78740428D03*
X146160804Y-106447034D03*
X198410804Y-97947034D03*
X213910804Y-43197034D03*
X166660804Y-100197034D03*
X111160804Y-66447034D03*
X191010804Y-68947034D03*
X130160804Y-104197034D03*
X118160804Y-55447034D03*
X169160804Y-75697034D03*
X202410804Y-115947034D03*
X114910804Y-91197034D03*
X183410804Y-72697034D03*
X142660804Y-48046534D03*
X144448312Y-54434542D03*
X143198312Y-52684542D03*
X169993312Y-86199542D03*
X186160804Y-86447034D03*
X191981304Y-58947034D03*
X176660804Y-89197034D03*
X153910804Y-61697034D03*
X137443717Y-52179947D03*
X151410804Y-53197034D03*
X143860804Y-53697034D03*
X128328586Y-80880471D03*
X123547739Y-85829527D03*
X126455444Y-79536277D03*
X174160804Y-66947034D03*
X189743312Y-65949542D03*
X153493312Y-82699542D03*
X175543812Y-80699542D03*
X163993312Y-79699542D03*
X176493312Y-81699542D03*
X153524547Y-74426202D03*
X211743312Y-58449542D03*
X213993312Y-58199542D03*
X154160804Y-75197034D03*
X138825471Y-62303212D03*
X174993312Y-56699542D03*
X133993312Y-63449542D03*
X203993312Y-53449542D03*
X173993312Y-51199542D03*
X202243312Y-53699542D03*
X135739766Y-64100531D03*
X175774144Y-68686793D03*
X174343707Y-69232717D03*
X150942635Y-60250042D03*
X179993312Y-55199542D03*
X148425456Y-63884042D03*
X131065048Y-66542789D03*
X152660804Y-62947034D03*
X131743312Y-70699542D03*
X132993312Y-69699542D03*
X148743312Y-66449542D03*
X148660804Y-48747034D03*
X97410804Y-35197034D03*
X129910804Y-60197034D03*
X153910804Y-64197034D03*
X122910804Y-59197034D03*
X127410804Y-55697034D03*
X126910804Y-57947034D03*
X164660804Y-47447034D03*
X157660804Y-45447034D03*
X131760804Y-72547034D03*
X147743312Y-67949542D03*
X135910804Y-73947034D03*
X138660804Y-79197034D03*
X136910804Y-76447034D03*
X134660804Y-83947034D03*
X136160802Y-81447034D03*
X137910804Y-77197034D03*
X135410804Y-76197034D03*
X134453042Y-81165552D03*
X166861383Y-59852715D03*
X168543812Y-47199542D03*
X164791182Y-65077412D03*
X168660804Y-68447034D03*
X169243312Y-59699542D03*
X156410804Y-75786062D03*
X155910804Y-77584573D03*
X169243312Y-45199542D03*
X158910804Y-72697034D03*
X148493312Y-77449542D03*
X148493312Y-76449542D03*
X157743932Y-73374663D03*
X176410804Y-82947034D03*
X167410804Y-72197034D03*
X173660804Y-82697034D03*
X156160804Y-67949542D03*
X139850602Y-73197034D03*
X143660804Y-88947034D03*
X141493312Y-89697034D03*
X139660804Y-74697034D03*
X138660804Y-73197034D03*
X142660804Y-85697034D03*
X159160804Y-67697034D03*
X165410804Y-73947034D03*
X155160804Y-70697034D03*
X164410804Y-75197034D03*
X160660804Y-66697034D03*
X166166182Y-77941656D03*
X157660804Y-67447034D03*
X165410804Y-77197034D03*
X131243312Y-68699542D03*
X147493312Y-65449542D03*
X107993312Y-55449542D03*
X170910804Y-92447034D03*
X181243312Y-54699542D03*
X109750000Y-45000000D03*
X115160804Y-72947034D03*
X124993312Y-54449542D03*
X209243312Y-48699542D03*
X211910804Y-45947034D03*
X163660804Y-94947034D03*
X181493312Y-70949542D03*
X173743312Y-84449542D03*
X174993312Y-53699542D03*
X122160804Y-93697034D03*
X131410804Y-57947034D03*
M02*
