%TF.GenerationSoftware,KiCad,Pcbnew,(6.0.5)*%
%TF.CreationDate,2022-06-20T23:21:56+02:00*%
%TF.ProjectId,clarinoid-devboard,636c6172-696e-46f6-9964-2d646576626f,rev?*%
%TF.SameCoordinates,Original*%
%TF.FileFunction,Soldermask,Top*%
%TF.FilePolarity,Negative*%
%FSLAX46Y46*%
G04 Gerber Fmt 4.6, Leading zero omitted, Abs format (unit mm)*
G04 Created by KiCad (PCBNEW (6.0.5)) date 2022-06-20 23:21:56*
%MOMM*%
%LPD*%
G01*
G04 APERTURE LIST*
G04 Aperture macros list*
%AMRoundRect*
0 Rectangle with rounded corners*
0 $1 Rounding radius*
0 $2 $3 $4 $5 $6 $7 $8 $9 X,Y pos of 4 corners*
0 Add a 4 corners polygon primitive as box body*
4,1,4,$2,$3,$4,$5,$6,$7,$8,$9,$2,$3,0*
0 Add four circle primitives for the rounded corners*
1,1,$1+$1,$2,$3*
1,1,$1+$1,$4,$5*
1,1,$1+$1,$6,$7*
1,1,$1+$1,$8,$9*
0 Add four rect primitives between the rounded corners*
20,1,$1+$1,$2,$3,$4,$5,0*
20,1,$1+$1,$4,$5,$6,$7,0*
20,1,$1+$1,$6,$7,$8,$9,0*
20,1,$1+$1,$8,$9,$2,$3,0*%
%AMHorizOval*
0 Thick line with rounded ends*
0 $1 width*
0 $2 $3 position (X,Y) of the first rounded end (center of the circle)*
0 $4 $5 position (X,Y) of the second rounded end (center of the circle)*
0 Add line between two ends*
20,1,$1,$2,$3,$4,$5,0*
0 Add two circle primitives to create the rounded ends*
1,1,$1,$2,$3*
1,1,$1,$4,$5*%
%AMRotRect*
0 Rectangle, with rotation*
0 The origin of the aperture is its center*
0 $1 length*
0 $2 width*
0 $3 Rotation angle, in degrees counterclockwise*
0 Add horizontal line*
21,1,$1,$2,0,0,$3*%
%AMFreePoly0*
4,1,14,0.354215,0.088284,0.450784,-0.008285,0.462500,-0.036569,0.462500,-0.060000,0.450784,-0.088284,0.422500,-0.100000,-0.422500,-0.100000,-0.450784,-0.088284,-0.462500,-0.060000,-0.462500,0.060000,-0.450784,0.088284,-0.422500,0.100000,0.325931,0.100000,0.354215,0.088284,0.354215,0.088284,$1*%
%AMFreePoly1*
4,1,14,0.450784,0.088284,0.462500,0.060000,0.462500,0.036569,0.450784,0.008285,0.354215,-0.088284,0.325931,-0.100000,-0.422500,-0.100000,-0.450784,-0.088284,-0.462500,-0.060000,-0.462500,0.060000,-0.450784,0.088284,-0.422500,0.100000,0.422500,0.100000,0.450784,0.088284,0.450784,0.088284,$1*%
%AMFreePoly2*
4,1,14,0.088284,0.450784,0.100000,0.422500,0.100000,-0.422500,0.088284,-0.450784,0.060000,-0.462500,-0.060000,-0.462500,-0.088284,-0.450784,-0.100000,-0.422500,-0.100000,0.325931,-0.088284,0.354215,0.008285,0.450784,0.036569,0.462500,0.060000,0.462500,0.088284,0.450784,0.088284,0.450784,$1*%
%AMFreePoly3*
4,1,14,-0.008285,0.450784,0.088284,0.354215,0.100000,0.325931,0.100000,-0.422500,0.088284,-0.450784,0.060000,-0.462500,-0.060000,-0.462500,-0.088284,-0.450784,-0.100000,-0.422500,-0.100000,0.422500,-0.088284,0.450784,-0.060000,0.462500,-0.036569,0.462500,-0.008285,0.450784,-0.008285,0.450784,$1*%
%AMFreePoly4*
4,1,14,0.450784,0.088284,0.462500,0.060000,0.462500,-0.060000,0.450784,-0.088284,0.422500,-0.100000,-0.325931,-0.100000,-0.354215,-0.088284,-0.450784,0.008285,-0.462500,0.036569,-0.462500,0.060000,-0.450784,0.088284,-0.422500,0.100000,0.422500,0.100000,0.450784,0.088284,0.450784,0.088284,$1*%
%AMFreePoly5*
4,1,14,0.450784,0.088284,0.462500,0.060000,0.462500,-0.060000,0.450784,-0.088284,0.422500,-0.100000,-0.422500,-0.100000,-0.450784,-0.088284,-0.462500,-0.060000,-0.462500,-0.036569,-0.450784,-0.008285,-0.354215,0.088284,-0.325931,0.100000,0.422500,0.100000,0.450784,0.088284,0.450784,0.088284,$1*%
%AMFreePoly6*
4,1,14,0.088284,0.450784,0.100000,0.422500,0.100000,-0.325931,0.088284,-0.354215,-0.008285,-0.450784,-0.036569,-0.462500,-0.060000,-0.462500,-0.088284,-0.450784,-0.100000,-0.422500,-0.100000,0.422500,-0.088284,0.450784,-0.060000,0.462500,0.060000,0.462500,0.088284,0.450784,0.088284,0.450784,$1*%
%AMFreePoly7*
4,1,14,0.088284,0.450784,0.100000,0.422500,0.100000,-0.422500,0.088284,-0.450784,0.060000,-0.462500,0.036569,-0.462500,0.008285,-0.450784,-0.088284,-0.354215,-0.100000,-0.325931,-0.100000,0.422500,-0.088284,0.450784,-0.060000,0.462500,0.060000,0.462500,0.088284,0.450784,0.088284,0.450784,$1*%
G04 Aperture macros list end*
%ADD10C,0.000000*%
%ADD11RoundRect,0.218750X0.256250X-0.218750X0.256250X0.218750X-0.256250X0.218750X-0.256250X-0.218750X0*%
%ADD12RoundRect,0.140000X-0.219203X-0.021213X-0.021213X-0.219203X0.219203X0.021213X0.021213X0.219203X0*%
%ADD13RoundRect,0.225000X0.225000X0.250000X-0.225000X0.250000X-0.225000X-0.250000X0.225000X-0.250000X0*%
%ADD14RoundRect,0.135000X0.185000X-0.135000X0.185000X0.135000X-0.185000X0.135000X-0.185000X-0.135000X0*%
%ADD15R,1.700000X1.700000*%
%ADD16O,1.700000X1.700000*%
%ADD17RoundRect,0.225000X-0.250000X0.225000X-0.250000X-0.225000X0.250000X-0.225000X0.250000X0.225000X0*%
%ADD18RotRect,0.600000X0.450000X315.000000*%
%ADD19C,2.000000*%
%ADD20RotRect,1.600000X1.600000X45.000000*%
%ADD21HorizOval,1.600000X0.000000X0.000000X0.000000X0.000000X0*%
%ADD22RoundRect,0.140000X0.170000X-0.140000X0.170000X0.140000X-0.170000X0.140000X-0.170000X-0.140000X0*%
%ADD23RoundRect,0.135000X0.135000X0.185000X-0.135000X0.185000X-0.135000X-0.185000X0.135000X-0.185000X0*%
%ADD24R,1.475000X0.450000*%
%ADD25C,6.200000*%
%ADD26R,0.700000X0.950000*%
%ADD27R,2.850000X2.250000*%
%ADD28R,2.375000X1.300000*%
%ADD29RoundRect,0.140000X0.021213X-0.219203X0.219203X-0.021213X-0.021213X0.219203X-0.219203X0.021213X0*%
%ADD30C,1.850000*%
%ADD31C,3.450000*%
%ADD32C,2.390000*%
%ADD33R,7.340000X6.350000*%
%ADD34R,1.850000X3.500000*%
%ADD35RoundRect,0.135000X-0.185000X0.135000X-0.185000X-0.135000X0.185000X-0.135000X0.185000X0.135000X0*%
%ADD36C,1.500000*%
%ADD37RoundRect,0.243750X0.243750X0.456250X-0.243750X0.456250X-0.243750X-0.456250X0.243750X-0.456250X0*%
%ADD38RoundRect,0.140000X0.140000X0.170000X-0.140000X0.170000X-0.140000X-0.170000X0.140000X-0.170000X0*%
%ADD39HorizOval,1.700000X0.388909X0.388909X-0.388909X-0.388909X0*%
%ADD40C,0.300000*%
%ADD41RoundRect,0.140000X0.219203X0.021213X0.021213X0.219203X-0.219203X-0.021213X-0.021213X-0.219203X0*%
%ADD42R,1.500000X0.900000*%
%ADD43RoundRect,0.243750X-0.243750X-0.456250X0.243750X-0.456250X0.243750X0.456250X-0.243750X0.456250X0*%
%ADD44RoundRect,0.150000X0.512500X0.150000X-0.512500X0.150000X-0.512500X-0.150000X0.512500X-0.150000X0*%
%ADD45RoundRect,0.135000X-0.035355X0.226274X-0.226274X0.035355X0.035355X-0.226274X0.226274X-0.035355X0*%
%ADD46HorizOval,4.500000X-1.590990X1.590990X1.590990X-1.590990X0*%
%ADD47RoundRect,0.250000X0.132583X-0.503814X0.503814X-0.132583X-0.132583X0.503814X-0.503814X0.132583X0*%
%ADD48RoundRect,0.250000X0.503814X0.132583X0.132583X0.503814X-0.503814X-0.132583X-0.132583X-0.503814X0*%
%ADD49FreePoly0,270.000000*%
%ADD50RoundRect,0.050000X-0.050000X0.412500X-0.050000X-0.412500X0.050000X-0.412500X0.050000X0.412500X0*%
%ADD51FreePoly1,270.000000*%
%ADD52FreePoly2,270.000000*%
%ADD53RoundRect,0.050000X-0.412500X0.050000X-0.412500X-0.050000X0.412500X-0.050000X0.412500X0.050000X0*%
%ADD54FreePoly3,270.000000*%
%ADD55FreePoly4,270.000000*%
%ADD56FreePoly5,270.000000*%
%ADD57FreePoly6,270.000000*%
%ADD58FreePoly7,270.000000*%
%ADD59C,1.000000*%
%ADD60R,0.700000X1.600000*%
%ADD61R,1.200000X1.500000*%
%ADD62R,1.200000X2.200000*%
%ADD63R,1.600000X1.500000*%
%ADD64RoundRect,0.135000X0.035355X-0.226274X0.226274X-0.035355X-0.035355X0.226274X-0.226274X0.035355X0*%
%ADD65RoundRect,0.100000X-0.380070X-0.521491X0.521491X0.380070X0.380070X0.521491X-0.521491X-0.380070X0*%
%ADD66R,0.300000X0.800000*%
%ADD67R,0.800000X0.300000*%
%ADD68R,1.800000X1.800000*%
%ADD69C,0.650000*%
%ADD70R,0.300000X1.150000*%
%ADD71O,1.000000X1.600000*%
%ADD72O,1.000000X2.100000*%
%ADD73R,1.550000X0.300000*%
%ADD74C,1.150000*%
%ADD75C,1.650000*%
%ADD76R,2.750000X1.200000*%
%ADD77RoundRect,0.200000X0.200000X0.275000X-0.200000X0.275000X-0.200000X-0.275000X0.200000X-0.275000X0*%
%ADD78RoundRect,0.225000X-0.225000X-0.250000X0.225000X-0.250000X0.225000X0.250000X-0.225000X0.250000X0*%
%ADD79RoundRect,0.140000X-0.140000X-0.170000X0.140000X-0.170000X0.140000X0.170000X-0.140000X0.170000X0*%
%ADD80R,1.000000X0.750000*%
%ADD81R,1.650000X1.650000*%
%ADD82O,6.000000X3.000000*%
%ADD83RoundRect,0.250000X-0.503814X-0.132583X-0.132583X-0.503814X0.503814X0.132583X0.132583X0.503814X0*%
%ADD84RotRect,1.000000X0.750000X315.000000*%
%ADD85RoundRect,0.150000X0.256326X0.468458X-0.468458X-0.256326X-0.256326X-0.468458X0.468458X0.256326X0*%
%ADD86C,4.400000*%
%ADD87C,0.800000*%
G04 APERTURE END LIST*
D10*
G36*
X106660804Y-120447034D02*
G01*
X86660804Y-120447034D01*
X86660804Y-100447034D01*
X106660804Y-120447034D01*
G37*
%TO.C,U5*%
G36*
X190910804Y-114447034D02*
G01*
X194910804Y-114447034D01*
X194910804Y-110447034D01*
X190910804Y-110447034D01*
X190910804Y-114447034D01*
G37*
G36*
X190910804Y-104447034D02*
G01*
X194910804Y-104447034D01*
X194910804Y-100447034D01*
X190910804Y-100447034D01*
X190910804Y-104447034D01*
G37*
G36*
X190910804Y-109447034D02*
G01*
X194910804Y-109447034D01*
X194910804Y-105447034D01*
X190910804Y-105447034D01*
X190910804Y-109447034D01*
G37*
G36*
X195910804Y-109447034D02*
G01*
X199910804Y-109447034D01*
X199910804Y-105447034D01*
X195910804Y-105447034D01*
X195910804Y-109447034D01*
G37*
G36*
X190910804Y-119447034D02*
G01*
X194910804Y-119447034D01*
X194910804Y-115447034D01*
X190910804Y-115447034D01*
X190910804Y-119447034D01*
G37*
G36*
X195910804Y-119447034D02*
G01*
X199910804Y-119447034D01*
X199910804Y-115447034D01*
X195910804Y-115447034D01*
X195910804Y-119447034D01*
G37*
G36*
X195910804Y-104447034D02*
G01*
X199910804Y-104447034D01*
X199910804Y-100447034D01*
X195910804Y-100447034D01*
X195910804Y-104447034D01*
G37*
G36*
X195910804Y-114447034D02*
G01*
X199910804Y-114447034D01*
X199910804Y-110447034D01*
X195910804Y-110447034D01*
X195910804Y-114447034D01*
G37*
%TD*%
D11*
%TO.C,D5*%
X171493312Y-91247042D03*
X171493312Y-89672042D03*
%TD*%
D12*
%TO.C,C4*%
X126883077Y-81371386D03*
X127561899Y-82050208D03*
%TD*%
D13*
%TO.C,C28*%
X131420804Y-55512034D03*
X129870804Y-55512034D03*
%TD*%
D14*
%TO.C,R38*%
X164493312Y-88459542D03*
X164493312Y-87439542D03*
%TD*%
D15*
%TO.C,J14*%
X185566565Y-78397523D03*
D16*
X185566565Y-75857523D03*
X185566565Y-73317523D03*
X185566565Y-70777523D03*
X185566565Y-68237523D03*
X185566565Y-65697523D03*
X185566565Y-63157523D03*
X185566565Y-60617523D03*
X185566565Y-58077523D03*
%TD*%
D17*
%TO.C,C21*%
X135460804Y-56797034D03*
X135460804Y-58347034D03*
%TD*%
D11*
%TO.C,D7*%
X169743312Y-91247042D03*
X169743312Y-89672042D03*
%TD*%
D14*
%TO.C,R35*%
X169743312Y-88459542D03*
X169743312Y-87439542D03*
%TD*%
%TO.C,R40*%
X213198312Y-46934542D03*
X213198312Y-45914542D03*
%TD*%
D18*
%TO.C,D6*%
X103675702Y-81230055D03*
X105160626Y-82714979D03*
%TD*%
D15*
%TO.C,J7*%
X92660804Y-101197034D03*
D16*
X92660804Y-98657034D03*
%TD*%
D19*
%TO.C,TP4*%
X122910804Y-114947034D03*
%TD*%
D20*
%TO.C,U8*%
X103286793Y-77447034D03*
D21*
X105082844Y-79243085D03*
X106878895Y-81039136D03*
X108674947Y-82835188D03*
X114063100Y-77447034D03*
X112267049Y-75650983D03*
X110470998Y-73854932D03*
X108674947Y-72058880D03*
%TD*%
D22*
%TO.C,C23*%
X132460804Y-58657034D03*
X132460804Y-57697034D03*
%TD*%
D23*
%TO.C,R10*%
X132770804Y-48912034D03*
X131750804Y-48912034D03*
%TD*%
D22*
%TO.C,C26*%
X132745804Y-54572034D03*
X132745804Y-53612034D03*
%TD*%
D12*
%TO.C,C14*%
X122226946Y-77146256D03*
X122905768Y-77825078D03*
%TD*%
D22*
%TO.C,C25*%
X200468792Y-57032042D03*
X200468792Y-56072042D03*
%TD*%
D11*
%TO.C,D9*%
X166243312Y-91237042D03*
X166243312Y-89662042D03*
%TD*%
D13*
%TO.C,C18*%
X142435804Y-58397034D03*
X140885804Y-58397034D03*
%TD*%
D17*
%TO.C,C20*%
X137060804Y-56797034D03*
X137060804Y-58347034D03*
%TD*%
D24*
%TO.C,IC1*%
X166385312Y-93934542D03*
X166385312Y-94584542D03*
X166385312Y-95234542D03*
X166385312Y-95884542D03*
X166385312Y-96534542D03*
X166385312Y-97184542D03*
X166385312Y-97834542D03*
X166385312Y-98484542D03*
X172261312Y-98484542D03*
X172261312Y-97834542D03*
X172261312Y-97184542D03*
X172261312Y-96534542D03*
X172261312Y-95884542D03*
X172261312Y-95234542D03*
X172261312Y-94584542D03*
X172261312Y-93934542D03*
%TD*%
D25*
%TO.C,H1*%
X125198312Y-68434542D03*
%TD*%
D26*
%TO.C,IC2*%
X138560804Y-49097034D03*
X137290804Y-49097034D03*
X136020804Y-49097034D03*
X134750804Y-49097034D03*
X134750804Y-55047034D03*
X136020804Y-55047034D03*
X137290804Y-55047034D03*
X138560804Y-55047034D03*
D27*
X136655804Y-52072034D03*
%TD*%
D28*
%TO.C,U10*%
X177118804Y-51032034D03*
X177118804Y-53532034D03*
X177118804Y-56032034D03*
X171492804Y-56032034D03*
X171492804Y-53532034D03*
X171492804Y-51032034D03*
%TD*%
D29*
%TO.C,C12*%
X117099730Y-90977956D03*
X117778552Y-90299134D03*
%TD*%
D19*
%TO.C,SW4*%
X143948312Y-115534542D03*
X131448312Y-115534542D03*
X143948312Y-110534542D03*
X131448312Y-110534542D03*
D30*
X137698312Y-108534542D03*
X137698312Y-117534542D03*
%TD*%
D31*
%TO.C,BT1*%
X133718304Y-44346568D03*
D32*
X125388304Y-28346568D03*
D31*
X188918304Y-28346568D03*
D33*
X121988304Y-36346568D03*
X200648304Y-36346568D03*
%TD*%
D34*
%TO.C,L1*%
X141060804Y-53612034D03*
X146660804Y-53612034D03*
%TD*%
D35*
%TO.C,R4*%
X205993312Y-58439542D03*
X205993312Y-59459542D03*
%TD*%
D36*
%TO.C,SW8*%
X126780804Y-105447034D03*
X126780804Y-102907034D03*
X126780804Y-100367034D03*
X126780804Y-97827034D03*
X119160804Y-97827034D03*
X119160804Y-100367034D03*
X119160804Y-102907034D03*
X119160804Y-105447034D03*
%TD*%
D19*
%TO.C,SW3*%
X143948312Y-101434542D03*
X131448312Y-101434542D03*
X143948312Y-96434542D03*
X131448312Y-96434542D03*
D30*
X137698312Y-94434542D03*
X137698312Y-103434542D03*
%TD*%
D14*
%TO.C,R41*%
X214698312Y-46944542D03*
X214698312Y-45924542D03*
%TD*%
D11*
%TO.C,D11*%
X162743312Y-91237042D03*
X162743312Y-89662042D03*
%TD*%
D37*
%TO.C,D1*%
X156518304Y-55096568D03*
X154643304Y-55096568D03*
%TD*%
D38*
%TO.C,C15*%
X143740804Y-48897034D03*
X142780804Y-48897034D03*
%TD*%
D39*
%TO.C,J10*%
X92973798Y-65760028D03*
X96120423Y-66078226D03*
X97322505Y-70108735D03*
X100080221Y-70038024D03*
X101317658Y-74103888D03*
%TD*%
D40*
%TO.C,U5*%
X197410804Y-108947034D03*
X193410804Y-100947034D03*
X196410804Y-105947034D03*
X198410804Y-115947034D03*
X191410804Y-117447034D03*
X194410804Y-108947034D03*
X197410804Y-113947034D03*
X197410804Y-115947034D03*
X199410804Y-103947034D03*
X197410804Y-100947034D03*
X194410804Y-102447034D03*
X197410804Y-118947034D03*
X199410804Y-113947034D03*
X193410804Y-110947034D03*
X196410804Y-107447034D03*
X192410804Y-112447034D03*
X191410804Y-118947034D03*
X193410804Y-112447034D03*
X192410804Y-100947034D03*
X191410804Y-115947034D03*
X199410804Y-117447034D03*
X193410804Y-102447034D03*
X196410804Y-113947034D03*
X199410804Y-108947034D03*
X192410804Y-105947034D03*
X193410804Y-107447034D03*
X192410804Y-118947034D03*
X198410804Y-105947034D03*
X196410804Y-117447034D03*
X192410804Y-113947034D03*
X191410804Y-102447034D03*
X194410804Y-100947034D03*
X192410804Y-102447034D03*
X197410804Y-103947034D03*
X198410804Y-107447034D03*
X191410804Y-113947034D03*
X193410804Y-117447034D03*
X192410804Y-117447034D03*
X191410804Y-112447034D03*
X197410804Y-105947034D03*
X199410804Y-100947034D03*
X191410804Y-107447034D03*
X198410804Y-112447034D03*
X193410804Y-115947034D03*
X192410804Y-108947034D03*
X191410804Y-110947034D03*
X193410804Y-113947034D03*
X194410804Y-115947034D03*
X196410804Y-103947034D03*
X198410804Y-117447034D03*
X198410804Y-118947034D03*
X197410804Y-112447034D03*
X194410804Y-112447034D03*
X194410804Y-118947034D03*
X196410804Y-118947034D03*
X197410804Y-110947034D03*
X192410804Y-107447034D03*
X194410804Y-103947034D03*
X196410804Y-115947034D03*
X196410804Y-100947034D03*
X198410804Y-100947034D03*
X196410804Y-112447034D03*
X194410804Y-110947034D03*
X199410804Y-118947034D03*
X194410804Y-113947034D03*
X197410804Y-107447034D03*
X193410804Y-105947034D03*
X199410804Y-102447034D03*
X193410804Y-108947034D03*
X191410804Y-100947034D03*
X197410804Y-117447034D03*
X193410804Y-103947034D03*
X199410804Y-112447034D03*
X198410804Y-108947034D03*
X199410804Y-115947034D03*
X191410804Y-105947034D03*
X198410804Y-113947034D03*
X194410804Y-117447034D03*
X196410804Y-110947034D03*
X199410804Y-105947034D03*
X191410804Y-103947034D03*
X192410804Y-115947034D03*
X192410804Y-103947034D03*
X196410804Y-102447034D03*
X191410804Y-108947034D03*
X197410804Y-102447034D03*
X199410804Y-110947034D03*
X194410804Y-105947034D03*
X198410804Y-110947034D03*
X192410804Y-110947034D03*
X193410804Y-118947034D03*
X194410804Y-107447034D03*
X199410804Y-107447034D03*
X198410804Y-103947034D03*
X196410804Y-108947034D03*
X198410804Y-102447034D03*
%TD*%
D12*
%TO.C,C27*%
X110442714Y-71026505D03*
X111121536Y-71705327D03*
%TD*%
D41*
%TO.C,C8*%
X113501248Y-87229599D03*
X112822426Y-86550777D03*
%TD*%
%TO.C,C5*%
X126017038Y-83623354D03*
X125338216Y-82944532D03*
%TD*%
D29*
%TO.C,C9*%
X115982501Y-89832443D03*
X116661323Y-89153621D03*
%TD*%
D15*
%TO.C,J5*%
X207698312Y-50934542D03*
D16*
X210238312Y-50934542D03*
X212778312Y-50934542D03*
X215318312Y-50934542D03*
%TD*%
D11*
%TO.C,D8*%
X167993312Y-91237042D03*
X167993312Y-89662042D03*
%TD*%
D42*
%TO.C,D13*%
X193060804Y-77797034D03*
X193060804Y-81097034D03*
X197960804Y-81097034D03*
X197960804Y-77797034D03*
%TD*%
D43*
%TO.C,D2*%
X154643304Y-53096568D03*
X156518304Y-53096568D03*
%TD*%
D44*
%TO.C,U11*%
X132283304Y-52162034D03*
X132283304Y-51212034D03*
X132283304Y-50262034D03*
X130008304Y-50262034D03*
X130008304Y-52162034D03*
%TD*%
D45*
%TO.C,R6*%
X118613630Y-90913626D03*
X117892382Y-91634874D03*
%TD*%
D19*
%TO.C,SW2*%
X160948312Y-101434542D03*
X148448312Y-101434542D03*
X160948312Y-96434542D03*
X148448312Y-96434542D03*
D30*
X154698312Y-94434542D03*
X154698312Y-103434542D03*
%TD*%
D22*
%TO.C,C24*%
X201993312Y-57539542D03*
X201993312Y-56579542D03*
%TD*%
D12*
%TO.C,C11*%
X121519839Y-77853363D03*
X122198661Y-78532185D03*
%TD*%
D14*
%TO.C,R34*%
X171493312Y-88459542D03*
X171493312Y-87439542D03*
%TD*%
D41*
%TO.C,C6*%
X125225078Y-84387029D03*
X124546256Y-83708207D03*
%TD*%
D19*
%TO.C,TP2*%
X119660804Y-114947034D03*
%TD*%
D17*
%TO.C,C17*%
X138660804Y-56797034D03*
X138660804Y-58347034D03*
%TD*%
D46*
%TO.C,TP7*%
X94160804Y-112947034D03*
%TD*%
D47*
%TO.C,R21*%
X102015569Y-60092269D03*
X103306039Y-58801799D03*
%TD*%
D19*
%TO.C,TP1*%
X116410804Y-114947034D03*
%TD*%
D48*
%TO.C,R22*%
X113840362Y-74141310D03*
X112549892Y-72850840D03*
%TD*%
D43*
%TO.C,D4*%
X154580804Y-49096568D03*
X156455804Y-49096568D03*
%TD*%
D14*
%TO.C,R37*%
X166243312Y-88459542D03*
X166243312Y-87439542D03*
%TD*%
D49*
%TO.C,U4*%
X203993312Y-58852042D03*
D50*
X203593312Y-58852042D03*
X203193312Y-58852042D03*
X202793312Y-58852042D03*
D51*
X202393312Y-58852042D03*
D52*
X201805812Y-59439542D03*
D53*
X201805812Y-59839542D03*
X201805812Y-60239542D03*
X201805812Y-60639542D03*
D54*
X201805812Y-61039542D03*
D55*
X202393312Y-61627042D03*
D50*
X202793312Y-61627042D03*
X203193312Y-61627042D03*
X203593312Y-61627042D03*
D56*
X203993312Y-61627042D03*
D57*
X204580812Y-61039542D03*
D53*
X204580812Y-60639542D03*
X204580812Y-60239542D03*
X204580812Y-59839542D03*
D58*
X204580812Y-59439542D03*
%TD*%
D35*
%TO.C,R11*%
X143860804Y-57687034D03*
X143860804Y-58707034D03*
%TD*%
D59*
%TO.C,J3*%
X105725000Y-29437500D03*
X113725000Y-29437500D03*
D60*
X106525000Y-40437500D03*
X107625000Y-40437500D03*
X108725000Y-40437500D03*
X109825000Y-40437500D03*
X110925000Y-40437500D03*
X112025000Y-40437500D03*
X113125000Y-40437500D03*
X114225000Y-40437500D03*
X115325000Y-40437500D03*
D61*
X116525000Y-39437500D03*
D62*
X116525000Y-29837500D03*
X101025000Y-29837500D03*
D63*
X101925000Y-39437500D03*
%TD*%
D45*
%TO.C,R3*%
X123004763Y-86550777D03*
X122283515Y-87272025D03*
%TD*%
D15*
%TO.C,J4*%
X207723312Y-28834542D03*
D16*
X207723312Y-31374542D03*
X207723312Y-33914542D03*
X207723312Y-36454542D03*
X207723312Y-38994542D03*
X207723312Y-41534542D03*
X207723312Y-44074542D03*
%TD*%
D41*
%TO.C,C13*%
X121420844Y-79310003D03*
X120742022Y-78631181D03*
%TD*%
D39*
%TO.C,J1*%
X92973798Y-83760028D03*
X96120423Y-84078226D03*
X97322505Y-88108735D03*
X100080221Y-88038024D03*
X101317658Y-92103888D03*
%TD*%
D19*
%TO.C,TP3*%
X126160804Y-114947034D03*
%TD*%
%TO.C,TP8*%
X129160804Y-86447034D03*
%TD*%
D36*
%TO.C,SW9*%
X102005804Y-103165034D03*
X102005804Y-105705034D03*
X102005804Y-108245034D03*
X102005804Y-110785034D03*
X109625804Y-110785034D03*
X109625804Y-108245034D03*
X109625804Y-105705034D03*
X109625804Y-103165034D03*
%TD*%
D64*
%TO.C,R1*%
X119455088Y-90100452D03*
X120176336Y-89379204D03*
%TD*%
D11*
%TO.C,D10*%
X164493312Y-91247042D03*
X164493312Y-89672042D03*
%TD*%
D12*
%TO.C,C3*%
X126138931Y-82115533D03*
X126817753Y-82794355D03*
%TD*%
D14*
%TO.C,R7*%
X93018304Y-35746568D03*
X93018304Y-34726568D03*
%TD*%
D65*
%TO.C,U1*%
X114903088Y-84689318D03*
X115362707Y-85148937D03*
X115822326Y-85608557D03*
X116281946Y-86068176D03*
X116741565Y-86527795D03*
X117201185Y-86987415D03*
X117660804Y-87447034D03*
X118120423Y-87906654D03*
X118580043Y-88366273D03*
X119039662Y-88825892D03*
X123087848Y-84777706D03*
X122628229Y-84318087D03*
X122168610Y-83858467D03*
X121708990Y-83398848D03*
X121249371Y-82939229D03*
X120789751Y-82479609D03*
X120330132Y-82019990D03*
X119870513Y-81560370D03*
X119410893Y-81100751D03*
X118951274Y-80641132D03*
%TD*%
D14*
%TO.C,R8*%
X96018304Y-35746568D03*
X96018304Y-34726568D03*
%TD*%
D19*
%TO.C,TP5*%
X105660804Y-115447034D03*
%TD*%
D37*
%TO.C,D3*%
X156518304Y-51096568D03*
X154643304Y-51096568D03*
%TD*%
D15*
%TO.C,J12*%
X160760804Y-61447034D03*
D16*
X163300804Y-61447034D03*
X165840804Y-61447034D03*
X168380804Y-61447034D03*
X170920804Y-61447034D03*
X173460804Y-61447034D03*
X176000804Y-61447034D03*
%TD*%
D42*
%TO.C,D12*%
X193060804Y-83797034D03*
X193060804Y-87097034D03*
X197960804Y-87097034D03*
X197960804Y-83797034D03*
%TD*%
D66*
%TO.C,IC4*%
X178016565Y-70447523D03*
X178516565Y-70447523D03*
X179016565Y-70447523D03*
X179516565Y-70447523D03*
D67*
X180266565Y-69697523D03*
X180266565Y-69197523D03*
X180266565Y-68697523D03*
X180266565Y-68197523D03*
D66*
X179516565Y-67447523D03*
X179016565Y-67447523D03*
X178516565Y-67447523D03*
X178016565Y-67447523D03*
D67*
X177266565Y-68197523D03*
X177266565Y-68697523D03*
X177266565Y-69197523D03*
X177266565Y-69697523D03*
D68*
X178766565Y-68947523D03*
%TD*%
D35*
%TO.C,R13*%
X213198312Y-58934542D03*
X213198312Y-59954542D03*
%TD*%
D69*
%TO.C,J2*%
X97708304Y-31951568D03*
X91928304Y-31951568D03*
D70*
X98168304Y-33016568D03*
X97368304Y-33016568D03*
X96068304Y-33016568D03*
X95068304Y-33016568D03*
X94568304Y-33016568D03*
X93568304Y-33016568D03*
X92268304Y-33016568D03*
X91468304Y-33016568D03*
X91768304Y-33016568D03*
X92568304Y-33016568D03*
X93068304Y-33016568D03*
X94068304Y-33016568D03*
X95568304Y-33016568D03*
X96568304Y-33016568D03*
X97068304Y-33016568D03*
X97868304Y-33016568D03*
D71*
X99138304Y-28271568D03*
D72*
X99138304Y-32451568D03*
X90498304Y-32451568D03*
D71*
X90498304Y-28271568D03*
%TD*%
D19*
%TO.C,SW5*%
X160948312Y-115534542D03*
X148448312Y-115534542D03*
X160948312Y-110534542D03*
X148448312Y-110534542D03*
D30*
X154698312Y-108534542D03*
X154698312Y-117534542D03*
%TD*%
D15*
%TO.C,J6*%
X207698312Y-54934542D03*
D16*
X210238312Y-54934542D03*
X212778312Y-54934542D03*
X215318312Y-54934542D03*
%TD*%
D41*
%TO.C,C10*%
X120713737Y-80017109D03*
X120034915Y-79338287D03*
%TD*%
D14*
%TO.C,R36*%
X167993312Y-88459542D03*
X167993312Y-87439542D03*
%TD*%
D73*
%TO.C,U3*%
X150473312Y-63184542D03*
X142923312Y-63434542D03*
X150473312Y-63684542D03*
X142923312Y-63934542D03*
X150473312Y-64184542D03*
X142923312Y-64434542D03*
X150473312Y-64684542D03*
X142923312Y-64934542D03*
X150473312Y-65184542D03*
X142923312Y-65434542D03*
X150473312Y-65684542D03*
X142923312Y-65934542D03*
X150473312Y-66184542D03*
X142923312Y-66434542D03*
X150473312Y-66684542D03*
X142923312Y-66934542D03*
X150473312Y-67184542D03*
X142923312Y-67434542D03*
X150473312Y-67684542D03*
X142923312Y-67934542D03*
X150473312Y-68184542D03*
X142923312Y-68434542D03*
X150473312Y-68684542D03*
X142923312Y-70934542D03*
X150473312Y-71184542D03*
X142923312Y-71434542D03*
X150473312Y-71684542D03*
X142923312Y-71934542D03*
X150473312Y-72184542D03*
X142923312Y-72434542D03*
X150473312Y-72684542D03*
X142923312Y-72934542D03*
X150473312Y-73184542D03*
X142923312Y-73434542D03*
X150473312Y-73684542D03*
X142923312Y-73934542D03*
X150473312Y-74184542D03*
X142923312Y-74434542D03*
X150473312Y-74684542D03*
X142923312Y-74934542D03*
X150473312Y-75184542D03*
X142923312Y-75434542D03*
X150473312Y-75684542D03*
X142923312Y-75934542D03*
X150473312Y-76184542D03*
X142923312Y-76434542D03*
X150473312Y-76684542D03*
X142923312Y-76934542D03*
X150473312Y-77184542D03*
X142923312Y-77434542D03*
X150473312Y-77684542D03*
X142923312Y-77934542D03*
X150473312Y-78184542D03*
X142923312Y-78434542D03*
X150473312Y-78684542D03*
X142923312Y-78934542D03*
X150473312Y-79184542D03*
X142923312Y-79434542D03*
X150473312Y-79684542D03*
X142923312Y-79934542D03*
X150473312Y-80184542D03*
X142923312Y-80434542D03*
X150473312Y-80684542D03*
X142923312Y-80934542D03*
X150473312Y-81184542D03*
X142923312Y-81434542D03*
X150473312Y-81684542D03*
D74*
X145198312Y-62434542D03*
D75*
X145198312Y-82434542D03*
D76*
X149698312Y-62084542D03*
X149698312Y-82784542D03*
%TD*%
D39*
%TO.C,J11*%
X92973798Y-47760028D03*
X96120423Y-48078226D03*
X97322505Y-52108735D03*
X100080221Y-52038024D03*
X101317658Y-56103888D03*
%TD*%
D42*
%TO.C,D14*%
X193060804Y-71797034D03*
X193060804Y-75097034D03*
X197960804Y-75097034D03*
X197960804Y-71797034D03*
%TD*%
D77*
%TO.C,R9*%
X146885804Y-49097034D03*
X145235804Y-49097034D03*
%TD*%
D45*
%TO.C,R5*%
X115890577Y-88368733D03*
X115169329Y-89089981D03*
%TD*%
D17*
%TO.C,C22*%
X133860804Y-56797034D03*
X133860804Y-58347034D03*
%TD*%
D45*
%TO.C,R2*%
X121597620Y-87957919D03*
X120876372Y-88679167D03*
%TD*%
D14*
%TO.C,R12*%
X200493312Y-59559542D03*
X200493312Y-58539542D03*
%TD*%
D42*
%TO.C,D15*%
X193060804Y-65797034D03*
X193060804Y-69097034D03*
X197960804Y-69097034D03*
X197960804Y-65797034D03*
%TD*%
D78*
%TO.C,C19*%
X145285804Y-58397034D03*
X146835804Y-58397034D03*
%TD*%
D79*
%TO.C,C16*%
X140580804Y-48897034D03*
X141540804Y-48897034D03*
%TD*%
D47*
%TO.C,R20*%
X104773285Y-57475973D03*
X106063755Y-56185503D03*
%TD*%
D79*
%TO.C,C30*%
X179461565Y-71607523D03*
X180421565Y-71607523D03*
%TD*%
D35*
%TO.C,R14*%
X214698312Y-58934542D03*
X214698312Y-59954542D03*
%TD*%
D80*
%TO.C,SW1*%
X164823304Y-52822034D03*
X164823304Y-49072034D03*
X158823304Y-52822034D03*
X158823304Y-49072034D03*
%TD*%
D13*
%TO.C,C29*%
X131420804Y-53912034D03*
X129870804Y-53912034D03*
%TD*%
D19*
%TO.C,TP6*%
X127160804Y-90447034D03*
%TD*%
D81*
%TO.C,SW7*%
X184198312Y-104634542D03*
D75*
X184198312Y-109634542D03*
X169698312Y-104634542D03*
X169698312Y-109634542D03*
X169698312Y-107134542D03*
D82*
X177198312Y-101434542D03*
X177198312Y-112834542D03*
%TD*%
D12*
%TO.C,C7*%
X113600243Y-85772959D03*
X114279065Y-86451781D03*
%TD*%
D15*
%TO.C,U9*%
X197273312Y-53259542D03*
D16*
X194733312Y-53259542D03*
X192193312Y-53259542D03*
%TD*%
D14*
%TO.C,R39*%
X162743312Y-88459542D03*
X162743312Y-87439542D03*
%TD*%
D83*
%TO.C,R19*%
X101236184Y-78790537D03*
X102526654Y-80081007D03*
%TD*%
D84*
%TO.C,SW6*%
X115865309Y-62999888D03*
X113213658Y-65651539D03*
X120107950Y-67242529D03*
X117456299Y-69894180D03*
%TD*%
D85*
%TO.C,U7*%
X125315234Y-80605776D03*
X124643483Y-79934025D03*
X123971732Y-79262274D03*
X122363064Y-80870942D03*
X123706566Y-82214444D03*
%TD*%
D86*
%TO.C,H2*%
X192410804Y-92697034D03*
%TD*%
%TO.C,H4*%
X109698312Y-91934542D03*
%TD*%
%TO.C,H5*%
X185160804Y-51447034D03*
%TD*%
%TO.C,H3*%
X117698312Y-48434542D03*
%TD*%
D87*
X114669658Y-83232761D03*
X116083872Y-81677126D03*
X192760804Y-85447034D03*
X188410804Y-107447034D03*
X203410804Y-93197034D03*
X147260804Y-62447034D03*
X136910804Y-67447034D03*
X175910804Y-47947034D03*
X141160804Y-34447034D03*
X163660804Y-85447034D03*
X135650799Y-53972866D03*
X135948312Y-51684542D03*
X126660804Y-48447034D03*
X152448312Y-72684542D03*
X107660804Y-53697034D03*
X204410804Y-81697034D03*
X148660804Y-58447034D03*
X182493312Y-69949542D03*
X171993312Y-86199542D03*
X151993312Y-83949542D03*
X203160804Y-97197034D03*
X199260804Y-67447034D03*
X198621733Y-50051754D03*
X194993312Y-35949542D03*
X177160804Y-98197034D03*
X192493312Y-42699542D03*
X191981304Y-63197034D03*
X119065487Y-84203873D03*
X115910804Y-53197034D03*
X157160804Y-81947034D03*
X191260804Y-76197034D03*
X133760804Y-53347034D03*
X162410804Y-77197034D03*
X198660804Y-94197034D03*
X166243312Y-85949542D03*
X207993312Y-62199542D03*
X133160804Y-94197034D03*
X188410804Y-117447034D03*
X128655426Y-54552412D03*
X159910804Y-57947034D03*
X137410804Y-89197034D03*
X104160804Y-72697034D03*
X199510804Y-70697034D03*
X137510804Y-60697034D03*
X193410804Y-97947034D03*
X199260804Y-85447034D03*
X143198312Y-54684542D03*
X193010804Y-79447034D03*
X202160804Y-44697034D03*
X94410804Y-77197034D03*
X184660804Y-34697034D03*
X122910804Y-73447034D03*
X205160804Y-78447034D03*
X133160804Y-60447034D03*
X204660804Y-86447034D03*
X171410804Y-71697034D03*
X122910804Y-47947034D03*
X202910804Y-101197034D03*
X92910804Y-50447034D03*
X193510804Y-67447034D03*
X110910804Y-78697034D03*
X115910804Y-94197034D03*
X95410804Y-92447034D03*
X188410804Y-100947034D03*
X203160804Y-105697034D03*
X112160804Y-104447034D03*
X197410804Y-63197034D03*
X197410804Y-59197034D03*
X132591182Y-56516656D03*
X177160804Y-75697034D03*
X147910804Y-73447034D03*
X161910804Y-65197034D03*
X121410804Y-111197034D03*
X188410804Y-112447034D03*
X104410804Y-86447034D03*
X106910804Y-63947034D03*
X144698312Y-52684542D03*
X203660804Y-89447034D03*
X199260804Y-73447034D03*
X121660804Y-96947034D03*
X109660804Y-55697034D03*
X187910804Y-45947034D03*
X168243312Y-85949542D03*
X146410804Y-78697034D03*
X202410804Y-110947034D03*
X198760804Y-79447034D03*
X124160804Y-45447034D03*
X159410804Y-90947034D03*
X125660303Y-78740428D03*
X146160804Y-106447034D03*
X198410804Y-97947034D03*
X213910804Y-43197034D03*
X166660804Y-100197034D03*
X111160804Y-66447034D03*
X193010804Y-73447034D03*
X191010804Y-68947034D03*
X130160804Y-104197034D03*
X118160804Y-55447034D03*
X169160804Y-75697034D03*
X202410804Y-115947034D03*
X114910804Y-91197034D03*
X183410804Y-72697034D03*
X142660804Y-48046534D03*
X144448312Y-54434542D03*
X143198312Y-52684542D03*
X169993312Y-86199542D03*
X186160804Y-86447034D03*
X191981304Y-58947034D03*
X176660804Y-89197034D03*
X153910804Y-61697034D03*
X137443717Y-52179947D03*
X151410804Y-53197034D03*
X143860804Y-53697034D03*
X128328586Y-80880471D03*
X123547739Y-85829527D03*
X126455444Y-79536277D03*
X174160804Y-66947034D03*
X189743312Y-65949542D03*
X153493312Y-82699542D03*
X175543812Y-80699542D03*
X163993312Y-79699542D03*
X176493312Y-81699542D03*
X153524547Y-74426202D03*
X211743312Y-58449542D03*
X213993312Y-58199542D03*
X154160804Y-75197034D03*
X138825471Y-62303212D03*
X174993312Y-56699542D03*
X133993312Y-63449542D03*
X203993312Y-53449542D03*
X173993312Y-51199542D03*
X202243312Y-53699542D03*
X135739766Y-64100531D03*
X175774144Y-68686793D03*
X174343707Y-69232717D03*
X150942635Y-60250042D03*
X179993312Y-55199542D03*
X148425456Y-63884042D03*
X131065048Y-66542789D03*
X152660804Y-62947034D03*
X131743312Y-70699542D03*
X132993312Y-69699542D03*
X148743312Y-66449542D03*
X148660804Y-48747034D03*
X97410804Y-35197034D03*
X129910804Y-60197034D03*
X153910804Y-64197034D03*
X122910804Y-59197034D03*
X127410804Y-55697034D03*
X126910804Y-57947034D03*
X164660804Y-47447034D03*
X157660804Y-45447034D03*
X131760804Y-72547034D03*
X147743312Y-67949542D03*
X135910804Y-73947034D03*
X138660804Y-79197034D03*
X136910804Y-76447034D03*
X134660804Y-83947034D03*
X136160802Y-81447034D03*
X137910804Y-77197034D03*
X135410804Y-76197034D03*
X134453042Y-81165552D03*
X166861383Y-59852715D03*
X168543812Y-47199542D03*
X164791182Y-65077412D03*
X168660804Y-68447034D03*
X169243312Y-59699542D03*
X156410804Y-75786062D03*
X155910804Y-77584573D03*
X169243312Y-45199542D03*
X158910804Y-72697034D03*
X148493312Y-77449542D03*
X148493312Y-76449542D03*
X157743932Y-73374663D03*
X176410804Y-82947034D03*
X167410804Y-72197034D03*
X173660804Y-82697034D03*
X156160804Y-67949542D03*
X139850602Y-73197034D03*
X143660804Y-88947034D03*
X141493312Y-89697034D03*
X139660804Y-74697034D03*
X138660804Y-73197034D03*
X142660804Y-85697034D03*
X159160804Y-67697034D03*
X165410804Y-73947034D03*
X155160804Y-70697034D03*
X164410804Y-75197034D03*
X160660804Y-66697034D03*
X166166182Y-77941656D03*
X157660804Y-67447034D03*
X165410804Y-77197034D03*
X131243312Y-68699542D03*
X147493312Y-65449542D03*
X107993312Y-55449542D03*
X170910804Y-92447034D03*
X181243312Y-54699542D03*
X109750000Y-45000000D03*
X115160804Y-72947034D03*
X124993312Y-54449542D03*
X209243312Y-48699542D03*
X211910804Y-45947034D03*
X163660804Y-94947034D03*
X181493312Y-70949542D03*
X173743312Y-84449542D03*
X174993312Y-53699542D03*
X122160804Y-93697034D03*
X131410804Y-57947034D03*
M02*
