M48
; DRILL file {KiCad (6.0.5)} date Mon Jun 20 23:01:54 2022
; FORMAT={-:-/ absolute / inch / decimal}
; #@! TF.CreationDate,2022-06-20T23:01:54+02:00
; #@! TF.GenerationSoftware,Kicad,Pcbnew,(6.0.5)
; #@! TF.FileFunction,Plated,1,2,PTH
FMAT,2
INCH
; #@! TA.AperFunction,Plated,PTH,ComponentDrill
T1C0.0098
; #@! TA.AperFunction,Plated,PTH,ViaDrill
T2C0.0157
; #@! TA.AperFunction,Plated,PTH,ComponentDrill
T3C0.0236
; #@! TA.AperFunction,Plated,PTH,ComponentDrill
T4C0.0315
; #@! TA.AperFunction,Plated,PTH,ComponentDrill
T5C0.0394
; #@! TA.AperFunction,Plated,PTH,ComponentDrill
T6C0.0433
; #@! TA.AperFunction,Plated,PTH,ComponentDrill
T7C0.0492
; #@! TA.AperFunction,Plated,PTH,ComponentDrill
T8C0.0787
; #@! TA.AperFunction,Plated,PTH,ComponentDrill
T9C0.1378
; #@! TA.AperFunction,Plated,PTH,ComponentDrill
T10C0.1661
%
G90
G05
T1
X7.5359Y-3.9743
X7.5359Y-4.0333
X7.5359Y-4.0924
X7.5359Y-4.1711
X7.5359Y-4.2302
X7.5359Y-4.2893
X7.5359Y-4.368
X7.5359Y-4.427
X7.5359Y-4.4861
X7.5359Y-4.5648
X7.5359Y-4.6239
X7.5359Y-4.683
X7.5752Y-3.9743
X7.5752Y-4.0333
X7.5752Y-4.0924
X7.5752Y-4.1711
X7.5752Y-4.2302
X7.5752Y-4.2893
X7.5752Y-4.368
X7.5752Y-4.427
X7.5752Y-4.4861
X7.5752Y-4.5648
X7.5752Y-4.6239
X7.5752Y-4.683
X7.6146Y-3.9743
X7.6146Y-4.0333
X7.6146Y-4.0924
X7.6146Y-4.1711
X7.6146Y-4.2302
X7.6146Y-4.2893
X7.6146Y-4.368
X7.6146Y-4.427
X7.6146Y-4.4861
X7.6146Y-4.5648
X7.6146Y-4.6239
X7.6146Y-4.683
X7.654Y-3.9743
X7.654Y-4.0333
X7.654Y-4.0924
X7.654Y-4.1711
X7.654Y-4.2302
X7.654Y-4.2893
X7.654Y-4.368
X7.654Y-4.427
X7.654Y-4.4861
X7.654Y-4.5648
X7.654Y-4.6239
X7.654Y-4.683
X7.7327Y-3.9743
X7.7327Y-4.0333
X7.7327Y-4.0924
X7.7327Y-4.1711
X7.7327Y-4.2302
X7.7327Y-4.2893
X7.7327Y-4.368
X7.7327Y-4.427
X7.7327Y-4.4861
X7.7327Y-4.5648
X7.7327Y-4.6239
X7.7327Y-4.683
X7.7721Y-3.9743
X7.7721Y-4.0333
X7.7721Y-4.0924
X7.7721Y-4.1711
X7.7721Y-4.2302
X7.7721Y-4.2893
X7.7721Y-4.368
X7.7721Y-4.427
X7.7721Y-4.4861
X7.7721Y-4.5648
X7.7721Y-4.6239
X7.7721Y-4.683
X7.8114Y-3.9743
X7.8114Y-4.0333
X7.8114Y-4.0924
X7.8114Y-4.1711
X7.8114Y-4.2302
X7.8114Y-4.2893
X7.8114Y-4.368
X7.8114Y-4.427
X7.8114Y-4.4861
X7.8114Y-4.5648
X7.8114Y-4.6239
X7.8114Y-4.683
X7.8508Y-3.9743
X7.8508Y-4.0333
X7.8508Y-4.0924
X7.8508Y-4.1711
X7.8508Y-4.2302
X7.8508Y-4.2893
X7.8508Y-4.368
X7.8508Y-4.427
X7.8508Y-4.4861
X7.8508Y-4.5648
X7.8508Y-4.6239
X7.8508Y-4.683
T2
X3.6579Y-1.9861
X3.717Y-3.0393
X3.7563Y-3.6396
X3.8351Y-1.3857
X4.1008Y-2.8621
X4.1107Y-3.4034
X4.2091Y-2.5176
X4.2386Y-2.1141
X4.2517Y-2.1831
X4.3174Y-2.1928
X4.3209Y-1.7717
X4.3666Y-3.0983
X4.3764Y-2.616
X4.4158Y-4.1121
X4.5146Y-3.2769
X4.524Y-3.5904
X4.5339Y-2.8719
X4.5634Y-2.0944
X4.5634Y-3.7085
X4.5702Y-3.2156
X4.652Y-2.183
X4.6876Y-3.3151
X4.78Y-4.3778
X4.7898Y-3.8168
X4.8095Y-3.6889
X4.839Y-1.8877
X4.839Y-2.3306
X4.839Y-2.8916
X4.8641Y-3.3791
X4.8882Y-1.7893
X4.921Y-2.1437
X4.9473Y-3.1
X4.9786Y-3.1313
X4.9866Y-1.9074
X4.9965Y-2.2814
X5.0162Y-2.1928
X5.0523Y-3.1843
X5.0652Y-2.1477
X5.1146Y-2.37
X5.1244Y-4.1022
X5.16Y-2.6198
X5.1671Y-2.7047
X5.1737Y-2.2814
X5.1867Y-2.7834
X5.1874Y-2.8562
X5.2201Y-2.2251
X5.236Y-2.7441
X5.2426Y-2.3798
X5.2426Y-3.7085
X5.2662Y-2.1003
X5.2753Y-2.498
X5.2934Y-3.1955
X5.3016Y-3.305
X5.3311Y-2.9999
X5.3406Y-2.1249
X5.3441Y-2.5236
X5.3508Y-2.9113
X5.3523Y-2.0348
X5.3607Y-3.2066
X5.3902Y-2.6554
X5.3902Y-3.0097
X5.4099Y-3.5117
X5.4112Y-2.0543
X5.4138Y-2.3896
X5.4296Y-3.0393
X5.4591Y-2.8818
X5.4591Y-3.118
X5.4656Y-2.4529
X5.4985Y-2.9408
X5.5059Y-2.8818
X5.5575Y-1.3562
X5.5706Y-3.5314
X5.6166Y-1.8916
X5.6166Y-3.3739
X5.6377Y-2.0742
X5.6377Y-2.1529
X5.6559Y-3.5019
X5.6638Y-2.1141
X5.6869Y-2.1431
X5.6968Y-2.0742
X5.7544Y-4.1908
X5.7642Y-3.0983
X5.7977Y-2.4585
X5.8068Y-2.5768
X5.8167Y-2.6752
X5.8233Y-2.8916
X5.8435Y-2.5151
X5.8462Y-3.0098
X5.8462Y-3.0492
X5.8528Y-1.9192
X5.8528Y-2.3011
X5.856Y-2.6161
X5.9426Y-2.372
X5.9611Y-2.0944
X5.984Y-3.3051
X6.0019Y-2.8616
X6.0103Y-2.4782
X6.043Y-3.2559
X6.0443Y-2.9302
X6.0595Y-2.429
X6.0595Y-2.5274
X6.0693Y-2.9605
X6.1087Y-2.7833
X6.1382Y-3.0545
X6.1481Y-2.6752
X6.1579Y-2.9837
X6.1874Y-3.2263
X6.2071Y-1.7893
X6.2071Y-2.6554
X6.2104Y-2.8888
X6.2563Y-2.8621
X6.2662Y-2.6652
X6.276Y-3.5806
X6.2957Y-2.2814
X6.3252Y-2.6259
X6.3744Y-2.5668
X6.3941Y-3.0393
X6.4433Y-3.3641
X6.4433Y-3.7381
X6.4564Y-3.1378
X6.4729Y-2.9605
X6.4827Y-1.868
X6.4878Y-2.5621
X6.5122Y-2.9113
X6.5122Y-3.0393
X6.542Y-3.0686
X6.545Y-3.3838
X6.5614Y-3.9448
X6.5693Y-2.3564
X6.591Y-2.8424
X6.6238Y-3.3838
X6.6356Y-1.8582
X6.6402Y-2.6948
X6.6599Y-2.9802
X6.6631Y-1.7795
X6.6631Y-2.3504
X6.6927Y-3.3937
X6.7288Y-3.6396
X6.7485Y-2.8227
X6.7714Y-3.3937
X6.837Y-3.2558
X6.8403Y-3.3248
X6.8501Y-2.0157
X6.8567Y-2.6357
X6.8639Y-2.7257
X6.8895Y-2.1142
X6.8895Y-2.2323
X6.9112Y-3.1771
X6.9202Y-2.7042
X6.9256Y-1.8877
X6.9453Y-3.2656
X6.9486Y-3.2165
X6.9551Y-3.5117
X6.9748Y-2.9802
X6.9748Y-3.866
X7.0864Y-2.1732
X7.1356Y-2.1535
X7.1454Y-2.7933
X7.1848Y-2.7539
X7.2209Y-2.8621
X7.2701Y-1.366
X7.3292Y-3.4034
X7.3981Y-1.8089
X7.4177Y-3.9743
X7.4177Y-4.2302
X7.4177Y-4.427
X7.4177Y-4.6239
X7.4702Y-2.5964
X7.5201Y-2.7145
X7.53Y-2.9999
X7.5583Y-2.3207
X7.5583Y-2.4881
X7.5785Y-1.6811
X7.589Y-3.3641
X7.5989Y-2.8916
X7.5989Y-3.1278
X7.6146Y-3.8562
X7.6185Y-2.6554
X7.6769Y-1.4153
X7.7721Y-2.3306
X7.7721Y-2.4881
X7.8114Y-3.8562
X7.8198Y-1.9705
X7.8213Y-3.7085
X7.8252Y-3.1278
X7.8449Y-2.6554
X7.8449Y-2.8916
X7.8449Y-3.3641
X7.8548Y-2.7833
X7.9591Y-1.7597
X7.9623Y-2.1142
X7.9689Y-4.368
X7.9689Y-4.5648
X7.9886Y-3.9841
X7.9985Y-3.8267
X7.9985Y-4.1613
X8.0083Y-3.6692
X8.0181Y-3.5215
X8.0312Y-2.1043
X8.0477Y-3.2164
X8.0575Y-3.4034
X8.0772Y-3.0885
X8.1887Y-2.4488
X8.2379Y-1.9173
X8.3364Y-2.3012
X8.3429Y-1.8089
X8.4217Y-1.7007
X8.4249Y-2.2913
T4
X4.0664Y-3.0491
X4.1371Y-3.1198
X4.2078Y-3.1905
X4.2785Y-2.837
X4.2785Y-3.2612
X4.3493Y-2.9077
X4.42Y-2.9784
X4.4907Y-3.0491
T5
X3.6481Y-3.8841
X3.6481Y-3.9841
X4.016Y-4.0616
X4.016Y-4.1616
X4.016Y-4.2616
X4.016Y-4.3616
X4.1599Y-4.5452
X4.316Y-4.0616
X4.316Y-4.1616
X4.316Y-4.2616
X4.316Y-4.3616
X4.5831Y-4.5255
X4.6914Y-3.8515
X4.6914Y-3.9515
X4.6914Y-4.0515
X4.6914Y-4.1515
X4.7111Y-4.5255
X4.839Y-4.5255
X4.967Y-4.5255
X4.9914Y-3.8515
X4.9914Y-3.9515
X4.9914Y-4.0515
X4.9914Y-4.1515
X5.0063Y-3.5609
X5.0851Y-3.4034
X6.3292Y-2.4192
X6.4292Y-2.4192
X6.5292Y-2.4192
X6.6292Y-2.4192
X6.7292Y-2.4192
X6.8292Y-2.4192
X6.9292Y-2.4192
X7.3058Y-2.2865
X7.3058Y-2.3865
X7.3058Y-2.4865
X7.3058Y-2.5865
X7.3058Y-2.6865
X7.3058Y-2.7865
X7.3058Y-2.8865
X7.3058Y-2.9865
X7.3058Y-3.0865
X7.5667Y-2.0968
X7.6667Y-2.0968
X7.7667Y-2.0968
X8.1771Y-2.0053
X8.1771Y-2.1628
X8.1781Y-1.1352
X8.1781Y-1.2352
X8.1781Y-1.3352
X8.1781Y-1.4352
X8.1781Y-1.5352
X8.1781Y-1.6352
X8.1781Y-1.7352
X8.2771Y-2.0053
X8.2771Y-2.1628
X8.3771Y-2.0053
X8.3771Y-2.1628
X8.4771Y-2.0053
X8.4771Y-2.1628
T6
X6.681Y-4.1195
X6.681Y-4.2179
X6.681Y-4.3163
X7.2519Y-4.1195
X7.2519Y-4.3163
T7
X5.1751Y-3.7966
X5.1751Y-3.9935
X5.1751Y-4.3518
X5.1751Y-4.5486
X5.6673Y-3.7966
X5.6673Y-3.9935
X5.6673Y-4.3518
X5.6673Y-4.5486
X5.8444Y-3.7966
X5.8444Y-3.9935
X5.8444Y-4.3518
X5.8444Y-4.5486
X6.3365Y-3.7966
X6.3365Y-3.9935
X6.3365Y-4.3518
X6.3365Y-4.5486
T10
X4.9291Y-2.6943
T3
G00X3.5629Y-1.1249
M15
G01X3.5629Y-1.1012
M16
G05
G00X3.5629Y-1.2993
M15
G01X3.5629Y-1.256
M16
G05
G00X3.6451Y-1.865
M15
G01X3.6757Y-1.8956
M16
G05
G00X3.6451Y-2.5737
M15
G01X3.6757Y-2.6043
M16
G05
G00X3.6451Y-3.2823
M15
G01X3.6757Y-3.313
M16
G05
G00X3.769Y-1.8775
M15
G01X3.7996Y-1.9082
M16
G05
G00X3.769Y-2.5862
M15
G01X3.7996Y-2.6168
M16
G05
G00X3.769Y-3.2949
M15
G01X3.7996Y-3.3255
M16
G05
G00X3.8163Y-2.0362
M15
G01X3.8469Y-2.0668
M16
G05
G00X3.8163Y-2.7449
M15
G01X3.8469Y-2.7755
M16
G05
G00X3.8163Y-3.4535
M15
G01X3.8469Y-3.4842
M16
G05
G00X3.9031Y-1.1249
M15
G01X3.9031Y-1.1012
M16
G05
G00X3.9031Y-1.2993
M15
G01X3.9031Y-1.256
M16
G05
G00X3.9249Y-2.0334
M15
G01X3.9555Y-2.0641
M16
G05
G00X3.9249Y-2.7421
M15
G01X3.9555Y-2.7727
M16
G05
G00X3.9249Y-3.4508
M15
G01X3.9555Y-3.4814
M16
G05
G00X3.9736Y-2.1935
M15
G01X4.0042Y-2.2241
M16
G05
G00X3.9736Y-2.9022
M15
G01X4.0042Y-2.9328
M16
G05
G00X3.9736Y-3.6108
M15
G01X4.0042Y-3.6414
M16
G05
T8
G00X6.9921Y-3.9935
M15
G01X6.9606Y-3.9935
M16
G05
G00X6.9921Y-4.4423
M15
G01X6.9606Y-4.4423
M16
G05
T9
G00X3.7698Y-4.5094
M15
G01X3.6445Y-4.3841
M16
G05
T0
M30
