%TF.GenerationSoftware,KiCad,Pcbnew,(6.0.5)*%
%TF.CreationDate,2022-06-20T23:21:56+02:00*%
%TF.ProjectId,clarinoid-devboard,636c6172-696e-46f6-9964-2d646576626f,rev?*%
%TF.SameCoordinates,Original*%
%TF.FileFunction,Other,Comment*%
%FSLAX46Y46*%
G04 Gerber Fmt 4.6, Leading zero omitted, Abs format (unit mm)*
G04 Created by KiCad (PCBNEW (6.0.5)) date 2022-06-20 23:21:56*
%MOMM*%
%LPD*%
G01*
G04 APERTURE LIST*
%ADD10C,0.150000*%
%ADD11C,0.120000*%
%ADD12C,2.000000*%
G04 APERTURE END LIST*
D10*
X106660804Y-120447034D02*
X86660804Y-100447034D01*
X101660804Y-120447034D02*
X86660804Y-105447034D01*
X86660804Y-110447034D02*
X96660804Y-120447034D01*
X91660804Y-115447034D02*
X96660804Y-110447034D01*
X86660804Y-100447034D02*
X86660804Y-110447034D01*
X192198312Y-107034542D02*
G75*
G03*
X192198312Y-107034542I-15000000J0D01*
G01*
X96660804Y-120447034D02*
X106660804Y-120447034D01*
%TO.C,H1*%
X128198312Y-68434542D02*
G75*
G03*
X128198312Y-68434542I-3000000J0D01*
G01*
D11*
%TO.C,U12*%
X154333948Y-83946200D02*
X182333948Y-83946200D01*
X154373948Y-59946200D02*
X182373948Y-59946200D01*
X182373948Y-59946200D02*
X182373948Y-87946200D01*
X182373948Y-87946200D02*
X154373948Y-87946200D01*
X154373948Y-87946200D02*
X154373948Y-59946200D01*
X161333948Y-83946200D02*
X175333948Y-83946200D01*
X175333948Y-83946200D02*
X175333948Y-87946200D01*
X175333948Y-87946200D02*
X161333948Y-87946200D01*
X161333948Y-87946200D02*
X161333948Y-83946200D01*
X182333948Y-63946200D02*
X154373948Y-63946200D01*
X154373948Y-63946200D02*
X154373948Y-78446200D01*
X154373948Y-78446200D02*
X182333948Y-78446200D01*
X182333948Y-78446200D02*
X182333948Y-63946200D01*
X161753948Y-61446200D02*
G75*
G03*
X161753948Y-61446200I-1000000J0D01*
G01*
X171913948Y-61446200D02*
G75*
G03*
X171913948Y-61446200I-1000000J0D01*
G01*
X166833948Y-61446200D02*
G75*
G03*
X166833948Y-61446200I-1000000J0D01*
G01*
X176993948Y-61446200D02*
G75*
G03*
X176993948Y-61446200I-1000000J0D01*
G01*
D12*
X157373948Y-85946200D02*
G75*
G03*
X157373948Y-85946200I-1000000J0D01*
G01*
X181373948Y-85946200D02*
G75*
G03*
X181373948Y-85946200I-1000000J0D01*
G01*
D11*
X169373948Y-61446200D02*
G75*
G03*
X169373948Y-61446200I-1000000J0D01*
G01*
D12*
X157373948Y-61946200D02*
G75*
G03*
X157373948Y-61946200I-1000000J0D01*
G01*
X181373948Y-61946200D02*
G75*
G03*
X181373948Y-61946200I-1000000J0D01*
G01*
D11*
X174453948Y-61446200D02*
G75*
G03*
X174453948Y-61446200I-1000000J0D01*
G01*
X164293948Y-61446200D02*
G75*
G03*
X164293948Y-61446200I-1000000J0D01*
G01*
%TD*%
M02*
