M48
; DRILL file {KiCad (6.0.5)} date Tue Jun 14 17:19:09 2022
; FORMAT={-:-/ absolute / metric / decimal}
; #@! TF.CreationDate,2022-06-14T17:19:09+02:00
; #@! TF.GenerationSoftware,Kicad,Pcbnew,(6.0.5)
; #@! TF.FileFunction,Plated,1,2,PTH
FMAT,2
METRIC
; #@! TA.AperFunction,Plated,PTH,ViaDrill
T1C0.400
; #@! TA.AperFunction,Plated,PTH,ComponentDrill
T2C0.800
; #@! TA.AperFunction,Plated,PTH,ComponentDrill
T3C1.000
; #@! TA.AperFunction,Plated,PTH,ComponentDrill
T4C1.100
; #@! TA.AperFunction,Plated,PTH,ComponentDrill
T5C3.200
%
G90
G05
T1
X209.148Y-84.148
X209.4Y-87.2
X211.6Y-78.2
X212.8Y-79.2
X214.2Y-94.4
X215.4Y-69.4
X230.6Y-72.0
X231.412Y-70.588
X240.0Y-67.8
X241.6Y-69.484
T2
X219.418Y-63.542
X219.418Y-71.162
X221.958Y-63.542
X221.958Y-71.162
X224.498Y-63.542
X224.498Y-71.162
X227.038Y-63.542
X227.038Y-71.162
X233.26Y-63.58
X233.26Y-71.2
X235.8Y-63.58
X235.8Y-71.2
X238.34Y-63.58
X238.34Y-71.2
X240.88Y-63.58
X240.88Y-71.2
T3
X201.3Y-71.56
X201.3Y-74.1
X201.3Y-76.64
X201.3Y-79.18
X201.3Y-81.72
X201.3Y-84.26
X201.3Y-86.8
X201.3Y-89.34
X202.075Y-97.575
X203.84Y-71.56
X203.84Y-74.1
X203.84Y-76.64
X203.84Y-79.18
X203.84Y-81.72
X203.84Y-84.26
X203.84Y-86.8
X203.84Y-89.34
X204.615Y-97.575
X207.155Y-97.575
X207.875Y-68.175
X209.475Y-60.175
X210.415Y-68.175
X212.015Y-60.175
X212.4Y-97.4
X212.955Y-68.175
X214.555Y-60.175
X214.94Y-97.4
X221.0Y-95.0
X221.0Y-97.54
X221.6Y-60.2
X224.14Y-60.2
X226.68Y-60.2
X234.86Y-60.342
X237.4Y-60.342
X239.94Y-60.342
T4
X209.55Y-74.18
X209.55Y-89.42
X212.09Y-74.18
X212.09Y-89.42
X214.63Y-74.18
X214.63Y-89.42
X217.17Y-74.18
X217.17Y-89.42
X219.71Y-74.18
X219.71Y-89.42
X222.25Y-74.18
X222.25Y-89.42
X224.79Y-74.18
X224.79Y-89.42
X227.33Y-74.18
X227.33Y-89.42
X229.87Y-74.18
X229.87Y-89.42
X232.41Y-74.18
X232.41Y-89.42
X234.95Y-74.18
X234.95Y-89.42
X237.49Y-74.18
X237.49Y-89.42
X240.03Y-74.18
X240.03Y-89.42
X242.57Y-74.18
X242.57Y-89.42
T5
X203.8Y-63.6
X238.6Y-95.0
T0
M30
