G04 #@! TF.GenerationSoftware,KiCad,Pcbnew,(6.0.5)*
G04 #@! TF.CreationDate,2022-06-14T17:18:27+02:00*
G04 #@! TF.ProjectId,midiperformer,6d696469-7065-4726-966f-726d65722e6b,rev?*
G04 #@! TF.SameCoordinates,Original*
G04 #@! TF.FileFunction,Soldermask,Bot*
G04 #@! TF.FilePolarity,Negative*
%FSLAX46Y46*%
G04 Gerber Fmt 4.6, Leading zero omitted, Abs format (unit mm)*
G04 Created by KiCad (PCBNEW (6.0.5)) date 2022-06-14 17:18:27*
%MOMM*%
%LPD*%
G01*
G04 APERTURE LIST*
%ADD10R,1.700000X1.700000*%
%ADD11O,1.700000X1.700000*%
%ADD12R,1.600000X1.600000*%
%ADD13C,1.600000*%
%ADD14O,1.600000X1.600000*%
%ADD15C,6.400000*%
G04 APERTURE END LIST*
D10*
X207875000Y-68175000D03*
D11*
X210415000Y-68175000D03*
X212955000Y-68175000D03*
D10*
X209475000Y-60175000D03*
D11*
X212015000Y-60175000D03*
X214555000Y-60175000D03*
D10*
X212400000Y-97400000D03*
D11*
X214940000Y-97400000D03*
D10*
X221600000Y-60200000D03*
D11*
X224140000Y-60200000D03*
X226680000Y-60200000D03*
D10*
X201300001Y-89340000D03*
D11*
X203840001Y-89340000D03*
X201300001Y-86800000D03*
X203840001Y-86800000D03*
X201300001Y-84260000D03*
X203840001Y-84260000D03*
X201300001Y-81720000D03*
X203840001Y-81720000D03*
X201300001Y-79180000D03*
X203840001Y-79180000D03*
X201300001Y-76640000D03*
X203840001Y-76640000D03*
X201300001Y-74100000D03*
X203840001Y-74100000D03*
X201300001Y-71560000D03*
X203840001Y-71560000D03*
D12*
X242570000Y-74180000D03*
D13*
X240030000Y-74180000D03*
X237490000Y-74180000D03*
X234950000Y-74180000D03*
X232410000Y-74180000D03*
X229870000Y-74180000D03*
X227330000Y-74180000D03*
X224790000Y-74180000D03*
X222250000Y-74180000D03*
X219710000Y-74180000D03*
X217170000Y-74180000D03*
X214630000Y-74180000D03*
X212090000Y-74180000D03*
X209550000Y-74180000D03*
X209550000Y-89420000D03*
X212090000Y-89420000D03*
X214630000Y-89420000D03*
X217170000Y-89420000D03*
X219710000Y-89420000D03*
X222250000Y-89420000D03*
X224790000Y-89420000D03*
X227330000Y-89420000D03*
X229870000Y-89420000D03*
X232410000Y-89420000D03*
X234950000Y-89420000D03*
X237490000Y-89420000D03*
X240030000Y-89420000D03*
X242570000Y-89420000D03*
D10*
X234860000Y-60342256D03*
D11*
X237400000Y-60342256D03*
X239940000Y-60342256D03*
D12*
X240880000Y-63580000D03*
D14*
X238340000Y-63580000D03*
X235800000Y-63580000D03*
X233260000Y-63580000D03*
X233260000Y-71200000D03*
X235800000Y-71200000D03*
X238340000Y-71200000D03*
X240880000Y-71200000D03*
D15*
X238600000Y-95000000D03*
D10*
X202075000Y-97575000D03*
D11*
X204615000Y-97575000D03*
X207155000Y-97575000D03*
D15*
X203800000Y-63600000D03*
D10*
X221000000Y-95000000D03*
D11*
X221000000Y-97540000D03*
D12*
X227037745Y-63542256D03*
D14*
X224497745Y-63542256D03*
X221957745Y-63542256D03*
X219417745Y-63542256D03*
X219417745Y-71162256D03*
X221957745Y-71162256D03*
X224497745Y-71162256D03*
X227037745Y-71162256D03*
M02*
