G04 #@! TF.GenerationSoftware,KiCad,Pcbnew,(6.0.5)*
G04 #@! TF.CreationDate,2022-06-14T17:18:27+02:00*
G04 #@! TF.ProjectId,midiperformer,6d696469-7065-4726-966f-726d65722e6b,rev?*
G04 #@! TF.SameCoordinates,Original*
G04 #@! TF.FileFunction,Paste,Top*
G04 #@! TF.FilePolarity,Positive*
%FSLAX46Y46*%
G04 Gerber Fmt 4.6, Leading zero omitted, Abs format (unit mm)*
G04 Created by KiCad (PCBNEW (6.0.5)) date 2022-06-14 17:18:27*
%MOMM*%
%LPD*%
G01*
G04 APERTURE LIST*
G04 Aperture macros list*
%AMRoundRect*
0 Rectangle with rounded corners*
0 $1 Rounding radius*
0 $2 $3 $4 $5 $6 $7 $8 $9 X,Y pos of 4 corners*
0 Add a 4 corners polygon primitive as box body*
4,1,4,$2,$3,$4,$5,$6,$7,$8,$9,$2,$3,0*
0 Add four circle primitives for the rounded corners*
1,1,$1+$1,$2,$3*
1,1,$1+$1,$4,$5*
1,1,$1+$1,$6,$7*
1,1,$1+$1,$8,$9*
0 Add four rect primitives between the rounded corners*
20,1,$1+$1,$2,$3,$4,$5,0*
20,1,$1+$1,$4,$5,$6,$7,0*
20,1,$1+$1,$6,$7,$8,$9,0*
20,1,$1+$1,$8,$9,$2,$3,0*%
G04 Aperture macros list end*
%ADD10RoundRect,0.135000X0.135000X0.185000X-0.135000X0.185000X-0.135000X-0.185000X0.135000X-0.185000X0*%
%ADD11R,1.200000X0.900000*%
%ADD12RoundRect,0.135000X-0.185000X0.135000X-0.185000X-0.135000X0.185000X-0.135000X0.185000X0.135000X0*%
%ADD13RoundRect,0.135000X0.185000X-0.135000X0.185000X0.135000X-0.185000X0.135000X-0.185000X-0.135000X0*%
%ADD14RoundRect,0.140000X-0.170000X0.140000X-0.170000X-0.140000X0.170000X-0.140000X0.170000X0.140000X0*%
%ADD15R,3.050000X2.750000*%
%ADD16R,2.200000X1.200000*%
G04 APERTURE END LIST*
D10*
X214460000Y-62600000D03*
X213440000Y-62600000D03*
X207210001Y-86140000D03*
X206190001Y-86140000D03*
X207210001Y-88540000D03*
X206190001Y-88540000D03*
D11*
X216437745Y-66392256D03*
X216437745Y-63092256D03*
D12*
X243080000Y-68760000D03*
X243080000Y-69780000D03*
D13*
X217037745Y-68742256D03*
X217037745Y-67722256D03*
D10*
X212065000Y-70675000D03*
X211045000Y-70675000D03*
X214265000Y-70675000D03*
X213245000Y-70675000D03*
D13*
X230880000Y-68780000D03*
X230880000Y-67760000D03*
D10*
X207210001Y-70740000D03*
X206190001Y-70740000D03*
D14*
X229437745Y-70952256D03*
X229437745Y-71912256D03*
D10*
X207210001Y-75940000D03*
X206190001Y-75940000D03*
X212260000Y-62600000D03*
X211240000Y-62600000D03*
X207210001Y-73340000D03*
X206190001Y-73340000D03*
D11*
X230280000Y-66430000D03*
X230280000Y-63130000D03*
D15*
X229400000Y-94075000D03*
X229400000Y-97125000D03*
X232750000Y-97125000D03*
X232750000Y-94075000D03*
D16*
X224775000Y-93320000D03*
X224775000Y-97880000D03*
D10*
X207210001Y-78540000D03*
X206190001Y-78540000D03*
D14*
X243080000Y-70780000D03*
X243080000Y-71740000D03*
D10*
X207210001Y-80940000D03*
X206190001Y-80940000D03*
X207210001Y-83540000D03*
X206190001Y-83540000D03*
D12*
X229437745Y-68832256D03*
X229437745Y-69852256D03*
M02*
