%TF.GenerationSoftware,KiCad,Pcbnew,(6.0.5)*%
%TF.CreationDate,2022-08-13T10:27:20+02:00*%
%TF.ProjectId,clarinoid-devboard,636c6172-696e-46f6-9964-2d646576626f,rev?*%
%TF.SameCoordinates,Original*%
%TF.FileFunction,Other,Comment*%
%FSLAX46Y46*%
G04 Gerber Fmt 4.6, Leading zero omitted, Abs format (unit mm)*
G04 Created by KiCad (PCBNEW (6.0.5)) date 2022-08-13 10:27:20*
%MOMM*%
%LPD*%
G01*
G04 APERTURE LIST*
%ADD10C,0.150000*%
%ADD11C,0.120000*%
%ADD12C,0.100000*%
G04 APERTURE END LIST*
D10*
%TO.C,U39*%
X187835983Y-95900867D02*
X187835983Y-95607534D01*
X187909317Y-95460867D01*
X188055983Y-95314200D01*
X188349317Y-95240867D01*
X188862650Y-95240867D01*
X189155983Y-95314200D01*
X189302650Y-95460867D01*
X189375983Y-95607534D01*
X189375983Y-95900867D01*
X189302650Y-96047534D01*
X189155983Y-96194200D01*
X188862650Y-96267534D01*
X188349317Y-96267534D01*
X188055983Y-96194200D01*
X187909317Y-96047534D01*
X187835983Y-95900867D01*
X188349317Y-93920867D02*
X189375983Y-93920867D01*
X188349317Y-94580867D02*
X189155983Y-94580867D01*
X189302650Y-94507534D01*
X189375983Y-94360867D01*
X189375983Y-94140867D01*
X189302650Y-93994200D01*
X189229317Y-93920867D01*
X188349317Y-93407534D02*
X188349317Y-92820867D01*
X187835983Y-93187534D02*
X189155983Y-93187534D01*
X189302650Y-93114200D01*
X189375983Y-92967534D01*
X189375983Y-92820867D01*
X188349317Y-92307534D02*
X189889317Y-92307534D01*
X188422650Y-92307534D02*
X188349317Y-92160867D01*
X188349317Y-91867534D01*
X188422650Y-91720867D01*
X188495983Y-91647534D01*
X188642650Y-91574200D01*
X189082650Y-91574200D01*
X189229317Y-91647534D01*
X189302650Y-91720867D01*
X189375983Y-91867534D01*
X189375983Y-92160867D01*
X189302650Y-92307534D01*
X188349317Y-90254200D02*
X189375983Y-90254200D01*
X188349317Y-90914200D02*
X189155983Y-90914200D01*
X189302650Y-90840867D01*
X189375983Y-90694200D01*
X189375983Y-90474200D01*
X189302650Y-90327534D01*
X189229317Y-90254200D01*
X188349317Y-89740867D02*
X188349317Y-89154200D01*
X187835983Y-89520867D02*
X189155983Y-89520867D01*
X189302650Y-89447534D01*
X189375983Y-89300867D01*
X189375983Y-89154200D01*
X188789317Y-87467534D02*
X188789317Y-86294200D01*
X189375983Y-86880867D02*
X188202650Y-86880867D01*
X187835983Y-84827534D02*
X187835983Y-85560867D01*
X188569317Y-85634200D01*
X188495983Y-85560867D01*
X188422650Y-85414200D01*
X188422650Y-85047534D01*
X188495983Y-84900867D01*
X188569317Y-84827534D01*
X188715983Y-84754200D01*
X189082650Y-84754200D01*
X189229317Y-84827534D01*
X189302650Y-84900867D01*
X189375983Y-85047534D01*
X189375983Y-85414200D01*
X189302650Y-85560867D01*
X189229317Y-85634200D01*
X188349317Y-84240867D02*
X189375983Y-83874200D01*
X188349317Y-83507534D01*
X109403483Y-80076700D02*
X109403483Y-78536700D01*
X109770150Y-78536700D01*
X109990150Y-78610034D01*
X110136817Y-78756700D01*
X110210150Y-78903367D01*
X110283483Y-79196700D01*
X110283483Y-79416700D01*
X110210150Y-79710034D01*
X110136817Y-79856700D01*
X109990150Y-80003367D01*
X109770150Y-80076700D01*
X109403483Y-80076700D01*
X110943483Y-79490034D02*
X112116817Y-79490034D01*
X190449317Y-86807534D02*
X190375983Y-86954200D01*
X190375983Y-87174200D01*
X190449317Y-87394200D01*
X190595983Y-87540867D01*
X190742650Y-87614200D01*
X191035983Y-87687534D01*
X191255983Y-87687534D01*
X191549317Y-87614200D01*
X191695983Y-87540867D01*
X191842650Y-87394200D01*
X191915983Y-87174200D01*
X191915983Y-87027534D01*
X191842650Y-86807534D01*
X191769317Y-86734200D01*
X191255983Y-86734200D01*
X191255983Y-87027534D01*
X191915983Y-86074200D02*
X190375983Y-86074200D01*
X191915983Y-85194200D01*
X190375983Y-85194200D01*
X191915983Y-84460867D02*
X190375983Y-84460867D01*
X190375983Y-84094200D01*
X190449317Y-83874200D01*
X190595983Y-83727534D01*
X190742650Y-83654200D01*
X191035983Y-83580867D01*
X191255983Y-83580867D01*
X191549317Y-83654200D01*
X191695983Y-83727534D01*
X191842650Y-83874200D01*
X191915983Y-84094200D01*
X191915983Y-84460867D01*
X110210150Y-73530034D02*
X110063483Y-73456700D01*
X109843483Y-73456700D01*
X109623483Y-73530034D01*
X109476817Y-73676700D01*
X109403483Y-73823367D01*
X109330150Y-74116700D01*
X109330150Y-74336700D01*
X109403483Y-74630034D01*
X109476817Y-74776700D01*
X109623483Y-74923367D01*
X109843483Y-74996700D01*
X109990150Y-74996700D01*
X110210150Y-74923367D01*
X110283483Y-74850034D01*
X110283483Y-74336700D01*
X109990150Y-74336700D01*
X110943483Y-74996700D02*
X110943483Y-73456700D01*
X111823483Y-74996700D01*
X111823483Y-73456700D01*
X112556817Y-74996700D02*
X112556817Y-73456700D01*
X112923483Y-73456700D01*
X113143483Y-73530034D01*
X113290150Y-73676700D01*
X113363483Y-73823367D01*
X113436817Y-74116700D01*
X113436817Y-74336700D01*
X113363483Y-74630034D01*
X113290150Y-74776700D01*
X113143483Y-74923367D01*
X112923483Y-74996700D01*
X112556817Y-74996700D01*
X109403483Y-81076700D02*
X109403483Y-82323367D01*
X109476817Y-82470034D01*
X109550150Y-82543367D01*
X109696817Y-82616700D01*
X109990150Y-82616700D01*
X110136817Y-82543367D01*
X110210150Y-82470034D01*
X110283483Y-82323367D01*
X110283483Y-81076700D01*
X110943483Y-82543367D02*
X111163483Y-82616700D01*
X111530150Y-82616700D01*
X111676817Y-82543367D01*
X111750150Y-82470034D01*
X111823483Y-82323367D01*
X111823483Y-82176700D01*
X111750150Y-82030034D01*
X111676817Y-81956700D01*
X111530150Y-81883367D01*
X111236817Y-81810034D01*
X111090150Y-81736700D01*
X111016817Y-81663367D01*
X110943483Y-81516700D01*
X110943483Y-81370034D01*
X111016817Y-81223367D01*
X111090150Y-81150034D01*
X111236817Y-81076700D01*
X111603483Y-81076700D01*
X111823483Y-81150034D01*
X112996817Y-81810034D02*
X113216817Y-81883367D01*
X113290150Y-81956700D01*
X113363483Y-82103367D01*
X113363483Y-82323367D01*
X113290150Y-82470034D01*
X113216817Y-82543367D01*
X113070150Y-82616700D01*
X112483483Y-82616700D01*
X112483483Y-81076700D01*
X112996817Y-81076700D01*
X113143483Y-81150034D01*
X113216817Y-81223367D01*
X113290150Y-81370034D01*
X113290150Y-81516700D01*
X113216817Y-81663367D01*
X113143483Y-81736700D01*
X112996817Y-81810034D01*
X112483483Y-81810034D01*
X114976817Y-81076700D02*
X115490150Y-82616700D01*
X116003483Y-81076700D01*
X116516817Y-82616700D02*
X116516817Y-81590034D01*
X116516817Y-81076700D02*
X116443483Y-81150034D01*
X116516817Y-81223367D01*
X116590150Y-81150034D01*
X116516817Y-81076700D01*
X116516817Y-81223367D01*
X117250150Y-81590034D02*
X117250150Y-82616700D01*
X117250150Y-81736700D02*
X117323483Y-81663367D01*
X117470150Y-81590034D01*
X117690150Y-81590034D01*
X117836817Y-81663367D01*
X117910150Y-81810034D01*
X117910150Y-82616700D01*
X119816817Y-82030034D02*
X120990150Y-82030034D01*
X120403483Y-82616700D02*
X120403483Y-81443367D01*
X122456817Y-81076700D02*
X121723483Y-81076700D01*
X121650150Y-81810034D01*
X121723483Y-81736700D01*
X121870150Y-81663367D01*
X122236817Y-81663367D01*
X122383483Y-81736700D01*
X122456817Y-81810034D01*
X122530150Y-81956700D01*
X122530150Y-82323367D01*
X122456817Y-82470034D01*
X122383483Y-82543367D01*
X122236817Y-82616700D01*
X121870150Y-82616700D01*
X121723483Y-82543367D01*
X121650150Y-82470034D01*
X123043483Y-81590034D02*
X123410150Y-82616700D01*
X123776817Y-81590034D01*
X109403483Y-77536700D02*
X109403483Y-75996700D01*
X109770150Y-75996700D01*
X109990150Y-76070034D01*
X110136817Y-76216700D01*
X110210150Y-76363367D01*
X110283483Y-76656700D01*
X110283483Y-76876700D01*
X110210150Y-77170034D01*
X110136817Y-77316700D01*
X109990150Y-77463367D01*
X109770150Y-77536700D01*
X109403483Y-77536700D01*
X110943483Y-76950034D02*
X112116817Y-76950034D01*
X111530150Y-77536700D02*
X111530150Y-76363367D01*
%TO.C,SW6*%
X91280745Y-96128605D02*
X91423602Y-96176224D01*
X91471221Y-96223843D01*
X91518840Y-96319081D01*
X91518840Y-96461938D01*
X91471221Y-96557176D01*
X91423602Y-96604795D01*
X91328364Y-96652414D01*
X90947412Y-96652414D01*
X90947412Y-95652414D01*
X91280745Y-95652414D01*
X91375983Y-95700034D01*
X91423602Y-95747653D01*
X91471221Y-95842891D01*
X91471221Y-95938129D01*
X91423602Y-96033367D01*
X91375983Y-96080986D01*
X91280745Y-96128605D01*
X90947412Y-96128605D01*
X86971221Y-96366700D02*
X87447412Y-96366700D01*
X86875983Y-96652414D02*
X87209317Y-95652414D01*
X87542650Y-96652414D01*
%TO.C,U47*%
X83007888Y-65244795D02*
X83055507Y-65101938D01*
X83103126Y-65054319D01*
X83198364Y-65006700D01*
X83341221Y-65006700D01*
X83436459Y-65054319D01*
X83484078Y-65101938D01*
X83531697Y-65197176D01*
X83531697Y-65578129D01*
X82531697Y-65578129D01*
X82531697Y-65244795D01*
X82579317Y-65149557D01*
X82626936Y-65101938D01*
X82722174Y-65054319D01*
X82817412Y-65054319D01*
X82912650Y-65101938D01*
X82960269Y-65149557D01*
X83007888Y-65244795D01*
X83007888Y-65578129D01*
X82531697Y-64149557D02*
X82531697Y-64340034D01*
X82579317Y-64435272D01*
X82626936Y-64482891D01*
X82769793Y-64578129D01*
X82960269Y-64625748D01*
X83341221Y-64625748D01*
X83436459Y-64578129D01*
X83484078Y-64530510D01*
X83531697Y-64435272D01*
X83531697Y-64244795D01*
X83484078Y-64149557D01*
X83436459Y-64101938D01*
X83341221Y-64054319D01*
X83103126Y-64054319D01*
X83007888Y-64101938D01*
X82960269Y-64149557D01*
X82912650Y-64244795D01*
X82912650Y-64435272D01*
X82960269Y-64530510D01*
X83007888Y-64578129D01*
X83103126Y-64625748D01*
X96549317Y-77031938D02*
X96501697Y-77127176D01*
X96501697Y-77270034D01*
X96549317Y-77412891D01*
X96644555Y-77508129D01*
X96739793Y-77555748D01*
X96930269Y-77603367D01*
X97073126Y-77603367D01*
X97263602Y-77555748D01*
X97358840Y-77508129D01*
X97454078Y-77412891D01*
X97501697Y-77270034D01*
X97501697Y-77174795D01*
X97454078Y-77031938D01*
X97406459Y-76984319D01*
X97073126Y-76984319D01*
X97073126Y-77174795D01*
X97501697Y-76555748D02*
X96501697Y-76555748D01*
X97501697Y-75984319D01*
X96501697Y-75984319D01*
X97501697Y-75508129D02*
X96501697Y-75508129D01*
X96501697Y-75270034D01*
X96549317Y-75127176D01*
X96644555Y-75031938D01*
X96739793Y-74984319D01*
X96930269Y-74936700D01*
X97073126Y-74936700D01*
X97263602Y-74984319D01*
X97358840Y-75031938D01*
X97454078Y-75127176D01*
X97501697Y-75270034D01*
X97501697Y-75508129D01*
X81975983Y-82064319D02*
X81975983Y-81588129D01*
X82261697Y-82159557D02*
X81261697Y-81826224D01*
X82261697Y-81492891D01*
X82261697Y-80635748D02*
X82261697Y-81207176D01*
X82261697Y-80921462D02*
X81261697Y-80921462D01*
X81404555Y-81016700D01*
X81499793Y-81111938D01*
X81547412Y-81207176D01*
X95707888Y-65244795D02*
X95755507Y-65101938D01*
X95803126Y-65054319D01*
X95898364Y-65006700D01*
X96041221Y-65006700D01*
X96136459Y-65054319D01*
X96184078Y-65101938D01*
X96231697Y-65197176D01*
X96231697Y-65578129D01*
X95231697Y-65578129D01*
X95231697Y-65244795D01*
X95279317Y-65149557D01*
X95326936Y-65101938D01*
X95422174Y-65054319D01*
X95517412Y-65054319D01*
X95612650Y-65101938D01*
X95660269Y-65149557D01*
X95707888Y-65244795D01*
X95707888Y-65578129D01*
X96231697Y-64054319D02*
X96231697Y-64625748D01*
X96231697Y-64340034D02*
X95231697Y-64340034D01*
X95374555Y-64435272D01*
X95469793Y-64530510D01*
X95517412Y-64625748D01*
X94675983Y-82064319D02*
X94675983Y-81588129D01*
X94961697Y-82159557D02*
X93961697Y-81826224D01*
X94961697Y-81492891D01*
X93961697Y-80730986D02*
X93961697Y-80921462D01*
X94009317Y-81016700D01*
X94056936Y-81064319D01*
X94199793Y-81159557D01*
X94390269Y-81207176D01*
X94771221Y-81207176D01*
X94866459Y-81159557D01*
X94914078Y-81111938D01*
X94961697Y-81016700D01*
X94961697Y-80826224D01*
X94914078Y-80730986D01*
X94866459Y-80683367D01*
X94771221Y-80635748D01*
X94533126Y-80635748D01*
X94437888Y-80683367D01*
X94390269Y-80730986D01*
X94342650Y-80826224D01*
X94342650Y-81016700D01*
X94390269Y-81111938D01*
X94437888Y-81159557D01*
X94533126Y-81207176D01*
%TO.C,U6*%
X173885031Y-139848414D02*
X173313602Y-139848414D01*
X173599317Y-139848414D02*
X173599317Y-138848414D01*
X173504078Y-138991272D01*
X173408840Y-139086510D01*
X173313602Y-139134129D01*
%TO.C,U42*%
X143205983Y-114859200D02*
X143205983Y-115739200D01*
X143205983Y-115299200D02*
X141665983Y-115299200D01*
X141885983Y-115445867D01*
X142032650Y-115592534D01*
X142105983Y-115739200D01*
X143059317Y-114199200D02*
X143132650Y-114125867D01*
X143205983Y-114199200D01*
X143132650Y-114272534D01*
X143059317Y-114199200D01*
X143205983Y-114199200D01*
X142179317Y-112805867D02*
X143425983Y-112805867D01*
X143572650Y-112879200D01*
X143645983Y-112952534D01*
X143719317Y-113099200D01*
X143719317Y-113319200D01*
X143645983Y-113465867D01*
X143132650Y-112805867D02*
X143205983Y-112952534D01*
X143205983Y-113245867D01*
X143132650Y-113392534D01*
X143059317Y-113465867D01*
X142912650Y-113539200D01*
X142472650Y-113539200D01*
X142325983Y-113465867D01*
X142252650Y-113392534D01*
X142179317Y-113245867D01*
X142179317Y-112952534D01*
X142252650Y-112805867D01*
X142179317Y-112072534D02*
X143205983Y-112072534D01*
X142325983Y-112072534D02*
X142252650Y-111999200D01*
X142179317Y-111852534D01*
X142179317Y-111632534D01*
X142252650Y-111485867D01*
X142399317Y-111412534D01*
X143205983Y-111412534D01*
X143205983Y-110019200D02*
X141665983Y-110019200D01*
X143132650Y-110019200D02*
X143205983Y-110165867D01*
X143205983Y-110459200D01*
X143132650Y-110605867D01*
X143059317Y-110679200D01*
X142912650Y-110752534D01*
X142472650Y-110752534D01*
X142325983Y-110679200D01*
X142252650Y-110605867D01*
X142179317Y-110459200D01*
X142179317Y-110165867D01*
X142252650Y-110019200D01*
X212095150Y-90091700D02*
X211215150Y-90091700D01*
X211655150Y-90091700D02*
X211655150Y-88551700D01*
X211508483Y-88771700D01*
X211361817Y-88918367D01*
X211215150Y-88991700D01*
X212755150Y-89945034D02*
X212828483Y-90018367D01*
X212755150Y-90091700D01*
X212681817Y-90018367D01*
X212755150Y-89945034D01*
X212755150Y-90091700D01*
X214148483Y-89065034D02*
X214148483Y-90311700D01*
X214075150Y-90458367D01*
X214001817Y-90531700D01*
X213855150Y-90605034D01*
X213635150Y-90605034D01*
X213488483Y-90531700D01*
X214148483Y-90018367D02*
X214001817Y-90091700D01*
X213708483Y-90091700D01*
X213561817Y-90018367D01*
X213488483Y-89945034D01*
X213415150Y-89798367D01*
X213415150Y-89358367D01*
X213488483Y-89211700D01*
X213561817Y-89138367D01*
X213708483Y-89065034D01*
X214001817Y-89065034D01*
X214148483Y-89138367D01*
X214881817Y-89065034D02*
X214881817Y-90091700D01*
X214881817Y-89211700D02*
X214955150Y-89138367D01*
X215101817Y-89065034D01*
X215321817Y-89065034D01*
X215468483Y-89138367D01*
X215541817Y-89285034D01*
X215541817Y-90091700D01*
X216935150Y-90091700D02*
X216935150Y-88551700D01*
X216935150Y-90018367D02*
X216788483Y-90091700D01*
X216495150Y-90091700D01*
X216348483Y-90018367D01*
X216275150Y-89945034D01*
X216201817Y-89798367D01*
X216201817Y-89358367D01*
X216275150Y-89211700D01*
X216348483Y-89138367D01*
X216495150Y-89065034D01*
X216788483Y-89065034D01*
X216935150Y-89138367D01*
%TO.C,U46*%
X72549317Y-77031938D02*
X72501697Y-77127176D01*
X72501697Y-77270034D01*
X72549317Y-77412891D01*
X72644555Y-77508129D01*
X72739793Y-77555748D01*
X72930269Y-77603367D01*
X73073126Y-77603367D01*
X73263602Y-77555748D01*
X73358840Y-77508129D01*
X73454078Y-77412891D01*
X73501697Y-77270034D01*
X73501697Y-77174795D01*
X73454078Y-77031938D01*
X73406459Y-76984319D01*
X73073126Y-76984319D01*
X73073126Y-77174795D01*
X73501697Y-76555748D02*
X72501697Y-76555748D01*
X73501697Y-75984319D01*
X72501697Y-75984319D01*
X73501697Y-75508129D02*
X72501697Y-75508129D01*
X72501697Y-75270034D01*
X72549317Y-75127176D01*
X72644555Y-75031938D01*
X72739793Y-74984319D01*
X72930269Y-74936700D01*
X73073126Y-74936700D01*
X73263602Y-74984319D01*
X73358840Y-75031938D01*
X73454078Y-75127176D01*
X73501697Y-75270034D01*
X73501697Y-75508129D01*
X57975983Y-82064319D02*
X57975983Y-81588129D01*
X58261697Y-82159557D02*
X57261697Y-81826224D01*
X58261697Y-81492891D01*
X58261697Y-80635748D02*
X58261697Y-81207176D01*
X58261697Y-80921462D02*
X57261697Y-80921462D01*
X57404555Y-81016700D01*
X57499793Y-81111938D01*
X57547412Y-81207176D01*
X59007888Y-65244795D02*
X59055507Y-65101938D01*
X59103126Y-65054319D01*
X59198364Y-65006700D01*
X59341221Y-65006700D01*
X59436459Y-65054319D01*
X59484078Y-65101938D01*
X59531697Y-65197176D01*
X59531697Y-65578129D01*
X58531697Y-65578129D01*
X58531697Y-65244795D01*
X58579317Y-65149557D01*
X58626936Y-65101938D01*
X58722174Y-65054319D01*
X58817412Y-65054319D01*
X58912650Y-65101938D01*
X58960269Y-65149557D01*
X59007888Y-65244795D01*
X59007888Y-65578129D01*
X58531697Y-64149557D02*
X58531697Y-64340034D01*
X58579317Y-64435272D01*
X58626936Y-64482891D01*
X58769793Y-64578129D01*
X58960269Y-64625748D01*
X59341221Y-64625748D01*
X59436459Y-64578129D01*
X59484078Y-64530510D01*
X59531697Y-64435272D01*
X59531697Y-64244795D01*
X59484078Y-64149557D01*
X59436459Y-64101938D01*
X59341221Y-64054319D01*
X59103126Y-64054319D01*
X59007888Y-64101938D01*
X58960269Y-64149557D01*
X58912650Y-64244795D01*
X58912650Y-64435272D01*
X58960269Y-64530510D01*
X59007888Y-64578129D01*
X59103126Y-64625748D01*
X70675983Y-82064319D02*
X70675983Y-81588129D01*
X70961697Y-82159557D02*
X69961697Y-81826224D01*
X70961697Y-81492891D01*
X69961697Y-80730986D02*
X69961697Y-80921462D01*
X70009317Y-81016700D01*
X70056936Y-81064319D01*
X70199793Y-81159557D01*
X70390269Y-81207176D01*
X70771221Y-81207176D01*
X70866459Y-81159557D01*
X70914078Y-81111938D01*
X70961697Y-81016700D01*
X70961697Y-80826224D01*
X70914078Y-80730986D01*
X70866459Y-80683367D01*
X70771221Y-80635748D01*
X70533126Y-80635748D01*
X70437888Y-80683367D01*
X70390269Y-80730986D01*
X70342650Y-80826224D01*
X70342650Y-81016700D01*
X70390269Y-81111938D01*
X70437888Y-81159557D01*
X70533126Y-81207176D01*
X71707888Y-65244795D02*
X71755507Y-65101938D01*
X71803126Y-65054319D01*
X71898364Y-65006700D01*
X72041221Y-65006700D01*
X72136459Y-65054319D01*
X72184078Y-65101938D01*
X72231697Y-65197176D01*
X72231697Y-65578129D01*
X71231697Y-65578129D01*
X71231697Y-65244795D01*
X71279317Y-65149557D01*
X71326936Y-65101938D01*
X71422174Y-65054319D01*
X71517412Y-65054319D01*
X71612650Y-65101938D01*
X71660269Y-65149557D01*
X71707888Y-65244795D01*
X71707888Y-65578129D01*
X72231697Y-64054319D02*
X72231697Y-64625748D01*
X72231697Y-64340034D02*
X71231697Y-64340034D01*
X71374555Y-64435272D01*
X71469793Y-64530510D01*
X71517412Y-64625748D01*
%TO.C,U43*%
X128095150Y-90091734D02*
X127215150Y-90091734D01*
X127655150Y-90091734D02*
X127655150Y-88551734D01*
X127508483Y-88771734D01*
X127361817Y-88918401D01*
X127215150Y-88991734D01*
X128755150Y-89945068D02*
X128828483Y-90018401D01*
X128755150Y-90091734D01*
X128681817Y-90018401D01*
X128755150Y-89945068D01*
X128755150Y-90091734D01*
X130148483Y-89065068D02*
X130148483Y-90311734D01*
X130075150Y-90458401D01*
X130001817Y-90531734D01*
X129855150Y-90605068D01*
X129635150Y-90605068D01*
X129488483Y-90531734D01*
X130148483Y-90018401D02*
X130001817Y-90091734D01*
X129708483Y-90091734D01*
X129561817Y-90018401D01*
X129488483Y-89945068D01*
X129415150Y-89798401D01*
X129415150Y-89358401D01*
X129488483Y-89211734D01*
X129561817Y-89138401D01*
X129708483Y-89065068D01*
X130001817Y-89065068D01*
X130148483Y-89138401D01*
X130881817Y-89065068D02*
X130881817Y-90091734D01*
X130881817Y-89211734D02*
X130955150Y-89138401D01*
X131101817Y-89065068D01*
X131321817Y-89065068D01*
X131468483Y-89138401D01*
X131541817Y-89285068D01*
X131541817Y-90091734D01*
X132935150Y-90091734D02*
X132935150Y-88551734D01*
X132935150Y-90018401D02*
X132788483Y-90091734D01*
X132495150Y-90091734D01*
X132348483Y-90018401D01*
X132275150Y-89945068D01*
X132201817Y-89798401D01*
X132201817Y-89358401D01*
X132275150Y-89211734D01*
X132348483Y-89138401D01*
X132495150Y-89065068D01*
X132788483Y-89065068D01*
X132935150Y-89138401D01*
X59205983Y-114859234D02*
X59205983Y-115739234D01*
X59205983Y-115299234D02*
X57665983Y-115299234D01*
X57885983Y-115445901D01*
X58032650Y-115592568D01*
X58105983Y-115739234D01*
X59059317Y-114199234D02*
X59132650Y-114125901D01*
X59205983Y-114199234D01*
X59132650Y-114272568D01*
X59059317Y-114199234D01*
X59205983Y-114199234D01*
X58179317Y-112805901D02*
X59425983Y-112805901D01*
X59572650Y-112879234D01*
X59645983Y-112952568D01*
X59719317Y-113099234D01*
X59719317Y-113319234D01*
X59645983Y-113465901D01*
X59132650Y-112805901D02*
X59205983Y-112952568D01*
X59205983Y-113245901D01*
X59132650Y-113392568D01*
X59059317Y-113465901D01*
X58912650Y-113539234D01*
X58472650Y-113539234D01*
X58325983Y-113465901D01*
X58252650Y-113392568D01*
X58179317Y-113245901D01*
X58179317Y-112952568D01*
X58252650Y-112805901D01*
X58179317Y-112072568D02*
X59205983Y-112072568D01*
X58325983Y-112072568D02*
X58252650Y-111999234D01*
X58179317Y-111852568D01*
X58179317Y-111632568D01*
X58252650Y-111485901D01*
X58399317Y-111412568D01*
X59205983Y-111412568D01*
X59205983Y-110019234D02*
X57665983Y-110019234D01*
X59132650Y-110019234D02*
X59205983Y-110165901D01*
X59205983Y-110459234D01*
X59132650Y-110605901D01*
X59059317Y-110679234D01*
X58912650Y-110752568D01*
X58472650Y-110752568D01*
X58325983Y-110679234D01*
X58252650Y-110605901D01*
X58179317Y-110459234D01*
X58179317Y-110165901D01*
X58252650Y-110019234D01*
%TO.C,SW1*%
X164650745Y-78628605D02*
X164793602Y-78676224D01*
X164841221Y-78723843D01*
X164888840Y-78819081D01*
X164888840Y-78961938D01*
X164841221Y-79057176D01*
X164793602Y-79104795D01*
X164698364Y-79152414D01*
X164317412Y-79152414D01*
X164317412Y-78152414D01*
X164650745Y-78152414D01*
X164745983Y-78200034D01*
X164793602Y-78247653D01*
X164841221Y-78342891D01*
X164841221Y-78438129D01*
X164793602Y-78533367D01*
X164745983Y-78580986D01*
X164650745Y-78628605D01*
X164317412Y-78628605D01*
X160341221Y-78866700D02*
X160817412Y-78866700D01*
X160245983Y-79152414D02*
X160579317Y-78152414D01*
X160912650Y-79152414D01*
D11*
%TO.C,U39*%
X188679317Y-80650034D02*
X188679317Y-83190034D01*
X191219317Y-80650034D02*
X191219317Y-83190034D01*
X103809317Y-55300034D02*
X193809317Y-55300034D01*
X193809317Y-55300034D02*
X193809317Y-85300034D01*
X193809317Y-85300034D02*
X103809317Y-85300034D01*
X103809317Y-85300034D02*
X103809317Y-55300034D01*
X191219317Y-57790034D02*
G75*
G03*
X191219317Y-57790034I0J0D01*
G01*
X107199317Y-79380034D02*
G75*
G03*
X107199317Y-79380034I-800000J0D01*
G01*
X107199317Y-76840034D02*
G75*
G03*
X107199317Y-76840034I-800000J0D01*
G01*
X107199317Y-74300034D02*
G75*
G03*
X107199317Y-74300034I-800000J0D01*
G01*
X192019317Y-81920034D02*
G75*
G03*
X192019317Y-81920034I-800000J0D01*
G01*
X189479317Y-81920034D02*
G75*
G03*
X189479317Y-81920034I-800000J0D01*
G01*
X191819317Y-58790034D02*
G75*
G03*
X191819317Y-58790034I-1600000J0D01*
G01*
X107199317Y-81920034D02*
G75*
G03*
X107199317Y-81920034I-800000J0D01*
G01*
D10*
%TO.C,H10*%
X221309317Y-115700034D02*
G75*
G03*
X221309317Y-115700034I-3200000J0D01*
G01*
D12*
%TO.C,U53*%
X91059317Y-85300004D02*
G75*
G03*
X91059317Y-87300004I0J-1000000D01*
G01*
X86809317Y-87300004D02*
G75*
G03*
X86809317Y-85300004I0J1000000D01*
G01*
D11*
X85809317Y-87300004D02*
X91809317Y-87300004D01*
X85809317Y-85300004D02*
X91809317Y-85300004D01*
%TO.C,SW6*%
X87809317Y-96200034D02*
X90609317Y-96200034D01*
X89209317Y-97400034D02*
X88409317Y-98600034D01*
X90609317Y-99800034D02*
X87809317Y-99800034D01*
X89209317Y-99800034D02*
X89209317Y-98600034D01*
X89209317Y-96200034D02*
X89209317Y-97400034D01*
X89409317Y-97400034D02*
G75*
G03*
X89409317Y-97400034I-200000J0D01*
G01*
X89409317Y-98600034D02*
G75*
G03*
X89409317Y-98600034I-200000J0D01*
G01*
%TO.C,U50*%
X124809317Y-87300034D02*
X130809317Y-87300034D01*
X124809317Y-85300034D02*
X130809317Y-85300034D01*
D12*
X125809317Y-87300034D02*
G75*
G03*
X125809317Y-85300034I0J1000000D01*
G01*
X130059317Y-85300034D02*
G75*
G03*
X130059317Y-87300034I0J-1000000D01*
G01*
D10*
%TO.C,H4*%
X101556672Y-98155034D02*
G75*
G03*
X101556672Y-98155034I-3000000J0D01*
G01*
D12*
%TO.C,U56*%
X79809317Y-74300034D02*
G75*
G03*
X77809317Y-74300034I-1000000J0D01*
G01*
X77809317Y-70050034D02*
G75*
G03*
X79809317Y-70050034I1000000J0D01*
G01*
D11*
X77809317Y-75300034D02*
X77809317Y-69300034D01*
X79809317Y-75300034D02*
X79809317Y-69300034D01*
D12*
%TO.C,U65*%
X139809317Y-110300068D02*
G75*
G03*
X137809317Y-110300068I-1000000J0D01*
G01*
X137809317Y-106050068D02*
G75*
G03*
X139809317Y-106050068I1000000J0D01*
G01*
D11*
X137809317Y-111300068D02*
X137809317Y-105300068D01*
X139809317Y-111300068D02*
X139809317Y-105300068D01*
D12*
%TO.C,U49*%
X156889304Y-87300034D02*
G75*
G03*
X156889304Y-85300034I0J1000000D01*
G01*
X161139304Y-85300034D02*
G75*
G03*
X161139304Y-87300034I0J-1000000D01*
G01*
D11*
X155889304Y-85300034D02*
X161889304Y-85300034D01*
X155889304Y-87300034D02*
X161889304Y-87300034D01*
%TO.C,U47*%
X100389317Y-68650034D02*
G75*
G03*
X100389317Y-68650034I-800000J0D01*
G01*
X100389317Y-73730034D02*
G75*
G03*
X100389317Y-73730034I-800000J0D01*
G01*
X83879317Y-62300034D02*
G75*
G03*
X83879317Y-62300034I-800000J0D01*
G01*
X91499317Y-62300034D02*
G75*
G03*
X91499317Y-62300034I-800000J0D01*
G01*
X87689317Y-83300034D02*
G75*
G03*
X87689317Y-83300034I-800000J0D01*
G01*
X88959317Y-62300034D02*
G75*
G03*
X88959317Y-62300034I-800000J0D01*
G01*
X84409317Y-72800034D02*
G75*
G03*
X84409317Y-72800034I-1600000J0D01*
G01*
X95309317Y-83300034D02*
G75*
G03*
X95309317Y-83300034I-800000J0D01*
G01*
X96579317Y-62300034D02*
G75*
G03*
X96579317Y-62300034I-800000J0D01*
G01*
X94039317Y-62300034D02*
G75*
G03*
X94039317Y-62300034I-800000J0D01*
G01*
X86419317Y-62300034D02*
G75*
G03*
X86419317Y-62300034I-800000J0D01*
G01*
X90229317Y-83300034D02*
G75*
G03*
X90229317Y-83300034I-800000J0D01*
G01*
X85149317Y-83300034D02*
G75*
G03*
X85149317Y-83300034I-800000J0D01*
G01*
X100389317Y-76270034D02*
G75*
G03*
X100389317Y-76270034I-800000J0D01*
G01*
X100389317Y-71190034D02*
G75*
G03*
X100389317Y-71190034I-800000J0D01*
G01*
X82609317Y-83300034D02*
G75*
G03*
X82609317Y-83300034I-800000J0D01*
G01*
X92769317Y-83300034D02*
G75*
G03*
X92769317Y-83300034I-800000J0D01*
G01*
X79809317Y-85300034D02*
X101809317Y-85300034D01*
X101809317Y-85300034D02*
X101809317Y-60300034D01*
X101809317Y-60300034D02*
X79809317Y-60300034D01*
X79809317Y-60300034D02*
X79809317Y-85300034D01*
D10*
%TO.C,H11*%
X62009317Y-72800034D02*
G75*
G03*
X62009317Y-72800034I-3200000J0D01*
G01*
%TO.C,H12*%
X86009317Y-72800034D02*
G75*
G03*
X86009317Y-72800034I-3200000J0D01*
G01*
%TO.C,H9*%
X62709317Y-90900034D02*
G75*
G03*
X62709317Y-90900034I-3200000J0D01*
G01*
D11*
%TO.C,U6*%
X172329317Y-124410034D02*
X233289317Y-124410034D01*
X233289317Y-124410034D02*
X233289317Y-142190034D01*
X233289317Y-142190034D02*
X172329317Y-142190034D01*
X172329317Y-142190034D02*
X172329317Y-124410034D01*
X232019317Y-128220034D02*
X233289317Y-128220034D01*
X233289317Y-128220034D02*
X233289317Y-138380034D01*
X233289317Y-138380034D02*
X232019317Y-138380034D01*
X232019317Y-138380034D02*
X232019317Y-128220034D01*
X220589317Y-126950034D02*
X233289317Y-126950034D01*
X233289317Y-126950034D02*
X233289317Y-139650034D01*
X233289317Y-139650034D02*
X220589317Y-139650034D01*
X220589317Y-139650034D02*
X220589317Y-126950034D01*
X171059317Y-129490034D02*
X177409317Y-129490034D01*
X177409317Y-129490034D02*
X177409317Y-137110034D01*
X177409317Y-137110034D02*
X171059317Y-137110034D01*
X171059317Y-137110034D02*
X171059317Y-129490034D01*
X142059317Y-139650034D02*
X171059317Y-139650034D01*
X171059317Y-139650034D02*
X171059317Y-126950034D01*
X171059317Y-126950034D02*
X142059317Y-126950034D01*
X142059317Y-126950034D02*
X142059317Y-139650034D01*
X233289317Y-139650034D02*
X248289317Y-139650034D01*
X248289317Y-139650034D02*
X248289317Y-126950034D01*
X248289317Y-126950034D02*
X233289317Y-126950034D01*
X233289317Y-126950034D02*
X233289317Y-139650034D01*
X230241317Y-140920034D02*
G75*
G03*
X230241317Y-140920034I-762000J0D01*
G01*
X232781317Y-140920034D02*
G75*
G03*
X232781317Y-140920034I-762000J0D01*
G01*
X232019317Y-125680034D02*
G75*
G03*
X232019317Y-125680034I0J0D01*
G01*
X176901317Y-125680034D02*
G75*
G03*
X176901317Y-125680034I-762000J0D01*
G01*
X179441317Y-140920034D02*
G75*
G03*
X179441317Y-140920034I-762000J0D01*
G01*
X229479317Y-140920034D02*
G75*
G03*
X229479317Y-140920034I0J0D01*
G01*
X230241317Y-125680034D02*
G75*
G03*
X230241317Y-125680034I-762000J0D01*
G01*
X174107317Y-140920034D02*
G75*
G03*
X174107317Y-140920034I-508000J0D01*
G01*
X176139317Y-125680034D02*
G75*
G03*
X176139317Y-125680034I0J0D01*
G01*
X173599317Y-140920034D02*
G75*
G03*
X173599317Y-140920034I0J0D01*
G01*
X174361317Y-125680034D02*
G75*
G03*
X174361317Y-125680034I-762000J0D01*
G01*
X176139317Y-140920034D02*
G75*
G03*
X176139317Y-140920034I0J0D01*
G01*
X176901317Y-140920034D02*
G75*
G03*
X176901317Y-140920034I-762000J0D01*
G01*
X229479317Y-125680034D02*
G75*
G03*
X229479317Y-125680034I0J0D01*
G01*
X173599317Y-125680034D02*
G75*
G03*
X173599317Y-125680034I0J0D01*
G01*
X232019317Y-140920034D02*
G75*
G03*
X232019317Y-140920034I0J0D01*
G01*
X232781317Y-125680034D02*
G75*
G03*
X232781317Y-125680034I-762000J0D01*
G01*
%TO.C,U42*%
X219769317Y-109780034D02*
G75*
G03*
X219769317Y-109780034I0J0D01*
G01*
X190769317Y-117400034D02*
G75*
G03*
X190769317Y-117400034I0J0D01*
G01*
X220769317Y-109780034D02*
G75*
G03*
X220769317Y-109780034I-1000000J0D01*
G01*
X220769317Y-114860034D02*
G75*
G03*
X220769317Y-114860034I-1000000J0D01*
G01*
X181609317Y-117400034D02*
G75*
G03*
X181609317Y-117400034I-1000000J0D01*
G01*
X219769317Y-97080034D02*
G75*
G03*
X219769317Y-97080034I0J0D01*
G01*
X158749317Y-117400034D02*
G75*
G03*
X158749317Y-117400034I-1000000J0D01*
G01*
X220769317Y-89460034D02*
G75*
G03*
X220769317Y-89460034I-1000000J0D01*
G01*
X219769317Y-112320034D02*
G75*
G03*
X219769317Y-112320034I0J0D01*
G01*
X153669317Y-117400034D02*
G75*
G03*
X153669317Y-117400034I-1000000J0D01*
G01*
X219769317Y-92000034D02*
G75*
G03*
X219769317Y-92000034I0J0D01*
G01*
X142509317Y-117400034D02*
G75*
G03*
X142509317Y-117400034I0J0D01*
G01*
X188229317Y-117400034D02*
G75*
G03*
X188229317Y-117400034I0J0D01*
G01*
X219769317Y-89460034D02*
G75*
G03*
X219769317Y-89460034I0J0D01*
G01*
X185689317Y-117400034D02*
G75*
G03*
X185689317Y-117400034I0J0D01*
G01*
X186689317Y-117400034D02*
G75*
G03*
X186689317Y-117400034I-1000000J0D01*
G01*
X220769317Y-99620034D02*
G75*
G03*
X220769317Y-99620034I-1000000J0D01*
G01*
X220769317Y-107240034D02*
G75*
G03*
X220769317Y-107240034I-1000000J0D01*
G01*
X162829317Y-117400034D02*
G75*
G03*
X162829317Y-117400034I0J0D01*
G01*
X163829317Y-117400034D02*
G75*
G03*
X163829317Y-117400034I-1000000J0D01*
G01*
X220769317Y-92000034D02*
G75*
G03*
X220769317Y-92000034I-1000000J0D01*
G01*
X179069317Y-117400034D02*
G75*
G03*
X179069317Y-117400034I-1000000J0D01*
G01*
X148589317Y-117400034D02*
G75*
G03*
X148589317Y-117400034I-1000000J0D01*
G01*
X219769317Y-102160034D02*
G75*
G03*
X219769317Y-102160034I0J0D01*
G01*
X145049317Y-117400034D02*
G75*
G03*
X145049317Y-117400034I0J0D01*
G01*
X191769317Y-117400034D02*
G75*
G03*
X191769317Y-117400034I-1000000J0D01*
G01*
X155209317Y-117400034D02*
G75*
G03*
X155209317Y-117400034I0J0D01*
G01*
X143509317Y-117400034D02*
G75*
G03*
X143509317Y-117400034I-1000000J0D01*
G01*
X147589317Y-117400034D02*
G75*
G03*
X147589317Y-117400034I0J0D01*
G01*
X178069317Y-117400034D02*
G75*
G03*
X178069317Y-117400034I0J0D01*
G01*
X172989317Y-117400034D02*
G75*
G03*
X172989317Y-117400034I0J0D01*
G01*
X220769317Y-104700034D02*
G75*
G03*
X220769317Y-104700034I-1000000J0D01*
G01*
X220769317Y-97080034D02*
G75*
G03*
X220769317Y-97080034I-1000000J0D01*
G01*
X219769317Y-107240034D02*
G75*
G03*
X219769317Y-107240034I0J0D01*
G01*
X151129317Y-117400034D02*
G75*
G03*
X151129317Y-117400034I-1000000J0D01*
G01*
X175529317Y-117400034D02*
G75*
G03*
X175529317Y-117400034I0J0D01*
G01*
X167909317Y-117400034D02*
G75*
G03*
X167909317Y-117400034I0J0D01*
G01*
X166369317Y-117400034D02*
G75*
G03*
X166369317Y-117400034I-1000000J0D01*
G01*
X168909317Y-117400034D02*
G75*
G03*
X168909317Y-117400034I-1000000J0D01*
G01*
X220769317Y-102160034D02*
G75*
G03*
X220769317Y-102160034I-1000000J0D01*
G01*
X183149317Y-117400034D02*
G75*
G03*
X183149317Y-117400034I0J0D01*
G01*
X219769317Y-94540034D02*
G75*
G03*
X219769317Y-94540034I0J0D01*
G01*
X180609317Y-117400034D02*
G75*
G03*
X180609317Y-117400034I0J0D01*
G01*
X161289317Y-117400034D02*
G75*
G03*
X161289317Y-117400034I-1000000J0D01*
G01*
X184149317Y-117400034D02*
G75*
G03*
X184149317Y-117400034I-1000000J0D01*
G01*
X220769317Y-112320034D02*
G75*
G03*
X220769317Y-112320034I-1000000J0D01*
G01*
X170449317Y-117400034D02*
G75*
G03*
X170449317Y-117400034I0J0D01*
G01*
X145109317Y-90900034D02*
G75*
G03*
X145109317Y-90900034I-1600000J0D01*
G01*
X156209317Y-117400034D02*
G75*
G03*
X156209317Y-117400034I-1000000J0D01*
G01*
X176529317Y-117400034D02*
G75*
G03*
X176529317Y-117400034I-1000000J0D01*
G01*
X165369317Y-117400034D02*
G75*
G03*
X165369317Y-117400034I0J0D01*
G01*
X160289317Y-117400034D02*
G75*
G03*
X160289317Y-117400034I0J0D01*
G01*
X152669317Y-117400034D02*
G75*
G03*
X152669317Y-117400034I0J0D01*
G01*
X150129317Y-117400034D02*
G75*
G03*
X150129317Y-117400034I0J0D01*
G01*
X219769317Y-99620034D02*
G75*
G03*
X219769317Y-99620034I0J0D01*
G01*
X219769317Y-104700034D02*
G75*
G03*
X219769317Y-104700034I0J0D01*
G01*
X146049317Y-117400034D02*
G75*
G03*
X146049317Y-117400034I-1000000J0D01*
G01*
X173989317Y-117400034D02*
G75*
G03*
X173989317Y-117400034I-1000000J0D01*
G01*
X219769317Y-114860034D02*
G75*
G03*
X219769317Y-114860034I0J0D01*
G01*
X189229317Y-117400034D02*
G75*
G03*
X189229317Y-117400034I-1000000J0D01*
G01*
X171449317Y-117400034D02*
G75*
G03*
X171449317Y-117400034I-1000000J0D01*
G01*
X220769317Y-117400034D02*
G75*
G03*
X220769317Y-117400034I-1000000J0D01*
G01*
X219769317Y-117400034D02*
G75*
G03*
X219769317Y-117400034I0J0D01*
G01*
X157749317Y-117400034D02*
G75*
G03*
X157749317Y-117400034I0J0D01*
G01*
X220769317Y-94540034D02*
G75*
G03*
X220769317Y-94540034I-1000000J0D01*
G01*
X139809317Y-87300034D02*
X221809317Y-87300034D01*
X221809317Y-87300034D02*
X221809317Y-119300034D01*
X221809317Y-119300034D02*
X139809317Y-119300034D01*
X139809317Y-119300034D02*
X139809317Y-87300034D01*
D12*
%TO.C,U52*%
X189809317Y-85300034D02*
G75*
G03*
X189809317Y-87300034I0J-1000000D01*
G01*
X185559317Y-87300034D02*
G75*
G03*
X185559317Y-85300034I0J1000000D01*
G01*
D11*
X184559317Y-87300034D02*
X190559317Y-87300034D01*
X184559317Y-85300034D02*
X190559317Y-85300034D01*
D12*
%TO.C,U60*%
X101809317Y-70050034D02*
G75*
G03*
X103809317Y-70050034I1000000J0D01*
G01*
X103809317Y-74300034D02*
G75*
G03*
X101809317Y-74300034I-1000000J0D01*
G01*
D11*
X101809317Y-69050034D02*
X101809317Y-75050034D01*
X103809317Y-69050034D02*
X103809317Y-75050034D01*
%TO.C,U46*%
X61149317Y-83300034D02*
G75*
G03*
X61149317Y-83300034I-800000J0D01*
G01*
X63689317Y-83300034D02*
G75*
G03*
X63689317Y-83300034I-800000J0D01*
G01*
X76389317Y-71190034D02*
G75*
G03*
X76389317Y-71190034I-800000J0D01*
G01*
X76389317Y-76270034D02*
G75*
G03*
X76389317Y-76270034I-800000J0D01*
G01*
X60409317Y-72800034D02*
G75*
G03*
X60409317Y-72800034I-1600000J0D01*
G01*
X58609317Y-83300034D02*
G75*
G03*
X58609317Y-83300034I-800000J0D01*
G01*
X72579317Y-62300034D02*
G75*
G03*
X72579317Y-62300034I-800000J0D01*
G01*
X70039317Y-62300034D02*
G75*
G03*
X70039317Y-62300034I-800000J0D01*
G01*
X64959317Y-62300034D02*
G75*
G03*
X64959317Y-62300034I-800000J0D01*
G01*
X66229317Y-83300034D02*
G75*
G03*
X66229317Y-83300034I-800000J0D01*
G01*
X59879317Y-62300034D02*
G75*
G03*
X59879317Y-62300034I-800000J0D01*
G01*
X67499317Y-62300034D02*
G75*
G03*
X67499317Y-62300034I-800000J0D01*
G01*
X68769317Y-83300034D02*
G75*
G03*
X68769317Y-83300034I-800000J0D01*
G01*
X71309317Y-83300034D02*
G75*
G03*
X71309317Y-83300034I-800000J0D01*
G01*
X76389317Y-73730034D02*
G75*
G03*
X76389317Y-73730034I-800000J0D01*
G01*
X62419317Y-62300034D02*
G75*
G03*
X62419317Y-62300034I-800000J0D01*
G01*
X76389317Y-68650034D02*
G75*
G03*
X76389317Y-68650034I-800000J0D01*
G01*
X55809317Y-85300034D02*
X77809317Y-85300034D01*
X77809317Y-85300034D02*
X77809317Y-60300034D01*
X77809317Y-60300034D02*
X55809317Y-60300034D01*
X55809317Y-60300034D02*
X55809317Y-85300034D01*
D12*
%TO.C,U55*%
X61809317Y-87300034D02*
G75*
G03*
X61809317Y-85300034I0J1000000D01*
G01*
X66059317Y-85300034D02*
G75*
G03*
X66059317Y-87300034I0J-1000000D01*
G01*
D11*
X60809317Y-85300034D02*
X66809317Y-85300034D01*
X60809317Y-87300034D02*
X66809317Y-87300034D01*
D10*
%TO.C,H6*%
X193419317Y-58790034D02*
G75*
G03*
X193419317Y-58790034I-3200000J0D01*
G01*
D11*
%TO.C,U43*%
X55809317Y-87300068D02*
X137809317Y-87300068D01*
X137809317Y-87300068D02*
X137809317Y-119300068D01*
X137809317Y-119300068D02*
X55809317Y-119300068D01*
X55809317Y-119300068D02*
X55809317Y-87300068D01*
X136769317Y-92000068D02*
G75*
G03*
X136769317Y-92000068I-1000000J0D01*
G01*
X135769317Y-112320068D02*
G75*
G03*
X135769317Y-112320068I0J0D01*
G01*
X61109317Y-90900068D02*
G75*
G03*
X61109317Y-90900068I-1600000J0D01*
G01*
X100149317Y-117400068D02*
G75*
G03*
X100149317Y-117400068I-1000000J0D01*
G01*
X135769317Y-117400068D02*
G75*
G03*
X135769317Y-117400068I0J0D01*
G01*
X106769317Y-117400068D02*
G75*
G03*
X106769317Y-117400068I0J0D01*
G01*
X76289317Y-117400068D02*
G75*
G03*
X76289317Y-117400068I0J0D01*
G01*
X136769317Y-104700068D02*
G75*
G03*
X136769317Y-104700068I-1000000J0D01*
G01*
X96609317Y-117400068D02*
G75*
G03*
X96609317Y-117400068I0J0D01*
G01*
X73749317Y-117400068D02*
G75*
G03*
X73749317Y-117400068I0J0D01*
G01*
X63589317Y-117400068D02*
G75*
G03*
X63589317Y-117400068I0J0D01*
G01*
X59509317Y-117400068D02*
G75*
G03*
X59509317Y-117400068I-1000000J0D01*
G01*
X136769317Y-117400068D02*
G75*
G03*
X136769317Y-117400068I-1000000J0D01*
G01*
X78829317Y-117400068D02*
G75*
G03*
X78829317Y-117400068I0J0D01*
G01*
X135769317Y-107240068D02*
G75*
G03*
X135769317Y-107240068I0J0D01*
G01*
X135769317Y-99620068D02*
G75*
G03*
X135769317Y-99620068I0J0D01*
G01*
X87449317Y-117400068D02*
G75*
G03*
X87449317Y-117400068I-1000000J0D01*
G01*
X136769317Y-97080068D02*
G75*
G03*
X136769317Y-97080068I-1000000J0D01*
G01*
X136769317Y-109780068D02*
G75*
G03*
X136769317Y-109780068I-1000000J0D01*
G01*
X88989317Y-117400068D02*
G75*
G03*
X88989317Y-117400068I0J0D01*
G01*
X135769317Y-102160068D02*
G75*
G03*
X135769317Y-102160068I0J0D01*
G01*
X135769317Y-114860068D02*
G75*
G03*
X135769317Y-114860068I0J0D01*
G01*
X68669317Y-117400068D02*
G75*
G03*
X68669317Y-117400068I0J0D01*
G01*
X107769317Y-117400068D02*
G75*
G03*
X107769317Y-117400068I-1000000J0D01*
G01*
X72209317Y-117400068D02*
G75*
G03*
X72209317Y-117400068I-1000000J0D01*
G01*
X136769317Y-99620068D02*
G75*
G03*
X136769317Y-99620068I-1000000J0D01*
G01*
X135769317Y-104700068D02*
G75*
G03*
X135769317Y-104700068I0J0D01*
G01*
X64589317Y-117400068D02*
G75*
G03*
X64589317Y-117400068I-1000000J0D01*
G01*
X136769317Y-94540068D02*
G75*
G03*
X136769317Y-94540068I-1000000J0D01*
G01*
X136769317Y-112320068D02*
G75*
G03*
X136769317Y-112320068I-1000000J0D01*
G01*
X82369317Y-117400068D02*
G75*
G03*
X82369317Y-117400068I-1000000J0D01*
G01*
X58509317Y-117400068D02*
G75*
G03*
X58509317Y-117400068I0J0D01*
G01*
X67129317Y-117400068D02*
G75*
G03*
X67129317Y-117400068I-1000000J0D01*
G01*
X104229317Y-117400068D02*
G75*
G03*
X104229317Y-117400068I0J0D01*
G01*
X135769317Y-89460068D02*
G75*
G03*
X135769317Y-89460068I0J0D01*
G01*
X71209317Y-117400068D02*
G75*
G03*
X71209317Y-117400068I0J0D01*
G01*
X99149317Y-117400068D02*
G75*
G03*
X99149317Y-117400068I0J0D01*
G01*
X136769317Y-114860068D02*
G75*
G03*
X136769317Y-114860068I-1000000J0D01*
G01*
X135769317Y-97080068D02*
G75*
G03*
X135769317Y-97080068I0J0D01*
G01*
X97609317Y-117400068D02*
G75*
G03*
X97609317Y-117400068I-1000000J0D01*
G01*
X61049317Y-117400068D02*
G75*
G03*
X61049317Y-117400068I0J0D01*
G01*
X69669317Y-117400068D02*
G75*
G03*
X69669317Y-117400068I-1000000J0D01*
G01*
X77289317Y-117400068D02*
G75*
G03*
X77289317Y-117400068I-1000000J0D01*
G01*
X91529317Y-117400068D02*
G75*
G03*
X91529317Y-117400068I0J0D01*
G01*
X62049317Y-117400068D02*
G75*
G03*
X62049317Y-117400068I-1000000J0D01*
G01*
X102689317Y-117400068D02*
G75*
G03*
X102689317Y-117400068I-1000000J0D01*
G01*
X94069317Y-117400068D02*
G75*
G03*
X94069317Y-117400068I0J0D01*
G01*
X135769317Y-94540068D02*
G75*
G03*
X135769317Y-94540068I0J0D01*
G01*
X86449317Y-117400068D02*
G75*
G03*
X86449317Y-117400068I0J0D01*
G01*
X81369317Y-117400068D02*
G75*
G03*
X81369317Y-117400068I0J0D01*
G01*
X136769317Y-89460068D02*
G75*
G03*
X136769317Y-89460068I-1000000J0D01*
G01*
X66129317Y-117400068D02*
G75*
G03*
X66129317Y-117400068I0J0D01*
G01*
X95069317Y-117400068D02*
G75*
G03*
X95069317Y-117400068I-1000000J0D01*
G01*
X92529317Y-117400068D02*
G75*
G03*
X92529317Y-117400068I-1000000J0D01*
G01*
X135769317Y-92000068D02*
G75*
G03*
X135769317Y-92000068I0J0D01*
G01*
X136769317Y-102160068D02*
G75*
G03*
X136769317Y-102160068I-1000000J0D01*
G01*
X135769317Y-109780068D02*
G75*
G03*
X135769317Y-109780068I0J0D01*
G01*
X101689317Y-117400068D02*
G75*
G03*
X101689317Y-117400068I0J0D01*
G01*
X136769317Y-107240068D02*
G75*
G03*
X136769317Y-107240068I-1000000J0D01*
G01*
X83909317Y-117400068D02*
G75*
G03*
X83909317Y-117400068I0J0D01*
G01*
X89989317Y-117400068D02*
G75*
G03*
X89989317Y-117400068I-1000000J0D01*
G01*
X105229317Y-117400068D02*
G75*
G03*
X105229317Y-117400068I-1000000J0D01*
G01*
X79829317Y-117400068D02*
G75*
G03*
X79829317Y-117400068I-1000000J0D01*
G01*
X84909317Y-117400068D02*
G75*
G03*
X84909317Y-117400068I-1000000J0D01*
G01*
X74749317Y-117400068D02*
G75*
G03*
X74749317Y-117400068I-1000000J0D01*
G01*
%TO.C,SW1*%
X162779317Y-81100034D02*
G75*
G03*
X162779317Y-81100034I-200000J0D01*
G01*
X162779317Y-79900034D02*
G75*
G03*
X162779317Y-79900034I-200000J0D01*
G01*
X162579317Y-78700034D02*
X162579317Y-79900034D01*
X162579317Y-82300034D02*
X162579317Y-81100034D01*
X161179317Y-78700034D02*
X163979317Y-78700034D01*
X163979317Y-82300034D02*
X161179317Y-82300034D01*
X162579317Y-79900034D02*
X161779317Y-81100034D01*
%TD*%
M02*
