%TF.GenerationSoftware,KiCad,Pcbnew,(6.0.5)*%
%TF.CreationDate,2022-08-13T10:27:20+02:00*%
%TF.ProjectId,clarinoid-devboard,636c6172-696e-46f6-9964-2d646576626f,rev?*%
%TF.SameCoordinates,Original*%
%TF.FileFunction,Legend,Top*%
%TF.FilePolarity,Positive*%
%FSLAX46Y46*%
G04 Gerber Fmt 4.6, Leading zero omitted, Abs format (unit mm)*
G04 Created by KiCad (PCBNEW (6.0.5)) date 2022-08-13 10:27:20*
%MOMM*%
%LPD*%
G01*
G04 APERTURE LIST*
G04 Aperture macros list*
%AMRoundRect*
0 Rectangle with rounded corners*
0 $1 Rounding radius*
0 $2 $3 $4 $5 $6 $7 $8 $9 X,Y pos of 4 corners*
0 Add a 4 corners polygon primitive as box body*
4,1,4,$2,$3,$4,$5,$6,$7,$8,$9,$2,$3,0*
0 Add four circle primitives for the rounded corners*
1,1,$1+$1,$2,$3*
1,1,$1+$1,$4,$5*
1,1,$1+$1,$6,$7*
1,1,$1+$1,$8,$9*
0 Add four rect primitives between the rounded corners*
20,1,$1+$1,$2,$3,$4,$5,0*
20,1,$1+$1,$4,$5,$6,$7,0*
20,1,$1+$1,$6,$7,$8,$9,0*
20,1,$1+$1,$8,$9,$2,$3,0*%
%AMFreePoly0*
4,1,14,0.088284,0.450784,0.100000,0.422500,0.100000,-0.422500,0.088284,-0.450784,0.060000,-0.462500,0.036569,-0.462500,0.008285,-0.450784,-0.088284,-0.354215,-0.100000,-0.325931,-0.100000,0.422500,-0.088284,0.450784,-0.060000,0.462500,0.060000,0.462500,0.088284,0.450784,0.088284,0.450784,$1*%
%AMFreePoly1*
4,1,14,0.088284,0.450784,0.100000,0.422500,0.100000,-0.325931,0.088284,-0.354215,-0.008285,-0.450784,-0.036569,-0.462500,-0.060000,-0.462500,-0.088284,-0.450784,-0.100000,-0.422500,-0.100000,0.422500,-0.088284,0.450784,-0.060000,0.462500,0.060000,0.462500,0.088284,0.450784,0.088284,0.450784,$1*%
%AMFreePoly2*
4,1,14,0.450784,0.088284,0.462500,0.060000,0.462500,-0.060000,0.450784,-0.088284,0.422500,-0.100000,-0.422500,-0.100000,-0.450784,-0.088284,-0.462500,-0.060000,-0.462500,-0.036569,-0.450784,-0.008285,-0.354215,0.088284,-0.325931,0.100000,0.422500,0.100000,0.450784,0.088284,0.450784,0.088284,$1*%
%AMFreePoly3*
4,1,14,0.450784,0.088284,0.462500,0.060000,0.462500,-0.060000,0.450784,-0.088284,0.422500,-0.100000,-0.325931,-0.100000,-0.354215,-0.088284,-0.450784,0.008285,-0.462500,0.036569,-0.462500,0.060000,-0.450784,0.088284,-0.422500,0.100000,0.422500,0.100000,0.450784,0.088284,0.450784,0.088284,$1*%
%AMFreePoly4*
4,1,14,-0.008285,0.450784,0.088284,0.354215,0.100000,0.325931,0.100000,-0.422500,0.088284,-0.450784,0.060000,-0.462500,-0.060000,-0.462500,-0.088284,-0.450784,-0.100000,-0.422500,-0.100000,0.422500,-0.088284,0.450784,-0.060000,0.462500,-0.036569,0.462500,-0.008285,0.450784,-0.008285,0.450784,$1*%
%AMFreePoly5*
4,1,14,0.088284,0.450784,0.100000,0.422500,0.100000,-0.422500,0.088284,-0.450784,0.060000,-0.462500,-0.060000,-0.462500,-0.088284,-0.450784,-0.100000,-0.422500,-0.100000,0.325931,-0.088284,0.354215,0.008285,0.450784,0.036569,0.462500,0.060000,0.462500,0.088284,0.450784,0.088284,0.450784,$1*%
%AMFreePoly6*
4,1,14,0.450784,0.088284,0.462500,0.060000,0.462500,0.036569,0.450784,0.008285,0.354215,-0.088284,0.325931,-0.100000,-0.422500,-0.100000,-0.450784,-0.088284,-0.462500,-0.060000,-0.462500,0.060000,-0.450784,0.088284,-0.422500,0.100000,0.422500,0.100000,0.450784,0.088284,0.450784,0.088284,$1*%
%AMFreePoly7*
4,1,14,0.354215,0.088284,0.450784,-0.008285,0.462500,-0.036569,0.462500,-0.060000,0.450784,-0.088284,0.422500,-0.100000,-0.422500,-0.100000,-0.450784,-0.088284,-0.462500,-0.060000,-0.462500,0.060000,-0.450784,0.088284,-0.422500,0.100000,0.325931,0.100000,0.354215,0.088284,0.354215,0.088284,$1*%
G04 Aperture macros list end*
%ADD10C,0.125000*%
%ADD11C,0.150000*%
%ADD12C,0.225000*%
%ADD13C,0.254000*%
%ADD14C,0.120000*%
%ADD15C,0.200000*%
%ADD16C,0.127000*%
%ADD17C,0.250000*%
%ADD18C,0.300000*%
%ADD19C,0.100000*%
%ADD20C,1.000000*%
%ADD21R,1.300000X1.700000*%
%ADD22C,3.200000*%
%ADD23O,1.700000X1.700000*%
%ADD24R,1.700000X1.700000*%
%ADD25RoundRect,0.250000X-0.475000X0.250000X-0.475000X-0.250000X0.475000X-0.250000X0.475000X0.250000X0*%
%ADD26RoundRect,0.250000X-0.312500X-0.625000X0.312500X-0.625000X0.312500X0.625000X-0.312500X0.625000X0*%
%ADD27RoundRect,0.250000X0.475000X-0.250000X0.475000X0.250000X-0.475000X0.250000X-0.475000X-0.250000X0*%
%ADD28RoundRect,0.250000X0.250000X0.475000X-0.250000X0.475000X-0.250000X-0.475000X0.250000X-0.475000X0*%
%ADD29C,0.500000*%
%ADD30R,2.850000X2.250000*%
%ADD31R,0.700000X0.950000*%
%ADD32R,7.340000X6.350000*%
%ADD33C,2.390000*%
%ADD34C,3.450000*%
%ADD35R,1.850000X3.500000*%
%ADD36R,1.000000X0.750000*%
%ADD37RoundRect,0.243750X-0.456250X0.243750X-0.456250X-0.243750X0.456250X-0.243750X0.456250X0.243750X0*%
%ADD38C,6.200000*%
%ADD39R,1.800000X1.800000*%
%ADD40R,0.800000X0.300000*%
%ADD41R,0.300000X0.800000*%
%ADD42FreePoly0,0.000000*%
%ADD43RoundRect,0.050000X-0.050000X-0.412500X0.050000X-0.412500X0.050000X0.412500X-0.050000X0.412500X0*%
%ADD44FreePoly1,0.000000*%
%ADD45FreePoly2,0.000000*%
%ADD46RoundRect,0.050000X-0.412500X-0.050000X0.412500X-0.050000X0.412500X0.050000X-0.412500X0.050000X0*%
%ADD47FreePoly3,0.000000*%
%ADD48FreePoly4,0.000000*%
%ADD49FreePoly5,0.000000*%
%ADD50FreePoly6,0.000000*%
%ADD51FreePoly7,0.000000*%
%ADD52RoundRect,0.243750X0.456250X-0.243750X0.456250X0.243750X-0.456250X0.243750X-0.456250X-0.243750X0*%
%ADD53R,1.500000X1.600000*%
%ADD54R,2.200000X1.200000*%
%ADD55R,1.500000X1.200000*%
%ADD56R,1.600000X0.700000*%
%ADD57C,1.000000*%
%ADD58RoundRect,0.250000X0.312500X0.625000X-0.312500X0.625000X-0.312500X-0.625000X0.312500X-0.625000X0*%
%ADD59RoundRect,0.250000X-0.250000X-0.475000X0.250000X-0.475000X0.250000X0.475000X-0.250000X0.475000X0*%
%ADD60RoundRect,0.250000X0.625000X-0.312500X0.625000X0.312500X-0.625000X0.312500X-0.625000X-0.312500X0*%
%ADD61C,1.650000*%
%ADD62C,1.150000*%
%ADD63R,1.550000X0.300000*%
%ADD64R,2.750000X1.200000*%
%ADD65RoundRect,0.150000X-0.512500X-0.150000X0.512500X-0.150000X0.512500X0.150000X-0.512500X0.150000X0*%
%ADD66C,0.800000*%
G04 APERTURE END LIST*
D10*
X219700932Y-91215607D02*
X218421884Y-91215607D01*
X218271408Y-91177512D01*
X218196170Y-91139416D01*
X218120932Y-91063226D01*
X218120932Y-90948940D01*
X218196170Y-90872750D01*
X218722837Y-91215607D02*
X218647599Y-91139416D01*
X218647599Y-90987035D01*
X218722837Y-90910845D01*
X218798075Y-90872750D01*
X218948551Y-90834654D01*
X219399980Y-90834654D01*
X219550456Y-90872750D01*
X219625694Y-90910845D01*
X219700932Y-90987035D01*
X219700932Y-91139416D01*
X219625694Y-91215607D01*
X217683799Y-90796559D02*
X217683799Y-91291797D01*
X217081894Y-91025131D01*
X217081894Y-91139416D01*
X217006656Y-91215607D01*
X216931418Y-91253702D01*
X216780941Y-91291797D01*
X216404751Y-91291797D01*
X216254275Y-91253702D01*
X216179037Y-91215607D01*
X216103799Y-91139416D01*
X216103799Y-90910845D01*
X216179037Y-90834654D01*
X216254275Y-90796559D01*
X217157132Y-91558464D02*
X216103799Y-91748940D01*
X217157132Y-91939416D01*
X215139999Y-91253702D02*
X215139999Y-90872750D01*
X214387618Y-90834654D01*
X214462856Y-90872750D01*
X214538094Y-90948940D01*
X214538094Y-91139416D01*
X214462856Y-91215607D01*
X214387618Y-91253702D01*
X214237141Y-91291797D01*
X213860951Y-91291797D01*
X213710475Y-91253702D01*
X213635237Y-91215607D01*
X213559999Y-91139416D01*
X213559999Y-90948940D01*
X213635237Y-90872750D01*
X213710475Y-90834654D01*
X214613332Y-91558464D02*
X213559999Y-91748940D01*
X214613332Y-91939416D01*
X211091437Y-90834654D02*
X211016199Y-90910845D01*
X211016199Y-91063226D01*
X211091437Y-91139416D01*
X211241913Y-91177512D01*
X211317151Y-91177512D01*
X211467627Y-91139416D01*
X211542865Y-91063226D01*
X211542865Y-90948940D01*
X211618103Y-90872750D01*
X211768580Y-90834654D01*
X211843818Y-90834654D01*
X211994294Y-90872750D01*
X212069532Y-90948940D01*
X212069532Y-91063226D01*
X211994294Y-91139416D01*
X211091437Y-91863226D02*
X211016199Y-91787035D01*
X211016199Y-91634654D01*
X211091437Y-91558464D01*
X211166675Y-91520369D01*
X211317151Y-91482274D01*
X211768580Y-91482274D01*
X211919056Y-91520369D01*
X211994294Y-91558464D01*
X212069532Y-91634654D01*
X212069532Y-91787035D01*
X211994294Y-91863226D01*
X211016199Y-92320369D02*
X211091437Y-92244178D01*
X211241913Y-92206083D01*
X212596199Y-92206083D01*
X208547637Y-90834654D02*
X208472399Y-90910845D01*
X208472399Y-91063226D01*
X208547637Y-91139416D01*
X208698113Y-91177512D01*
X208773351Y-91177512D01*
X208923827Y-91139416D01*
X208999065Y-91063226D01*
X208999065Y-90948940D01*
X209074303Y-90872750D01*
X209224780Y-90834654D01*
X209300018Y-90834654D01*
X209450494Y-90872750D01*
X209525732Y-90948940D01*
X209525732Y-91063226D01*
X209450494Y-91139416D01*
X208472399Y-91863226D02*
X210052399Y-91863226D01*
X208547637Y-91863226D02*
X208472399Y-91787035D01*
X208472399Y-91634654D01*
X208547637Y-91558464D01*
X208622875Y-91520369D01*
X208773351Y-91482274D01*
X209224780Y-91482274D01*
X209375256Y-91520369D01*
X209450494Y-91558464D01*
X209525732Y-91634654D01*
X209525732Y-91787035D01*
X209450494Y-91863226D01*
X208472399Y-92587035D02*
X209300018Y-92587035D01*
X209450494Y-92548940D01*
X209525732Y-92472750D01*
X209525732Y-92320369D01*
X209450494Y-92244178D01*
X208547637Y-92587035D02*
X208472399Y-92510845D01*
X208472399Y-92320369D01*
X208547637Y-92244178D01*
X208698113Y-92206083D01*
X208848589Y-92206083D01*
X208999065Y-92244178D01*
X209074303Y-92320369D01*
X209074303Y-92510845D01*
X209149541Y-92587035D01*
X205928599Y-90872750D02*
X207508599Y-90872750D01*
X206906694Y-90872750D02*
X206981932Y-90948940D01*
X206981932Y-91101321D01*
X206906694Y-91177512D01*
X206831456Y-91215607D01*
X206680980Y-91253702D01*
X206229551Y-91253702D01*
X206079075Y-91215607D01*
X206003837Y-91177512D01*
X205928599Y-91101321D01*
X205928599Y-90948940D01*
X206003837Y-90872750D01*
X206003837Y-91939416D02*
X205928599Y-91863226D01*
X205928599Y-91710845D01*
X206003837Y-91634654D01*
X206079075Y-91596559D01*
X206229551Y-91558464D01*
X206680980Y-91558464D01*
X206831456Y-91596559D01*
X206906694Y-91634654D01*
X206981932Y-91710845D01*
X206981932Y-91863226D01*
X206906694Y-91939416D01*
X205928599Y-92282274D02*
X207508599Y-92282274D01*
X206530503Y-92358464D02*
X205928599Y-92587035D01*
X206981932Y-92587035D02*
X206380027Y-92282274D01*
X203384799Y-90987035D02*
X203460037Y-90910845D01*
X203610513Y-90872750D01*
X204964799Y-90872750D01*
X203384799Y-91291797D02*
X204438132Y-91291797D01*
X204137180Y-91291797D02*
X204287656Y-91329893D01*
X204362894Y-91367988D01*
X204438132Y-91444178D01*
X204438132Y-91520369D01*
X203384799Y-91787035D02*
X204964799Y-91787035D01*
X203986703Y-91863226D02*
X203384799Y-92091797D01*
X204438132Y-92091797D02*
X203836227Y-91787035D01*
X200840999Y-91215607D02*
X202420999Y-91215607D01*
X200916237Y-91215607D02*
X200840999Y-91139416D01*
X200840999Y-90987035D01*
X200916237Y-90910845D01*
X200991475Y-90872750D01*
X201141951Y-90834654D01*
X201593380Y-90834654D01*
X201743856Y-90872750D01*
X201819094Y-90910845D01*
X201894332Y-90987035D01*
X201894332Y-91139416D01*
X201819094Y-91215607D01*
X200840999Y-91596559D02*
X201894332Y-91596559D01*
X202420999Y-91596559D02*
X202345761Y-91558464D01*
X202270522Y-91596559D01*
X202345761Y-91634654D01*
X202420999Y-91596559D01*
X202270522Y-91596559D01*
X201894332Y-91977512D02*
X200840999Y-91977512D01*
X201743856Y-91977512D02*
X201819094Y-92015607D01*
X201894332Y-92091797D01*
X201894332Y-92206083D01*
X201819094Y-92282274D01*
X201668618Y-92320369D01*
X200840999Y-92320369D01*
X198297199Y-90872750D02*
X199877199Y-90872750D01*
X198748627Y-91139416D01*
X199877199Y-91406083D01*
X198297199Y-91406083D01*
X199350532Y-91672750D02*
X199350532Y-91977512D01*
X199877199Y-91787035D02*
X198522913Y-91787035D01*
X198372437Y-91825131D01*
X198297199Y-91901321D01*
X198297199Y-91977512D01*
X195753399Y-90872750D02*
X197333399Y-90872750D01*
X196204827Y-91139416D01*
X197333399Y-91406083D01*
X195753399Y-91406083D01*
X195753399Y-91787035D02*
X196806732Y-91787035D01*
X196505780Y-91787035D02*
X196656256Y-91825131D01*
X196731494Y-91863226D01*
X196806732Y-91939416D01*
X196806732Y-92015607D01*
X194262932Y-90796559D02*
X193209599Y-90948940D01*
X193961980Y-91101321D01*
X193209599Y-91253702D01*
X194262932Y-91406083D01*
X193284837Y-91672750D02*
X193209599Y-91748940D01*
X193209599Y-91901321D01*
X193284837Y-91977512D01*
X193435313Y-92015607D01*
X193510551Y-92015607D01*
X193661027Y-91977512D01*
X193736265Y-91901321D01*
X193736265Y-91787035D01*
X193811503Y-91710845D01*
X193961980Y-91672750D01*
X194037218Y-91672750D01*
X194187694Y-91710845D01*
X194262932Y-91787035D01*
X194262932Y-91901321D01*
X194187694Y-91977512D01*
X190816275Y-91329893D02*
X190741037Y-91291797D01*
X190665799Y-91177512D01*
X190665799Y-91101321D01*
X190741037Y-90987035D01*
X190891513Y-90910845D01*
X191041989Y-90872750D01*
X191342941Y-90834654D01*
X191568656Y-90834654D01*
X191869608Y-90872750D01*
X192020084Y-90910845D01*
X192170561Y-90987035D01*
X192245799Y-91101321D01*
X192245799Y-91177512D01*
X192170561Y-91291797D01*
X192095322Y-91329893D01*
X190665799Y-91672750D02*
X192245799Y-91672750D01*
X190665799Y-92129893D02*
X191568656Y-91787035D01*
X192245799Y-92129893D02*
X191342941Y-91672750D01*
X188197237Y-90834654D02*
X188121999Y-90948940D01*
X188121999Y-91139416D01*
X188197237Y-91215607D01*
X188272475Y-91253702D01*
X188422951Y-91291797D01*
X188573427Y-91291797D01*
X188723903Y-91253702D01*
X188799141Y-91215607D01*
X188874380Y-91139416D01*
X188949618Y-90987035D01*
X189024856Y-90910845D01*
X189100094Y-90872750D01*
X189250570Y-90834654D01*
X189401046Y-90834654D01*
X189551522Y-90872750D01*
X189626761Y-90910845D01*
X189701999Y-90987035D01*
X189701999Y-91177512D01*
X189626761Y-91291797D01*
X188121999Y-91634654D02*
X189701999Y-91634654D01*
X185653437Y-90834654D02*
X185578199Y-90948940D01*
X185578199Y-91139416D01*
X185653437Y-91215607D01*
X185728675Y-91253702D01*
X185879151Y-91291797D01*
X186029627Y-91291797D01*
X186180103Y-91253702D01*
X186255341Y-91215607D01*
X186330580Y-91139416D01*
X186405818Y-90987035D01*
X186481056Y-90910845D01*
X186556294Y-90872750D01*
X186706770Y-90834654D01*
X186857246Y-90834654D01*
X187007722Y-90872750D01*
X187082961Y-90910845D01*
X187158199Y-90987035D01*
X187158199Y-91177512D01*
X187082961Y-91291797D01*
X187158199Y-91787035D02*
X187158199Y-91939416D01*
X187082961Y-92015607D01*
X186932484Y-92091797D01*
X186631532Y-92129893D01*
X186104865Y-92129893D01*
X185803913Y-92091797D01*
X185653437Y-92015607D01*
X185578199Y-91939416D01*
X185578199Y-91787035D01*
X185653437Y-91710845D01*
X185803913Y-91634654D01*
X186104865Y-91596559D01*
X186631532Y-91596559D01*
X186932484Y-91634654D01*
X187082961Y-91710845D01*
X187158199Y-91787035D01*
X183109637Y-91215607D02*
X183034399Y-91139416D01*
X183034399Y-90987035D01*
X183109637Y-90910845D01*
X183184875Y-90872750D01*
X183335351Y-90834654D01*
X183786780Y-90834654D01*
X183937256Y-90872750D01*
X184012494Y-90910845D01*
X184087732Y-90987035D01*
X184087732Y-91139416D01*
X184012494Y-91215607D01*
X183109637Y-91520369D02*
X183034399Y-91596559D01*
X183034399Y-91748940D01*
X183109637Y-91825131D01*
X183260113Y-91863226D01*
X183335351Y-91863226D01*
X183485827Y-91825131D01*
X183561065Y-91748940D01*
X183561065Y-91634654D01*
X183636303Y-91558464D01*
X183786780Y-91520369D01*
X183862018Y-91520369D01*
X184012494Y-91558464D01*
X184087732Y-91634654D01*
X184087732Y-91748940D01*
X184012494Y-91825131D01*
X180490599Y-90872750D02*
X181543932Y-90872750D01*
X181242980Y-90872750D02*
X181393456Y-90910845D01*
X181468694Y-90948940D01*
X181543932Y-91025131D01*
X181543932Y-91101321D01*
X180565837Y-91672750D02*
X180490599Y-91596559D01*
X180490599Y-91444178D01*
X180565837Y-91367988D01*
X180716313Y-91329893D01*
X181318218Y-91329893D01*
X181468694Y-91367988D01*
X181543932Y-91444178D01*
X181543932Y-91596559D01*
X181468694Y-91672750D01*
X181318218Y-91710845D01*
X181167741Y-91710845D01*
X181017265Y-91329893D01*
X180565837Y-92015607D02*
X180490599Y-92091797D01*
X180490599Y-92244178D01*
X180565837Y-92320369D01*
X180716313Y-92358464D01*
X180791551Y-92358464D01*
X180942027Y-92320369D01*
X181017265Y-92244178D01*
X181017265Y-92129893D01*
X181092503Y-92053702D01*
X181242980Y-92015607D01*
X181318218Y-92015607D01*
X181468694Y-92053702D01*
X181543932Y-92129893D01*
X181543932Y-92244178D01*
X181468694Y-92320369D01*
X177946799Y-91215607D02*
X179526799Y-91215607D01*
X178022037Y-91215607D02*
X177946799Y-91139416D01*
X177946799Y-90987035D01*
X178022037Y-90910845D01*
X178097275Y-90872750D01*
X178247751Y-90834654D01*
X178699180Y-90834654D01*
X178849656Y-90872750D01*
X178924894Y-90910845D01*
X179000132Y-90987035D01*
X179000132Y-91139416D01*
X178924894Y-91215607D01*
X178022037Y-91939416D02*
X177946799Y-91863226D01*
X177946799Y-91710845D01*
X178022037Y-91634654D01*
X178097275Y-91596559D01*
X178247751Y-91558464D01*
X178699180Y-91558464D01*
X178849656Y-91596559D01*
X178924894Y-91634654D01*
X179000132Y-91710845D01*
X179000132Y-91863226D01*
X178924894Y-91939416D01*
X175478237Y-91177512D02*
X175402999Y-91101321D01*
X175402999Y-90948940D01*
X175478237Y-90872750D01*
X175628713Y-90834654D01*
X176230618Y-90834654D01*
X176381094Y-90872750D01*
X176456332Y-90948940D01*
X176456332Y-91101321D01*
X176381094Y-91177512D01*
X176230618Y-91215607D01*
X176080141Y-91215607D01*
X175929665Y-90834654D01*
X175478237Y-91520369D02*
X175402999Y-91596559D01*
X175402999Y-91748940D01*
X175478237Y-91825131D01*
X175628713Y-91863226D01*
X175703951Y-91863226D01*
X175854427Y-91825131D01*
X175929665Y-91748940D01*
X175929665Y-91634654D01*
X176004903Y-91558464D01*
X176155380Y-91520369D01*
X176230618Y-91520369D01*
X176381094Y-91558464D01*
X176456332Y-91634654D01*
X176456332Y-91748940D01*
X176381094Y-91825131D01*
X172934437Y-91177512D02*
X172859199Y-91101321D01*
X172859199Y-90948940D01*
X172934437Y-90872750D01*
X173084913Y-90834654D01*
X173686818Y-90834654D01*
X173837294Y-90872750D01*
X173912532Y-90948940D01*
X173912532Y-91101321D01*
X173837294Y-91177512D01*
X173686818Y-91215607D01*
X173536341Y-91215607D01*
X173385865Y-90834654D01*
X172859199Y-91901321D02*
X173686818Y-91901321D01*
X173837294Y-91863226D01*
X173912532Y-91787035D01*
X173912532Y-91634654D01*
X173837294Y-91558464D01*
X172934437Y-91901321D02*
X172859199Y-91825131D01*
X172859199Y-91634654D01*
X172934437Y-91558464D01*
X173084913Y-91520369D01*
X173235389Y-91520369D01*
X173385865Y-91558464D01*
X173461103Y-91634654D01*
X173461103Y-91825131D01*
X173536341Y-91901321D01*
X170390637Y-91177512D02*
X170315399Y-91101321D01*
X170315399Y-90948940D01*
X170390637Y-90872750D01*
X170541113Y-90834654D01*
X171143018Y-90834654D01*
X171293494Y-90872750D01*
X171368732Y-90948940D01*
X171368732Y-91101321D01*
X171293494Y-91177512D01*
X171143018Y-91215607D01*
X170992541Y-91215607D01*
X170842065Y-90834654D01*
X170315399Y-91558464D02*
X171895399Y-91558464D01*
X171293494Y-91558464D02*
X171368732Y-91634654D01*
X171368732Y-91787035D01*
X171293494Y-91863226D01*
X171218256Y-91901321D01*
X171067780Y-91939416D01*
X170616351Y-91939416D01*
X170465875Y-91901321D01*
X170390637Y-91863226D01*
X170315399Y-91787035D01*
X170315399Y-91634654D01*
X170390637Y-91558464D01*
D11*
X76531102Y-81370497D02*
X76531102Y-81751450D01*
X76864436Y-81513355D02*
X76007293Y-81513355D01*
X75912055Y-81560974D01*
X75864436Y-81656212D01*
X75864436Y-81751450D01*
X75864436Y-82227640D02*
X75912055Y-82132402D01*
X75959674Y-82084783D01*
X76054912Y-82037164D01*
X76340626Y-82037164D01*
X76435864Y-82084783D01*
X76483483Y-82132402D01*
X76531102Y-82227640D01*
X76531102Y-82370497D01*
X76483483Y-82465736D01*
X76435864Y-82513355D01*
X76340626Y-82560974D01*
X76054912Y-82560974D01*
X75959674Y-82513355D01*
X75912055Y-82465736D01*
X75864436Y-82370497D01*
X75864436Y-82227640D01*
X76531102Y-82989545D02*
X75531102Y-82989545D01*
X76483483Y-82989545D02*
X76531102Y-83084783D01*
X76531102Y-83275259D01*
X76483483Y-83370497D01*
X76435864Y-83418116D01*
X76340626Y-83465736D01*
X76054912Y-83465736D01*
X75959674Y-83418116D01*
X75912055Y-83370497D01*
X75864436Y-83275259D01*
X75864436Y-83084783D01*
X75912055Y-82989545D01*
X192037317Y-77648366D02*
X192113507Y-77553128D01*
X192113507Y-77410271D01*
X192037317Y-77267414D01*
X191884936Y-77172176D01*
X191732555Y-77124557D01*
X191427793Y-77076938D01*
X191199221Y-77076938D01*
X190894459Y-77124557D01*
X190742078Y-77172176D01*
X190589697Y-77267414D01*
X190513507Y-77410271D01*
X190513507Y-77505509D01*
X190589697Y-77648366D01*
X190665888Y-77695985D01*
X191199221Y-77695985D01*
X191199221Y-77505509D01*
X190513507Y-78124557D02*
X192113507Y-78124557D01*
X190513507Y-78695985D01*
X192113507Y-78695985D01*
X190513507Y-79172176D02*
X192113507Y-79172176D01*
X192113507Y-79410271D01*
X192037317Y-79553128D01*
X191884936Y-79648366D01*
X191732555Y-79695985D01*
X191427793Y-79743604D01*
X191199221Y-79743604D01*
X190894459Y-79695985D01*
X190742078Y-79648366D01*
X190589697Y-79553128D01*
X190513507Y-79410271D01*
X190513507Y-79172176D01*
X188547031Y-77219795D02*
X188547031Y-77981700D01*
X187937507Y-77600747D02*
X189156555Y-77600747D01*
X189537507Y-78934081D02*
X189537507Y-78457890D01*
X188775602Y-78410271D01*
X188851793Y-78457890D01*
X188927983Y-78553128D01*
X188927983Y-78791223D01*
X188851793Y-78886461D01*
X188775602Y-78934081D01*
X188623221Y-78981700D01*
X188242269Y-78981700D01*
X188089888Y-78934081D01*
X188013697Y-78886461D01*
X187937507Y-78791223D01*
X187937507Y-78553128D01*
X188013697Y-78457890D01*
X188089888Y-78410271D01*
X189004174Y-79315033D02*
X187937507Y-79553128D01*
X189004174Y-79791223D01*
X190531102Y-72370497D02*
X190531102Y-72751450D01*
X190864436Y-72513355D02*
X190007293Y-72513355D01*
X189912055Y-72560974D01*
X189864436Y-72656212D01*
X189864436Y-72751450D01*
X189864436Y-73227640D02*
X189912055Y-73132402D01*
X189959674Y-73084783D01*
X190054912Y-73037164D01*
X190340626Y-73037164D01*
X190435864Y-73084783D01*
X190483483Y-73132402D01*
X190531102Y-73227640D01*
X190531102Y-73370497D01*
X190483483Y-73465736D01*
X190435864Y-73513355D01*
X190340626Y-73560974D01*
X190054912Y-73560974D01*
X189959674Y-73513355D01*
X189912055Y-73465736D01*
X189864436Y-73370497D01*
X189864436Y-73227640D01*
X190531102Y-73989545D02*
X189531102Y-73989545D01*
X190483483Y-73989545D02*
X190531102Y-74084783D01*
X190531102Y-74275259D01*
X190483483Y-74370497D01*
X190435864Y-74418116D01*
X190340626Y-74465736D01*
X190054912Y-74465736D01*
X189959674Y-74418116D01*
X189912055Y-74370497D01*
X189864436Y-74275259D01*
X189864436Y-74084783D01*
X189912055Y-73989545D01*
X91191578Y-64125416D02*
X91572531Y-64125416D01*
X91334436Y-63792082D02*
X91334436Y-64649225D01*
X91382055Y-64744463D01*
X91477293Y-64792082D01*
X91572531Y-64792082D01*
X92048721Y-64792082D02*
X91953483Y-64744463D01*
X91905864Y-64696844D01*
X91858245Y-64601606D01*
X91858245Y-64315892D01*
X91905864Y-64220654D01*
X91953483Y-64173035D01*
X92048721Y-64125416D01*
X92191578Y-64125416D01*
X92286817Y-64173035D01*
X92334436Y-64220654D01*
X92382055Y-64315892D01*
X92382055Y-64601606D01*
X92334436Y-64696844D01*
X92286817Y-64744463D01*
X92191578Y-64792082D01*
X92048721Y-64792082D01*
X92810626Y-64125416D02*
X92810626Y-65125416D01*
X92810626Y-64173035D02*
X92905864Y-64125416D01*
X93096340Y-64125416D01*
X93191578Y-64173035D01*
X93239197Y-64220654D01*
X93286817Y-64315892D01*
X93286817Y-64601606D01*
X93239197Y-64696844D01*
X93191578Y-64744463D01*
X93096340Y-64792082D01*
X92905864Y-64792082D01*
X92810626Y-64744463D01*
X72042315Y-69362450D02*
X71947077Y-69437688D01*
X71756601Y-69437688D01*
X71661363Y-69362450D01*
X71613744Y-69287212D01*
X71566125Y-69136736D01*
X71566125Y-68685307D01*
X71613744Y-68534831D01*
X71661363Y-68459593D01*
X71756601Y-68384355D01*
X71947077Y-68384355D01*
X72042315Y-68459593D01*
X72613744Y-69437688D02*
X72518505Y-69362450D01*
X72470886Y-69211974D01*
X72470886Y-67857688D01*
X72994696Y-69437688D02*
X72994696Y-67857688D01*
X73089934Y-68835784D02*
X73375648Y-69437688D01*
X73375648Y-68384355D02*
X72994696Y-68986260D01*
X70947077Y-71981488D02*
X70947077Y-70401488D01*
X70947077Y-71906250D02*
X70851839Y-71981488D01*
X70661363Y-71981488D01*
X70566125Y-71906250D01*
X70518505Y-71831012D01*
X70470886Y-71680536D01*
X70470886Y-71229107D01*
X70518505Y-71078631D01*
X70566125Y-71003393D01*
X70661363Y-70928155D01*
X70851839Y-70928155D01*
X70947077Y-71003393D01*
X71851839Y-71981488D02*
X71851839Y-71153869D01*
X71804220Y-71003393D01*
X71708982Y-70928155D01*
X71518505Y-70928155D01*
X71423267Y-71003393D01*
X71851839Y-71906250D02*
X71756601Y-71981488D01*
X71518505Y-71981488D01*
X71423267Y-71906250D01*
X71375648Y-71755774D01*
X71375648Y-71605298D01*
X71423267Y-71454822D01*
X71518505Y-71379584D01*
X71756601Y-71379584D01*
X71851839Y-71304346D01*
X72185172Y-70928155D02*
X72566125Y-70928155D01*
X72328029Y-70401488D02*
X72328029Y-71755774D01*
X72375648Y-71906250D01*
X72470886Y-71981488D01*
X72566125Y-71981488D01*
X73328029Y-71981488D02*
X73328029Y-71153869D01*
X73280410Y-71003393D01*
X73185172Y-70928155D01*
X72994696Y-70928155D01*
X72899458Y-71003393D01*
X73328029Y-71906250D02*
X73232791Y-71981488D01*
X72994696Y-71981488D01*
X72899458Y-71906250D01*
X72851839Y-71755774D01*
X72851839Y-71605298D01*
X72899458Y-71454822D01*
X72994696Y-71379584D01*
X73232791Y-71379584D01*
X73328029Y-71304346D01*
X71042315Y-72945288D02*
X71661363Y-72945288D01*
X71328029Y-73547193D01*
X71470886Y-73547193D01*
X71566125Y-73622431D01*
X71613744Y-73697669D01*
X71661363Y-73848146D01*
X71661363Y-74224336D01*
X71613744Y-74374812D01*
X71566125Y-74450050D01*
X71470886Y-74525288D01*
X71185172Y-74525288D01*
X71089934Y-74450050D01*
X71042315Y-74374812D01*
X71994696Y-73471955D02*
X72232791Y-74525288D01*
X72470886Y-73471955D01*
X72756601Y-72945288D02*
X73375648Y-72945288D01*
X73042315Y-73547193D01*
X73185172Y-73547193D01*
X73280410Y-73622431D01*
X73328029Y-73697669D01*
X73375648Y-73848146D01*
X73375648Y-74224336D01*
X73328029Y-74374812D01*
X73280410Y-74450050D01*
X73185172Y-74525288D01*
X72899458Y-74525288D01*
X72804220Y-74450050D01*
X72756601Y-74374812D01*
X71518505Y-76015755D02*
X71518505Y-77294803D01*
X71470886Y-77445279D01*
X71423267Y-77520517D01*
X71328029Y-77595755D01*
X71185172Y-77595755D01*
X71089934Y-77520517D01*
X71518505Y-76993850D02*
X71423267Y-77069088D01*
X71232791Y-77069088D01*
X71137553Y-76993850D01*
X71089934Y-76918612D01*
X71042315Y-76768136D01*
X71042315Y-76316707D01*
X71089934Y-76166231D01*
X71137553Y-76090993D01*
X71232791Y-76015755D01*
X71423267Y-76015755D01*
X71518505Y-76090993D01*
X71994696Y-76015755D02*
X71994696Y-77069088D01*
X71994696Y-76166231D02*
X72042315Y-76090993D01*
X72137553Y-76015755D01*
X72280410Y-76015755D01*
X72375648Y-76090993D01*
X72423267Y-76241469D01*
X72423267Y-77069088D01*
X73328029Y-77069088D02*
X73328029Y-75489088D01*
X73328029Y-76993850D02*
X73232791Y-77069088D01*
X73042315Y-77069088D01*
X72947077Y-76993850D01*
X72899458Y-76918612D01*
X72851839Y-76768136D01*
X72851839Y-76316707D01*
X72899458Y-76166231D01*
X72947077Y-76090993D01*
X73042315Y-76015755D01*
X73232791Y-76015755D01*
X73328029Y-76090993D01*
X116391578Y-63025450D02*
X116772531Y-63025450D01*
X116534436Y-62692116D02*
X116534436Y-63549259D01*
X116582055Y-63644497D01*
X116677293Y-63692116D01*
X116772531Y-63692116D01*
X117248721Y-63692116D02*
X117153483Y-63644497D01*
X117105864Y-63596878D01*
X117058245Y-63501640D01*
X117058245Y-63215926D01*
X117105864Y-63120688D01*
X117153483Y-63073069D01*
X117248721Y-63025450D01*
X117391578Y-63025450D01*
X117486817Y-63073069D01*
X117534436Y-63120688D01*
X117582055Y-63215926D01*
X117582055Y-63501640D01*
X117534436Y-63596878D01*
X117486817Y-63644497D01*
X117391578Y-63692116D01*
X117248721Y-63692116D01*
X118010626Y-63025450D02*
X118010626Y-64025450D01*
X118010626Y-63073069D02*
X118105864Y-63025450D01*
X118296340Y-63025450D01*
X118391578Y-63073069D01*
X118439197Y-63120688D01*
X118486817Y-63215926D01*
X118486817Y-63501640D01*
X118439197Y-63596878D01*
X118391578Y-63644497D01*
X118296340Y-63692116D01*
X118105864Y-63692116D01*
X118010626Y-63644497D01*
X130859046Y-89191421D02*
X130859046Y-90470469D01*
X130785713Y-90620945D01*
X130712380Y-90696183D01*
X130565713Y-90771421D01*
X130345713Y-90771421D01*
X130199046Y-90696183D01*
X130859046Y-90169516D02*
X130712380Y-90244754D01*
X130419046Y-90244754D01*
X130272380Y-90169516D01*
X130199046Y-90094278D01*
X130125713Y-89943802D01*
X130125713Y-89492373D01*
X130199046Y-89341897D01*
X130272380Y-89266659D01*
X130419046Y-89191421D01*
X130712380Y-89191421D01*
X130859046Y-89266659D01*
X131592380Y-89191421D02*
X131592380Y-90244754D01*
X131592380Y-89341897D02*
X131665713Y-89266659D01*
X131812380Y-89191421D01*
X132032380Y-89191421D01*
X132179046Y-89266659D01*
X132252380Y-89417135D01*
X132252380Y-90244754D01*
X133645713Y-90244754D02*
X133645713Y-88664754D01*
X133645713Y-90169516D02*
X133499046Y-90244754D01*
X133205713Y-90244754D01*
X133059046Y-90169516D01*
X132985713Y-90094278D01*
X132912380Y-89943802D01*
X132912380Y-89492373D01*
X132985713Y-89341897D01*
X133059046Y-89266659D01*
X133205713Y-89191421D01*
X133499046Y-89191421D01*
X133645713Y-89266659D01*
X129099046Y-91735221D02*
X129099046Y-92788554D01*
X128439046Y-91735221D02*
X128439046Y-92562840D01*
X128512380Y-92713316D01*
X128659046Y-92788554D01*
X128879046Y-92788554D01*
X129025713Y-92713316D01*
X129099046Y-92638078D01*
X129759046Y-92713316D02*
X129905713Y-92788554D01*
X130199046Y-92788554D01*
X130345713Y-92713316D01*
X130419046Y-92562840D01*
X130419046Y-92487602D01*
X130345713Y-92337126D01*
X130199046Y-92261888D01*
X129979046Y-92261888D01*
X129832380Y-92186650D01*
X129759046Y-92036173D01*
X129759046Y-91960935D01*
X129832380Y-91810459D01*
X129979046Y-91735221D01*
X130199046Y-91735221D01*
X130345713Y-91810459D01*
X131079046Y-92788554D02*
X131079046Y-91208554D01*
X131079046Y-91810459D02*
X131225713Y-91735221D01*
X131519046Y-91735221D01*
X131665713Y-91810459D01*
X131739046Y-91885697D01*
X131812380Y-92036173D01*
X131812380Y-92487602D01*
X131739046Y-92638078D01*
X131665713Y-92713316D01*
X131519046Y-92788554D01*
X131225713Y-92788554D01*
X131079046Y-92713316D01*
X132472380Y-92186650D02*
X133645713Y-92186650D01*
X133059046Y-92788554D02*
X133059046Y-91584745D01*
X129099046Y-94279021D02*
X129099046Y-95332354D01*
X128439046Y-94279021D02*
X128439046Y-95106640D01*
X128512380Y-95257116D01*
X128659046Y-95332354D01*
X128879046Y-95332354D01*
X129025713Y-95257116D01*
X129099046Y-95181878D01*
X129759046Y-95257116D02*
X129905713Y-95332354D01*
X130199046Y-95332354D01*
X130345713Y-95257116D01*
X130419046Y-95106640D01*
X130419046Y-95031402D01*
X130345713Y-94880926D01*
X130199046Y-94805688D01*
X129979046Y-94805688D01*
X129832380Y-94730450D01*
X129759046Y-94579973D01*
X129759046Y-94504735D01*
X129832380Y-94354259D01*
X129979046Y-94279021D01*
X130199046Y-94279021D01*
X130345713Y-94354259D01*
X131079046Y-95332354D02*
X131079046Y-93752354D01*
X131079046Y-94354259D02*
X131225713Y-94279021D01*
X131519046Y-94279021D01*
X131665713Y-94354259D01*
X131739046Y-94429497D01*
X131812380Y-94579973D01*
X131812380Y-95031402D01*
X131739046Y-95181878D01*
X131665713Y-95257116D01*
X131519046Y-95332354D01*
X131225713Y-95332354D01*
X131079046Y-95257116D01*
X132472380Y-94730450D02*
X133645713Y-94730450D01*
X132472380Y-96296154D02*
X131739046Y-96296154D01*
X131665713Y-97048535D01*
X131739046Y-96973297D01*
X131885713Y-96898059D01*
X132252380Y-96898059D01*
X132399046Y-96973297D01*
X132472380Y-97048535D01*
X132545713Y-97199012D01*
X132545713Y-97575202D01*
X132472380Y-97725678D01*
X132399046Y-97800916D01*
X132252380Y-97876154D01*
X131885713Y-97876154D01*
X131739046Y-97800916D01*
X131665713Y-97725678D01*
X133059046Y-96822821D02*
X133425713Y-97876154D01*
X133792380Y-96822821D01*
X129612380Y-100419954D02*
X129465713Y-100344716D01*
X129392380Y-100194240D01*
X129392380Y-98839954D01*
X130785713Y-100344716D02*
X130639046Y-100419954D01*
X130345713Y-100419954D01*
X130199046Y-100344716D01*
X130125713Y-100194240D01*
X130125713Y-99592335D01*
X130199046Y-99441859D01*
X130345713Y-99366621D01*
X130639046Y-99366621D01*
X130785713Y-99441859D01*
X130859046Y-99592335D01*
X130859046Y-99742812D01*
X130125713Y-99893288D01*
X132179046Y-100419954D02*
X132179046Y-98839954D01*
X132179046Y-100344716D02*
X132032380Y-100419954D01*
X131739046Y-100419954D01*
X131592380Y-100344716D01*
X131519046Y-100269478D01*
X131445713Y-100119002D01*
X131445713Y-99667573D01*
X131519046Y-99517097D01*
X131592380Y-99441859D01*
X131739046Y-99366621D01*
X132032380Y-99366621D01*
X132179046Y-99441859D01*
X133719046Y-100419954D02*
X132839046Y-100419954D01*
X133279046Y-100419954D02*
X133279046Y-98839954D01*
X133132380Y-99065669D01*
X132985713Y-99216145D01*
X132839046Y-99291383D01*
X129612380Y-102963754D02*
X129465713Y-102888516D01*
X129392380Y-102738040D01*
X129392380Y-101383754D01*
X130785713Y-102888516D02*
X130639046Y-102963754D01*
X130345713Y-102963754D01*
X130199046Y-102888516D01*
X130125713Y-102738040D01*
X130125713Y-102136135D01*
X130199046Y-101985659D01*
X130345713Y-101910421D01*
X130639046Y-101910421D01*
X130785713Y-101985659D01*
X130859046Y-102136135D01*
X130859046Y-102286612D01*
X130125713Y-102437088D01*
X132179046Y-102963754D02*
X132179046Y-101383754D01*
X132179046Y-102888516D02*
X132032380Y-102963754D01*
X131739046Y-102963754D01*
X131592380Y-102888516D01*
X131519046Y-102813278D01*
X131445713Y-102662802D01*
X131445713Y-102211373D01*
X131519046Y-102060897D01*
X131592380Y-101985659D01*
X131739046Y-101910421D01*
X132032380Y-101910421D01*
X132179046Y-101985659D01*
X132839046Y-101534231D02*
X132912380Y-101458993D01*
X133059046Y-101383754D01*
X133425713Y-101383754D01*
X133572380Y-101458993D01*
X133645713Y-101534231D01*
X133719046Y-101684707D01*
X133719046Y-101835183D01*
X133645713Y-102060897D01*
X132765713Y-102963754D01*
X133719046Y-102963754D01*
X129612380Y-105507554D02*
X129465713Y-105432316D01*
X129392380Y-105281840D01*
X129392380Y-103927554D01*
X130785713Y-105432316D02*
X130639046Y-105507554D01*
X130345713Y-105507554D01*
X130199046Y-105432316D01*
X130125713Y-105281840D01*
X130125713Y-104679935D01*
X130199046Y-104529459D01*
X130345713Y-104454221D01*
X130639046Y-104454221D01*
X130785713Y-104529459D01*
X130859046Y-104679935D01*
X130859046Y-104830412D01*
X130125713Y-104980888D01*
X132179046Y-105507554D02*
X132179046Y-103927554D01*
X132179046Y-105432316D02*
X132032380Y-105507554D01*
X131739046Y-105507554D01*
X131592380Y-105432316D01*
X131519046Y-105357078D01*
X131445713Y-105206602D01*
X131445713Y-104755173D01*
X131519046Y-104604697D01*
X131592380Y-104529459D01*
X131739046Y-104454221D01*
X132032380Y-104454221D01*
X132179046Y-104529459D01*
X132765713Y-103927554D02*
X133719046Y-103927554D01*
X133205713Y-104529459D01*
X133425713Y-104529459D01*
X133572380Y-104604697D01*
X133645713Y-104679935D01*
X133719046Y-104830412D01*
X133719046Y-105206602D01*
X133645713Y-105357078D01*
X133572380Y-105432316D01*
X133425713Y-105507554D01*
X132985713Y-105507554D01*
X132839046Y-105432316D01*
X132765713Y-105357078D01*
X129612380Y-108051354D02*
X129465713Y-107976116D01*
X129392380Y-107825640D01*
X129392380Y-106471354D01*
X130785713Y-107976116D02*
X130639046Y-108051354D01*
X130345713Y-108051354D01*
X130199046Y-107976116D01*
X130125713Y-107825640D01*
X130125713Y-107223735D01*
X130199046Y-107073259D01*
X130345713Y-106998021D01*
X130639046Y-106998021D01*
X130785713Y-107073259D01*
X130859046Y-107223735D01*
X130859046Y-107374212D01*
X130125713Y-107524688D01*
X132179046Y-108051354D02*
X132179046Y-106471354D01*
X132179046Y-107976116D02*
X132032380Y-108051354D01*
X131739046Y-108051354D01*
X131592380Y-107976116D01*
X131519046Y-107900878D01*
X131445713Y-107750402D01*
X131445713Y-107298973D01*
X131519046Y-107148497D01*
X131592380Y-107073259D01*
X131739046Y-106998021D01*
X132032380Y-106998021D01*
X132179046Y-107073259D01*
X133572380Y-106998021D02*
X133572380Y-108051354D01*
X133205713Y-106396116D02*
X132839046Y-107524688D01*
X133792380Y-107524688D01*
X156803291Y-93176506D02*
X156865195Y-93052696D01*
X156865195Y-92866982D01*
X156803291Y-92681268D01*
X156679481Y-92557458D01*
X156555671Y-92495553D01*
X156308052Y-92433649D01*
X156122338Y-92433649D01*
X155874719Y-92495553D01*
X155750910Y-92557458D01*
X155627100Y-92681268D01*
X155565195Y-92866982D01*
X155565195Y-92990791D01*
X155627100Y-93176506D01*
X155689005Y-93238410D01*
X156122338Y-93238410D01*
X156122338Y-92990791D01*
X155565195Y-93795553D02*
X156865195Y-93795553D01*
X155565195Y-94538410D01*
X156865195Y-94538410D01*
X155565195Y-95157458D02*
X156865195Y-95157458D01*
X156865195Y-95466982D01*
X156803291Y-95652696D01*
X156679481Y-95776506D01*
X156555671Y-95838410D01*
X156308052Y-95900315D01*
X156122338Y-95900315D01*
X155874719Y-95838410D01*
X155750910Y-95776506D01*
X155627100Y-95652696D01*
X155565195Y-95466982D01*
X155565195Y-95157458D01*
X155069957Y-97819363D02*
X155131862Y-97757458D01*
X155317576Y-97633649D01*
X155441386Y-97571744D01*
X155627100Y-97509839D01*
X155936624Y-97447934D01*
X156184243Y-97447934D01*
X156493767Y-97509839D01*
X156679481Y-97571744D01*
X156803291Y-97633649D01*
X156989005Y-97757458D01*
X157050910Y-97819363D01*
X156431862Y-98871744D02*
X155379481Y-98871744D01*
X155255671Y-98809839D01*
X155193767Y-98747934D01*
X155131862Y-98624125D01*
X155131862Y-98438410D01*
X155193767Y-98314601D01*
X155627100Y-98871744D02*
X155565195Y-98747934D01*
X155565195Y-98500315D01*
X155627100Y-98376506D01*
X155689005Y-98314601D01*
X155812814Y-98252696D01*
X156184243Y-98252696D01*
X156308052Y-98314601D01*
X156369957Y-98376506D01*
X156431862Y-98500315D01*
X156431862Y-98747934D01*
X156369957Y-98871744D01*
X156431862Y-99490791D02*
X155565195Y-99490791D01*
X156308052Y-99490791D02*
X156369957Y-99552696D01*
X156431862Y-99676506D01*
X156431862Y-99862220D01*
X156369957Y-99986030D01*
X156246148Y-100047934D01*
X155565195Y-100047934D01*
X155565195Y-101224125D02*
X156865195Y-101224125D01*
X155627100Y-101224125D02*
X155565195Y-101100315D01*
X155565195Y-100852696D01*
X155627100Y-100728887D01*
X155689005Y-100666982D01*
X155812814Y-100605077D01*
X156184243Y-100605077D01*
X156308052Y-100666982D01*
X156369957Y-100728887D01*
X156431862Y-100852696D01*
X156431862Y-101100315D01*
X156369957Y-101224125D01*
X155069957Y-101719363D02*
X155131862Y-101781268D01*
X155317576Y-101905077D01*
X155441386Y-101966982D01*
X155627100Y-102028887D01*
X155936624Y-102090791D01*
X156184243Y-102090791D01*
X156493767Y-102028887D01*
X156679481Y-101966982D01*
X156803291Y-101905077D01*
X156989005Y-101781268D01*
X157050910Y-101719363D01*
X153472195Y-92495553D02*
X154772195Y-92495553D01*
X154772195Y-92805077D01*
X154710291Y-92990791D01*
X154586481Y-93114601D01*
X154462671Y-93176506D01*
X154215052Y-93238410D01*
X154029338Y-93238410D01*
X153781719Y-93176506D01*
X153657910Y-93114601D01*
X153534100Y-92990791D01*
X153472195Y-92805077D01*
X153472195Y-92495553D01*
X153967433Y-93795553D02*
X153967433Y-94786030D01*
X152976957Y-96766982D02*
X153038862Y-96705077D01*
X153224576Y-96581268D01*
X153348386Y-96519363D01*
X153534100Y-96457458D01*
X153843624Y-96395553D01*
X154091243Y-96395553D01*
X154400767Y-96457458D01*
X154586481Y-96519363D01*
X154710291Y-96581268D01*
X154896005Y-96705077D01*
X154957910Y-96766982D01*
X154338862Y-97819363D02*
X153286481Y-97819363D01*
X153162671Y-97757458D01*
X153100767Y-97695553D01*
X153038862Y-97571744D01*
X153038862Y-97386030D01*
X153100767Y-97262220D01*
X153534100Y-97819363D02*
X153472195Y-97695553D01*
X153472195Y-97447934D01*
X153534100Y-97324125D01*
X153596005Y-97262220D01*
X153719814Y-97200315D01*
X154091243Y-97200315D01*
X154215052Y-97262220D01*
X154276957Y-97324125D01*
X154338862Y-97447934D01*
X154338862Y-97695553D01*
X154276957Y-97819363D01*
X153472195Y-98438410D02*
X154338862Y-98438410D01*
X154091243Y-98438410D02*
X154215052Y-98500315D01*
X154276957Y-98562220D01*
X154338862Y-98686030D01*
X154338862Y-98809839D01*
X153534100Y-99738410D02*
X153472195Y-99614601D01*
X153472195Y-99366982D01*
X153534100Y-99243172D01*
X153657910Y-99181268D01*
X154153148Y-99181268D01*
X154276957Y-99243172D01*
X154338862Y-99366982D01*
X154338862Y-99614601D01*
X154276957Y-99738410D01*
X154153148Y-99800315D01*
X154029338Y-99800315D01*
X153905529Y-99181268D01*
X153534100Y-100852696D02*
X153472195Y-100728887D01*
X153472195Y-100481268D01*
X153534100Y-100357458D01*
X153657910Y-100295553D01*
X154153148Y-100295553D01*
X154276957Y-100357458D01*
X154338862Y-100481268D01*
X154338862Y-100728887D01*
X154276957Y-100852696D01*
X154153148Y-100914601D01*
X154029338Y-100914601D01*
X153905529Y-100295553D01*
X154338862Y-101471744D02*
X153472195Y-101471744D01*
X154215052Y-101471744D02*
X154276957Y-101533649D01*
X154338862Y-101657458D01*
X154338862Y-101843172D01*
X154276957Y-101966982D01*
X154153148Y-102028887D01*
X153472195Y-102028887D01*
X152976957Y-102524125D02*
X153038862Y-102586030D01*
X153224576Y-102709839D01*
X153348386Y-102771744D01*
X153534100Y-102833649D01*
X153843624Y-102895553D01*
X154091243Y-102895553D01*
X154400767Y-102833649D01*
X154586481Y-102771744D01*
X154710291Y-102709839D01*
X154896005Y-102586030D01*
X154957910Y-102524125D01*
X151379195Y-92495553D02*
X152679195Y-92495553D01*
X152679195Y-92805077D01*
X152617291Y-92990791D01*
X152493481Y-93114601D01*
X152369671Y-93176506D01*
X152122052Y-93238410D01*
X151936338Y-93238410D01*
X151688719Y-93176506D01*
X151564910Y-93114601D01*
X151441100Y-92990791D01*
X151379195Y-92805077D01*
X151379195Y-92495553D01*
X151874433Y-93795553D02*
X151874433Y-94786030D01*
X151379195Y-94290791D02*
X152369671Y-94290791D01*
X150883957Y-96766982D02*
X150945862Y-96705077D01*
X151131576Y-96581268D01*
X151255386Y-96519363D01*
X151441100Y-96457458D01*
X151750624Y-96395553D01*
X151998243Y-96395553D01*
X152307767Y-96457458D01*
X152493481Y-96519363D01*
X152617291Y-96581268D01*
X152803005Y-96705077D01*
X152864910Y-96766982D01*
X152245862Y-97138410D02*
X151379195Y-97386030D01*
X151998243Y-97633649D01*
X151379195Y-97881268D01*
X152245862Y-98128887D01*
X151379195Y-98624125D02*
X152679195Y-98624125D01*
X151379195Y-99181268D02*
X152060148Y-99181268D01*
X152183957Y-99119363D01*
X152245862Y-98995553D01*
X152245862Y-98809839D01*
X152183957Y-98686030D01*
X152122052Y-98624125D01*
X151379195Y-99800315D02*
X152245862Y-99800315D01*
X152679195Y-99800315D02*
X152617291Y-99738410D01*
X152555386Y-99800315D01*
X152617291Y-99862220D01*
X152679195Y-99800315D01*
X152555386Y-99800315D01*
X152245862Y-100233649D02*
X152245862Y-100728887D01*
X152679195Y-100419363D02*
X151564910Y-100419363D01*
X151441100Y-100481268D01*
X151379195Y-100605077D01*
X151379195Y-100728887D01*
X151441100Y-101657458D02*
X151379195Y-101533649D01*
X151379195Y-101286030D01*
X151441100Y-101162220D01*
X151564910Y-101100315D01*
X152060148Y-101100315D01*
X152183957Y-101162220D01*
X152245862Y-101286030D01*
X152245862Y-101533649D01*
X152183957Y-101657458D01*
X152060148Y-101719363D01*
X151936338Y-101719363D01*
X151812529Y-101100315D01*
X150883957Y-102152696D02*
X150945862Y-102214601D01*
X151131576Y-102338410D01*
X151255386Y-102400315D01*
X151441100Y-102462220D01*
X151750624Y-102524125D01*
X151998243Y-102524125D01*
X152307767Y-102462220D01*
X152493481Y-102400315D01*
X152617291Y-102338410D01*
X152803005Y-102214601D01*
X152864910Y-102152696D01*
X150586195Y-93114601D02*
X150586195Y-92495553D01*
X149967148Y-92433649D01*
X150029052Y-92495553D01*
X150090957Y-92619363D01*
X150090957Y-92928887D01*
X150029052Y-93052696D01*
X149967148Y-93114601D01*
X149843338Y-93176506D01*
X149533814Y-93176506D01*
X149410005Y-93114601D01*
X149348100Y-93052696D01*
X149286195Y-92928887D01*
X149286195Y-92619363D01*
X149348100Y-92495553D01*
X149410005Y-92433649D01*
X150152862Y-93609839D02*
X149286195Y-93919363D01*
X150152862Y-94228887D01*
X148790957Y-96086030D02*
X148852862Y-96024125D01*
X149038576Y-95900315D01*
X149162386Y-95838410D01*
X149348100Y-95776506D01*
X149657624Y-95714601D01*
X149905243Y-95714601D01*
X150214767Y-95776506D01*
X150400481Y-95838410D01*
X150524291Y-95900315D01*
X150710005Y-96024125D01*
X150771910Y-96086030D01*
X149286195Y-96581268D02*
X150152862Y-96581268D01*
X149905243Y-96581268D02*
X150029052Y-96643172D01*
X150090957Y-96705077D01*
X150152862Y-96828887D01*
X150152862Y-96952696D01*
X149348100Y-97881268D02*
X149286195Y-97757458D01*
X149286195Y-97509839D01*
X149348100Y-97386030D01*
X149471910Y-97324125D01*
X149967148Y-97324125D01*
X150090957Y-97386030D01*
X150152862Y-97509839D01*
X150152862Y-97757458D01*
X150090957Y-97881268D01*
X149967148Y-97943172D01*
X149843338Y-97943172D01*
X149719529Y-97324125D01*
X149286195Y-99057458D02*
X150586195Y-99057458D01*
X149348100Y-99057458D02*
X149286195Y-98933649D01*
X149286195Y-98686030D01*
X149348100Y-98562220D01*
X149410005Y-98500315D01*
X149533814Y-98438410D01*
X149905243Y-98438410D01*
X150029052Y-98500315D01*
X150090957Y-98562220D01*
X150152862Y-98686030D01*
X150152862Y-98933649D01*
X150090957Y-99057458D01*
X148790957Y-99552696D02*
X148852862Y-99614601D01*
X149038576Y-99738410D01*
X149162386Y-99800315D01*
X149348100Y-99862220D01*
X149657624Y-99924125D01*
X149905243Y-99924125D01*
X150214767Y-99862220D01*
X150400481Y-99800315D01*
X150524291Y-99738410D01*
X150710005Y-99614601D01*
X150771910Y-99552696D01*
X146789983Y-117580859D02*
X146789983Y-116301811D01*
X146863316Y-116151335D01*
X146936650Y-116076097D01*
X147083316Y-116000859D01*
X147303316Y-116000859D01*
X147449983Y-116076097D01*
X146789983Y-116602764D02*
X146936650Y-116527526D01*
X147229983Y-116527526D01*
X147376650Y-116602764D01*
X147449983Y-116678002D01*
X147523316Y-116828478D01*
X147523316Y-117279907D01*
X147449983Y-117430383D01*
X147376650Y-117505621D01*
X147229983Y-117580859D01*
X146936650Y-117580859D01*
X146789983Y-117505621D01*
X146056650Y-117580859D02*
X146056650Y-116527526D01*
X146056650Y-117430383D02*
X145983316Y-117505621D01*
X145836650Y-117580859D01*
X145616650Y-117580859D01*
X145469983Y-117505621D01*
X145396650Y-117355145D01*
X145396650Y-116527526D01*
X144003316Y-116527526D02*
X144003316Y-118107526D01*
X144003316Y-116602764D02*
X144149983Y-116527526D01*
X144443316Y-116527526D01*
X144589983Y-116602764D01*
X144663316Y-116678002D01*
X144736650Y-116828478D01*
X144736650Y-117279907D01*
X144663316Y-117430383D01*
X144589983Y-117505621D01*
X144443316Y-117580859D01*
X144149983Y-117580859D01*
X144003316Y-117505621D01*
X148549983Y-115037059D02*
X148549983Y-113983726D01*
X149209983Y-115037059D02*
X149209983Y-114209440D01*
X149136650Y-114058964D01*
X148989983Y-113983726D01*
X148769983Y-113983726D01*
X148623316Y-114058964D01*
X148549983Y-114134202D01*
X147889983Y-114058964D02*
X147743316Y-113983726D01*
X147449983Y-113983726D01*
X147303316Y-114058964D01*
X147229983Y-114209440D01*
X147229983Y-114284678D01*
X147303316Y-114435154D01*
X147449983Y-114510392D01*
X147669983Y-114510392D01*
X147816650Y-114585630D01*
X147889983Y-114736107D01*
X147889983Y-114811345D01*
X147816650Y-114961821D01*
X147669983Y-115037059D01*
X147449983Y-115037059D01*
X147303316Y-114961821D01*
X146569983Y-113983726D02*
X146569983Y-115563726D01*
X146569983Y-114961821D02*
X146423316Y-115037059D01*
X146129983Y-115037059D01*
X145983316Y-114961821D01*
X145909983Y-114886583D01*
X145836650Y-114736107D01*
X145836650Y-114284678D01*
X145909983Y-114134202D01*
X145983316Y-114058964D01*
X146129983Y-113983726D01*
X146423316Y-113983726D01*
X146569983Y-114058964D01*
X145176650Y-114585630D02*
X144003316Y-114585630D01*
X144589983Y-113983726D02*
X144589983Y-115187535D01*
X148549983Y-112493259D02*
X148549983Y-111439926D01*
X149209983Y-112493259D02*
X149209983Y-111665640D01*
X149136650Y-111515164D01*
X148989983Y-111439926D01*
X148769983Y-111439926D01*
X148623316Y-111515164D01*
X148549983Y-111590402D01*
X147889983Y-111515164D02*
X147743316Y-111439926D01*
X147449983Y-111439926D01*
X147303316Y-111515164D01*
X147229983Y-111665640D01*
X147229983Y-111740878D01*
X147303316Y-111891354D01*
X147449983Y-111966592D01*
X147669983Y-111966592D01*
X147816650Y-112041830D01*
X147889983Y-112192307D01*
X147889983Y-112267545D01*
X147816650Y-112418021D01*
X147669983Y-112493259D01*
X147449983Y-112493259D01*
X147303316Y-112418021D01*
X146569983Y-111439926D02*
X146569983Y-113019926D01*
X146569983Y-112418021D02*
X146423316Y-112493259D01*
X146129983Y-112493259D01*
X145983316Y-112418021D01*
X145909983Y-112342783D01*
X145836650Y-112192307D01*
X145836650Y-111740878D01*
X145909983Y-111590402D01*
X145983316Y-111515164D01*
X146129983Y-111439926D01*
X146423316Y-111439926D01*
X146569983Y-111515164D01*
X145176650Y-112041830D02*
X144003316Y-112041830D01*
X145176650Y-110476126D02*
X145909983Y-110476126D01*
X145983316Y-109723745D01*
X145909983Y-109798983D01*
X145763316Y-109874221D01*
X145396650Y-109874221D01*
X145249983Y-109798983D01*
X145176650Y-109723745D01*
X145103316Y-109573268D01*
X145103316Y-109197078D01*
X145176650Y-109046602D01*
X145249983Y-108971364D01*
X145396650Y-108896126D01*
X145763316Y-108896126D01*
X145909983Y-108971364D01*
X145983316Y-109046602D01*
X144589983Y-109949459D02*
X144223316Y-108896126D01*
X143856650Y-109949459D01*
X148036650Y-106352326D02*
X148183316Y-106427564D01*
X148256650Y-106578040D01*
X148256650Y-107932326D01*
X146863316Y-106427564D02*
X147009983Y-106352326D01*
X147303316Y-106352326D01*
X147449983Y-106427564D01*
X147523316Y-106578040D01*
X147523316Y-107179945D01*
X147449983Y-107330421D01*
X147303316Y-107405659D01*
X147009983Y-107405659D01*
X146863316Y-107330421D01*
X146789983Y-107179945D01*
X146789983Y-107029468D01*
X147523316Y-106878992D01*
X145469983Y-106352326D02*
X145469983Y-107932326D01*
X145469983Y-106427564D02*
X145616650Y-106352326D01*
X145909983Y-106352326D01*
X146056650Y-106427564D01*
X146129983Y-106502802D01*
X146203316Y-106653278D01*
X146203316Y-107104707D01*
X146129983Y-107255183D01*
X146056650Y-107330421D01*
X145909983Y-107405659D01*
X145616650Y-107405659D01*
X145469983Y-107330421D01*
X143929983Y-106352326D02*
X144809983Y-106352326D01*
X144369983Y-106352326D02*
X144369983Y-107932326D01*
X144516650Y-107706611D01*
X144663316Y-107556135D01*
X144809983Y-107480897D01*
X148036650Y-103808526D02*
X148183316Y-103883764D01*
X148256650Y-104034240D01*
X148256650Y-105388526D01*
X146863316Y-103883764D02*
X147009983Y-103808526D01*
X147303316Y-103808526D01*
X147449983Y-103883764D01*
X147523316Y-104034240D01*
X147523316Y-104636145D01*
X147449983Y-104786621D01*
X147303316Y-104861859D01*
X147009983Y-104861859D01*
X146863316Y-104786621D01*
X146789983Y-104636145D01*
X146789983Y-104485668D01*
X147523316Y-104335192D01*
X145469983Y-103808526D02*
X145469983Y-105388526D01*
X145469983Y-103883764D02*
X145616650Y-103808526D01*
X145909983Y-103808526D01*
X146056650Y-103883764D01*
X146129983Y-103959002D01*
X146203316Y-104109478D01*
X146203316Y-104560907D01*
X146129983Y-104711383D01*
X146056650Y-104786621D01*
X145909983Y-104861859D01*
X145616650Y-104861859D01*
X145469983Y-104786621D01*
X144809983Y-105238049D02*
X144736650Y-105313288D01*
X144589983Y-105388526D01*
X144223316Y-105388526D01*
X144076650Y-105313288D01*
X144003316Y-105238049D01*
X143929983Y-105087573D01*
X143929983Y-104937097D01*
X144003316Y-104711383D01*
X144883316Y-103808526D01*
X143929983Y-103808526D01*
X148036650Y-101264726D02*
X148183316Y-101339964D01*
X148256650Y-101490440D01*
X148256650Y-102844726D01*
X146863316Y-101339964D02*
X147009983Y-101264726D01*
X147303316Y-101264726D01*
X147449983Y-101339964D01*
X147523316Y-101490440D01*
X147523316Y-102092345D01*
X147449983Y-102242821D01*
X147303316Y-102318059D01*
X147009983Y-102318059D01*
X146863316Y-102242821D01*
X146789983Y-102092345D01*
X146789983Y-101941868D01*
X147523316Y-101791392D01*
X145469983Y-101264726D02*
X145469983Y-102844726D01*
X145469983Y-101339964D02*
X145616650Y-101264726D01*
X145909983Y-101264726D01*
X146056650Y-101339964D01*
X146129983Y-101415202D01*
X146203316Y-101565678D01*
X146203316Y-102017107D01*
X146129983Y-102167583D01*
X146056650Y-102242821D01*
X145909983Y-102318059D01*
X145616650Y-102318059D01*
X145469983Y-102242821D01*
X144883316Y-102844726D02*
X143929983Y-102844726D01*
X144443316Y-102242821D01*
X144223316Y-102242821D01*
X144076650Y-102167583D01*
X144003316Y-102092345D01*
X143929983Y-101941868D01*
X143929983Y-101565678D01*
X144003316Y-101415202D01*
X144076650Y-101339964D01*
X144223316Y-101264726D01*
X144663316Y-101264726D01*
X144809983Y-101339964D01*
X144883316Y-101415202D01*
X148036650Y-98720926D02*
X148183316Y-98796164D01*
X148256650Y-98946640D01*
X148256650Y-100300926D01*
X146863316Y-98796164D02*
X147009983Y-98720926D01*
X147303316Y-98720926D01*
X147449983Y-98796164D01*
X147523316Y-98946640D01*
X147523316Y-99548545D01*
X147449983Y-99699021D01*
X147303316Y-99774259D01*
X147009983Y-99774259D01*
X146863316Y-99699021D01*
X146789983Y-99548545D01*
X146789983Y-99398068D01*
X147523316Y-99247592D01*
X145469983Y-98720926D02*
X145469983Y-100300926D01*
X145469983Y-98796164D02*
X145616650Y-98720926D01*
X145909983Y-98720926D01*
X146056650Y-98796164D01*
X146129983Y-98871402D01*
X146203316Y-99021878D01*
X146203316Y-99473307D01*
X146129983Y-99623783D01*
X146056650Y-99699021D01*
X145909983Y-99774259D01*
X145616650Y-99774259D01*
X145469983Y-99699021D01*
X144076650Y-99774259D02*
X144076650Y-98720926D01*
X144443316Y-100376164D02*
X144809983Y-99247592D01*
X143856650Y-99247592D01*
X57804645Y-115305867D02*
X59083693Y-115305867D01*
X59234169Y-115353486D01*
X59309407Y-115401105D01*
X59384645Y-115496343D01*
X59384645Y-115639200D01*
X59309407Y-115734438D01*
X58782740Y-115305867D02*
X58857978Y-115401105D01*
X58857978Y-115591581D01*
X58782740Y-115686819D01*
X58707502Y-115734438D01*
X58557026Y-115782057D01*
X58105597Y-115782057D01*
X57955121Y-115734438D01*
X57879883Y-115686819D01*
X57804645Y-115591581D01*
X57804645Y-115401105D01*
X57879883Y-115305867D01*
X57804645Y-114829676D02*
X58857978Y-114829676D01*
X57955121Y-114829676D02*
X57879883Y-114782057D01*
X57804645Y-114686819D01*
X57804645Y-114543962D01*
X57879883Y-114448724D01*
X58030359Y-114401105D01*
X58857978Y-114401105D01*
X58857978Y-113496343D02*
X57277978Y-113496343D01*
X58782740Y-113496343D02*
X58857978Y-113591581D01*
X58857978Y-113782057D01*
X58782740Y-113877295D01*
X58707502Y-113924914D01*
X58557026Y-113972534D01*
X58105597Y-113972534D01*
X57955121Y-113924914D01*
X57879883Y-113877295D01*
X57804645Y-113782057D01*
X57804645Y-113591581D01*
X57879883Y-113496343D01*
X59821778Y-115829676D02*
X59821778Y-115210629D01*
X60423683Y-115543962D01*
X60423683Y-115401105D01*
X60498921Y-115305867D01*
X60574159Y-115258248D01*
X60724636Y-115210629D01*
X61100826Y-115210629D01*
X61251302Y-115258248D01*
X61326540Y-115305867D01*
X61401778Y-115401105D01*
X61401778Y-115686819D01*
X61326540Y-115782057D01*
X61251302Y-115829676D01*
X60348445Y-114877295D02*
X61401778Y-114639200D01*
X60348445Y-114401105D01*
X59821778Y-114115391D02*
X59821778Y-113496343D01*
X60423683Y-113829676D01*
X60423683Y-113686819D01*
X60498921Y-113591581D01*
X60574159Y-113543962D01*
X60724636Y-113496343D01*
X61100826Y-113496343D01*
X61251302Y-113543962D01*
X61326540Y-113591581D01*
X61401778Y-113686819D01*
X61401778Y-113972534D01*
X61326540Y-114067772D01*
X61251302Y-114115391D01*
X62365578Y-115258248D02*
X62365578Y-115734438D01*
X63117959Y-115782057D01*
X63042721Y-115734438D01*
X62967483Y-115639200D01*
X62967483Y-115401105D01*
X63042721Y-115305867D01*
X63117959Y-115258248D01*
X63268436Y-115210629D01*
X63644626Y-115210629D01*
X63795102Y-115258248D01*
X63870340Y-115305867D01*
X63945578Y-115401105D01*
X63945578Y-115639200D01*
X63870340Y-115734438D01*
X63795102Y-115782057D01*
X62892245Y-114877295D02*
X63945578Y-114639200D01*
X62892245Y-114401105D01*
X66414140Y-115782057D02*
X66489378Y-115686819D01*
X66489378Y-115496343D01*
X66414140Y-115401105D01*
X66263664Y-115353486D01*
X66188426Y-115353486D01*
X66037950Y-115401105D01*
X65962712Y-115496343D01*
X65962712Y-115639200D01*
X65887474Y-115734438D01*
X65736997Y-115782057D01*
X65661759Y-115782057D01*
X65511283Y-115734438D01*
X65436045Y-115639200D01*
X65436045Y-115496343D01*
X65511283Y-115401105D01*
X66414140Y-114496343D02*
X66489378Y-114591581D01*
X66489378Y-114782057D01*
X66414140Y-114877295D01*
X66338902Y-114924914D01*
X66188426Y-114972534D01*
X65736997Y-114972534D01*
X65586521Y-114924914D01*
X65511283Y-114877295D01*
X65436045Y-114782057D01*
X65436045Y-114591581D01*
X65511283Y-114496343D01*
X66489378Y-113924914D02*
X66414140Y-114020153D01*
X66263664Y-114067772D01*
X64909378Y-114067772D01*
X68957940Y-115782057D02*
X69033178Y-115686819D01*
X69033178Y-115496343D01*
X68957940Y-115401105D01*
X68807464Y-115353486D01*
X68732226Y-115353486D01*
X68581750Y-115401105D01*
X68506512Y-115496343D01*
X68506512Y-115639200D01*
X68431274Y-115734438D01*
X68280797Y-115782057D01*
X68205559Y-115782057D01*
X68055083Y-115734438D01*
X67979845Y-115639200D01*
X67979845Y-115496343D01*
X68055083Y-115401105D01*
X69033178Y-114496343D02*
X67453178Y-114496343D01*
X68957940Y-114496343D02*
X69033178Y-114591581D01*
X69033178Y-114782057D01*
X68957940Y-114877295D01*
X68882702Y-114924914D01*
X68732226Y-114972534D01*
X68280797Y-114972534D01*
X68130321Y-114924914D01*
X68055083Y-114877295D01*
X67979845Y-114782057D01*
X67979845Y-114591581D01*
X68055083Y-114496343D01*
X69033178Y-113591581D02*
X68205559Y-113591581D01*
X68055083Y-113639200D01*
X67979845Y-113734438D01*
X67979845Y-113924914D01*
X68055083Y-114020153D01*
X68957940Y-113591581D02*
X69033178Y-113686819D01*
X69033178Y-113924914D01*
X68957940Y-114020153D01*
X68807464Y-114067772D01*
X68656988Y-114067772D01*
X68506512Y-114020153D01*
X68431274Y-113924914D01*
X68431274Y-113686819D01*
X68356036Y-113591581D01*
X70749359Y-115401105D02*
X70824597Y-115258248D01*
X70899836Y-115210629D01*
X71050312Y-115163010D01*
X71276026Y-115163010D01*
X71426502Y-115210629D01*
X71501740Y-115258248D01*
X71576978Y-115353486D01*
X71576978Y-115734438D01*
X69996978Y-115734438D01*
X69996978Y-115401105D01*
X70072217Y-115305867D01*
X70147455Y-115258248D01*
X70297931Y-115210629D01*
X70448407Y-115210629D01*
X70598883Y-115258248D01*
X70674121Y-115305867D01*
X70749359Y-115401105D01*
X70749359Y-115734438D01*
X71426502Y-114163010D02*
X71501740Y-114210629D01*
X71576978Y-114353486D01*
X71576978Y-114448724D01*
X71501740Y-114591581D01*
X71351264Y-114686819D01*
X71200788Y-114734438D01*
X70899836Y-114782057D01*
X70674121Y-114782057D01*
X70373169Y-114734438D01*
X70222693Y-114686819D01*
X70072217Y-114591581D01*
X69996978Y-114448724D01*
X69996978Y-114353486D01*
X70072217Y-114210629D01*
X70147455Y-114163010D01*
X71576978Y-113734438D02*
X69996978Y-113734438D01*
X71576978Y-113163010D02*
X70674121Y-113591581D01*
X69996978Y-113163010D02*
X70899836Y-113734438D01*
X74120778Y-115258248D02*
X74120778Y-115734438D01*
X72540778Y-115734438D01*
X74120778Y-114353486D02*
X73368397Y-114686819D01*
X74120778Y-114924914D02*
X72540778Y-114924914D01*
X72540778Y-114543962D01*
X72616017Y-114448724D01*
X72691255Y-114401105D01*
X72841731Y-114353486D01*
X73067445Y-114353486D01*
X73217921Y-114401105D01*
X73293159Y-114448724D01*
X73368397Y-114543962D01*
X73368397Y-114924914D01*
X73970302Y-113353486D02*
X74045540Y-113401105D01*
X74120778Y-113543962D01*
X74120778Y-113639200D01*
X74045540Y-113782057D01*
X73895064Y-113877295D01*
X73744588Y-113924914D01*
X73443636Y-113972534D01*
X73217921Y-113972534D01*
X72916969Y-113924914D01*
X72766493Y-113877295D01*
X72616017Y-113782057D01*
X72540778Y-113639200D01*
X72540778Y-113543962D01*
X72616017Y-113401105D01*
X72691255Y-113353486D01*
X74120778Y-112924914D02*
X72540778Y-112924914D01*
X74120778Y-112353486D02*
X73217921Y-112782057D01*
X72540778Y-112353486D02*
X73443636Y-112924914D01*
X76664578Y-115734438D02*
X75084578Y-115734438D01*
X75084578Y-115496343D01*
X75159817Y-115353486D01*
X75310293Y-115258248D01*
X75460769Y-115210629D01*
X75761721Y-115163010D01*
X75987436Y-115163010D01*
X76288388Y-115210629D01*
X76438864Y-115258248D01*
X76589340Y-115353486D01*
X76664578Y-115496343D01*
X76664578Y-115734438D01*
X76664578Y-114734438D02*
X75084578Y-114734438D01*
X76664578Y-114258248D02*
X75084578Y-114258248D01*
X76664578Y-113686819D01*
X75084578Y-113686819D01*
X79208378Y-115734438D02*
X77628378Y-115734438D01*
X78756950Y-115401105D01*
X77628378Y-115067772D01*
X79208378Y-115067772D01*
X79208378Y-114591581D02*
X78155045Y-114591581D01*
X77628378Y-114591581D02*
X77703617Y-114639200D01*
X77778855Y-114591581D01*
X77703617Y-114543962D01*
X77628378Y-114591581D01*
X77778855Y-114591581D01*
X79208378Y-113686819D02*
X77628378Y-113686819D01*
X79133140Y-113686819D02*
X79208378Y-113782057D01*
X79208378Y-113972534D01*
X79133140Y-114067772D01*
X79057902Y-114115391D01*
X78907426Y-114163010D01*
X78455997Y-114163010D01*
X78305521Y-114115391D01*
X78230283Y-114067772D01*
X78155045Y-113972534D01*
X78155045Y-113782057D01*
X78230283Y-113686819D01*
X79208378Y-113210629D02*
X78155045Y-113210629D01*
X77628378Y-113210629D02*
X77703617Y-113258248D01*
X77778855Y-113210629D01*
X77703617Y-113163010D01*
X77628378Y-113210629D01*
X77778855Y-113210629D01*
X79208378Y-112734438D02*
X77628378Y-112734438D01*
X78155045Y-112258248D02*
X79208378Y-112258248D01*
X78305521Y-112258248D02*
X78230283Y-112210629D01*
X78155045Y-112115391D01*
X78155045Y-111972534D01*
X78230283Y-111877295D01*
X78380759Y-111829676D01*
X79208378Y-111829676D01*
X81752178Y-115734438D02*
X80172178Y-115734438D01*
X81300750Y-115401105D01*
X80172178Y-115067772D01*
X81752178Y-115067772D01*
X81752178Y-114591581D02*
X80698845Y-114591581D01*
X80172178Y-114591581D02*
X80247417Y-114639200D01*
X80322655Y-114591581D01*
X80247417Y-114543962D01*
X80172178Y-114591581D01*
X80322655Y-114591581D01*
X81752178Y-113686819D02*
X80172178Y-113686819D01*
X81676940Y-113686819D02*
X81752178Y-113782057D01*
X81752178Y-113972534D01*
X81676940Y-114067772D01*
X81601702Y-114115391D01*
X81451226Y-114163010D01*
X80999797Y-114163010D01*
X80849321Y-114115391D01*
X80774083Y-114067772D01*
X80698845Y-113972534D01*
X80698845Y-113782057D01*
X80774083Y-113686819D01*
X81752178Y-113210629D02*
X80698845Y-113210629D01*
X80172178Y-113210629D02*
X80247417Y-113258248D01*
X80322655Y-113210629D01*
X80247417Y-113163010D01*
X80172178Y-113210629D01*
X80322655Y-113210629D01*
X81752178Y-112591581D02*
X81676940Y-112686819D01*
X81601702Y-112734438D01*
X81451226Y-112782057D01*
X80999797Y-112782057D01*
X80849321Y-112734438D01*
X80774083Y-112686819D01*
X80698845Y-112591581D01*
X80698845Y-112448724D01*
X80774083Y-112353486D01*
X80849321Y-112305867D01*
X80999797Y-112258248D01*
X81451226Y-112258248D01*
X81601702Y-112305867D01*
X81676940Y-112353486D01*
X81752178Y-112448724D01*
X81752178Y-112591581D01*
X80698845Y-111401105D02*
X81752178Y-111401105D01*
X80698845Y-111829676D02*
X81526464Y-111829676D01*
X81676940Y-111782057D01*
X81752178Y-111686819D01*
X81752178Y-111543962D01*
X81676940Y-111448724D01*
X81601702Y-111401105D01*
X80698845Y-111067772D02*
X80698845Y-110686819D01*
X80172178Y-110924914D02*
X81526464Y-110924914D01*
X81676940Y-110877295D01*
X81752178Y-110782057D01*
X81752178Y-110686819D01*
X83242645Y-115829676D02*
X84295978Y-115639200D01*
X83543597Y-115448724D01*
X84295978Y-115258248D01*
X83242645Y-115067772D01*
X84220740Y-114734438D02*
X84295978Y-114639200D01*
X84295978Y-114448724D01*
X84220740Y-114353486D01*
X84070264Y-114305867D01*
X83995026Y-114305867D01*
X83844550Y-114353486D01*
X83769312Y-114448724D01*
X83769312Y-114591581D01*
X83694074Y-114686819D01*
X83543597Y-114734438D01*
X83468359Y-114734438D01*
X83317883Y-114686819D01*
X83242645Y-114591581D01*
X83242645Y-114448724D01*
X83317883Y-114353486D01*
X82866455Y-113924914D02*
X82791217Y-113877295D01*
X82715978Y-113782057D01*
X82715978Y-113543962D01*
X82791217Y-113448724D01*
X82866455Y-113401105D01*
X83016931Y-113353486D01*
X83167407Y-113353486D01*
X83393121Y-113401105D01*
X84295978Y-113972534D01*
X84295978Y-113353486D01*
X83393121Y-112782057D02*
X83317883Y-112877295D01*
X83242645Y-112924914D01*
X83092169Y-112972534D01*
X83016931Y-112972534D01*
X82866455Y-112924914D01*
X82791217Y-112877295D01*
X82715978Y-112782057D01*
X82715978Y-112591581D01*
X82791217Y-112496343D01*
X82866455Y-112448724D01*
X83016931Y-112401105D01*
X83092169Y-112401105D01*
X83242645Y-112448724D01*
X83317883Y-112496343D01*
X83393121Y-112591581D01*
X83393121Y-112782057D01*
X83468359Y-112877295D01*
X83543597Y-112924914D01*
X83694074Y-112972534D01*
X83995026Y-112972534D01*
X84145502Y-112924914D01*
X84220740Y-112877295D01*
X84295978Y-112782057D01*
X84295978Y-112591581D01*
X84220740Y-112496343D01*
X84145502Y-112448724D01*
X83995026Y-112401105D01*
X83694074Y-112401105D01*
X83543597Y-112448724D01*
X83468359Y-112496343D01*
X83393121Y-112591581D01*
X84295978Y-111448724D02*
X84295978Y-112020153D01*
X84295978Y-111734438D02*
X82715978Y-111734438D01*
X82941693Y-111829676D01*
X83092169Y-111924914D01*
X83167407Y-112020153D01*
X82866455Y-111067772D02*
X82791217Y-111020153D01*
X82715978Y-110924914D01*
X82715978Y-110686819D01*
X82791217Y-110591581D01*
X82866455Y-110543962D01*
X83016931Y-110496343D01*
X83167407Y-110496343D01*
X83393121Y-110543962D01*
X84295978Y-111115391D01*
X84295978Y-110496343D01*
X84295978Y-110067772D02*
X82715978Y-110067772D01*
X83317883Y-110067772D02*
X83242645Y-109972534D01*
X83242645Y-109782057D01*
X83317883Y-109686819D01*
X83393121Y-109639200D01*
X83543597Y-109591581D01*
X83995026Y-109591581D01*
X84145502Y-109639200D01*
X84220740Y-109686819D01*
X84295978Y-109782057D01*
X84295978Y-109972534D01*
X84220740Y-110067772D01*
X86764540Y-115782057D02*
X86839778Y-115639200D01*
X86839778Y-115401105D01*
X86764540Y-115305867D01*
X86689302Y-115258248D01*
X86538826Y-115210629D01*
X86388350Y-115210629D01*
X86237874Y-115258248D01*
X86162636Y-115305867D01*
X86087397Y-115401105D01*
X86012159Y-115591581D01*
X85936921Y-115686819D01*
X85861683Y-115734438D01*
X85711207Y-115782057D01*
X85560731Y-115782057D01*
X85410255Y-115734438D01*
X85335017Y-115686819D01*
X85259778Y-115591581D01*
X85259778Y-115353486D01*
X85335017Y-115210629D01*
X86839778Y-114782057D02*
X85259778Y-114782057D01*
X85259778Y-114401105D01*
X85335017Y-114305867D01*
X85410255Y-114258248D01*
X85560731Y-114210629D01*
X85786445Y-114210629D01*
X85936921Y-114258248D01*
X86012159Y-114305867D01*
X86087397Y-114401105D01*
X86087397Y-114782057D01*
X86839778Y-113782057D02*
X85259778Y-113782057D01*
X86990255Y-113543962D02*
X86990255Y-112782057D01*
X86764540Y-112591581D02*
X86839778Y-112448724D01*
X86839778Y-112210629D01*
X86764540Y-112115391D01*
X86689302Y-112067772D01*
X86538826Y-112020153D01*
X86388350Y-112020153D01*
X86237874Y-112067772D01*
X86162636Y-112115391D01*
X86087397Y-112210629D01*
X86012159Y-112401105D01*
X85936921Y-112496343D01*
X85861683Y-112543962D01*
X85711207Y-112591581D01*
X85560731Y-112591581D01*
X85410255Y-112543962D01*
X85335017Y-112496343D01*
X85259778Y-112401105D01*
X85259778Y-112163010D01*
X85335017Y-112020153D01*
X86689302Y-111020153D02*
X86764540Y-111067772D01*
X86839778Y-111210629D01*
X86839778Y-111305867D01*
X86764540Y-111448724D01*
X86614064Y-111543962D01*
X86463588Y-111591581D01*
X86162636Y-111639200D01*
X85936921Y-111639200D01*
X85635969Y-111591581D01*
X85485493Y-111543962D01*
X85335017Y-111448724D01*
X85259778Y-111305867D01*
X85259778Y-111210629D01*
X85335017Y-111067772D01*
X85410255Y-111020153D01*
X86839778Y-110591581D02*
X85259778Y-110591581D01*
X86839778Y-110020153D02*
X85936921Y-110448724D01*
X85259778Y-110020153D02*
X86162636Y-110591581D01*
X89308340Y-115782057D02*
X89383578Y-115639200D01*
X89383578Y-115401105D01*
X89308340Y-115305867D01*
X89233102Y-115258248D01*
X89082626Y-115210629D01*
X88932150Y-115210629D01*
X88781674Y-115258248D01*
X88706436Y-115305867D01*
X88631197Y-115401105D01*
X88555959Y-115591581D01*
X88480721Y-115686819D01*
X88405483Y-115734438D01*
X88255007Y-115782057D01*
X88104531Y-115782057D01*
X87954055Y-115734438D01*
X87878817Y-115686819D01*
X87803578Y-115591581D01*
X87803578Y-115353486D01*
X87878817Y-115210629D01*
X89383578Y-114782057D02*
X87803578Y-114782057D01*
X87803578Y-114401105D01*
X87878817Y-114305867D01*
X87954055Y-114258248D01*
X88104531Y-114210629D01*
X88330245Y-114210629D01*
X88480721Y-114258248D01*
X88555959Y-114305867D01*
X88631197Y-114401105D01*
X88631197Y-114782057D01*
X89383578Y-113782057D02*
X87803578Y-113782057D01*
X89534055Y-113543962D02*
X89534055Y-112782057D01*
X89383578Y-112543962D02*
X87803578Y-112543962D01*
X88932150Y-112210629D01*
X87803578Y-111877295D01*
X89383578Y-111877295D01*
X87803578Y-111210629D02*
X87803578Y-111020153D01*
X87878817Y-110924914D01*
X88029293Y-110829676D01*
X88330245Y-110782057D01*
X88856912Y-110782057D01*
X89157864Y-110829676D01*
X89308340Y-110924914D01*
X89383578Y-111020153D01*
X89383578Y-111210629D01*
X89308340Y-111305867D01*
X89157864Y-111401105D01*
X88856912Y-111448724D01*
X88330245Y-111448724D01*
X88029293Y-111401105D01*
X87878817Y-111305867D01*
X87803578Y-111210629D01*
X89308340Y-110401105D02*
X89383578Y-110258248D01*
X89383578Y-110020153D01*
X89308340Y-109924914D01*
X89233102Y-109877295D01*
X89082626Y-109829676D01*
X88932150Y-109829676D01*
X88781674Y-109877295D01*
X88706436Y-109924914D01*
X88631197Y-110020153D01*
X88555959Y-110210629D01*
X88480721Y-110305867D01*
X88405483Y-110353486D01*
X88255007Y-110401105D01*
X88104531Y-110401105D01*
X87954055Y-110353486D01*
X87878817Y-110305867D01*
X87803578Y-110210629D01*
X87803578Y-109972534D01*
X87878817Y-109829676D01*
X89383578Y-109401105D02*
X87803578Y-109401105D01*
X91852140Y-115782057D02*
X91927378Y-115639200D01*
X91927378Y-115401105D01*
X91852140Y-115305867D01*
X91776902Y-115258248D01*
X91626426Y-115210629D01*
X91475950Y-115210629D01*
X91325474Y-115258248D01*
X91250236Y-115305867D01*
X91174997Y-115401105D01*
X91099759Y-115591581D01*
X91024521Y-115686819D01*
X90949283Y-115734438D01*
X90798807Y-115782057D01*
X90648331Y-115782057D01*
X90497855Y-115734438D01*
X90422617Y-115686819D01*
X90347378Y-115591581D01*
X90347378Y-115353486D01*
X90422617Y-115210629D01*
X91927378Y-114782057D02*
X90347378Y-114782057D01*
X90347378Y-114401105D01*
X90422617Y-114305867D01*
X90497855Y-114258248D01*
X90648331Y-114210629D01*
X90874045Y-114210629D01*
X91024521Y-114258248D01*
X91099759Y-114305867D01*
X91174997Y-114401105D01*
X91174997Y-114782057D01*
X91927378Y-113782057D02*
X90347378Y-113782057D01*
X92077855Y-113543962D02*
X92077855Y-112782057D01*
X91927378Y-112543962D02*
X90347378Y-112543962D01*
X91475950Y-112210629D01*
X90347378Y-111877295D01*
X91927378Y-111877295D01*
X91927378Y-111401105D02*
X90347378Y-111401105D01*
X91852140Y-110972534D02*
X91927378Y-110829676D01*
X91927378Y-110591581D01*
X91852140Y-110496343D01*
X91776902Y-110448724D01*
X91626426Y-110401105D01*
X91475950Y-110401105D01*
X91325474Y-110448724D01*
X91250236Y-110496343D01*
X91174997Y-110591581D01*
X91099759Y-110782057D01*
X91024521Y-110877295D01*
X90949283Y-110924914D01*
X90798807Y-110972534D01*
X90648331Y-110972534D01*
X90497855Y-110924914D01*
X90422617Y-110877295D01*
X90347378Y-110782057D01*
X90347378Y-110543962D01*
X90422617Y-110401105D01*
X90347378Y-109782057D02*
X90347378Y-109591581D01*
X90422617Y-109496343D01*
X90573093Y-109401105D01*
X90874045Y-109353486D01*
X91400712Y-109353486D01*
X91701664Y-109401105D01*
X91852140Y-109496343D01*
X91927378Y-109591581D01*
X91927378Y-109782057D01*
X91852140Y-109877295D01*
X91701664Y-109972534D01*
X91400712Y-110020153D01*
X90874045Y-110020153D01*
X90573093Y-109972534D01*
X90422617Y-109877295D01*
X90347378Y-109782057D01*
X94471178Y-115591581D02*
X94395940Y-115686819D01*
X94320702Y-115734438D01*
X94170226Y-115782057D01*
X93718797Y-115782057D01*
X93568321Y-115734438D01*
X93493083Y-115686819D01*
X93417845Y-115591581D01*
X93417845Y-115448724D01*
X93493083Y-115353486D01*
X93568321Y-115305867D01*
X93718797Y-115258248D01*
X94170226Y-115258248D01*
X94320702Y-115305867D01*
X94395940Y-115353486D01*
X94471178Y-115448724D01*
X94471178Y-115591581D01*
X94471178Y-114686819D02*
X94395940Y-114782057D01*
X94245464Y-114829676D01*
X92891178Y-114829676D01*
X94395940Y-113924914D02*
X94471178Y-114020153D01*
X94471178Y-114210629D01*
X94395940Y-114305867D01*
X94245464Y-114353486D01*
X93643559Y-114353486D01*
X93493083Y-114305867D01*
X93417845Y-114210629D01*
X93417845Y-114020153D01*
X93493083Y-113924914D01*
X93643559Y-113877295D01*
X93794036Y-113877295D01*
X93944512Y-114353486D01*
X94471178Y-113020153D02*
X92891178Y-113020153D01*
X94395940Y-113020153D02*
X94471178Y-113115391D01*
X94471178Y-113305867D01*
X94395940Y-113401105D01*
X94320702Y-113448724D01*
X94170226Y-113496343D01*
X93718797Y-113496343D01*
X93568321Y-113448724D01*
X93493083Y-113401105D01*
X93417845Y-113305867D01*
X93417845Y-113115391D01*
X93493083Y-113020153D01*
X94621655Y-112782057D02*
X94621655Y-112020153D01*
X94395940Y-111353486D02*
X94471178Y-111448724D01*
X94471178Y-111639200D01*
X94395940Y-111734438D01*
X94320702Y-111782057D01*
X94170226Y-111829676D01*
X93718797Y-111829676D01*
X93568321Y-111782057D01*
X93493083Y-111734438D01*
X93417845Y-111639200D01*
X93417845Y-111448724D01*
X93493083Y-111353486D01*
X94395940Y-110972534D02*
X94471178Y-110877295D01*
X94471178Y-110686819D01*
X94395940Y-110591581D01*
X94245464Y-110543962D01*
X94170226Y-110543962D01*
X94019750Y-110591581D01*
X93944512Y-110686819D01*
X93944512Y-110829676D01*
X93869274Y-110924914D01*
X93718797Y-110972534D01*
X93643559Y-110972534D01*
X93493083Y-110924914D01*
X93417845Y-110829676D01*
X93417845Y-110686819D01*
X93493083Y-110591581D01*
X97014978Y-115591581D02*
X96939740Y-115686819D01*
X96864502Y-115734438D01*
X96714026Y-115782057D01*
X96262597Y-115782057D01*
X96112121Y-115734438D01*
X96036883Y-115686819D01*
X95961645Y-115591581D01*
X95961645Y-115448724D01*
X96036883Y-115353486D01*
X96112121Y-115305867D01*
X96262597Y-115258248D01*
X96714026Y-115258248D01*
X96864502Y-115305867D01*
X96939740Y-115353486D01*
X97014978Y-115448724D01*
X97014978Y-115591581D01*
X97014978Y-114686819D02*
X96939740Y-114782057D01*
X96789264Y-114829676D01*
X95434978Y-114829676D01*
X96939740Y-113924914D02*
X97014978Y-114020153D01*
X97014978Y-114210629D01*
X96939740Y-114305867D01*
X96789264Y-114353486D01*
X96187359Y-114353486D01*
X96036883Y-114305867D01*
X95961645Y-114210629D01*
X95961645Y-114020153D01*
X96036883Y-113924914D01*
X96187359Y-113877295D01*
X96337836Y-113877295D01*
X96488312Y-114353486D01*
X97014978Y-113020153D02*
X95434978Y-113020153D01*
X96939740Y-113020153D02*
X97014978Y-113115391D01*
X97014978Y-113305867D01*
X96939740Y-113401105D01*
X96864502Y-113448724D01*
X96714026Y-113496343D01*
X96262597Y-113496343D01*
X96112121Y-113448724D01*
X96036883Y-113401105D01*
X95961645Y-113305867D01*
X95961645Y-113115391D01*
X96036883Y-113020153D01*
X97165455Y-112782057D02*
X97165455Y-112020153D01*
X97014978Y-111782057D02*
X95961645Y-111782057D01*
X96262597Y-111782057D02*
X96112121Y-111734438D01*
X96036883Y-111686819D01*
X95961645Y-111591581D01*
X95961645Y-111496343D01*
X96939740Y-110782057D02*
X97014978Y-110877295D01*
X97014978Y-111067772D01*
X96939740Y-111163010D01*
X96789264Y-111210629D01*
X96187359Y-111210629D01*
X96036883Y-111163010D01*
X95961645Y-111067772D01*
X95961645Y-110877295D01*
X96036883Y-110782057D01*
X96187359Y-110734438D01*
X96337836Y-110734438D01*
X96488312Y-111210629D01*
X96939740Y-110353486D02*
X97014978Y-110258248D01*
X97014978Y-110067772D01*
X96939740Y-109972534D01*
X96789264Y-109924914D01*
X96714026Y-109924914D01*
X96563550Y-109972534D01*
X96488312Y-110067772D01*
X96488312Y-110210629D01*
X96413074Y-110305867D01*
X96262597Y-110353486D01*
X96187359Y-110353486D01*
X96036883Y-110305867D01*
X95961645Y-110210629D01*
X95961645Y-110067772D01*
X96036883Y-109972534D01*
X99558778Y-115591581D02*
X99483540Y-115686819D01*
X99408302Y-115734438D01*
X99257826Y-115782057D01*
X98806397Y-115782057D01*
X98655921Y-115734438D01*
X98580683Y-115686819D01*
X98505445Y-115591581D01*
X98505445Y-115448724D01*
X98580683Y-115353486D01*
X98655921Y-115305867D01*
X98806397Y-115258248D01*
X99257826Y-115258248D01*
X99408302Y-115305867D01*
X99483540Y-115353486D01*
X99558778Y-115448724D01*
X99558778Y-115591581D01*
X99558778Y-114686819D02*
X99483540Y-114782057D01*
X99333064Y-114829676D01*
X97978778Y-114829676D01*
X99483540Y-113924914D02*
X99558778Y-114020153D01*
X99558778Y-114210629D01*
X99483540Y-114305867D01*
X99333064Y-114353486D01*
X98731159Y-114353486D01*
X98580683Y-114305867D01*
X98505445Y-114210629D01*
X98505445Y-114020153D01*
X98580683Y-113924914D01*
X98731159Y-113877295D01*
X98881636Y-113877295D01*
X99032112Y-114353486D01*
X99558778Y-113020153D02*
X97978778Y-113020153D01*
X99483540Y-113020153D02*
X99558778Y-113115391D01*
X99558778Y-113305867D01*
X99483540Y-113401105D01*
X99408302Y-113448724D01*
X99257826Y-113496343D01*
X98806397Y-113496343D01*
X98655921Y-113448724D01*
X98580683Y-113401105D01*
X98505445Y-113305867D01*
X98505445Y-113115391D01*
X98580683Y-113020153D01*
X99709255Y-112782057D02*
X99709255Y-112020153D01*
X99558778Y-111353486D02*
X97978778Y-111353486D01*
X99483540Y-111353486D02*
X99558778Y-111448724D01*
X99558778Y-111639200D01*
X99483540Y-111734438D01*
X99408302Y-111782057D01*
X99257826Y-111829676D01*
X98806397Y-111829676D01*
X98655921Y-111782057D01*
X98580683Y-111734438D01*
X98505445Y-111639200D01*
X98505445Y-111448724D01*
X98580683Y-111353486D01*
X99483540Y-110448724D02*
X99558778Y-110543962D01*
X99558778Y-110734438D01*
X99483540Y-110829676D01*
X99408302Y-110877295D01*
X99257826Y-110924914D01*
X98806397Y-110924914D01*
X98655921Y-110877295D01*
X98580683Y-110829676D01*
X98505445Y-110734438D01*
X98505445Y-110543962D01*
X98580683Y-110448724D01*
X102027340Y-115353486D02*
X102102578Y-115448724D01*
X102102578Y-115639200D01*
X102027340Y-115734438D01*
X101876864Y-115782057D01*
X101274959Y-115782057D01*
X101124483Y-115734438D01*
X101049245Y-115639200D01*
X101049245Y-115448724D01*
X101124483Y-115353486D01*
X101274959Y-115305867D01*
X101425436Y-115305867D01*
X101575912Y-115782057D01*
X101049245Y-114877295D02*
X102102578Y-114877295D01*
X101199721Y-114877295D02*
X101124483Y-114829676D01*
X101049245Y-114734438D01*
X101049245Y-114591581D01*
X101124483Y-114496343D01*
X101274959Y-114448724D01*
X102102578Y-114448724D01*
X102027340Y-113543962D02*
X102102578Y-113639200D01*
X102102578Y-113829676D01*
X102027340Y-113924914D01*
X101952102Y-113972534D01*
X101801626Y-114020153D01*
X101350197Y-114020153D01*
X101199721Y-113972534D01*
X101124483Y-113924914D01*
X101049245Y-113829676D01*
X101049245Y-113639200D01*
X101124483Y-113543962D01*
X102253055Y-113353486D02*
X102253055Y-112591581D01*
X102027340Y-112401105D02*
X102102578Y-112305867D01*
X102102578Y-112115391D01*
X102027340Y-112020153D01*
X101876864Y-111972534D01*
X101801626Y-111972534D01*
X101651150Y-112020153D01*
X101575912Y-112115391D01*
X101575912Y-112258248D01*
X101500674Y-112353486D01*
X101350197Y-112401105D01*
X101274959Y-112401105D01*
X101124483Y-112353486D01*
X101049245Y-112258248D01*
X101049245Y-112115391D01*
X101124483Y-112020153D01*
X101049245Y-111639200D02*
X102102578Y-111448724D01*
X101350197Y-111258248D01*
X102102578Y-111067772D01*
X101049245Y-110877295D01*
X104571140Y-115353486D02*
X104646378Y-115448724D01*
X104646378Y-115639200D01*
X104571140Y-115734438D01*
X104420664Y-115782057D01*
X103818759Y-115782057D01*
X103668283Y-115734438D01*
X103593045Y-115639200D01*
X103593045Y-115448724D01*
X103668283Y-115353486D01*
X103818759Y-115305867D01*
X103969236Y-115305867D01*
X104119712Y-115782057D01*
X103593045Y-114877295D02*
X104646378Y-114877295D01*
X103743521Y-114877295D02*
X103668283Y-114829676D01*
X103593045Y-114734438D01*
X103593045Y-114591581D01*
X103668283Y-114496343D01*
X103818759Y-114448724D01*
X104646378Y-114448724D01*
X104571140Y-113543962D02*
X104646378Y-113639200D01*
X104646378Y-113829676D01*
X104571140Y-113924914D01*
X104495902Y-113972534D01*
X104345426Y-114020153D01*
X103893997Y-114020153D01*
X103743521Y-113972534D01*
X103668283Y-113924914D01*
X103593045Y-113829676D01*
X103593045Y-113639200D01*
X103668283Y-113543962D01*
X104796855Y-113353486D02*
X104796855Y-112591581D01*
X104646378Y-111924914D02*
X103818759Y-111924914D01*
X103668283Y-111972534D01*
X103593045Y-112067772D01*
X103593045Y-112258248D01*
X103668283Y-112353486D01*
X104571140Y-111924914D02*
X104646378Y-112020153D01*
X104646378Y-112258248D01*
X104571140Y-112353486D01*
X104420664Y-112401105D01*
X104270188Y-112401105D01*
X104119712Y-112353486D01*
X104044474Y-112258248D01*
X104044474Y-112020153D01*
X103969236Y-111924914D01*
X107114940Y-115353486D02*
X107190178Y-115448724D01*
X107190178Y-115639200D01*
X107114940Y-115734438D01*
X106964464Y-115782057D01*
X106362559Y-115782057D01*
X106212083Y-115734438D01*
X106136845Y-115639200D01*
X106136845Y-115448724D01*
X106212083Y-115353486D01*
X106362559Y-115305867D01*
X106513036Y-115305867D01*
X106663512Y-115782057D01*
X106136845Y-114877295D02*
X107190178Y-114877295D01*
X106287321Y-114877295D02*
X106212083Y-114829676D01*
X106136845Y-114734438D01*
X106136845Y-114591581D01*
X106212083Y-114496343D01*
X106362559Y-114448724D01*
X107190178Y-114448724D01*
X107114940Y-113543962D02*
X107190178Y-113639200D01*
X107190178Y-113829676D01*
X107114940Y-113924914D01*
X107039702Y-113972534D01*
X106889226Y-114020153D01*
X106437797Y-114020153D01*
X106287321Y-113972534D01*
X106212083Y-113924914D01*
X106136845Y-113829676D01*
X106136845Y-113639200D01*
X106212083Y-113543962D01*
X107340655Y-113353486D02*
X107340655Y-112591581D01*
X107190178Y-112353486D02*
X105610178Y-112353486D01*
X106212083Y-112353486D02*
X106136845Y-112258248D01*
X106136845Y-112067772D01*
X106212083Y-111972534D01*
X106287321Y-111924914D01*
X106437797Y-111877295D01*
X106889226Y-111877295D01*
X107039702Y-111924914D01*
X107114940Y-111972534D01*
X107190178Y-112067772D01*
X107190178Y-112258248D01*
X107114940Y-112353486D01*
D12*
X176781477Y-82039498D02*
X176781477Y-81525212D01*
X176781477Y-81782355D02*
X177981477Y-81782355D01*
X177810049Y-81696641D01*
X177695763Y-81610926D01*
X177638620Y-81525212D01*
X177981477Y-82596641D02*
X177981477Y-82682355D01*
X177924335Y-82768069D01*
X177867192Y-82810926D01*
X177752906Y-82853784D01*
X177524335Y-82896641D01*
X177238620Y-82896641D01*
X177010049Y-82853784D01*
X176895763Y-82810926D01*
X176838620Y-82768069D01*
X176781477Y-82682355D01*
X176781477Y-82596641D01*
X176838620Y-82510926D01*
X176895763Y-82468069D01*
X177010049Y-82425212D01*
X177238620Y-82382355D01*
X177524335Y-82382355D01*
X177752906Y-82425212D01*
X177867192Y-82468069D01*
X177924335Y-82510926D01*
X177981477Y-82596641D01*
X177981477Y-83453784D02*
X177981477Y-83539498D01*
X177924335Y-83625212D01*
X177867192Y-83668069D01*
X177752906Y-83710926D01*
X177524335Y-83753784D01*
X177238620Y-83753784D01*
X177010049Y-83710926D01*
X176895763Y-83668069D01*
X176838620Y-83625212D01*
X176781477Y-83539498D01*
X176781477Y-83453784D01*
X176838620Y-83368069D01*
X176895763Y-83325212D01*
X177010049Y-83282355D01*
X177238620Y-83239498D01*
X177524335Y-83239498D01*
X177752906Y-83282355D01*
X177867192Y-83325212D01*
X177924335Y-83368069D01*
X177981477Y-83453784D01*
X176781477Y-84096641D02*
X177981477Y-84782355D01*
X177981477Y-84225212D02*
X177924335Y-84310926D01*
X177810049Y-84353784D01*
X177695763Y-84310926D01*
X177638620Y-84225212D01*
X177695763Y-84139498D01*
X177810049Y-84096641D01*
X177924335Y-84139498D01*
X177981477Y-84225212D01*
X176838620Y-84739498D02*
X176952906Y-84782355D01*
X177067192Y-84739498D01*
X177124335Y-84653784D01*
X177067192Y-84568069D01*
X176952906Y-84525212D01*
X176838620Y-84568069D01*
X176781477Y-84653784D01*
X176838620Y-84739498D01*
X176049477Y-81482355D02*
X176049477Y-82082355D01*
X174849477Y-81696641D01*
X176049477Y-82853784D02*
X176049477Y-82425212D01*
X175478049Y-82382355D01*
X175535192Y-82425212D01*
X175592335Y-82510926D01*
X175592335Y-82725212D01*
X175535192Y-82810926D01*
X175478049Y-82853784D01*
X175363763Y-82896641D01*
X175078049Y-82896641D01*
X174963763Y-82853784D01*
X174906620Y-82810926D01*
X174849477Y-82725212D01*
X174849477Y-82510926D01*
X174906620Y-82425212D01*
X174963763Y-82382355D01*
X174849477Y-83239498D02*
X176049477Y-83925212D01*
X176049477Y-83368069D02*
X175992335Y-83453784D01*
X175878049Y-83496641D01*
X175763763Y-83453784D01*
X175706620Y-83368069D01*
X175763763Y-83282355D01*
X175878049Y-83239498D01*
X175992335Y-83282355D01*
X176049477Y-83368069D01*
X174906620Y-83882355D02*
X175020906Y-83925212D01*
X175135192Y-83882355D01*
X175192335Y-83796641D01*
X175135192Y-83710926D01*
X175020906Y-83668069D01*
X174906620Y-83710926D01*
X174849477Y-83796641D01*
X174906620Y-83882355D01*
X174117477Y-81996641D02*
X174117477Y-81568069D01*
X173546049Y-81525212D01*
X173603192Y-81568069D01*
X173660335Y-81653784D01*
X173660335Y-81868069D01*
X173603192Y-81953784D01*
X173546049Y-81996641D01*
X173431763Y-82039498D01*
X173146049Y-82039498D01*
X173031763Y-81996641D01*
X172974620Y-81953784D01*
X172917477Y-81868069D01*
X172917477Y-81653784D01*
X172974620Y-81568069D01*
X173031763Y-81525212D01*
X174117477Y-82596641D02*
X174117477Y-82682355D01*
X174060335Y-82768069D01*
X174003192Y-82810926D01*
X173888906Y-82853784D01*
X173660335Y-82896641D01*
X173374620Y-82896641D01*
X173146049Y-82853784D01*
X173031763Y-82810926D01*
X172974620Y-82768069D01*
X172917477Y-82682355D01*
X172917477Y-82596641D01*
X172974620Y-82510926D01*
X173031763Y-82468069D01*
X173146049Y-82425212D01*
X173374620Y-82382355D01*
X173660335Y-82382355D01*
X173888906Y-82425212D01*
X174003192Y-82468069D01*
X174060335Y-82510926D01*
X174117477Y-82596641D01*
X172917477Y-83239498D02*
X174117477Y-83925212D01*
X174117477Y-83368069D02*
X174060335Y-83453784D01*
X173946049Y-83496641D01*
X173831763Y-83453784D01*
X173774620Y-83368069D01*
X173831763Y-83282355D01*
X173946049Y-83239498D01*
X174060335Y-83282355D01*
X174117477Y-83368069D01*
X172974620Y-83882355D02*
X173088906Y-83925212D01*
X173203192Y-83882355D01*
X173260335Y-83796641D01*
X173203192Y-83710926D01*
X173088906Y-83668069D01*
X172974620Y-83710926D01*
X172917477Y-83796641D01*
X172974620Y-83882355D01*
X172071192Y-81525212D02*
X172128335Y-81568069D01*
X172185477Y-81653784D01*
X172185477Y-81868069D01*
X172128335Y-81953784D01*
X172071192Y-81996641D01*
X171956906Y-82039498D01*
X171842620Y-82039498D01*
X171671192Y-81996641D01*
X170985477Y-81482355D01*
X170985477Y-82039498D01*
X172185477Y-82853784D02*
X172185477Y-82425212D01*
X171614049Y-82382355D01*
X171671192Y-82425212D01*
X171728335Y-82510926D01*
X171728335Y-82725212D01*
X171671192Y-82810926D01*
X171614049Y-82853784D01*
X171499763Y-82896641D01*
X171214049Y-82896641D01*
X171099763Y-82853784D01*
X171042620Y-82810926D01*
X170985477Y-82725212D01*
X170985477Y-82510926D01*
X171042620Y-82425212D01*
X171099763Y-82382355D01*
X170985477Y-83239498D02*
X172185477Y-83925212D01*
X172185477Y-83368069D02*
X172128335Y-83453784D01*
X172014049Y-83496641D01*
X171899763Y-83453784D01*
X171842620Y-83368069D01*
X171899763Y-83282355D01*
X172014049Y-83239498D01*
X172128335Y-83282355D01*
X172185477Y-83368069D01*
X171042620Y-83882355D02*
X171156906Y-83925212D01*
X171271192Y-83882355D01*
X171328335Y-83796641D01*
X171271192Y-83710926D01*
X171156906Y-83668069D01*
X171042620Y-83710926D01*
X170985477Y-83796641D01*
X171042620Y-83882355D01*
D11*
X88047412Y-102352414D02*
X88047412Y-101352414D01*
X88428364Y-101352414D01*
X88523602Y-101400034D01*
X88571221Y-101447653D01*
X88618840Y-101542891D01*
X88618840Y-101685748D01*
X88571221Y-101780986D01*
X88523602Y-101828605D01*
X88428364Y-101876224D01*
X88047412Y-101876224D01*
X89618840Y-102352414D02*
X89285507Y-101876224D01*
X89047412Y-102352414D02*
X89047412Y-101352414D01*
X89428364Y-101352414D01*
X89523602Y-101400034D01*
X89571221Y-101447653D01*
X89618840Y-101542891D01*
X89618840Y-101685748D01*
X89571221Y-101780986D01*
X89523602Y-101828605D01*
X89428364Y-101876224D01*
X89047412Y-101876224D01*
X90571221Y-101400034D02*
X90475983Y-101352414D01*
X90333126Y-101352414D01*
X90190269Y-101400034D01*
X90095031Y-101495272D01*
X90047412Y-101590510D01*
X89999793Y-101780986D01*
X89999793Y-101923843D01*
X90047412Y-102114319D01*
X90095031Y-102209557D01*
X90190269Y-102304795D01*
X90333126Y-102352414D01*
X90428364Y-102352414D01*
X90571221Y-102304795D01*
X90618840Y-102257176D01*
X90618840Y-101923843D01*
X90428364Y-101923843D01*
X100531102Y-81370497D02*
X100531102Y-81751450D01*
X100864436Y-81513355D02*
X100007293Y-81513355D01*
X99912055Y-81560974D01*
X99864436Y-81656212D01*
X99864436Y-81751450D01*
X99864436Y-82227640D02*
X99912055Y-82132402D01*
X99959674Y-82084783D01*
X100054912Y-82037164D01*
X100340626Y-82037164D01*
X100435864Y-82084783D01*
X100483483Y-82132402D01*
X100531102Y-82227640D01*
X100531102Y-82370497D01*
X100483483Y-82465736D01*
X100435864Y-82513355D01*
X100340626Y-82560974D01*
X100054912Y-82560974D01*
X99959674Y-82513355D01*
X99912055Y-82465736D01*
X99864436Y-82370497D01*
X99864436Y-82227640D01*
X100531102Y-82989545D02*
X99531102Y-82989545D01*
X100483483Y-82989545D02*
X100531102Y-83084783D01*
X100531102Y-83275259D01*
X100483483Y-83370497D01*
X100435864Y-83418116D01*
X100340626Y-83465736D01*
X100054912Y-83465736D01*
X99959674Y-83418116D01*
X99912055Y-83370497D01*
X99864436Y-83275259D01*
X99864436Y-83084783D01*
X99912055Y-82989545D01*
X108880963Y-75505880D02*
X108880963Y-76752546D01*
X108807630Y-76899213D01*
X108734297Y-76972546D01*
X108587630Y-77045880D01*
X108367630Y-77045880D01*
X108220963Y-76972546D01*
X108880963Y-76459213D02*
X108734297Y-76532546D01*
X108440963Y-76532546D01*
X108294297Y-76459213D01*
X108220963Y-76385880D01*
X108147630Y-76239213D01*
X108147630Y-75799213D01*
X108220963Y-75652546D01*
X108294297Y-75579213D01*
X108440963Y-75505880D01*
X108734297Y-75505880D01*
X108880963Y-75579213D01*
X109614297Y-75505880D02*
X109614297Y-76532546D01*
X109614297Y-75652546D02*
X109687630Y-75579213D01*
X109834297Y-75505880D01*
X110054297Y-75505880D01*
X110200963Y-75579213D01*
X110274297Y-75725880D01*
X110274297Y-76532546D01*
X111667630Y-76532546D02*
X111667630Y-74992546D01*
X111667630Y-76459213D02*
X111520963Y-76532546D01*
X111227630Y-76532546D01*
X111080963Y-76459213D01*
X111007630Y-76385880D01*
X110934297Y-76239213D01*
X110934297Y-75799213D01*
X111007630Y-75652546D01*
X111080963Y-75579213D01*
X111227630Y-75505880D01*
X111520963Y-75505880D01*
X111667630Y-75579213D01*
X108734297Y-79011946D02*
X108734297Y-77471946D01*
X109614297Y-79011946D01*
X109614297Y-77471946D01*
X111227630Y-78865280D02*
X111154297Y-78938613D01*
X110934297Y-79011946D01*
X110787630Y-79011946D01*
X110567630Y-78938613D01*
X110420963Y-78791946D01*
X110347630Y-78645280D01*
X110274297Y-78351946D01*
X110274297Y-78131946D01*
X110347630Y-77838613D01*
X110420963Y-77691946D01*
X110567630Y-77545280D01*
X110787630Y-77471946D01*
X110934297Y-77471946D01*
X111154297Y-77545280D01*
X111227630Y-77618613D01*
X108734297Y-81491346D02*
X108734297Y-79951346D01*
X109614297Y-81491346D01*
X109614297Y-79951346D01*
X111227630Y-81344680D02*
X111154297Y-81418013D01*
X110934297Y-81491346D01*
X110787630Y-81491346D01*
X110567630Y-81418013D01*
X110420963Y-81271346D01*
X110347630Y-81124680D01*
X110274297Y-80831346D01*
X110274297Y-80611346D01*
X110347630Y-80318013D01*
X110420963Y-80171346D01*
X110567630Y-80024680D01*
X110787630Y-79951346D01*
X110934297Y-79951346D01*
X111154297Y-80024680D01*
X111227630Y-80098013D01*
X109724297Y-82430746D02*
X108990963Y-82430746D01*
X108917630Y-83164080D01*
X108990963Y-83090746D01*
X109137630Y-83017413D01*
X109504297Y-83017413D01*
X109650963Y-83090746D01*
X109724297Y-83164080D01*
X109797630Y-83310746D01*
X109797630Y-83677413D01*
X109724297Y-83824080D01*
X109650963Y-83897413D01*
X109504297Y-83970746D01*
X109137630Y-83970746D01*
X108990963Y-83897413D01*
X108917630Y-83824080D01*
X110310963Y-82944080D02*
X110677630Y-83970746D01*
X111044297Y-82944080D01*
X94872650Y-69289559D02*
X94725983Y-69364797D01*
X94432650Y-69364797D01*
X94285983Y-69289559D01*
X94212650Y-69214321D01*
X94139317Y-69063845D01*
X94139317Y-68612416D01*
X94212650Y-68461940D01*
X94285983Y-68386702D01*
X94432650Y-68311464D01*
X94725983Y-68311464D01*
X94872650Y-68386702D01*
X95752650Y-69364797D02*
X95605983Y-69289559D01*
X95532650Y-69139083D01*
X95532650Y-67784797D01*
X96339317Y-69364797D02*
X96339317Y-67784797D01*
X96485983Y-68762893D02*
X96925983Y-69364797D01*
X96925983Y-68311464D02*
X96339317Y-68913369D01*
X93185983Y-71908597D02*
X93185983Y-70328597D01*
X93185983Y-71833359D02*
X93039317Y-71908597D01*
X92745983Y-71908597D01*
X92599317Y-71833359D01*
X92525983Y-71758121D01*
X92452650Y-71607645D01*
X92452650Y-71156216D01*
X92525983Y-71005740D01*
X92599317Y-70930502D01*
X92745983Y-70855264D01*
X93039317Y-70855264D01*
X93185983Y-70930502D01*
X94579317Y-71908597D02*
X94579317Y-71080978D01*
X94505983Y-70930502D01*
X94359317Y-70855264D01*
X94065983Y-70855264D01*
X93919317Y-70930502D01*
X94579317Y-71833359D02*
X94432650Y-71908597D01*
X94065983Y-71908597D01*
X93919317Y-71833359D01*
X93845983Y-71682883D01*
X93845983Y-71532407D01*
X93919317Y-71381931D01*
X94065983Y-71306693D01*
X94432650Y-71306693D01*
X94579317Y-71231455D01*
X95092650Y-70855264D02*
X95679317Y-70855264D01*
X95312650Y-70328597D02*
X95312650Y-71682883D01*
X95385983Y-71833359D01*
X95532650Y-71908597D01*
X95679317Y-71908597D01*
X96852650Y-71908597D02*
X96852650Y-71080978D01*
X96779317Y-70930502D01*
X96632650Y-70855264D01*
X96339317Y-70855264D01*
X96192650Y-70930502D01*
X96852650Y-71833359D02*
X96705983Y-71908597D01*
X96339317Y-71908597D01*
X96192650Y-71833359D01*
X96119317Y-71682883D01*
X96119317Y-71532407D01*
X96192650Y-71381931D01*
X96339317Y-71306693D01*
X96705983Y-71306693D01*
X96852650Y-71231455D01*
X93332650Y-72872397D02*
X94285983Y-72872397D01*
X93772650Y-73474302D01*
X93992650Y-73474302D01*
X94139317Y-73549540D01*
X94212650Y-73624778D01*
X94285983Y-73775255D01*
X94285983Y-74151445D01*
X94212650Y-74301921D01*
X94139317Y-74377159D01*
X93992650Y-74452397D01*
X93552650Y-74452397D01*
X93405983Y-74377159D01*
X93332650Y-74301921D01*
X94799317Y-73399064D02*
X95165983Y-74452397D01*
X95532650Y-73399064D01*
X95972650Y-72872397D02*
X96925983Y-72872397D01*
X96412650Y-73474302D01*
X96632650Y-73474302D01*
X96779317Y-73549540D01*
X96852650Y-73624778D01*
X96925983Y-73775255D01*
X96925983Y-74151445D01*
X96852650Y-74301921D01*
X96779317Y-74377159D01*
X96632650Y-74452397D01*
X96192650Y-74452397D01*
X96045983Y-74377159D01*
X95972650Y-74301921D01*
X94065983Y-75942864D02*
X94065983Y-77221912D01*
X93992650Y-77372388D01*
X93919317Y-77447626D01*
X93772650Y-77522864D01*
X93552650Y-77522864D01*
X93405983Y-77447626D01*
X94065983Y-76920959D02*
X93919317Y-76996197D01*
X93625983Y-76996197D01*
X93479317Y-76920959D01*
X93405983Y-76845721D01*
X93332650Y-76695245D01*
X93332650Y-76243816D01*
X93405983Y-76093340D01*
X93479317Y-76018102D01*
X93625983Y-75942864D01*
X93919317Y-75942864D01*
X94065983Y-76018102D01*
X94799317Y-75942864D02*
X94799317Y-76996197D01*
X94799317Y-76093340D02*
X94872650Y-76018102D01*
X95019317Y-75942864D01*
X95239317Y-75942864D01*
X95385983Y-76018102D01*
X95459317Y-76168578D01*
X95459317Y-76996197D01*
X96852650Y-76996197D02*
X96852650Y-75416197D01*
X96852650Y-76920959D02*
X96705983Y-76996197D01*
X96412650Y-76996197D01*
X96265983Y-76920959D01*
X96192650Y-76845721D01*
X96119317Y-76695245D01*
X96119317Y-76243816D01*
X96192650Y-76093340D01*
X96265983Y-76018102D01*
X96412650Y-75942864D01*
X96705983Y-75942864D01*
X96852650Y-76018102D01*
%TO.C,H10*%
X210611221Y-117652414D02*
X210611221Y-116652414D01*
X210611221Y-117128605D02*
X211182650Y-117128605D01*
X211182650Y-117652414D02*
X211182650Y-116652414D01*
X212182650Y-117652414D02*
X211611221Y-117652414D01*
X211896936Y-117652414D02*
X211896936Y-116652414D01*
X211801697Y-116795272D01*
X211706459Y-116890510D01*
X211611221Y-116938129D01*
X212801697Y-116652414D02*
X212896936Y-116652414D01*
X212992174Y-116700034D01*
X213039793Y-116747653D01*
X213087412Y-116842891D01*
X213135031Y-117033367D01*
X213135031Y-117271462D01*
X213087412Y-117461938D01*
X213039793Y-117557176D01*
X212992174Y-117604795D01*
X212896936Y-117652414D01*
X212801697Y-117652414D01*
X212706459Y-117604795D01*
X212658840Y-117557176D01*
X212611221Y-117461938D01*
X212563602Y-117271462D01*
X212563602Y-117033367D01*
X212611221Y-116842891D01*
X212658840Y-116747653D01*
X212706459Y-116700034D01*
X212801697Y-116652414D01*
%TO.C,J7*%
X185661697Y-84333367D02*
X186375983Y-84333367D01*
X186518840Y-84380986D01*
X186614078Y-84476224D01*
X186661697Y-84619081D01*
X186661697Y-84714319D01*
X185661697Y-83952414D02*
X185661697Y-83285748D01*
X186661697Y-83714319D01*
%TO.C,R10*%
X155236459Y-79132414D02*
X154903126Y-78656224D01*
X154665031Y-79132414D02*
X154665031Y-78132414D01*
X155045983Y-78132414D01*
X155141221Y-78180034D01*
X155188840Y-78227653D01*
X155236459Y-78322891D01*
X155236459Y-78465748D01*
X155188840Y-78560986D01*
X155141221Y-78608605D01*
X155045983Y-78656224D01*
X154665031Y-78656224D01*
X156188840Y-79132414D02*
X155617412Y-79132414D01*
X155903126Y-79132414D02*
X155903126Y-78132414D01*
X155807888Y-78275272D01*
X155712650Y-78370510D01*
X155617412Y-78418129D01*
X156807888Y-78132414D02*
X156903126Y-78132414D01*
X156998364Y-78180034D01*
X157045983Y-78227653D01*
X157093602Y-78322891D01*
X157141221Y-78513367D01*
X157141221Y-78751462D01*
X157093602Y-78941938D01*
X157045983Y-79037176D01*
X156998364Y-79084795D01*
X156903126Y-79132414D01*
X156807888Y-79132414D01*
X156712650Y-79084795D01*
X156665031Y-79037176D01*
X156617412Y-78941938D01*
X156569793Y-78751462D01*
X156569793Y-78513367D01*
X156617412Y-78322891D01*
X156665031Y-78227653D01*
X156712650Y-78180034D01*
X156807888Y-78132414D01*
%TO.C,C25*%
X57466459Y-66857176D02*
X57418840Y-66904795D01*
X57275983Y-66952414D01*
X57180745Y-66952414D01*
X57037888Y-66904795D01*
X56942650Y-66809557D01*
X56895031Y-66714319D01*
X56847412Y-66523843D01*
X56847412Y-66380986D01*
X56895031Y-66190510D01*
X56942650Y-66095272D01*
X57037888Y-66000034D01*
X57180745Y-65952414D01*
X57275983Y-65952414D01*
X57418840Y-66000034D01*
X57466459Y-66047653D01*
X57847412Y-66047653D02*
X57895031Y-66000034D01*
X57990269Y-65952414D01*
X58228364Y-65952414D01*
X58323602Y-66000034D01*
X58371221Y-66047653D01*
X58418840Y-66142891D01*
X58418840Y-66238129D01*
X58371221Y-66380986D01*
X57799793Y-66952414D01*
X58418840Y-66952414D01*
X59323602Y-65952414D02*
X58847412Y-65952414D01*
X58799793Y-66428605D01*
X58847412Y-66380986D01*
X58942650Y-66333367D01*
X59180745Y-66333367D01*
X59275983Y-66380986D01*
X59323602Y-66428605D01*
X59371221Y-66523843D01*
X59371221Y-66761938D01*
X59323602Y-66857176D01*
X59275983Y-66904795D01*
X59180745Y-66952414D01*
X58942650Y-66952414D01*
X58847412Y-66904795D01*
X58799793Y-66857176D01*
%TO.C,C18*%
X130057459Y-84297176D02*
X130009840Y-84344795D01*
X129866983Y-84392414D01*
X129771745Y-84392414D01*
X129628888Y-84344795D01*
X129533650Y-84249557D01*
X129486031Y-84154319D01*
X129438412Y-83963843D01*
X129438412Y-83820986D01*
X129486031Y-83630510D01*
X129533650Y-83535272D01*
X129628888Y-83440034D01*
X129771745Y-83392414D01*
X129866983Y-83392414D01*
X130009840Y-83440034D01*
X130057459Y-83487653D01*
X131009840Y-84392414D02*
X130438412Y-84392414D01*
X130724126Y-84392414D02*
X130724126Y-83392414D01*
X130628888Y-83535272D01*
X130533650Y-83630510D01*
X130438412Y-83678129D01*
X131581269Y-83820986D02*
X131486031Y-83773367D01*
X131438412Y-83725748D01*
X131390793Y-83630510D01*
X131390793Y-83582891D01*
X131438412Y-83487653D01*
X131486031Y-83440034D01*
X131581269Y-83392414D01*
X131771745Y-83392414D01*
X131866983Y-83440034D01*
X131914602Y-83487653D01*
X131962221Y-83582891D01*
X131962221Y-83630510D01*
X131914602Y-83725748D01*
X131866983Y-83773367D01*
X131771745Y-83820986D01*
X131581269Y-83820986D01*
X131486031Y-83868605D01*
X131438412Y-83916224D01*
X131390793Y-84011462D01*
X131390793Y-84201938D01*
X131438412Y-84297176D01*
X131486031Y-84344795D01*
X131581269Y-84392414D01*
X131771745Y-84392414D01*
X131866983Y-84344795D01*
X131914602Y-84297176D01*
X131962221Y-84201938D01*
X131962221Y-84011462D01*
X131914602Y-83916224D01*
X131866983Y-83868605D01*
X131771745Y-83820986D01*
%TO.C,U2*%
X167061697Y-94995938D02*
X167871221Y-94995938D01*
X167966459Y-94948319D01*
X168014078Y-94900700D01*
X168061697Y-94805462D01*
X168061697Y-94614986D01*
X168014078Y-94519748D01*
X167966459Y-94472129D01*
X167871221Y-94424510D01*
X167061697Y-94424510D01*
X167156936Y-93995938D02*
X167109317Y-93948319D01*
X167061697Y-93853081D01*
X167061697Y-93614986D01*
X167109317Y-93519748D01*
X167156936Y-93472129D01*
X167252174Y-93424510D01*
X167347412Y-93424510D01*
X167490269Y-93472129D01*
X168061697Y-94043557D01*
X168061697Y-93424510D01*
D13*
%TO.C,IC2*%
X150583840Y-76539795D02*
X149313840Y-76539795D01*
X150462888Y-75209319D02*
X150523364Y-75269795D01*
X150583840Y-75451224D01*
X150583840Y-75572176D01*
X150523364Y-75753605D01*
X150402412Y-75874557D01*
X150281459Y-75935034D01*
X150039555Y-75995510D01*
X149858126Y-75995510D01*
X149616221Y-75935034D01*
X149495269Y-75874557D01*
X149374317Y-75753605D01*
X149313840Y-75572176D01*
X149313840Y-75451224D01*
X149374317Y-75269795D01*
X149434793Y-75209319D01*
X149434793Y-74725510D02*
X149374317Y-74665034D01*
X149313840Y-74544081D01*
X149313840Y-74241700D01*
X149374317Y-74120748D01*
X149434793Y-74060272D01*
X149555745Y-73999795D01*
X149676697Y-73999795D01*
X149858126Y-74060272D01*
X150583840Y-74785986D01*
X150583840Y-73999795D01*
D11*
%TO.C,BT1*%
X146748747Y-60718605D02*
X146891604Y-60766224D01*
X146939223Y-60813843D01*
X146986842Y-60909081D01*
X146986842Y-61051938D01*
X146939223Y-61147176D01*
X146891604Y-61194795D01*
X146796366Y-61242414D01*
X146415414Y-61242414D01*
X146415414Y-60242414D01*
X146748747Y-60242414D01*
X146843985Y-60290034D01*
X146891604Y-60337653D01*
X146939223Y-60432891D01*
X146939223Y-60528129D01*
X146891604Y-60623367D01*
X146843985Y-60670986D01*
X146748747Y-60718605D01*
X146415414Y-60718605D01*
X147272557Y-60242414D02*
X147843985Y-60242414D01*
X147558271Y-61242414D02*
X147558271Y-60242414D01*
X148701128Y-61242414D02*
X148129700Y-61242414D01*
X148415414Y-61242414D02*
X148415414Y-60242414D01*
X148320176Y-60385272D01*
X148224938Y-60480510D01*
X148129700Y-60528129D01*
%TO.C,J48*%
X74779793Y-78052414D02*
X74779793Y-78766700D01*
X74732174Y-78909557D01*
X74636936Y-79004795D01*
X74494078Y-79052414D01*
X74398840Y-79052414D01*
X75684555Y-78385748D02*
X75684555Y-79052414D01*
X75446459Y-78004795D02*
X75208364Y-78719081D01*
X75827412Y-78719081D01*
X76351221Y-78480986D02*
X76255983Y-78433367D01*
X76208364Y-78385748D01*
X76160745Y-78290510D01*
X76160745Y-78242891D01*
X76208364Y-78147653D01*
X76255983Y-78100034D01*
X76351221Y-78052414D01*
X76541697Y-78052414D01*
X76636936Y-78100034D01*
X76684555Y-78147653D01*
X76732174Y-78242891D01*
X76732174Y-78290510D01*
X76684555Y-78385748D01*
X76636936Y-78433367D01*
X76541697Y-78480986D01*
X76351221Y-78480986D01*
X76255983Y-78528605D01*
X76208364Y-78576224D01*
X76160745Y-78671462D01*
X76160745Y-78861938D01*
X76208364Y-78957176D01*
X76255983Y-79004795D01*
X76351221Y-79052414D01*
X76541697Y-79052414D01*
X76636936Y-79004795D01*
X76684555Y-78957176D01*
X76732174Y-78861938D01*
X76732174Y-78671462D01*
X76684555Y-78576224D01*
X76636936Y-78528605D01*
X76541697Y-78480986D01*
%TO.C,J3*%
X157961697Y-90593367D02*
X158675983Y-90593367D01*
X158818840Y-90640986D01*
X158914078Y-90736224D01*
X158961697Y-90879081D01*
X158961697Y-90974319D01*
X157961697Y-90212414D02*
X157961697Y-89593367D01*
X158342650Y-89926700D01*
X158342650Y-89783843D01*
X158390269Y-89688605D01*
X158437888Y-89640986D01*
X158533126Y-89593367D01*
X158771221Y-89593367D01*
X158866459Y-89640986D01*
X158914078Y-89688605D01*
X158961697Y-89783843D01*
X158961697Y-90069557D01*
X158914078Y-90164795D01*
X158866459Y-90212414D01*
%TO.C,L1*%
X136142650Y-76552414D02*
X135666459Y-76552414D01*
X135666459Y-75552414D01*
X136999793Y-76552414D02*
X136428364Y-76552414D01*
X136714078Y-76552414D02*
X136714078Y-75552414D01*
X136618840Y-75695272D01*
X136523602Y-75790510D01*
X136428364Y-75838129D01*
%TO.C,R4*%
X65842650Y-67552414D02*
X65509317Y-67076224D01*
X65271221Y-67552414D02*
X65271221Y-66552414D01*
X65652174Y-66552414D01*
X65747412Y-66600034D01*
X65795031Y-66647653D01*
X65842650Y-66742891D01*
X65842650Y-66885748D01*
X65795031Y-66980986D01*
X65747412Y-67028605D01*
X65652174Y-67076224D01*
X65271221Y-67076224D01*
X66699793Y-66885748D02*
X66699793Y-67552414D01*
X66461697Y-66504795D02*
X66223602Y-67219081D01*
X66842650Y-67219081D01*
%TO.C,SW6*%
X89375983Y-94904795D02*
X89518840Y-94952414D01*
X89756936Y-94952414D01*
X89852174Y-94904795D01*
X89899793Y-94857176D01*
X89947412Y-94761938D01*
X89947412Y-94666700D01*
X89899793Y-94571462D01*
X89852174Y-94523843D01*
X89756936Y-94476224D01*
X89566459Y-94428605D01*
X89471221Y-94380986D01*
X89423602Y-94333367D01*
X89375983Y-94238129D01*
X89375983Y-94142891D01*
X89423602Y-94047653D01*
X89471221Y-94000034D01*
X89566459Y-93952414D01*
X89804555Y-93952414D01*
X89947412Y-94000034D01*
X90280745Y-93952414D02*
X90518840Y-94952414D01*
X90709317Y-94238129D01*
X90899793Y-94952414D01*
X91137888Y-93952414D01*
X91947412Y-93952414D02*
X91756936Y-93952414D01*
X91661697Y-94000034D01*
X91614078Y-94047653D01*
X91518840Y-94190510D01*
X91471221Y-94380986D01*
X91471221Y-94761938D01*
X91518840Y-94857176D01*
X91566459Y-94904795D01*
X91661697Y-94952414D01*
X91852174Y-94952414D01*
X91947412Y-94904795D01*
X91995031Y-94857176D01*
X92042650Y-94761938D01*
X92042650Y-94523843D01*
X91995031Y-94428605D01*
X91947412Y-94380986D01*
X91852174Y-94333367D01*
X91661697Y-94333367D01*
X91566459Y-94380986D01*
X91518840Y-94428605D01*
X91471221Y-94523843D01*
%TO.C,D1*%
X180018530Y-80260629D02*
X179018530Y-80260629D01*
X179018530Y-80022534D01*
X179066150Y-79879676D01*
X179161388Y-79784438D01*
X179256626Y-79736819D01*
X179447102Y-79689200D01*
X179589959Y-79689200D01*
X179780435Y-79736819D01*
X179875673Y-79784438D01*
X179970911Y-79879676D01*
X180018530Y-80022534D01*
X180018530Y-80260629D01*
X180018530Y-78736819D02*
X180018530Y-79308248D01*
X180018530Y-79022534D02*
X179018530Y-79022534D01*
X179161388Y-79117772D01*
X179256626Y-79213010D01*
X179304245Y-79308248D01*
%TO.C,C15*%
X120016459Y-81142891D02*
X120064078Y-81190510D01*
X120111697Y-81333367D01*
X120111697Y-81428605D01*
X120064078Y-81571462D01*
X119968840Y-81666700D01*
X119873602Y-81714319D01*
X119683126Y-81761938D01*
X119540269Y-81761938D01*
X119349793Y-81714319D01*
X119254555Y-81666700D01*
X119159317Y-81571462D01*
X119111697Y-81428605D01*
X119111697Y-81333367D01*
X119159317Y-81190510D01*
X119206936Y-81142891D01*
X120111697Y-80190510D02*
X120111697Y-80761938D01*
X120111697Y-80476224D02*
X119111697Y-80476224D01*
X119254555Y-80571462D01*
X119349793Y-80666700D01*
X119397412Y-80761938D01*
X119111697Y-79285748D02*
X119111697Y-79761938D01*
X119587888Y-79809557D01*
X119540269Y-79761938D01*
X119492650Y-79666700D01*
X119492650Y-79428605D01*
X119540269Y-79333367D01*
X119587888Y-79285748D01*
X119683126Y-79238129D01*
X119921221Y-79238129D01*
X120016459Y-79285748D01*
X120064078Y-79333367D01*
X120111697Y-79428605D01*
X120111697Y-79666700D01*
X120064078Y-79761938D01*
X120016459Y-79809557D01*
%TO.C,H4*%
X97794767Y-94907414D02*
X97794767Y-93907414D01*
X97794767Y-94383605D02*
X98366195Y-94383605D01*
X98366195Y-94907414D02*
X98366195Y-93907414D01*
X99270957Y-94240748D02*
X99270957Y-94907414D01*
X99032862Y-93859795D02*
X98794767Y-94574081D01*
X99413814Y-94574081D01*
%TO.C,J46*%
X56361697Y-80809557D02*
X57075983Y-80809557D01*
X57218840Y-80857176D01*
X57314078Y-80952414D01*
X57361697Y-81095272D01*
X57361697Y-81190510D01*
X56695031Y-79904795D02*
X57361697Y-79904795D01*
X56314078Y-80142891D02*
X57028364Y-80380986D01*
X57028364Y-79761938D01*
X56361697Y-78952414D02*
X56361697Y-79142891D01*
X56409317Y-79238129D01*
X56456936Y-79285748D01*
X56599793Y-79380986D01*
X56790269Y-79428605D01*
X57171221Y-79428605D01*
X57266459Y-79380986D01*
X57314078Y-79333367D01*
X57361697Y-79238129D01*
X57361697Y-79047653D01*
X57314078Y-78952414D01*
X57266459Y-78904795D01*
X57171221Y-78857176D01*
X56933126Y-78857176D01*
X56837888Y-78904795D01*
X56790269Y-78952414D01*
X56742650Y-79047653D01*
X56742650Y-79238129D01*
X56790269Y-79333367D01*
X56837888Y-79380986D01*
X56933126Y-79428605D01*
%TO.C,J47*%
X73561697Y-63109557D02*
X74275983Y-63109557D01*
X74418840Y-63157176D01*
X74514078Y-63252414D01*
X74561697Y-63395272D01*
X74561697Y-63490510D01*
X73895031Y-62204795D02*
X74561697Y-62204795D01*
X73514078Y-62442891D02*
X74228364Y-62680986D01*
X74228364Y-62061938D01*
X73561697Y-61776224D02*
X73561697Y-61109557D01*
X74561697Y-61538129D01*
D13*
%TO.C,IC3*%
X92083840Y-70139795D02*
X90813840Y-70139795D01*
X91962888Y-68809319D02*
X92023364Y-68869795D01*
X92083840Y-69051224D01*
X92083840Y-69172176D01*
X92023364Y-69353605D01*
X91902412Y-69474557D01*
X91781459Y-69535034D01*
X91539555Y-69595510D01*
X91358126Y-69595510D01*
X91116221Y-69535034D01*
X90995269Y-69474557D01*
X90874317Y-69353605D01*
X90813840Y-69172176D01*
X90813840Y-69051224D01*
X90874317Y-68869795D01*
X90934793Y-68809319D01*
X90813840Y-68385986D02*
X90813840Y-67599795D01*
X91297650Y-68023129D01*
X91297650Y-67841700D01*
X91358126Y-67720748D01*
X91418602Y-67660272D01*
X91539555Y-67599795D01*
X91841936Y-67599795D01*
X91962888Y-67660272D01*
X92023364Y-67720748D01*
X92083840Y-67841700D01*
X92083840Y-68204557D01*
X92023364Y-68325510D01*
X91962888Y-68385986D01*
D11*
%TO.C,U45*%
X66781221Y-68962414D02*
X66781221Y-69771938D01*
X66828840Y-69867176D01*
X66876459Y-69914795D01*
X66971697Y-69962414D01*
X67162174Y-69962414D01*
X67257412Y-69914795D01*
X67305031Y-69867176D01*
X67352650Y-69771938D01*
X67352650Y-68962414D01*
X68257412Y-69295748D02*
X68257412Y-69962414D01*
X68019317Y-68914795D02*
X67781221Y-69629081D01*
X68400269Y-69629081D01*
X69257412Y-68962414D02*
X68781221Y-68962414D01*
X68733602Y-69438605D01*
X68781221Y-69390986D01*
X68876459Y-69343367D01*
X69114555Y-69343367D01*
X69209793Y-69390986D01*
X69257412Y-69438605D01*
X69305031Y-69533843D01*
X69305031Y-69771938D01*
X69257412Y-69867176D01*
X69209793Y-69914795D01*
X69114555Y-69962414D01*
X68876459Y-69962414D01*
X68781221Y-69914795D01*
X68733602Y-69867176D01*
%TO.C,J50*%
X81361697Y-81209557D02*
X82075983Y-81209557D01*
X82218840Y-81257176D01*
X82314078Y-81352414D01*
X82361697Y-81495272D01*
X82361697Y-81590510D01*
X81361697Y-80257176D02*
X81361697Y-80733367D01*
X81837888Y-80780986D01*
X81790269Y-80733367D01*
X81742650Y-80638129D01*
X81742650Y-80400034D01*
X81790269Y-80304795D01*
X81837888Y-80257176D01*
X81933126Y-80209557D01*
X82171221Y-80209557D01*
X82266459Y-80257176D01*
X82314078Y-80304795D01*
X82361697Y-80400034D01*
X82361697Y-80638129D01*
X82314078Y-80733367D01*
X82266459Y-80780986D01*
X81361697Y-79590510D02*
X81361697Y-79495272D01*
X81409317Y-79400034D01*
X81456936Y-79352414D01*
X81552174Y-79304795D01*
X81742650Y-79257176D01*
X81980745Y-79257176D01*
X82171221Y-79304795D01*
X82266459Y-79352414D01*
X82314078Y-79400034D01*
X82361697Y-79495272D01*
X82361697Y-79590510D01*
X82314078Y-79685748D01*
X82266459Y-79733367D01*
X82171221Y-79780986D01*
X81980745Y-79828605D01*
X81742650Y-79828605D01*
X81552174Y-79780986D01*
X81456936Y-79733367D01*
X81409317Y-79685748D01*
X81361697Y-79590510D01*
%TO.C,D2*%
X173961697Y-77438129D02*
X172961697Y-77438129D01*
X172961697Y-77200034D01*
X173009317Y-77057176D01*
X173104555Y-76961938D01*
X173199793Y-76914319D01*
X173390269Y-76866700D01*
X173533126Y-76866700D01*
X173723602Y-76914319D01*
X173818840Y-76961938D01*
X173914078Y-77057176D01*
X173961697Y-77200034D01*
X173961697Y-77438129D01*
X173056936Y-76485748D02*
X173009317Y-76438129D01*
X172961697Y-76342891D01*
X172961697Y-76104795D01*
X173009317Y-76009557D01*
X173056936Y-75961938D01*
X173152174Y-75914319D01*
X173247412Y-75914319D01*
X173390269Y-75961938D01*
X173961697Y-76533367D01*
X173961697Y-75914319D01*
%TO.C,H11*%
X59561697Y-79338129D02*
X58561697Y-79338129D01*
X59037888Y-79338129D02*
X59037888Y-78766700D01*
X59561697Y-78766700D02*
X58561697Y-78766700D01*
X59561697Y-77766700D02*
X59561697Y-78338129D01*
X59561697Y-78052414D02*
X58561697Y-78052414D01*
X58704555Y-78147653D01*
X58799793Y-78242891D01*
X58847412Y-78338129D01*
X59561697Y-76814319D02*
X59561697Y-77385748D01*
X59561697Y-77100034D02*
X58561697Y-77100034D01*
X58704555Y-77195272D01*
X58799793Y-77290510D01*
X58847412Y-77385748D01*
%TO.C,U3*%
X167061697Y-110235938D02*
X167871221Y-110235938D01*
X167966459Y-110188319D01*
X168014078Y-110140700D01*
X168061697Y-110045462D01*
X168061697Y-109854986D01*
X168014078Y-109759748D01*
X167966459Y-109712129D01*
X167871221Y-109664510D01*
X167061697Y-109664510D01*
X167061697Y-109283557D02*
X167061697Y-108664510D01*
X167442650Y-108997843D01*
X167442650Y-108854986D01*
X167490269Y-108759748D01*
X167537888Y-108712129D01*
X167633126Y-108664510D01*
X167871221Y-108664510D01*
X167966459Y-108712129D01*
X168014078Y-108759748D01*
X168061697Y-108854986D01*
X168061697Y-109140700D01*
X168014078Y-109235938D01*
X167966459Y-109283557D01*
%TO.C,C32*%
X87266459Y-67557176D02*
X87218840Y-67604795D01*
X87075983Y-67652414D01*
X86980745Y-67652414D01*
X86837888Y-67604795D01*
X86742650Y-67509557D01*
X86695031Y-67414319D01*
X86647412Y-67223843D01*
X86647412Y-67080986D01*
X86695031Y-66890510D01*
X86742650Y-66795272D01*
X86837888Y-66700034D01*
X86980745Y-66652414D01*
X87075983Y-66652414D01*
X87218840Y-66700034D01*
X87266459Y-66747653D01*
X87599793Y-66652414D02*
X88218840Y-66652414D01*
X87885507Y-67033367D01*
X88028364Y-67033367D01*
X88123602Y-67080986D01*
X88171221Y-67128605D01*
X88218840Y-67223843D01*
X88218840Y-67461938D01*
X88171221Y-67557176D01*
X88123602Y-67604795D01*
X88028364Y-67652414D01*
X87742650Y-67652414D01*
X87647412Y-67604795D01*
X87599793Y-67557176D01*
X88599793Y-66747653D02*
X88647412Y-66700034D01*
X88742650Y-66652414D01*
X88980745Y-66652414D01*
X89075983Y-66700034D01*
X89123602Y-66747653D01*
X89171221Y-66842891D01*
X89171221Y-66938129D01*
X89123602Y-67080986D01*
X88552174Y-67652414D01*
X89171221Y-67652414D01*
%TO.C,C24*%
X62166459Y-77242891D02*
X62214078Y-77290510D01*
X62261697Y-77433367D01*
X62261697Y-77528605D01*
X62214078Y-77671462D01*
X62118840Y-77766700D01*
X62023602Y-77814319D01*
X61833126Y-77861938D01*
X61690269Y-77861938D01*
X61499793Y-77814319D01*
X61404555Y-77766700D01*
X61309317Y-77671462D01*
X61261697Y-77528605D01*
X61261697Y-77433367D01*
X61309317Y-77290510D01*
X61356936Y-77242891D01*
X61356936Y-76861938D02*
X61309317Y-76814319D01*
X61261697Y-76719081D01*
X61261697Y-76480986D01*
X61309317Y-76385748D01*
X61356936Y-76338129D01*
X61452174Y-76290510D01*
X61547412Y-76290510D01*
X61690269Y-76338129D01*
X62261697Y-76909557D01*
X62261697Y-76290510D01*
X61595031Y-75433367D02*
X62261697Y-75433367D01*
X61214078Y-75671462D02*
X61928364Y-75909557D01*
X61928364Y-75290510D01*
%TO.C,H12*%
X81661697Y-69138129D02*
X80661697Y-69138129D01*
X81137888Y-69138129D02*
X81137888Y-68566700D01*
X81661697Y-68566700D02*
X80661697Y-68566700D01*
X81661697Y-67566700D02*
X81661697Y-68138129D01*
X81661697Y-67852414D02*
X80661697Y-67852414D01*
X80804555Y-67947653D01*
X80899793Y-68042891D01*
X80947412Y-68138129D01*
X80756936Y-67185748D02*
X80709317Y-67138129D01*
X80661697Y-67042891D01*
X80661697Y-66804795D01*
X80709317Y-66709557D01*
X80756936Y-66661938D01*
X80852174Y-66614319D01*
X80947412Y-66614319D01*
X81090269Y-66661938D01*
X81661697Y-67233367D01*
X81661697Y-66614319D01*
%TO.C,D4*%
X170071031Y-80260629D02*
X169071031Y-80260629D01*
X169071031Y-80022534D01*
X169118651Y-79879676D01*
X169213889Y-79784438D01*
X169309127Y-79736819D01*
X169499603Y-79689200D01*
X169642460Y-79689200D01*
X169832936Y-79736819D01*
X169928174Y-79784438D01*
X170023412Y-79879676D01*
X170071031Y-80022534D01*
X170071031Y-80260629D01*
X169404365Y-78832057D02*
X170071031Y-78832057D01*
X169023412Y-79070153D02*
X169737698Y-79308248D01*
X169737698Y-78689200D01*
%TO.C,H9*%
X63447412Y-91752414D02*
X63447412Y-90752414D01*
X63447412Y-91228605D02*
X64018840Y-91228605D01*
X64018840Y-91752414D02*
X64018840Y-90752414D01*
X64542650Y-91752414D02*
X64733126Y-91752414D01*
X64828364Y-91704795D01*
X64875983Y-91657176D01*
X64971221Y-91514319D01*
X65018840Y-91323843D01*
X65018840Y-90942891D01*
X64971221Y-90847653D01*
X64923602Y-90800034D01*
X64828364Y-90752414D01*
X64637888Y-90752414D01*
X64542650Y-90800034D01*
X64495031Y-90847653D01*
X64447412Y-90942891D01*
X64447412Y-91180986D01*
X64495031Y-91276224D01*
X64542650Y-91323843D01*
X64637888Y-91371462D01*
X64828364Y-91371462D01*
X64923602Y-91323843D01*
X64971221Y-91276224D01*
X65018840Y-91180986D01*
D13*
%TO.C,J38*%
X62591089Y-105433129D02*
X63498232Y-105433129D01*
X63679661Y-105493605D01*
X63800613Y-105614557D01*
X63861089Y-105795986D01*
X63861089Y-105916938D01*
X62591089Y-104949319D02*
X62591089Y-104163129D01*
X63074899Y-104586462D01*
X63074899Y-104405034D01*
X63135375Y-104284081D01*
X63195851Y-104223605D01*
X63316804Y-104163129D01*
X63619185Y-104163129D01*
X63740137Y-104223605D01*
X63800613Y-104284081D01*
X63861089Y-104405034D01*
X63861089Y-104767891D01*
X63800613Y-104888843D01*
X63740137Y-104949319D01*
X63135375Y-103437414D02*
X63074899Y-103558367D01*
X63014423Y-103618843D01*
X62893470Y-103679319D01*
X62832994Y-103679319D01*
X62712042Y-103618843D01*
X62651566Y-103558367D01*
X62591089Y-103437414D01*
X62591089Y-103195510D01*
X62651566Y-103074557D01*
X62712042Y-103014081D01*
X62832994Y-102953605D01*
X62893470Y-102953605D01*
X63014423Y-103014081D01*
X63074899Y-103074557D01*
X63135375Y-103195510D01*
X63135375Y-103437414D01*
X63195851Y-103558367D01*
X63256327Y-103618843D01*
X63377280Y-103679319D01*
X63619185Y-103679319D01*
X63740137Y-103618843D01*
X63800613Y-103558367D01*
X63861089Y-103437414D01*
X63861089Y-103195510D01*
X63800613Y-103074557D01*
X63740137Y-103014081D01*
X63619185Y-102953605D01*
X63377280Y-102953605D01*
X63256327Y-103014081D01*
X63195851Y-103074557D01*
X63135375Y-103195510D01*
D11*
%TO.C,J34*%
X105589793Y-71422414D02*
X105589793Y-72136700D01*
X105542174Y-72279557D01*
X105446936Y-72374795D01*
X105304078Y-72422414D01*
X105208840Y-72422414D01*
X105970745Y-71422414D02*
X106589793Y-71422414D01*
X106256459Y-71803367D01*
X106399317Y-71803367D01*
X106494555Y-71850986D01*
X106542174Y-71898605D01*
X106589793Y-71993843D01*
X106589793Y-72231938D01*
X106542174Y-72327176D01*
X106494555Y-72374795D01*
X106399317Y-72422414D01*
X106113602Y-72422414D01*
X106018364Y-72374795D01*
X105970745Y-72327176D01*
X107446936Y-71755748D02*
X107446936Y-72422414D01*
X107208840Y-71374795D02*
X106970745Y-72089081D01*
X107589793Y-72089081D01*
%TO.C,R14*%
X78203959Y-95572414D02*
X77870626Y-95096224D01*
X77632531Y-95572414D02*
X77632531Y-94572414D01*
X78013483Y-94572414D01*
X78108721Y-94620034D01*
X78156340Y-94667653D01*
X78203959Y-94762891D01*
X78203959Y-94905748D01*
X78156340Y-95000986D01*
X78108721Y-95048605D01*
X78013483Y-95096224D01*
X77632531Y-95096224D01*
X79156340Y-95572414D02*
X78584912Y-95572414D01*
X78870626Y-95572414D02*
X78870626Y-94572414D01*
X78775388Y-94715272D01*
X78680150Y-94810510D01*
X78584912Y-94858129D01*
X80013483Y-94905748D02*
X80013483Y-95572414D01*
X79775388Y-94524795D02*
X79537293Y-95239081D01*
X80156340Y-95239081D01*
%TO.C,R11*%
X129457459Y-78692414D02*
X129124126Y-78216224D01*
X128886031Y-78692414D02*
X128886031Y-77692414D01*
X129266983Y-77692414D01*
X129362221Y-77740034D01*
X129409840Y-77787653D01*
X129457459Y-77882891D01*
X129457459Y-78025748D01*
X129409840Y-78120986D01*
X129362221Y-78168605D01*
X129266983Y-78216224D01*
X128886031Y-78216224D01*
X130409840Y-78692414D02*
X129838412Y-78692414D01*
X130124126Y-78692414D02*
X130124126Y-77692414D01*
X130028888Y-77835272D01*
X129933650Y-77930510D01*
X129838412Y-77978129D01*
X131362221Y-78692414D02*
X130790793Y-78692414D01*
X131076507Y-78692414D02*
X131076507Y-77692414D01*
X130981269Y-77835272D01*
X130886031Y-77930510D01*
X130790793Y-77978129D01*
%TO.C,R15*%
X74266459Y-108652414D02*
X73933126Y-108176224D01*
X73695031Y-108652414D02*
X73695031Y-107652414D01*
X74075983Y-107652414D01*
X74171221Y-107700034D01*
X74218840Y-107747653D01*
X74266459Y-107842891D01*
X74266459Y-107985748D01*
X74218840Y-108080986D01*
X74171221Y-108128605D01*
X74075983Y-108176224D01*
X73695031Y-108176224D01*
X75218840Y-108652414D02*
X74647412Y-108652414D01*
X74933126Y-108652414D02*
X74933126Y-107652414D01*
X74837888Y-107795272D01*
X74742650Y-107890510D01*
X74647412Y-107938129D01*
X76123602Y-107652414D02*
X75647412Y-107652414D01*
X75599793Y-108128605D01*
X75647412Y-108080986D01*
X75742650Y-108033367D01*
X75980745Y-108033367D01*
X76075983Y-108080986D01*
X76123602Y-108128605D01*
X76171221Y-108223843D01*
X76171221Y-108461938D01*
X76123602Y-108557176D01*
X76075983Y-108604795D01*
X75980745Y-108652414D01*
X75742650Y-108652414D01*
X75647412Y-108604795D01*
X75599793Y-108557176D01*
%TO.C,J49*%
X98779793Y-78052414D02*
X98779793Y-78766700D01*
X98732174Y-78909557D01*
X98636936Y-79004795D01*
X98494078Y-79052414D01*
X98398840Y-79052414D01*
X99684555Y-78385748D02*
X99684555Y-79052414D01*
X99446459Y-78004795D02*
X99208364Y-78719081D01*
X99827412Y-78719081D01*
X100255983Y-79052414D02*
X100446459Y-79052414D01*
X100541697Y-79004795D01*
X100589317Y-78957176D01*
X100684555Y-78814319D01*
X100732174Y-78623843D01*
X100732174Y-78242891D01*
X100684555Y-78147653D01*
X100636936Y-78100034D01*
X100541697Y-78052414D01*
X100351221Y-78052414D01*
X100255983Y-78100034D01*
X100208364Y-78147653D01*
X100160745Y-78242891D01*
X100160745Y-78480986D01*
X100208364Y-78576224D01*
X100255983Y-78623843D01*
X100351221Y-78671462D01*
X100541697Y-78671462D01*
X100636936Y-78623843D01*
X100684555Y-78576224D01*
X100732174Y-78480986D01*
%TO.C,D3*%
X176161697Y-77338129D02*
X175161697Y-77338129D01*
X175161697Y-77100034D01*
X175209317Y-76957176D01*
X175304555Y-76861938D01*
X175399793Y-76814319D01*
X175590269Y-76766700D01*
X175733126Y-76766700D01*
X175923602Y-76814319D01*
X176018840Y-76861938D01*
X176114078Y-76957176D01*
X176161697Y-77100034D01*
X176161697Y-77338129D01*
X175161697Y-76433367D02*
X175161697Y-75814319D01*
X175542650Y-76147653D01*
X175542650Y-76004795D01*
X175590269Y-75909557D01*
X175637888Y-75861938D01*
X175733126Y-75814319D01*
X175971221Y-75814319D01*
X176066459Y-75861938D01*
X176114078Y-75909557D01*
X176161697Y-76004795D01*
X176161697Y-76290510D01*
X176114078Y-76385748D01*
X176066459Y-76433367D01*
%TO.C,H6*%
X191457412Y-63242414D02*
X191457412Y-62242414D01*
X191457412Y-62718605D02*
X192028840Y-62718605D01*
X192028840Y-63242414D02*
X192028840Y-62242414D01*
X192933602Y-62242414D02*
X192743126Y-62242414D01*
X192647888Y-62290034D01*
X192600269Y-62337653D01*
X192505031Y-62480510D01*
X192457412Y-62670986D01*
X192457412Y-63051938D01*
X192505031Y-63147176D01*
X192552650Y-63194795D01*
X192647888Y-63242414D01*
X192838364Y-63242414D01*
X192933602Y-63194795D01*
X192981221Y-63147176D01*
X193028840Y-63051938D01*
X193028840Y-62813843D01*
X192981221Y-62718605D01*
X192933602Y-62670986D01*
X192838364Y-62623367D01*
X192647888Y-62623367D01*
X192552650Y-62670986D01*
X192505031Y-62718605D01*
X192457412Y-62813843D01*
%TO.C,C28*%
X73766459Y-102077176D02*
X73718840Y-102124795D01*
X73575983Y-102172414D01*
X73480745Y-102172414D01*
X73337888Y-102124795D01*
X73242650Y-102029557D01*
X73195031Y-101934319D01*
X73147412Y-101743843D01*
X73147412Y-101600986D01*
X73195031Y-101410510D01*
X73242650Y-101315272D01*
X73337888Y-101220034D01*
X73480745Y-101172414D01*
X73575983Y-101172414D01*
X73718840Y-101220034D01*
X73766459Y-101267653D01*
X74147412Y-101267653D02*
X74195031Y-101220034D01*
X74290269Y-101172414D01*
X74528364Y-101172414D01*
X74623602Y-101220034D01*
X74671221Y-101267653D01*
X74718840Y-101362891D01*
X74718840Y-101458129D01*
X74671221Y-101600986D01*
X74099793Y-102172414D01*
X74718840Y-102172414D01*
X75290269Y-101600986D02*
X75195031Y-101553367D01*
X75147412Y-101505748D01*
X75099793Y-101410510D01*
X75099793Y-101362891D01*
X75147412Y-101267653D01*
X75195031Y-101220034D01*
X75290269Y-101172414D01*
X75480745Y-101172414D01*
X75575983Y-101220034D01*
X75623602Y-101267653D01*
X75671221Y-101362891D01*
X75671221Y-101410510D01*
X75623602Y-101505748D01*
X75575983Y-101553367D01*
X75480745Y-101600986D01*
X75290269Y-101600986D01*
X75195031Y-101648605D01*
X75147412Y-101696224D01*
X75099793Y-101791462D01*
X75099793Y-101981938D01*
X75147412Y-102077176D01*
X75195031Y-102124795D01*
X75290269Y-102172414D01*
X75480745Y-102172414D01*
X75575983Y-102124795D01*
X75623602Y-102077176D01*
X75671221Y-101981938D01*
X75671221Y-101791462D01*
X75623602Y-101696224D01*
X75575983Y-101648605D01*
X75480745Y-101600986D01*
%TO.C,R9*%
X114161697Y-77966700D02*
X113685507Y-78300034D01*
X114161697Y-78538129D02*
X113161697Y-78538129D01*
X113161697Y-78157176D01*
X113209317Y-78061938D01*
X113256936Y-78014319D01*
X113352174Y-77966700D01*
X113495031Y-77966700D01*
X113590269Y-78014319D01*
X113637888Y-78061938D01*
X113685507Y-78157176D01*
X113685507Y-78538129D01*
X114161697Y-77490510D02*
X114161697Y-77300034D01*
X114114078Y-77204795D01*
X114066459Y-77157176D01*
X113923602Y-77061938D01*
X113733126Y-77014319D01*
X113352174Y-77014319D01*
X113256936Y-77061938D01*
X113209317Y-77109557D01*
X113161697Y-77204795D01*
X113161697Y-77395272D01*
X113209317Y-77490510D01*
X113256936Y-77538129D01*
X113352174Y-77585748D01*
X113590269Y-77585748D01*
X113685507Y-77538129D01*
X113733126Y-77490510D01*
X113780745Y-77395272D01*
X113780745Y-77204795D01*
X113733126Y-77109557D01*
X113685507Y-77061938D01*
X113590269Y-77014319D01*
D13*
%TO.C,U40*%
X119511195Y-103727414D02*
X120539291Y-103727414D01*
X120660243Y-103666938D01*
X120720719Y-103606462D01*
X120781195Y-103485510D01*
X120781195Y-103243605D01*
X120720719Y-103122653D01*
X120660243Y-103062176D01*
X120539291Y-103001700D01*
X119511195Y-103001700D01*
X119934529Y-101852653D02*
X120781195Y-101852653D01*
X119450719Y-102155034D02*
X120357862Y-102457414D01*
X120357862Y-101671224D01*
X119511195Y-100945510D02*
X119511195Y-100824557D01*
X119571672Y-100703605D01*
X119632148Y-100643129D01*
X119753100Y-100582653D01*
X119995005Y-100522176D01*
X120297386Y-100522176D01*
X120539291Y-100582653D01*
X120660243Y-100643129D01*
X120720719Y-100703605D01*
X120781195Y-100824557D01*
X120781195Y-100945510D01*
X120720719Y-101066462D01*
X120660243Y-101126938D01*
X120539291Y-101187414D01*
X120297386Y-101247891D01*
X119995005Y-101247891D01*
X119753100Y-101187414D01*
X119632148Y-101126938D01*
X119571672Y-101066462D01*
X119511195Y-100945510D01*
D11*
%TO.C,R12*%
X68561697Y-79242891D02*
X68085507Y-79576224D01*
X68561697Y-79814319D02*
X67561697Y-79814319D01*
X67561697Y-79433367D01*
X67609317Y-79338129D01*
X67656936Y-79290510D01*
X67752174Y-79242891D01*
X67895031Y-79242891D01*
X67990269Y-79290510D01*
X68037888Y-79338129D01*
X68085507Y-79433367D01*
X68085507Y-79814319D01*
X68561697Y-78290510D02*
X68561697Y-78861938D01*
X68561697Y-78576224D02*
X67561697Y-78576224D01*
X67704555Y-78671462D01*
X67799793Y-78766700D01*
X67847412Y-78861938D01*
X67656936Y-77909557D02*
X67609317Y-77861938D01*
X67561697Y-77766700D01*
X67561697Y-77528605D01*
X67609317Y-77433367D01*
X67656936Y-77385748D01*
X67752174Y-77338129D01*
X67847412Y-77338129D01*
X67990269Y-77385748D01*
X68561697Y-77957176D01*
X68561697Y-77338129D01*
%TO.C,C19*%
X125377459Y-80102891D02*
X125425078Y-80150510D01*
X125472697Y-80293367D01*
X125472697Y-80388605D01*
X125425078Y-80531462D01*
X125329840Y-80626700D01*
X125234602Y-80674319D01*
X125044126Y-80721938D01*
X124901269Y-80721938D01*
X124710793Y-80674319D01*
X124615555Y-80626700D01*
X124520317Y-80531462D01*
X124472697Y-80388605D01*
X124472697Y-80293367D01*
X124520317Y-80150510D01*
X124567936Y-80102891D01*
X125472697Y-79150510D02*
X125472697Y-79721938D01*
X125472697Y-79436224D02*
X124472697Y-79436224D01*
X124615555Y-79531462D01*
X124710793Y-79626700D01*
X124758412Y-79721938D01*
X125472697Y-78674319D02*
X125472697Y-78483843D01*
X125425078Y-78388605D01*
X125377459Y-78340986D01*
X125234602Y-78245748D01*
X125044126Y-78198129D01*
X124663174Y-78198129D01*
X124567936Y-78245748D01*
X124520317Y-78293367D01*
X124472697Y-78388605D01*
X124472697Y-78579081D01*
X124520317Y-78674319D01*
X124567936Y-78721938D01*
X124663174Y-78769557D01*
X124901269Y-78769557D01*
X124996507Y-78721938D01*
X125044126Y-78674319D01*
X125091745Y-78579081D01*
X125091745Y-78388605D01*
X125044126Y-78293367D01*
X124996507Y-78245748D01*
X124901269Y-78198129D01*
%TO.C,C16*%
X116166459Y-78442891D02*
X116214078Y-78490510D01*
X116261697Y-78633367D01*
X116261697Y-78728605D01*
X116214078Y-78871462D01*
X116118840Y-78966700D01*
X116023602Y-79014319D01*
X115833126Y-79061938D01*
X115690269Y-79061938D01*
X115499793Y-79014319D01*
X115404555Y-78966700D01*
X115309317Y-78871462D01*
X115261697Y-78728605D01*
X115261697Y-78633367D01*
X115309317Y-78490510D01*
X115356936Y-78442891D01*
X116261697Y-77490510D02*
X116261697Y-78061938D01*
X116261697Y-77776224D02*
X115261697Y-77776224D01*
X115404555Y-77871462D01*
X115499793Y-77966700D01*
X115547412Y-78061938D01*
X115261697Y-76633367D02*
X115261697Y-76823843D01*
X115309317Y-76919081D01*
X115356936Y-76966700D01*
X115499793Y-77061938D01*
X115690269Y-77109557D01*
X116071221Y-77109557D01*
X116166459Y-77061938D01*
X116214078Y-77014319D01*
X116261697Y-76919081D01*
X116261697Y-76728605D01*
X116214078Y-76633367D01*
X116166459Y-76585748D01*
X116071221Y-76538129D01*
X115833126Y-76538129D01*
X115737888Y-76585748D01*
X115690269Y-76633367D01*
X115642650Y-76728605D01*
X115642650Y-76919081D01*
X115690269Y-77014319D01*
X115737888Y-77061938D01*
X115833126Y-77109557D01*
%TO.C,J51*%
X97561697Y-63109557D02*
X98275983Y-63109557D01*
X98418840Y-63157176D01*
X98514078Y-63252414D01*
X98561697Y-63395272D01*
X98561697Y-63490510D01*
X97561697Y-62157176D02*
X97561697Y-62633367D01*
X98037888Y-62680986D01*
X97990269Y-62633367D01*
X97942650Y-62538129D01*
X97942650Y-62300034D01*
X97990269Y-62204795D01*
X98037888Y-62157176D01*
X98133126Y-62109557D01*
X98371221Y-62109557D01*
X98466459Y-62157176D01*
X98514078Y-62204795D01*
X98561697Y-62300034D01*
X98561697Y-62538129D01*
X98514078Y-62633367D01*
X98466459Y-62680986D01*
X98561697Y-61157176D02*
X98561697Y-61728605D01*
X98561697Y-61442891D02*
X97561697Y-61442891D01*
X97704555Y-61538129D01*
X97799793Y-61633367D01*
X97847412Y-61728605D01*
%TO.C,SW1*%
X160420983Y-77269795D02*
X160563840Y-77317414D01*
X160801936Y-77317414D01*
X160897174Y-77269795D01*
X160944793Y-77222176D01*
X160992412Y-77126938D01*
X160992412Y-77031700D01*
X160944793Y-76936462D01*
X160897174Y-76888843D01*
X160801936Y-76841224D01*
X160611459Y-76793605D01*
X160516221Y-76745986D01*
X160468602Y-76698367D01*
X160420983Y-76603129D01*
X160420983Y-76507891D01*
X160468602Y-76412653D01*
X160516221Y-76365034D01*
X160611459Y-76317414D01*
X160849555Y-76317414D01*
X160992412Y-76365034D01*
X161325745Y-76317414D02*
X161563840Y-77317414D01*
X161754317Y-76603129D01*
X161944793Y-77317414D01*
X162182888Y-76317414D01*
X163087650Y-77317414D02*
X162516221Y-77317414D01*
X162801936Y-77317414D02*
X162801936Y-76317414D01*
X162706697Y-76460272D01*
X162611459Y-76555510D01*
X162516221Y-76603129D01*
%TO.C,J41*%
X219301697Y-99009557D02*
X220015983Y-99009557D01*
X220158840Y-99057176D01*
X220254078Y-99152414D01*
X220301697Y-99295272D01*
X220301697Y-99390510D01*
X219635031Y-98104795D02*
X220301697Y-98104795D01*
X219254078Y-98342891D02*
X219968364Y-98580986D01*
X219968364Y-97961938D01*
X220301697Y-97057176D02*
X220301697Y-97628605D01*
X220301697Y-97342891D02*
X219301697Y-97342891D01*
X219444555Y-97438129D01*
X219539793Y-97533367D01*
X219587412Y-97628605D01*
D14*
%TO.C,D12*%
X81396817Y-92300034D02*
X81396817Y-94300034D01*
X81396817Y-94300034D02*
X85696817Y-94300034D01*
X85696817Y-92300034D02*
X81396817Y-92300034D01*
%TO.C,J7*%
X189949317Y-83250034D02*
X187349317Y-83250034D01*
X189949317Y-80590034D02*
X187349317Y-80590034D01*
X192549317Y-80590034D02*
X192549317Y-81920034D01*
X191219317Y-80590034D02*
X192549317Y-80590034D01*
X189949317Y-80590034D02*
X189949317Y-83250034D01*
X187349317Y-80590034D02*
X187349317Y-83250034D01*
%TO.C,C1*%
X72274317Y-90138782D02*
X72274317Y-90661286D01*
X73744317Y-90138782D02*
X73744317Y-90661286D01*
%TO.C,R10*%
X155152253Y-81410034D02*
X156606381Y-81410034D01*
X155152253Y-79590034D02*
X156606381Y-79590034D01*
%TO.C,C29*%
X84944317Y-90661286D02*
X84944317Y-90138782D01*
X83474317Y-90661286D02*
X83474317Y-90138782D01*
%TO.C,C25*%
X61743069Y-65766034D02*
X61220565Y-65766034D01*
X61743069Y-67236034D02*
X61220565Y-67236034D01*
%TO.C,C18*%
X130961569Y-81525034D02*
X130439065Y-81525034D01*
X130961569Y-82995034D02*
X130439065Y-82995034D01*
%TO.C,U2*%
X169049317Y-92904034D02*
X170379317Y-92904034D01*
X169049317Y-94234034D02*
X169049317Y-92904034D01*
X219969317Y-95564034D02*
X219969317Y-92904034D01*
X171649317Y-92904034D02*
X219969317Y-92904034D01*
X171649317Y-95564034D02*
X171649317Y-92904034D01*
X171649317Y-95564034D02*
X219969317Y-95564034D01*
D15*
%TO.C,IC2*%
X147204317Y-84675034D02*
X147204317Y-83725034D01*
D14*
%TO.C,C26*%
X76474317Y-90138782D02*
X76474317Y-90661286D01*
X77944317Y-90138782D02*
X77944317Y-90661286D01*
%TO.C,BT1*%
X108894462Y-56025736D02*
X108894462Y-63025736D01*
X191284462Y-60465736D02*
X188784462Y-60465736D01*
X186174462Y-76905736D02*
X108894462Y-76905736D01*
X103784462Y-60465736D02*
X106284462Y-60465736D01*
X186174462Y-69905736D02*
X186174462Y-76905736D01*
X186174462Y-56025736D02*
X108894462Y-56025736D01*
X108894462Y-76905736D02*
X108894462Y-69905736D01*
X108894462Y-63025736D02*
X104534462Y-63025736D01*
X186174462Y-63025736D02*
X186174462Y-56045736D01*
X105034462Y-61715736D02*
X105034462Y-59215736D01*
%TO.C,J48*%
X74259317Y-75000034D02*
X74259317Y-67320034D01*
X76919317Y-67320034D02*
X74259317Y-67320034D01*
X76919317Y-75000034D02*
X76919317Y-67320034D01*
X76919317Y-76270034D02*
X76919317Y-77600034D01*
X76919317Y-75000034D02*
X74259317Y-75000034D01*
X76919317Y-77600034D02*
X75589317Y-77600034D01*
%TO.C,J3*%
X157509317Y-88930034D02*
X157509317Y-90260034D01*
X154909317Y-91590034D02*
X147229317Y-91590034D01*
X147229317Y-88930034D02*
X147229317Y-91590034D01*
X156179317Y-88930034D02*
X157509317Y-88930034D01*
X154909317Y-88930034D02*
X147229317Y-88930034D01*
X154909317Y-88930034D02*
X154909317Y-91590034D01*
%TO.C,L1*%
X133480317Y-83795034D02*
G75*
G03*
X134090317Y-84405034I610000J0D01*
G01*
X134090317Y-77585034D02*
G75*
G03*
X133480317Y-78195034I0J-610000D01*
G01*
X139790317Y-84405034D02*
G75*
G03*
X140400317Y-83795034I0J610000D01*
G01*
X140400317Y-78245034D02*
G75*
G03*
X139740317Y-77585034I-660002J-2D01*
G01*
X133480317Y-79045034D02*
X133480317Y-78195034D01*
X140400317Y-82945034D02*
X140400317Y-83795034D01*
X134090317Y-77585034D02*
X139740317Y-77585034D01*
X133480317Y-83795034D02*
X133480317Y-82945034D01*
X140400317Y-78245034D02*
X140400317Y-79045034D01*
X139790317Y-84405034D02*
X134090317Y-84405034D01*
%TO.C,R4*%
X63154753Y-69711034D02*
X64608881Y-69711034D01*
X63154753Y-67891034D02*
X64608881Y-67891034D01*
D16*
%TO.C,SW6*%
X86659317Y-96820034D02*
X86659317Y-99180034D01*
X91459317Y-95450034D02*
X86959317Y-95450034D01*
X91459317Y-100550034D02*
X86959317Y-100550034D01*
X91759317Y-99180034D02*
X91759317Y-96820034D01*
D15*
X85059317Y-96125034D02*
G75*
G03*
X85059317Y-96125034I-100000J0D01*
G01*
D14*
%TO.C,D1*%
X176956150Y-77837534D02*
X176956150Y-80522534D01*
X178876150Y-77837534D02*
X176956150Y-77837534D01*
X178876150Y-80522534D02*
X178876150Y-77837534D01*
%TO.C,C15*%
X118714317Y-80238782D02*
X118714317Y-80761286D01*
X117244317Y-80238782D02*
X117244317Y-80761286D01*
%TO.C,J46*%
X57809317Y-84630034D02*
X56479317Y-84630034D01*
X59079317Y-84630034D02*
X71839317Y-84630034D01*
X71839317Y-84630034D02*
X71839317Y-81970034D01*
X56479317Y-84630034D02*
X56479317Y-83300034D01*
X59079317Y-81970034D02*
X71839317Y-81970034D01*
X59079317Y-84630034D02*
X59079317Y-81970034D01*
%TO.C,J47*%
X70509317Y-60970034D02*
X57749317Y-60970034D01*
X70509317Y-60970034D02*
X70509317Y-63630034D01*
X70509317Y-63630034D02*
X57749317Y-63630034D01*
X73109317Y-60970034D02*
X73109317Y-62300034D01*
X71779317Y-60970034D02*
X73109317Y-60970034D01*
X57749317Y-60970034D02*
X57749317Y-63630034D01*
%TO.C,J42*%
X140519317Y-115905034D02*
X140519317Y-98065034D01*
X143179317Y-98065034D02*
X140519317Y-98065034D01*
X143179317Y-115905034D02*
X143179317Y-98065034D01*
X143179317Y-117175034D02*
X143179317Y-118505034D01*
X143179317Y-118505034D02*
X141849317Y-118505034D01*
X143179317Y-115905034D02*
X140519317Y-115905034D01*
D17*
%TO.C,IC3*%
X91214317Y-70900034D02*
G75*
G03*
X91214317Y-70900034I-125000J0D01*
G01*
D14*
%TO.C,U45*%
X69179317Y-73920034D02*
X69629317Y-73920034D01*
X69629317Y-73920034D02*
X69629317Y-73470034D01*
X69629317Y-70700034D02*
X69629317Y-71150034D01*
X66409317Y-73920034D02*
X66409317Y-73470034D01*
X66859317Y-73920034D02*
X66409317Y-73920034D01*
X66859317Y-70700034D02*
X66409317Y-70700034D01*
X69179317Y-70700034D02*
X69629317Y-70700034D01*
%TO.C,J50*%
X83079317Y-84630034D02*
X83079317Y-81970034D01*
X83079317Y-81970034D02*
X95839317Y-81970034D01*
X80479317Y-84630034D02*
X80479317Y-83300034D01*
X83079317Y-84630034D02*
X95839317Y-84630034D01*
X95839317Y-84630034D02*
X95839317Y-81970034D01*
X81809317Y-84630034D02*
X80479317Y-84630034D01*
%TO.C,D2*%
X176660317Y-81207534D02*
X176660317Y-78522534D01*
X174740317Y-78522534D02*
X174740317Y-81207534D01*
X174740317Y-81207534D02*
X176660317Y-81207534D01*
%TO.C,C30*%
X87044317Y-90661286D02*
X87044317Y-90138782D01*
X85574317Y-90661286D02*
X85574317Y-90138782D01*
%TO.C,U3*%
X171649317Y-108144034D02*
X219969317Y-108144034D01*
X169049317Y-108144034D02*
X170379317Y-108144034D01*
X219969317Y-110804034D02*
X219969317Y-108144034D01*
X171649317Y-110804034D02*
X171649317Y-108144034D01*
X171649317Y-110804034D02*
X219969317Y-110804034D01*
X169049317Y-109474034D02*
X169049317Y-108144034D01*
%TO.C,C32*%
X88100569Y-68635034D02*
X87578065Y-68635034D01*
X88100569Y-70105034D02*
X87578065Y-70105034D01*
%TO.C,C24*%
X62774317Y-74238782D02*
X62774317Y-74761286D01*
X64244317Y-74238782D02*
X64244317Y-74761286D01*
%TO.C,J40*%
X134439317Y-90749332D02*
X134439317Y-108589332D01*
X134439317Y-108589332D02*
X137099317Y-108589332D01*
X134439317Y-89479332D02*
X134439317Y-88149332D01*
X134439317Y-90749332D02*
X137099317Y-90749332D01*
X134439317Y-88149332D02*
X135769317Y-88149332D01*
X137099317Y-90749332D02*
X137099317Y-108589332D01*
%TO.C,C2*%
X75844317Y-90138782D02*
X75844317Y-90661286D01*
X74374317Y-90138782D02*
X74374317Y-90661286D01*
%TO.C,D4*%
X170308651Y-78522534D02*
X170308651Y-81207534D01*
X172228651Y-81207534D02*
X172228651Y-78522534D01*
X170308651Y-81207534D02*
X172228651Y-81207534D01*
%TO.C,J38*%
D18*
X72111566Y-106550034D02*
G75*
G03*
X72111566Y-106550034I-150000J0D01*
G01*
D14*
%TO.C,J34*%
X107729317Y-75570034D02*
X107729317Y-83250034D01*
X105069317Y-75570034D02*
X105069317Y-83250034D01*
X105069317Y-83250034D02*
X107729317Y-83250034D01*
X105069317Y-75570034D02*
X107729317Y-75570034D01*
X105069317Y-72970034D02*
X106399317Y-72970034D01*
X105069317Y-74300034D02*
X105069317Y-72970034D01*
%TO.C,R14*%
X79573881Y-92390034D02*
X78119753Y-92390034D01*
X79573881Y-94210034D02*
X78119753Y-94210034D01*
%TO.C,R11*%
X129373253Y-80970034D02*
X130827381Y-80970034D01*
X129373253Y-79150034D02*
X130827381Y-79150034D01*
%TO.C,R15*%
X74282253Y-105190034D02*
X75736381Y-105190034D01*
X74282253Y-107010034D02*
X75736381Y-107010034D01*
%TO.C,J49*%
X100919317Y-75000034D02*
X98259317Y-75000034D01*
X100919317Y-67320034D02*
X98259317Y-67320034D01*
X100919317Y-75000034D02*
X100919317Y-67320034D01*
X98259317Y-75000034D02*
X98259317Y-67320034D01*
X100919317Y-76270034D02*
X100919317Y-77600034D01*
X100919317Y-77600034D02*
X99589317Y-77600034D01*
%TO.C,D3*%
X174444484Y-77837534D02*
X172524484Y-77837534D01*
X174444484Y-80522534D02*
X174444484Y-77837534D01*
X172524484Y-77837534D02*
X172524484Y-80522534D01*
%TO.C,C28*%
X74148065Y-104135034D02*
X74670569Y-104135034D01*
X74148065Y-102665034D02*
X74670569Y-102665034D01*
%TO.C,C31*%
X89144317Y-90661286D02*
X89144317Y-90138782D01*
X87674317Y-90661286D02*
X87674317Y-90138782D01*
%TO.C,R9*%
X114489317Y-81727098D02*
X114489317Y-80272970D01*
X112669317Y-81727098D02*
X112669317Y-80272970D01*
D19*
%TO.C,U40*%
X116281672Y-91205034D02*
X116281672Y-92655034D01*
X121056672Y-113105034D02*
X116281672Y-113105034D01*
X123831672Y-99155034D02*
X123831672Y-100155034D01*
X116281672Y-98655034D02*
X116281672Y-100155034D01*
X124855672Y-92955034D02*
X124855672Y-92955034D01*
X121056672Y-91205034D02*
X116281672Y-91205034D01*
X116281672Y-113105034D02*
X116281672Y-111655034D01*
X124855672Y-92855034D02*
X124855672Y-92855034D01*
X124855672Y-92955034D02*
G75*
G03*
X124856672Y-92855034I500J50000D01*
G01*
X124855672Y-92855034D02*
G75*
G03*
X124856672Y-92955034I500J-50000D01*
G01*
D14*
%TO.C,R12*%
X65309317Y-77637098D02*
X65309317Y-76182970D01*
X67129317Y-77637098D02*
X67129317Y-76182970D01*
%TO.C,C19*%
X127435317Y-79721286D02*
X127435317Y-79198782D01*
X125965317Y-79721286D02*
X125965317Y-79198782D01*
%TO.C,C16*%
X116614317Y-81811286D02*
X116614317Y-81288782D01*
X115144317Y-81811286D02*
X115144317Y-81288782D01*
%TO.C,J39*%
X59779317Y-118730034D02*
X108099317Y-118730034D01*
X108099317Y-118730034D02*
X108099317Y-116070034D01*
X58509317Y-118730034D02*
X57179317Y-118730034D01*
X59779317Y-116070034D02*
X108099317Y-116070034D01*
X57179317Y-118730034D02*
X57179317Y-117400034D01*
X59779317Y-118730034D02*
X59779317Y-116070034D01*
%TO.C,J51*%
X94509317Y-60970034D02*
X94509317Y-63630034D01*
X81749317Y-60970034D02*
X81749317Y-63630034D01*
X95779317Y-60970034D02*
X97109317Y-60970034D01*
X94509317Y-60970034D02*
X81749317Y-60970034D01*
X97109317Y-60970034D02*
X97109317Y-62300034D01*
X94509317Y-63630034D02*
X81749317Y-63630034D01*
D15*
%TO.C,SW1*%
X158429317Y-78625034D02*
G75*
G03*
X158429317Y-78625034I-100000J0D01*
G01*
D16*
X160029317Y-79320034D02*
X160029317Y-81680034D01*
X164829317Y-83050034D02*
X160329317Y-83050034D01*
X164829317Y-77950034D02*
X160329317Y-77950034D01*
X165129317Y-81680034D02*
X165129317Y-79320034D01*
D14*
%TO.C,U19*%
X81009317Y-91960034D02*
X81809317Y-91960034D01*
X81009317Y-91960034D02*
X80209317Y-91960034D01*
X81009317Y-88840034D02*
X81809317Y-88840034D01*
X81009317Y-88840034D02*
X79209317Y-88840034D01*
%TO.C,J41*%
X217839317Y-90530034D02*
X169519317Y-90530034D01*
X219109317Y-87870034D02*
X220439317Y-87870034D01*
X220439317Y-87870034D02*
X220439317Y-89200034D01*
X169519317Y-87870034D02*
X169519317Y-90530034D01*
X217839317Y-87870034D02*
X217839317Y-90530034D01*
X217839317Y-87870034D02*
X169519317Y-87870034D01*
%TD*%
%LPC*%
D20*
X136529317Y-83100034D02*
X137529317Y-83100034D01*
X137529317Y-83100034D02*
X137529317Y-79100034D01*
X137529317Y-79100034D02*
X136529317Y-79100034D01*
X136529317Y-79100034D02*
X136529317Y-83100034D01*
G36*
X136529317Y-83100034D02*
G01*
X137529317Y-83100034D01*
X137529317Y-79100034D01*
X136529317Y-79100034D01*
X136529317Y-83100034D01*
G37*
D21*
%TO.C,D12*%
X82196817Y-93300034D03*
X85696817Y-93300034D03*
%TD*%
D22*
%TO.C,H10*%
X218109317Y-115700034D03*
%TD*%
D23*
%TO.C,J7*%
X188679317Y-81920034D03*
D24*
X191219317Y-81920034D03*
%TD*%
D25*
%TO.C,C1*%
X73009317Y-89450034D03*
X73009317Y-91350034D03*
%TD*%
D26*
%TO.C,R10*%
X157341817Y-80500034D03*
X154416817Y-80500034D03*
%TD*%
D27*
%TO.C,C29*%
X84209317Y-91350034D03*
X84209317Y-89450034D03*
%TD*%
D28*
%TO.C,C25*%
X60531817Y-66501034D03*
X62431817Y-66501034D03*
%TD*%
%TO.C,C18*%
X129750317Y-82260034D03*
X131650317Y-82260034D03*
%TD*%
D29*
%TO.C,U53*%
X87809317Y-87550004D03*
X88559317Y-85050004D03*
X89309317Y-87550004D03*
X90059317Y-85050004D03*
X87809317Y-85050004D03*
X88559317Y-87550004D03*
X89309317Y-85050004D03*
X90059317Y-87550004D03*
%TD*%
D23*
%TO.C,U2*%
X218639317Y-94234034D03*
X216099317Y-94234034D03*
X213559317Y-94234034D03*
X211019317Y-94234034D03*
X208479317Y-94234034D03*
X205939317Y-94234034D03*
X203399317Y-94234034D03*
X200859317Y-94234034D03*
X198319317Y-94234034D03*
X195779317Y-94234034D03*
X193239317Y-94234034D03*
X190699317Y-94234034D03*
X188159317Y-94234034D03*
X185619317Y-94234034D03*
X183079317Y-94234034D03*
X180539317Y-94234034D03*
X177999317Y-94234034D03*
X175459317Y-94234034D03*
X172919317Y-94234034D03*
D24*
X170379317Y-94234034D03*
%TD*%
D30*
%TO.C,IC2*%
X149809317Y-81225034D03*
D31*
X147904317Y-78250034D03*
X149174317Y-78250034D03*
X150444317Y-78250034D03*
X151714317Y-78250034D03*
X151714317Y-84200034D03*
X150444317Y-84200034D03*
X149174317Y-84200034D03*
X147904317Y-84200034D03*
%TD*%
D25*
%TO.C,C26*%
X77209317Y-89450034D03*
X77209317Y-91350034D03*
%TD*%
D32*
%TO.C,BT1*%
X186864462Y-66465736D03*
X108204462Y-66465736D03*
D33*
X111604462Y-58465736D03*
D34*
X119934462Y-74465736D03*
X175134462Y-58465736D03*
%TD*%
D23*
%TO.C,J48*%
X75589317Y-68650034D03*
X75589317Y-71190034D03*
X75589317Y-73730034D03*
D24*
X75589317Y-76270034D03*
%TD*%
D23*
%TO.C,J3*%
X148559317Y-90260034D03*
X151099317Y-90260034D03*
X153639317Y-90260034D03*
D24*
X156179317Y-90260034D03*
%TD*%
D35*
%TO.C,L1*%
X134115317Y-80985034D03*
X139715317Y-80985034D03*
%TD*%
D26*
%TO.C,R4*%
X65344317Y-68801034D03*
X62419317Y-68801034D03*
%TD*%
D36*
%TO.C,SW6*%
X86209317Y-96125034D03*
X86209317Y-99875034D03*
X92209317Y-96125034D03*
X92209317Y-99875034D03*
%TD*%
D37*
%TO.C,D1*%
X177916150Y-80460034D03*
X177916150Y-78585034D03*
%TD*%
D29*
%TO.C,U50*%
X129059317Y-87550034D03*
X128309317Y-87550034D03*
X127559317Y-85050034D03*
X127559317Y-87550034D03*
X126809317Y-87550034D03*
X129059317Y-85050034D03*
X128309317Y-85050034D03*
X126809317Y-85050034D03*
%TD*%
D25*
%TO.C,C15*%
X117979317Y-81450034D03*
X117979317Y-79550034D03*
%TD*%
D38*
%TO.C,H4*%
X98556672Y-98155034D03*
%TD*%
D29*
%TO.C,U56*%
X80059317Y-73300034D03*
X77559317Y-71800034D03*
X77559317Y-71050034D03*
X77559317Y-72550034D03*
X80059317Y-71800034D03*
X80059317Y-72550034D03*
X77559317Y-73300034D03*
X80059317Y-71050034D03*
%TD*%
%TO.C,U65*%
X140059317Y-107050068D03*
X137559317Y-107050068D03*
X140059317Y-108550068D03*
X140059317Y-109300068D03*
X137559317Y-108550068D03*
X137559317Y-109300068D03*
X140059317Y-107800068D03*
X137559317Y-107800068D03*
%TD*%
%TO.C,U49*%
X158639304Y-87550034D03*
X160139304Y-87550034D03*
X157889304Y-85050034D03*
X159389304Y-85050034D03*
X157889304Y-87550034D03*
X159389304Y-87550034D03*
X160139304Y-85050034D03*
X158639304Y-85050034D03*
%TD*%
D23*
%TO.C,J46*%
X70509317Y-83300034D03*
X67969317Y-83300034D03*
X65429317Y-83300034D03*
X62889317Y-83300034D03*
X60349317Y-83300034D03*
D24*
X57809317Y-83300034D03*
%TD*%
D23*
%TO.C,J47*%
X59079317Y-62300034D03*
X61619317Y-62300034D03*
X64159317Y-62300034D03*
X66699317Y-62300034D03*
X69239317Y-62300034D03*
D24*
X71779317Y-62300034D03*
%TD*%
D23*
%TO.C,J42*%
X141849317Y-99395034D03*
X141849317Y-101935034D03*
X141849317Y-104475034D03*
X141849317Y-107015034D03*
X141849317Y-109555034D03*
X141849317Y-112095034D03*
X141849317Y-114635034D03*
D24*
X141849317Y-117175034D03*
%TD*%
D39*
%TO.C,IC3*%
X89589317Y-72800034D03*
D40*
X91089317Y-72050034D03*
X91089317Y-72550034D03*
X91089317Y-73050034D03*
X91089317Y-73550034D03*
D41*
X90339317Y-74300034D03*
X89839317Y-74300034D03*
X89339317Y-74300034D03*
X88839317Y-74300034D03*
D40*
X88089317Y-73550034D03*
X88089317Y-73050034D03*
X88089317Y-72550034D03*
X88089317Y-72050034D03*
D41*
X88839317Y-71300034D03*
X89339317Y-71300034D03*
X89839317Y-71300034D03*
X90339317Y-71300034D03*
%TD*%
D42*
%TO.C,U45*%
X67219317Y-70922534D03*
D43*
X67619317Y-70922534D03*
X68019317Y-70922534D03*
X68419317Y-70922534D03*
D44*
X68819317Y-70922534D03*
D45*
X69406817Y-71510034D03*
D46*
X69406817Y-71910034D03*
X69406817Y-72310034D03*
X69406817Y-72710034D03*
D47*
X69406817Y-73110034D03*
D48*
X68819317Y-73697534D03*
D43*
X68419317Y-73697534D03*
X68019317Y-73697534D03*
X67619317Y-73697534D03*
D49*
X67219317Y-73697534D03*
D50*
X66631817Y-73110034D03*
D46*
X66631817Y-72710034D03*
X66631817Y-72310034D03*
X66631817Y-71910034D03*
D51*
X66631817Y-71510034D03*
%TD*%
D23*
%TO.C,J50*%
X94509317Y-83300034D03*
X91969317Y-83300034D03*
X89429317Y-83300034D03*
X86889317Y-83300034D03*
X84349317Y-83300034D03*
D24*
X81809317Y-83300034D03*
%TD*%
D52*
%TO.C,D2*%
X175700317Y-78585034D03*
X175700317Y-80460034D03*
%TD*%
D27*
%TO.C,C30*%
X86309317Y-91350034D03*
X86309317Y-89450034D03*
%TD*%
D22*
%TO.C,H11*%
X58809317Y-72800034D03*
%TD*%
D23*
%TO.C,U3*%
X218639317Y-109474034D03*
X216099317Y-109474034D03*
X213559317Y-109474034D03*
X211019317Y-109474034D03*
X208479317Y-109474034D03*
X205939317Y-109474034D03*
X203399317Y-109474034D03*
X200859317Y-109474034D03*
X198319317Y-109474034D03*
X195779317Y-109474034D03*
X193239317Y-109474034D03*
X190699317Y-109474034D03*
X188159317Y-109474034D03*
X185619317Y-109474034D03*
X183079317Y-109474034D03*
X180539317Y-109474034D03*
X177999317Y-109474034D03*
X175459317Y-109474034D03*
X172919317Y-109474034D03*
D24*
X170379317Y-109474034D03*
%TD*%
D28*
%TO.C,C32*%
X86889317Y-69370034D03*
X88789317Y-69370034D03*
%TD*%
D25*
%TO.C,C24*%
X63509317Y-75450034D03*
X63509317Y-73550034D03*
%TD*%
D24*
%TO.C,J40*%
X135769317Y-89479332D03*
D23*
X135769317Y-92019332D03*
X135769317Y-94559332D03*
X135769317Y-97099332D03*
X135769317Y-99639332D03*
X135769317Y-102179332D03*
X135769317Y-104719332D03*
X135769317Y-107259332D03*
%TD*%
D22*
%TO.C,H12*%
X82809317Y-72800034D03*
%TD*%
D25*
%TO.C,C2*%
X75109317Y-89450034D03*
X75109317Y-91350034D03*
%TD*%
D52*
%TO.C,D4*%
X171268651Y-78585034D03*
X171268651Y-80460034D03*
%TD*%
D22*
%TO.C,H9*%
X59509317Y-90900034D03*
%TD*%
D53*
%TO.C,J38*%
X69761566Y-111150034D03*
D54*
X60161566Y-112050034D03*
X60161566Y-96550034D03*
D55*
X69761566Y-96550034D03*
D56*
X70761566Y-97750034D03*
X70761566Y-98850034D03*
X70761566Y-99950034D03*
X70761566Y-101050034D03*
X70761566Y-102150034D03*
X70761566Y-103250034D03*
X70761566Y-104350034D03*
X70761566Y-105450034D03*
X70761566Y-106550034D03*
D57*
X59761566Y-99350034D03*
X59761566Y-107350034D03*
%TD*%
D23*
%TO.C,J34*%
X106399317Y-81920034D03*
X106399317Y-79380034D03*
X106399317Y-76840034D03*
D24*
X106399317Y-74300034D03*
%TD*%
D58*
%TO.C,R14*%
X80309317Y-93300034D03*
X77384317Y-93300034D03*
%TD*%
D26*
%TO.C,R11*%
X131562817Y-80060034D03*
X128637817Y-80060034D03*
%TD*%
%TO.C,R15*%
X73546817Y-106100034D03*
X76471817Y-106100034D03*
%TD*%
D23*
%TO.C,J49*%
X99589317Y-68650034D03*
X99589317Y-71190034D03*
X99589317Y-73730034D03*
D24*
X99589317Y-76270034D03*
%TD*%
D29*
%TO.C,U52*%
X187309317Y-85050034D03*
X188059317Y-85050034D03*
X188809317Y-85050034D03*
X188059317Y-87550034D03*
X187309317Y-87550034D03*
X188809317Y-87550034D03*
X186559317Y-85050034D03*
X186559317Y-87550034D03*
%TD*%
%TO.C,U60*%
X104059317Y-73300034D03*
X101559317Y-71800034D03*
X101559317Y-73300034D03*
X104059317Y-71800034D03*
X101559317Y-72550034D03*
X104059317Y-72550034D03*
X101559317Y-71050034D03*
X104059317Y-71050034D03*
%TD*%
%TO.C,U55*%
X64309317Y-87550034D03*
X63559317Y-87550034D03*
X63559317Y-85050034D03*
X65059317Y-85050034D03*
X62809317Y-87550034D03*
X62809317Y-85050034D03*
X65059317Y-87550034D03*
X64309317Y-85050034D03*
%TD*%
D37*
%TO.C,D3*%
X173484484Y-80460034D03*
X173484484Y-78585034D03*
%TD*%
D22*
%TO.C,H6*%
X190219317Y-58790034D03*
%TD*%
D59*
%TO.C,C28*%
X73459317Y-103400034D03*
X75359317Y-103400034D03*
%TD*%
D27*
%TO.C,C31*%
X88409317Y-91350034D03*
X88409317Y-89450034D03*
%TD*%
D60*
%TO.C,R9*%
X113579317Y-79537534D03*
X113579317Y-82462534D03*
%TD*%
D61*
%TO.C,U40*%
X118556672Y-112155034D03*
D62*
X118556672Y-92155034D03*
D63*
X123831672Y-92905034D03*
X116281672Y-93155034D03*
X123831672Y-93405034D03*
X116281672Y-93655034D03*
X123831672Y-93905034D03*
X116281672Y-94155034D03*
X123831672Y-94405034D03*
X116281672Y-94655034D03*
X123831672Y-94905034D03*
X116281672Y-95155034D03*
X123831672Y-95405034D03*
X116281672Y-95655034D03*
X123831672Y-95905034D03*
X116281672Y-96155034D03*
X123831672Y-96405034D03*
X116281672Y-96655034D03*
X123831672Y-96905034D03*
X116281672Y-97155034D03*
X123831672Y-97405034D03*
X116281672Y-97655034D03*
X123831672Y-97905034D03*
X116281672Y-98155034D03*
X123831672Y-98405034D03*
X116281672Y-100655034D03*
X123831672Y-100905034D03*
X116281672Y-101155034D03*
X123831672Y-101405034D03*
X116281672Y-101655034D03*
X123831672Y-101905034D03*
X116281672Y-102155034D03*
X123831672Y-102405034D03*
X116281672Y-102655034D03*
X123831672Y-102905034D03*
X116281672Y-103155034D03*
X123831672Y-103405034D03*
X116281672Y-103655034D03*
X123831672Y-103905034D03*
X116281672Y-104155034D03*
X123831672Y-104405034D03*
X116281672Y-104655034D03*
X123831672Y-104905034D03*
X116281672Y-105155034D03*
X123831672Y-105405034D03*
X116281672Y-105655034D03*
X123831672Y-105905034D03*
X116281672Y-106155034D03*
X123831672Y-106405034D03*
X116281672Y-106655034D03*
X123831672Y-106905034D03*
X116281672Y-107155034D03*
X123831672Y-107405034D03*
X116281672Y-107655034D03*
X123831672Y-107905034D03*
X116281672Y-108155034D03*
X123831672Y-108405034D03*
X116281672Y-108655034D03*
X123831672Y-108905034D03*
X116281672Y-109155034D03*
X123831672Y-109405034D03*
X116281672Y-109655034D03*
X123831672Y-109905034D03*
X116281672Y-110155034D03*
X123831672Y-110405034D03*
X116281672Y-110655034D03*
X123831672Y-110905034D03*
X116281672Y-111155034D03*
X123831672Y-111405034D03*
D64*
X123056672Y-91805034D03*
X123056672Y-112505034D03*
%TD*%
D60*
%TO.C,R12*%
X66219317Y-75447534D03*
X66219317Y-78372534D03*
%TD*%
D27*
%TO.C,C19*%
X126700317Y-78510034D03*
X126700317Y-80410034D03*
%TD*%
%TO.C,C16*%
X115879317Y-80600034D03*
X115879317Y-82500034D03*
%TD*%
D24*
%TO.C,J39*%
X58509317Y-117400034D03*
D23*
X61049317Y-117400034D03*
X63589317Y-117400034D03*
X66129317Y-117400034D03*
X68669317Y-117400034D03*
X71209317Y-117400034D03*
X73749317Y-117400034D03*
X76289317Y-117400034D03*
X78829317Y-117400034D03*
X81369317Y-117400034D03*
X83909317Y-117400034D03*
X86449317Y-117400034D03*
X88989317Y-117400034D03*
X91529317Y-117400034D03*
X94069317Y-117400034D03*
X96609317Y-117400034D03*
X99149317Y-117400034D03*
X101689317Y-117400034D03*
X104229317Y-117400034D03*
X106769317Y-117400034D03*
%TD*%
%TO.C,J51*%
X83079317Y-62300034D03*
X85619317Y-62300034D03*
X88159317Y-62300034D03*
X90699317Y-62300034D03*
X93239317Y-62300034D03*
D24*
X95779317Y-62300034D03*
%TD*%
D36*
%TO.C,SW1*%
X165579317Y-82375034D03*
X165579317Y-78625034D03*
X159579317Y-82375034D03*
X159579317Y-78625034D03*
%TD*%
D65*
%TO.C,U19*%
X79871817Y-89450034D03*
X79871817Y-90400034D03*
X79871817Y-91350034D03*
X82146817Y-91350034D03*
X82146817Y-89450034D03*
%TD*%
D23*
%TO.C,J41*%
X170849317Y-89200034D03*
X173389317Y-89200034D03*
X175929317Y-89200034D03*
X178469317Y-89200034D03*
X181009317Y-89200034D03*
X183549317Y-89200034D03*
X186089317Y-89200034D03*
X188629317Y-89200034D03*
X191169317Y-89200034D03*
X193709317Y-89200034D03*
X196249317Y-89200034D03*
X198789317Y-89200034D03*
X201329317Y-89200034D03*
X203869317Y-89200034D03*
X206409317Y-89200034D03*
X208949317Y-89200034D03*
X211489317Y-89200034D03*
X214029317Y-89200034D03*
X216569317Y-89200034D03*
D24*
X219109317Y-89200034D03*
%TD*%
D66*
X73709317Y-93200034D03*
X104109317Y-112700034D03*
X83309317Y-96800034D03*
X68309317Y-98700034D03*
X132609317Y-104900034D03*
X93809317Y-91300034D03*
X86309317Y-113800034D03*
X83809317Y-100200034D03*
X113509317Y-91900034D03*
X126809317Y-90800034D03*
X133509317Y-111000034D03*
X110109317Y-117300034D03*
X103509317Y-101000034D03*
X69109317Y-90100034D03*
X112409317Y-101300034D03*
X126909317Y-105400034D03*
X98309317Y-104900034D03*
X109209317Y-107600034D03*
X69609317Y-115100034D03*
X73809317Y-96600034D03*
X62209317Y-114700034D03*
X126609317Y-101700034D03*
X66809317Y-114400034D03*
X72309317Y-115000034D03*
X83009317Y-114600034D03*
X67709317Y-103100034D03*
X90409317Y-90000034D03*
X83909317Y-93300034D03*
X78309317Y-114200034D03*
X106109317Y-95600034D03*
X87909317Y-112000034D03*
X68509317Y-108200034D03*
X75209317Y-114800034D03*
X77409317Y-100500034D03*
X121409317Y-117400034D03*
X81409317Y-113700034D03*
X78009317Y-104500034D03*
X160479317Y-91674034D03*
X183079317Y-97574034D03*
X203379317Y-96774034D03*
X197279317Y-114174034D03*
X166479317Y-97374034D03*
X191679317Y-111974034D03*
X165079317Y-110274034D03*
X211579317Y-97374034D03*
X214179317Y-112474034D03*
X171679317Y-117074034D03*
X207279317Y-100774034D03*
X218379317Y-97374034D03*
X175579317Y-97574034D03*
X178579317Y-100574034D03*
X163879317Y-100774034D03*
X180579317Y-97374034D03*
X205479317Y-106974034D03*
X188179317Y-103874034D03*
X219479317Y-106474034D03*
X193579317Y-103674034D03*
X159879317Y-96574034D03*
X152479317Y-100674034D03*
X151579317Y-107274034D03*
X151679317Y-115274034D03*
X144979317Y-93874034D03*
X201179317Y-98074034D03*
X215479317Y-97374034D03*
X166079317Y-90374034D03*
X149879317Y-100774034D03*
X201779317Y-112474034D03*
X178279317Y-97274034D03*
X211779317Y-106874034D03*
X194279317Y-112374034D03*
X149979317Y-94574034D03*
X204879317Y-113674034D03*
X213779317Y-91474034D03*
X111452849Y-111500534D03*
X112381057Y-108471775D03*
X111127034Y-108698546D03*
X110009317Y-111000034D03*
X113291260Y-108884734D03*
X112351050Y-109958301D03*
X183579317Y-101974034D03*
X180979317Y-100374034D03*
X191980090Y-98474534D03*
X195079317Y-96174034D03*
X208979317Y-92423045D03*
X211479317Y-92023534D03*
X202884695Y-98779412D03*
X205979317Y-96674034D03*
X178079317Y-114774034D03*
X171879317Y-113974034D03*
X187579317Y-114474034D03*
X190279317Y-114274034D03*
X184479317Y-113573035D03*
X174479317Y-112574034D03*
X201379317Y-107274034D03*
X176679317Y-112174034D03*
X185679317Y-99874034D03*
X182010235Y-102752358D03*
X180479317Y-104374034D03*
X177479317Y-104774034D03*
X196209297Y-106574534D03*
X198979317Y-105074034D03*
X108909317Y-101200034D03*
X109209317Y-96100034D03*
X98834710Y-108931213D03*
X97939252Y-108487186D03*
X108209317Y-96900034D03*
X130909317Y-111200034D03*
X130909317Y-102000034D03*
X110209317Y-106000534D03*
X130109317Y-109800034D03*
X130109317Y-101100034D03*
X112609317Y-98600034D03*
X96809317Y-111945849D03*
X111209317Y-98400034D03*
X98409317Y-114600034D03*
X110709317Y-99500034D03*
X109900682Y-100212911D03*
X100209317Y-114800034D03*
X101609317Y-109600034D03*
X113009317Y-104299534D03*
X102197853Y-110407889D03*
X112118064Y-104751942D03*
X111209317Y-105300034D03*
X102909317Y-111200034D03*
X129409317Y-116100034D03*
X129409317Y-107900034D03*
X128709317Y-117200034D03*
X128709317Y-108691013D03*
X128009317Y-109700034D03*
X126609317Y-117500034D03*
X125609317Y-117100034D03*
X127309317Y-111000034D03*
X126609317Y-112400034D03*
X124850950Y-116400534D03*
X155309317Y-76300034D03*
X108809317Y-78300034D03*
X139809317Y-75800034D03*
X126309317Y-82800034D03*
X127809317Y-76300034D03*
X145309317Y-83300034D03*
X170309317Y-83800034D03*
X190309317Y-77300034D03*
X178809317Y-75300034D03*
X119809317Y-83300034D03*
X185309317Y-81300034D03*
X72009317Y-80200034D03*
X64509317Y-80300034D03*
X64509317Y-72200034D03*
X60809317Y-78300034D03*
X74309317Y-81800034D03*
X72809317Y-70000034D03*
X64209317Y-77600034D03*
X71709317Y-73600034D03*
X64381817Y-66801034D03*
X89509317Y-72800034D03*
X94109317Y-73000034D03*
X82809317Y-66800034D03*
X95209317Y-76200034D03*
X98809317Y-81800034D03*
X91079317Y-66574034D03*
X83309317Y-78300034D03*
X86709317Y-72100034D03*
X87309317Y-79800034D03*
X91009317Y-80700034D03*
X93381817Y-79101034D03*
X91381178Y-75501672D03*
X92481817Y-74301034D03*
X94381817Y-71201034D03*
X94381817Y-68601034D03*
X63309317Y-71500034D03*
X62209317Y-70400034D03*
X87709317Y-94700034D03*
X127909317Y-94800034D03*
M02*
