M48
; DRILL file {KiCad (6.0.5)} date Sat Aug 13 10:27:20 2022
; FORMAT={-:-/ absolute / inch / decimal}
; #@! TF.CreationDate,2022-08-13T10:27:20+02:00
; #@! TF.GenerationSoftware,Kicad,Pcbnew,(6.0.5)
; #@! TF.FileFunction,NonPlated,1,2,NPTH
FMAT,2
INCH
; #@! TA.AperFunction,NonPlated,NPTH,ComponentDrill
T1C0.0197
; #@! TA.AperFunction,NonPlated,NPTH,ComponentDrill
T2C0.0394
; #@! TA.AperFunction,NonPlated,NPTH,ComponentDrill
T3C0.0453
; #@! TA.AperFunction,NonPlated,NPTH,ComponentDrill
T4C0.0650
; #@! TA.AperFunction,NonPlated,NPTH,ComponentDrill
T5C0.0941
; #@! TA.AperFunction,NonPlated,NPTH,ComponentDrill
T6C0.1260
; #@! TA.AperFunction,NonPlated,NPTH,ComponentDrill
T7C0.1358
%
G90
G05
T1
X2.4728Y-3.3484
X2.4728Y-3.4469
X2.5023Y-3.3484
X2.5023Y-3.4469
X2.5319Y-3.3484
X2.5319Y-3.4469
X2.5614Y-3.3484
X2.5614Y-3.4469
X3.0535Y-2.7972
X3.0535Y-2.8268
X3.0535Y-2.8563
X3.0535Y-2.8858
X3.1519Y-2.7972
X3.1519Y-2.8268
X3.1519Y-2.8563
X3.1519Y-2.8858
X3.4571Y-3.3484
X3.4571Y-3.4469
X3.4866Y-3.3484
X3.4866Y-3.4469
X3.5161Y-3.3484
X3.5161Y-3.4469
X3.5456Y-3.3484
X3.5456Y-3.4469
X3.9984Y-2.7972
X3.9984Y-2.8268
X3.9984Y-2.8563
X3.9984Y-2.8858
X4.0968Y-2.7972
X4.0968Y-2.8268
X4.0968Y-2.8563
X4.0968Y-2.8858
X4.9925Y-3.3484
X4.9925Y-3.4469
X5.022Y-3.3484
X5.022Y-3.4469
X5.0515Y-3.3484
X5.0515Y-3.4469
X5.0811Y-3.3484
X5.0811Y-3.4469
X5.4157Y-4.2146
X5.4157Y-4.2441
X5.4157Y-4.2736
X5.4157Y-4.3032
X5.5141Y-4.2146
X5.5141Y-4.2441
X5.5141Y-4.2736
X5.5141Y-4.3032
X6.2161Y-3.3484
X6.2161Y-3.4469
X6.2456Y-3.3484
X6.2456Y-3.4469
X6.2752Y-3.3484
X6.2752Y-3.4469
X6.3047Y-3.3484
X6.3047Y-3.4469
X7.3449Y-3.3484
X7.3449Y-3.4469
X7.3744Y-3.3484
X7.3744Y-3.4469
X7.4039Y-3.3484
X7.4039Y-3.4469
X7.4334Y-3.3484
X7.4334Y-3.4469
T2
X2.3528Y-3.9114
X2.3528Y-4.2264
T3
X4.6676Y-3.6282
T4
X4.6676Y-4.4156
T5
X4.3939Y-2.3018
T6
X2.3153Y-2.8661
X2.3429Y-3.5787
X3.2602Y-2.8661
X7.4889Y-2.3146
X8.587Y-4.5551
T7
X4.7218Y-2.9317
X6.8951Y-2.3018
T0
M30
