M48
; DRILL file {KiCad (6.0.5)} date Sat Aug 13 10:27:20 2022
; FORMAT={-:-/ absolute / inch / decimal}
; #@! TF.CreationDate,2022-08-13T10:27:20+02:00
; #@! TF.GenerationSoftware,Kicad,Pcbnew,(6.0.5)
; #@! TF.FileFunction,Plated,1,2,PTH
FMAT,2
INCH
; #@! TA.AperFunction,Plated,PTH,ViaDrill
T1C0.0157
; #@! TA.AperFunction,Plated,PTH,ComponentDrill
T2C0.0394
; #@! TA.AperFunction,Plated,PTH,ComponentDrill
T3C0.1661
%
G90
G05
T1
X2.3941Y-3.0827
X2.4492Y-2.7717
X2.4492Y-4.5157
X2.4925Y-2.815
X2.5279Y-3.0551
X2.5347Y-2.63
X2.5397Y-2.8425
X2.5397Y-3.1614
X2.6303Y-4.5039
X2.6657Y-4.0591
X2.6893Y-3.8858
X2.6972Y-4.2598
X2.7208Y-3.5472
X2.7405Y-4.5315
X2.8232Y-2.8976
X2.835Y-3.1575
X2.8468Y-4.5276
X2.8665Y-2.7559
X2.9019Y-3.6693
X2.9059Y-3.8032
X2.9256Y-3.2205
X2.961Y-4.5197
X3.0476Y-3.9567
X3.0712Y-4.1142
X3.083Y-4.4961
X3.2051Y-4.4764
X3.2602Y-2.6299
X3.2681Y-4.5118
X3.2799Y-3.0827
X3.2799Y-3.811
X3.2996Y-3.9449
X3.3035Y-3.6732
X3.398Y-4.4803
X3.4138Y-2.8386
X3.4374Y-3.1417
X3.4531Y-3.7283
X3.461Y-4.4095
X3.524Y-2.8661
X3.5594Y-3.5433
X3.583Y-3.1772
X3.5858Y-2.621
X3.5977Y-2.9725
X3.641Y-2.9252
X3.6764Y-3.1142
X3.6933Y-3.5945
X3.7051Y-2.874
X3.7158Y-2.7008
X3.7158Y-2.8032
X3.7484Y-3.0
X3.8114Y-4.4073
X3.8559Y-4.2711
X3.8704Y-4.1299
X3.8744Y-4.5118
X3.8901Y-3.2205
X3.8911Y-4.2886
X3.9452Y-4.5197
X4.0004Y-4.315
X4.0235Y-4.3468
X4.0515Y-4.378
X4.0752Y-3.9764
X4.0988Y-4.437
X4.1775Y-3.7638
X4.2602Y-3.815
X4.2838Y-3.0827
X4.2878Y-3.9843
X4.2996Y-3.7835
X4.2996Y-4.2362
X4.3268Y-3.9454
X4.3311Y-4.3701
X4.335Y-4.6181
X4.3389Y-4.1732
X4.3586Y-3.9173
X4.3751Y-4.2795
X4.3783Y-3.874
X4.3783Y-4.1457
X4.3879Y-4.3898
X4.4141Y-4.1241
X4.4233Y-4.3291
X4.4245Y-4.2705
X4.4256Y-3.9882
X4.4334Y-3.8819
X4.4492Y-4.1063
X4.4603Y-4.2868
X4.4689Y-3.6181
X4.7169Y-3.2795
X4.7799Y-4.622
X4.9154Y-4.5827
X4.9452Y-4.6102
X4.9728Y-3.2598
X4.9846Y-4.0039
X4.9846Y-4.4252
X4.9846Y-4.626
X4.9925Y-3.5748
X4.9964Y-4.1496
X5.0122Y-4.3701
X5.0319Y-3.0039
X5.0358Y-3.7323
X5.0397Y-4.3189
X5.0673Y-4.2792
X5.0673Y-4.6142
X5.0949Y-4.248
X5.0949Y-4.5709
X5.1224Y-3.9803
X5.1224Y-4.3228
X5.1539Y-4.0157
X5.1539Y-4.378
X5.2208Y-4.1299
X5.2563Y-4.3701
X5.5043Y-2.9843
X5.7078Y-3.6958
X5.7208Y-3.2795
X5.9008Y-3.9675
X5.9047Y-3.7234
X5.9677Y-4.2234
X5.9716Y-4.5383
X6.0031Y-3.9635
X6.1145Y-3.0039
X6.2945Y-3.8021
X6.3181Y-3.6092
X6.4519Y-3.9675
X6.4992Y-4.3415
X6.5386Y-3.558
X6.5543Y-3.8336
X6.7051Y-3.2992
X6.759Y-4.6092
X6.7669Y-4.4872
X6.8693Y-4.432
X6.9126Y-3.8415
X6.9559Y-4.4163
X6.9874Y-4.125
X7.011Y-4.5187
X7.0189Y-3.8297
X7.0307Y-3.9596
X7.0397Y-2.9646
X7.1055Y-4.1092
X7.1094Y-3.8336
X7.1252Y-3.9517
X7.1658Y-4.0454
X7.2078Y-3.8415
X7.2275Y-4.0147
X7.263Y-4.4714
X7.2956Y-3.2008
X7.3102Y-3.932
X7.385Y-4.5069
X7.4086Y-4.0895
X7.4913Y-4.499
X7.4925Y-3.0433
X7.5464Y-4.4084
X7.5583Y-3.877
X7.6212Y-4.0817
X7.6488Y-4.4242
X7.6803Y-3.7864
X7.7248Y-4.1958
X7.7669Y-4.495
X7.8338Y-4.1368
X7.9204Y-3.8612
X7.9283Y-4.2234
X7.9441Y-4.4281
X7.9876Y-3.889
X8.0071Y-3.81
X8.0661Y-4.4754
X8.0897Y-4.2116
X8.1094Y-3.8061
X8.1606Y-3.9675
X8.2275Y-3.6387
X8.326Y-3.623
X8.3299Y-3.8336
X8.3378Y-4.2076
X8.4165Y-3.6013
X8.4323Y-4.4281
X8.4834Y-3.8336
X8.5976Y-3.8336
X8.6409Y-4.1919
T2
X2.276Y-3.2795
X2.3035Y-4.622
X2.326Y-2.4528
X2.376Y-3.2795
X2.4035Y-4.622
X2.426Y-2.4528
X2.476Y-3.2795
X2.5035Y-4.622
X2.526Y-2.4528
X2.576Y-3.2795
X2.6035Y-4.622
X2.626Y-2.4528
X2.676Y-3.2795
X2.7035Y-4.622
X2.726Y-2.4528
X2.776Y-3.2795
X2.8035Y-4.622
X2.826Y-2.4528
X2.9035Y-4.622
X2.976Y-2.7028
X2.976Y-2.8028
X2.976Y-2.9028
X2.976Y-3.0028
X3.0035Y-4.622
X3.1035Y-4.622
X3.2035Y-4.622
X3.2208Y-3.2795
X3.2708Y-2.4528
X3.3035Y-4.622
X3.3208Y-3.2795
X3.3708Y-2.4528
X3.4035Y-4.622
X3.4208Y-3.2795
X3.4708Y-2.4528
X3.5035Y-4.622
X3.5208Y-3.2795
X3.5708Y-2.4528
X3.6035Y-4.622
X3.6208Y-3.2795
X3.6708Y-2.4528
X3.7035Y-4.622
X3.7208Y-3.2795
X3.7708Y-2.4528
X3.8035Y-4.622
X3.9035Y-4.622
X3.9208Y-2.7028
X3.9208Y-2.8028
X3.9208Y-2.9028
X3.9208Y-3.0028
X4.0035Y-4.622
X4.1035Y-4.622
X4.1889Y-2.9252
X4.1889Y-3.0252
X4.1889Y-3.1252
X4.1889Y-3.2252
X4.2035Y-4.622
X5.3452Y-3.5228
X5.3452Y-3.6228
X5.3452Y-3.7228
X5.3452Y-3.8228
X5.3452Y-3.9228
X5.3452Y-4.0228
X5.3452Y-4.1228
X5.3452Y-4.2228
X5.5846Y-3.9132
X5.5846Y-4.0132
X5.5846Y-4.1132
X5.5846Y-4.2132
X5.5846Y-4.3132
X5.5846Y-4.4132
X5.5846Y-4.5132
X5.5846Y-4.6132
X5.8488Y-3.5535
X5.9488Y-3.5535
X6.0488Y-3.5535
X6.1488Y-3.5535
X6.7078Y-3.71
X6.7078Y-4.31
X6.7264Y-3.5118
X6.8078Y-3.71
X6.8078Y-4.31
X6.8264Y-3.5118
X6.9078Y-3.71
X6.9078Y-4.31
X6.9264Y-3.5118
X7.0078Y-3.71
X7.0078Y-4.31
X7.0264Y-3.5118
X7.1078Y-3.71
X7.1078Y-4.31
X7.1264Y-3.5118
X7.2078Y-3.71
X7.2078Y-4.31
X7.2264Y-3.5118
X7.3078Y-3.71
X7.3078Y-4.31
X7.3264Y-3.5118
X7.4078Y-3.71
X7.4078Y-4.31
X7.4264Y-3.5118
X7.4283Y-3.2252
X7.5078Y-3.71
X7.5078Y-4.31
X7.5264Y-3.5118
X7.5283Y-3.2252
X7.6078Y-3.71
X7.6078Y-4.31
X7.6264Y-3.5118
X7.7078Y-3.71
X7.7078Y-4.31
X7.7264Y-3.5118
X7.8078Y-3.71
X7.8078Y-4.31
X7.8264Y-3.5118
X7.9078Y-3.71
X7.9078Y-4.31
X7.9264Y-3.5118
X8.0078Y-3.71
X8.0078Y-4.31
X8.0264Y-3.5118
X8.1078Y-3.71
X8.1078Y-4.31
X8.1264Y-3.5118
X8.2078Y-3.71
X8.2078Y-4.31
X8.2264Y-3.5118
X8.3078Y-3.71
X8.3078Y-4.31
X8.3264Y-3.5118
X8.4078Y-3.71
X8.4078Y-4.31
X8.4264Y-3.5118
X8.5078Y-3.71
X8.5078Y-4.31
X8.5264Y-3.5118
X8.6078Y-3.71
X8.6078Y-4.31
X8.6264Y-3.5118
T3
X3.8802Y-3.8644
T0
M30
