%TF.GenerationSoftware,KiCad,Pcbnew,(6.0.5)*%
%TF.CreationDate,2022-07-01T10:57:45+02:00*%
%TF.ProjectId,clarinoid-bodytest,636c6172-696e-46f6-9964-2d626f647974,rev?*%
%TF.SameCoordinates,Original*%
%TF.FileFunction,Other,Comment*%
%FSLAX46Y46*%
G04 Gerber Fmt 4.6, Leading zero omitted, Abs format (unit mm)*
G04 Created by KiCad (PCBNEW (6.0.5)) date 2022-07-01 10:57:45*
%MOMM*%
%LPD*%
G01*
G04 APERTURE LIST*
%ADD10C,0.150000*%
%ADD11C,0.200000*%
%ADD12C,0.050000*%
%ADD13C,0.000000*%
%ADD14C,0.120000*%
%ADD15C,2.000000*%
G04 APERTURE END LIST*
D10*
X-132176207Y-252392523D02*
X-114676207Y-252392523D01*
X-114676207Y-252392523D02*
X-114676207Y-258892523D01*
X-114676207Y-258892523D02*
X-132176207Y-258892523D01*
X-132176207Y-258892523D02*
X-132176207Y-252392523D01*
X-465839196Y-212497034D02*
X-459439196Y-212497034D01*
X-459439196Y-212497034D02*
X-459439196Y-228597034D01*
X-459439196Y-228597034D02*
X-465839196Y-228597034D01*
X-465839196Y-228597034D02*
X-465839196Y-212497034D01*
X-130176207Y-270892523D02*
X-120376207Y-270892523D01*
X-120376207Y-270892523D02*
X-120376207Y-270392523D01*
X-120376207Y-270392523D02*
X-130176207Y-270392523D01*
X-130176207Y-270392523D02*
X-130176207Y-270892523D01*
X-466889196Y-229697034D02*
X-458389196Y-229697034D01*
X-458389196Y-229697034D02*
X-458389196Y-215197034D01*
X-458389196Y-215197034D02*
X-466889196Y-215197034D01*
X-466889196Y-215197034D02*
X-466889196Y-229697034D01*
D11*
X-124158886Y-252392523D02*
G75*
G03*
X-124158886Y-252392523I-297321J0D01*
G01*
D10*
X-132176207Y-252392523D02*
X-129176207Y-252392523D01*
X-129176207Y-252392523D02*
X-129176207Y-255392523D01*
X-129176207Y-255392523D02*
X-132176207Y-255392523D01*
X-132176207Y-255392523D02*
X-132176207Y-252392523D01*
X-399961927Y-310437033D02*
X-367089466Y-310437033D01*
X-368289467Y-295537033D02*
X-379789468Y-295537033D01*
X-379789467Y-294037033D01*
X-368289467Y-294037033D01*
X-368289467Y-295537033D01*
X-303426696Y-217197034D02*
X-370289196Y-217197034D01*
X-494839196Y-212497034D02*
X-488439196Y-212497034D01*
X-488439196Y-212497034D02*
X-488439196Y-228597034D01*
X-488439196Y-228597034D02*
X-494839196Y-228597034D01*
X-494839196Y-228597034D02*
X-494839196Y-212497034D01*
X-332339196Y-215197034D02*
X-338339196Y-215197034D01*
X-338339196Y-215197034D02*
X-338339196Y-229197034D01*
X-338339196Y-229197034D02*
X-332339196Y-229197034D01*
X-332339196Y-229197034D02*
X-332339196Y-215197034D01*
X-364139196Y-242197034D02*
X-568639196Y-242197034D01*
X-494389196Y-222197034D02*
X-494389196Y-215197034D01*
X-558265196Y-231197034D02*
G75*
G03*
X-558265196Y-231197034I-14000000J0D01*
G01*
X-35251696Y-231197034D02*
X-522626696Y-231197034D01*
X-302139196Y-215197034D02*
X-315339196Y-215197034D01*
X-315339196Y-215197034D02*
X-315339196Y-247197034D01*
X-315339196Y-247197034D02*
X-302139196Y-247197034D01*
X-302139196Y-247197034D02*
X-302139196Y-215197034D01*
X-459389196Y-222197034D02*
X-459389196Y-215197034D01*
X-347589196Y-215197034D02*
X-347589196Y-222197034D01*
D12*
X-194887926Y-106697034D02*
X-193851696Y-106697034D01*
X-193851696Y-106697034D02*
X-193851696Y-128697034D01*
X-193851696Y-128697034D02*
X-194887926Y-128697034D01*
X-194887926Y-128697034D02*
X-194887926Y-106697034D01*
D10*
X-437389196Y-222197034D02*
X-437389196Y-215197034D01*
X-302139196Y-247197034D02*
X-21139196Y-247197034D01*
X-444389196Y-215197034D02*
X-432889196Y-215197034D01*
X-432889196Y-215197034D02*
X-432889196Y-213697034D01*
X-432889196Y-213697034D02*
X-444389196Y-213697034D01*
X-444389196Y-213697034D02*
X-444389196Y-215197034D01*
X-196789196Y-228597034D02*
X-190389196Y-228597034D01*
X-190389196Y-228597034D02*
X-190389196Y-212497034D01*
X-190389196Y-212497034D02*
X-196789196Y-212497034D01*
X-196789196Y-212497034D02*
X-196789196Y-228597034D01*
X-442389196Y-222197034D02*
X-442389196Y-215197034D01*
X-132176207Y-252392523D02*
X-81176207Y-252392523D01*
X-81176207Y-252392523D02*
X-81176207Y-270892523D01*
X-81176207Y-270892523D02*
X-132176207Y-270892523D01*
X-132176207Y-270892523D02*
X-132176207Y-252392523D01*
X-492389196Y-222197034D02*
X-492389196Y-215197034D01*
X-233339196Y-258597034D02*
X-225339196Y-258597034D01*
X-225339196Y-258597034D02*
X-225339196Y-258097034D01*
X-225339196Y-258097034D02*
X-233339196Y-258097034D01*
X-233339196Y-258097034D02*
X-233339196Y-258597034D01*
X-489389196Y-215197034D02*
X-489389196Y-222197034D01*
X-463389196Y-222197034D02*
X-463389196Y-215197034D01*
X-462389196Y-215197034D02*
X-462389196Y-222197034D01*
X-465389196Y-222197034D02*
X-465389196Y-215197034D01*
X-438389196Y-215197034D02*
X-438389196Y-222197034D01*
X-67119196Y-241522034D02*
X-73989196Y-241522034D01*
X-73989196Y-241522034D02*
X-73989196Y-245197034D01*
X-73989196Y-245197034D02*
X-67119196Y-245197034D01*
X-67119196Y-245197034D02*
X-67119196Y-241522034D01*
X-357089196Y-213697034D02*
X-345589196Y-213697034D01*
X-345589196Y-213697034D02*
X-345589196Y-215197034D01*
X-345589196Y-215197034D02*
X-357089196Y-215197034D01*
X-357089196Y-215197034D02*
X-357089196Y-213697034D01*
X-370639196Y-215197034D02*
X-508639196Y-215197034D01*
X-508639196Y-215197034D02*
X-508639196Y-216197034D01*
X-508639196Y-216197034D02*
X-370639196Y-216197034D01*
X-370639196Y-216197034D02*
X-370639196Y-215197034D01*
X-188351696Y-117697034D02*
G75*
G03*
X-188351696Y-117697034I-14000000J0D01*
G01*
D12*
X-564801426Y-220197034D02*
X-563765196Y-220197034D01*
X-563765196Y-220197034D02*
X-563765196Y-242197034D01*
X-563765196Y-242197034D02*
X-564801426Y-242197034D01*
X-564801426Y-242197034D02*
X-564801426Y-220197034D01*
D10*
X-175551696Y-226197034D02*
G75*
G03*
X-175551696Y-226197034I-200000J0D01*
G01*
X-579201427Y-231197034D02*
X-546328966Y-231197034D01*
X-377239467Y-292837033D02*
X-370839467Y-292837033D01*
X-370839467Y-292837033D02*
X-370839467Y-292202033D01*
X-370839467Y-292202033D02*
X-377239467Y-292202033D01*
X-377239467Y-292202033D02*
X-377239467Y-292837033D01*
X-556251426Y-231197034D02*
G75*
G03*
X-556251426Y-231197034I-16000000J0D01*
G01*
X-70119196Y-229697034D02*
X-67119196Y-229697034D01*
X-67119196Y-229697034D02*
X-67119196Y-226697034D01*
X-67119196Y-226697034D02*
X-70119196Y-226697034D01*
X-70119196Y-226697034D02*
X-70119196Y-229697034D01*
X-348589196Y-215197034D02*
X-348589196Y-222197034D01*
X-495889196Y-229697034D02*
X-487389196Y-229697034D01*
X-487389196Y-229697034D02*
X-487389196Y-215197034D01*
X-487389196Y-215197034D02*
X-495889196Y-215197034D01*
X-495889196Y-215197034D02*
X-495889196Y-229697034D01*
X-84619196Y-233197034D02*
X-67119196Y-233197034D01*
X-67119196Y-233197034D02*
X-67119196Y-226697034D01*
X-67119196Y-226697034D02*
X-84619196Y-226697034D01*
X-84619196Y-226697034D02*
X-84619196Y-233197034D01*
X-370626696Y-220162034D02*
X-24026696Y-220162034D01*
X-370839467Y-310037033D02*
X-377239467Y-310037033D01*
X-377239467Y-292837033D01*
X-370839467Y-292837033D01*
X-370839467Y-310037033D01*
X-468389196Y-215197034D02*
X-456889196Y-215197034D01*
X-456889196Y-215197034D02*
X-456889196Y-213697034D01*
X-456889196Y-213697034D02*
X-468389196Y-213697034D01*
X-468389196Y-213697034D02*
X-468389196Y-215197034D01*
X-497389196Y-215197034D02*
X-485889196Y-215197034D01*
X-485889196Y-215197034D02*
X-485889196Y-213697034D01*
X-485889196Y-213697034D02*
X-497389196Y-213697034D01*
X-497389196Y-213697034D02*
X-497389196Y-215197034D01*
X-349589196Y-215197034D02*
X-349589196Y-222197034D01*
X-442889196Y-229697034D02*
X-434389196Y-229697034D01*
X-434389196Y-229697034D02*
X-434389196Y-215197034D01*
X-434389196Y-215197034D02*
X-442889196Y-215197034D01*
X-442889196Y-215197034D02*
X-442889196Y-229697034D01*
X-440439196Y-225277034D02*
G75*
G03*
X-440439196Y-225277034I-500000J0D01*
G01*
X-447439196Y-248277034D02*
X-447439196Y-239277034D01*
X-495389196Y-222197034D02*
X-495389196Y-215197034D01*
D13*
G36*
X-366851878Y-326517994D02*
G01*
X-378822646Y-327355072D01*
X-378934257Y-325758970D01*
X-366963488Y-324921892D01*
X-366851878Y-326517994D01*
G37*
D10*
X-248589196Y-215197034D02*
X-240089196Y-215197034D01*
X-240089196Y-215197034D02*
X-240089196Y-229697034D01*
X-240089196Y-229697034D02*
X-248589196Y-229697034D01*
X-248589196Y-229697034D02*
X-248589196Y-215197034D01*
X-370626696Y-220162034D02*
X-575126696Y-220162034D01*
X-199339196Y-213697034D02*
X-187839196Y-213697034D01*
X-187839196Y-213697034D02*
X-187839196Y-215197034D01*
X-187839196Y-215197034D02*
X-199339196Y-215197034D01*
X-199339196Y-215197034D02*
X-199339196Y-213697034D01*
X-488389196Y-222197034D02*
X-488389196Y-215197034D01*
X-275539196Y-228597034D02*
X-269139196Y-228597034D01*
X-269139196Y-228597034D02*
X-269139196Y-212497034D01*
X-269139196Y-212497034D02*
X-275539196Y-212497034D01*
X-275539196Y-212497034D02*
X-275539196Y-228597034D01*
G36*
X-382525697Y-324437033D02*
G01*
X-384125697Y-324437033D01*
X-384125697Y-296437033D01*
X-382525697Y-296437033D01*
X-382525697Y-324437033D01*
G37*
X-350589196Y-215197034D02*
X-350589196Y-222197034D01*
X-351589196Y-222197034D02*
X-351589196Y-215197034D01*
X-461389196Y-222197034D02*
X-461389196Y-215197034D01*
X-358039467Y-310437033D02*
G75*
G03*
X-358039467Y-310437033I-16000000J0D01*
G01*
X-249144196Y-253962034D02*
G75*
G03*
X-249144196Y-253962034I-250000J0D01*
G01*
D12*
X-564801426Y-217197034D02*
X-563765196Y-217197034D01*
X-563765196Y-217197034D02*
X-563765196Y-220197034D01*
X-563765196Y-220197034D02*
X-564801426Y-220197034D01*
X-564801426Y-220197034D02*
X-564801426Y-217197034D01*
G36*
X-192251696Y-103697034D02*
G01*
X-193851696Y-103697034D01*
X-193851696Y-131697034D01*
X-192251696Y-131697034D01*
X-192251696Y-103697034D01*
G37*
D10*
X-125306207Y-267217523D02*
X-132176207Y-267217523D01*
X-132176207Y-267217523D02*
X-132176207Y-270892523D01*
X-132176207Y-270892523D02*
X-125306207Y-270892523D01*
X-125306207Y-270892523D02*
X-125306207Y-267217523D01*
X-466389196Y-222197034D02*
X-466389196Y-215197034D01*
X-354589196Y-215197034D02*
X-354589196Y-222197034D01*
X-219789196Y-228597034D02*
X-213389196Y-228597034D01*
X-213389196Y-228597034D02*
X-213389196Y-212497034D01*
X-213389196Y-212497034D02*
X-219789196Y-212497034D01*
X-219789196Y-212497034D02*
X-219789196Y-228597034D01*
X-209287927Y-117697034D02*
X-176415466Y-117697034D01*
X-303639196Y-259697034D02*
X-304139196Y-259697034D01*
X-304139196Y-259697034D02*
X-304139196Y-274697034D01*
X-304139196Y-274697034D02*
X-303639196Y-274697034D01*
X-303639196Y-274697034D02*
X-303639196Y-259697034D01*
X-197851696Y-267397034D02*
X-173851696Y-267397034D01*
X-440389196Y-222197034D02*
X-440389196Y-215197034D01*
X-40339196Y-231197034D02*
X-40339196Y-207197034D01*
D11*
X-248540174Y-259697034D02*
X-248540174Y-275197034D01*
D10*
X-276589196Y-215197034D02*
X-268089196Y-215197034D01*
X-268089196Y-215197034D02*
X-268089196Y-229697034D01*
X-268089196Y-229697034D02*
X-276589196Y-229697034D01*
X-276589196Y-229697034D02*
X-276589196Y-215197034D01*
D12*
X-194887926Y-103697034D02*
X-193851696Y-103697034D01*
X-193851696Y-103697034D02*
X-193851696Y-106697034D01*
X-193851696Y-106697034D02*
X-194887926Y-106697034D01*
X-194887926Y-106697034D02*
X-194887926Y-103697034D01*
D10*
X-220839196Y-215197034D02*
X-212339196Y-215197034D01*
X-212339196Y-215197034D02*
X-212339196Y-229697034D01*
X-212339196Y-229697034D02*
X-220839196Y-229697034D01*
X-220839196Y-229697034D02*
X-220839196Y-215197034D01*
X-315339196Y-215197034D02*
X-326339196Y-215197034D01*
X-326339196Y-215197034D02*
X-326339196Y-256197034D01*
X-326339196Y-256197034D02*
X-315339196Y-256197034D01*
X-315339196Y-256197034D02*
X-315339196Y-215197034D01*
X-433581696Y-255962034D02*
X-309394196Y-255962034D01*
X-352589196Y-215197034D02*
X-352589196Y-222197034D01*
D12*
X-564801426Y-242197034D02*
X-563765196Y-242197034D01*
X-563765196Y-242197034D02*
X-563765196Y-245197034D01*
X-563765196Y-245197034D02*
X-564801426Y-245197034D01*
X-564801426Y-245197034D02*
X-564801426Y-242197034D01*
D10*
X-360025697Y-310437033D02*
G75*
G03*
X-360025697Y-310437033I-14000000J0D01*
G01*
X-305639196Y-242197034D02*
X-35139196Y-242197034D01*
X-301526696Y-267197034D02*
X-306526696Y-267197034D01*
X-306526696Y-267197034D02*
X-306526696Y-265997034D01*
X-306526696Y-265997034D02*
X-301526696Y-265997034D01*
X-301526696Y-265997034D02*
X-301526696Y-267197034D01*
X-436389196Y-215197034D02*
X-436389196Y-222197034D01*
X-441839196Y-212497034D02*
X-435439196Y-212497034D01*
X-435439196Y-212497034D02*
X-435439196Y-228597034D01*
X-435439196Y-228597034D02*
X-441839196Y-228597034D01*
X-441839196Y-228597034D02*
X-441839196Y-212497034D01*
X-354539196Y-228597034D02*
X-348139196Y-228597034D01*
X-348139196Y-228597034D02*
X-348139196Y-212497034D01*
X-348139196Y-212497034D02*
X-354539196Y-212497034D01*
X-354539196Y-212497034D02*
X-354539196Y-228597034D01*
X-374025697Y-310437033D02*
X-373063197Y-324402033D01*
X-464389196Y-222197034D02*
X-464389196Y-215197034D01*
X-326339196Y-215197034D02*
X-358039196Y-215197034D01*
X-358039196Y-215197034D02*
X-358039196Y-247197034D01*
X-358039196Y-247197034D02*
X-326339196Y-247197034D01*
X-326339196Y-247197034D02*
X-326339196Y-215197034D01*
X-374039467Y-294437033D02*
X-356863197Y-294437033D01*
X-356863197Y-294437033D02*
X-356863197Y-326437033D01*
X-356863197Y-326437033D02*
X-374039467Y-326437033D01*
X-374039467Y-326437033D02*
X-374039467Y-294437033D01*
X-301526696Y-261197034D02*
X-302026696Y-261197034D01*
X-302026696Y-261197034D02*
X-302026696Y-273197034D01*
X-302026696Y-273197034D02*
X-301526696Y-273197034D01*
X-301526696Y-273197034D02*
X-301526696Y-261197034D01*
X-560658158Y-249197034D02*
X-549365196Y-249197034D01*
X-549365196Y-249197034D02*
X-549365196Y-237797034D01*
X-549365196Y-237797034D02*
X-560658158Y-237797034D01*
X-560658158Y-237797034D02*
X-560658158Y-249197034D01*
X-279144196Y-253962034D02*
G75*
G03*
X-279144196Y-253962034I-250000J0D01*
G01*
D12*
X-553128966Y-245197034D02*
X-563765196Y-245197034D01*
X-563765196Y-245197034D02*
X-563765196Y-249197034D01*
X-563765196Y-249197034D02*
X-553128966Y-249197034D01*
X-553128966Y-249197034D02*
X-553128966Y-245197034D01*
D10*
X-197839196Y-215197034D02*
X-189339196Y-215197034D01*
X-189339196Y-215197034D02*
X-189339196Y-229697034D01*
X-189339196Y-229697034D02*
X-197839196Y-229697034D01*
X-197839196Y-229697034D02*
X-197839196Y-215197034D01*
X-369789467Y-310037033D02*
X-378289468Y-310037033D01*
X-378289468Y-295537033D01*
X-369789467Y-295537033D01*
X-369789467Y-310037033D01*
X-279339196Y-258597034D02*
X-271339196Y-258597034D01*
X-271339196Y-258597034D02*
X-271339196Y-258097034D01*
X-271339196Y-258097034D02*
X-279339196Y-258097034D01*
X-279339196Y-258097034D02*
X-279339196Y-258597034D01*
X-278089196Y-213697034D02*
X-266589196Y-213697034D01*
X-266589196Y-213697034D02*
X-266589196Y-215197034D01*
X-266589196Y-215197034D02*
X-278089196Y-215197034D01*
X-278089196Y-215197034D02*
X-278089196Y-213697034D01*
X-250089196Y-213697034D02*
X-238589196Y-213697034D01*
X-238589196Y-213697034D02*
X-238589196Y-215197034D01*
X-238589196Y-215197034D02*
X-250089196Y-215197034D01*
X-250089196Y-215197034D02*
X-250089196Y-213697034D01*
X-222339196Y-213697034D02*
X-210839196Y-213697034D01*
X-210839196Y-213697034D02*
X-210839196Y-215197034D01*
X-210839196Y-215197034D02*
X-222339196Y-215197034D01*
X-222339196Y-215197034D02*
X-222339196Y-213697034D01*
D12*
X-194887926Y-128697034D02*
X-193851696Y-128697034D01*
X-193851696Y-128697034D02*
X-193851696Y-131697034D01*
X-193851696Y-131697034D02*
X-194887926Y-131697034D01*
X-194887926Y-131697034D02*
X-194887926Y-128697034D01*
D10*
X-355589196Y-215197034D02*
X-347089196Y-215197034D01*
X-347089196Y-215197034D02*
X-347089196Y-229697034D01*
X-347089196Y-229697034D02*
X-355589196Y-229697034D01*
X-355589196Y-229697034D02*
X-355589196Y-215197034D01*
X-249339196Y-258597034D02*
X-241339196Y-258597034D01*
X-241339196Y-258597034D02*
X-241339196Y-258097034D01*
X-241339196Y-258097034D02*
X-249339196Y-258097034D01*
X-249339196Y-258097034D02*
X-249339196Y-258597034D01*
X-435389196Y-222197034D02*
X-435389196Y-215197034D01*
X-295389196Y-258797034D02*
X-287389196Y-258797034D01*
X-287389196Y-258797034D02*
X-287389196Y-258297034D01*
X-287389196Y-258297034D02*
X-295389196Y-258297034D01*
X-295389196Y-258297034D02*
X-295389196Y-258797034D01*
X-108676207Y-270892523D02*
X-93926207Y-270892523D01*
X-93926207Y-270892523D02*
X-93926207Y-270392523D01*
X-93926207Y-270392523D02*
X-108676207Y-270392523D01*
X-108676207Y-270392523D02*
X-108676207Y-270892523D01*
X-491389196Y-215197034D02*
X-491389196Y-222197034D01*
X-186337926Y-117697034D02*
G75*
G03*
X-186337926Y-117697034I-16000000J0D01*
G01*
X-353589196Y-222197034D02*
X-353589196Y-215197034D01*
X-560658158Y-244697034D02*
X-555265196Y-244697034D01*
X-555265196Y-244697034D02*
X-555265196Y-249197034D01*
X-555265196Y-249197034D02*
X-560658158Y-249197034D01*
X-560658158Y-249197034D02*
X-560658158Y-244697034D01*
X-460389196Y-215197034D02*
X-460389196Y-222197034D01*
X-441389196Y-222197034D02*
X-441389196Y-215197034D01*
X-247539196Y-228597034D02*
X-241139196Y-228597034D01*
X-241139196Y-228597034D02*
X-241139196Y-212497034D01*
X-241139196Y-212497034D02*
X-247539196Y-212497034D01*
X-247539196Y-212497034D02*
X-247539196Y-228597034D01*
X-493389196Y-222197034D02*
X-493389196Y-215197034D01*
X-300339196Y-245197034D02*
X-300339196Y-260197034D01*
X-302139196Y-215197034D02*
X-32039196Y-215197034D01*
X-271394196Y-256197034D02*
X-249394196Y-256197034D01*
X-249394196Y-256197034D02*
X-249394196Y-255432034D01*
X-249394196Y-255432034D02*
X-271394196Y-255432034D01*
X-271394196Y-255432034D02*
X-271394196Y-256197034D01*
X-439389196Y-222197034D02*
X-439389196Y-215197034D01*
X-490389196Y-222197034D02*
X-490389196Y-215197034D01*
G36*
X-562165196Y-217197034D02*
G01*
X-563765196Y-217197034D01*
X-563765196Y-245197034D01*
X-562165196Y-245197034D01*
X-562165196Y-217197034D01*
G37*
X-321553481Y-216649414D02*
X-321553481Y-215982748D01*
X-321553481Y-216173224D02*
X-321505862Y-216077986D01*
X-321458243Y-216030367D01*
X-321363005Y-215982748D01*
X-321267767Y-215982748D01*
X-320934434Y-216649414D02*
X-320934434Y-215982748D01*
X-320934434Y-215649414D02*
X-320982053Y-215697034D01*
X-320934434Y-215744653D01*
X-320886815Y-215697034D01*
X-320934434Y-215649414D01*
X-320934434Y-215744653D01*
X-320458243Y-215982748D02*
X-320458243Y-216649414D01*
X-320458243Y-216077986D02*
X-320410624Y-216030367D01*
X-320315386Y-215982748D01*
X-320172529Y-215982748D01*
X-320077291Y-216030367D01*
X-320029672Y-216125605D01*
X-320029672Y-216649414D01*
X-319124910Y-215982748D02*
X-319124910Y-216792272D01*
X-319172529Y-216887510D01*
X-319220148Y-216935129D01*
X-319315386Y-216982748D01*
X-319458243Y-216982748D01*
X-319553481Y-216935129D01*
X-319124910Y-216601795D02*
X-319220148Y-216649414D01*
X-319410624Y-216649414D01*
X-319505862Y-216601795D01*
X-319553481Y-216554176D01*
X-319601100Y-216458938D01*
X-319601100Y-216173224D01*
X-319553481Y-216077986D01*
X-319505862Y-216030367D01*
X-319410624Y-215982748D01*
X-319220148Y-215982748D01*
X-319124910Y-216030367D01*
X-374948719Y-220625605D02*
X-374615386Y-220625605D01*
X-374615386Y-221149414D02*
X-374615386Y-220149414D01*
X-375091576Y-220149414D01*
X-375377291Y-220149414D02*
X-376043957Y-221149414D01*
X-376043957Y-220149414D02*
X-375377291Y-221149414D01*
X-377567767Y-221101795D02*
X-377472529Y-221149414D01*
X-377282053Y-221149414D01*
X-377186815Y-221101795D01*
X-377139196Y-221006557D01*
X-377139196Y-220625605D01*
X-377186815Y-220530367D01*
X-377282053Y-220482748D01*
X-377472529Y-220482748D01*
X-377567767Y-220530367D01*
X-377615386Y-220625605D01*
X-377615386Y-220720843D01*
X-377139196Y-220816081D01*
X-378043957Y-220482748D02*
X-378043957Y-221149414D01*
X-378043957Y-220577986D02*
X-378091576Y-220530367D01*
X-378186815Y-220482748D01*
X-378329672Y-220482748D01*
X-378424910Y-220530367D01*
X-378472529Y-220625605D01*
X-378472529Y-221149414D01*
X-379377291Y-221149414D02*
X-379377291Y-220625605D01*
X-379329672Y-220530367D01*
X-379234434Y-220482748D01*
X-379043957Y-220482748D01*
X-378948719Y-220530367D01*
X-379377291Y-221101795D02*
X-379282053Y-221149414D01*
X-379043957Y-221149414D01*
X-378948719Y-221101795D01*
X-378901100Y-221006557D01*
X-378901100Y-220911319D01*
X-378948719Y-220816081D01*
X-379043957Y-220768462D01*
X-379282053Y-220768462D01*
X-379377291Y-220720843D01*
X-379853481Y-221149414D02*
X-379853481Y-220149414D01*
X-379853481Y-220530367D02*
X-379948719Y-220482748D01*
X-380139196Y-220482748D01*
X-380234434Y-220530367D01*
X-380282053Y-220577986D01*
X-380329672Y-220673224D01*
X-380329672Y-220958938D01*
X-380282053Y-221054176D01*
X-380234434Y-221101795D01*
X-380139196Y-221149414D01*
X-379948719Y-221149414D01*
X-379853481Y-221101795D01*
X-380901100Y-221149414D02*
X-380805862Y-221101795D01*
X-380758243Y-221006557D01*
X-380758243Y-220149414D01*
X-381663005Y-221101795D02*
X-381567767Y-221149414D01*
X-381377291Y-221149414D01*
X-381282053Y-221101795D01*
X-381234434Y-221006557D01*
X-381234434Y-220625605D01*
X-381282053Y-220530367D01*
X-381377291Y-220482748D01*
X-381567767Y-220482748D01*
X-381663005Y-220530367D01*
X-381710624Y-220625605D01*
X-381710624Y-220720843D01*
X-381234434Y-220816081D01*
X-182875505Y-133482748D02*
X-182875505Y-134149414D01*
X-183113600Y-133101795D02*
X-183351696Y-133816081D01*
X-182732648Y-133816081D01*
X-182351696Y-134149414D02*
X-182351696Y-133482748D01*
X-182351696Y-133577986D02*
X-182304076Y-133530367D01*
X-182208838Y-133482748D01*
X-182065981Y-133482748D01*
X-181970743Y-133530367D01*
X-181923124Y-133625605D01*
X-181923124Y-134149414D01*
X-181923124Y-133625605D02*
X-181875505Y-133530367D01*
X-181780267Y-133482748D01*
X-181637410Y-133482748D01*
X-181542172Y-133530367D01*
X-181494553Y-133625605D01*
X-181494553Y-134149414D01*
X-181018362Y-134149414D02*
X-181018362Y-133482748D01*
X-181018362Y-133577986D02*
X-180970743Y-133530367D01*
X-180875505Y-133482748D01*
X-180732648Y-133482748D01*
X-180637410Y-133530367D01*
X-180589791Y-133625605D01*
X-180589791Y-134149414D01*
X-180589791Y-133625605D02*
X-180542172Y-133530367D01*
X-180446934Y-133482748D01*
X-180304076Y-133482748D01*
X-180208838Y-133530367D01*
X-180161219Y-133625605D01*
X-180161219Y-134149414D01*
X-178780267Y-134149414D02*
X-178875505Y-134101795D01*
X-178923124Y-134006557D01*
X-178923124Y-133149414D01*
X-178256457Y-134149414D02*
X-178351696Y-134101795D01*
X-178399315Y-134054176D01*
X-178446934Y-133958938D01*
X-178446934Y-133673224D01*
X-178399315Y-133577986D01*
X-178351696Y-133530367D01*
X-178256457Y-133482748D01*
X-178113600Y-133482748D01*
X-178018362Y-133530367D01*
X-177970743Y-133577986D01*
X-177923124Y-133673224D01*
X-177923124Y-133958938D01*
X-177970743Y-134054176D01*
X-178018362Y-134101795D01*
X-178113600Y-134149414D01*
X-178256457Y-134149414D01*
X-177494553Y-133482748D02*
X-177494553Y-134149414D01*
X-177494553Y-133577986D02*
X-177446934Y-133530367D01*
X-177351696Y-133482748D01*
X-177208838Y-133482748D01*
X-177113600Y-133530367D01*
X-177065981Y-133625605D01*
X-177065981Y-134149414D01*
X-176161219Y-133482748D02*
X-176161219Y-134292272D01*
X-176208838Y-134387510D01*
X-176256457Y-134435129D01*
X-176351696Y-134482748D01*
X-176494553Y-134482748D01*
X-176589791Y-134435129D01*
X-176161219Y-134101795D02*
X-176256457Y-134149414D01*
X-176446934Y-134149414D01*
X-176542172Y-134101795D01*
X-176589791Y-134054176D01*
X-176637410Y-133958938D01*
X-176637410Y-133673224D01*
X-176589791Y-133577986D01*
X-176542172Y-133530367D01*
X-176446934Y-133482748D01*
X-176256457Y-133482748D01*
X-176161219Y-133530367D01*
X-175304076Y-134101795D02*
X-175399315Y-134149414D01*
X-175589791Y-134149414D01*
X-175685029Y-134101795D01*
X-175732648Y-134006557D01*
X-175732648Y-133625605D01*
X-175685029Y-133530367D01*
X-175589791Y-133482748D01*
X-175399315Y-133482748D01*
X-175304076Y-133530367D01*
X-175256457Y-133625605D01*
X-175256457Y-133720843D01*
X-175732648Y-133816081D01*
X-174827886Y-134149414D02*
X-174827886Y-133482748D01*
X-174827886Y-133673224D02*
X-174780267Y-133577986D01*
X-174732648Y-133530367D01*
X-174637410Y-133482748D01*
X-174542172Y-133482748D01*
X-173589791Y-133482748D02*
X-173208838Y-133482748D01*
X-173446934Y-134149414D02*
X-173446934Y-133292272D01*
X-173399315Y-133197034D01*
X-173304076Y-133149414D01*
X-173208838Y-133149414D01*
X-172732648Y-134149414D02*
X-172827886Y-134101795D01*
X-172875505Y-134054176D01*
X-172923124Y-133958938D01*
X-172923124Y-133673224D01*
X-172875505Y-133577986D01*
X-172827886Y-133530367D01*
X-172732648Y-133482748D01*
X-172589791Y-133482748D01*
X-172494553Y-133530367D01*
X-172446934Y-133577986D01*
X-172399315Y-133673224D01*
X-172399315Y-133958938D01*
X-172446934Y-134054176D01*
X-172494553Y-134101795D01*
X-172589791Y-134149414D01*
X-172732648Y-134149414D01*
X-171970743Y-134149414D02*
X-171970743Y-133482748D01*
X-171970743Y-133673224D02*
X-171923124Y-133577986D01*
X-171875505Y-133530367D01*
X-171780267Y-133482748D01*
X-171685029Y-133482748D01*
X-170446934Y-134149414D02*
X-170542172Y-134101795D01*
X-170589791Y-134054176D01*
X-170637410Y-133958938D01*
X-170637410Y-133673224D01*
X-170589791Y-133577986D01*
X-170542172Y-133530367D01*
X-170446934Y-133482748D01*
X-170304076Y-133482748D01*
X-170208838Y-133530367D01*
X-170161219Y-133577986D01*
X-170113600Y-133673224D01*
X-170113600Y-133958938D01*
X-170161219Y-134054176D01*
X-170208838Y-134101795D01*
X-170304076Y-134149414D01*
X-170446934Y-134149414D01*
X-169256457Y-134101795D02*
X-169351696Y-134149414D01*
X-169542172Y-134149414D01*
X-169637410Y-134101795D01*
X-169685029Y-134054176D01*
X-169732648Y-133958938D01*
X-169732648Y-133673224D01*
X-169685029Y-133577986D01*
X-169637410Y-133530367D01*
X-169542172Y-133482748D01*
X-169351696Y-133482748D01*
X-169256457Y-133530367D01*
X-168970743Y-133482748D02*
X-168589791Y-133482748D01*
X-168827886Y-133149414D02*
X-168827886Y-134006557D01*
X-168780267Y-134101795D01*
X-168685029Y-134149414D01*
X-168589791Y-134149414D01*
X-167827886Y-134149414D02*
X-167827886Y-133625605D01*
X-167875505Y-133530367D01*
X-167970743Y-133482748D01*
X-168161219Y-133482748D01*
X-168256457Y-133530367D01*
X-167827886Y-134101795D02*
X-167923124Y-134149414D01*
X-168161219Y-134149414D01*
X-168256457Y-134101795D01*
X-168304076Y-134006557D01*
X-168304076Y-133911319D01*
X-168256457Y-133816081D01*
X-168161219Y-133768462D01*
X-167923124Y-133768462D01*
X-167827886Y-133720843D01*
X-167446934Y-133482748D02*
X-167208838Y-134149414D01*
X-166970743Y-133482748D01*
X-166208838Y-134101795D02*
X-166304076Y-134149414D01*
X-166494553Y-134149414D01*
X-166589791Y-134101795D01*
X-166637410Y-134006557D01*
X-166637410Y-133625605D01*
X-166589791Y-133530367D01*
X-166494553Y-133482748D01*
X-166304076Y-133482748D01*
X-166208838Y-133530367D01*
X-166161219Y-133625605D01*
X-166161219Y-133720843D01*
X-166637410Y-133816081D01*
X-165780267Y-134101795D02*
X-165685029Y-134149414D01*
X-165494553Y-134149414D01*
X-165399315Y-134101795D01*
X-165351696Y-134006557D01*
X-165351696Y-133958938D01*
X-165399315Y-133863700D01*
X-165494553Y-133816081D01*
X-165637410Y-133816081D01*
X-165732648Y-133768462D01*
X-165780267Y-133673224D01*
X-165780267Y-133625605D01*
X-165732648Y-133530367D01*
X-165637410Y-133482748D01*
X-165494553Y-133482748D01*
X-165399315Y-133530367D01*
X-552789005Y-246982748D02*
X-552789005Y-247649414D01*
X-553027100Y-246601795D02*
X-553265196Y-247316081D01*
X-552646148Y-247316081D01*
X-552265196Y-247649414D02*
X-552265196Y-246982748D01*
X-552265196Y-247077986D02*
X-552217576Y-247030367D01*
X-552122338Y-246982748D01*
X-551979481Y-246982748D01*
X-551884243Y-247030367D01*
X-551836624Y-247125605D01*
X-551836624Y-247649414D01*
X-551836624Y-247125605D02*
X-551789005Y-247030367D01*
X-551693767Y-246982748D01*
X-551550910Y-246982748D01*
X-551455672Y-247030367D01*
X-551408053Y-247125605D01*
X-551408053Y-247649414D01*
X-550931862Y-247649414D02*
X-550931862Y-246982748D01*
X-550931862Y-247077986D02*
X-550884243Y-247030367D01*
X-550789005Y-246982748D01*
X-550646148Y-246982748D01*
X-550550910Y-247030367D01*
X-550503291Y-247125605D01*
X-550503291Y-247649414D01*
X-550503291Y-247125605D02*
X-550455672Y-247030367D01*
X-550360434Y-246982748D01*
X-550217576Y-246982748D01*
X-550122338Y-247030367D01*
X-550074719Y-247125605D01*
X-550074719Y-247649414D01*
X-548693767Y-247649414D02*
X-548789005Y-247601795D01*
X-548836624Y-247506557D01*
X-548836624Y-246649414D01*
X-548169957Y-247649414D02*
X-548265196Y-247601795D01*
X-548312815Y-247554176D01*
X-548360434Y-247458938D01*
X-548360434Y-247173224D01*
X-548312815Y-247077986D01*
X-548265196Y-247030367D01*
X-548169957Y-246982748D01*
X-548027100Y-246982748D01*
X-547931862Y-247030367D01*
X-547884243Y-247077986D01*
X-547836624Y-247173224D01*
X-547836624Y-247458938D01*
X-547884243Y-247554176D01*
X-547931862Y-247601795D01*
X-548027100Y-247649414D01*
X-548169957Y-247649414D01*
X-547408053Y-246982748D02*
X-547408053Y-247649414D01*
X-547408053Y-247077986D02*
X-547360434Y-247030367D01*
X-547265196Y-246982748D01*
X-547122338Y-246982748D01*
X-547027100Y-247030367D01*
X-546979481Y-247125605D01*
X-546979481Y-247649414D01*
X-546074719Y-246982748D02*
X-546074719Y-247792272D01*
X-546122338Y-247887510D01*
X-546169957Y-247935129D01*
X-546265196Y-247982748D01*
X-546408053Y-247982748D01*
X-546503291Y-247935129D01*
X-546074719Y-247601795D02*
X-546169957Y-247649414D01*
X-546360434Y-247649414D01*
X-546455672Y-247601795D01*
X-546503291Y-247554176D01*
X-546550910Y-247458938D01*
X-546550910Y-247173224D01*
X-546503291Y-247077986D01*
X-546455672Y-247030367D01*
X-546360434Y-246982748D01*
X-546169957Y-246982748D01*
X-546074719Y-247030367D01*
X-545217576Y-247601795D02*
X-545312815Y-247649414D01*
X-545503291Y-247649414D01*
X-545598529Y-247601795D01*
X-545646148Y-247506557D01*
X-545646148Y-247125605D01*
X-545598529Y-247030367D01*
X-545503291Y-246982748D01*
X-545312815Y-246982748D01*
X-545217576Y-247030367D01*
X-545169957Y-247125605D01*
X-545169957Y-247220843D01*
X-545646148Y-247316081D01*
X-544741386Y-247649414D02*
X-544741386Y-246982748D01*
X-544741386Y-247173224D02*
X-544693767Y-247077986D01*
X-544646148Y-247030367D01*
X-544550910Y-246982748D01*
X-544455672Y-246982748D01*
X-543503291Y-246982748D02*
X-543122338Y-246982748D01*
X-543360434Y-247649414D02*
X-543360434Y-246792272D01*
X-543312815Y-246697034D01*
X-543217576Y-246649414D01*
X-543122338Y-246649414D01*
X-542646148Y-247649414D02*
X-542741386Y-247601795D01*
X-542789005Y-247554176D01*
X-542836624Y-247458938D01*
X-542836624Y-247173224D01*
X-542789005Y-247077986D01*
X-542741386Y-247030367D01*
X-542646148Y-246982748D01*
X-542503291Y-246982748D01*
X-542408053Y-247030367D01*
X-542360434Y-247077986D01*
X-542312815Y-247173224D01*
X-542312815Y-247458938D01*
X-542360434Y-247554176D01*
X-542408053Y-247601795D01*
X-542503291Y-247649414D01*
X-542646148Y-247649414D01*
X-541884243Y-247649414D02*
X-541884243Y-246982748D01*
X-541884243Y-247173224D02*
X-541836624Y-247077986D01*
X-541789005Y-247030367D01*
X-541693767Y-246982748D01*
X-541598529Y-246982748D01*
X-540360434Y-247649414D02*
X-540455672Y-247601795D01*
X-540503291Y-247554176D01*
X-540550910Y-247458938D01*
X-540550910Y-247173224D01*
X-540503291Y-247077986D01*
X-540455672Y-247030367D01*
X-540360434Y-246982748D01*
X-540217576Y-246982748D01*
X-540122338Y-247030367D01*
X-540074719Y-247077986D01*
X-540027100Y-247173224D01*
X-540027100Y-247458938D01*
X-540074719Y-247554176D01*
X-540122338Y-247601795D01*
X-540217576Y-247649414D01*
X-540360434Y-247649414D01*
X-539169957Y-247601795D02*
X-539265196Y-247649414D01*
X-539455672Y-247649414D01*
X-539550910Y-247601795D01*
X-539598529Y-247554176D01*
X-539646148Y-247458938D01*
X-539646148Y-247173224D01*
X-539598529Y-247077986D01*
X-539550910Y-247030367D01*
X-539455672Y-246982748D01*
X-539265196Y-246982748D01*
X-539169957Y-247030367D01*
X-538884243Y-246982748D02*
X-538503291Y-246982748D01*
X-538741386Y-246649414D02*
X-538741386Y-247506557D01*
X-538693767Y-247601795D01*
X-538598529Y-247649414D01*
X-538503291Y-247649414D01*
X-537741386Y-247649414D02*
X-537741386Y-247125605D01*
X-537789005Y-247030367D01*
X-537884243Y-246982748D01*
X-538074719Y-246982748D01*
X-538169957Y-247030367D01*
X-537741386Y-247601795D02*
X-537836624Y-247649414D01*
X-538074719Y-247649414D01*
X-538169957Y-247601795D01*
X-538217576Y-247506557D01*
X-538217576Y-247411319D01*
X-538169957Y-247316081D01*
X-538074719Y-247268462D01*
X-537836624Y-247268462D01*
X-537741386Y-247220843D01*
X-537360434Y-246982748D02*
X-537122338Y-247649414D01*
X-536884243Y-246982748D01*
X-536122338Y-247601795D02*
X-536217576Y-247649414D01*
X-536408053Y-247649414D01*
X-536503291Y-247601795D01*
X-536550910Y-247506557D01*
X-536550910Y-247125605D01*
X-536503291Y-247030367D01*
X-536408053Y-246982748D01*
X-536217576Y-246982748D01*
X-536122338Y-247030367D01*
X-536074719Y-247125605D01*
X-536074719Y-247220843D01*
X-536550910Y-247316081D01*
X-535693767Y-247601795D02*
X-535598529Y-247649414D01*
X-535408053Y-247649414D01*
X-535312815Y-247601795D01*
X-535265196Y-247506557D01*
X-535265196Y-247458938D01*
X-535312815Y-247363700D01*
X-535408053Y-247316081D01*
X-535550910Y-247316081D01*
X-535646148Y-247268462D01*
X-535693767Y-247173224D01*
X-535693767Y-247125605D01*
X-535646148Y-247030367D01*
X-535550910Y-246982748D01*
X-535408053Y-246982748D01*
X-535312815Y-247030367D01*
X-467424910Y-210649414D02*
X-467424910Y-209649414D01*
X-467520148Y-210268462D02*
X-467805862Y-210649414D01*
X-467805862Y-209982748D02*
X-467424910Y-210363700D01*
X-468615386Y-210601795D02*
X-468520148Y-210649414D01*
X-468329672Y-210649414D01*
X-468234434Y-210601795D01*
X-468186815Y-210506557D01*
X-468186815Y-210125605D01*
X-468234434Y-210030367D01*
X-468329672Y-209982748D01*
X-468520148Y-209982748D01*
X-468615386Y-210030367D01*
X-468663005Y-210125605D01*
X-468663005Y-210220843D01*
X-468186815Y-210316081D01*
X-468996338Y-209982748D02*
X-469234434Y-210649414D01*
X-469472529Y-209982748D02*
X-469234434Y-210649414D01*
X-469139196Y-210887510D01*
X-469091576Y-210935129D01*
X-468996338Y-210982748D01*
X-470615386Y-209982748D02*
X-470615386Y-210982748D01*
X-470615386Y-210030367D02*
X-470710624Y-209982748D01*
X-470901100Y-209982748D01*
X-470996338Y-210030367D01*
X-471043957Y-210077986D01*
X-471091576Y-210173224D01*
X-471091576Y-210458938D01*
X-471043957Y-210554176D01*
X-470996338Y-210601795D01*
X-470901100Y-210649414D01*
X-470710624Y-210649414D01*
X-470615386Y-210601795D01*
X-471520148Y-210649414D02*
X-471520148Y-209982748D01*
X-471520148Y-209649414D02*
X-471472529Y-209697034D01*
X-471520148Y-209744653D01*
X-471567767Y-209697034D01*
X-471520148Y-209649414D01*
X-471520148Y-209744653D01*
X-471853481Y-209982748D02*
X-472234434Y-209982748D01*
X-471996338Y-209649414D02*
X-471996338Y-210506557D01*
X-472043957Y-210601795D01*
X-472139196Y-210649414D01*
X-472234434Y-210649414D01*
X-472996338Y-210601795D02*
X-472901100Y-210649414D01*
X-472710624Y-210649414D01*
X-472615386Y-210601795D01*
X-472567767Y-210554176D01*
X-472520148Y-210458938D01*
X-472520148Y-210173224D01*
X-472567767Y-210077986D01*
X-472615386Y-210030367D01*
X-472710624Y-209982748D01*
X-472901100Y-209982748D01*
X-472996338Y-210030367D01*
X-473424910Y-210649414D02*
X-473424910Y-209649414D01*
X-473853481Y-210649414D02*
X-473853481Y-210125605D01*
X-473805862Y-210030367D01*
X-473710624Y-209982748D01*
X-473567767Y-209982748D01*
X-473472529Y-210030367D01*
X-473424910Y-210077986D01*
X-475043957Y-209744653D02*
X-475091576Y-209697034D01*
X-475186815Y-209649414D01*
X-475424910Y-209649414D01*
X-475520148Y-209697034D01*
X-475567767Y-209744653D01*
X-475615386Y-209839891D01*
X-475615386Y-209935129D01*
X-475567767Y-210077986D01*
X-474996338Y-210649414D01*
X-475615386Y-210649414D01*
X-476472529Y-209982748D02*
X-476472529Y-210649414D01*
X-476234434Y-209601795D02*
X-475996338Y-210316081D01*
X-476615386Y-210316081D01*
X-477758243Y-210268462D02*
X-478520148Y-210268462D01*
X-479710624Y-209744653D02*
X-479758243Y-209697034D01*
X-479853481Y-209649414D01*
X-480091576Y-209649414D01*
X-480186815Y-209697034D01*
X-480234434Y-209744653D01*
X-480282053Y-209839891D01*
X-480282053Y-209935129D01*
X-480234434Y-210077986D01*
X-479663005Y-210649414D01*
X-480282053Y-210649414D01*
X-480758243Y-210649414D02*
X-480948719Y-210649414D01*
X-481043957Y-210601795D01*
X-481091576Y-210554176D01*
X-481186815Y-210411319D01*
X-481234434Y-210220843D01*
X-481234434Y-209839891D01*
X-481186815Y-209744653D01*
X-481139196Y-209697034D01*
X-481043957Y-209649414D01*
X-480853481Y-209649414D01*
X-480758243Y-209697034D01*
X-480710624Y-209744653D01*
X-480663005Y-209839891D01*
X-480663005Y-210077986D01*
X-480710624Y-210173224D01*
X-480758243Y-210220843D01*
X-480853481Y-210268462D01*
X-481043957Y-210268462D01*
X-481139196Y-210220843D01*
X-481186815Y-210173224D01*
X-481234434Y-210077986D01*
X-482424910Y-210268462D02*
X-483186815Y-210268462D01*
X-484329672Y-209649414D02*
X-484948719Y-209649414D01*
X-484615386Y-210030367D01*
X-484758243Y-210030367D01*
X-484853481Y-210077986D01*
X-484901100Y-210125605D01*
X-484948719Y-210220843D01*
X-484948719Y-210458938D01*
X-484901100Y-210554176D01*
X-484853481Y-210601795D01*
X-484758243Y-210649414D01*
X-484472529Y-210649414D01*
X-484377291Y-210601795D01*
X-484329672Y-210554176D01*
X-485567767Y-209649414D02*
X-485663005Y-209649414D01*
X-485758243Y-209697034D01*
X-485805862Y-209744653D01*
X-485853481Y-209839891D01*
X-485901100Y-210030367D01*
X-485901100Y-210268462D01*
X-485853481Y-210458938D01*
X-485805862Y-210554176D01*
X-485758243Y-210601795D01*
X-485663005Y-210649414D01*
X-485567767Y-210649414D01*
X-485472529Y-210601795D01*
X-485424910Y-210554176D01*
X-485377291Y-210458938D01*
X-485329672Y-210268462D01*
X-485329672Y-210030367D01*
X-485377291Y-209839891D01*
X-485424910Y-209744653D01*
X-485472529Y-209697034D01*
X-485567767Y-209649414D01*
X-339339196Y-214649414D02*
X-339434434Y-214601795D01*
X-339482053Y-214554176D01*
X-339529672Y-214458938D01*
X-339529672Y-214173224D01*
X-339482053Y-214077986D01*
X-339434434Y-214030367D01*
X-339339196Y-213982748D01*
X-339196338Y-213982748D01*
X-339101100Y-214030367D01*
X-339053481Y-214077986D01*
X-339005862Y-214173224D01*
X-339005862Y-214458938D01*
X-339053481Y-214554176D01*
X-339101100Y-214601795D01*
X-339196338Y-214649414D01*
X-339339196Y-214649414D01*
X-338434434Y-214649414D02*
X-338529672Y-214601795D01*
X-338577291Y-214506557D01*
X-338577291Y-213649414D01*
X-337672529Y-214601795D02*
X-337767767Y-214649414D01*
X-337958243Y-214649414D01*
X-338053481Y-214601795D01*
X-338101100Y-214506557D01*
X-338101100Y-214125605D01*
X-338053481Y-214030367D01*
X-337958243Y-213982748D01*
X-337767767Y-213982748D01*
X-337672529Y-214030367D01*
X-337624910Y-214125605D01*
X-337624910Y-214220843D01*
X-338101100Y-214316081D01*
X-336767767Y-214649414D02*
X-336767767Y-213649414D01*
X-336767767Y-214601795D02*
X-336863005Y-214649414D01*
X-337053481Y-214649414D01*
X-337148719Y-214601795D01*
X-337196338Y-214554176D01*
X-337243957Y-214458938D01*
X-337243957Y-214173224D01*
X-337196338Y-214077986D01*
X-337148719Y-214030367D01*
X-337053481Y-213982748D01*
X-336863005Y-213982748D01*
X-336767767Y-214030367D01*
X-335577291Y-214601795D02*
X-335482053Y-214649414D01*
X-335291576Y-214649414D01*
X-335196338Y-214601795D01*
X-335148719Y-214506557D01*
X-335148719Y-214458938D01*
X-335196338Y-214363700D01*
X-335291576Y-214316081D01*
X-335434434Y-214316081D01*
X-335529672Y-214268462D01*
X-335577291Y-214173224D01*
X-335577291Y-214125605D01*
X-335529672Y-214030367D01*
X-335434434Y-213982748D01*
X-335291576Y-213982748D01*
X-335196338Y-214030367D01*
X-334577291Y-214649414D02*
X-334672529Y-214601795D01*
X-334720148Y-214506557D01*
X-334720148Y-213649414D01*
X-334053481Y-214649414D02*
X-334148719Y-214601795D01*
X-334196338Y-214554176D01*
X-334243957Y-214458938D01*
X-334243957Y-214173224D01*
X-334196338Y-214077986D01*
X-334148719Y-214030367D01*
X-334053481Y-213982748D01*
X-333910624Y-213982748D01*
X-333815386Y-214030367D01*
X-333767767Y-214077986D01*
X-333720148Y-214173224D01*
X-333720148Y-214458938D01*
X-333767767Y-214554176D01*
X-333815386Y-214601795D01*
X-333910624Y-214649414D01*
X-334053481Y-214649414D01*
X-333434434Y-213982748D02*
X-333053481Y-213982748D01*
X-333291576Y-213649414D02*
X-333291576Y-214506557D01*
X-333243957Y-214601795D01*
X-333148719Y-214649414D01*
X-333053481Y-214649414D01*
%TO.C,SW6*%
X-138618111Y-196325856D02*
X-139094302Y-196325856D01*
X-138522873Y-196040142D02*
X-138856207Y-197040142D01*
X-139189540Y-196040142D01*
X-142927635Y-196563951D02*
X-143070492Y-196516332D01*
X-143118111Y-196468713D01*
X-143165730Y-196373475D01*
X-143165730Y-196230618D01*
X-143118111Y-196135380D01*
X-143070492Y-196087761D01*
X-142975254Y-196040142D01*
X-142594302Y-196040142D01*
X-142594302Y-197040142D01*
X-142927635Y-197040142D01*
X-143022873Y-196992523D01*
X-143070492Y-196944903D01*
X-143118111Y-196849665D01*
X-143118111Y-196754427D01*
X-143070492Y-196659189D01*
X-143022873Y-196611570D01*
X-142927635Y-196563951D01*
X-142594302Y-196563951D01*
%TO.C,SW1*%
X-116094302Y-193059189D02*
X-115618111Y-193059189D01*
X-116189540Y-193344903D02*
X-115856207Y-192344903D01*
X-115522873Y-193344903D01*
X-111784778Y-192821094D02*
X-111641921Y-192868713D01*
X-111594302Y-192916332D01*
X-111546683Y-193011570D01*
X-111546683Y-193154427D01*
X-111594302Y-193249665D01*
X-111641921Y-193297284D01*
X-111737159Y-193344903D01*
X-112118111Y-193344903D01*
X-112118111Y-192344903D01*
X-111784778Y-192344903D01*
X-111689540Y-192392523D01*
X-111641921Y-192440142D01*
X-111594302Y-192535380D01*
X-111594302Y-192630618D01*
X-111641921Y-192725856D01*
X-111689540Y-192773475D01*
X-111784778Y-192821094D01*
X-112118111Y-192821094D01*
%TO.C,H8*%
X-45639196Y-192197034D02*
G75*
G03*
X-45639196Y-192197034I-2700000J0D01*
G01*
D14*
%TO.C,J15*%
X-100726207Y-189692523D02*
X-100726207Y-179942523D01*
X-91226207Y-179942523D02*
X-91226207Y-189692523D01*
D10*
%TO.C,H7*%
X-198551696Y-231197034D02*
G75*
G03*
X-198551696Y-231197034I-2700000J0D01*
G01*
%TO.C,H3*%
X-63439196Y-208697034D02*
G75*
G03*
X-63439196Y-208697034I-2700000J0D01*
G01*
D14*
%TO.C,SW2*%
X-291394196Y-238662034D02*
X-291394196Y-255962034D01*
D12*
X-295349196Y-238662034D02*
X-287439196Y-238662034D01*
X-287439196Y-238662034D02*
X-287439196Y-239562034D01*
X-287439196Y-239562034D02*
X-295349196Y-239562034D01*
X-295349196Y-239562034D02*
X-295349196Y-238662034D01*
X-295394196Y-248362034D02*
X-287394196Y-248362034D01*
X-287394196Y-248362034D02*
X-287394196Y-255962034D01*
X-287394196Y-255962034D02*
X-295394196Y-255962034D01*
X-295394196Y-255962034D02*
X-295394196Y-248362034D01*
X-292819196Y-247162034D02*
X-289969196Y-247162034D01*
X-289969196Y-247162034D02*
X-289969196Y-248362034D01*
X-289969196Y-248362034D02*
X-292819196Y-248362034D01*
X-292819196Y-248362034D02*
X-292819196Y-247162034D01*
X-294494196Y-239562034D02*
X-288294196Y-239562034D01*
X-288294196Y-239562034D02*
X-288294196Y-247162034D01*
X-288294196Y-247162034D02*
X-294494196Y-247162034D01*
X-294494196Y-247162034D02*
X-294494196Y-239562034D01*
D14*
%TO.C,U17*%
X-460306132Y-324001076D02*
X-432306132Y-324001076D01*
X-453306132Y-324001076D02*
X-439306132Y-324001076D01*
X-439306132Y-324001076D02*
X-439306132Y-328001076D01*
X-439306132Y-328001076D02*
X-453306132Y-328001076D01*
X-453306132Y-328001076D02*
X-453306132Y-324001076D01*
X-432306132Y-304001076D02*
X-460266132Y-304001076D01*
X-460266132Y-304001076D02*
X-460266132Y-318501076D01*
X-460266132Y-318501076D02*
X-432306132Y-318501076D01*
X-432306132Y-318501076D02*
X-432306132Y-304001076D01*
X-460266132Y-300001076D02*
X-432266132Y-300001076D01*
X-432266132Y-300001076D02*
X-432266132Y-328001076D01*
X-432266132Y-328001076D02*
X-460266132Y-328001076D01*
X-460266132Y-328001076D02*
X-460266132Y-300001076D01*
D15*
X-433266132Y-326001076D02*
G75*
G03*
X-433266132Y-326001076I-1000000J0D01*
G01*
X-457266132Y-326001076D02*
G75*
G03*
X-457266132Y-326001076I-1000000J0D01*
G01*
D14*
X-452886132Y-301501076D02*
G75*
G03*
X-452886132Y-301501076I-1000000J0D01*
G01*
X-450346132Y-301501076D02*
G75*
G03*
X-450346132Y-301501076I-1000000J0D01*
G01*
X-447806132Y-301501076D02*
G75*
G03*
X-447806132Y-301501076I-1000000J0D01*
G01*
D15*
X-457266132Y-302001076D02*
G75*
G03*
X-457266132Y-302001076I-1000000J0D01*
G01*
D14*
X-440186132Y-301501076D02*
G75*
G03*
X-440186132Y-301501076I-1000000J0D01*
G01*
X-445266132Y-301501076D02*
G75*
G03*
X-445266132Y-301501076I-1000000J0D01*
G01*
X-442726132Y-301501076D02*
G75*
G03*
X-442726132Y-301501076I-1000000J0D01*
G01*
D15*
X-433266132Y-302001076D02*
G75*
G03*
X-433266132Y-302001076I-1000000J0D01*
G01*
D14*
X-437646132Y-301501076D02*
G75*
G03*
X-437646132Y-301501076I-1000000J0D01*
G01*
D10*
%TO.C,H5*%
X-43551696Y-231197034D02*
G75*
G03*
X-43551696Y-231197034I-2700000J0D01*
G01*
D14*
%TO.C,SW11*%
X-206946696Y-193932034D02*
X-206946696Y-176632034D01*
D12*
X-202946696Y-184232034D02*
X-210946696Y-184232034D01*
X-210946696Y-184232034D02*
X-210946696Y-176632034D01*
X-210946696Y-176632034D02*
X-202946696Y-176632034D01*
X-202946696Y-176632034D02*
X-202946696Y-184232034D01*
X-205521696Y-185432034D02*
X-208371696Y-185432034D01*
X-208371696Y-185432034D02*
X-208371696Y-184232034D01*
X-208371696Y-184232034D02*
X-205521696Y-184232034D01*
X-205521696Y-184232034D02*
X-205521696Y-185432034D01*
X-202991696Y-193932034D02*
X-210901696Y-193932034D01*
X-210901696Y-193932034D02*
X-210901696Y-193032034D01*
X-210901696Y-193032034D02*
X-202991696Y-193032034D01*
X-202991696Y-193032034D02*
X-202991696Y-193932034D01*
X-203846696Y-193032034D02*
X-210046696Y-193032034D01*
X-210046696Y-193032034D02*
X-210046696Y-185432034D01*
X-210046696Y-185432034D02*
X-203846696Y-185432034D01*
X-203846696Y-185432034D02*
X-203846696Y-193032034D01*
D14*
%TO.C,SW5*%
X-229394196Y-238662034D02*
X-229394196Y-255962034D01*
D12*
X-233394196Y-248362034D02*
X-225394196Y-248362034D01*
X-225394196Y-248362034D02*
X-225394196Y-255962034D01*
X-225394196Y-255962034D02*
X-233394196Y-255962034D01*
X-233394196Y-255962034D02*
X-233394196Y-248362034D01*
X-233349196Y-238662034D02*
X-225439196Y-238662034D01*
X-225439196Y-238662034D02*
X-225439196Y-239562034D01*
X-225439196Y-239562034D02*
X-233349196Y-239562034D01*
X-233349196Y-239562034D02*
X-233349196Y-238662034D01*
X-230819196Y-247162034D02*
X-227969196Y-247162034D01*
X-227969196Y-247162034D02*
X-227969196Y-248362034D01*
X-227969196Y-248362034D02*
X-230819196Y-248362034D01*
X-230819196Y-248362034D02*
X-230819196Y-247162034D01*
X-232494196Y-239562034D02*
X-226294196Y-239562034D01*
X-226294196Y-239562034D02*
X-226294196Y-247162034D01*
X-226294196Y-247162034D02*
X-232494196Y-247162034D01*
X-232494196Y-247162034D02*
X-232494196Y-239562034D01*
D14*
%TO.C,SW4*%
X-245394196Y-236662034D02*
X-245394196Y-253962034D01*
D12*
X-246819196Y-245162034D02*
X-243969196Y-245162034D01*
X-243969196Y-245162034D02*
X-243969196Y-246362034D01*
X-243969196Y-246362034D02*
X-246819196Y-246362034D01*
X-246819196Y-246362034D02*
X-246819196Y-245162034D01*
X-249394196Y-246362034D02*
X-241394196Y-246362034D01*
X-241394196Y-246362034D02*
X-241394196Y-253962034D01*
X-241394196Y-253962034D02*
X-249394196Y-253962034D01*
X-249394196Y-253962034D02*
X-249394196Y-246362034D01*
X-249349196Y-236662034D02*
X-241439196Y-236662034D01*
X-241439196Y-236662034D02*
X-241439196Y-237562034D01*
X-241439196Y-237562034D02*
X-249349196Y-237562034D01*
X-249349196Y-237562034D02*
X-249349196Y-236662034D01*
X-248494196Y-237562034D02*
X-242294196Y-237562034D01*
X-242294196Y-237562034D02*
X-242294196Y-245162034D01*
X-242294196Y-245162034D02*
X-248494196Y-245162034D01*
X-248494196Y-245162034D02*
X-248494196Y-237562034D01*
D10*
%TO.C,H1*%
X-162901696Y-227197034D02*
G75*
G03*
X-162901696Y-227197034I-3000000J0D01*
G01*
%TO.C,H9*%
X-196839196Y-201392034D02*
G75*
G03*
X-196839196Y-201392034I-2700000J0D01*
G01*
D14*
%TO.C,J19*%
X-178001696Y-236097034D02*
X-178001696Y-232597034D01*
X-173001696Y-236097034D02*
X-173001696Y-232597034D01*
X-178501696Y-236097034D02*
X-178001696Y-236097034D01*
X-175501696Y-236097034D02*
X-175501696Y-232597034D01*
X-176001696Y-232597034D02*
X-176001696Y-236097034D01*
X-176001696Y-236097034D02*
X-175501696Y-236097034D01*
X-173501696Y-236097034D02*
X-173001696Y-236097034D01*
X-178501696Y-232597034D02*
X-178501696Y-236097034D01*
X-173501696Y-232597034D02*
X-173501696Y-236097034D01*
X-175251696Y-225597034D02*
G75*
G03*
X-175251696Y-225597034I-500000J0D01*
G01*
X-163751696Y-225597034D02*
G75*
G03*
X-163751696Y-225597034I-12000000J0D01*
G01*
D10*
%TO.C,H11*%
X-252051696Y-201391545D02*
G75*
G03*
X-252051696Y-201391545I-2700000J0D01*
G01*
%TO.C,J13*%
X-158376207Y-181692523D02*
X-107376207Y-181692523D01*
X-107376207Y-181692523D02*
X-107376207Y-200192523D01*
X-107376207Y-200192523D02*
X-158376207Y-200192523D01*
X-158376207Y-200192523D02*
X-158376207Y-181692523D01*
X-158376207Y-181692523D02*
X-155376207Y-181692523D01*
X-155376207Y-181692523D02*
X-155376207Y-184692523D01*
X-155376207Y-184692523D02*
X-158376207Y-184692523D01*
X-158376207Y-184692523D02*
X-158376207Y-181692523D01*
X-151506207Y-196517523D02*
X-158376207Y-196517523D01*
X-158376207Y-196517523D02*
X-158376207Y-200192523D01*
X-158376207Y-200192523D02*
X-151506207Y-200192523D01*
X-151506207Y-200192523D02*
X-151506207Y-196517523D01*
X-158376207Y-181692523D02*
X-140876207Y-181692523D01*
X-140876207Y-181692523D02*
X-140876207Y-188192523D01*
X-140876207Y-188192523D02*
X-158376207Y-188192523D01*
X-158376207Y-188192523D02*
X-158376207Y-181692523D01*
D11*
X-150358886Y-181692523D02*
G75*
G03*
X-150358886Y-181692523I-297321J0D01*
G01*
D14*
X-146986207Y-193412523D02*
G75*
G03*
X-146986207Y-193412523I-200000J0D01*
G01*
X-146986207Y-197592523D02*
G75*
G03*
X-146986207Y-197592523I-200000J0D01*
G01*
X-155626207Y-193412523D02*
G75*
G03*
X-155626207Y-193412523I-200000J0D01*
G01*
X-155626207Y-197592523D02*
G75*
G03*
X-155626207Y-197592523I-200000J0D01*
G01*
%TO.C,SW6*%
X-142256207Y-192892523D02*
X-139456207Y-192892523D01*
X-139456207Y-196492523D02*
X-142256207Y-196492523D01*
X-140856207Y-196492523D02*
X-140856207Y-195292523D01*
X-140856207Y-192892523D02*
X-140856207Y-194092523D01*
X-140856207Y-195292523D02*
X-140056207Y-194092523D01*
X-140656207Y-195292523D02*
G75*
G03*
X-140656207Y-195292523I-200000J0D01*
G01*
X-140656207Y-194092523D02*
G75*
G03*
X-140656207Y-194092523I-200000J0D01*
G01*
D10*
%TO.C,H2*%
X-144939196Y-208697034D02*
G75*
G03*
X-144939196Y-208697034I-2700000J0D01*
G01*
%TO.C,H4*%
X-280551696Y-231197034D02*
G75*
G03*
X-280551696Y-231197034I-2700000J0D01*
G01*
%TO.C,H10*%
X-293801696Y-201391545D02*
G75*
G03*
X-293801696Y-201391545I-2700000J0D01*
G01*
D14*
%TO.C,U18*%
X-165039196Y-211391545D02*
X-165039196Y-211091545D01*
X-165039196Y-211391545D02*
X-164239196Y-211391545D01*
X-173389196Y-204391545D02*
X-160889196Y-204391545D01*
X-164639196Y-197191545D02*
X-169639196Y-197191545D01*
X-167139196Y-211091545D02*
X-167139196Y-197691545D01*
X-167539196Y-197391545D02*
X-167539196Y-197691545D01*
X-169239196Y-211391545D02*
X-169239196Y-211091545D01*
X-170039196Y-197391545D02*
X-170039196Y-197691545D01*
X-164239196Y-197391545D02*
X-164239196Y-197691545D01*
X-170039196Y-211391545D02*
X-170039196Y-211091545D01*
X-166739196Y-197391545D02*
X-166739196Y-197691545D01*
X-164239196Y-211391545D02*
X-164239196Y-211091545D01*
X-165039196Y-197391545D02*
X-165039196Y-197691545D01*
X-165039196Y-197391545D02*
X-164239196Y-197391545D01*
X-170039196Y-197391545D02*
X-169239196Y-197391545D01*
X-167539196Y-197391545D02*
X-166739196Y-197391545D01*
X-170039196Y-211391545D02*
X-169239196Y-211391545D01*
X-169239196Y-197391545D02*
X-169239196Y-197691545D01*
X-173389196Y-205641545D02*
X-174139196Y-205641545D01*
X-174139196Y-205641545D02*
X-174139196Y-203141545D01*
X-174139196Y-203141545D02*
X-173389196Y-203141545D01*
X-173389196Y-203141545D02*
X-173389196Y-205641545D01*
X-156139196Y-204391545D02*
G75*
G03*
X-156139196Y-204391545I-11000000J0D01*
G01*
%TO.C,SW1*%
X-113856207Y-192892523D02*
X-113856207Y-194092523D01*
X-112456207Y-196492523D02*
X-115256207Y-196492523D01*
X-113856207Y-194092523D02*
X-114656207Y-195292523D01*
X-115256207Y-192892523D02*
X-112456207Y-192892523D01*
X-113856207Y-196492523D02*
X-113856207Y-195292523D01*
X-113656207Y-194092523D02*
G75*
G03*
X-113656207Y-194092523I-200000J0D01*
G01*
X-113656207Y-195292523D02*
G75*
G03*
X-113656207Y-195292523I-200000J0D01*
G01*
%TO.C,SW12*%
X-192146696Y-193932034D02*
X-192146696Y-176632034D01*
D12*
X-189046696Y-193032034D02*
X-195246696Y-193032034D01*
X-195246696Y-193032034D02*
X-195246696Y-185432034D01*
X-195246696Y-185432034D02*
X-189046696Y-185432034D01*
X-189046696Y-185432034D02*
X-189046696Y-193032034D01*
X-188191696Y-193932034D02*
X-196101696Y-193932034D01*
X-196101696Y-193932034D02*
X-196101696Y-193032034D01*
X-196101696Y-193032034D02*
X-188191696Y-193032034D01*
X-188191696Y-193032034D02*
X-188191696Y-193932034D01*
X-188146696Y-184232034D02*
X-196146696Y-184232034D01*
X-196146696Y-184232034D02*
X-196146696Y-176632034D01*
X-196146696Y-176632034D02*
X-188146696Y-176632034D01*
X-188146696Y-176632034D02*
X-188146696Y-184232034D01*
X-190721696Y-185432034D02*
X-193571696Y-185432034D01*
X-193571696Y-185432034D02*
X-193571696Y-184232034D01*
X-193571696Y-184232034D02*
X-190721696Y-184232034D01*
X-190721696Y-184232034D02*
X-190721696Y-185432034D01*
D14*
%TO.C,SW3*%
X-275394196Y-236662034D02*
X-275394196Y-253962034D01*
D12*
X-276819196Y-245162034D02*
X-273969196Y-245162034D01*
X-273969196Y-245162034D02*
X-273969196Y-246362034D01*
X-273969196Y-246362034D02*
X-276819196Y-246362034D01*
X-276819196Y-246362034D02*
X-276819196Y-245162034D01*
X-279394196Y-246362034D02*
X-271394196Y-246362034D01*
X-271394196Y-246362034D02*
X-271394196Y-253962034D01*
X-271394196Y-253962034D02*
X-279394196Y-253962034D01*
X-279394196Y-253962034D02*
X-279394196Y-246362034D01*
X-279349196Y-236662034D02*
X-271439196Y-236662034D01*
X-271439196Y-236662034D02*
X-271439196Y-237562034D01*
X-271439196Y-237562034D02*
X-279349196Y-237562034D01*
X-279349196Y-237562034D02*
X-279349196Y-236662034D01*
X-278494196Y-237562034D02*
X-272294196Y-237562034D01*
X-272294196Y-237562034D02*
X-272294196Y-245162034D01*
X-272294196Y-245162034D02*
X-278494196Y-245162034D01*
X-278494196Y-245162034D02*
X-278494196Y-237562034D01*
D14*
%TO.C,SW10*%
X-233546696Y-193932034D02*
X-233546696Y-176632034D01*
D12*
X-232121696Y-185432034D02*
X-234971696Y-185432034D01*
X-234971696Y-185432034D02*
X-234971696Y-184232034D01*
X-234971696Y-184232034D02*
X-232121696Y-184232034D01*
X-232121696Y-184232034D02*
X-232121696Y-185432034D01*
X-229591696Y-193932034D02*
X-237501696Y-193932034D01*
X-237501696Y-193932034D02*
X-237501696Y-193032034D01*
X-237501696Y-193032034D02*
X-229591696Y-193032034D01*
X-229591696Y-193032034D02*
X-229591696Y-193932034D01*
X-230446696Y-193032034D02*
X-236646696Y-193032034D01*
X-236646696Y-193032034D02*
X-236646696Y-185432034D01*
X-236646696Y-185432034D02*
X-230446696Y-185432034D01*
X-230446696Y-185432034D02*
X-230446696Y-193032034D01*
X-229546696Y-184232034D02*
X-237546696Y-184232034D01*
X-237546696Y-184232034D02*
X-237546696Y-176632034D01*
X-237546696Y-176632034D02*
X-229546696Y-176632034D01*
X-229546696Y-176632034D02*
X-229546696Y-184232034D01*
D14*
%TO.C,U12*%
X-186239196Y-181897034D02*
X-186239196Y-193897034D01*
X-212839196Y-181897034D02*
X-212839196Y-193897034D01*
X-172939196Y-194897034D02*
X-172939196Y-182897034D01*
X-244439196Y-187897034D02*
X-166439196Y-187897034D01*
X-233839196Y-188897034D02*
X-166339196Y-188897034D01*
X-199539196Y-194897034D02*
X-199539196Y-182897034D01*
X-239439196Y-192897034D02*
X-239439196Y-182697034D01*
X-226139196Y-194897034D02*
X-226139196Y-182897034D01*
X-234439196Y-187897034D02*
G75*
G03*
X-234439196Y-187897034I-5000000J0D01*
G01*
X-167939196Y-188897034D02*
G75*
G03*
X-167939196Y-188897034I-5000000J0D01*
G01*
X-221139196Y-188897034D02*
G75*
G03*
X-221139196Y-188897034I-5000000J0D01*
G01*
X-181239196Y-187897034D02*
G75*
G03*
X-181239196Y-187897034I-5000000J0D01*
G01*
X-194539196Y-188897034D02*
G75*
G03*
X-194539196Y-188897034I-5000000J0D01*
G01*
X-207839196Y-187897034D02*
G75*
G03*
X-207839196Y-187897034I-5000000J0D01*
G01*
%TO.C,J15*%
X-70889196Y-179947034D02*
X-70889196Y-189697034D01*
X-80389196Y-189697034D02*
X-80389196Y-179947034D01*
D10*
%TO.C,J17*%
X-67119196Y-225297034D02*
X-118119196Y-225297034D01*
X-118119196Y-225297034D02*
X-118119196Y-243797034D01*
X-118119196Y-243797034D02*
X-67119196Y-243797034D01*
X-67119196Y-243797034D02*
X-67119196Y-225297034D01*
X-67119196Y-225297034D02*
X-84619196Y-225297034D01*
X-84619196Y-225297034D02*
X-84619196Y-231797034D01*
X-84619196Y-231797034D02*
X-67119196Y-231797034D01*
X-67119196Y-231797034D02*
X-67119196Y-225297034D01*
X-67119196Y-225297034D02*
X-70119196Y-225297034D01*
X-70119196Y-225297034D02*
X-70119196Y-228297034D01*
X-70119196Y-228297034D02*
X-67119196Y-228297034D01*
X-67119196Y-228297034D02*
X-67119196Y-225297034D01*
X-73989196Y-240122034D02*
X-67119196Y-240122034D01*
X-67119196Y-240122034D02*
X-67119196Y-243797034D01*
X-67119196Y-243797034D02*
X-73989196Y-243797034D01*
X-73989196Y-243797034D02*
X-73989196Y-240122034D01*
D11*
X-74541875Y-225297034D02*
G75*
G03*
X-74541875Y-225297034I-297321J0D01*
G01*
%TD*%
M02*
