M48
; DRILL file {KiCad (6.0.5)} date Fri Jul  1 10:57:45 2022
; FORMAT={-:-/ absolute / inch / decimal}
; #@! TF.CreationDate,2022-07-01T10:57:45+02:00
; #@! TF.GenerationSoftware,Kicad,Pcbnew,(6.0.5)
; #@! TF.FileFunction,Plated,1,2,PTH
FMAT,2
INCH
; #@! TA.AperFunction,Plated,PTH,ViaDrill
T1C0.0118
; #@! TA.AperFunction,Plated,PTH,ViaDrill
T2C0.0157
; #@! TA.AperFunction,Plated,PTH,ComponentDrill
T3C0.0157
; #@! TA.AperFunction,Plated,PTH,ComponentDrill
T4C0.0236
; #@! TA.AperFunction,Plated,PTH,ComponentDrill
T5C0.0315
; #@! TA.AperFunction,Plated,PTH,ComponentDrill
T6C0.0394
; #@! TA.AperFunction,Plated,PTH,ComponentDrill
T7C0.0433
; #@! TA.AperFunction,Plated,PTH,ComponentDrill
T8C0.0472
; #@! TA.AperFunction,Plated,PTH,ComponentDrill
T9C0.0709
; #@! TA.AperFunction,Plated,PTH,ComponentDrill
T10C0.1181
; #@! TA.AperFunction,Plated,PTH,ComponentDrill
T11C0.1661
; #@! TA.AperFunction,Plated,PTH,ComponentDrill
T12C0.2520
%
G90
G05
T1
X-5.0606Y-8.0786
X-4.9032Y-8.0786
X-4.7457Y-8.0786
X-4.5882Y-8.0786
X-4.4307Y-8.0786
X-4.2732Y-8.0786
X-4.1158Y-8.0786
X-3.9583Y-8.0786
X-3.8008Y-8.0786
X-3.6433Y-8.0786
X-3.4858Y-8.0786
X-3.3284Y-8.0786
T2
X-11.7456Y-8.4408
X-11.6197Y-8.24
X-11.5291Y-8.433
X-11.4504Y-8.0983
X-11.3992Y-8.3739
X-11.2102Y-8.1416
X-11.0335Y-8.1057
X-10.9937Y-7.9841
X-10.9902Y-8.1534
X-10.974Y-8.1022
X-10.722Y-8.1613
X-10.6511Y-8.0235
X-10.5645Y-7.6101
X-10.5253Y-7.6133
X-10.5015Y-7.803
X-10.4824Y-8.3739
X-10.3935Y-7.622
X-10.3918Y-8.3424
X-10.3677Y-7.9841
X-10.3441Y-8.0983
X-10.3362Y-7.8896
X-10.3131Y-8.307
X-10.2417Y-7.6889
X-10.2181Y-7.6495
X-10.2084Y-8.0603
X-10.1672Y-7.7833
X-10.1354Y-8.0944
X-10.1236Y-7.7282
X-10.096Y-7.6298
X-10.0803Y-7.5629
X-9.9403Y-7.8042
X-9.9149Y-8.0432
X-9.9069Y-7.7833
X-9.8711Y-7.724
X-9.848Y-7.7558
X-9.8362Y-7.6889
X-9.722Y-8.4015
X-9.6905Y-7.4566
X-9.6905Y-7.681
X-9.6354Y-7.3109
X-9.3756Y-7.9684
X-9.2614Y-7.9015
X-9.1708Y-7.5471
X-8.9819Y-7.8582
X-8.9071Y-7.9999
X-8.8554Y-9.433
X-8.8514Y-9.5353
X-8.7845Y-9.4881
X-8.749Y-9.4501
X-8.6197Y-7.5393
X-8.0921Y-7.5511
X-7.596Y-7.5471
X-7.533Y-7.6652
X-7.1787Y-7.8306
X-7.1664Y-9.3345
X-7.0522Y-9.5944
X-6.9774Y-9.4959
X-6.8396Y-9.5865
X-6.7333Y-9.4841
X-6.5759Y-9.4448
X-6.4932Y-9.1652
X-6.2885Y-9.177
X-6.2845Y-9.2558
X-6.1585Y-8.6298
X-6.1565Y-7.5273
X-6.1388Y-9.3385
X-6.0877Y-8.6849
X-6.0483Y-8.6298
X-6.0483Y-9.0156
X-6.0168Y-9.2125
X-5.9893Y-9.0595
X-5.9893Y-9.1613
X-5.8834Y-9.4999
X-5.8514Y-9.5904
X-5.8244Y-7.3503
X-5.816Y-9.5589
X-5.7688Y-9.1495
X-5.7609Y-9.5786
X-5.7373Y-9.1219
X-5.7313Y-7.7044
X-5.6979Y-9.555
X-5.6951Y-8.8754
X-5.663Y-7.3148
X-5.6507Y-9.3621
X-5.6507Y-9.4172
X-5.631Y-8.8503
X-5.6143Y-9.3315
X-5.6113Y-9.3896
X-5.5252Y-8.992
X-5.4765Y-8.809
X-5.4405Y-8.74
X-5.4239Y-8.7835
X-5.4233Y-8.6337
X-5.411Y-9.1337
X-5.411Y-9.5353
X-5.4051Y-8.8188
X-5.3893Y-8.8621
X-5.3849Y-7.543
X-5.3849Y-7.6218
X-5.3691Y-7.2714
X-5.3598Y-8.6456
X-5.348Y-9.0038
X-5.2117Y-7.4288
X-5.1866Y-9.5235
X-5.1393Y-7.5432
X-4.5406Y-9.4645
X-4.4417Y-9.4133
X-4.3393Y-9.3818
X-4.066Y-7.2674
X-4.0384Y-7.7005
X-4.0244Y-7.5606
X-3.9951Y-7.1099
X-3.9754Y-7.8304
X-3.9636Y-7.7595
X-3.9496Y-8.9841
X-3.9282Y-7.1808
X-3.922Y-9.2204
X-3.9164Y-7.106
X-3.8849Y-7.4446
X-3.8475Y-8.9684
X-3.8039Y-8.992
X-3.7983Y-7.8225
X-3.7412Y-8.9841
X-3.7313Y-7.1454
X-3.7156Y-7.8107
X-3.6625Y-9.1456
X-3.6464Y-8.9999
X-3.6113Y-9.244
X-3.5952Y-9.3503
X-3.5284Y-7.3598
X-3.4912Y-7.6729
X-3.4676Y-7.1218
X-3.4636Y-7.8462
X-3.3236Y-9.5904
X-3.2653Y-7.2676
X-3.2378Y-7.7007
X-3.2237Y-7.5608
X-3.1945Y-7.1101
X-3.1748Y-7.8306
X-3.163Y-7.7597
X-3.1275Y-7.181
X-3.1157Y-7.1062
X-3.0842Y-7.4448
X-2.9976Y-7.8227
X-2.9307Y-7.1456
X-2.9149Y-7.8109
X-2.7277Y-7.36
X-2.6905Y-7.6731
X-2.6669Y-7.1219
X-2.663Y-7.8463
X-2.5834Y-9.4566
X-2.346Y-9.5707
X-2.2252Y-9.2873
X-2.1964Y-8.9251
X-2.069Y-9.5865
X-2.0252Y-9.37
X-1.8598Y-9.0078
X-1.8303Y-9.5826
X-1.7422Y-9.2715
T3
X-4.0975Y-7.0351
X-4.0266Y-7.0351
X-3.9558Y-7.0351
X-3.8849Y-7.0351
X-3.814Y-7.0351
X-3.7432Y-7.0351
X-3.6723Y-7.0351
X-3.6014Y-7.0351
X-3.5306Y-7.0351
X-3.4597Y-7.0351
X-3.2968Y-7.0353
X-3.226Y-7.0353
X-3.1551Y-7.0353
X-3.0842Y-7.0353
X-3.0134Y-7.0353
X-2.9425Y-7.0353
X-2.8716Y-7.0353
X-2.8008Y-7.0353
X-2.7299Y-7.0353
X-2.659Y-7.0353
T5
X-8.7415Y-8.6418
X-8.7415Y-8.9418
X-8.6415Y-8.6418
X-8.6415Y-8.9418
X-8.5415Y-8.6418
X-8.5415Y-8.9418
X-8.4415Y-8.6418
X-8.4415Y-8.9418
T6
X-6.2353Y-7.4092
X-6.2353Y-7.5092
X-5.9313Y-7.1532
X-5.8313Y-7.1532
X-5.7313Y-7.1532
X-5.6313Y-7.1532
X-5.5313Y-7.1532
X-5.4313Y-7.1532
X-5.3313Y-7.1532
X-5.2313Y-7.1532
X-5.1313Y-7.1532
X-5.0313Y-7.1532
X-4.9313Y-7.1532
X-4.8313Y-7.1532
X-4.7313Y-7.1532
X-4.6313Y-7.1532
X-4.5313Y-7.8816
X-4.4313Y-7.8816
X-4.3313Y-7.8816
X-4.2274Y-7.4092
X-4.2274Y-7.5092
T7
X-9.4548Y-7.7123
X-9.4548Y-7.8123
X-8.4115Y-7.7107
X-8.4115Y-7.8107
T8
X-3.877Y-7.232
X-3.877Y-7.3304
X-3.877Y-7.5765
X-3.7786Y-7.232
X-3.7786Y-7.3304
X-3.6802Y-7.232
X-3.6802Y-7.3304
X-3.6802Y-7.5765
X-3.0763Y-7.2322
X-3.0763Y-7.3306
X-3.0763Y-7.5767
X-2.9779Y-7.2322
X-2.9779Y-7.3306
X-2.8795Y-7.2322
X-2.8795Y-7.3306
X-2.8795Y-7.5767
T9
X-11.472Y-8.6883
X-11.472Y-8.7883
X-11.472Y-8.8883
X-10.8421Y-8.6095
X-10.8421Y-8.7095
X-10.8421Y-8.8095
X-9.661Y-8.6095
X-9.661Y-8.7095
X-9.661Y-8.8095
X-9.1949Y-8.143
X-9.1949Y-8.243
X-9.1949Y-8.343
X-9.0311Y-8.6883
X-9.0311Y-8.7883
X-9.0311Y-8.8883
X-8.1477Y-8.143
X-8.1477Y-8.243
X-8.1477Y-8.343
X-7.565Y-8.143
X-7.565Y-8.243
X-7.565Y-8.343
T10
X-6.1172Y-7.2714
X-5.5463Y-7.4092
X-3.3315Y-9.1259
X-2.7606Y-8.9881
T11
X-6.5316Y-8.9448
T12
X-9.4267Y-7.3975
X-8.9031Y-7.4369
X-8.3795Y-7.3975
X-7.8559Y-7.4369
X-7.3323Y-7.3975
X-6.8086Y-7.4369
T4
G00X-8.3717Y-9.1704
M15
G01X-8.3411Y-9.1398
M16
G05
G00X-8.2144Y-9.3277
M15
G01X-8.1838Y-9.2971
M16
G05
G00X-8.2116Y-9.2192
M15
G01X-8.181Y-9.1885
M16
G05
G00X-8.0557Y-9.3751
M15
G01X-8.0251Y-9.3444
M16
G05
G00X-8.0432Y-9.4989
M15
G01X-8.0126Y-9.4683
M16
G05
G00X-7.6827Y-9.1704
M15
G01X-7.6521Y-9.1398
M16
G05
G00X-7.5254Y-9.3277
M15
G01X-7.4948Y-9.2971
M16
G05
G00X-7.5226Y-9.2192
M15
G01X-7.492Y-9.1885
M16
G05
G00X-7.3667Y-9.3751
M15
G01X-7.3361Y-9.3444
M16
G05
G00X-7.3542Y-9.4989
M15
G01X-7.3236Y-9.4683
M16
G05
G00X-6.3835Y-9.1704
M15
G01X-6.3529Y-9.1398
M16
G05
G00X-6.2262Y-9.3277
M15
G01X-6.1956Y-9.2971
M16
G05
G00X-6.2234Y-9.2192
M15
G01X-6.1928Y-9.1885
M16
G05
G00X-6.1349Y-7.593
M15
G01X-6.1349Y-7.6363
M16
G05
G00X-6.1349Y-7.7674
M15
G01X-6.1349Y-7.791
M16
G05
G00X-6.0675Y-9.3751
M15
G01X-6.0369Y-9.3444
M16
G05
G00X-6.055Y-9.4989
M15
G01X-6.0244Y-9.4683
M16
G05
G00X-5.7947Y-7.593
M15
G01X-5.7947Y-7.6363
M16
G05
G00X-5.7947Y-7.7674
M15
G01X-5.7947Y-7.791
M16
G05
T6
G00X-3.083Y-9.353
M15
G01X-3.083Y-9.3097
M16
G05
G00X-3.083Y-9.5078
M15
G01X-3.083Y-9.4841
M16
G05
G00X-2.7429Y-9.353
M15
G01X-2.7429Y-9.3097
M16
G05
G00X-2.7429Y-9.5078
M15
G01X-2.7429Y-9.4841
M16
G05
T0
M30
