%TF.GenerationSoftware,KiCad,Pcbnew,(6.0.5)*%
%TF.CreationDate,2022-07-01T10:57:45+02:00*%
%TF.ProjectId,clarinoid-bodytest,636c6172-696e-46f6-9964-2d626f647974,rev?*%
%TF.SameCoordinates,Original*%
%TF.FileFunction,Soldermask,Bot*%
%TF.FilePolarity,Negative*%
%FSLAX46Y46*%
G04 Gerber Fmt 4.6, Leading zero omitted, Abs format (unit mm)*
G04 Created by KiCad (PCBNEW (6.0.5)) date 2022-07-01 10:57:45*
%MOMM*%
%LPD*%
G01*
G04 APERTURE LIST*
G04 Aperture macros list*
%AMHorizOval*
0 Thick line with rounded ends*
0 $1 width*
0 $2 $3 position (X,Y) of the first rounded end (center of the circle)*
0 $4 $5 position (X,Y) of the second rounded end (center of the circle)*
0 Add line between two ends*
20,1,$1,$2,$3,$4,$5,0*
0 Add two circle primitives to create the rounded ends*
1,1,$1,$2,$3*
1,1,$1,$4,$5*%
G04 Aperture macros list end*
%ADD10C,9.000000*%
%ADD11C,2.700000*%
%ADD12C,1.800000*%
%ADD13O,1.200000X2.000000*%
%ADD14O,3.000000X2.150000*%
%ADD15C,2.390000*%
%ADD16C,3.450000*%
%ADD17R,1.600000X1.600000*%
%ADD18C,1.600000*%
%ADD19C,0.650000*%
%ADD20O,1.000000X2.100000*%
%ADD21O,1.000000X1.600000*%
%ADD22C,6.500000*%
%ADD23C,6.200000*%
%ADD24C,1.000000*%
%ADD25C,7.000000*%
%ADD26O,1.700000X2.200000*%
%ADD27O,2.200000X1.700000*%
%ADD28C,4.000000*%
%ADD29C,7.500000*%
%ADD30C,1.650000*%
%ADD31C,1.150000*%
%ADD32HorizOval,1.700000X0.388909X0.388909X-0.388909X-0.388909X0*%
%ADD33C,8.500000*%
%ADD34O,1.600000X1.600000*%
%ADD35R,1.700000X2.800000*%
%ADD36R,2.800000X1.700000*%
%ADD37O,1.400000X2.500000*%
%ADD38O,1.400000X2.000000*%
%ADD39C,0.800000*%
%ADD40C,0.600000*%
G04 APERTURE END LIST*
D10*
X-255894196Y-244197034D02*
G75*
G03*
X-255894196Y-244197034I-4500000J0D01*
G01*
D11*
%TO.C,H8*%
X-48339196Y-192197034D03*
%TD*%
D12*
%TO.C,R21*%
X-93476207Y-192442523D03*
X-98476207Y-192442523D03*
X-93476207Y-186192523D03*
X-95976207Y-186192523D03*
X-98476207Y-186192523D03*
X-93476207Y-183692523D03*
X-95976207Y-183692523D03*
X-98476207Y-183692523D03*
%TD*%
D13*
%TO.C,J15*%
X-104076207Y-178692523D03*
X-102276207Y-178692523D03*
X-100476207Y-178692523D03*
X-98676207Y-178692523D03*
X-96876207Y-178692523D03*
X-95076207Y-178692523D03*
X-93276207Y-178692523D03*
X-91476207Y-178692523D03*
X-89676207Y-178692523D03*
X-87876207Y-178692523D03*
%TD*%
D11*
%TO.C,H7*%
X-201251696Y-231197034D03*
%TD*%
%TO.C,H3*%
X-66139196Y-208697034D03*
%TD*%
D12*
%TO.C,SW2*%
X-293929196Y-238462034D03*
X-288849196Y-238462034D03*
D14*
X-291389196Y-220682034D03*
X-291389196Y-223222034D03*
X-291389196Y-225762034D03*
%TD*%
D11*
%TO.C,H5*%
X-46251696Y-231197034D03*
%TD*%
D12*
%TO.C,SW11*%
X-209491696Y-194132034D03*
X-204411696Y-194132034D03*
D14*
X-206951696Y-211912034D03*
X-206951696Y-209372034D03*
X-206951696Y-206832034D03*
%TD*%
D15*
%TO.C,BT1*%
X-57539196Y-239197034D03*
D16*
X-121069196Y-239197034D03*
X-65869196Y-223197034D03*
%TD*%
D17*
%TO.C,SW7*%
X-213652477Y-195851545D03*
D18*
X-213652477Y-198391545D03*
%TD*%
D19*
%TO.C,J5*%
X-148616207Y-193912523D03*
X-154396207Y-193912523D03*
D20*
X-155826207Y-193412523D03*
D21*
X-147186207Y-197592523D03*
D20*
X-147186207Y-193412523D03*
D21*
X-155826207Y-197592523D03*
%TD*%
D22*
%TO.C,U16*%
X-246851696Y-201897034D03*
%TD*%
D12*
%TO.C,SW5*%
X-226849196Y-238462034D03*
X-231929196Y-238462034D03*
D14*
X-229389196Y-220682034D03*
X-229389196Y-223222034D03*
X-229389196Y-225762034D03*
%TD*%
D12*
%TO.C,SW4*%
X-242849196Y-236462034D03*
X-247929196Y-236462034D03*
D14*
X-245389196Y-218682034D03*
X-245389196Y-221222034D03*
X-245389196Y-223762034D03*
%TD*%
D23*
%TO.C,H1*%
X-165901696Y-227197034D03*
%TD*%
D11*
%TO.C,H9*%
X-199539196Y-201392034D03*
%TD*%
D24*
%TO.C,J11*%
X-132451207Y-196242523D03*
X-124451207Y-196242523D03*
%TD*%
D25*
%TO.C,J19*%
X-175751696Y-225597034D03*
%TD*%
D11*
%TO.C,H11*%
X-254751696Y-201391545D03*
%TD*%
D26*
%TO.C,J13*%
X-150656207Y-181692523D03*
X-148116207Y-181692523D03*
X-145576207Y-181692523D03*
X-143036207Y-181692523D03*
X-140496207Y-181692523D03*
X-137956207Y-181692523D03*
X-135416207Y-181692523D03*
X-132876207Y-181692523D03*
X-130336207Y-181692523D03*
X-127796207Y-181692523D03*
X-125256207Y-181692523D03*
X-122716207Y-181692523D03*
X-120176207Y-181692523D03*
X-117636207Y-181692523D03*
X-115096207Y-200192523D03*
X-112556207Y-200192523D03*
X-110016207Y-200192523D03*
D27*
X-158376207Y-188192523D03*
X-158376207Y-190732523D03*
X-107376207Y-188192523D03*
X-107376207Y-190732523D03*
D28*
X-140876207Y-188192523D03*
X-155376207Y-184692523D03*
%TD*%
D11*
%TO.C,H2*%
X-147639196Y-208697034D03*
%TD*%
%TO.C,H4*%
X-283251696Y-231197034D03*
%TD*%
%TO.C,H10*%
X-296501696Y-201391545D03*
%TD*%
D29*
%TO.C,U18*%
X-167139196Y-204391545D03*
%TD*%
D17*
%TO.C,SW9*%
X-240152477Y-195891545D03*
D18*
X-240152477Y-198431545D03*
%TD*%
D12*
%TO.C,SW12*%
X-194691696Y-194132034D03*
X-189611696Y-194132034D03*
D14*
X-192151696Y-211912034D03*
X-192151696Y-209372034D03*
X-192151696Y-206832034D03*
%TD*%
D12*
%TO.C,SW3*%
X-277929196Y-236462034D03*
X-272849196Y-236462034D03*
D14*
X-275389196Y-218682034D03*
X-275389196Y-221222034D03*
X-275389196Y-223762034D03*
%TD*%
D30*
%TO.C,U2*%
X-145901696Y-241197034D03*
D31*
X-145901696Y-221197034D03*
%TD*%
D22*
%TO.C,U15*%
X-220251696Y-201897034D03*
%TD*%
D12*
%TO.C,SW10*%
X-231011696Y-194132034D03*
X-236091696Y-194132034D03*
D14*
X-233551696Y-211912034D03*
X-233551696Y-209372034D03*
X-233551696Y-206832034D03*
%TD*%
D32*
%TO.C,J4*%
X-203907836Y-240884040D03*
X-204226034Y-237737415D03*
X-208256543Y-236535333D03*
X-208185832Y-233777617D03*
X-212251696Y-232540180D03*
%TD*%
%TO.C,J3*%
X-186407836Y-240884040D03*
X-186726034Y-237737415D03*
X-190756543Y-236535333D03*
X-190685832Y-233777617D03*
X-194751696Y-232540180D03*
%TD*%
D33*
%TO.C,U12*%
X-239439196Y-187897034D03*
X-226139196Y-188897034D03*
X-212839196Y-187897034D03*
X-199539196Y-188897034D03*
X-186239196Y-187897034D03*
X-172939196Y-188897034D03*
%TD*%
D17*
%TO.C,U6*%
X-214414196Y-227122034D03*
D34*
X-216954196Y-227122034D03*
X-219494196Y-227122034D03*
X-222034196Y-227122034D03*
X-222034196Y-219502034D03*
X-219494196Y-219502034D03*
X-216954196Y-219502034D03*
X-214414196Y-219502034D03*
%TD*%
D32*
%TO.C,J16*%
X-153407836Y-240884040D03*
X-153726034Y-237737415D03*
X-157756543Y-236535333D03*
X-157685832Y-233777617D03*
X-161751696Y-232540180D03*
%TD*%
D13*
%TO.C,J15*%
X-67539196Y-178697034D03*
X-69339196Y-178697034D03*
X-71139196Y-178697034D03*
X-72939196Y-178697034D03*
X-74739196Y-178697034D03*
X-76539196Y-178697034D03*
X-78339196Y-178697034D03*
X-80139196Y-178697034D03*
X-81939196Y-178697034D03*
X-83739196Y-178697034D03*
%TD*%
D12*
%TO.C,R21*%
X-78139196Y-183697034D03*
X-75639196Y-183697034D03*
X-73139196Y-183697034D03*
X-78139196Y-186197034D03*
X-75639196Y-186197034D03*
X-73139196Y-186197034D03*
X-78139196Y-192447034D03*
X-73139196Y-192447034D03*
%TD*%
D35*
%TO.C,J17*%
X-74839196Y-225297034D03*
X-77379196Y-225297034D03*
X-79919196Y-225297034D03*
X-82459196Y-225297034D03*
X-84999196Y-225297034D03*
X-87539196Y-225297034D03*
X-90079196Y-225297034D03*
X-92619196Y-225297034D03*
X-95159196Y-225297034D03*
X-97699196Y-225297034D03*
X-100239196Y-225297034D03*
X-102779196Y-225297034D03*
X-105319196Y-225297034D03*
X-107859196Y-225297034D03*
X-110399196Y-243797034D03*
X-112939196Y-243797034D03*
X-115479196Y-243797034D03*
D36*
X-67119196Y-231797034D03*
X-67119196Y-234337034D03*
X-118119196Y-231797034D03*
X-118119196Y-234337034D03*
D28*
X-84619196Y-231797034D03*
D37*
X-69669196Y-237017034D03*
X-78309196Y-237017034D03*
D38*
X-69669196Y-241197034D03*
X-78309196Y-241197034D03*
D28*
X-70119196Y-228297034D03*
%TD*%
D39*
X-88076207Y-180892523D03*
X-99476207Y-180492523D03*
X-100676207Y-197092523D03*
X-94776207Y-181492523D03*
X-99776207Y-182392523D03*
X-98676207Y-189092523D03*
X-96476207Y-198692523D03*
X-101476207Y-180592523D03*
X-87976207Y-199292523D03*
X-103276207Y-184592523D03*
X-100976207Y-198892523D03*
X-102220194Y-192039016D03*
X-102576207Y-195592523D03*
X-88676207Y-194892523D03*
X-94376707Y-198392523D03*
X-89620194Y-186939016D03*
X-59589196Y-243097034D03*
X-140339196Y-228397034D03*
X-51439196Y-237997034D03*
X-135839196Y-228697034D03*
X-131739196Y-241897034D03*
X-99619196Y-234197034D03*
X-149439196Y-241297034D03*
X-47239196Y-228797034D03*
X-46489196Y-243397034D03*
X-65619196Y-240197034D03*
X-137439196Y-231997034D03*
X-136139196Y-219597034D03*
X-137439196Y-242197034D03*
X-96619196Y-228397034D03*
X-55789196Y-226697034D03*
X-92619196Y-228597034D03*
X-223126696Y-240997034D03*
X-156426696Y-219197034D03*
X-224826696Y-242197034D03*
X-153626696Y-219197034D03*
X-137289196Y-223997034D03*
X-182026696Y-237097034D03*
X-167026696Y-239897034D03*
X-295139196Y-209297034D03*
X-289539196Y-212697034D03*
X-284739196Y-206797034D03*
X-205539196Y-191797034D03*
X-246939196Y-213397034D03*
X-226239196Y-203197034D03*
X-228139196Y-199597034D03*
X-279239196Y-202797034D03*
X-262539196Y-200397034D03*
X-298339196Y-214397034D03*
X-256039196Y-192097034D03*
X-256439196Y-193797034D03*
X-262739196Y-205697034D03*
X-278739196Y-205797034D03*
X-246139196Y-189397034D03*
X-292839196Y-214197034D03*
X-192939196Y-191697034D03*
X-272339196Y-207297034D03*
X-290839196Y-205697034D03*
X-232939196Y-191697034D03*
X-218939196Y-191497034D03*
X-182339196Y-198897034D03*
X-235239196Y-200697034D03*
X-238139196Y-202397034D03*
X-191339196Y-194697034D03*
X-244739196Y-185697034D03*
X-74039696Y-198397034D03*
X-68339196Y-194897034D03*
X-79139196Y-180497034D03*
X-80339196Y-197097034D03*
X-76139196Y-198697034D03*
X-74439196Y-181497034D03*
X-80639196Y-198897034D03*
X-67639196Y-199297034D03*
X-82239196Y-195597034D03*
X-81139196Y-180597034D03*
X-79439196Y-182397034D03*
X-81883183Y-192043527D03*
X-69283183Y-186943527D03*
X-82939196Y-184597034D03*
X-78339196Y-189097034D03*
X-67739196Y-180897034D03*
X-154626696Y-220597034D03*
X-139103592Y-223747534D03*
X-137751696Y-219297034D03*
X-258247097Y-197696534D03*
X-279151696Y-207097034D03*
X-280251696Y-205883534D03*
X-263339196Y-202797034D03*
X-251839196Y-204297034D03*
X-251634656Y-197696534D03*
X-257439196Y-205597034D03*
D40*
X-128540174Y-205197034D03*
X-84540174Y-205197034D03*
D39*
X-56519196Y-235897034D03*
X-156376207Y-191192523D03*
X-145576207Y-195692523D03*
X-143839196Y-185797034D03*
X-147939196Y-186697034D03*
X-224926696Y-239597034D03*
X-222225161Y-240032394D03*
X-177226696Y-241197034D03*
X-171026696Y-240897034D03*
X-146326696Y-243297034D03*
X-144655017Y-225436111D03*
X-173726696Y-243497034D03*
X-144726696Y-242697034D03*
X-179126696Y-243697034D03*
X-143026696Y-224797034D03*
X-246139196Y-195097034D03*
X-266739196Y-198197034D03*
X-249839196Y-195297034D03*
X-259539196Y-194297034D03*
X-267343036Y-193378204D03*
X-268339196Y-193296534D03*
X-270539196Y-203797034D03*
X-259294178Y-204731295D03*
X-257139196Y-196297034D03*
X-250726743Y-196188459D03*
X-138189196Y-221997034D03*
X-137767800Y-223100627D03*
D40*
X-88540174Y-205197034D03*
X-92540174Y-205197034D03*
X-96540174Y-205197034D03*
X-100540174Y-205197034D03*
X-104540174Y-205197034D03*
X-108540174Y-205197034D03*
X-112540174Y-205197034D03*
X-116540174Y-205197034D03*
X-120540174Y-205197034D03*
X-124540174Y-205197034D03*
D39*
X-97726696Y-227797034D03*
X-91726696Y-234797034D03*
X-143526696Y-239197034D03*
X-143526696Y-237797034D03*
X-93026696Y-232297034D03*
X-95026696Y-228197034D03*
X-142603815Y-237019915D03*
X-142526696Y-238497034D03*
X-152127196Y-232697034D03*
X-152127196Y-230110069D03*
X-152826696Y-233997034D03*
X-153626696Y-228997034D03*
X-250139196Y-196997034D03*
X-260139196Y-195297034D03*
X-252482720Y-198225488D03*
X-263995117Y-193597534D03*
X-147726696Y-242797034D03*
X-145726696Y-231697034D03*
X-148626696Y-243597034D03*
X-146526696Y-232397034D03*
X-266252469Y-212697534D03*
X-263951696Y-211897034D03*
X-261951696Y-210997034D03*
X-132376207Y-188692523D03*
X-136376207Y-184692523D03*
X-130539196Y-191597034D03*
X-91319196Y-237497034D03*
X-84419196Y-243597034D03*
X-100319196Y-228197034D03*
X-136889196Y-225097034D03*
X-110219196Y-238297034D03*
X-112819196Y-239097034D03*
X-115330453Y-240397534D03*
X-136776207Y-191592523D03*
X-136776207Y-193592523D03*
X-44251696Y-235497034D03*
X-52551696Y-243497034D03*
X-164926696Y-232797034D03*
X-159726696Y-233097034D03*
X-155926696Y-237197034D03*
X-159626696Y-235097034D03*
M02*
