M48
; DRILL file {KiCad (6.0.5)} date Fri Jul  1 10:57:45 2022
; FORMAT={-:-/ absolute / inch / decimal}
; #@! TF.CreationDate,2022-07-01T10:57:45+02:00
; #@! TF.GenerationSoftware,Kicad,Pcbnew,(6.0.5)
; #@! TF.FileFunction,NonPlated,1,2,NPTH
FMAT,2
INCH
; #@! TA.AperFunction,NonPlated,NPTH,ComponentDrill
T1C0.0256
; #@! TA.AperFunction,NonPlated,NPTH,ComponentDrill
T2C0.0394
; #@! TA.AperFunction,NonPlated,NPTH,ComponentDrill
T3C0.0453
; #@! TA.AperFunction,NonPlated,NPTH,ComponentDrill
T4C0.0650
; #@! TA.AperFunction,NonPlated,NPTH,ComponentDrill
T5C0.0709
; #@! TA.AperFunction,NonPlated,NPTH,ComponentDrill
T6C0.0941
; #@! TA.AperFunction,NonPlated,NPTH,ComponentDrill
T7C0.1063
; #@! TA.AperFunction,NonPlated,NPTH,ComponentDrill
T8C0.1358
; #@! TA.AperFunction,NonPlated,NPTH,ComponentDrill
T9C0.2559
; #@! TA.AperFunction,NonPlated,NPTH,ComponentDrill
T10C0.2756
; #@! TA.AperFunction,NonPlated,NPTH,ComponentDrill
T11C0.2953
%
G90
G05
T1
X-6.0786Y-7.6344
X-5.851Y-7.6344
T2
X-5.2146Y-7.7261
X-4.8997Y-7.7261
T3
X-5.7442Y-8.7085
T4
X-5.7442Y-9.4959
T5
X-11.572Y-9.3883
X-11.372Y-9.3883
X-10.9421Y-9.3095
X-10.7421Y-9.3095
X-9.761Y-9.3095
X-9.561Y-9.3095
X-9.2949Y-7.643
X-9.1311Y-9.3883
X-9.0949Y-7.643
X-8.9311Y-9.3883
X-8.2477Y-7.643
X-8.0477Y-7.643
X-7.665Y-7.643
X-7.465Y-7.643
T6
X-2.2653Y-9.4172
T7
X-11.6733Y-7.9288
X-11.1516Y-9.1022
X-10.0296Y-7.9288
X-7.9233Y-9.1022
X-7.8559Y-7.9288
X-5.8126Y-8.2164
X-2.6039Y-8.2164
X-1.9031Y-7.5668
X-1.8209Y-9.1022
T8
X-4.7665Y-9.4172
X-2.5933Y-8.7873
T9
X-9.7186Y-7.9487
X-8.6713Y-7.9487
T10
X-6.9194Y-8.8818
T11
X-6.5803Y-8.0469
T0
M30
