%TF.GenerationSoftware,KiCad,Pcbnew,(6.0.5)*%
%TF.CreationDate,2022-07-01T10:57:45+02:00*%
%TF.ProjectId,clarinoid-bodytest,636c6172-696e-46f6-9964-2d626f647974,rev?*%
%TF.SameCoordinates,Original*%
%TF.FileFunction,Profile,NP*%
%FSLAX46Y46*%
G04 Gerber Fmt 4.6, Leading zero omitted, Abs format (unit mm)*
G04 Created by KiCad (PCBNEW (6.0.5)) date 2022-07-01 10:57:45*
%MOMM*%
%LPD*%
G01*
G04 APERTURE LIST*
%TA.AperFunction,Profile*%
%ADD10C,0.100000*%
%TD*%
G04 APERTURE END LIST*
D10*
X-42339196Y-190197034D02*
G75*
G03*
X-43339196Y-189197034I-999999J1D01*
G01*
X-53339196Y-189197020D02*
G75*
G03*
X-54339196Y-190197034I7J-1000007D01*
G01*
X-43339196Y-214697034D02*
G75*
G03*
X-42339196Y-213697034I1J999999D01*
G01*
X-42339196Y-190197034D02*
X-42339196Y-213697034D01*
X-54339196Y-213697034D02*
X-54339196Y-190197034D01*
X-54339196Y-213697034D02*
G75*
G03*
X-53339196Y-214697034I1000007J7D01*
G01*
X-43339196Y-214697034D02*
X-53339196Y-214697034D01*
X-53339196Y-189197034D02*
X-43339196Y-189197034D01*
X-86876207Y-200192523D02*
X-104876207Y-200192523D01*
X-104876207Y-200192523D02*
X-104876207Y-178692523D01*
X-104876207Y-178692523D02*
X-86876207Y-178692523D01*
X-86876207Y-178692523D02*
X-86876207Y-200192523D01*
X-62639196Y-203697034D02*
X-62639196Y-213697034D01*
X-42339196Y-217197034D02*
X-42339196Y-245197034D01*
X-243839196Y-183397034D02*
X-163339196Y-183397034D01*
X-158376207Y-198692523D02*
X-158376207Y-183192523D01*
X-268394196Y-245197034D02*
G75*
G03*
X-267394196Y-244197034I1J999999D01*
G01*
X-300339196Y-217197034D02*
X-42339196Y-217197034D01*
X-300339196Y-214397034D02*
G75*
G03*
X-299339196Y-215397034I999999J-1D01*
G01*
X-268394196Y-245197034D02*
X-300339196Y-245197034D01*
X-160839196Y-214397034D02*
X-160839196Y-185897034D01*
X-157339196Y-202697034D02*
X-63639196Y-202697034D01*
X-158376207Y-198692523D02*
G75*
G03*
X-156876207Y-200192523I1500001J1D01*
G01*
X-66539196Y-200197034D02*
X-84539196Y-200197034D01*
X-84539196Y-200197034D02*
X-84539196Y-178697034D01*
X-84539196Y-178697034D02*
X-66539196Y-178697034D01*
X-66539196Y-178697034D02*
X-66539196Y-200197034D01*
X-107376207Y-183192523D02*
X-107376207Y-198692523D01*
X-247839196Y-187397034D02*
G75*
G03*
X-246339196Y-185897034I-1J1500001D01*
G01*
X-157339196Y-202697034D02*
G75*
G03*
X-158339196Y-203697034I-1J-999999D01*
G01*
X-158339196Y-213697034D02*
X-158339196Y-203697034D01*
X-300339196Y-245197034D02*
X-300339196Y-217197034D01*
X-246339196Y-185897034D02*
X-246339196Y-185897034D01*
X-107376207Y-183192523D02*
G75*
G03*
X-108876207Y-181692523I-1500001J-1D01*
G01*
X-158339196Y-213697034D02*
G75*
G03*
X-157339196Y-214697034I999999J-1D01*
G01*
X-42339196Y-245197034D02*
X-252394196Y-245197034D01*
X-243839196Y-183397034D02*
G75*
G03*
X-246339196Y-185897034I0J-2500000D01*
G01*
X-160839196Y-185897034D02*
G75*
G03*
X-163339196Y-183397034I-2500000J0D01*
G01*
X-299339196Y-187397034D02*
X-247839196Y-187397034D01*
X-62639196Y-203697034D02*
G75*
G03*
X-63639196Y-202697034I-999999J1D01*
G01*
X-156876207Y-181692523D02*
G75*
G03*
X-158376207Y-183192523I1J-1500001D01*
G01*
X-161839196Y-215397034D02*
X-299339196Y-215397034D01*
X-253394196Y-244197034D02*
G75*
G03*
X-252394196Y-245197034I999999J-1D01*
G01*
X-300339196Y-214397034D02*
X-300339196Y-188397034D01*
X-156876207Y-181692523D02*
X-108876207Y-181692523D01*
X-161839196Y-215397034D02*
G75*
G03*
X-160839196Y-214397034I1J999999D01*
G01*
X-108876207Y-200192523D02*
X-156876207Y-200192523D01*
X-108876207Y-200192523D02*
G75*
G03*
X-107376207Y-198692523I-1J1500001D01*
G01*
X-63639196Y-214697034D02*
X-157339196Y-214697034D01*
X-63639196Y-214697034D02*
G75*
G03*
X-62639196Y-213697034I1J999999D01*
G01*
X-299339196Y-187397034D02*
G75*
G03*
X-300339196Y-188397034I-1J-999999D01*
G01*
X-253394196Y-244197034D02*
G75*
G03*
X-267394196Y-244197034I-7000000J0D01*
G01*
M02*
