%TF.GenerationSoftware,KiCad,Pcbnew,(6.0.5)*%
%TF.CreationDate,2022-06-18T00:07:38+02:00*%
%TF.ProjectId,clarinoid-devboard,636c6172-696e-46f6-9964-2d646576626f,rev?*%
%TF.SameCoordinates,Original*%
%TF.FileFunction,Soldermask,Bot*%
%TF.FilePolarity,Negative*%
%FSLAX46Y46*%
G04 Gerber Fmt 4.6, Leading zero omitted, Abs format (unit mm)*
G04 Created by KiCad (PCBNEW (6.0.5)) date 2022-06-18 00:07:38*
%MOMM*%
%LPD*%
G01*
G04 APERTURE LIST*
G04 Aperture macros list*
%AMHorizOval*
0 Thick line with rounded ends*
0 $1 width*
0 $2 $3 position (X,Y) of the first rounded end (center of the circle)*
0 $4 $5 position (X,Y) of the second rounded end (center of the circle)*
0 Add line between two ends*
20,1,$1,$2,$3,$4,$5,0*
0 Add two circle primitives to create the rounded ends*
1,1,$1,$2,$3*
1,1,$1,$4,$5*%
%AMRotRect*
0 Rectangle, with rotation*
0 The origin of the aperture is its center*
0 $1 length*
0 $2 width*
0 $3 Rotation angle, in degrees counterclockwise*
0 Add horizontal line*
21,1,$1,$2,0,0,$3*%
G04 Aperture macros list end*
%ADD10C,6.200000*%
%ADD11C,1.650000*%
%ADD12C,1.150000*%
%ADD13R,1.700000X1.700000*%
%ADD14O,1.700000X1.700000*%
%ADD15RotRect,1.600000X1.600000X45.000000*%
%ADD16HorizOval,1.600000X0.000000X0.000000X0.000000X0.000000X0*%
%ADD17C,1.850000*%
%ADD18C,2.000000*%
%ADD19C,2.390000*%
%ADD20C,3.450000*%
%ADD21C,2.700000*%
%ADD22C,2.500000*%
%ADD23C,3.000000*%
%ADD24C,4.400000*%
%ADD25C,1.000000*%
%ADD26C,0.650000*%
%ADD27O,1.000000X1.600000*%
%ADD28O,1.000000X2.100000*%
%ADD29R,1.650000X1.650000*%
%ADD30O,6.000000X3.000000*%
%ADD31C,0.800000*%
G04 APERTURE END LIST*
D10*
%TO.C,H1*%
X125198312Y-68434542D03*
%TD*%
D11*
%TO.C,U3*%
X145198312Y-82434542D03*
D12*
X145198312Y-62434542D03*
%TD*%
D13*
%TO.C,J14*%
X185566565Y-78397523D03*
D14*
X185566565Y-75857523D03*
X185566565Y-73317523D03*
X185566565Y-70777523D03*
X185566565Y-68237523D03*
X185566565Y-65697523D03*
X185566565Y-63157523D03*
X185566565Y-60617523D03*
X185566565Y-58077523D03*
%TD*%
D15*
%TO.C,U8*%
X103286793Y-77447034D03*
D16*
X105082844Y-79243085D03*
X106878895Y-81039136D03*
X108674947Y-82835188D03*
X114063100Y-77447034D03*
X112267049Y-75650983D03*
X110470998Y-73854932D03*
X108674947Y-72058880D03*
%TD*%
D17*
%TO.C,SW4*%
X129660804Y-115947034D03*
X129660804Y-106947034D03*
D18*
X135910804Y-113947034D03*
X123410804Y-113947034D03*
X135910804Y-108947034D03*
X123410804Y-108947034D03*
%TD*%
D19*
%TO.C,BT1*%
X125388304Y-28346568D03*
D20*
X133718304Y-44346568D03*
X188918304Y-28346568D03*
%TD*%
D17*
%TO.C,SW3*%
X129660804Y-101847034D03*
X129660804Y-92847034D03*
D18*
X135910804Y-99847034D03*
X123410804Y-99847034D03*
X135910804Y-94847034D03*
X123410804Y-94847034D03*
%TD*%
D21*
%TO.C,J10*%
X92973798Y-65760028D03*
X96120423Y-66078226D03*
D22*
X97322505Y-70108735D03*
X100080221Y-70038024D03*
D23*
X101317658Y-74103888D03*
%TD*%
D24*
%TO.C,H2*%
X185410804Y-112347034D03*
%TD*%
D13*
%TO.C,J5*%
X104635804Y-109102348D03*
D14*
X104635804Y-106562348D03*
X104635804Y-104022348D03*
X104635804Y-101482348D03*
%TD*%
D17*
%TO.C,SW2*%
X146660804Y-92847034D03*
X146660804Y-101847034D03*
D18*
X152910804Y-99847034D03*
X140410804Y-99847034D03*
X152910804Y-94847034D03*
X140410804Y-94847034D03*
%TD*%
D25*
%TO.C,J3*%
X113725000Y-29437500D03*
X105725000Y-29437500D03*
%TD*%
D24*
%TO.C,H4*%
X93782808Y-98447034D03*
%TD*%
D21*
%TO.C,J1*%
X92973798Y-83760028D03*
X96120423Y-84078226D03*
D22*
X97322505Y-88108735D03*
X100080221Y-88038024D03*
D23*
X101317658Y-92103888D03*
%TD*%
D13*
%TO.C,J12*%
X160760804Y-61447034D03*
D14*
X163300804Y-61447034D03*
X165840804Y-61447034D03*
X168380804Y-61447034D03*
X170920804Y-61447034D03*
X173460804Y-61447034D03*
X176000804Y-61447034D03*
%TD*%
D24*
%TO.C,H5*%
X185160804Y-51447034D03*
%TD*%
D26*
%TO.C,J2*%
X91928304Y-31951568D03*
X97708304Y-31951568D03*
D27*
X99138304Y-28271568D03*
X90498304Y-28271568D03*
D28*
X99138304Y-32451568D03*
X90498304Y-32451568D03*
%TD*%
D17*
%TO.C,SW5*%
X146660804Y-115947034D03*
X146660804Y-106947034D03*
D18*
X152910804Y-113947034D03*
X140410804Y-113947034D03*
X152910804Y-108947034D03*
X140410804Y-108947034D03*
%TD*%
D21*
%TO.C,J11*%
X92973798Y-47760028D03*
X96120423Y-48078226D03*
D22*
X97322505Y-52108735D03*
X100080221Y-52038024D03*
D23*
X101317658Y-56103888D03*
%TD*%
D24*
%TO.C,H3*%
X108160804Y-63447034D03*
%TD*%
D29*
%TO.C,SW7*%
X179410804Y-99647034D03*
D11*
X179410804Y-104647034D03*
X164910804Y-99647034D03*
X164910804Y-104647034D03*
X164910804Y-102147034D03*
D30*
X172410804Y-96447034D03*
X172410804Y-107847034D03*
%TD*%
D13*
%TO.C,U9*%
X121185804Y-53472034D03*
D14*
X118645804Y-53472034D03*
X116105804Y-53472034D03*
%TD*%
D31*
X144448312Y-54434542D03*
X143198312Y-54684542D03*
X144698312Y-52684542D03*
X143198312Y-52684542D03*
X137443717Y-52179947D03*
X135948312Y-51684542D03*
X173198312Y-81184542D03*
X166948312Y-89934542D03*
X154198312Y-62184542D03*
X114669658Y-83232761D03*
X116083872Y-81677126D03*
X135650799Y-53972866D03*
X126660804Y-48447034D03*
X148660804Y-58447034D03*
X151960804Y-82247034D03*
X96830824Y-110358636D03*
X133760804Y-53347034D03*
X128460804Y-54747034D03*
X100009769Y-111035242D03*
X133660804Y-60447034D03*
X132591182Y-56516656D03*
X181760804Y-69147034D03*
X182660804Y-71747034D03*
X125660303Y-78740428D03*
X96410804Y-37197034D03*
X93330824Y-110325665D03*
X98482029Y-110586728D03*
X142660804Y-48046534D03*
X154760804Y-70747034D03*
X95080824Y-110718673D03*
X128328586Y-80880471D03*
X123697728Y-85829527D03*
X126455444Y-79536277D03*
X145560804Y-65447034D03*
X176660804Y-72747034D03*
X176567065Y-66188671D03*
X146760804Y-60747034D03*
X154960804Y-96147034D03*
X176060804Y-81847034D03*
X174060804Y-68847034D03*
X154760804Y-97946534D03*
X148460804Y-63747034D03*
X130760804Y-66847034D03*
X152153690Y-63239920D03*
X132460804Y-69947034D03*
X136460804Y-70847034D03*
X133060804Y-71847034D03*
X148660804Y-48747034D03*
X103500000Y-43000000D03*
X119260804Y-70447034D03*
X152460804Y-65147034D03*
X130460804Y-57347034D03*
X135760804Y-60047034D03*
X164660804Y-47447034D03*
X157660804Y-45447034D03*
X131760804Y-72547034D03*
X148160804Y-68347034D03*
X137250000Y-75000000D03*
X139500000Y-79500000D03*
X145661304Y-79247034D03*
X145660804Y-76347034D03*
X157460804Y-74847034D03*
X146060804Y-75047034D03*
X159560804Y-73947034D03*
X145060804Y-73947034D03*
X160560804Y-93847034D03*
X140860804Y-73747034D03*
X159560804Y-94847034D03*
X139160804Y-74747034D03*
X147360804Y-76247034D03*
X161560804Y-92847034D03*
X108260804Y-93947534D03*
X138460804Y-71347034D03*
X122960804Y-59847534D03*
X109460804Y-94647034D03*
X145260804Y-68547534D03*
X119960804Y-94747034D03*
X128960804Y-67647034D03*
X147960804Y-65747034D03*
X182060804Y-67847034D03*
X128760804Y-88347034D03*
X174860804Y-71147034D03*
X179760804Y-80047034D03*
X176260804Y-84347034D03*
X109750000Y-45000000D03*
X111160804Y-55947034D03*
X116660804Y-73847034D03*
X152560804Y-59347034D03*
X115260804Y-99447034D03*
X165660804Y-58047034D03*
M02*
