M48
; DRILL file {KiCad (6.0.5)} date Sat Jun 18 00:07:38 2022
; FORMAT={-:-/ absolute / inch / decimal}
; #@! TF.CreationDate,2022-06-18T00:07:38+02:00
; #@! TF.GenerationSoftware,Kicad,Pcbnew,(6.0.5)
; #@! TF.FileFunction,Plated,1,2,PTH
FMAT,2
INCH
; #@! TA.AperFunction,Plated,PTH,ViaDrill
T1C0.0157
; #@! TA.AperFunction,Plated,PTH,ComponentDrill
T2C0.0236
; #@! TA.AperFunction,Plated,PTH,ComponentDrill
T3C0.0315
; #@! TA.AperFunction,Plated,PTH,ComponentDrill
T4C0.0394
; #@! TA.AperFunction,Plated,PTH,ComponentDrill
T5C0.0433
; #@! TA.AperFunction,Plated,PTH,ComponentDrill
T6C0.0492
; #@! TA.AperFunction,Plated,PTH,ComponentDrill
T7C0.0787
; #@! TA.AperFunction,Plated,PTH,ComponentDrill
T8C0.1661
%
G90
G05
T1
X3.6744Y-4.3435
X3.7433Y-4.359
X3.7957Y-1.4645
X3.8122Y-4.3448
X3.8772Y-4.3538
X3.9374Y-4.3715
X4.0748Y-1.6929
X4.2622Y-3.6987
X4.3095Y-3.7263
X4.3209Y-1.7717
X4.3764Y-2.2026
X4.5146Y-3.2769
X4.5378Y-3.9152
X4.5702Y-3.2156
X4.5929Y-2.9074
X4.6953Y-2.7735
X4.7229Y-3.7302
X4.841Y-2.3562
X4.87Y-3.3791
X4.9473Y-3.1
X4.9786Y-3.1313
X4.9866Y-1.9074
X5.0523Y-3.1843
X5.0575Y-2.1554
X5.0693Y-3.4782
X5.0772Y-2.6633
X5.1363Y-2.2578
X5.1481Y-2.6318
X5.1874Y-2.8562
X5.215Y-2.7538
X5.2201Y-2.2251
X5.2386Y-2.8286
X5.2622Y-2.3798
X5.2662Y-2.1003
X5.3406Y-2.1249
X5.3449Y-2.3641
X5.3523Y-2.0348
X5.3725Y-2.7893
X5.4035Y-2.9528
X5.4112Y-2.0543
X5.4512Y-2.8089
X5.4788Y-2.9428
X5.4921Y-3.1299
X5.5457Y-2.9034
X5.6166Y-1.8916
X5.6377Y-2.0742
X5.6377Y-2.1529
X5.6869Y-2.1431
X5.6968Y-2.0742
X5.7111Y-2.9113
X5.7189Y-2.6987
X5.7307Y-2.5767
X5.7347Y-3.0058
X5.7347Y-3.12
X5.7504Y-2.9546
X5.778Y-2.3916
X5.8016Y-3.0019
X5.8252Y-2.5885
X5.8331Y-2.6908
X5.8449Y-2.5097
X5.8528Y-1.9192
X5.8528Y-2.3011
X5.9827Y-3.2381
X5.9903Y-2.4898
X6.0024Y-2.5648
X6.0063Y-2.3365
X6.0708Y-2.4482
X6.0929Y-2.7853
X6.0929Y-3.8562
X6.1008Y-3.7853
X6.1992Y-2.9467
X6.2071Y-1.7893
X6.2819Y-2.9113
X6.2819Y-3.7341
X6.3213Y-3.6948
X6.3607Y-3.6554
X6.4827Y-1.868
X6.5221Y-2.2853
X6.5728Y-3.5407
X6.8188Y-3.1962
X6.8528Y-2.7105
X6.8843Y-2.8011
X6.9315Y-3.2223
X6.9394Y-3.3207
X6.9515Y-2.6059
X6.9551Y-2.8641
X7.0772Y-3.1515
X7.1559Y-2.7223
X7.1677Y-2.6711
X7.1914Y-2.8247
T3
X4.0664Y-3.0491
X4.1371Y-3.1198
X4.2078Y-3.1905
X4.2785Y-2.837
X4.2785Y-3.2612
X4.3493Y-2.9077
X4.42Y-2.9784
X4.4907Y-3.0491
T4
X4.1195Y-3.9954
X4.1195Y-4.0954
X4.1195Y-4.1954
X4.1195Y-4.2954
X4.5711Y-2.1052
X4.6711Y-2.1052
X4.7711Y-2.1052
X6.3292Y-2.4192
X6.4292Y-2.4192
X6.5292Y-2.4192
X6.6292Y-2.4192
X6.7292Y-2.4192
X6.8292Y-2.4192
X6.9292Y-2.4192
X7.3058Y-2.2865
X7.3058Y-2.3865
X7.3058Y-2.4865
X7.3058Y-2.5865
X7.3058Y-2.6865
X7.3058Y-2.7865
X7.3058Y-2.8865
X7.3058Y-2.9865
X7.3058Y-3.0865
T5
X6.4926Y-3.9231
X6.4926Y-4.0215
X6.4926Y-4.12
X7.0634Y-3.9231
X7.0634Y-4.12
T6
X4.8587Y-3.7341
X4.8587Y-3.931
X4.8587Y-4.2893
X4.8587Y-4.4861
X5.3508Y-3.7341
X5.3508Y-3.931
X5.3508Y-4.2893
X5.3508Y-4.4861
X5.528Y-3.7341
X5.528Y-3.931
X5.528Y-4.2893
X5.528Y-4.4861
X6.0201Y-3.7341
X6.0201Y-3.931
X6.0201Y-4.2893
X6.0201Y-4.4861
T7
X3.6604Y-1.8803
X3.6604Y-2.589
X3.6604Y-3.2976
X3.7843Y-1.8928
X3.7843Y-2.6015
X3.7843Y-3.3102
X3.8316Y-2.0515
X3.8316Y-2.7602
X3.8316Y-3.4688
X3.9402Y-2.0487
X3.9402Y-2.7574
X3.9402Y-3.4661
X3.9889Y-2.2088
X3.9889Y-2.9175
X3.9889Y-3.6261
T8
X4.9291Y-2.6943
T2
G00X3.5629Y-1.1249
M15
G01X3.5629Y-1.1012
M16
G05
G00X3.5629Y-1.2993
M15
G01X3.5629Y-1.256
M16
G05
G00X3.9031Y-1.1249
M15
G01X3.9031Y-1.1012
M16
G05
G00X3.9031Y-1.2993
M15
G01X3.9031Y-1.256
M16
G05
T7
G00X6.8036Y-3.7971
M15
G01X6.7721Y-3.7971
M16
G05
G00X6.8036Y-4.2459
M15
G01X6.7721Y-4.2459
M16
G05
T0
M30
