M48
; DRILL file {KiCad (6.0.5)} date Sat Aug 13 10:38:26 2022
; FORMAT={-:-/ absolute / inch / decimal}
; #@! TF.CreationDate,2022-08-13T10:38:26+02:00
; #@! TF.GenerationSoftware,Kicad,Pcbnew,(6.0.5)
; #@! TF.FileFunction,Plated,1,2,PTH
FMAT,2
INCH
; #@! TA.AperFunction,Plated,PTH,ViaDrill
T1C0.0157
; #@! TA.AperFunction,Plated,PTH,ComponentDrill
T2C0.0394
%
G90
G05
T1
X2.7614Y-5.6043
X2.8598Y-5.6437
X3.1748Y-2.0512
X3.2338Y-2.002
X3.2338Y-5.6043
X3.2732Y-1.9528
X3.4012Y-1.8346
X3.7949Y-5.6437
X4.0606Y-1.9724
X4.1393Y-1.9528
X4.2938Y-5.7717
X4.6186Y-5.6339
X5.1501Y-5.7126
X5.4946Y-5.6339
X6.0064Y-5.7224
X6.3607Y-5.6339
X6.6393Y-2.061
X6.7181Y-2.0413
X6.8922Y-5.7717
X7.1942Y-5.6634
X7.5645Y-1.9232
X7.722Y-1.9035
X7.7257Y-5.6732
T2
X2.8056Y-1.8346
X2.8095Y-5.7717
X2.9056Y-1.8346
X2.9095Y-5.7717
X3.0056Y-1.8346
X3.0095Y-5.7717
X3.1056Y-1.8346
X3.1095Y-5.7717
X3.2056Y-1.8346
X3.2095Y-5.7717
X3.3056Y-1.8346
X3.3095Y-5.7717
X3.6669Y-1.8346
X3.6669Y-5.7717
X3.7669Y-1.8346
X3.7669Y-5.7717
X3.8669Y-1.8346
X3.8669Y-5.7717
X3.9669Y-1.8346
X3.9669Y-5.7717
X4.0669Y-1.8346
X4.0669Y-5.7717
X4.1669Y-1.8346
X4.1669Y-5.7717
X4.533Y-1.8346
X4.533Y-5.7717
X4.633Y-1.8346
X4.633Y-5.7717
X4.733Y-1.8346
X4.733Y-5.7717
X4.833Y-1.8346
X4.833Y-5.7717
X4.933Y-1.8346
X4.933Y-5.7717
X5.033Y-1.8346
X5.033Y-5.7717
X5.3992Y-1.8346
X5.3992Y-5.7717
X5.4992Y-1.8346
X5.4992Y-5.7717
X5.5992Y-1.8346
X5.5992Y-5.7717
X5.6992Y-1.8346
X5.6992Y-5.7717
X5.7992Y-1.8346
X5.7992Y-5.7717
X5.8992Y-1.8346
X5.8992Y-5.7717
X6.2653Y-1.8346
X6.2653Y-5.7717
X6.3653Y-1.8346
X6.3653Y-5.7717
X6.4653Y-1.8346
X6.4653Y-5.7717
X6.5653Y-1.8346
X6.5653Y-5.7717
X6.6653Y-1.8346
X6.6653Y-5.7717
X6.7653Y-1.8346
X6.7653Y-5.7717
X7.1315Y-1.8346
X7.1315Y-5.7717
X7.2315Y-1.8346
X7.2315Y-5.7717
X7.3315Y-1.8346
X7.3315Y-5.7717
X7.4315Y-1.8346
X7.4315Y-5.7717
X7.5315Y-1.8346
X7.5315Y-5.7717
X7.6315Y-1.8346
X7.6315Y-5.7717
T0
M30
