%TF.GenerationSoftware,KiCad,Pcbnew,(6.0.5)*%
%TF.CreationDate,2022-06-26T17:30:21+02:00*%
%TF.ProjectId,midiperformer,6d696469-7065-4726-966f-726d65722e6b,rev?*%
%TF.SameCoordinates,Original*%
%TF.FileFunction,Paste,Top*%
%TF.FilePolarity,Positive*%
%FSLAX46Y46*%
G04 Gerber Fmt 4.6, Leading zero omitted, Abs format (unit mm)*
G04 Created by KiCad (PCBNEW (6.0.5)) date 2022-06-26 17:30:21*
%MOMM*%
%LPD*%
G01*
G04 APERTURE LIST*
G04 Aperture macros list*
%AMRoundRect*
0 Rectangle with rounded corners*
0 $1 Rounding radius*
0 $2 $3 $4 $5 $6 $7 $8 $9 X,Y pos of 4 corners*
0 Add a 4 corners polygon primitive as box body*
4,1,4,$2,$3,$4,$5,$6,$7,$8,$9,$2,$3,0*
0 Add four circle primitives for the rounded corners*
1,1,$1+$1,$2,$3*
1,1,$1+$1,$4,$5*
1,1,$1+$1,$6,$7*
1,1,$1+$1,$8,$9*
0 Add four rect primitives between the rounded corners*
20,1,$1+$1,$2,$3,$4,$5,0*
20,1,$1+$1,$4,$5,$6,$7,0*
20,1,$1+$1,$6,$7,$8,$9,0*
20,1,$1+$1,$8,$9,$2,$3,0*%
G04 Aperture macros list end*
%ADD10RoundRect,0.200000X0.200000X0.275000X-0.200000X0.275000X-0.200000X-0.275000X0.200000X-0.275000X0*%
%ADD11R,1.200000X0.900000*%
%ADD12RoundRect,0.200000X0.275000X-0.200000X0.275000X0.200000X-0.275000X0.200000X-0.275000X-0.200000X0*%
%ADD13RoundRect,0.200000X-0.275000X0.200000X-0.275000X-0.200000X0.275000X-0.200000X0.275000X0.200000X0*%
%ADD14RoundRect,0.225000X0.225000X0.250000X-0.225000X0.250000X-0.225000X-0.250000X0.225000X-0.250000X0*%
%ADD15R,3.050000X2.750000*%
%ADD16R,2.200000X1.200000*%
%ADD17RoundRect,0.225000X-0.225000X-0.250000X0.225000X-0.250000X0.225000X0.250000X-0.225000X0.250000X0*%
G04 APERTURE END LIST*
D10*
%TO.C,R4*%
X214900000Y-62932744D03*
X213250000Y-62932744D03*
%TD*%
%TO.C,R10*%
X207125000Y-87400000D03*
X205475000Y-87400000D03*
%TD*%
%TO.C,R9*%
X207125000Y-89800000D03*
X205475000Y-89800000D03*
%TD*%
D11*
%TO.C,D1*%
X228075000Y-62732744D03*
X228075000Y-59432744D03*
%TD*%
D10*
%TO.C,R8*%
X235795000Y-72565488D03*
X234145000Y-72565488D03*
%TD*%
D12*
%TO.C,R1*%
X227675000Y-65907744D03*
X227675000Y-64257744D03*
%TD*%
D10*
%TO.C,R5*%
X211700000Y-69932744D03*
X210050000Y-69932744D03*
%TD*%
%TO.C,R6*%
X214900000Y-69932744D03*
X213250000Y-69932744D03*
%TD*%
D13*
%TO.C,R2*%
X231075000Y-61457744D03*
X231075000Y-63107744D03*
%TD*%
D10*
%TO.C,R16*%
X207125000Y-72000000D03*
X205475000Y-72000000D03*
%TD*%
D14*
%TO.C,C1*%
X224825000Y-72465488D03*
X223275000Y-72465488D03*
%TD*%
D10*
%TO.C,R13*%
X207125000Y-77200000D03*
X205475000Y-77200000D03*
%TD*%
%TO.C,R3*%
X211700000Y-62932744D03*
X210050000Y-62932744D03*
%TD*%
%TO.C,R14*%
X207125000Y-74600000D03*
X205475000Y-74600000D03*
%TD*%
D11*
%TO.C,D2*%
X230675000Y-67932744D03*
X230675000Y-64632744D03*
%TD*%
D15*
%TO.C,U3*%
X229400000Y-94075000D03*
X229400000Y-97125000D03*
X232750000Y-97125000D03*
X232750000Y-94075000D03*
D16*
X224775000Y-93320000D03*
X224775000Y-97880000D03*
%TD*%
D10*
%TO.C,R12*%
X207125000Y-79800000D03*
X205475000Y-79800000D03*
%TD*%
D17*
%TO.C,C2*%
X240225000Y-72565488D03*
X241775000Y-72565488D03*
%TD*%
D10*
%TO.C,R15*%
X207125000Y-82200000D03*
X205475000Y-82200000D03*
%TD*%
%TO.C,R11*%
X207125000Y-84800000D03*
X205475000Y-84800000D03*
%TD*%
%TO.C,R7*%
X219475000Y-72465488D03*
X217825000Y-72465488D03*
%TD*%
M02*
