%TF.GenerationSoftware,KiCad,Pcbnew,(6.0.5)*%
%TF.CreationDate,2022-06-26T17:30:21+02:00*%
%TF.ProjectId,midiperformer,6d696469-7065-4726-966f-726d65722e6b,rev?*%
%TF.SameCoordinates,Original*%
%TF.FileFunction,Other,Comment*%
%FSLAX46Y46*%
G04 Gerber Fmt 4.6, Leading zero omitted, Abs format (unit mm)*
G04 Created by KiCad (PCBNEW (6.0.5)) date 2022-06-26 17:30:21*
%MOMM*%
%LPD*%
G01*
G04 APERTURE LIST*
%ADD10C,0.150000*%
%ADD11C,5.500000*%
%ADD12C,2.000000*%
%ADD13C,4.500000*%
%ADD14C,7.500000*%
G04 APERTURE END LIST*
D10*
X-301000000Y12000000D02*
X-301000000Y14000000D01*
D11*
X-230250000Y-10500000D02*
G75*
G03*
X-230250000Y-10500000I-2750000J0D01*
G01*
D12*
X-143500000Y-10500000D02*
G75*
G03*
X-143500000Y-10500000I-1000000J0D01*
G01*
X-164500000Y-10500000D02*
G75*
G03*
X-164500000Y-10500000I-1000000J0D01*
G01*
D10*
X-98500000Y3500000D02*
X-96500000Y3500000D01*
X-96500000Y3500000D02*
X-96500000Y-1500000D01*
X-96500000Y-1500000D02*
X-98500000Y-1500000D01*
X-98500000Y-1500000D02*
X-98500000Y3500000D01*
X-49500000Y3500000D02*
X-47500000Y3500000D01*
X-47500000Y3500000D02*
X-47500000Y-1500000D01*
X-47500000Y-1500000D02*
X-49500000Y-1500000D01*
X-49500000Y-1500000D02*
X-49500000Y3500000D01*
X-407000000Y-75000000D02*
X-407000000Y-77000000D01*
X-132000000Y-81000000D02*
G75*
G03*
X-132000000Y-81000000I-2000000J0D01*
G01*
X-301000000Y-77000000D02*
X-301000000Y-75000000D01*
X-243000000Y6000000D02*
X-243000000Y8000000D01*
X-244000000Y-81000000D02*
G75*
G03*
X-244000000Y-81000000I-2000000J0D01*
G01*
X-132000000Y6000000D02*
G75*
G03*
X-132000000Y6000000I-2000000J0D01*
G01*
X-296000000Y-75000000D02*
G75*
G03*
X-296000000Y-75000000I-2000000J0D01*
G01*
X-40500000Y3500000D02*
X-35500000Y3500000D01*
X-35500000Y3500000D02*
X-35500000Y-1500000D01*
X-35500000Y-1500000D02*
X-40500000Y-1500000D01*
X-40500000Y-1500000D02*
X-40500000Y3500000D01*
X-82500000Y3500000D02*
X-77500000Y3500000D01*
X-77500000Y3500000D02*
X-77500000Y-1500000D01*
X-77500000Y-1500000D02*
X-82500000Y-1500000D01*
X-82500000Y-1500000D02*
X-82500000Y3500000D01*
X-84500000Y3500000D02*
X-82500000Y3500000D01*
X-82500000Y3500000D02*
X-82500000Y-1500000D01*
X-82500000Y-1500000D02*
X-84500000Y-1500000D01*
X-84500000Y-1500000D02*
X-84500000Y3500000D01*
D12*
X-72000000Y1000000D02*
G75*
G03*
X-72000000Y1000000I-1000000J0D01*
G01*
X-107000000Y1000000D02*
G75*
G03*
X-107000000Y1000000I-1000000J0D01*
G01*
D11*
X-230250000Y-46500000D02*
G75*
G03*
X-230250000Y-46500000I-2750000J0D01*
G01*
D12*
X-171500000Y-10500000D02*
G75*
G03*
X-171500000Y-10500000I-1000000J0D01*
G01*
D10*
X-134000000Y3000000D02*
X-132000000Y3000000D01*
X-244000000Y6000000D02*
G75*
G03*
X-244000000Y6000000I-2000000J0D01*
G01*
X-137000000Y-83000000D02*
X-137000000Y-81000000D01*
X-295000000Y-75000000D02*
G75*
G03*
X-295000000Y-75000000I-3000000J0D01*
G01*
X-137000000Y6000000D02*
X-137000000Y8000000D01*
X-105500000Y3500000D02*
X-103500000Y3500000D01*
X-103500000Y3500000D02*
X-103500000Y-1500000D01*
X-103500000Y-1500000D02*
X-105500000Y-1500000D01*
X-105500000Y-1500000D02*
X-105500000Y3500000D01*
X-412000000Y-72000000D02*
X-410000000Y-72000000D01*
D12*
X-58000000Y1000000D02*
G75*
G03*
X-58000000Y1000000I-1000000J0D01*
G01*
X-192500000Y-10500000D02*
G75*
G03*
X-192500000Y-10500000I-1000000J0D01*
G01*
D10*
X-77500000Y3500000D02*
X-75500000Y3500000D01*
X-75500000Y3500000D02*
X-75500000Y-1500000D01*
X-75500000Y-1500000D02*
X-77500000Y-1500000D01*
X-77500000Y-1500000D02*
X-77500000Y3500000D01*
D13*
X-156500000Y-36500000D02*
G75*
G03*
X-156500000Y-36500000I-3000000J0D01*
G01*
D10*
X-414000000Y16000000D02*
X-294000000Y16000000D01*
X-294000000Y16000000D02*
X-294000000Y-79000000D01*
X-294000000Y-79000000D02*
X-414000000Y-79000000D01*
X-414000000Y-79000000D02*
X-414000000Y16000000D01*
X-243000000Y-81000000D02*
X-243000000Y-83000000D01*
D12*
X-30000000Y1000000D02*
G75*
G03*
X-30000000Y1000000I-1000000J0D01*
G01*
D10*
X-75500000Y3500000D02*
X-70500000Y3500000D01*
X-70500000Y3500000D02*
X-70500000Y-1500000D01*
X-70500000Y-1500000D02*
X-75500000Y-1500000D01*
X-75500000Y-1500000D02*
X-75500000Y3500000D01*
X-248000000Y-46500000D02*
X-250000000Y-46500000D01*
X-250000000Y-46500000D02*
X-250000000Y-28500000D01*
X-250000000Y-28500000D02*
X-248000000Y-28500000D01*
X-248000000Y-28500000D02*
X-248000000Y-46500000D01*
D12*
X-199500000Y-10500000D02*
G75*
G03*
X-199500000Y-10500000I-1000000J0D01*
G01*
D10*
X-248000000Y8000000D02*
X-132000000Y8000000D01*
X-132000000Y8000000D02*
X-132000000Y-83000000D01*
X-132000000Y-83000000D02*
X-248000000Y-83000000D01*
X-248000000Y-83000000D02*
X-248000000Y8000000D01*
X-410000000Y9000000D02*
X-412000000Y9000000D01*
X-408000000Y12000000D02*
G75*
G03*
X-408000000Y12000000I-2000000J0D01*
G01*
X-47500000Y3500000D02*
X-42500000Y3500000D01*
X-42500000Y3500000D02*
X-42500000Y-1500000D01*
X-42500000Y-1500000D02*
X-47500000Y-1500000D01*
X-47500000Y-1500000D02*
X-47500000Y3500000D01*
X-132000000Y-78000000D02*
X-134000000Y-78000000D01*
X-295000000Y12000000D02*
G75*
G03*
X-295000000Y12000000I-3000000J0D01*
G01*
X-407000000Y12000000D02*
X-407000000Y14000000D01*
X-96500000Y3500000D02*
X-91500000Y3500000D01*
X-91500000Y3500000D02*
X-91500000Y-1500000D01*
X-91500000Y-1500000D02*
X-96500000Y-1500000D01*
X-96500000Y-1500000D02*
X-96500000Y3500000D01*
X-68500000Y3500000D02*
X-63500000Y3500000D01*
X-63500000Y3500000D02*
X-63500000Y-1500000D01*
X-63500000Y-1500000D02*
X-68500000Y-1500000D01*
X-68500000Y-1500000D02*
X-68500000Y3500000D01*
D12*
X-213500000Y-10500000D02*
G75*
G03*
X-213500000Y-10500000I-1000000J0D01*
G01*
D10*
X-250000000Y10000000D02*
X-130000000Y10000000D01*
X-130000000Y10000000D02*
X-130000000Y-85000000D01*
X-130000000Y-85000000D02*
X-250000000Y-85000000D01*
X-250000000Y-85000000D02*
X-250000000Y10000000D01*
D12*
X-178500000Y-10500000D02*
G75*
G03*
X-178500000Y-10500000I-1000000J0D01*
G01*
X-79000000Y1000000D02*
G75*
G03*
X-79000000Y1000000I-1000000J0D01*
G01*
D10*
X-249000000Y8500000D02*
X-131000000Y8500000D01*
X-131000000Y8500000D02*
X-131000000Y-83500000D01*
X-131000000Y-83500000D02*
X-249000000Y-83500000D01*
X-249000000Y-83500000D02*
X-249000000Y8500000D01*
D12*
X-37000000Y1000000D02*
G75*
G03*
X-37000000Y1000000I-1000000J0D01*
G01*
D10*
X-248000000Y-78000000D02*
X-246000000Y-78000000D01*
D12*
X-157500000Y-10500000D02*
G75*
G03*
X-157500000Y-10500000I-1000000J0D01*
G01*
D13*
X-164000000Y-23500000D02*
G75*
G03*
X-164000000Y-23500000I-3000000J0D01*
G01*
D10*
X-131000000Y6000000D02*
G75*
G03*
X-131000000Y6000000I-3000000J0D01*
G01*
X-408000000Y-75000000D02*
G75*
G03*
X-408000000Y-75000000I-2000000J0D01*
G01*
X-63500000Y3500000D02*
X-61500000Y3500000D01*
X-61500000Y3500000D02*
X-61500000Y-1500000D01*
X-61500000Y-1500000D02*
X-63500000Y-1500000D01*
X-63500000Y-1500000D02*
X-63500000Y3500000D01*
D12*
X-206500000Y-10500000D02*
G75*
G03*
X-206500000Y-10500000I-1000000J0D01*
G01*
D10*
X-296000000Y12000000D02*
G75*
G03*
X-296000000Y12000000I-2000000J0D01*
G01*
X-42500000Y3500000D02*
X-40500000Y3500000D01*
X-40500000Y3500000D02*
X-40500000Y-1500000D01*
X-40500000Y-1500000D02*
X-42500000Y-1500000D01*
X-42500000Y-1500000D02*
X-42500000Y3500000D01*
X-412000000Y14000000D02*
X-296000000Y14000000D01*
X-296000000Y14000000D02*
X-296000000Y-77000000D01*
X-296000000Y-77000000D02*
X-412000000Y-77000000D01*
X-412000000Y-77000000D02*
X-412000000Y14000000D01*
D12*
X-86000000Y1000000D02*
G75*
G03*
X-86000000Y1000000I-1000000J0D01*
G01*
D10*
X-91500000Y3500000D02*
X-89500000Y3500000D01*
X-89500000Y3500000D02*
X-89500000Y-1500000D01*
X-89500000Y-1500000D02*
X-91500000Y-1500000D01*
X-91500000Y-1500000D02*
X-91500000Y3500000D01*
X-61500000Y3500000D02*
X-56500000Y3500000D01*
X-56500000Y3500000D02*
X-56500000Y-1500000D01*
X-56500000Y-1500000D02*
X-61500000Y-1500000D01*
X-61500000Y-1500000D02*
X-61500000Y3500000D01*
X-70500000Y3500000D02*
X-68500000Y3500000D01*
X-68500000Y3500000D02*
X-68500000Y-1500000D01*
X-68500000Y-1500000D02*
X-70500000Y-1500000D01*
X-70500000Y-1500000D02*
X-70500000Y3500000D01*
X-296000000Y-72000000D02*
X-298000000Y-72000000D01*
D12*
X-65000000Y1000000D02*
G75*
G03*
X-65000000Y1000000I-1000000J0D01*
G01*
D10*
X-56500000Y3500000D02*
X-54500000Y3500000D01*
X-54500000Y3500000D02*
X-54500000Y-1500000D01*
X-54500000Y-1500000D02*
X-56500000Y-1500000D01*
X-56500000Y-1500000D02*
X-56500000Y3500000D01*
D14*
X-186250000Y-64500000D02*
G75*
G03*
X-186250000Y-64500000I-3750000J0D01*
G01*
D10*
X-110500000Y3500000D02*
X-105500000Y3500000D01*
X-105500000Y3500000D02*
X-105500000Y-1500000D01*
X-105500000Y-1500000D02*
X-110500000Y-1500000D01*
X-110500000Y-1500000D02*
X-110500000Y3500000D01*
X-28500000Y3500000D02*
X-26500000Y3500000D01*
X-26500000Y3500000D02*
X-26500000Y-1500000D01*
X-26500000Y-1500000D02*
X-28500000Y-1500000D01*
X-28500000Y-1500000D02*
X-28500000Y3500000D01*
X-298000000Y9000000D02*
X-296000000Y9000000D01*
X-250000000Y-13500000D02*
X-251000000Y-13500000D01*
X-251000000Y-13500000D02*
X-251000000Y-7500000D01*
X-251000000Y-7500000D02*
X-250000000Y-7500000D01*
X-250000000Y-7500000D02*
X-250000000Y-13500000D01*
D12*
X-220500000Y-10500000D02*
G75*
G03*
X-220500000Y-10500000I-1000000J0D01*
G01*
D13*
X-149000000Y-23500000D02*
G75*
G03*
X-149000000Y-23500000I-3000000J0D01*
G01*
D10*
X-248000000Y-28500000D02*
X-250000000Y-28500000D01*
X-250000000Y-28500000D02*
X-250000000Y-10500000D01*
X-250000000Y-10500000D02*
X-248000000Y-10500000D01*
X-248000000Y-10500000D02*
X-248000000Y-28500000D01*
X-250000000Y-31500000D02*
X-251000000Y-31500000D01*
X-251000000Y-31500000D02*
X-251000000Y-25500000D01*
X-251000000Y-25500000D02*
X-250000000Y-25500000D01*
X-250000000Y-25500000D02*
X-250000000Y-31500000D01*
X-250000000Y-67500000D02*
X-251000000Y-67500000D01*
X-251000000Y-67500000D02*
X-251000000Y-61500000D01*
X-251000000Y-61500000D02*
X-250000000Y-61500000D01*
X-250000000Y-61500000D02*
X-250000000Y-67500000D01*
D12*
X-185500000Y-10500000D02*
G75*
G03*
X-185500000Y-10500000I-1000000J0D01*
G01*
D11*
X-230250000Y-64500000D02*
G75*
G03*
X-230250000Y-64500000I-2750000J0D01*
G01*
D10*
X-33500000Y3500000D02*
X-28500000Y3500000D01*
X-28500000Y3500000D02*
X-28500000Y-1500000D01*
X-28500000Y-1500000D02*
X-33500000Y-1500000D01*
X-33500000Y-1500000D02*
X-33500000Y3500000D01*
X-54500000Y3500000D02*
X-49500000Y3500000D01*
X-49500000Y3500000D02*
X-49500000Y-1500000D01*
X-49500000Y-1500000D02*
X-54500000Y-1500000D01*
X-54500000Y-1500000D02*
X-54500000Y3500000D01*
X-131000000Y-81000000D02*
G75*
G03*
X-131000000Y-81000000I-3000000J0D01*
G01*
X-103500000Y3500000D02*
X-98500000Y3500000D01*
X-98500000Y3500000D02*
X-98500000Y-1500000D01*
X-98500000Y-1500000D02*
X-103500000Y-1500000D01*
X-103500000Y-1500000D02*
X-103500000Y3500000D01*
D12*
X-44000000Y1000000D02*
G75*
G03*
X-44000000Y1000000I-1000000J0D01*
G01*
X-100000000Y1000000D02*
G75*
G03*
X-100000000Y1000000I-1000000J0D01*
G01*
X-51000000Y1000000D02*
G75*
G03*
X-51000000Y1000000I-1000000J0D01*
G01*
D10*
X-243000000Y6000000D02*
G75*
G03*
X-243000000Y6000000I-3000000J0D01*
G01*
X-246000000Y3000000D02*
X-248000000Y3000000D01*
D11*
X-230250000Y-28500000D02*
G75*
G03*
X-230250000Y-28500000I-2750000J0D01*
G01*
D10*
X-248000000Y-64500000D02*
X-250000000Y-64500000D01*
X-250000000Y-64500000D02*
X-250000000Y-46500000D01*
X-250000000Y-46500000D02*
X-248000000Y-46500000D01*
X-248000000Y-46500000D02*
X-248000000Y-64500000D01*
X-89500000Y3500000D02*
X-84500000Y3500000D01*
X-84500000Y3500000D02*
X-84500000Y-1500000D01*
X-84500000Y-1500000D02*
X-89500000Y-1500000D01*
X-89500000Y-1500000D02*
X-89500000Y3500000D01*
X-35500000Y3500000D02*
X-33500000Y3500000D01*
X-33500000Y3500000D02*
X-33500000Y-1500000D01*
X-33500000Y-1500000D02*
X-35500000Y-1500000D01*
X-35500000Y-1500000D02*
X-35500000Y3500000D01*
X-243000000Y-81000000D02*
G75*
G03*
X-243000000Y-81000000I-3000000J0D01*
G01*
X-250000000Y-49500000D02*
X-251000000Y-49500000D01*
X-251000000Y-49500000D02*
X-251000000Y-43500000D01*
X-251000000Y-43500000D02*
X-250000000Y-43500000D01*
X-250000000Y-43500000D02*
X-250000000Y-49500000D01*
D12*
X-150500000Y-10500000D02*
G75*
G03*
X-150500000Y-10500000I-1000000J0D01*
G01*
D10*
X-407000000Y12000000D02*
G75*
G03*
X-407000000Y12000000I-3000000J0D01*
G01*
X-407000000Y-75000000D02*
G75*
G03*
X-407000000Y-75000000I-3000000J0D01*
G01*
D12*
X-93000000Y1000000D02*
G75*
G03*
X-93000000Y1000000I-1000000J0D01*
G01*
D10*
%TO.C,H1*%
X241800000Y-95000000D02*
G75*
G03*
X241800000Y-95000000I-3200000J0D01*
G01*
%TO.C,H2*%
X207000000Y-63600000D02*
G75*
G03*
X207000000Y-63600000I-3200000J0D01*
G01*
%TD*%
M02*
