%TF.GenerationSoftware,KiCad,Pcbnew,(6.0.5)*%
%TF.CreationDate,2022-06-26T17:30:21+02:00*%
%TF.ProjectId,midiperformer,6d696469-7065-4726-966f-726d65722e6b,rev?*%
%TF.SameCoordinates,Original*%
%TF.FileFunction,Soldermask,Top*%
%TF.FilePolarity,Negative*%
%FSLAX46Y46*%
G04 Gerber Fmt 4.6, Leading zero omitted, Abs format (unit mm)*
G04 Created by KiCad (PCBNEW (6.0.5)) date 2022-06-26 17:30:21*
%MOMM*%
%LPD*%
G01*
G04 APERTURE LIST*
G04 Aperture macros list*
%AMRoundRect*
0 Rectangle with rounded corners*
0 $1 Rounding radius*
0 $2 $3 $4 $5 $6 $7 $8 $9 X,Y pos of 4 corners*
0 Add a 4 corners polygon primitive as box body*
4,1,4,$2,$3,$4,$5,$6,$7,$8,$9,$2,$3,0*
0 Add four circle primitives for the rounded corners*
1,1,$1+$1,$2,$3*
1,1,$1+$1,$4,$5*
1,1,$1+$1,$6,$7*
1,1,$1+$1,$8,$9*
0 Add four rect primitives between the rounded corners*
20,1,$1+$1,$2,$3,$4,$5,0*
20,1,$1+$1,$4,$5,$6,$7,0*
20,1,$1+$1,$6,$7,$8,$9,0*
20,1,$1+$1,$8,$9,$2,$3,0*%
G04 Aperture macros list end*
%ADD10RoundRect,0.200000X0.200000X0.275000X-0.200000X0.275000X-0.200000X-0.275000X0.200000X-0.275000X0*%
%ADD11R,1.700000X1.700000*%
%ADD12O,1.700000X1.700000*%
%ADD13R,1.200000X0.900000*%
%ADD14RoundRect,0.200000X0.275000X-0.200000X0.275000X0.200000X-0.275000X0.200000X-0.275000X-0.200000X0*%
%ADD15C,1.600000*%
%ADD16RoundRect,0.200000X-0.275000X0.200000X-0.275000X-0.200000X0.275000X-0.200000X0.275000X0.200000X0*%
%ADD17RoundRect,0.225000X0.225000X0.250000X-0.225000X0.250000X-0.225000X-0.250000X0.225000X-0.250000X0*%
%ADD18R,1.600000X1.600000*%
%ADD19O,1.600000X1.600000*%
%ADD20R,2.200000X1.200000*%
%ADD21R,6.400000X5.800000*%
%ADD22RoundRect,0.225000X-0.225000X-0.250000X0.225000X-0.250000X0.225000X0.250000X-0.225000X0.250000X0*%
%ADD23C,6.400000*%
%ADD24C,0.800000*%
G04 APERTURE END LIST*
D10*
%TO.C,R4*%
X214900000Y-62932744D03*
X213250000Y-62932744D03*
%TD*%
D11*
%TO.C,J4*%
X208875000Y-66932744D03*
D12*
X211415000Y-66932744D03*
X213955000Y-66932744D03*
%TD*%
D10*
%TO.C,R10*%
X207125000Y-87400000D03*
X205475000Y-87400000D03*
%TD*%
%TO.C,R9*%
X207125000Y-89800000D03*
X205475000Y-89800000D03*
%TD*%
D13*
%TO.C,D1*%
X228075000Y-62732744D03*
X228075000Y-59432744D03*
%TD*%
D10*
%TO.C,R8*%
X235795000Y-72565488D03*
X234145000Y-72565488D03*
%TD*%
D11*
%TO.C,J3*%
X208875000Y-60082744D03*
D12*
X211415000Y-60082744D03*
X213955000Y-60082744D03*
%TD*%
D14*
%TO.C,R1*%
X227675000Y-65907744D03*
X227675000Y-64257744D03*
%TD*%
D11*
%TO.C,SW1*%
X212400000Y-97400000D03*
D12*
X214940000Y-97400000D03*
%TD*%
D10*
%TO.C,R5*%
X211700000Y-69932744D03*
X210050000Y-69932744D03*
%TD*%
%TO.C,R6*%
X214900000Y-69932744D03*
X213250000Y-69932744D03*
%TD*%
D11*
%TO.C,J1*%
X219735000Y-59882744D03*
D12*
X222275000Y-59882744D03*
X224815000Y-59882744D03*
%TD*%
D11*
%TO.C,J6*%
X200335000Y-89780000D03*
D12*
X202875000Y-89780000D03*
X200335000Y-87240000D03*
X202875000Y-87240000D03*
X200335000Y-84700000D03*
X202875000Y-84700000D03*
X200335000Y-82160000D03*
X202875000Y-82160000D03*
X200335000Y-79620000D03*
X202875000Y-79620000D03*
X200335000Y-77080000D03*
X202875000Y-77080000D03*
X200335000Y-74540000D03*
X202875000Y-74540000D03*
X200335000Y-72000000D03*
X202875000Y-72000000D03*
%TD*%
D15*
%TO.C,U4*%
X242570000Y-74960000D03*
X240030000Y-74960000D03*
X237490000Y-74960000D03*
X234950000Y-74960000D03*
X232410000Y-74960000D03*
X229870000Y-74960000D03*
X227330000Y-74960000D03*
X224790000Y-74960000D03*
X222250000Y-74960000D03*
X219710000Y-74960000D03*
X217170000Y-74960000D03*
X214630000Y-74960000D03*
X212090000Y-74960000D03*
X209550000Y-74960000D03*
X209550000Y-90200000D03*
X212090000Y-90200000D03*
X214630000Y-90200000D03*
X217170000Y-90200000D03*
X219710000Y-90200000D03*
X222250000Y-90200000D03*
X224790000Y-90200000D03*
X227330000Y-90200000D03*
X229870000Y-90200000D03*
X232410000Y-90200000D03*
X234950000Y-90200000D03*
X237490000Y-90200000D03*
X240030000Y-90200000D03*
X242570000Y-90200000D03*
%TD*%
D11*
%TO.C,J2*%
X233950000Y-59857744D03*
D12*
X236490000Y-59857744D03*
X239030000Y-59857744D03*
%TD*%
D16*
%TO.C,R2*%
X231075000Y-61457744D03*
X231075000Y-63107744D03*
%TD*%
D10*
%TO.C,R16*%
X207125000Y-72000000D03*
X205475000Y-72000000D03*
%TD*%
D17*
%TO.C,C1*%
X224825000Y-72465488D03*
X223275000Y-72465488D03*
%TD*%
D18*
%TO.C,U2*%
X241275000Y-62882744D03*
D19*
X238735000Y-62882744D03*
X236195000Y-62882744D03*
X233655000Y-62882744D03*
X233655000Y-70502744D03*
X236195000Y-70502744D03*
X238735000Y-70502744D03*
X241275000Y-70502744D03*
%TD*%
D10*
%TO.C,R13*%
X207125000Y-77200000D03*
X205475000Y-77200000D03*
%TD*%
%TO.C,R3*%
X211700000Y-62932744D03*
X210050000Y-62932744D03*
%TD*%
%TO.C,R14*%
X207125000Y-74600000D03*
X205475000Y-74600000D03*
%TD*%
D13*
%TO.C,D2*%
X230675000Y-67932744D03*
X230675000Y-64632744D03*
%TD*%
D20*
%TO.C,U3*%
X224775000Y-93320000D03*
D21*
X231075000Y-95600000D03*
D20*
X224775000Y-97880000D03*
%TD*%
D10*
%TO.C,R12*%
X207125000Y-79800000D03*
X205475000Y-79800000D03*
%TD*%
D22*
%TO.C,C2*%
X240225000Y-72565488D03*
X241775000Y-72565488D03*
%TD*%
D10*
%TO.C,R15*%
X207125000Y-82200000D03*
X205475000Y-82200000D03*
%TD*%
%TO.C,R11*%
X207125000Y-84800000D03*
X205475000Y-84800000D03*
%TD*%
D23*
%TO.C,H1*%
X238600000Y-95000000D03*
%TD*%
D11*
%TO.C,U5*%
X202075000Y-97575000D03*
D12*
X204615000Y-97575000D03*
X207155000Y-97575000D03*
%TD*%
D23*
%TO.C,H2*%
X203800000Y-63600000D03*
%TD*%
D10*
%TO.C,R7*%
X219475000Y-72465488D03*
X217825000Y-72465488D03*
%TD*%
D11*
%TO.C,J5*%
X221000000Y-95000000D03*
D12*
X221000000Y-97540000D03*
%TD*%
D18*
%TO.C,U1*%
X225075000Y-62882744D03*
D19*
X222535000Y-62882744D03*
X219995000Y-62882744D03*
X217455000Y-62882744D03*
X217455000Y-70502744D03*
X219995000Y-70502744D03*
X222535000Y-70502744D03*
X225075000Y-70502744D03*
%TD*%
D24*
X209600000Y-79100000D03*
X207200000Y-91600000D03*
X208500000Y-63800000D03*
X236600000Y-76800000D03*
X239100000Y-88500000D03*
X211000000Y-76700000D03*
X242900000Y-72600000D03*
X228100000Y-69200000D03*
X208500000Y-70700000D03*
X211700000Y-93100000D03*
X226000000Y-88700000D03*
X233500000Y-66600000D03*
X209000000Y-84700000D03*
X203200000Y-69200000D03*
X230800000Y-59800000D03*
X221600000Y-73000000D03*
X227000000Y-72900000D03*
X208900000Y-87200000D03*
X241200000Y-66300000D03*
X217600000Y-77000000D03*
X209800000Y-97400000D03*
X217400000Y-82000000D03*
X216200000Y-61300000D03*
X216688158Y-93694734D03*
X218900000Y-67300000D03*
X224200000Y-84600000D03*
X220800000Y-84000000D03*
X200500000Y-92500000D03*
X209000000Y-82200000D03*
X217300000Y-79700000D03*
X211999998Y-72000000D03*
X230600000Y-72500000D03*
M02*
