M48
; DRILL file {KiCad (6.0.5)} date Sun Jun 26 17:30:21 2022
; FORMAT={-:-/ absolute / inch / decimal}
; #@! TF.CreationDate,2022-06-26T17:30:21+02:00
; #@! TF.GenerationSoftware,Kicad,Pcbnew,(6.0.5)
; #@! TF.FileFunction,Plated,1,2,PTH
FMAT,2
INCH
; #@! TA.AperFunction,Plated,PTH,ViaDrill
T1C0.0157
; #@! TA.AperFunction,Plated,PTH,ComponentDrill
T2C0.0315
; #@! TA.AperFunction,Plated,PTH,ComponentDrill
T3C0.0394
; #@! TA.AperFunction,Plated,PTH,ComponentDrill
T4C0.0433
; #@! TA.AperFunction,Plated,PTH,ComponentDrill
T5C0.1260
%
G90
G05
T1
X7.8937Y-3.6417
X8.0Y-2.7244
X8.1575Y-3.6063
X8.2087Y-2.5118
X8.2087Y-2.7835
X8.2244Y-3.4331
X8.2283Y-3.2362
X8.2283Y-3.3346
X8.252Y-3.1142
X8.2598Y-3.8346
X8.3071Y-3.0197
X8.3346Y-3.6654
X8.3465Y-2.8346
X8.5118Y-2.4134
X8.531Y-3.6888
X8.5551Y-3.1378
X8.5591Y-3.2283
X8.5669Y-3.0315
X8.6181Y-2.6496
X8.6929Y-3.3071
X8.7244Y-2.874
X8.8268Y-3.3307
X8.8976Y-3.4921
X8.937Y-2.8701
X8.9803Y-2.7244
X9.0787Y-2.8543
X9.0866Y-2.3543
X9.1929Y-2.622
X9.315Y-3.0236
X9.4134Y-3.4843
X9.4961Y-2.6102
X9.563Y-2.8583
T2
X8.5612Y-2.4757
X8.5612Y-2.7757
X8.6612Y-2.4757
X8.6612Y-2.7757
X8.7612Y-2.4757
X8.7612Y-2.7757
X8.8612Y-2.4757
X8.8612Y-2.7757
X9.199Y-2.4757
X9.199Y-2.7757
X9.299Y-2.4757
X9.299Y-2.7757
X9.399Y-2.4757
X9.399Y-2.7757
X9.499Y-2.4757
X9.499Y-2.7757
T3
X7.8872Y-2.8346
X7.8872Y-2.9346
X7.8872Y-3.0346
X7.8872Y-3.1346
X7.8872Y-3.2346
X7.8872Y-3.3346
X7.8872Y-3.4346
X7.8872Y-3.5346
X7.9557Y-3.8415
X7.9872Y-2.8346
X7.9872Y-2.9346
X7.9872Y-3.0346
X7.9872Y-3.1346
X7.9872Y-3.2346
X7.9872Y-3.3346
X7.9872Y-3.4346
X7.9872Y-3.5346
X8.0557Y-3.8415
X8.1557Y-3.8415
X8.2234Y-2.3655
X8.2234Y-2.6351
X8.3234Y-2.3655
X8.3234Y-2.6351
X8.3622Y-3.8346
X8.4234Y-2.3655
X8.4234Y-2.6351
X8.4622Y-3.8346
X8.651Y-2.3576
X8.7008Y-3.7402
X8.7008Y-3.8402
X8.751Y-2.3576
X8.851Y-2.3576
X9.2106Y-2.3566
X9.3106Y-2.3566
X9.4106Y-2.3566
T4
X8.25Y-2.9512
X8.25Y-3.5512
X8.35Y-2.9512
X8.35Y-3.5512
X8.45Y-2.9512
X8.45Y-3.5512
X8.55Y-2.9512
X8.55Y-3.5512
X8.65Y-2.9512
X8.65Y-3.5512
X8.75Y-2.9512
X8.75Y-3.5512
X8.85Y-2.9512
X8.85Y-3.5512
X8.95Y-2.9512
X8.95Y-3.5512
X9.05Y-2.9512
X9.05Y-3.5512
X9.15Y-2.9512
X9.15Y-3.5512
X9.25Y-2.9512
X9.25Y-3.5512
X9.35Y-2.9512
X9.35Y-3.5512
X9.45Y-2.9512
X9.45Y-3.5512
X9.55Y-2.9512
X9.55Y-3.5512
T5
X8.0236Y-2.5039
X9.3937Y-3.7402
T0
M30
