%TF.GenerationSoftware,KiCad,Pcbnew,(6.0.5)*%
%TF.CreationDate,2022-08-12T20:52:04+02:00*%
%TF.ProjectId,clarinoid-devboard,636c6172-696e-46f6-9964-2d646576626f,rev?*%
%TF.SameCoordinates,Original*%
%TF.FileFunction,Legend,Bot*%
%TF.FilePolarity,Positive*%
%FSLAX46Y46*%
G04 Gerber Fmt 4.6, Leading zero omitted, Abs format (unit mm)*
G04 Created by KiCad (PCBNEW (6.0.5)) date 2022-08-12 20:52:04*
%MOMM*%
%LPD*%
G01*
G04 APERTURE LIST*
%ADD10C,0.300000*%
%ADD11C,1.000000*%
%ADD12C,0.976388*%
%ADD13C,0.150000*%
%ADD14C,0.500000*%
%ADD15C,0.120000*%
%ADD16C,0.400000*%
%ADD17C,0.170000*%
%ADD18R,1.700000X1.700000*%
%ADD19O,1.700000X1.700000*%
%ADD20C,0.500000*%
%ADD21C,0.800000*%
G04 APERTURE END LIST*
D10*
X158309380Y-68418499D02*
X174309380Y-68418499D01*
X180619380Y-63293499D02*
X196619380Y-63293499D01*
X152439304Y-122950034D02*
X136439304Y-122950034D01*
X130439304Y-130950034D02*
X114439304Y-130950034D01*
D11*
X152439304Y-123950034D02*
X136439304Y-123950034D01*
D10*
X86611804Y-118950034D02*
X70611804Y-118950034D01*
D12*
X194898610Y-143850034D02*
G75*
G03*
X194898610Y-143850034I-488194J0D01*
G01*
X128398610Y-143850034D02*
G75*
G03*
X128398610Y-143850034I-488194J0D01*
G01*
D10*
X180619380Y-62293499D02*
X196619380Y-62293499D01*
X91939304Y-58450034D02*
X107939304Y-58450034D01*
X158309380Y-69418499D02*
X174309380Y-69418499D01*
D12*
X93549998Y-50001422D02*
G75*
G03*
X93549998Y-50001422I-488194J0D01*
G01*
X115799998Y-50001422D02*
G75*
G03*
X115799998Y-50001422I-488194J0D01*
G01*
X182049998Y-50251422D02*
G75*
G03*
X182049998Y-50251422I-488194J0D01*
G01*
D13*
G36*
X124939304Y-50880034D02*
G01*
X119939304Y-50880034D01*
X122439304Y-48380034D01*
X124939304Y-50880034D01*
G37*
X124939304Y-50880034D02*
X119939304Y-50880034D01*
X122439304Y-48380034D01*
X124939304Y-50880034D01*
D10*
X114439304Y-62950034D02*
X130439304Y-62950034D01*
D12*
X106799998Y-143600034D02*
G75*
G03*
X106799998Y-143600034I-488194J0D01*
G01*
D10*
X174939304Y-124450034D02*
X158939304Y-124450034D01*
X70611804Y-73950034D02*
X86611804Y-73950034D01*
D11*
X70611804Y-72950034D02*
X86611804Y-72950034D01*
D10*
X196439304Y-129950034D02*
X180439304Y-129950034D01*
D13*
G36*
X80611804Y-50950034D02*
G01*
X75611804Y-50950034D01*
X78111804Y-48450034D01*
X80611804Y-50950034D01*
G37*
X80611804Y-50950034D02*
X75611804Y-50950034D01*
X78111804Y-48450034D01*
X80611804Y-50950034D01*
D11*
X180619380Y-61293499D02*
X196619380Y-61293499D01*
D10*
X107939304Y-135450034D02*
X91939304Y-135450034D01*
X130439304Y-129950034D02*
X114439304Y-129950034D01*
X86611804Y-119950034D02*
X70611804Y-119950034D01*
D11*
X107939304Y-137450034D02*
X91939304Y-137450034D01*
D13*
G36*
X168939304Y-50950034D02*
G01*
X163939304Y-50950034D01*
X166439304Y-48450034D01*
X168939304Y-50950034D01*
G37*
X168939304Y-50950034D02*
X163939304Y-50950034D01*
X166439304Y-48450034D01*
X168939304Y-50950034D01*
D12*
X150799998Y-143850034D02*
G75*
G03*
X150799998Y-143850034I-488194J0D01*
G01*
D11*
X158309380Y-67418499D02*
X174309380Y-67418499D01*
D13*
G36*
X190939304Y-50950034D02*
G01*
X185939304Y-50950034D01*
X188439304Y-48450034D01*
X190939304Y-50950034D01*
G37*
X190939304Y-50950034D02*
X185939304Y-50950034D01*
X188439304Y-48450034D01*
X190939304Y-50950034D01*
D11*
X91939304Y-56450034D02*
X107939304Y-56450034D01*
D10*
X136662380Y-70809499D02*
X152662380Y-70809499D01*
D12*
X172299998Y-143350034D02*
G75*
G03*
X172299998Y-143350034I-488194J0D01*
G01*
D10*
X70611804Y-74950034D02*
X86611804Y-74950034D01*
X196439304Y-130950034D02*
X180439304Y-130950034D01*
D12*
X84549998Y-143350034D02*
G75*
G03*
X84549998Y-143350034I-488194J0D01*
G01*
D11*
X114439304Y-61950034D02*
X130439304Y-61950034D01*
D10*
X152439304Y-121950034D02*
X136439304Y-121950034D01*
D12*
X138049998Y-50251422D02*
G75*
G03*
X138049998Y-50251422I-488194J0D01*
G01*
D11*
X86611804Y-120950034D02*
X70611804Y-120950034D01*
D10*
X91939304Y-57450034D02*
X107939304Y-57450034D01*
X174939304Y-125450034D02*
X158939304Y-125450034D01*
X107939304Y-136450034D02*
X91939304Y-136450034D01*
D13*
G36*
X146939304Y-50950034D02*
G01*
X141939304Y-50950034D01*
X144439304Y-48450034D01*
X146939304Y-50950034D01*
G37*
X146939304Y-50950034D02*
X141939304Y-50950034D01*
X144439304Y-48450034D01*
X146939304Y-50950034D01*
D12*
X71749998Y-49850034D02*
G75*
G03*
X71749998Y-49850034I-488194J0D01*
G01*
D10*
X136662380Y-71809499D02*
X152662380Y-71809499D01*
D11*
X174939304Y-126450034D02*
X158939304Y-126450034D01*
X136662380Y-69809499D02*
X152662380Y-69809499D01*
D13*
G36*
X102939304Y-50950034D02*
G01*
X97939304Y-50950034D01*
X100439304Y-48450034D01*
X102939304Y-50950034D01*
G37*
X102939304Y-50950034D02*
X97939304Y-50950034D01*
X100439304Y-48450034D01*
X102939304Y-50950034D01*
D12*
X159799998Y-50501422D02*
G75*
G03*
X159799998Y-50501422I-488194J0D01*
G01*
D10*
X114439304Y-63950034D02*
X130439304Y-63950034D01*
D11*
X130439304Y-131950034D02*
X114439304Y-131950034D01*
X196439304Y-131950034D02*
X180439304Y-131950034D01*
D14*
X125801799Y-140313854D02*
X125801799Y-141980521D01*
X126397037Y-139361473D02*
X126992275Y-141147188D01*
X125444656Y-141147188D01*
X124730370Y-141980521D02*
X123420847Y-140313854D01*
X124730370Y-140313854D02*
X123420847Y-141980521D01*
X121397037Y-140313854D02*
X121397037Y-141980521D01*
X121992275Y-139361473D02*
X122587513Y-141147188D01*
X121039894Y-141147188D01*
X120325608Y-141980521D02*
X119016085Y-140313854D01*
X120325608Y-140313854D02*
X119016085Y-141980521D01*
X118182751Y-139718616D02*
X118063704Y-139599569D01*
X117825608Y-139480521D01*
X117230370Y-139480521D01*
X116992275Y-139599569D01*
X116873228Y-139718616D01*
X116754180Y-139956711D01*
X116754180Y-140194807D01*
X116873228Y-140551949D01*
X118301799Y-141980521D01*
X116754180Y-141980521D01*
X170597799Y-136445854D02*
X170597799Y-138112521D01*
X171193037Y-135493473D02*
X171788275Y-137279188D01*
X170240656Y-137279188D01*
X169526370Y-138112521D02*
X168216847Y-136445854D01*
X169526370Y-136445854D02*
X168216847Y-138112521D01*
X166193037Y-136445854D02*
X166193037Y-138112521D01*
X166788275Y-135493473D02*
X167383513Y-137279188D01*
X165835894Y-137279188D01*
X165121608Y-138112521D02*
X163812085Y-136445854D01*
X165121608Y-136445854D02*
X163812085Y-138112521D01*
X161550180Y-138112521D02*
X162978751Y-138112521D01*
X162264466Y-138112521D02*
X162264466Y-135612521D01*
X162502561Y-135969664D01*
X162740656Y-136207759D01*
X162978751Y-136326807D01*
X83849899Y-132330986D02*
X82302280Y-132330986D01*
X83135613Y-133283367D01*
X82778470Y-133283367D01*
X82540375Y-133402414D01*
X82421327Y-133521462D01*
X82302280Y-133759557D01*
X82302280Y-134354795D01*
X82421327Y-134592891D01*
X82540375Y-134711938D01*
X82778470Y-134830986D01*
X83492756Y-134830986D01*
X83730851Y-134711938D01*
X83849899Y-134592891D01*
X81468946Y-134830986D02*
X80159423Y-133164319D01*
X81468946Y-133164319D02*
X80159423Y-134830986D01*
X79445137Y-132330986D02*
X77897518Y-132330986D01*
X78730851Y-133283367D01*
X78373708Y-133283367D01*
X78135613Y-133402414D01*
X78016565Y-133521462D01*
X77897518Y-133759557D01*
X77897518Y-134354795D01*
X78016565Y-134592891D01*
X78135613Y-134711938D01*
X78373708Y-134830986D01*
X79087994Y-134830986D01*
X79326089Y-134711938D01*
X79445137Y-134592891D01*
X77064184Y-134830986D02*
X75754661Y-133164319D01*
X77064184Y-133164319D02*
X75754661Y-134830986D01*
X73492756Y-134830986D02*
X74921327Y-134830986D01*
X74207042Y-134830986D02*
X74207042Y-132330986D01*
X74445137Y-132688129D01*
X74683232Y-132926224D01*
X74921327Y-133045272D01*
X126701799Y-53813854D02*
X126701799Y-55480521D01*
X127297037Y-52861473D02*
X127892275Y-54647188D01*
X126344656Y-54647188D01*
X125630370Y-55480521D02*
X124320847Y-53813854D01*
X125630370Y-53813854D02*
X124320847Y-55480521D01*
X122297037Y-53813854D02*
X122297037Y-55480521D01*
X122892275Y-52861473D02*
X123487513Y-54647188D01*
X121939894Y-54647188D01*
X121225608Y-55480521D02*
X119916085Y-53813854D01*
X121225608Y-53813854D02*
X119916085Y-55480521D01*
X119082751Y-53218616D02*
X118963704Y-53099569D01*
X118725608Y-52980521D01*
X118130370Y-52980521D01*
X117892275Y-53099569D01*
X117773228Y-53218616D01*
X117654180Y-53456711D01*
X117654180Y-53694807D01*
X117773228Y-54051949D01*
X119201799Y-55480521D01*
X117654180Y-55480521D01*
X103481799Y-140774854D02*
X103481799Y-142441521D01*
X104077037Y-139822473D02*
X104672275Y-141608188D01*
X103124656Y-141608188D01*
X102410370Y-142441521D02*
X101100847Y-140774854D01*
X102410370Y-140774854D02*
X101100847Y-142441521D01*
X99077037Y-140774854D02*
X99077037Y-142441521D01*
X99672275Y-139822473D02*
X100267513Y-141608188D01*
X98719894Y-141608188D01*
X98005608Y-142441521D02*
X96696085Y-140774854D01*
X98005608Y-140774854D02*
X96696085Y-142441521D01*
X95981799Y-139941521D02*
X94434180Y-139941521D01*
X95267513Y-140893902D01*
X94910370Y-140893902D01*
X94672275Y-141012949D01*
X94553228Y-141131997D01*
X94434180Y-141370092D01*
X94434180Y-141965330D01*
X94553228Y-142203426D01*
X94672275Y-142322473D01*
X94910370Y-142441521D01*
X95624656Y-142441521D01*
X95862751Y-142322473D01*
X95981799Y-142203426D01*
X150030513Y-135454854D02*
X150030513Y-137121521D01*
X150625751Y-134502473D02*
X151220989Y-136288188D01*
X149673370Y-136288188D01*
X148959085Y-137121521D02*
X147649561Y-135454854D01*
X148959085Y-135454854D02*
X147649561Y-137121521D01*
X145625751Y-135454854D02*
X145625751Y-137121521D01*
X146220989Y-134502473D02*
X146816228Y-136288188D01*
X145268608Y-136288188D01*
X144554323Y-137121521D02*
X143244799Y-135454854D01*
X144554323Y-135454854D02*
X143244799Y-137121521D01*
X141816228Y-134621521D02*
X141578132Y-134621521D01*
X141340037Y-134740569D01*
X141220989Y-134859616D01*
X141101942Y-135097711D01*
X140982894Y-135573902D01*
X140982894Y-136169140D01*
X141101942Y-136645330D01*
X141220989Y-136883426D01*
X141340037Y-137002473D01*
X141578132Y-137121521D01*
X141816228Y-137121521D01*
X142054323Y-137002473D01*
X142173370Y-136883426D01*
X142292418Y-136645330D01*
X142411466Y-136169140D01*
X142411466Y-135573902D01*
X142292418Y-135097711D01*
X142173370Y-134859616D01*
X142054323Y-134740569D01*
X141816228Y-134621521D01*
X139911466Y-136883426D02*
X139792418Y-137002473D01*
X139911466Y-137121521D01*
X140030513Y-137002473D01*
X139911466Y-136883426D01*
X139911466Y-137121521D01*
X137530513Y-134621521D02*
X138720989Y-134621521D01*
X138840037Y-135811997D01*
X138720989Y-135692949D01*
X138482894Y-135573902D01*
X137887656Y-135573902D01*
X137649561Y-135692949D01*
X137530513Y-135811997D01*
X137411466Y-136050092D01*
X137411466Y-136645330D01*
X137530513Y-136883426D01*
X137649561Y-137002473D01*
X137887656Y-137121521D01*
X138482894Y-137121521D01*
X138720989Y-137002473D01*
X138840037Y-136883426D01*
X192168751Y-137980986D02*
X193359228Y-137980986D01*
X193478275Y-139171462D01*
X193359228Y-139052414D01*
X193121132Y-138933367D01*
X192525894Y-138933367D01*
X192287799Y-139052414D01*
X192168751Y-139171462D01*
X192049704Y-139409557D01*
X192049704Y-140004795D01*
X192168751Y-140242891D01*
X192287799Y-140361938D01*
X192525894Y-140480986D01*
X193121132Y-140480986D01*
X193359228Y-140361938D01*
X193478275Y-140242891D01*
X191216370Y-140480986D02*
X189906847Y-138814319D01*
X191216370Y-138814319D02*
X189906847Y-140480986D01*
X187763989Y-137980986D02*
X188954466Y-137980986D01*
X189073513Y-139171462D01*
X188954466Y-139052414D01*
X188716370Y-138933367D01*
X188121132Y-138933367D01*
X187883037Y-139052414D01*
X187763989Y-139171462D01*
X187644942Y-139409557D01*
X187644942Y-140004795D01*
X187763989Y-140242891D01*
X187883037Y-140361938D01*
X188121132Y-140480986D01*
X188716370Y-140480986D01*
X188954466Y-140361938D01*
X189073513Y-140242891D01*
X186811608Y-140480986D02*
X185502085Y-138814319D01*
X186811608Y-138814319D02*
X185502085Y-140480986D01*
X183240180Y-140480986D02*
X184668751Y-140480986D01*
X183954466Y-140480986D02*
X183954466Y-137980986D01*
X184192561Y-138338129D01*
X184430656Y-138576224D01*
X184668751Y-138695272D01*
X192248827Y-53080986D02*
X193439304Y-53080986D01*
X193558351Y-54271462D01*
X193439304Y-54152414D01*
X193201208Y-54033367D01*
X192605970Y-54033367D01*
X192367875Y-54152414D01*
X192248827Y-54271462D01*
X192129780Y-54509557D01*
X192129780Y-55104795D01*
X192248827Y-55342891D01*
X192367875Y-55461938D01*
X192605970Y-55580986D01*
X193201208Y-55580986D01*
X193439304Y-55461938D01*
X193558351Y-55342891D01*
X191296446Y-55580986D02*
X189986923Y-53914319D01*
X191296446Y-53914319D02*
X189986923Y-55580986D01*
X187844065Y-53080986D02*
X189034542Y-53080986D01*
X189153589Y-54271462D01*
X189034542Y-54152414D01*
X188796446Y-54033367D01*
X188201208Y-54033367D01*
X187963113Y-54152414D01*
X187844065Y-54271462D01*
X187725018Y-54509557D01*
X187725018Y-55104795D01*
X187844065Y-55342891D01*
X187963113Y-55461938D01*
X188201208Y-55580986D01*
X188796446Y-55580986D01*
X189034542Y-55461938D01*
X189153589Y-55342891D01*
X186891684Y-55580986D02*
X185582161Y-53914319D01*
X186891684Y-53914319D02*
X185582161Y-55580986D01*
X183320256Y-55580986D02*
X184748827Y-55580986D01*
X184034542Y-55580986D02*
X184034542Y-53080986D01*
X184272637Y-53438129D01*
X184510732Y-53676224D01*
X184748827Y-53795272D01*
X169867875Y-56914319D02*
X169867875Y-58580986D01*
X170463113Y-55961938D02*
X171058351Y-57747653D01*
X169510732Y-57747653D01*
X168796446Y-58580986D02*
X167486923Y-56914319D01*
X168796446Y-56914319D02*
X167486923Y-58580986D01*
X165463113Y-56914319D02*
X165463113Y-58580986D01*
X166058351Y-55961938D02*
X166653589Y-57747653D01*
X165105970Y-57747653D01*
X164391684Y-58580986D02*
X163082161Y-56914319D01*
X164391684Y-56914319D02*
X163082161Y-58580986D01*
X160820256Y-58580986D02*
X162248827Y-58580986D01*
X161534542Y-58580986D02*
X161534542Y-56080986D01*
X161772637Y-56438129D01*
X162010732Y-56676224D01*
X162248827Y-56795272D01*
X104367875Y-52914319D02*
X104367875Y-54580986D01*
X104963113Y-51961938D02*
X105558351Y-53747653D01*
X104010732Y-53747653D01*
X103296446Y-54580986D02*
X101986923Y-52914319D01*
X103296446Y-52914319D02*
X101986923Y-54580986D01*
X99963113Y-52914319D02*
X99963113Y-54580986D01*
X100558351Y-51961938D02*
X101153589Y-53747653D01*
X99605970Y-53747653D01*
X98891684Y-54580986D02*
X97582161Y-52914319D01*
X98891684Y-52914319D02*
X97582161Y-54580986D01*
X96867875Y-52080986D02*
X95320256Y-52080986D01*
X96153589Y-53033367D01*
X95796446Y-53033367D01*
X95558351Y-53152414D01*
X95439304Y-53271462D01*
X95320256Y-53509557D01*
X95320256Y-54104795D01*
X95439304Y-54342891D01*
X95558351Y-54461938D01*
X95796446Y-54580986D01*
X96510732Y-54580986D01*
X96748827Y-54461938D01*
X96867875Y-54342891D01*
X83749899Y-58030986D02*
X82202280Y-58030986D01*
X83035613Y-58983367D01*
X82678470Y-58983367D01*
X82440375Y-59102414D01*
X82321327Y-59221462D01*
X82202280Y-59459557D01*
X82202280Y-60054795D01*
X82321327Y-60292891D01*
X82440375Y-60411938D01*
X82678470Y-60530986D01*
X83392756Y-60530986D01*
X83630851Y-60411938D01*
X83749899Y-60292891D01*
X81368946Y-60530986D02*
X80059423Y-58864319D01*
X81368946Y-58864319D02*
X80059423Y-60530986D01*
X79345137Y-58030986D02*
X77797518Y-58030986D01*
X78630851Y-58983367D01*
X78273708Y-58983367D01*
X78035613Y-59102414D01*
X77916565Y-59221462D01*
X77797518Y-59459557D01*
X77797518Y-60054795D01*
X77916565Y-60292891D01*
X78035613Y-60411938D01*
X78273708Y-60530986D01*
X78987994Y-60530986D01*
X79226089Y-60411938D01*
X79345137Y-60292891D01*
X76964184Y-60530986D02*
X75654661Y-58864319D01*
X76964184Y-58864319D02*
X75654661Y-60530986D01*
X73392756Y-60530986D02*
X74821327Y-60530986D01*
X74107042Y-60530986D02*
X74107042Y-58030986D01*
X74345137Y-58388129D01*
X74583232Y-58626224D01*
X74821327Y-58745272D01*
X150153589Y-57414319D02*
X150153589Y-59080986D01*
X150748827Y-56461938D02*
X151344065Y-58247653D01*
X149796446Y-58247653D01*
X149082161Y-59080986D02*
X147772637Y-57414319D01*
X149082161Y-57414319D02*
X147772637Y-59080986D01*
X145748827Y-57414319D02*
X145748827Y-59080986D01*
X146344065Y-56461938D02*
X146939304Y-58247653D01*
X145391684Y-58247653D01*
X144677399Y-59080986D02*
X143367875Y-57414319D01*
X144677399Y-57414319D02*
X143367875Y-59080986D01*
X141939304Y-56580986D02*
X141701208Y-56580986D01*
X141463113Y-56700034D01*
X141344065Y-56819081D01*
X141225018Y-57057176D01*
X141105970Y-57533367D01*
X141105970Y-58128605D01*
X141225018Y-58604795D01*
X141344065Y-58842891D01*
X141463113Y-58961938D01*
X141701208Y-59080986D01*
X141939304Y-59080986D01*
X142177399Y-58961938D01*
X142296446Y-58842891D01*
X142415494Y-58604795D01*
X142534542Y-58128605D01*
X142534542Y-57533367D01*
X142415494Y-57057176D01*
X142296446Y-56819081D01*
X142177399Y-56700034D01*
X141939304Y-56580986D01*
X140034542Y-58842891D02*
X139915494Y-58961938D01*
X140034542Y-59080986D01*
X140153589Y-58961938D01*
X140034542Y-58842891D01*
X140034542Y-59080986D01*
X137653589Y-56580986D02*
X138844065Y-56580986D01*
X138963113Y-57771462D01*
X138844065Y-57652414D01*
X138605970Y-57533367D01*
X138010732Y-57533367D01*
X137772637Y-57652414D01*
X137653589Y-57771462D01*
X137534542Y-58009557D01*
X137534542Y-58604795D01*
X137653589Y-58842891D01*
X137772637Y-58961938D01*
X138010732Y-59080986D01*
X138605970Y-59080986D01*
X138844065Y-58961938D01*
X138963113Y-58842891D01*
D13*
%TO.C,J20*%
X76264184Y-70790510D02*
X76978470Y-70790510D01*
X77121327Y-70742891D01*
X77216565Y-70647653D01*
X77264184Y-70504795D01*
X77264184Y-70409557D01*
X76359423Y-71219081D02*
X76311804Y-71266700D01*
X76264184Y-71361938D01*
X76264184Y-71600034D01*
X76311804Y-71695272D01*
X76359423Y-71742891D01*
X76454661Y-71790510D01*
X76549899Y-71790510D01*
X76692756Y-71742891D01*
X77264184Y-71171462D01*
X77264184Y-71790510D01*
X76264184Y-72409557D02*
X76264184Y-72504795D01*
X76311804Y-72600034D01*
X76359423Y-72647653D01*
X76454661Y-72695272D01*
X76645137Y-72742891D01*
X76883232Y-72742891D01*
X77073708Y-72695272D01*
X77168946Y-72647653D01*
X77216565Y-72600034D01*
X77264184Y-72504795D01*
X77264184Y-72409557D01*
X77216565Y-72314319D01*
X77168946Y-72266700D01*
X77073708Y-72219081D01*
X76883232Y-72171462D01*
X76645137Y-72171462D01*
X76454661Y-72219081D01*
X76359423Y-72266700D01*
X76311804Y-72314319D01*
X76264184Y-72409557D01*
D15*
%TO.C,J16*%
X116139304Y-98100034D02*
X119139304Y-95100034D01*
X128139304Y-96100034D02*
X126139304Y-98100034D01*
X118139304Y-95100034D02*
X116139304Y-97100034D01*
X116139304Y-96100034D02*
X117139304Y-95100034D01*
X127139304Y-95100034D02*
X124139304Y-98100034D01*
X125139304Y-95100034D02*
X122139304Y-98100034D01*
X119139304Y-98100034D02*
X122139304Y-95100034D01*
X123139304Y-98100034D02*
X126139304Y-95100034D01*
X118139304Y-98100034D02*
X121139304Y-95100034D01*
X121139304Y-98100034D02*
X124139304Y-95100034D01*
X127139304Y-98100034D02*
X128139304Y-97100034D01*
X120139304Y-95100034D02*
X117139304Y-98100034D01*
X125139304Y-98100034D02*
X128139304Y-95100034D01*
X123139304Y-95100034D02*
X120139304Y-98100034D01*
%TO.C,J23*%
D16*
X144839304Y-95600034D02*
G75*
G03*
X144839304Y-95600034I-200000J0D01*
G01*
X148839304Y-97600034D02*
G75*
G03*
X148839304Y-97600034I-200000J0D01*
G01*
X139339304Y-96600034D02*
G75*
G03*
X139339304Y-96600034I-200000J0D01*
G01*
X146839304Y-95600034D02*
G75*
G03*
X146839304Y-95600034I-200000J0D01*
G01*
X140839304Y-95600034D02*
G75*
G03*
X140839304Y-95600034I-200000J0D01*
G01*
X143839304Y-97600034D02*
G75*
G03*
X143839304Y-97600034I-200000J0D01*
G01*
X145339304Y-96600034D02*
G75*
G03*
X145339304Y-96600034I-200000J0D01*
G01*
X147839304Y-95600034D02*
G75*
G03*
X147839304Y-95600034I-200000J0D01*
G01*
X142839304Y-97600034D02*
G75*
G03*
X142839304Y-97600034I-200000J0D01*
G01*
X143839304Y-95600034D02*
G75*
G03*
X143839304Y-95600034I-200000J0D01*
G01*
X138839304Y-95600034D02*
G75*
G03*
X138839304Y-95600034I-200000J0D01*
G01*
X140339304Y-96600034D02*
G75*
G03*
X140339304Y-96600034I-200000J0D01*
G01*
X139839304Y-97600034D02*
G75*
G03*
X139839304Y-97600034I-200000J0D01*
G01*
X144339304Y-96600034D02*
G75*
G03*
X144339304Y-96600034I-200000J0D01*
G01*
X145839304Y-95600034D02*
G75*
G03*
X145839304Y-95600034I-200000J0D01*
G01*
X149839304Y-97600034D02*
G75*
G03*
X149839304Y-97600034I-200000J0D01*
G01*
X149339304Y-96600034D02*
G75*
G03*
X149339304Y-96600034I-200000J0D01*
G01*
X142839304Y-95600034D02*
G75*
G03*
X142839304Y-95600034I-200000J0D01*
G01*
X146839304Y-97600034D02*
G75*
G03*
X146839304Y-97600034I-200000J0D01*
G01*
X141839304Y-97600034D02*
G75*
G03*
X141839304Y-97600034I-200000J0D01*
G01*
X147339304Y-96600034D02*
G75*
G03*
X147339304Y-96600034I-200000J0D01*
G01*
X138839304Y-97600034D02*
G75*
G03*
X138839304Y-97600034I-200000J0D01*
G01*
X148839304Y-95600034D02*
G75*
G03*
X148839304Y-95600034I-200000J0D01*
G01*
X149839304Y-95600034D02*
G75*
G03*
X149839304Y-95600034I-200000J0D01*
G01*
X141339304Y-96600034D02*
G75*
G03*
X141339304Y-96600034I-200000J0D01*
G01*
X143339304Y-96600034D02*
G75*
G03*
X143339304Y-96600034I-200000J0D01*
G01*
X140839304Y-97600034D02*
G75*
G03*
X140839304Y-97600034I-200000J0D01*
G01*
X141839304Y-95600034D02*
G75*
G03*
X141839304Y-95600034I-200000J0D01*
G01*
X144839304Y-97600034D02*
G75*
G03*
X144839304Y-97600034I-200000J0D01*
G01*
X138339304Y-96600034D02*
G75*
G03*
X138339304Y-96600034I-200000J0D01*
G01*
X145839304Y-97600034D02*
G75*
G03*
X145839304Y-97600034I-200000J0D01*
G01*
X148339304Y-96600034D02*
G75*
G03*
X148339304Y-96600034I-200000J0D01*
G01*
X146339304Y-96600034D02*
G75*
G03*
X146339304Y-96600034I-200000J0D01*
G01*
X147839304Y-97600034D02*
G75*
G03*
X147839304Y-97600034I-200000J0D01*
G01*
X150339304Y-96600034D02*
G75*
G03*
X150339304Y-96600034I-200000J0D01*
G01*
X142339304Y-96600034D02*
G75*
G03*
X142339304Y-96600034I-200000J0D01*
G01*
X139839304Y-95600034D02*
G75*
G03*
X139839304Y-95600034I-200000J0D01*
G01*
D17*
%TO.C,J28*%
X195639304Y-95100034D02*
X180639304Y-95100034D01*
X195639304Y-97100034D02*
X180639304Y-97100034D01*
X195639304Y-94600034D02*
X180639304Y-94600034D01*
D11*
X195639304Y-96100034D02*
X180639304Y-96100034D01*
D17*
X195639304Y-98100034D02*
X180639304Y-98100034D01*
X195639304Y-97600034D02*
X180639304Y-97600034D01*
X195639304Y-94100034D02*
X180639304Y-94100034D01*
%TO.C,J20*%
D16*
X74011804Y-96600034D02*
G75*
G03*
X74011804Y-96600034I-200000J0D01*
G01*
X82011804Y-96600034D02*
G75*
G03*
X82011804Y-96600034I-200000J0D01*
G01*
X78011804Y-96600034D02*
G75*
G03*
X78011804Y-96600034I-200000J0D01*
G01*
X79011804Y-96600034D02*
G75*
G03*
X79011804Y-96600034I-200000J0D01*
G01*
X83011804Y-96600034D02*
G75*
G03*
X83011804Y-96600034I-200000J0D01*
G01*
X76011804Y-96600034D02*
G75*
G03*
X76011804Y-96600034I-200000J0D01*
G01*
X75011804Y-96600034D02*
G75*
G03*
X75011804Y-96600034I-200000J0D01*
G01*
X81011804Y-96600034D02*
G75*
G03*
X81011804Y-96600034I-200000J0D01*
G01*
X77011804Y-96600034D02*
G75*
G03*
X77011804Y-96600034I-200000J0D01*
G01*
X80011804Y-96600034D02*
G75*
G03*
X80011804Y-96600034I-200000J0D01*
G01*
D15*
%TO.C,J22*%
X105139304Y-98100034D02*
X106139304Y-97100034D01*
X96139304Y-95100034D02*
X94139304Y-97100034D01*
X94139304Y-98100034D02*
X97139304Y-95100034D01*
X106139304Y-96100034D02*
X104139304Y-98100034D01*
X96139304Y-98100034D02*
X99139304Y-95100034D01*
X98139304Y-95100034D02*
X95139304Y-98100034D01*
X99139304Y-98100034D02*
X102139304Y-95100034D01*
X94139304Y-96100034D02*
X95139304Y-95100034D01*
X97139304Y-98100034D02*
X100139304Y-95100034D01*
X103139304Y-98100034D02*
X106139304Y-95100034D01*
X103139304Y-95100034D02*
X100139304Y-98100034D01*
X101139304Y-95100034D02*
X98139304Y-98100034D01*
X101139304Y-98100034D02*
X104139304Y-95100034D01*
X105139304Y-95100034D02*
X102139304Y-98100034D01*
%TO.C,J29*%
D16*
X170839304Y-97600034D02*
G75*
G03*
X170839304Y-97600034I-200000J0D01*
G01*
X168339304Y-96600034D02*
G75*
G03*
X168339304Y-96600034I-200000J0D01*
G01*
X160839304Y-95600034D02*
G75*
G03*
X160839304Y-95600034I-200000J0D01*
G01*
X163339304Y-96600034D02*
G75*
G03*
X163339304Y-96600034I-200000J0D01*
G01*
X160839304Y-97600034D02*
G75*
G03*
X160839304Y-97600034I-200000J0D01*
G01*
X169839304Y-97600034D02*
G75*
G03*
X169839304Y-97600034I-200000J0D01*
G01*
X164839304Y-95600034D02*
G75*
G03*
X164839304Y-95600034I-200000J0D01*
G01*
X163839304Y-97600034D02*
G75*
G03*
X163839304Y-97600034I-200000J0D01*
G01*
X170839304Y-95600034D02*
G75*
G03*
X170839304Y-95600034I-200000J0D01*
G01*
X165839304Y-95600034D02*
G75*
G03*
X165839304Y-95600034I-200000J0D01*
G01*
X167339304Y-96600034D02*
G75*
G03*
X167339304Y-96600034I-200000J0D01*
G01*
X171839304Y-97600034D02*
G75*
G03*
X171839304Y-97600034I-200000J0D01*
G01*
X163839304Y-95600034D02*
G75*
G03*
X163839304Y-95600034I-200000J0D01*
G01*
X161339304Y-96600034D02*
G75*
G03*
X161339304Y-96600034I-200000J0D01*
G01*
X162339304Y-96600034D02*
G75*
G03*
X162339304Y-96600034I-200000J0D01*
G01*
X168839304Y-97600034D02*
G75*
G03*
X168839304Y-97600034I-200000J0D01*
G01*
X161839304Y-97600034D02*
G75*
G03*
X161839304Y-97600034I-200000J0D01*
G01*
X162839304Y-95600034D02*
G75*
G03*
X162839304Y-95600034I-200000J0D01*
G01*
X165339304Y-96600034D02*
G75*
G03*
X165339304Y-96600034I-200000J0D01*
G01*
X166839304Y-95600034D02*
G75*
G03*
X166839304Y-95600034I-200000J0D01*
G01*
X171339304Y-96600034D02*
G75*
G03*
X171339304Y-96600034I-200000J0D01*
G01*
X164339304Y-96600034D02*
G75*
G03*
X164339304Y-96600034I-200000J0D01*
G01*
X167839304Y-97600034D02*
G75*
G03*
X167839304Y-97600034I-200000J0D01*
G01*
X169339304Y-96600034D02*
G75*
G03*
X169339304Y-96600034I-200000J0D01*
G01*
X162839304Y-97600034D02*
G75*
G03*
X162839304Y-97600034I-200000J0D01*
G01*
X169839304Y-95600034D02*
G75*
G03*
X169839304Y-95600034I-200000J0D01*
G01*
X170339304Y-96600034D02*
G75*
G03*
X170339304Y-96600034I-200000J0D01*
G01*
X167839304Y-95600034D02*
G75*
G03*
X167839304Y-95600034I-200000J0D01*
G01*
X164839304Y-97600034D02*
G75*
G03*
X164839304Y-97600034I-200000J0D01*
G01*
X165839304Y-97600034D02*
G75*
G03*
X165839304Y-97600034I-200000J0D01*
G01*
X166339304Y-96600034D02*
G75*
G03*
X166339304Y-96600034I-200000J0D01*
G01*
X161839304Y-95600034D02*
G75*
G03*
X161839304Y-95600034I-200000J0D01*
G01*
X166839304Y-97600034D02*
G75*
G03*
X166839304Y-97600034I-200000J0D01*
G01*
X168839304Y-95600034D02*
G75*
G03*
X168839304Y-95600034I-200000J0D01*
G01*
X160339304Y-96600034D02*
G75*
G03*
X160339304Y-96600034I-200000J0D01*
G01*
X172339304Y-96600034D02*
G75*
G03*
X172339304Y-96600034I-200000J0D01*
G01*
X171839304Y-95600034D02*
G75*
G03*
X171839304Y-95600034I-200000J0D01*
G01*
%TD*%
%LPC*%
D18*
%TO.C,J15*%
X127839304Y-146600034D03*
D19*
X125299304Y-146600034D03*
X122759304Y-146600034D03*
X120219304Y-146600034D03*
X117679304Y-146600034D03*
X115139304Y-146600034D03*
%TD*%
D20*
%TO.C,U35*%
X109889304Y-143850034D03*
X112389304Y-142350034D03*
X109889304Y-144600034D03*
X112389304Y-144600034D03*
X112389304Y-143850034D03*
X112389304Y-143100034D03*
X109889304Y-142350034D03*
X109889304Y-143100034D03*
%TD*%
D18*
%TO.C,J25*%
X193839304Y-146600034D03*
D19*
X191299304Y-146600034D03*
X188759304Y-146600034D03*
X186219304Y-146600034D03*
X183679304Y-146600034D03*
X181139304Y-146600034D03*
%TD*%
D20*
%TO.C,U25*%
X175889304Y-142350034D03*
X175889304Y-143100034D03*
X178389304Y-143850034D03*
X175889304Y-144600034D03*
X175889304Y-143850034D03*
X178389304Y-142350034D03*
X178389304Y-143100034D03*
X178389304Y-144600034D03*
%TD*%
D18*
%TO.C,J21*%
X149839304Y-146600034D03*
D19*
X147299304Y-146600034D03*
X144759304Y-146600034D03*
X142219304Y-146600034D03*
X139679304Y-146600034D03*
X137139304Y-146600034D03*
%TD*%
D20*
%TO.C,U37*%
X153889304Y-49100034D03*
X153889304Y-48350034D03*
X156389304Y-49850034D03*
X156389304Y-50600034D03*
X156389304Y-48350034D03*
X156389304Y-49100034D03*
X153889304Y-50600034D03*
X153889304Y-49850034D03*
%TD*%
D18*
%TO.C,J9*%
X71261804Y-46600034D03*
D19*
X73801804Y-46600034D03*
X76341804Y-46600034D03*
X78881804Y-46600034D03*
X81421804Y-46600034D03*
X83961804Y-46600034D03*
%TD*%
D18*
%TO.C,J19*%
X137139304Y-46600034D03*
D19*
X139679304Y-46600034D03*
X142219304Y-46600034D03*
X144759304Y-46600034D03*
X147299304Y-46600034D03*
X149839304Y-46600034D03*
%TD*%
D18*
%TO.C,J13*%
X84061804Y-146600034D03*
D19*
X81521804Y-146600034D03*
X78981804Y-146600034D03*
X76441804Y-146600034D03*
X73901804Y-146600034D03*
X71361804Y-146600034D03*
%TD*%
D20*
%TO.C,U22*%
X134389304Y-143850034D03*
X131889304Y-143100034D03*
X131889304Y-142350034D03*
X131889304Y-143850034D03*
X134389304Y-143100034D03*
X134389304Y-142350034D03*
X134389304Y-144600034D03*
X131889304Y-144600034D03*
%TD*%
D18*
%TO.C,J24*%
X181139304Y-46600034D03*
D19*
X183679304Y-46600034D03*
X186219304Y-46600034D03*
X188759304Y-46600034D03*
X191299304Y-46600034D03*
X193839304Y-46600034D03*
%TD*%
D20*
%TO.C,U30*%
X112389304Y-97600034D03*
X112389304Y-96850034D03*
X109889304Y-96850034D03*
X112389304Y-96100034D03*
X109889304Y-97600034D03*
X109889304Y-95350034D03*
X109889304Y-96100034D03*
X112389304Y-95350034D03*
%TD*%
%TO.C,U20*%
X178389304Y-96100034D03*
X175889304Y-96850034D03*
X178389304Y-96850034D03*
X175889304Y-96100034D03*
X175889304Y-97600034D03*
X178389304Y-95350034D03*
X178389304Y-97600034D03*
X175889304Y-95350034D03*
%TD*%
D18*
%TO.C,J18*%
X105839304Y-146600034D03*
D19*
X103299304Y-146600034D03*
X100759304Y-146600034D03*
X98219304Y-146600034D03*
X95679304Y-146600034D03*
X93139304Y-146600034D03*
%TD*%
D20*
%TO.C,U32*%
X87889304Y-96100034D03*
X90389304Y-95350034D03*
X87889304Y-96850034D03*
X90389304Y-96100034D03*
X87889304Y-97600034D03*
X87889304Y-95350034D03*
X90389304Y-96850034D03*
X90389304Y-97600034D03*
%TD*%
D18*
%TO.C,J17*%
X93139304Y-46600034D03*
D19*
X95679304Y-46600034D03*
X98219304Y-46600034D03*
X100759304Y-46600034D03*
X103299304Y-46600034D03*
X105839304Y-46600034D03*
%TD*%
D18*
%TO.C,J26*%
X159139304Y-46600034D03*
D19*
X161679304Y-46600034D03*
X164219304Y-46600034D03*
X166759304Y-46600034D03*
X169299304Y-46600034D03*
X171839304Y-46600034D03*
%TD*%
D18*
%TO.C,J27*%
X171839304Y-146600034D03*
D19*
X169299304Y-146600034D03*
X166759304Y-146600034D03*
X164219304Y-146600034D03*
X161679304Y-146600034D03*
X159139304Y-146600034D03*
%TD*%
D18*
%TO.C,J14*%
X115139304Y-46600034D03*
D19*
X117679304Y-46600034D03*
X120219304Y-46600034D03*
X122759304Y-46600034D03*
X125299304Y-46600034D03*
X127839304Y-46600034D03*
%TD*%
D20*
%TO.C,U36*%
X156389304Y-144600034D03*
X153889304Y-142350034D03*
X153889304Y-143850034D03*
X153889304Y-144600034D03*
X156389304Y-143850034D03*
X153889304Y-143100034D03*
X156389304Y-143100034D03*
X156389304Y-142350034D03*
%TD*%
%TO.C,U34*%
X87889304Y-49850034D03*
X90389304Y-49100034D03*
X90389304Y-48350034D03*
X87889304Y-48350034D03*
X87889304Y-49100034D03*
X90389304Y-49850034D03*
X87889304Y-50600034D03*
X90389304Y-50600034D03*
%TD*%
%TO.C,U31*%
X109889304Y-50600034D03*
X109889304Y-49850034D03*
X112389304Y-49850034D03*
X109889304Y-48350034D03*
X109889304Y-49100034D03*
X112389304Y-48350034D03*
X112389304Y-50600034D03*
X112389304Y-49100034D03*
%TD*%
%TO.C,U29*%
X131889304Y-50600034D03*
X134389304Y-49850034D03*
X131889304Y-48350034D03*
X134389304Y-50600034D03*
X134389304Y-49100034D03*
X131889304Y-49850034D03*
X134389304Y-48350034D03*
X131889304Y-49100034D03*
%TD*%
%TO.C,U24*%
X131889304Y-96850034D03*
X134389304Y-97600034D03*
X134389304Y-96100034D03*
X131889304Y-97600034D03*
X134389304Y-96850034D03*
X131889304Y-95350034D03*
X134389304Y-95350034D03*
X131889304Y-96100034D03*
%TD*%
%TO.C,U28*%
X156389304Y-95350034D03*
X156389304Y-96850034D03*
X156389304Y-97600034D03*
X153889304Y-96100034D03*
X153889304Y-95350034D03*
X153889304Y-96850034D03*
X156389304Y-96100034D03*
X153889304Y-97600034D03*
%TD*%
%TO.C,U33*%
X178389304Y-49100034D03*
X178389304Y-50600034D03*
X178389304Y-49850034D03*
X178389304Y-48350034D03*
X175889304Y-49100034D03*
X175889304Y-50600034D03*
X175889304Y-48350034D03*
X175889304Y-49850034D03*
%TD*%
%TO.C,U23*%
X90389304Y-143850034D03*
X90389304Y-144600034D03*
X90389304Y-142350034D03*
X90389304Y-143100034D03*
X87889304Y-142350034D03*
X87889304Y-144600034D03*
X87889304Y-143850034D03*
X87889304Y-143100034D03*
%TD*%
D21*
X80639304Y-52100034D03*
X72639304Y-143350034D03*
X83139304Y-49600034D03*
X82139304Y-50850034D03*
X86389304Y-46600034D03*
X82139304Y-142350034D03*
X70139304Y-142350034D03*
X117311804Y-143100034D03*
X130811804Y-145100034D03*
X103139304Y-50100034D03*
X109061804Y-146600034D03*
X105139304Y-49600034D03*
X96389304Y-143350034D03*
X152561804Y-145350034D03*
X139561804Y-143100034D03*
X192139304Y-48850034D03*
X182731804Y-143850034D03*
X196139304Y-48350034D03*
X196231804Y-144100034D03*
X170639304Y-51850034D03*
X168639304Y-52350034D03*
X161561804Y-143100034D03*
X175061804Y-146600034D03*
M02*
