%TF.GenerationSoftware,KiCad,Pcbnew,(6.0.5)*%
%TF.CreationDate,2022-08-12T20:52:04+02:00*%
%TF.ProjectId,clarinoid-devboard,636c6172-696e-46f6-9964-2d646576626f,rev?*%
%TF.SameCoordinates,Original*%
%TF.FileFunction,Soldermask,Bot*%
%TF.FilePolarity,Negative*%
%FSLAX46Y46*%
G04 Gerber Fmt 4.6, Leading zero omitted, Abs format (unit mm)*
G04 Created by KiCad (PCBNEW (6.0.5)) date 2022-08-12 20:52:04*
%MOMM*%
%LPD*%
G01*
G04 APERTURE LIST*
%ADD10R,1.700000X1.700000*%
%ADD11O,1.700000X1.700000*%
%ADD12C,0.500000*%
%ADD13C,0.800000*%
G04 APERTURE END LIST*
D10*
%TO.C,J15*%
X127839304Y-146600034D03*
D11*
X125299304Y-146600034D03*
X122759304Y-146600034D03*
X120219304Y-146600034D03*
X117679304Y-146600034D03*
X115139304Y-146600034D03*
%TD*%
D12*
%TO.C,U35*%
X109889304Y-143850034D03*
X112389304Y-142350034D03*
X109889304Y-144600034D03*
X112389304Y-144600034D03*
X112389304Y-143850034D03*
X112389304Y-143100034D03*
X109889304Y-142350034D03*
X109889304Y-143100034D03*
%TD*%
D10*
%TO.C,J25*%
X193839304Y-146600034D03*
D11*
X191299304Y-146600034D03*
X188759304Y-146600034D03*
X186219304Y-146600034D03*
X183679304Y-146600034D03*
X181139304Y-146600034D03*
%TD*%
D12*
%TO.C,U25*%
X175889304Y-142350034D03*
X175889304Y-143100034D03*
X178389304Y-143850034D03*
X175889304Y-144600034D03*
X175889304Y-143850034D03*
X178389304Y-142350034D03*
X178389304Y-143100034D03*
X178389304Y-144600034D03*
%TD*%
D10*
%TO.C,J21*%
X149839304Y-146600034D03*
D11*
X147299304Y-146600034D03*
X144759304Y-146600034D03*
X142219304Y-146600034D03*
X139679304Y-146600034D03*
X137139304Y-146600034D03*
%TD*%
D12*
%TO.C,U37*%
X153889304Y-49100034D03*
X153889304Y-48350034D03*
X156389304Y-49850034D03*
X156389304Y-50600034D03*
X156389304Y-48350034D03*
X156389304Y-49100034D03*
X153889304Y-50600034D03*
X153889304Y-49850034D03*
%TD*%
D10*
%TO.C,J9*%
X71261804Y-46600034D03*
D11*
X73801804Y-46600034D03*
X76341804Y-46600034D03*
X78881804Y-46600034D03*
X81421804Y-46600034D03*
X83961804Y-46600034D03*
%TD*%
D10*
%TO.C,J19*%
X137139304Y-46600034D03*
D11*
X139679304Y-46600034D03*
X142219304Y-46600034D03*
X144759304Y-46600034D03*
X147299304Y-46600034D03*
X149839304Y-46600034D03*
%TD*%
D10*
%TO.C,J13*%
X84061804Y-146600034D03*
D11*
X81521804Y-146600034D03*
X78981804Y-146600034D03*
X76441804Y-146600034D03*
X73901804Y-146600034D03*
X71361804Y-146600034D03*
%TD*%
D12*
%TO.C,U22*%
X134389304Y-143850034D03*
X131889304Y-143100034D03*
X131889304Y-142350034D03*
X131889304Y-143850034D03*
X134389304Y-143100034D03*
X134389304Y-142350034D03*
X134389304Y-144600034D03*
X131889304Y-144600034D03*
%TD*%
D10*
%TO.C,J24*%
X181139304Y-46600034D03*
D11*
X183679304Y-46600034D03*
X186219304Y-46600034D03*
X188759304Y-46600034D03*
X191299304Y-46600034D03*
X193839304Y-46600034D03*
%TD*%
D12*
%TO.C,U30*%
X112389304Y-97600034D03*
X112389304Y-96850034D03*
X109889304Y-96850034D03*
X112389304Y-96100034D03*
X109889304Y-97600034D03*
X109889304Y-95350034D03*
X109889304Y-96100034D03*
X112389304Y-95350034D03*
%TD*%
%TO.C,U20*%
X178389304Y-96100034D03*
X175889304Y-96850034D03*
X178389304Y-96850034D03*
X175889304Y-96100034D03*
X175889304Y-97600034D03*
X178389304Y-95350034D03*
X178389304Y-97600034D03*
X175889304Y-95350034D03*
%TD*%
D10*
%TO.C,J18*%
X105839304Y-146600034D03*
D11*
X103299304Y-146600034D03*
X100759304Y-146600034D03*
X98219304Y-146600034D03*
X95679304Y-146600034D03*
X93139304Y-146600034D03*
%TD*%
D12*
%TO.C,U32*%
X87889304Y-96100034D03*
X90389304Y-95350034D03*
X87889304Y-96850034D03*
X90389304Y-96100034D03*
X87889304Y-97600034D03*
X87889304Y-95350034D03*
X90389304Y-96850034D03*
X90389304Y-97600034D03*
%TD*%
D10*
%TO.C,J17*%
X93139304Y-46600034D03*
D11*
X95679304Y-46600034D03*
X98219304Y-46600034D03*
X100759304Y-46600034D03*
X103299304Y-46600034D03*
X105839304Y-46600034D03*
%TD*%
D10*
%TO.C,J26*%
X159139304Y-46600034D03*
D11*
X161679304Y-46600034D03*
X164219304Y-46600034D03*
X166759304Y-46600034D03*
X169299304Y-46600034D03*
X171839304Y-46600034D03*
%TD*%
D10*
%TO.C,J27*%
X171839304Y-146600034D03*
D11*
X169299304Y-146600034D03*
X166759304Y-146600034D03*
X164219304Y-146600034D03*
X161679304Y-146600034D03*
X159139304Y-146600034D03*
%TD*%
D10*
%TO.C,J14*%
X115139304Y-46600034D03*
D11*
X117679304Y-46600034D03*
X120219304Y-46600034D03*
X122759304Y-46600034D03*
X125299304Y-46600034D03*
X127839304Y-46600034D03*
%TD*%
D12*
%TO.C,U36*%
X156389304Y-144600034D03*
X153889304Y-142350034D03*
X153889304Y-143850034D03*
X153889304Y-144600034D03*
X156389304Y-143850034D03*
X153889304Y-143100034D03*
X156389304Y-143100034D03*
X156389304Y-142350034D03*
%TD*%
%TO.C,U34*%
X87889304Y-49850034D03*
X90389304Y-49100034D03*
X90389304Y-48350034D03*
X87889304Y-48350034D03*
X87889304Y-49100034D03*
X90389304Y-49850034D03*
X87889304Y-50600034D03*
X90389304Y-50600034D03*
%TD*%
%TO.C,U31*%
X109889304Y-50600034D03*
X109889304Y-49850034D03*
X112389304Y-49850034D03*
X109889304Y-48350034D03*
X109889304Y-49100034D03*
X112389304Y-48350034D03*
X112389304Y-50600034D03*
X112389304Y-49100034D03*
%TD*%
%TO.C,U29*%
X131889304Y-50600034D03*
X134389304Y-49850034D03*
X131889304Y-48350034D03*
X134389304Y-50600034D03*
X134389304Y-49100034D03*
X131889304Y-49850034D03*
X134389304Y-48350034D03*
X131889304Y-49100034D03*
%TD*%
%TO.C,U24*%
X131889304Y-96850034D03*
X134389304Y-97600034D03*
X134389304Y-96100034D03*
X131889304Y-97600034D03*
X134389304Y-96850034D03*
X131889304Y-95350034D03*
X134389304Y-95350034D03*
X131889304Y-96100034D03*
%TD*%
%TO.C,U28*%
X156389304Y-95350034D03*
X156389304Y-96850034D03*
X156389304Y-97600034D03*
X153889304Y-96100034D03*
X153889304Y-95350034D03*
X153889304Y-96850034D03*
X156389304Y-96100034D03*
X153889304Y-97600034D03*
%TD*%
%TO.C,U33*%
X178389304Y-49100034D03*
X178389304Y-50600034D03*
X178389304Y-49850034D03*
X178389304Y-48350034D03*
X175889304Y-49100034D03*
X175889304Y-50600034D03*
X175889304Y-48350034D03*
X175889304Y-49850034D03*
%TD*%
%TO.C,U23*%
X90389304Y-143850034D03*
X90389304Y-144600034D03*
X90389304Y-142350034D03*
X90389304Y-143100034D03*
X87889304Y-142350034D03*
X87889304Y-144600034D03*
X87889304Y-143850034D03*
X87889304Y-143100034D03*
%TD*%
D13*
X80639304Y-52100034D03*
X72639304Y-143350034D03*
X83139304Y-49600034D03*
X82139304Y-50850034D03*
X86389304Y-46600034D03*
X82139304Y-142350034D03*
X70139304Y-142350034D03*
X117311804Y-143100034D03*
X130811804Y-145100034D03*
X103139304Y-50100034D03*
X109061804Y-146600034D03*
X105139304Y-49600034D03*
X96389304Y-143350034D03*
X152561804Y-145350034D03*
X139561804Y-143100034D03*
X192139304Y-48850034D03*
X182731804Y-143850034D03*
X196139304Y-48350034D03*
X196231804Y-144100034D03*
X170639304Y-51850034D03*
X168639304Y-52350034D03*
X161561804Y-143100034D03*
X175061804Y-146600034D03*
M02*
