M48
; DRILL file {KiCad (6.0.5)} date Fri Aug 12 20:52:04 2022
; FORMAT={-:-/ absolute / inch / decimal}
; #@! TF.CreationDate,2022-08-12T20:52:04+02:00
; #@! TF.GenerationSoftware,Kicad,Pcbnew,(6.0.5)
; #@! TF.FileFunction,NonPlated,1,2,NPTH
FMAT,2
INCH
; #@! TA.AperFunction,NonPlated,NPTH,ComponentDrill
T1C0.0197
%
G90
G05
T1
X3.4602Y-1.9035
X3.4602Y-1.9331
X3.4602Y-1.9626
X3.4602Y-1.9921
X3.4602Y-3.7539
X3.4602Y-3.7835
X3.4602Y-3.813
X3.4602Y-3.8425
X3.4602Y-5.6043
X3.4602Y-5.6339
X3.4602Y-5.6634
X3.4602Y-5.6929
X3.5586Y-1.9035
X3.5586Y-1.9331
X3.5586Y-1.9626
X3.5586Y-1.9921
X3.5586Y-3.7539
X3.5586Y-3.7835
X3.5586Y-3.813
X3.5586Y-3.8425
X3.5586Y-5.6043
X3.5586Y-5.6339
X3.5586Y-5.6634
X3.5586Y-5.6929
X4.3264Y-1.9035
X4.3264Y-1.9331
X4.3264Y-1.9626
X4.3264Y-1.9921
X4.3264Y-3.7539
X4.3264Y-3.7835
X4.3264Y-3.813
X4.3264Y-3.8425
X4.3264Y-5.6043
X4.3264Y-5.6339
X4.3264Y-5.6634
X4.3264Y-5.6929
X4.4248Y-1.9035
X4.4248Y-1.9331
X4.4248Y-1.9626
X4.4248Y-1.9921
X4.4248Y-3.7539
X4.4248Y-3.7835
X4.4248Y-3.813
X4.4248Y-3.8425
X4.4248Y-5.6043
X4.4248Y-5.6339
X4.4248Y-5.6634
X4.4248Y-5.6929
X5.1925Y-1.9035
X5.1925Y-1.9331
X5.1925Y-1.9626
X5.1925Y-1.9921
X5.1925Y-3.7539
X5.1925Y-3.7835
X5.1925Y-3.813
X5.1925Y-3.8425
X5.1925Y-5.6043
X5.1925Y-5.6339
X5.1925Y-5.6634
X5.1925Y-5.6929
X5.2909Y-1.9035
X5.2909Y-1.9331
X5.2909Y-1.9626
X5.2909Y-1.9921
X5.2909Y-3.7539
X5.2909Y-3.7835
X5.2909Y-3.813
X5.2909Y-3.8425
X5.2909Y-5.6043
X5.2909Y-5.6339
X5.2909Y-5.6634
X5.2909Y-5.6929
X6.0586Y-1.9035
X6.0586Y-1.9331
X6.0586Y-1.9626
X6.0586Y-1.9921
X6.0586Y-3.7539
X6.0586Y-3.7835
X6.0586Y-3.813
X6.0586Y-3.8425
X6.0586Y-5.6043
X6.0586Y-5.6339
X6.0586Y-5.6634
X6.0586Y-5.6929
X6.1571Y-1.9035
X6.1571Y-1.9331
X6.1571Y-1.9626
X6.1571Y-1.9921
X6.1571Y-3.7539
X6.1571Y-3.7835
X6.1571Y-3.813
X6.1571Y-3.8425
X6.1571Y-5.6043
X6.1571Y-5.6339
X6.1571Y-5.6634
X6.1571Y-5.6929
X6.9248Y-1.9035
X6.9248Y-1.9331
X6.9248Y-1.9626
X6.9248Y-1.9921
X6.9248Y-3.7539
X6.9248Y-3.7835
X6.9248Y-3.813
X6.9248Y-3.8425
X6.9248Y-5.6043
X6.9248Y-5.6339
X6.9248Y-5.6634
X6.9248Y-5.6929
X7.0232Y-1.9035
X7.0232Y-1.9331
X7.0232Y-1.9626
X7.0232Y-1.9921
X7.0232Y-3.7539
X7.0232Y-3.7835
X7.0232Y-3.813
X7.0232Y-3.8425
X7.0232Y-5.6043
X7.0232Y-5.6339
X7.0232Y-5.6634
X7.0232Y-5.6929
T0
M30
