M48
; DRILL file {KiCad (6.0.5)} date Sat Jun 18 22:15:24 2022
; FORMAT={-:-/ absolute / inch / decimal}
; #@! TF.CreationDate,2022-06-18T22:15:24+02:00
; #@! TF.GenerationSoftware,Kicad,Pcbnew,(6.0.5)
; #@! TF.FileFunction,Plated,1,2,PTH
FMAT,2
INCH
; #@! TA.AperFunction,Plated,PTH,ViaDrill
T1C0.0157
; #@! TA.AperFunction,Plated,PTH,ComponentDrill
T2C0.0236
; #@! TA.AperFunction,Plated,PTH,ComponentDrill
T3C0.0315
; #@! TA.AperFunction,Plated,PTH,ComponentDrill
T4C0.0394
; #@! TA.AperFunction,Plated,PTH,ComponentDrill
T5C0.0433
; #@! TA.AperFunction,Plated,PTH,ComponentDrill
T6C0.0492
; #@! TA.AperFunction,Plated,PTH,ComponentDrill
T7C0.0787
; #@! TA.AperFunction,Plated,PTH,ComponentDrill
T8C0.1661
%
G90
G05
T1
X3.7957Y-1.4645
X3.9958Y-4.3484
X4.0745Y-4.2697
X4.0745Y-4.3484
X4.0748Y-1.6929
X4.1139Y-4.0531
X4.173Y-4.25
X4.173Y-4.3484
X4.2517Y-2.1831
X4.2714Y-4.2106
X4.2911Y-4.3484
X4.3209Y-1.7717
X4.4092Y-4.3484
X4.4486Y-4.1122
X4.4486Y-4.1516
X4.5146Y-3.2769
X4.524Y-3.5904
X4.547Y-4.0138
X4.5667Y-4.4075
X4.5702Y-3.2156
X4.5929Y-2.9074
X4.606Y-3.9941
X4.6454Y-3.9547
X4.6848Y-4.2106
X4.6848Y-4.4271
X4.6876Y-3.3151
X4.6953Y-2.7735
X4.7045Y-3.9547
X4.7241Y-4.6831
X4.7438Y-4.1319
X4.7438Y-4.4075
X4.7635Y-3.561
X4.7832Y-4.6437
X4.8097Y-3.4853
X4.8226Y-4.063
X4.8226Y-4.2106
X4.8226Y-4.4075
X4.8423Y-3.9055
X4.87Y-3.3791
X4.8758Y-4.3367
X4.8799Y-3.4447
X4.8816Y-4.6437
X4.9033Y-4.2993
X4.9112Y-4.1319
X4.921Y-2.1437
X4.9308Y-4.3317
X4.9473Y-3.1
X4.9604Y-4.4075
X4.969Y-4.322
X4.9786Y-3.1313
X4.9801Y-4.624
X4.9866Y-1.9074
X4.9881Y-4.2803
X5.0194Y-4.0531
X5.0391Y-4.3484
X5.0523Y-3.1843
X5.0575Y-2.1554
X5.1178Y-4.624
X5.1178Y-4.6909
X5.1363Y-2.2578
X5.1375Y-4.1122
X5.1375Y-4.4665
X5.1481Y-2.6318
X5.1623Y-2.926
X5.1671Y-2.7047
X5.1867Y-2.7834
X5.1874Y-2.8562
X5.2163Y-3.0197
X5.2201Y-2.2251
X5.236Y-2.7441
X5.2622Y-2.3798
X5.2662Y-2.1003
X5.2753Y-2.498
X5.2753Y-3.5222
X5.3049Y-3.0787
X5.3344Y-3.4921
X5.3344Y-3.5512
X5.3406Y-2.1249
X5.3441Y-2.5236
X5.3449Y-2.3641
X5.3523Y-2.0348
X5.4035Y-2.9528
X5.4112Y-2.0543
X5.4591Y-2.8719
X5.4656Y-2.4529
X5.4921Y-3.1299
X5.5083Y-2.99
X5.5181Y-2.9015
X5.5411Y-2.5669
X5.5706Y-3.5216
X5.6067Y-3.4822
X5.6166Y-1.8916
X5.6377Y-2.0742
X5.6377Y-2.1529
X5.6559Y-3.5117
X5.6638Y-2.1141
X5.6869Y-2.1431
X5.6968Y-2.0742
X5.7347Y-3.0058
X5.7347Y-3.12
X5.8068Y-2.5768
X5.8167Y-2.6752
X5.8449Y-2.5097
X5.8462Y-3.0098
X5.8462Y-3.0492
X5.8528Y-1.9192
X5.8528Y-2.3011
X5.856Y-2.6161
X5.9426Y-2.372
X5.984Y-3.3051
X5.9903Y-2.4898
X6.0019Y-2.8616
X6.0024Y-2.5648
X6.043Y-3.2559
X6.0443Y-2.9302
X6.0693Y-2.9605
X6.0708Y-2.4482
X6.0781Y-3.1057
X6.1087Y-2.7833
X6.1187Y-3.1096
X6.1218Y-2.6752
X6.1382Y-3.0545
X6.1579Y-2.9837
X6.1907Y-2.9016
X6.2071Y-1.7893
X6.2071Y-2.6554
X6.2662Y-2.6357
X6.2684Y-2.5807
X6.2694Y-2.872
X6.3843Y-2.9605
X6.4171Y-2.5669
X6.4433Y-3.3641
X6.4564Y-3.1378
X6.4729Y-2.8621
X6.4827Y-1.868
X6.4827Y-2.9802
X6.5221Y-2.9999
X6.545Y-3.3838
X6.5497Y-2.7783
X6.5693Y-2.3564
X6.6238Y-3.3838
X6.6356Y-1.8582
X6.6631Y-1.7795
X6.6631Y-2.3504
X6.6746Y-2.5755
X6.6927Y-3.3937
X6.7714Y-3.3937
X6.8403Y-3.3248
X6.8501Y-2.0157
X6.86Y-2.626
X6.86Y-2.7145
X6.8895Y-2.1142
X6.8895Y-2.2323
X6.9112Y-3.1771
X6.919Y-2.6555
X6.9486Y-3.2165
X7.0864Y-2.1732
X7.1356Y-2.1535
X7.1454Y-2.7933
X7.1848Y-2.7539
X7.2209Y-2.8621
X7.4702Y-2.5964
X7.5785Y-1.6811
X7.6769Y-1.4153
X7.9623Y-2.1142
X8.0312Y-2.1043
X8.1887Y-2.4488
X8.2379Y-1.9173
X8.3364Y-1.7795
X8.3364Y-2.3012
X8.4249Y-2.2913
T3
X4.0664Y-3.0491
X4.1371Y-3.1198
X4.2078Y-3.1905
X4.2785Y-2.837
X4.2785Y-3.2612
X4.3493Y-2.9077
X4.42Y-2.9784
X4.4907Y-3.0491
X4.8029Y-3.8366
X5.015Y-3.6245
T4
X3.6021Y-3.9649
X3.6021Y-4.5649
X3.7021Y-3.9649
X3.7021Y-4.5649
X3.8021Y-3.9649
X3.8021Y-4.5649
X3.9021Y-3.9649
X3.9021Y-4.5649
X4.0021Y-3.9649
X4.0021Y-4.5649
X4.1021Y-3.9649
X4.1021Y-4.5649
X4.2021Y-3.9649
X4.2021Y-4.5649
X4.3021Y-3.9649
X4.3021Y-4.5649
X4.4021Y-3.9649
X4.4021Y-4.5649
X6.3292Y-2.4192
X6.4292Y-2.4192
X6.5292Y-2.4192
X6.6292Y-2.4192
X6.7292Y-2.4192
X6.8292Y-2.4192
X6.9292Y-2.4192
X7.3058Y-2.2865
X7.3058Y-2.3865
X7.3058Y-2.4865
X7.3058Y-2.5865
X7.3058Y-2.6865
X7.3058Y-2.7865
X7.3058Y-2.8865
X7.3058Y-2.9865
X7.3058Y-3.0865
X7.5667Y-2.0968
X7.6667Y-2.0968
X7.7667Y-2.0968
X8.1771Y-2.0053
X8.1771Y-2.1628
X8.1781Y-1.1352
X8.1781Y-1.2352
X8.1781Y-1.3352
X8.1781Y-1.4352
X8.1781Y-1.5352
X8.1781Y-1.6352
X8.1781Y-1.7352
X8.2771Y-2.0053
X8.2771Y-2.1628
X8.3771Y-2.0053
X8.3771Y-2.1628
X8.4771Y-2.0053
X8.4771Y-2.1628
T5
X6.681Y-4.1195
X6.681Y-4.2179
X6.681Y-4.3163
X7.2519Y-4.1195
X7.2519Y-4.3163
T6
X5.1751Y-3.7966
X5.1751Y-3.9935
X5.1751Y-4.3518
X5.1751Y-4.5486
X5.6673Y-3.7966
X5.6673Y-3.9935
X5.6673Y-4.3518
X5.6673Y-4.5486
X5.8444Y-3.7966
X5.8444Y-3.9935
X5.8444Y-4.3518
X5.8444Y-4.5486
X6.3365Y-3.7966
X6.3365Y-3.9935
X6.3365Y-4.3518
X6.3365Y-4.5486
T7
X3.6604Y-1.8803
X3.6604Y-2.589
X3.6604Y-3.2976
X3.7843Y-1.8928
X3.7843Y-2.6015
X3.7843Y-3.3102
X3.8316Y-2.0515
X3.8316Y-2.7602
X3.8316Y-3.4688
X3.9402Y-2.0487
X3.9402Y-2.7574
X3.9402Y-3.4661
X3.9889Y-2.2088
X3.9889Y-2.9175
X3.9889Y-3.6261
T8
X4.9291Y-2.6943
T2
G00X3.5629Y-1.1249
M15
G01X3.5629Y-1.1012
M16
G05
G00X3.5629Y-1.2993
M15
G01X3.5629Y-1.256
M16
G05
G00X3.9031Y-1.1249
M15
G01X3.9031Y-1.1012
M16
G05
G00X3.9031Y-1.2993
M15
G01X3.9031Y-1.256
M16
G05
T7
G00X6.9921Y-3.9935
M15
G01X6.9606Y-3.9935
M16
G05
G00X6.9921Y-4.4423
M15
G01X6.9606Y-4.4423
M16
G05
T0
M30
