%TF.GenerationSoftware,KiCad,Pcbnew,(6.0.5)*%
%TF.CreationDate,2022-06-18T22:15:24+02:00*%
%TF.ProjectId,clarinoid-devboard,636c6172-696e-46f6-9964-2d646576626f,rev?*%
%TF.SameCoordinates,Original*%
%TF.FileFunction,Soldermask,Top*%
%TF.FilePolarity,Negative*%
%FSLAX46Y46*%
G04 Gerber Fmt 4.6, Leading zero omitted, Abs format (unit mm)*
G04 Created by KiCad (PCBNEW (6.0.5)) date 2022-06-18 22:15:24*
%MOMM*%
%LPD*%
G01*
G04 APERTURE LIST*
G04 Aperture macros list*
%AMRoundRect*
0 Rectangle with rounded corners*
0 $1 Rounding radius*
0 $2 $3 $4 $5 $6 $7 $8 $9 X,Y pos of 4 corners*
0 Add a 4 corners polygon primitive as box body*
4,1,4,$2,$3,$4,$5,$6,$7,$8,$9,$2,$3,0*
0 Add four circle primitives for the rounded corners*
1,1,$1+$1,$2,$3*
1,1,$1+$1,$4,$5*
1,1,$1+$1,$6,$7*
1,1,$1+$1,$8,$9*
0 Add four rect primitives between the rounded corners*
20,1,$1+$1,$2,$3,$4,$5,0*
20,1,$1+$1,$4,$5,$6,$7,0*
20,1,$1+$1,$6,$7,$8,$9,0*
20,1,$1+$1,$8,$9,$2,$3,0*%
%AMHorizOval*
0 Thick line with rounded ends*
0 $1 width*
0 $2 $3 position (X,Y) of the first rounded end (center of the circle)*
0 $4 $5 position (X,Y) of the second rounded end (center of the circle)*
0 Add line between two ends*
20,1,$1,$2,$3,$4,$5,0*
0 Add two circle primitives to create the rounded ends*
1,1,$1,$2,$3*
1,1,$1,$4,$5*%
%AMRotRect*
0 Rectangle, with rotation*
0 The origin of the aperture is its center*
0 $1 length*
0 $2 width*
0 $3 Rotation angle, in degrees counterclockwise*
0 Add horizontal line*
21,1,$1,$2,0,0,$3*%
%AMFreePoly0*
4,1,14,0.354215,0.088284,0.450784,-0.008285,0.462500,-0.036569,0.462500,-0.060000,0.450784,-0.088284,0.422500,-0.100000,-0.422500,-0.100000,-0.450784,-0.088284,-0.462500,-0.060000,-0.462500,0.060000,-0.450784,0.088284,-0.422500,0.100000,0.325931,0.100000,0.354215,0.088284,0.354215,0.088284,$1*%
%AMFreePoly1*
4,1,14,0.450784,0.088284,0.462500,0.060000,0.462500,0.036569,0.450784,0.008285,0.354215,-0.088284,0.325931,-0.100000,-0.422500,-0.100000,-0.450784,-0.088284,-0.462500,-0.060000,-0.462500,0.060000,-0.450784,0.088284,-0.422500,0.100000,0.422500,0.100000,0.450784,0.088284,0.450784,0.088284,$1*%
%AMFreePoly2*
4,1,14,0.088284,0.450784,0.100000,0.422500,0.100000,-0.422500,0.088284,-0.450784,0.060000,-0.462500,-0.060000,-0.462500,-0.088284,-0.450784,-0.100000,-0.422500,-0.100000,0.325931,-0.088284,0.354215,0.008285,0.450784,0.036569,0.462500,0.060000,0.462500,0.088284,0.450784,0.088284,0.450784,$1*%
%AMFreePoly3*
4,1,14,-0.008285,0.450784,0.088284,0.354215,0.100000,0.325931,0.100000,-0.422500,0.088284,-0.450784,0.060000,-0.462500,-0.060000,-0.462500,-0.088284,-0.450784,-0.100000,-0.422500,-0.100000,0.422500,-0.088284,0.450784,-0.060000,0.462500,-0.036569,0.462500,-0.008285,0.450784,-0.008285,0.450784,$1*%
%AMFreePoly4*
4,1,14,0.450784,0.088284,0.462500,0.060000,0.462500,-0.060000,0.450784,-0.088284,0.422500,-0.100000,-0.325931,-0.100000,-0.354215,-0.088284,-0.450784,0.008285,-0.462500,0.036569,-0.462500,0.060000,-0.450784,0.088284,-0.422500,0.100000,0.422500,0.100000,0.450784,0.088284,0.450784,0.088284,$1*%
%AMFreePoly5*
4,1,14,0.450784,0.088284,0.462500,0.060000,0.462500,-0.060000,0.450784,-0.088284,0.422500,-0.100000,-0.422500,-0.100000,-0.450784,-0.088284,-0.462500,-0.060000,-0.462500,-0.036569,-0.450784,-0.008285,-0.354215,0.088284,-0.325931,0.100000,0.422500,0.100000,0.450784,0.088284,0.450784,0.088284,$1*%
%AMFreePoly6*
4,1,14,0.088284,0.450784,0.100000,0.422500,0.100000,-0.325931,0.088284,-0.354215,-0.008285,-0.450784,-0.036569,-0.462500,-0.060000,-0.462500,-0.088284,-0.450784,-0.100000,-0.422500,-0.100000,0.422500,-0.088284,0.450784,-0.060000,0.462500,0.060000,0.462500,0.088284,0.450784,0.088284,0.450784,$1*%
%AMFreePoly7*
4,1,14,0.088284,0.450784,0.100000,0.422500,0.100000,-0.422500,0.088284,-0.450784,0.060000,-0.462500,0.036569,-0.462500,0.008285,-0.450784,-0.088284,-0.354215,-0.100000,-0.325931,-0.100000,0.422500,-0.088284,0.450784,-0.060000,0.462500,0.060000,0.462500,0.088284,0.450784,0.088284,0.450784,$1*%
G04 Aperture macros list end*
%ADD10RoundRect,0.147500X-0.147500X-0.172500X0.147500X-0.172500X0.147500X0.172500X-0.147500X0.172500X0*%
%ADD11RoundRect,0.218750X0.256250X-0.218750X0.256250X0.218750X-0.256250X0.218750X-0.256250X-0.218750X0*%
%ADD12RoundRect,0.140000X-0.219203X-0.021213X-0.021213X-0.219203X0.219203X0.021213X0.021213X0.219203X0*%
%ADD13RoundRect,0.225000X0.225000X0.250000X-0.225000X0.250000X-0.225000X-0.250000X0.225000X-0.250000X0*%
%ADD14RoundRect,0.135000X0.185000X-0.135000X0.185000X0.135000X-0.185000X0.135000X-0.185000X-0.135000X0*%
%ADD15R,1.700000X1.700000*%
%ADD16O,1.700000X1.700000*%
%ADD17RoundRect,0.225000X-0.250000X0.225000X-0.250000X-0.225000X0.250000X-0.225000X0.250000X0.225000X0*%
%ADD18RotRect,0.600000X0.450000X315.000000*%
%ADD19RotRect,1.600000X1.600000X45.000000*%
%ADD20HorizOval,1.600000X0.000000X0.000000X0.000000X0.000000X0*%
%ADD21RoundRect,0.140000X0.170000X-0.140000X0.170000X0.140000X-0.170000X0.140000X-0.170000X-0.140000X0*%
%ADD22RoundRect,0.135000X0.135000X0.185000X-0.135000X0.185000X-0.135000X-0.185000X0.135000X-0.185000X0*%
%ADD23R,1.475000X0.450000*%
%ADD24C,6.200000*%
%ADD25R,0.700000X0.950000*%
%ADD26R,2.850000X2.250000*%
%ADD27R,2.375000X1.300000*%
%ADD28RoundRect,0.140000X0.021213X-0.219203X0.219203X-0.021213X-0.021213X0.219203X-0.219203X0.021213X0*%
%ADD29C,2.000000*%
%ADD30C,1.850000*%
%ADD31R,1.500000X1.000000*%
%ADD32C,3.450000*%
%ADD33C,2.390000*%
%ADD34R,7.340000X6.350000*%
%ADD35R,1.850000X3.500000*%
%ADD36RoundRect,0.135000X-0.185000X0.135000X-0.185000X-0.135000X0.185000X-0.135000X0.185000X0.135000X0*%
%ADD37RoundRect,0.243750X0.243750X0.456250X-0.243750X0.456250X-0.243750X-0.456250X0.243750X-0.456250X0*%
%ADD38RotRect,0.300000X0.850000X45.000000*%
%ADD39RotRect,0.300000X0.850000X315.000000*%
%ADD40RotRect,4.550000X4.550000X315.000000*%
%ADD41RoundRect,0.140000X0.140000X0.170000X-0.140000X0.170000X-0.140000X-0.170000X0.140000X-0.170000X0*%
%ADD42C,2.700000*%
%ADD43C,2.500000*%
%ADD44C,3.000000*%
%ADD45RoundRect,0.135000X0.226274X0.035355X0.035355X0.226274X-0.226274X-0.035355X-0.035355X-0.226274X0*%
%ADD46RoundRect,0.140000X0.219203X0.021213X0.021213X0.219203X-0.219203X-0.021213X-0.021213X-0.219203X0*%
%ADD47RoundRect,0.243750X-0.243750X-0.456250X0.243750X-0.456250X0.243750X0.456250X-0.243750X0.456250X0*%
%ADD48RoundRect,0.150000X0.512500X0.150000X-0.512500X0.150000X-0.512500X-0.150000X0.512500X-0.150000X0*%
%ADD49RoundRect,0.135000X-0.035355X0.226274X-0.226274X0.035355X0.035355X-0.226274X0.226274X-0.035355X0*%
%ADD50RoundRect,0.250000X0.132583X-0.503814X0.503814X-0.132583X-0.132583X0.503814X-0.503814X0.132583X0*%
%ADD51RoundRect,0.250000X0.503814X0.132583X0.132583X0.503814X-0.503814X-0.132583X-0.132583X-0.503814X0*%
%ADD52C,1.600000*%
%ADD53FreePoly0,270.000000*%
%ADD54RoundRect,0.050000X-0.050000X0.412500X-0.050000X-0.412500X0.050000X-0.412500X0.050000X0.412500X0*%
%ADD55FreePoly1,270.000000*%
%ADD56FreePoly2,270.000000*%
%ADD57RoundRect,0.050000X-0.412500X0.050000X-0.412500X-0.050000X0.412500X-0.050000X0.412500X0.050000X0*%
%ADD58FreePoly3,270.000000*%
%ADD59FreePoly4,270.000000*%
%ADD60FreePoly5,270.000000*%
%ADD61FreePoly6,270.000000*%
%ADD62FreePoly7,270.000000*%
%ADD63C,1.000000*%
%ADD64R,0.700000X1.600000*%
%ADD65R,1.200000X1.500000*%
%ADD66R,1.200000X2.200000*%
%ADD67R,1.600000X1.500000*%
%ADD68RoundRect,0.135000X0.035355X-0.226274X0.226274X-0.035355X-0.035355X0.226274X-0.226274X0.035355X0*%
%ADD69RoundRect,0.100000X-0.380070X-0.521491X0.521491X0.380070X0.380070X0.521491X-0.521491X-0.380070X0*%
%ADD70R,0.300000X0.800000*%
%ADD71R,0.800000X0.300000*%
%ADD72R,1.800000X1.800000*%
%ADD73RoundRect,0.140000X-0.170000X0.140000X-0.170000X-0.140000X0.170000X-0.140000X0.170000X0.140000X0*%
%ADD74C,0.650000*%
%ADD75R,0.300000X1.150000*%
%ADD76O,1.000000X1.600000*%
%ADD77O,1.000000X2.100000*%
%ADD78R,1.550000X0.300000*%
%ADD79C,1.150000*%
%ADD80C,1.650000*%
%ADD81R,2.750000X1.200000*%
%ADD82RoundRect,0.200000X0.200000X0.275000X-0.200000X0.275000X-0.200000X-0.275000X0.200000X-0.275000X0*%
%ADD83RoundRect,0.225000X-0.225000X-0.250000X0.225000X-0.250000X0.225000X0.250000X-0.225000X0.250000X0*%
%ADD84RoundRect,0.140000X-0.140000X-0.170000X0.140000X-0.170000X0.140000X0.170000X-0.140000X0.170000X0*%
%ADD85R,1.000000X0.750000*%
%ADD86R,1.650000X1.650000*%
%ADD87O,6.000000X3.000000*%
%ADD88RoundRect,0.250000X-0.503814X-0.132583X-0.132583X-0.503814X0.503814X0.132583X0.132583X0.503814X0*%
%ADD89RotRect,1.000000X0.750000X315.000000*%
%ADD90RoundRect,0.150000X0.256326X0.468458X-0.468458X-0.256326X-0.256326X-0.468458X0.468458X0.256326X0*%
%ADD91C,4.400000*%
%ADD92C,0.800000*%
G04 APERTURE END LIST*
D10*
%TO.C,D19*%
X119713312Y-114934542D03*
X120683312Y-114934542D03*
%TD*%
D11*
%TO.C,D5*%
X171493312Y-91247042D03*
X171493312Y-89672042D03*
%TD*%
D12*
%TO.C,C4*%
X126883077Y-81371386D03*
X127561899Y-82050208D03*
%TD*%
D13*
%TO.C,C28*%
X131420804Y-55512034D03*
X129870804Y-55512034D03*
%TD*%
D14*
%TO.C,R38*%
X164493312Y-88459542D03*
X164493312Y-87439542D03*
%TD*%
D15*
%TO.C,J14*%
X185566565Y-78397523D03*
D16*
X185566565Y-75857523D03*
X185566565Y-73317523D03*
X185566565Y-70777523D03*
X185566565Y-68237523D03*
X185566565Y-65697523D03*
X185566565Y-63157523D03*
X185566565Y-60617523D03*
X185566565Y-58077523D03*
%TD*%
D17*
%TO.C,C21*%
X135460804Y-56797034D03*
X135460804Y-58347034D03*
%TD*%
D11*
%TO.C,D7*%
X169743312Y-91247042D03*
X169743312Y-89672042D03*
%TD*%
D14*
%TO.C,R35*%
X169743312Y-88459542D03*
X169743312Y-87439542D03*
%TD*%
%TO.C,R40*%
X213198312Y-46934542D03*
X213198312Y-45914542D03*
%TD*%
D10*
%TO.C,D23*%
X119713312Y-116434542D03*
X120683312Y-116434542D03*
%TD*%
D18*
%TO.C,D6*%
X103675702Y-81230055D03*
X105160626Y-82714979D03*
%TD*%
D10*
%TO.C,D15*%
X117213312Y-113434542D03*
X118183312Y-113434542D03*
%TD*%
%TO.C,D26*%
X127213312Y-116434542D03*
X128183312Y-116434542D03*
%TD*%
D19*
%TO.C,U8*%
X103286793Y-77447034D03*
D20*
X105082844Y-79243085D03*
X106878895Y-81039136D03*
X108674947Y-82835188D03*
X114063100Y-77447034D03*
X112267049Y-75650983D03*
X110470998Y-73854932D03*
X108674947Y-72058880D03*
%TD*%
D21*
%TO.C,C23*%
X132460804Y-58657034D03*
X132460804Y-57697034D03*
%TD*%
D22*
%TO.C,R10*%
X132770804Y-48912034D03*
X131750804Y-48912034D03*
%TD*%
D21*
%TO.C,C26*%
X132745804Y-54572034D03*
X132745804Y-53612034D03*
%TD*%
D12*
%TO.C,C14*%
X122226946Y-77146256D03*
X122905768Y-77825078D03*
%TD*%
D21*
%TO.C,C25*%
X200468792Y-57032042D03*
X200468792Y-56072042D03*
%TD*%
D11*
%TO.C,D9*%
X166243312Y-91237042D03*
X166243312Y-89662042D03*
%TD*%
D13*
%TO.C,C18*%
X142435804Y-58397034D03*
X140885804Y-58397034D03*
%TD*%
D17*
%TO.C,C20*%
X137060804Y-56797034D03*
X137060804Y-58347034D03*
%TD*%
D23*
%TO.C,IC1*%
X166385312Y-93934542D03*
X166385312Y-94584542D03*
X166385312Y-95234542D03*
X166385312Y-95884542D03*
X166385312Y-96534542D03*
X166385312Y-97184542D03*
X166385312Y-97834542D03*
X166385312Y-98484542D03*
X172261312Y-98484542D03*
X172261312Y-97834542D03*
X172261312Y-97184542D03*
X172261312Y-96534542D03*
X172261312Y-95884542D03*
X172261312Y-95234542D03*
X172261312Y-94584542D03*
X172261312Y-93934542D03*
%TD*%
D24*
%TO.C,H1*%
X125198312Y-68434542D03*
%TD*%
D25*
%TO.C,IC2*%
X138560804Y-49097034D03*
X137290804Y-49097034D03*
X136020804Y-49097034D03*
X134750804Y-49097034D03*
X134750804Y-55047034D03*
X136020804Y-55047034D03*
X137290804Y-55047034D03*
X138560804Y-55047034D03*
D26*
X136655804Y-52072034D03*
%TD*%
D27*
%TO.C,U10*%
X177118804Y-51032034D03*
X177118804Y-53532034D03*
X177118804Y-56032034D03*
X171492804Y-56032034D03*
X171492804Y-53532034D03*
X171492804Y-51032034D03*
%TD*%
D10*
%TO.C,D13*%
X122213312Y-113434542D03*
X123183312Y-113434542D03*
%TD*%
D28*
%TO.C,C12*%
X117099730Y-90977956D03*
X117778552Y-90299134D03*
%TD*%
D29*
%TO.C,SW4*%
X143948312Y-115534542D03*
X131448312Y-115534542D03*
X143948312Y-110534542D03*
X131448312Y-110534542D03*
D30*
X137698312Y-108534542D03*
X137698312Y-117534542D03*
%TD*%
D31*
%TO.C,D32*%
X198098312Y-86034542D03*
X198098312Y-82834542D03*
X193198312Y-82834542D03*
X193198312Y-86034542D03*
%TD*%
D32*
%TO.C,BT1*%
X133718304Y-44346568D03*
D33*
X125388304Y-28346568D03*
D32*
X188918304Y-28346568D03*
D34*
X121988304Y-36346568D03*
X200648304Y-36346568D03*
%TD*%
D35*
%TO.C,L1*%
X141060804Y-53612034D03*
X146660804Y-53612034D03*
%TD*%
D36*
%TO.C,R4*%
X205993312Y-58439542D03*
X205993312Y-59459542D03*
%TD*%
D15*
%TO.C,DS2*%
X91493312Y-100709542D03*
D16*
X94033312Y-100709542D03*
X96573312Y-100709542D03*
X99113312Y-100709542D03*
X101653312Y-100709542D03*
X104193312Y-100709542D03*
X106733312Y-100709542D03*
X109273312Y-100709542D03*
X111813312Y-100709542D03*
%TD*%
D10*
%TO.C,D20*%
X124713312Y-114934542D03*
X125683312Y-114934542D03*
%TD*%
%TO.C,D25*%
X127213312Y-113434542D03*
X128183312Y-113434542D03*
%TD*%
D29*
%TO.C,SW3*%
X143948312Y-101434542D03*
X131448312Y-101434542D03*
X143948312Y-96434542D03*
X131448312Y-96434542D03*
D30*
X137698312Y-94434542D03*
X137698312Y-103434542D03*
%TD*%
D14*
%TO.C,R41*%
X214698312Y-46944542D03*
X214698312Y-45924542D03*
%TD*%
D31*
%TO.C,D31*%
X198098312Y-92034542D03*
X198098312Y-88834542D03*
X193198312Y-88834542D03*
X193198312Y-92034542D03*
%TD*%
D11*
%TO.C,D11*%
X162743312Y-91237042D03*
X162743312Y-89662042D03*
%TD*%
D37*
%TO.C,D1*%
X156518304Y-55096568D03*
X154643304Y-55096568D03*
%TD*%
D38*
%TO.C,IC3*%
X122203337Y-101257587D03*
X121849784Y-101611140D03*
X121496230Y-101964694D03*
X121142677Y-102318247D03*
X120789124Y-102671800D03*
X120435570Y-103025354D03*
X120082017Y-103378907D03*
X119728464Y-103732460D03*
X119374910Y-104086014D03*
X119021357Y-104439567D03*
D39*
X119021357Y-105429517D03*
X119374910Y-105783070D03*
X119728464Y-106136624D03*
X120082017Y-106490177D03*
X120435570Y-106843730D03*
X120789124Y-107197284D03*
X121142677Y-107550837D03*
X121496230Y-107904390D03*
X121849784Y-108257944D03*
X122203337Y-108611497D03*
D38*
X123193287Y-108611497D03*
X123546840Y-108257944D03*
X123900394Y-107904390D03*
X124253947Y-107550837D03*
X124607500Y-107197284D03*
X124961054Y-106843730D03*
X125314607Y-106490177D03*
X125668160Y-106136624D03*
X126021714Y-105783070D03*
X126375267Y-105429517D03*
D39*
X126375267Y-104439567D03*
X126021714Y-104086014D03*
X125668160Y-103732460D03*
X125314607Y-103378907D03*
X124961054Y-103025354D03*
X124607500Y-102671800D03*
X124253947Y-102318247D03*
X123900394Y-101964694D03*
X123546840Y-101611140D03*
X123193287Y-101257587D03*
D40*
X122698312Y-104934542D03*
%TD*%
D41*
%TO.C,C15*%
X143740804Y-48897034D03*
X142780804Y-48897034D03*
%TD*%
D42*
%TO.C,J10*%
X92973798Y-65760028D03*
X96120423Y-66078226D03*
D43*
X97322505Y-70108735D03*
X100080221Y-70038024D03*
D44*
X101317658Y-74103888D03*
%TD*%
D31*
%TO.C,D36*%
X198148312Y-62134542D03*
X198148312Y-58934542D03*
X193248312Y-58934542D03*
X193248312Y-62134542D03*
%TD*%
D10*
%TO.C,D18*%
X122213312Y-116434542D03*
X123183312Y-116434542D03*
%TD*%
%TO.C,D22*%
X117213312Y-116434542D03*
X118183312Y-116434542D03*
%TD*%
D31*
%TO.C,D27*%
X198098312Y-116034542D03*
X198098312Y-112834542D03*
X193198312Y-112834542D03*
X193198312Y-116034542D03*
%TD*%
D45*
%TO.C,R16*%
X127353936Y-101310166D03*
X126632688Y-100588918D03*
%TD*%
D12*
%TO.C,C27*%
X110442714Y-71026505D03*
X111121536Y-71705327D03*
%TD*%
D46*
%TO.C,C8*%
X113501248Y-87229599D03*
X112822426Y-86550777D03*
%TD*%
%TO.C,C5*%
X126017038Y-83623354D03*
X125338216Y-82944532D03*
%TD*%
D28*
%TO.C,C9*%
X115982501Y-89832443D03*
X116661323Y-89153621D03*
%TD*%
D15*
%TO.C,J5*%
X207698312Y-50934542D03*
D16*
X210238312Y-50934542D03*
X212778312Y-50934542D03*
X215318312Y-50934542D03*
%TD*%
D31*
%TO.C,D35*%
X198148312Y-68134542D03*
X198148312Y-64934542D03*
X193248312Y-64934542D03*
X193248312Y-68134542D03*
%TD*%
D11*
%TO.C,D8*%
X167993312Y-91237042D03*
X167993312Y-89662042D03*
%TD*%
D10*
%TO.C,D17*%
X122213312Y-114934542D03*
X123183312Y-114934542D03*
%TD*%
%TO.C,D14*%
X119713312Y-113434542D03*
X120683312Y-113434542D03*
%TD*%
D47*
%TO.C,D2*%
X154643304Y-53096568D03*
X156518304Y-53096568D03*
%TD*%
D48*
%TO.C,U11*%
X132283304Y-52162034D03*
X132283304Y-51212034D03*
X132283304Y-50262034D03*
X130008304Y-50262034D03*
X130008304Y-52162034D03*
%TD*%
D49*
%TO.C,R6*%
X118613630Y-90913626D03*
X117892382Y-91634874D03*
%TD*%
D29*
%TO.C,SW2*%
X160948312Y-101434542D03*
X148448312Y-101434542D03*
X160948312Y-96434542D03*
X148448312Y-96434542D03*
D30*
X154698312Y-94434542D03*
X154698312Y-103434542D03*
%TD*%
D31*
%TO.C,D29*%
X198098312Y-104034542D03*
X198098312Y-100834542D03*
X193198312Y-100834542D03*
X193198312Y-104034542D03*
%TD*%
D21*
%TO.C,C24*%
X201993312Y-57539542D03*
X201993312Y-56579542D03*
%TD*%
D12*
%TO.C,C11*%
X121519839Y-77853363D03*
X122198661Y-78532185D03*
%TD*%
D14*
%TO.C,R34*%
X171493312Y-88459542D03*
X171493312Y-87439542D03*
%TD*%
D46*
%TO.C,C6*%
X125225078Y-84387029D03*
X124546256Y-83708207D03*
%TD*%
D10*
%TO.C,D16*%
X117213312Y-114934542D03*
X118183312Y-114934542D03*
%TD*%
D17*
%TO.C,C17*%
X138660804Y-56797034D03*
X138660804Y-58347034D03*
%TD*%
D10*
%TO.C,D24*%
X124713312Y-116434542D03*
X125683312Y-116434542D03*
%TD*%
D50*
%TO.C,R21*%
X102015569Y-60092269D03*
X103306039Y-58801799D03*
%TD*%
D51*
%TO.C,R22*%
X113840362Y-74141310D03*
X112549892Y-72850840D03*
%TD*%
D47*
%TO.C,D4*%
X154580804Y-49096568D03*
X156455804Y-49096568D03*
%TD*%
D14*
%TO.C,R37*%
X166243312Y-88459542D03*
X166243312Y-87439542D03*
%TD*%
D52*
%TO.C,R15*%
X121993312Y-97449542D03*
D20*
X127381466Y-92061388D03*
%TD*%
D53*
%TO.C,U4*%
X203993312Y-58852042D03*
D54*
X203593312Y-58852042D03*
X203193312Y-58852042D03*
X202793312Y-58852042D03*
D55*
X202393312Y-58852042D03*
D56*
X201805812Y-59439542D03*
D57*
X201805812Y-59839542D03*
X201805812Y-60239542D03*
X201805812Y-60639542D03*
D58*
X201805812Y-61039542D03*
D59*
X202393312Y-61627042D03*
D54*
X202793312Y-61627042D03*
X203193312Y-61627042D03*
X203593312Y-61627042D03*
D60*
X203993312Y-61627042D03*
D61*
X204580812Y-61039542D03*
D57*
X204580812Y-60639542D03*
X204580812Y-60239542D03*
X204580812Y-59839542D03*
D62*
X204580812Y-59439542D03*
%TD*%
D36*
%TO.C,R11*%
X143860804Y-57687034D03*
X143860804Y-58707034D03*
%TD*%
D63*
%TO.C,J3*%
X105725000Y-29437500D03*
X113725000Y-29437500D03*
D64*
X106525000Y-40437500D03*
X107625000Y-40437500D03*
X108725000Y-40437500D03*
X109825000Y-40437500D03*
X110925000Y-40437500D03*
X112025000Y-40437500D03*
X113125000Y-40437500D03*
X114225000Y-40437500D03*
X115325000Y-40437500D03*
D65*
X116525000Y-39437500D03*
D66*
X116525000Y-29837500D03*
X101025000Y-29837500D03*
D67*
X101925000Y-39437500D03*
%TD*%
D49*
%TO.C,R3*%
X123004763Y-86550777D03*
X122283515Y-87272025D03*
%TD*%
D15*
%TO.C,J4*%
X207723312Y-28834542D03*
D16*
X207723312Y-31374542D03*
X207723312Y-33914542D03*
X207723312Y-36454542D03*
X207723312Y-38994542D03*
X207723312Y-41534542D03*
X207723312Y-44074542D03*
%TD*%
D46*
%TO.C,C13*%
X121420844Y-79310003D03*
X120742022Y-78631181D03*
%TD*%
D42*
%TO.C,J1*%
X92973798Y-83760028D03*
X96120423Y-84078226D03*
D43*
X97322505Y-88108735D03*
X100080221Y-88038024D03*
D44*
X101317658Y-92103888D03*
%TD*%
D31*
%TO.C,D33*%
X198098312Y-80034542D03*
X198098312Y-76834542D03*
X193198312Y-76834542D03*
X193198312Y-80034542D03*
%TD*%
D68*
%TO.C,R1*%
X119455088Y-90100452D03*
X120176336Y-89379204D03*
%TD*%
D11*
%TO.C,D10*%
X164493312Y-91247042D03*
X164493312Y-89672042D03*
%TD*%
D12*
%TO.C,C3*%
X126138931Y-82115533D03*
X126817753Y-82794355D03*
%TD*%
D14*
%TO.C,R7*%
X93018304Y-35746568D03*
X93018304Y-34726568D03*
%TD*%
D69*
%TO.C,U1*%
X114903088Y-84689318D03*
X115362707Y-85148937D03*
X115822326Y-85608557D03*
X116281946Y-86068176D03*
X116741565Y-86527795D03*
X117201185Y-86987415D03*
X117660804Y-87447034D03*
X118120423Y-87906654D03*
X118580043Y-88366273D03*
X119039662Y-88825892D03*
X123087848Y-84777706D03*
X122628229Y-84318087D03*
X122168610Y-83858467D03*
X121708990Y-83398848D03*
X121249371Y-82939229D03*
X120789751Y-82479609D03*
X120330132Y-82019990D03*
X119870513Y-81560370D03*
X119410893Y-81100751D03*
X118951274Y-80641132D03*
%TD*%
D14*
%TO.C,R8*%
X96018304Y-35746568D03*
X96018304Y-34726568D03*
%TD*%
D37*
%TO.C,D3*%
X156518304Y-51096568D03*
X154643304Y-51096568D03*
%TD*%
D15*
%TO.C,J12*%
X160760804Y-61447034D03*
D16*
X163300804Y-61447034D03*
X165840804Y-61447034D03*
X168380804Y-61447034D03*
X170920804Y-61447034D03*
X173460804Y-61447034D03*
X176000804Y-61447034D03*
%TD*%
D15*
%TO.C,DS1*%
X91493312Y-115949542D03*
D16*
X94033312Y-115949542D03*
X96573312Y-115949542D03*
X99113312Y-115949542D03*
X101653312Y-115949542D03*
X104193312Y-115949542D03*
X106733312Y-115949542D03*
X109273312Y-115949542D03*
X111813312Y-115949542D03*
%TD*%
D70*
%TO.C,IC4*%
X178016565Y-70447523D03*
X178516565Y-70447523D03*
X179016565Y-70447523D03*
X179516565Y-70447523D03*
D71*
X180266565Y-69697523D03*
X180266565Y-69197523D03*
X180266565Y-68697523D03*
X180266565Y-68197523D03*
D70*
X179516565Y-67447523D03*
X179016565Y-67447523D03*
X178516565Y-67447523D03*
X178016565Y-67447523D03*
D71*
X177266565Y-68197523D03*
X177266565Y-68697523D03*
X177266565Y-69197523D03*
X177266565Y-69697523D03*
D72*
X178766565Y-68947523D03*
%TD*%
D73*
%TO.C,C2*%
X200198312Y-115474542D03*
X200198312Y-116434542D03*
%TD*%
D31*
%TO.C,D30*%
X198098312Y-98034542D03*
X198098312Y-94834542D03*
X193198312Y-94834542D03*
X193198312Y-98034542D03*
%TD*%
%TO.C,D28*%
X198098312Y-110034542D03*
X198098312Y-106834542D03*
X193198312Y-106834542D03*
X193198312Y-110034542D03*
%TD*%
D36*
%TO.C,R13*%
X213198312Y-58934542D03*
X213198312Y-59954542D03*
%TD*%
D74*
%TO.C,J2*%
X97708304Y-31951568D03*
X91928304Y-31951568D03*
D75*
X98168304Y-33016568D03*
X97368304Y-33016568D03*
X96068304Y-33016568D03*
X95068304Y-33016568D03*
X94568304Y-33016568D03*
X93568304Y-33016568D03*
X92268304Y-33016568D03*
X91468304Y-33016568D03*
X91768304Y-33016568D03*
X92568304Y-33016568D03*
X93068304Y-33016568D03*
X94068304Y-33016568D03*
X95568304Y-33016568D03*
X96568304Y-33016568D03*
X97068304Y-33016568D03*
X97868304Y-33016568D03*
D76*
X99138304Y-28271568D03*
D77*
X99138304Y-32451568D03*
X90498304Y-32451568D03*
D76*
X90498304Y-28271568D03*
%TD*%
D46*
%TO.C,C1*%
X126672134Y-102128364D03*
X125993312Y-101449542D03*
%TD*%
D29*
%TO.C,SW5*%
X160948312Y-115534542D03*
X148448312Y-115534542D03*
X160948312Y-110534542D03*
X148448312Y-110534542D03*
D30*
X154698312Y-108534542D03*
X154698312Y-117534542D03*
%TD*%
D15*
%TO.C,J6*%
X207698312Y-54934542D03*
D16*
X210238312Y-54934542D03*
X212778312Y-54934542D03*
X215318312Y-54934542D03*
%TD*%
D46*
%TO.C,C10*%
X120713737Y-80017109D03*
X120034915Y-79338287D03*
%TD*%
D14*
%TO.C,R36*%
X167993312Y-88459542D03*
X167993312Y-87439542D03*
%TD*%
D78*
%TO.C,U3*%
X150473312Y-63184542D03*
X142923312Y-63434542D03*
X150473312Y-63684542D03*
X142923312Y-63934542D03*
X150473312Y-64184542D03*
X142923312Y-64434542D03*
X150473312Y-64684542D03*
X142923312Y-64934542D03*
X150473312Y-65184542D03*
X142923312Y-65434542D03*
X150473312Y-65684542D03*
X142923312Y-65934542D03*
X150473312Y-66184542D03*
X142923312Y-66434542D03*
X150473312Y-66684542D03*
X142923312Y-66934542D03*
X150473312Y-67184542D03*
X142923312Y-67434542D03*
X150473312Y-67684542D03*
X142923312Y-67934542D03*
X150473312Y-68184542D03*
X142923312Y-68434542D03*
X150473312Y-68684542D03*
X142923312Y-70934542D03*
X150473312Y-71184542D03*
X142923312Y-71434542D03*
X150473312Y-71684542D03*
X142923312Y-71934542D03*
X150473312Y-72184542D03*
X142923312Y-72434542D03*
X150473312Y-72684542D03*
X142923312Y-72934542D03*
X150473312Y-73184542D03*
X142923312Y-73434542D03*
X150473312Y-73684542D03*
X142923312Y-73934542D03*
X150473312Y-74184542D03*
X142923312Y-74434542D03*
X150473312Y-74684542D03*
X142923312Y-74934542D03*
X150473312Y-75184542D03*
X142923312Y-75434542D03*
X150473312Y-75684542D03*
X142923312Y-75934542D03*
X150473312Y-76184542D03*
X142923312Y-76434542D03*
X150473312Y-76684542D03*
X142923312Y-76934542D03*
X150473312Y-77184542D03*
X142923312Y-77434542D03*
X150473312Y-77684542D03*
X142923312Y-77934542D03*
X150473312Y-78184542D03*
X142923312Y-78434542D03*
X150473312Y-78684542D03*
X142923312Y-78934542D03*
X150473312Y-79184542D03*
X142923312Y-79434542D03*
X150473312Y-79684542D03*
X142923312Y-79934542D03*
X150473312Y-80184542D03*
X142923312Y-80434542D03*
X150473312Y-80684542D03*
X142923312Y-80934542D03*
X150473312Y-81184542D03*
X142923312Y-81434542D03*
X150473312Y-81684542D03*
D79*
X145198312Y-62434542D03*
D80*
X145198312Y-82434542D03*
D81*
X149698312Y-62084542D03*
X149698312Y-82784542D03*
%TD*%
D42*
%TO.C,J11*%
X92973798Y-47760028D03*
X96120423Y-48078226D03*
D43*
X97322505Y-52108735D03*
X100080221Y-52038024D03*
D44*
X101317658Y-56103888D03*
%TD*%
D82*
%TO.C,R9*%
X146885804Y-49097034D03*
X145235804Y-49097034D03*
%TD*%
D49*
%TO.C,R5*%
X115890577Y-88368733D03*
X115169329Y-89089981D03*
%TD*%
D17*
%TO.C,C22*%
X133860804Y-56797034D03*
X133860804Y-58347034D03*
%TD*%
D49*
%TO.C,R2*%
X121597620Y-87957919D03*
X120876372Y-88679167D03*
%TD*%
D14*
%TO.C,R12*%
X200493312Y-59559542D03*
X200493312Y-58539542D03*
%TD*%
D83*
%TO.C,C19*%
X145285804Y-58397034D03*
X146835804Y-58397034D03*
%TD*%
D84*
%TO.C,C16*%
X140580804Y-48897034D03*
X141540804Y-48897034D03*
%TD*%
D31*
%TO.C,D34*%
X198098312Y-74034542D03*
X198098312Y-70834542D03*
X193198312Y-70834542D03*
X193198312Y-74034542D03*
%TD*%
D50*
%TO.C,R20*%
X104773285Y-57475973D03*
X106063755Y-56185503D03*
%TD*%
D84*
%TO.C,C30*%
X179461565Y-71607523D03*
X180421565Y-71607523D03*
%TD*%
D36*
%TO.C,R14*%
X214698312Y-58934542D03*
X214698312Y-59954542D03*
%TD*%
D10*
%TO.C,D21*%
X127213312Y-114934542D03*
X128183312Y-114934542D03*
%TD*%
D85*
%TO.C,SW1*%
X164823304Y-52822034D03*
X164823304Y-49072034D03*
X158823304Y-52822034D03*
X158823304Y-49072034D03*
%TD*%
D13*
%TO.C,C29*%
X131420804Y-53912034D03*
X129870804Y-53912034D03*
%TD*%
D86*
%TO.C,SW7*%
X184198312Y-104634542D03*
D80*
X184198312Y-109634542D03*
X169698312Y-104634542D03*
X169698312Y-109634542D03*
X169698312Y-107134542D03*
D87*
X177198312Y-101434542D03*
X177198312Y-112834542D03*
%TD*%
D12*
%TO.C,C7*%
X113600243Y-85772959D03*
X114279065Y-86451781D03*
%TD*%
D15*
%TO.C,U9*%
X197273312Y-53259542D03*
D16*
X194733312Y-53259542D03*
X192193312Y-53259542D03*
%TD*%
D14*
%TO.C,R39*%
X162743312Y-88459542D03*
X162743312Y-87439542D03*
%TD*%
D10*
%TO.C,D12*%
X124713312Y-113434542D03*
X125683312Y-113434542D03*
%TD*%
D88*
%TO.C,R19*%
X101236184Y-78790537D03*
X102526654Y-80081007D03*
%TD*%
D89*
%TO.C,SW6*%
X115865309Y-62999888D03*
X113213658Y-65651539D03*
X120107950Y-67242529D03*
X117456299Y-69894180D03*
%TD*%
D90*
%TO.C,U7*%
X125315234Y-80605776D03*
X124643483Y-79934025D03*
X123971732Y-79262274D03*
X122363064Y-80870942D03*
X123706566Y-82214444D03*
%TD*%
D91*
%TO.C,H2*%
X186198312Y-94434542D03*
%TD*%
%TO.C,H4*%
X109698312Y-91934542D03*
%TD*%
%TO.C,H5*%
X185160804Y-51447034D03*
%TD*%
%TO.C,H3*%
X117698312Y-48434542D03*
%TD*%
D92*
X119065487Y-84203873D03*
X114910804Y-91197034D03*
X183410804Y-72697034D03*
X163660804Y-85447034D03*
X108993312Y-110449542D03*
X112993312Y-104449542D03*
X116993312Y-101449544D03*
X112993312Y-105449542D03*
X117993312Y-100449542D03*
X115493312Y-101949544D03*
X104493312Y-102949542D03*
X118993312Y-106949542D03*
X115993312Y-111949542D03*
X124543702Y-109202354D03*
X118993312Y-112449542D03*
X120493312Y-111949542D03*
X125243202Y-110024997D03*
X122493312Y-111949542D03*
X126211681Y-109777907D03*
X126696476Y-108719177D03*
X123844202Y-110151030D03*
X125993312Y-111949542D03*
X129993312Y-117449542D03*
X121493312Y-117949542D03*
X129993312Y-119149042D03*
X119993312Y-118949542D03*
X111993312Y-110449542D03*
X119493312Y-100449542D03*
X105993312Y-107949542D03*
X103493312Y-110449542D03*
X103493312Y-108449542D03*
X101493312Y-110449542D03*
X108493312Y-106949542D03*
X105993312Y-110449542D03*
X114669658Y-83232761D03*
X116083872Y-81677126D03*
X135650799Y-53972866D03*
X135948312Y-51684542D03*
X126660804Y-48447034D03*
X152448312Y-72684542D03*
X148660804Y-58447034D03*
X182493312Y-69949542D03*
X171993312Y-86199542D03*
X151993312Y-83949542D03*
X122493312Y-103199542D03*
X194993312Y-35949542D03*
X192493312Y-42699542D03*
X133760804Y-53347034D03*
X166243312Y-85949542D03*
X207993312Y-62199542D03*
X124743312Y-104949542D03*
X128460804Y-54747034D03*
X143198312Y-54684542D03*
X133660804Y-60447034D03*
X132591182Y-56516656D03*
X144698312Y-52684542D03*
X168243312Y-85949542D03*
X125660303Y-78740428D03*
X96410804Y-37197034D03*
X120493312Y-104949542D03*
X122493312Y-106949542D03*
X142660804Y-48046534D03*
X144448312Y-54434542D03*
X143198312Y-52684542D03*
X169993312Y-86199542D03*
X154198312Y-62184542D03*
X137443717Y-52179947D03*
X143860804Y-53697034D03*
X128328586Y-80880471D03*
X123697728Y-85829527D03*
X126455444Y-79536277D03*
X174243312Y-66699542D03*
X189743312Y-65949542D03*
X153493312Y-82699542D03*
X175543812Y-80699542D03*
X163993312Y-79699542D03*
X176493312Y-81699542D03*
X153524547Y-74426202D03*
X211743312Y-58449542D03*
X213993312Y-58199542D03*
X154160804Y-75197034D03*
X138825471Y-62303212D03*
X174993312Y-56699542D03*
X133993312Y-63449542D03*
X203993312Y-53449542D03*
X132493312Y-76699542D03*
X173993312Y-51199542D03*
X202243312Y-53699542D03*
X131123690Y-74319164D03*
X135739766Y-64100531D03*
X175743311Y-67449541D03*
X174243312Y-68949542D03*
X150942635Y-60250042D03*
X179993312Y-55199542D03*
X148460804Y-63747034D03*
X130760804Y-66847034D03*
X152153690Y-63239920D03*
X131743312Y-70699542D03*
X132993312Y-69699542D03*
X148743312Y-66449542D03*
X148660804Y-48747034D03*
X103500000Y-43000000D03*
X119260804Y-70447034D03*
X152460804Y-65147034D03*
X130460804Y-57347034D03*
X135760804Y-60047034D03*
X164660804Y-47447034D03*
X157660804Y-45447034D03*
X131760804Y-72547034D03*
X147743312Y-67949542D03*
X137250000Y-75000000D03*
X139500000Y-79500000D03*
X120993312Y-90449542D03*
X135493312Y-90199542D03*
X133993312Y-89463357D03*
X122166277Y-88526577D03*
X135493312Y-88699542D03*
X145661304Y-79247034D03*
X145660804Y-76347034D03*
X123948420Y-87494434D03*
X166861383Y-59852715D03*
X168543812Y-47199542D03*
X162993312Y-65199542D03*
X169535310Y-65418300D03*
X169243312Y-59699542D03*
X156410804Y-75786062D03*
X155910804Y-77584573D03*
X169243312Y-45199542D03*
X159243312Y-72949542D03*
X148493312Y-77449542D03*
X148493312Y-76449542D03*
X157243312Y-73699542D03*
X166362934Y-70569164D03*
X155493312Y-67949542D03*
X140160804Y-73697034D03*
X143660804Y-89197034D03*
X141493312Y-89449542D03*
X139910804Y-75947034D03*
X138660804Y-72947034D03*
X142410804Y-88447034D03*
X159160804Y-66947034D03*
X164410804Y-72697034D03*
X155160804Y-70697034D03*
X162160804Y-75197034D03*
X159217513Y-65548553D03*
X165660804Y-76197034D03*
X157660804Y-67447034D03*
X164660804Y-75697034D03*
X154384862Y-78884042D03*
X155414424Y-78985042D03*
X131243312Y-68699542D03*
X147493312Y-65449542D03*
X107993312Y-55449542D03*
X181243312Y-54699542D03*
X109750000Y-45000000D03*
X116660804Y-73847034D03*
X124993312Y-54449542D03*
X209243312Y-48699542D03*
X122993312Y-99199542D03*
X211743312Y-45199542D03*
X127493312Y-102949542D03*
X181493312Y-70949542D03*
X173743312Y-84449542D03*
X174993312Y-53699542D03*
X127993312Y-110449542D03*
X130493312Y-113449542D03*
X123993312Y-117949542D03*
X126493312Y-117449542D03*
X130493312Y-104449542D03*
X134743312Y-78199542D03*
X140743312Y-65199542D03*
M02*
