M48
; DRILL file {KiCad (6.0.5)} date Fri May 27 12:21:26 2022
; FORMAT={-:-/ absolute / metric / decimal}
; #@! TF.CreationDate,2022-05-27T12:21:26+02:00
; #@! TF.GenerationSoftware,Kicad,Pcbnew,(6.0.5)
; #@! TF.FileFunction,Plated,1,2,PTH
FMAT,2
METRIC
; #@! TA.AperFunction,Plated,PTH,ViaDrill
T1C0.400
; #@! TA.AperFunction,Plated,PTH,ComponentDrill
T2C0.800
; #@! TA.AperFunction,Plated,PTH,ComponentDrill
T3C0.850
; #@! TA.AperFunction,Plated,PTH,ComponentDrill
T4C1.100
; #@! TA.AperFunction,Plated,PTH,ComponentDrill
T5C2.700
%
G90
G05
T1
X175.8Y-54.5
X184.7Y-70.0
X217.25Y-72.5
X222.5Y-72.5
X225.25Y-71.0
X228.0Y-70.0
X228.3Y-86.0
T2
X172.72Y-88.9
X172.72Y-96.52
X175.26Y-88.9
X175.26Y-96.52
X177.8Y-88.9
X177.8Y-96.52
X180.34Y-88.9
X180.34Y-96.52
X182.0Y-59.92
X182.0Y-70.08
X182.88Y-88.9
X182.88Y-96.52
X185.42Y-88.9
X185.42Y-96.52
X187.0Y-59.92
X187.0Y-70.08
X187.96Y-88.9
X187.96Y-96.52
X190.5Y-88.9
X190.5Y-96.52
X191.92Y-75.0
X193.0Y-99.06
X193.0Y-109.22
X193.04Y-88.9
X193.04Y-96.52
X195.58Y-88.9
X195.58Y-96.52
X198.12Y-88.9
X198.12Y-96.52
X198.19Y-61.0
X199.18Y-64.2
X199.18Y-71.82
X199.92Y-57.0
X200.66Y-88.9
X200.66Y-96.52
X201.0Y-99.06
X201.0Y-109.22
X201.72Y-64.2
X201.72Y-71.82
X202.08Y-75.0
X203.2Y-88.9
X203.2Y-96.52
X204.26Y-64.2
X204.26Y-71.82
X204.5Y-75.0
X205.74Y-88.9
X205.74Y-96.52
X205.81Y-61.0
X206.8Y-64.2
X206.8Y-71.82
X207.0Y-75.0
X209.0Y-99.06
X209.0Y-109.22
X210.08Y-57.0
X215.0Y-56.92
X215.0Y-67.08
X217.0Y-99.06
X217.0Y-109.22
X219.0Y-56.92
X219.0Y-67.08
X223.12Y-75.18
X229.66Y-61.18
X230.46Y-64.38
X230.46Y-72.0
X230.92Y-57.18
X233.0Y-64.38
X233.0Y-72.0
X233.28Y-75.18
X235.54Y-64.38
X235.54Y-72.0
X235.78Y-75.18
X237.28Y-61.18
X238.08Y-64.38
X238.08Y-72.0
X238.28Y-75.18
X241.08Y-57.18
T3
X157.48Y-68.58
X157.48Y-73.66
X157.48Y-78.74
X157.48Y-83.82
X161.68Y-68.58
X161.98Y-73.66
X161.98Y-78.74
X161.98Y-83.82
X165.88Y-68.58
X167.64Y-73.66
X167.64Y-78.74
X167.64Y-83.82
X170.08Y-68.58
X172.14Y-73.66
X172.14Y-78.74
X172.14Y-83.82
X172.75Y-53.25
X172.75Y-57.45
X172.75Y-61.65
X174.28Y-68.58
X181.8Y-53.0
X185.5Y-107.26
X185.5Y-111.76
X186.0Y-53.0
X190.2Y-53.0
X190.5Y-111.76
X194.7Y-111.76
X197.6Y-53.0
X199.0Y-111.76
X201.8Y-53.0
X203.2Y-111.76
X206.0Y-53.0
X206.62Y-111.76
X210.82Y-111.76
X214.6Y-53.0
X215.9Y-111.76
X218.8Y-53.0
X220.1Y-111.76
X223.0Y-53.0
X226.06Y-111.76
X230.08Y-53.18
X230.26Y-111.76
X234.28Y-53.18
X238.48Y-53.18
T4
X209.55Y-81.28
X209.55Y-96.52
X212.09Y-81.28
X212.09Y-96.52
X214.63Y-81.28
X214.63Y-96.52
X217.17Y-81.28
X217.17Y-96.52
X219.71Y-81.28
X219.71Y-96.52
X222.25Y-81.28
X222.25Y-96.52
X224.79Y-81.28
X224.79Y-96.52
X226.06Y-106.68
X227.33Y-81.28
X227.33Y-96.52
X228.6Y-106.68
X229.87Y-81.28
X229.87Y-96.52
X231.14Y-106.68
X232.41Y-81.28
X232.41Y-96.52
X234.95Y-81.28
X234.95Y-96.52
X237.49Y-81.28
X237.49Y-96.52
X240.03Y-81.28
X240.03Y-96.52
X242.57Y-81.28
X242.57Y-96.52
T5
X161.25Y-58.0
X238.25Y-108.75
T0
M30
