G04 #@! TF.GenerationSoftware,KiCad,Pcbnew,(6.0.5)*
G04 #@! TF.CreationDate,2022-05-27T12:20:46+02:00*
G04 #@! TF.ProjectId,midiperformer,6d696469-7065-4726-966f-726d65722e6b,rev?*
G04 #@! TF.SameCoordinates,Original*
G04 #@! TF.FileFunction,Copper,L1,Top*
G04 #@! TF.FilePolarity,Positive*
%FSLAX46Y46*%
G04 Gerber Fmt 4.6, Leading zero omitted, Abs format (unit mm)*
G04 Created by KiCad (PCBNEW (6.0.5)) date 2022-05-27 12:20:46*
%MOMM*%
%LPD*%
G01*
G04 APERTURE LIST*
G04 Aperture macros list*
%AMRoundRect*
0 Rectangle with rounded corners*
0 $1 Rounding radius*
0 $2 $3 $4 $5 $6 $7 $8 $9 X,Y pos of 4 corners*
0 Add a 4 corners polygon primitive as box body*
4,1,4,$2,$3,$4,$5,$6,$7,$8,$9,$2,$3,0*
0 Add four circle primitives for the rounded corners*
1,1,$1+$1,$2,$3*
1,1,$1+$1,$4,$5*
1,1,$1+$1,$6,$7*
1,1,$1+$1,$8,$9*
0 Add four rect primitives between the rounded corners*
20,1,$1+$1,$2,$3,$4,$5,0*
20,1,$1+$1,$4,$5,$6,$7,0*
20,1,$1+$1,$6,$7,$8,$9,0*
20,1,$1+$1,$8,$9,$2,$3,0*%
G04 Aperture macros list end*
G04 #@! TA.AperFunction,ComponentPad*
%ADD10RoundRect,0.250000X0.750000X0.750000X-0.750000X0.750000X-0.750000X-0.750000X0.750000X-0.750000X0*%
G04 #@! TD*
G04 #@! TA.AperFunction,ComponentPad*
%ADD11C,2.000000*%
G04 #@! TD*
G04 #@! TA.AperFunction,ComponentPad*
%ADD12RoundRect,0.250000X0.675000X0.675000X-0.675000X0.675000X-0.675000X-0.675000X0.675000X-0.675000X0*%
G04 #@! TD*
G04 #@! TA.AperFunction,ComponentPad*
%ADD13C,1.850000*%
G04 #@! TD*
G04 #@! TA.AperFunction,ComponentPad*
%ADD14C,1.600000*%
G04 #@! TD*
G04 #@! TA.AperFunction,ComponentPad*
%ADD15O,1.600000X1.600000*%
G04 #@! TD*
G04 #@! TA.AperFunction,ComponentPad*
%ADD16C,4.500000*%
G04 #@! TD*
G04 #@! TA.AperFunction,ComponentPad*
%ADD17R,1.600000X1.600000*%
G04 #@! TD*
G04 #@! TA.AperFunction,ComponentPad*
%ADD18RoundRect,0.250000X-0.750000X0.750000X-0.750000X-0.750000X0.750000X-0.750000X0.750000X0.750000X0*%
G04 #@! TD*
G04 #@! TA.AperFunction,ComponentPad*
%ADD19RoundRect,0.250000X-0.675000X-0.675000X0.675000X-0.675000X0.675000X0.675000X-0.675000X0.675000X0*%
G04 #@! TD*
G04 #@! TA.AperFunction,ComponentPad*
%ADD20R,1.905000X2.000000*%
G04 #@! TD*
G04 #@! TA.AperFunction,ComponentPad*
%ADD21O,1.905000X2.000000*%
G04 #@! TD*
G04 #@! TA.AperFunction,ComponentPad*
%ADD22RoundRect,0.250000X0.675000X-0.675000X0.675000X0.675000X-0.675000X0.675000X-0.675000X-0.675000X0*%
G04 #@! TD*
G04 #@! TA.AperFunction,ViaPad*
%ADD23C,0.800000*%
G04 #@! TD*
G04 #@! TA.AperFunction,Conductor*
%ADD24C,0.250000*%
G04 #@! TD*
G04 APERTURE END LIST*
D10*
X161980000Y-83820000D03*
D11*
X157480000Y-83820000D03*
D10*
X172140000Y-83820000D03*
D11*
X167640000Y-83820000D03*
D10*
X161980000Y-78740000D03*
D11*
X157480000Y-78740000D03*
D10*
X172140000Y-78740000D03*
D11*
X167640000Y-78740000D03*
D10*
X161980000Y-73660000D03*
D11*
X157480000Y-73660000D03*
D10*
X172140000Y-73660000D03*
D11*
X167640000Y-73660000D03*
D12*
X174280000Y-68580000D03*
D13*
X170080000Y-68580000D03*
X165880000Y-68580000D03*
X161680000Y-68580000D03*
X157480000Y-68580000D03*
D14*
X215000000Y-67080000D03*
D15*
X215000000Y-56920000D03*
D16*
X238250000Y-108750000D03*
X161250000Y-58000000D03*
D12*
X190200000Y-53000000D03*
D13*
X186000000Y-53000000D03*
X181800000Y-53000000D03*
D14*
X209000000Y-99060000D03*
D15*
X209000000Y-109220000D03*
D14*
X217000000Y-99060000D03*
D15*
X217000000Y-109220000D03*
D17*
X205810000Y-61000000D03*
D15*
X198190000Y-61000000D03*
D14*
X233280000Y-75180000D03*
D15*
X223120000Y-75180000D03*
D12*
X223000000Y-53000000D03*
D13*
X218800000Y-53000000D03*
X214600000Y-53000000D03*
D14*
X199920000Y-57000000D03*
D15*
X210080000Y-57000000D03*
D14*
X187000000Y-59920000D03*
D15*
X187000000Y-70080000D03*
D14*
X182000000Y-70080000D03*
D15*
X182000000Y-59920000D03*
D12*
X206000000Y-53000000D03*
D13*
X201800000Y-53000000D03*
X197600000Y-53000000D03*
D17*
X242570000Y-81280000D03*
D14*
X240030000Y-81280000D03*
X237490000Y-81280000D03*
X234950000Y-81280000D03*
X232410000Y-81280000D03*
X229870000Y-81280000D03*
X227330000Y-81280000D03*
X224790000Y-81280000D03*
X222250000Y-81280000D03*
X219710000Y-81280000D03*
X217170000Y-81280000D03*
X214630000Y-81280000D03*
X212090000Y-81280000D03*
X209550000Y-81280000D03*
X209550000Y-96520000D03*
X212090000Y-96520000D03*
X214630000Y-96520000D03*
X217170000Y-96520000D03*
X219710000Y-96520000D03*
X222250000Y-96520000D03*
X224790000Y-96520000D03*
X227330000Y-96520000D03*
X229870000Y-96520000D03*
X232410000Y-96520000D03*
X234950000Y-96520000D03*
X237490000Y-96520000D03*
X240030000Y-96520000D03*
X242570000Y-96520000D03*
D12*
X238480000Y-53180000D03*
D13*
X234280000Y-53180000D03*
X230080000Y-53180000D03*
D14*
X230920000Y-57180000D03*
D15*
X241080000Y-57180000D03*
D18*
X185500000Y-107260000D03*
D11*
X185500000Y-111760000D03*
D19*
X215900000Y-111760000D03*
D13*
X220100000Y-111760000D03*
D14*
X207000000Y-75000000D03*
X204500000Y-75000000D03*
D17*
X238080000Y-64380000D03*
D15*
X235540000Y-64380000D03*
X233000000Y-64380000D03*
X230460000Y-64380000D03*
X230460000Y-72000000D03*
X233000000Y-72000000D03*
X235540000Y-72000000D03*
X238080000Y-72000000D03*
D14*
X219000000Y-56920000D03*
D15*
X219000000Y-67080000D03*
D17*
X237280000Y-61180000D03*
D15*
X229660000Y-61180000D03*
D19*
X206620000Y-111760000D03*
D13*
X210820000Y-111760000D03*
D19*
X199000000Y-111760000D03*
D13*
X203200000Y-111760000D03*
D20*
X226060000Y-106680000D03*
D21*
X228600000Y-106680000D03*
X231140000Y-106680000D03*
D14*
X193000000Y-99060000D03*
D15*
X193000000Y-109220000D03*
D14*
X238280000Y-75180000D03*
X235780000Y-75180000D03*
X201000000Y-99060000D03*
D15*
X201000000Y-109220000D03*
D14*
X202080000Y-75000000D03*
D15*
X191920000Y-75000000D03*
D13*
X172750000Y-53250000D03*
X172750000Y-57450000D03*
D22*
X172750000Y-61650000D03*
D19*
X190500000Y-111760000D03*
D13*
X194700000Y-111760000D03*
D19*
X226060000Y-111760000D03*
D13*
X230260000Y-111760000D03*
D17*
X205740000Y-88900000D03*
D15*
X203200000Y-88900000D03*
X200660000Y-88900000D03*
X198120000Y-88900000D03*
X195580000Y-88900000D03*
X193040000Y-88900000D03*
X190500000Y-88900000D03*
X187960000Y-88900000D03*
X185420000Y-88900000D03*
X182880000Y-88900000D03*
X180340000Y-88900000D03*
X177800000Y-88900000D03*
X175260000Y-88900000D03*
X172720000Y-88900000D03*
X172720000Y-96520000D03*
X175260000Y-96520000D03*
X177800000Y-96520000D03*
X180340000Y-96520000D03*
X182880000Y-96520000D03*
X185420000Y-96520000D03*
X187960000Y-96520000D03*
X190500000Y-96520000D03*
X193040000Y-96520000D03*
X195580000Y-96520000D03*
X198120000Y-96520000D03*
X200660000Y-96520000D03*
X203200000Y-96520000D03*
X205740000Y-96520000D03*
D17*
X206800000Y-64200000D03*
D15*
X204260000Y-64200000D03*
X201720000Y-64200000D03*
X199180000Y-64200000D03*
X199180000Y-71820000D03*
X201720000Y-71820000D03*
X204260000Y-71820000D03*
X206800000Y-71820000D03*
D23*
X228300000Y-86000000D03*
X184700000Y-70000000D03*
X175800000Y-54500000D03*
X228000000Y-70000000D03*
X225250000Y-71000000D03*
X222500000Y-72500000D03*
X217250000Y-72500000D03*
D24*
X236250000Y-91350000D02*
X236250000Y-80750000D01*
X185420000Y-88900000D02*
X187870000Y-91350000D01*
X187870000Y-91350000D02*
X236250000Y-91350000D01*
X236250000Y-95280000D02*
X236250000Y-91350000D01*
X186440000Y-107260000D02*
X185500000Y-107260000D01*
X195764511Y-97935489D02*
X186440000Y-107260000D01*
X212090000Y-96520000D02*
X210674511Y-97935489D01*
X210674511Y-97935489D02*
X195764511Y-97935489D01*
X229870000Y-84430000D02*
X229870000Y-81280000D01*
X228300000Y-86000000D02*
X229870000Y-84430000D01*
X197404511Y-82404511D02*
X226205489Y-82404511D01*
X226205489Y-82404511D02*
X227330000Y-81280000D01*
X187335489Y-72335489D02*
X197404511Y-82404511D01*
X161235489Y-72335489D02*
X187335489Y-72335489D01*
X157480000Y-68580000D02*
X161235489Y-72335489D01*
X186920000Y-70000000D02*
X187000000Y-70080000D01*
X184700000Y-70000000D02*
X186920000Y-70000000D01*
X174550000Y-53250000D02*
X175800000Y-54500000D01*
X172750000Y-53250000D02*
X174550000Y-53250000D01*
X189284511Y-85144511D02*
X193040000Y-88900000D01*
X163304511Y-85144511D02*
X189284511Y-85144511D01*
X161980000Y-83820000D02*
X163304511Y-85144511D01*
X190500000Y-83820000D02*
X195580000Y-88900000D01*
X172140000Y-83820000D02*
X190500000Y-83820000D01*
X191420000Y-82200000D02*
X198120000Y-88900000D01*
X165440000Y-82200000D02*
X191420000Y-82200000D01*
X161980000Y-78740000D02*
X165440000Y-82200000D01*
X189540000Y-78740000D02*
X190200000Y-79400000D01*
X190200000Y-79400000D02*
X191160000Y-79400000D01*
X191160000Y-79400000D02*
X200660000Y-88900000D01*
X172140000Y-78740000D02*
X189540000Y-78740000D01*
X187384511Y-74984511D02*
X197700000Y-85300000D01*
X163304511Y-74984511D02*
X187384511Y-74984511D01*
X199600000Y-85300000D02*
X203200000Y-88900000D01*
X161980000Y-73660000D02*
X163304511Y-74984511D01*
X197700000Y-85300000D02*
X199600000Y-85300000D01*
X198000000Y-84600000D02*
X201440000Y-84600000D01*
X187060000Y-73660000D02*
X198000000Y-84600000D01*
X201440000Y-84600000D02*
X205740000Y-88900000D01*
X172140000Y-73660000D02*
X187060000Y-73660000D01*
X223215969Y-94945969D02*
X224790000Y-96520000D01*
X183845969Y-94945969D02*
X223215969Y-94945969D01*
X177800000Y-88900000D02*
X183845969Y-94945969D01*
X221125489Y-95395489D02*
X222250000Y-96520000D01*
X175260000Y-88900000D02*
X181755489Y-95395489D01*
X181755489Y-95395489D02*
X221125489Y-95395489D01*
X238280000Y-75180000D02*
X238614511Y-75514511D01*
X224000000Y-71000000D02*
X222500000Y-72500000D01*
X238080000Y-74980000D02*
X238280000Y-75180000D01*
X236080000Y-70000000D02*
X228000000Y-70000000D01*
X206800000Y-71820000D02*
X216570000Y-71820000D01*
X225250000Y-71000000D02*
X224000000Y-71000000D01*
X238080000Y-72000000D02*
X238080000Y-74980000D01*
X238614511Y-75514511D02*
X238614511Y-92564511D01*
X238614511Y-92564511D02*
X242570000Y-96520000D01*
X216570000Y-71820000D02*
X217250000Y-72500000D01*
X238080000Y-72000000D02*
X236080000Y-70000000D01*
X232410000Y-106680000D02*
X242570000Y-96520000D01*
X207000000Y-75000000D02*
X207000000Y-72020000D01*
X207000000Y-72020000D02*
X206800000Y-71820000D01*
X231140000Y-106680000D02*
X232410000Y-106680000D01*
X204500000Y-75000000D02*
X205210300Y-75000000D01*
X205810000Y-61000000D02*
X205810000Y-62650000D01*
X210080000Y-57000000D02*
X206080000Y-61000000D01*
X205810000Y-62650000D02*
X204260000Y-64200000D01*
X206080000Y-61000000D02*
X205810000Y-61000000D01*
X198190000Y-61000000D02*
X201390000Y-64200000D01*
X201390000Y-64200000D02*
X201720000Y-64200000D01*
X197600000Y-60410000D02*
X198190000Y-61000000D01*
X197600000Y-53000000D02*
X197600000Y-60410000D01*
X237280000Y-62640000D02*
X235540000Y-64380000D01*
X241080000Y-57180000D02*
X237280000Y-60980000D01*
X237280000Y-61180000D02*
X237280000Y-62640000D01*
X237280000Y-60980000D02*
X237280000Y-61180000D01*
X229660000Y-53600000D02*
X229660000Y-61180000D01*
X229660000Y-61180000D02*
X232860000Y-64380000D01*
X232860000Y-64380000D02*
X233000000Y-64380000D01*
X230080000Y-53180000D02*
X229660000Y-53600000D01*
X187000000Y-70080000D02*
X191920000Y-75000000D01*
X193044511Y-76124511D02*
X222175489Y-76124511D01*
X237490000Y-96520000D02*
X236250000Y-95280000D01*
X222175489Y-76124511D02*
X223120000Y-75180000D01*
X236250000Y-80750000D02*
X230680000Y-75180000D01*
X219000000Y-67080000D02*
X219000000Y-71060000D01*
X219000000Y-71060000D02*
X223120000Y-75180000D01*
X230680000Y-75180000D02*
X223120000Y-75180000D01*
X191920000Y-75000000D02*
X193044511Y-76124511D01*
X222165489Y-65955489D02*
X237490000Y-81280000D01*
X216124511Y-65955489D02*
X222165489Y-65955489D01*
X215000000Y-67080000D02*
X216124511Y-65955489D01*
X201720000Y-71820000D02*
X201720000Y-74640000D01*
X201720000Y-74640000D02*
X202080000Y-75000000D01*
X233000000Y-72000000D02*
X233000000Y-74900000D01*
X233000000Y-74900000D02*
X233280000Y-75180000D01*
X213469700Y-101000000D02*
X216825189Y-97644511D01*
X216825189Y-97644511D02*
X218585489Y-97644511D01*
X205460000Y-101000000D02*
X213469700Y-101000000D01*
X218585489Y-97644511D02*
X219710000Y-96520000D01*
X194700000Y-111760000D02*
X205460000Y-101000000D01*
X213654511Y-108095489D02*
X224105489Y-97644511D01*
X224105489Y-97644511D02*
X226205489Y-97644511D01*
X226205489Y-97644511D02*
X227330000Y-96520000D01*
X206864511Y-108095489D02*
X213654511Y-108095489D01*
X203200000Y-111760000D02*
X206864511Y-108095489D01*
X220029520Y-102550480D02*
X226379520Y-102550480D01*
X210820000Y-111760000D02*
X220029520Y-102550480D01*
X226379520Y-102550480D02*
X232410000Y-96520000D01*
X223000000Y-103000000D02*
X228470000Y-103000000D01*
X220100000Y-111760000D02*
X223000000Y-108860000D01*
X223000000Y-108860000D02*
X223000000Y-103000000D01*
X228470000Y-103000000D02*
X234950000Y-96520000D01*
X201800000Y-53000000D02*
X201800000Y-55120000D01*
X201800000Y-55120000D02*
X199920000Y-57000000D01*
X230920000Y-56540000D02*
X230920000Y-57180000D01*
X234280000Y-53180000D02*
X230920000Y-56540000D01*
X218800000Y-56720000D02*
X219000000Y-56920000D01*
X218800000Y-53000000D02*
X218800000Y-56720000D01*
X214600000Y-56520000D02*
X215000000Y-56920000D01*
X214600000Y-53000000D02*
X214600000Y-56520000D01*
X186000000Y-53000000D02*
X187000000Y-54000000D01*
X187000000Y-54000000D02*
X187000000Y-59920000D01*
X181800000Y-59720000D02*
X182000000Y-59920000D01*
X181800000Y-53000000D02*
X181800000Y-59720000D01*
X238480000Y-53180000D02*
X238670300Y-53180000D01*
X226060000Y-106680000D02*
X226060000Y-111760000D01*
M02*
