%TF.GenerationSoftware,KiCad,Pcbnew,(6.0.5)*%
%TF.CreationDate,2022-06-18T00:07:38+02:00*%
%TF.ProjectId,clarinoid-devboard,636c6172-696e-46f6-9964-2d646576626f,rev?*%
%TF.SameCoordinates,Original*%
%TF.FileFunction,Soldermask,Top*%
%TF.FilePolarity,Negative*%
%FSLAX46Y46*%
G04 Gerber Fmt 4.6, Leading zero omitted, Abs format (unit mm)*
G04 Created by KiCad (PCBNEW (6.0.5)) date 2022-06-18 00:07:38*
%MOMM*%
%LPD*%
G01*
G04 APERTURE LIST*
G04 Aperture macros list*
%AMRoundRect*
0 Rectangle with rounded corners*
0 $1 Rounding radius*
0 $2 $3 $4 $5 $6 $7 $8 $9 X,Y pos of 4 corners*
0 Add a 4 corners polygon primitive as box body*
4,1,4,$2,$3,$4,$5,$6,$7,$8,$9,$2,$3,0*
0 Add four circle primitives for the rounded corners*
1,1,$1+$1,$2,$3*
1,1,$1+$1,$4,$5*
1,1,$1+$1,$6,$7*
1,1,$1+$1,$8,$9*
0 Add four rect primitives between the rounded corners*
20,1,$1+$1,$2,$3,$4,$5,0*
20,1,$1+$1,$4,$5,$6,$7,0*
20,1,$1+$1,$6,$7,$8,$9,0*
20,1,$1+$1,$8,$9,$2,$3,0*%
%AMHorizOval*
0 Thick line with rounded ends*
0 $1 width*
0 $2 $3 position (X,Y) of the first rounded end (center of the circle)*
0 $4 $5 position (X,Y) of the second rounded end (center of the circle)*
0 Add line between two ends*
20,1,$1,$2,$3,$4,$5,0*
0 Add two circle primitives to create the rounded ends*
1,1,$1,$2,$3*
1,1,$1,$4,$5*%
%AMRotRect*
0 Rectangle, with rotation*
0 The origin of the aperture is its center*
0 $1 length*
0 $2 width*
0 $3 Rotation angle, in degrees counterclockwise*
0 Add horizontal line*
21,1,$1,$2,0,0,$3*%
%AMFreePoly0*
4,1,14,0.354215,0.088284,0.450784,-0.008285,0.462500,-0.036569,0.462500,-0.060000,0.450784,-0.088284,0.422500,-0.100000,-0.422500,-0.100000,-0.450784,-0.088284,-0.462500,-0.060000,-0.462500,0.060000,-0.450784,0.088284,-0.422500,0.100000,0.325931,0.100000,0.354215,0.088284,0.354215,0.088284,$1*%
%AMFreePoly1*
4,1,14,0.450784,0.088284,0.462500,0.060000,0.462500,0.036569,0.450784,0.008285,0.354215,-0.088284,0.325931,-0.100000,-0.422500,-0.100000,-0.450784,-0.088284,-0.462500,-0.060000,-0.462500,0.060000,-0.450784,0.088284,-0.422500,0.100000,0.422500,0.100000,0.450784,0.088284,0.450784,0.088284,$1*%
%AMFreePoly2*
4,1,14,0.088284,0.450784,0.100000,0.422500,0.100000,-0.422500,0.088284,-0.450784,0.060000,-0.462500,-0.060000,-0.462500,-0.088284,-0.450784,-0.100000,-0.422500,-0.100000,0.325931,-0.088284,0.354215,0.008285,0.450784,0.036569,0.462500,0.060000,0.462500,0.088284,0.450784,0.088284,0.450784,$1*%
%AMFreePoly3*
4,1,14,-0.008285,0.450784,0.088284,0.354215,0.100000,0.325931,0.100000,-0.422500,0.088284,-0.450784,0.060000,-0.462500,-0.060000,-0.462500,-0.088284,-0.450784,-0.100000,-0.422500,-0.100000,0.422500,-0.088284,0.450784,-0.060000,0.462500,-0.036569,0.462500,-0.008285,0.450784,-0.008285,0.450784,$1*%
%AMFreePoly4*
4,1,14,0.450784,0.088284,0.462500,0.060000,0.462500,-0.060000,0.450784,-0.088284,0.422500,-0.100000,-0.325931,-0.100000,-0.354215,-0.088284,-0.450784,0.008285,-0.462500,0.036569,-0.462500,0.060000,-0.450784,0.088284,-0.422500,0.100000,0.422500,0.100000,0.450784,0.088284,0.450784,0.088284,$1*%
%AMFreePoly5*
4,1,14,0.450784,0.088284,0.462500,0.060000,0.462500,-0.060000,0.450784,-0.088284,0.422500,-0.100000,-0.422500,-0.100000,-0.450784,-0.088284,-0.462500,-0.060000,-0.462500,-0.036569,-0.450784,-0.008285,-0.354215,0.088284,-0.325931,0.100000,0.422500,0.100000,0.450784,0.088284,0.450784,0.088284,$1*%
%AMFreePoly6*
4,1,14,0.088284,0.450784,0.100000,0.422500,0.100000,-0.325931,0.088284,-0.354215,-0.008285,-0.450784,-0.036569,-0.462500,-0.060000,-0.462500,-0.088284,-0.450784,-0.100000,-0.422500,-0.100000,0.422500,-0.088284,0.450784,-0.060000,0.462500,0.060000,0.462500,0.088284,0.450784,0.088284,0.450784,$1*%
%AMFreePoly7*
4,1,14,0.088284,0.450784,0.100000,0.422500,0.100000,-0.422500,0.088284,-0.450784,0.060000,-0.462500,0.036569,-0.462500,0.008285,-0.450784,-0.088284,-0.354215,-0.100000,-0.325931,-0.100000,0.422500,-0.088284,0.450784,-0.060000,0.462500,0.060000,0.462500,0.088284,0.450784,0.088284,0.450784,$1*%
G04 Aperture macros list end*
%ADD10C,3.883298*%
%ADD11C,6.200000*%
%ADD12R,2.750000X1.200000*%
%ADD13C,1.650000*%
%ADD14C,1.150000*%
%ADD15R,1.550000X0.300000*%
%ADD16RoundRect,0.218750X0.256250X-0.218750X0.256250X0.218750X-0.256250X0.218750X-0.256250X-0.218750X0*%
%ADD17RoundRect,0.140000X-0.219203X-0.021213X-0.021213X-0.219203X0.219203X0.021213X0.021213X0.219203X0*%
%ADD18RoundRect,0.225000X0.225000X0.250000X-0.225000X0.250000X-0.225000X-0.250000X0.225000X-0.250000X0*%
%ADD19RoundRect,0.135000X0.185000X-0.135000X0.185000X0.135000X-0.185000X0.135000X-0.185000X-0.135000X0*%
%ADD20R,1.700000X1.700000*%
%ADD21O,1.700000X1.700000*%
%ADD22RoundRect,0.225000X-0.250000X0.225000X-0.250000X-0.225000X0.250000X-0.225000X0.250000X0.225000X0*%
%ADD23RoundRect,0.135000X-0.185000X0.135000X-0.185000X-0.135000X0.185000X-0.135000X0.185000X0.135000X0*%
%ADD24RotRect,0.600000X0.450000X315.000000*%
%ADD25RotRect,1.600000X1.600000X45.000000*%
%ADD26HorizOval,1.600000X0.000000X0.000000X0.000000X0.000000X0*%
%ADD27RoundRect,0.140000X0.170000X-0.140000X0.170000X0.140000X-0.170000X0.140000X-0.170000X-0.140000X0*%
%ADD28RoundRect,0.135000X0.135000X0.185000X-0.135000X0.185000X-0.135000X-0.185000X0.135000X-0.185000X0*%
%ADD29RoundRect,0.140000X0.140000X0.170000X-0.140000X0.170000X-0.140000X-0.170000X0.140000X-0.170000X0*%
%ADD30R,0.450000X1.475000*%
%ADD31R,0.700000X0.950000*%
%ADD32R,2.850000X2.250000*%
%ADD33R,2.375000X1.300000*%
%ADD34RoundRect,0.140000X0.021213X-0.219203X0.219203X-0.021213X-0.021213X0.219203X-0.219203X0.021213X0*%
%ADD35C,1.850000*%
%ADD36C,2.000000*%
%ADD37C,2.390000*%
%ADD38C,3.450000*%
%ADD39R,7.340000X6.350000*%
%ADD40R,1.850000X3.500000*%
%ADD41RoundRect,0.135000X-0.135000X-0.185000X0.135000X-0.185000X0.135000X0.185000X-0.135000X0.185000X0*%
%ADD42RoundRect,0.243750X0.243750X0.456250X-0.243750X0.456250X-0.243750X-0.456250X0.243750X-0.456250X0*%
%ADD43C,2.700000*%
%ADD44C,2.500000*%
%ADD45C,3.000000*%
%ADD46C,4.400000*%
%ADD47RoundRect,0.140000X0.219203X0.021213X0.021213X0.219203X-0.219203X-0.021213X-0.021213X-0.219203X0*%
%ADD48RoundRect,0.243750X-0.243750X-0.456250X0.243750X-0.456250X0.243750X0.456250X-0.243750X0.456250X0*%
%ADD49RoundRect,0.150000X0.512500X0.150000X-0.512500X0.150000X-0.512500X-0.150000X0.512500X-0.150000X0*%
%ADD50RoundRect,0.135000X-0.035355X0.226274X-0.226274X0.035355X0.035355X-0.226274X0.226274X-0.035355X0*%
%ADD51RoundRect,0.250000X0.132583X-0.503814X0.503814X-0.132583X-0.132583X0.503814X-0.503814X0.132583X0*%
%ADD52RoundRect,0.250000X0.503814X0.132583X0.132583X0.503814X-0.503814X-0.132583X-0.132583X-0.503814X0*%
%ADD53FreePoly0,0.000000*%
%ADD54RoundRect,0.050000X-0.412500X-0.050000X0.412500X-0.050000X0.412500X0.050000X-0.412500X0.050000X0*%
%ADD55FreePoly1,0.000000*%
%ADD56FreePoly2,0.000000*%
%ADD57RoundRect,0.050000X-0.050000X-0.412500X0.050000X-0.412500X0.050000X0.412500X-0.050000X0.412500X0*%
%ADD58FreePoly3,0.000000*%
%ADD59FreePoly4,0.000000*%
%ADD60FreePoly5,0.000000*%
%ADD61FreePoly6,0.000000*%
%ADD62FreePoly7,0.000000*%
%ADD63C,1.000000*%
%ADD64R,0.700000X1.600000*%
%ADD65R,1.200000X1.500000*%
%ADD66R,1.200000X2.200000*%
%ADD67R,1.600000X1.500000*%
%ADD68RoundRect,0.135000X0.035355X-0.226274X0.226274X-0.035355X-0.035355X0.226274X-0.226274X0.035355X0*%
%ADD69RoundRect,0.100000X-0.380070X-0.521491X0.521491X0.380070X0.380070X0.521491X-0.521491X-0.380070X0*%
%ADD70R,0.300000X0.800000*%
%ADD71R,0.800000X0.300000*%
%ADD72R,1.800000X1.800000*%
%ADD73C,0.650000*%
%ADD74R,0.300000X1.150000*%
%ADD75O,1.000000X1.600000*%
%ADD76O,1.000000X2.100000*%
%ADD77RoundRect,0.200000X0.200000X0.275000X-0.200000X0.275000X-0.200000X-0.275000X0.200000X-0.275000X0*%
%ADD78RoundRect,0.225000X-0.225000X-0.250000X0.225000X-0.250000X0.225000X0.250000X-0.225000X0.250000X0*%
%ADD79RoundRect,0.140000X-0.140000X-0.170000X0.140000X-0.170000X0.140000X0.170000X-0.140000X0.170000X0*%
%ADD80R,1.000000X0.750000*%
%ADD81R,1.650000X1.650000*%
%ADD82O,6.000000X3.000000*%
%ADD83RoundRect,0.250000X-0.503814X-0.132583X-0.132583X-0.503814X0.503814X0.132583X0.132583X0.503814X0*%
%ADD84RotRect,1.000000X0.750000X315.000000*%
%ADD85RoundRect,0.150000X0.256326X0.468458X-0.468458X-0.256326X-0.256326X-0.468458X0.468458X0.256326X0*%
%ADD86C,0.800000*%
G04 APERTURE END LIST*
%TO.C,H2*%
D10*
X187352453Y-112347034D02*
G75*
G03*
X187352453Y-112347034I-1941649J0D01*
G01*
%TO.C,H4*%
X95724457Y-98447034D02*
G75*
G03*
X95724457Y-98447034I-1941649J0D01*
G01*
%TO.C,H5*%
X187102453Y-51447034D02*
G75*
G03*
X187102453Y-51447034I-1941649J0D01*
G01*
%TO.C,H3*%
X110102453Y-63447034D02*
G75*
G03*
X110102453Y-63447034I-1941649J0D01*
G01*
%TD*%
D11*
%TO.C,H1*%
X125198312Y-68434542D03*
%TD*%
D12*
%TO.C,U3*%
X149698312Y-82784542D03*
X149698312Y-62084542D03*
D13*
X145198312Y-82434542D03*
D14*
X145198312Y-62434542D03*
D15*
X150473312Y-81684542D03*
X142923312Y-81434542D03*
X150473312Y-81184542D03*
X142923312Y-80934542D03*
X150473312Y-80684542D03*
X142923312Y-80434542D03*
X150473312Y-80184542D03*
X142923312Y-79934542D03*
X150473312Y-79684542D03*
X142923312Y-79434542D03*
X150473312Y-79184542D03*
X142923312Y-78934542D03*
X150473312Y-78684542D03*
X142923312Y-78434542D03*
X150473312Y-78184542D03*
X142923312Y-77934542D03*
X150473312Y-77684542D03*
X142923312Y-77434542D03*
X150473312Y-77184542D03*
X142923312Y-76934542D03*
X150473312Y-76684542D03*
X142923312Y-76434542D03*
X150473312Y-76184542D03*
X142923312Y-75934542D03*
X150473312Y-75684542D03*
X142923312Y-75434542D03*
X150473312Y-75184542D03*
X142923312Y-74934542D03*
X150473312Y-74684542D03*
X142923312Y-74434542D03*
X150473312Y-74184542D03*
X142923312Y-73934542D03*
X150473312Y-73684542D03*
X142923312Y-73434542D03*
X150473312Y-73184542D03*
X142923312Y-72934542D03*
X150473312Y-72684542D03*
X142923312Y-72434542D03*
X150473312Y-72184542D03*
X142923312Y-71934542D03*
X150473312Y-71684542D03*
X142923312Y-71434542D03*
X150473312Y-71184542D03*
X142923312Y-70934542D03*
X150473312Y-68684542D03*
X142923312Y-68434542D03*
X150473312Y-68184542D03*
X142923312Y-67934542D03*
X150473312Y-67684542D03*
X142923312Y-67434542D03*
X150473312Y-67184542D03*
X142923312Y-66934542D03*
X150473312Y-66684542D03*
X142923312Y-66434542D03*
X150473312Y-66184542D03*
X142923312Y-65934542D03*
X150473312Y-65684542D03*
X142923312Y-65434542D03*
X150473312Y-65184542D03*
X142923312Y-64934542D03*
X150473312Y-64684542D03*
X142923312Y-64434542D03*
X150473312Y-64184542D03*
X142923312Y-63934542D03*
X150473312Y-63684542D03*
X142923312Y-63434542D03*
X150473312Y-63184542D03*
%TD*%
D16*
%TO.C,D5*%
X91660804Y-115734534D03*
X91660804Y-114159534D03*
%TD*%
D17*
%TO.C,C4*%
X126883077Y-81371386D03*
X127561899Y-82050208D03*
%TD*%
D18*
%TO.C,C28*%
X131420804Y-55512034D03*
X129870804Y-55512034D03*
%TD*%
D19*
%TO.C,R38*%
X98660804Y-112947034D03*
X98660804Y-111927034D03*
%TD*%
D20*
%TO.C,J14*%
X185566565Y-78397523D03*
D21*
X185566565Y-75857523D03*
X185566565Y-73317523D03*
X185566565Y-70777523D03*
X185566565Y-68237523D03*
X185566565Y-65697523D03*
X185566565Y-63157523D03*
X185566565Y-60617523D03*
X185566565Y-58077523D03*
%TD*%
D22*
%TO.C,C21*%
X135460804Y-56797034D03*
X135460804Y-58347034D03*
%TD*%
D16*
%TO.C,D7*%
X93410804Y-115734534D03*
X93410804Y-114159534D03*
%TD*%
D19*
%TO.C,R35*%
X93410804Y-112947034D03*
X93410804Y-111927034D03*
%TD*%
D23*
%TO.C,R40*%
X167760804Y-51837034D03*
X167760804Y-52857034D03*
%TD*%
D24*
%TO.C,D6*%
X103675702Y-81230055D03*
X105160626Y-82714979D03*
%TD*%
D25*
%TO.C,U8*%
X103286793Y-77447034D03*
D26*
X105082844Y-79243085D03*
X106878895Y-81039136D03*
X108674947Y-82835188D03*
X114063100Y-77447034D03*
X112267049Y-75650983D03*
X110470998Y-73854932D03*
X108674947Y-72058880D03*
%TD*%
D27*
%TO.C,C23*%
X132460804Y-58657034D03*
X132460804Y-57697034D03*
%TD*%
D28*
%TO.C,R10*%
X132770804Y-48912034D03*
X131750804Y-48912034D03*
%TD*%
D27*
%TO.C,C26*%
X132745804Y-54572034D03*
X132745804Y-53612034D03*
%TD*%
D17*
%TO.C,C14*%
X122226946Y-77146256D03*
X122905768Y-77825078D03*
%TD*%
D29*
%TO.C,C25*%
X178140804Y-86947034D03*
X177180804Y-86947034D03*
%TD*%
D16*
%TO.C,D9*%
X96910804Y-115734534D03*
X96910804Y-114159534D03*
%TD*%
D18*
%TO.C,C18*%
X142435804Y-58397034D03*
X140885804Y-58397034D03*
%TD*%
D22*
%TO.C,C20*%
X137060804Y-56797034D03*
X137060804Y-58347034D03*
%TD*%
D30*
%TO.C,IC1*%
X155385804Y-107385034D03*
X156035804Y-107385034D03*
X156685804Y-107385034D03*
X157335804Y-107385034D03*
X157985804Y-107385034D03*
X158635804Y-107385034D03*
X159285804Y-107385034D03*
X159935804Y-107385034D03*
X159935804Y-101509034D03*
X159285804Y-101509034D03*
X158635804Y-101509034D03*
X157985804Y-101509034D03*
X157335804Y-101509034D03*
X156685804Y-101509034D03*
X156035804Y-101509034D03*
X155385804Y-101509034D03*
%TD*%
D31*
%TO.C,IC2*%
X138560804Y-49097034D03*
X137290804Y-49097034D03*
X136020804Y-49097034D03*
X134750804Y-49097034D03*
X134750804Y-55047034D03*
X136020804Y-55047034D03*
X137290804Y-55047034D03*
X138560804Y-55047034D03*
D32*
X136655804Y-52072034D03*
%TD*%
D33*
%TO.C,U10*%
X177118804Y-51032034D03*
X177118804Y-53532034D03*
X177118804Y-56032034D03*
X171492804Y-56032034D03*
X171492804Y-53532034D03*
X171492804Y-51032034D03*
%TD*%
D34*
%TO.C,C12*%
X117099730Y-90977956D03*
X117778552Y-90299134D03*
%TD*%
D35*
%TO.C,SW4*%
X129660804Y-115947034D03*
X129660804Y-106947034D03*
D36*
X135910804Y-113947034D03*
X123410804Y-113947034D03*
X135910804Y-108947034D03*
X123410804Y-108947034D03*
%TD*%
D37*
%TO.C,BT1*%
X125388304Y-28346568D03*
D38*
X133718304Y-44346568D03*
X188918304Y-28346568D03*
D39*
X121988304Y-36346568D03*
X200648304Y-36346568D03*
%TD*%
D40*
%TO.C,L1*%
X141060804Y-53612034D03*
X146660804Y-53612034D03*
%TD*%
D41*
%TO.C,R4*%
X179328304Y-81422514D03*
X180348304Y-81422514D03*
%TD*%
D35*
%TO.C,SW3*%
X129660804Y-101847034D03*
X129660804Y-92847034D03*
D36*
X135910804Y-99847034D03*
X123410804Y-99847034D03*
X135910804Y-94847034D03*
X123410804Y-94847034D03*
%TD*%
D23*
%TO.C,R41*%
X167760804Y-54747034D03*
X167760804Y-55767034D03*
%TD*%
D16*
%TO.C,D11*%
X100410804Y-115734534D03*
X100410804Y-114159534D03*
%TD*%
D42*
%TO.C,D1*%
X156518304Y-55096568D03*
X154643304Y-55096568D03*
%TD*%
D19*
%TO.C,R44*%
X175841565Y-70307523D03*
X175841565Y-69287523D03*
%TD*%
D29*
%TO.C,C15*%
X143740804Y-48897034D03*
X142780804Y-48897034D03*
%TD*%
D43*
%TO.C,J10*%
X92973798Y-65760028D03*
X96120423Y-66078226D03*
D44*
X97322505Y-70108735D03*
X100080221Y-70038024D03*
D45*
X101317658Y-74103888D03*
%TD*%
D46*
%TO.C,H2*%
X185410804Y-112347034D03*
%TD*%
D17*
%TO.C,C27*%
X110442714Y-71026505D03*
X111121536Y-71705327D03*
%TD*%
D47*
%TO.C,C8*%
X113501248Y-87229599D03*
X112822426Y-86550777D03*
%TD*%
%TO.C,C5*%
X126017038Y-83623354D03*
X125338216Y-82944532D03*
%TD*%
D34*
%TO.C,C9*%
X115982501Y-89832443D03*
X116661323Y-89153621D03*
%TD*%
D20*
%TO.C,J5*%
X104635804Y-109102348D03*
D21*
X104635804Y-106562348D03*
X104635804Y-104022348D03*
X104635804Y-101482348D03*
%TD*%
D16*
%TO.C,D8*%
X95160804Y-115734534D03*
X95160804Y-114159534D03*
%TD*%
D48*
%TO.C,D2*%
X154643304Y-53096568D03*
X156518304Y-53096568D03*
%TD*%
D49*
%TO.C,U11*%
X132283304Y-52162034D03*
X132283304Y-51212034D03*
X132283304Y-50262034D03*
X130008304Y-50262034D03*
X130008304Y-52162034D03*
%TD*%
D50*
%TO.C,R6*%
X118613630Y-90913626D03*
X117892382Y-91634874D03*
%TD*%
D35*
%TO.C,SW2*%
X146660804Y-92847034D03*
X146660804Y-101847034D03*
D36*
X152910804Y-99847034D03*
X140410804Y-99847034D03*
X152910804Y-94847034D03*
X140410804Y-94847034D03*
%TD*%
D29*
%TO.C,C24*%
X178648304Y-85422514D03*
X177688304Y-85422514D03*
%TD*%
D17*
%TO.C,C11*%
X121519839Y-77853363D03*
X122198661Y-78532185D03*
%TD*%
D19*
%TO.C,R34*%
X91660804Y-112947034D03*
X91660804Y-111927034D03*
%TD*%
D47*
%TO.C,C6*%
X125225078Y-84387029D03*
X124546256Y-83708207D03*
%TD*%
D22*
%TO.C,C17*%
X138660804Y-56797034D03*
X138660804Y-58347034D03*
%TD*%
D51*
%TO.C,R21*%
X102015569Y-60092269D03*
X103306039Y-58801799D03*
%TD*%
D52*
%TO.C,R22*%
X113840362Y-74141310D03*
X112549892Y-72850840D03*
%TD*%
D48*
%TO.C,D4*%
X154580804Y-49096568D03*
X156455804Y-49096568D03*
%TD*%
D19*
%TO.C,R37*%
X96910804Y-112957034D03*
X96910804Y-111937034D03*
%TD*%
D53*
%TO.C,U4*%
X179960804Y-83422514D03*
D54*
X179960804Y-83822514D03*
X179960804Y-84222514D03*
X179960804Y-84622514D03*
D55*
X179960804Y-85022514D03*
D56*
X180548304Y-85610014D03*
D57*
X180948304Y-85610014D03*
X181348304Y-85610014D03*
X181748304Y-85610014D03*
D58*
X182148304Y-85610014D03*
D59*
X182735804Y-85022514D03*
D54*
X182735804Y-84622514D03*
X182735804Y-84222514D03*
X182735804Y-83822514D03*
D60*
X182735804Y-83422514D03*
D61*
X182148304Y-82835014D03*
D57*
X181748304Y-82835014D03*
X181348304Y-82835014D03*
X180948304Y-82835014D03*
D62*
X180548304Y-82835014D03*
%TD*%
D23*
%TO.C,R11*%
X143860804Y-57687034D03*
X143860804Y-58707034D03*
%TD*%
D63*
%TO.C,J3*%
X113725000Y-29437500D03*
X105725000Y-29437500D03*
D64*
X106525000Y-40437500D03*
X107625000Y-40437500D03*
X108725000Y-40437500D03*
X109825000Y-40437500D03*
X110925000Y-40437500D03*
X112025000Y-40437500D03*
X113125000Y-40437500D03*
X114225000Y-40437500D03*
X115325000Y-40437500D03*
D65*
X116525000Y-39437500D03*
D66*
X116525000Y-29837500D03*
X101025000Y-29837500D03*
D67*
X101925000Y-39437500D03*
%TD*%
D50*
%TO.C,R3*%
X123004763Y-86550777D03*
X122283515Y-87272025D03*
%TD*%
D46*
%TO.C,H4*%
X93782808Y-98447034D03*
%TD*%
D47*
%TO.C,C13*%
X121420844Y-79310003D03*
X120742022Y-78631181D03*
%TD*%
D43*
%TO.C,J1*%
X92973798Y-83760028D03*
X96120423Y-84078226D03*
D44*
X97322505Y-88108735D03*
X100080221Y-88038024D03*
D45*
X101317658Y-92103888D03*
%TD*%
D68*
%TO.C,R1*%
X119455088Y-90100452D03*
X120176336Y-89379204D03*
%TD*%
D16*
%TO.C,D10*%
X98660804Y-115734534D03*
X98660804Y-114159534D03*
%TD*%
D23*
%TO.C,R13*%
X177469108Y-83366464D03*
X177469108Y-84386464D03*
%TD*%
D17*
%TO.C,C3*%
X126138931Y-82115533D03*
X126817753Y-82794355D03*
%TD*%
D19*
%TO.C,R7*%
X93018304Y-35746568D03*
X93018304Y-34726568D03*
%TD*%
D69*
%TO.C,U1*%
X114903088Y-84689318D03*
X115362707Y-85148937D03*
X115822326Y-85608557D03*
X116281946Y-86068176D03*
X116741565Y-86527795D03*
X117201185Y-86987415D03*
X117660804Y-87447034D03*
X118120423Y-87906654D03*
X118580043Y-88366273D03*
X119039662Y-88825892D03*
X123087848Y-84777706D03*
X122628229Y-84318087D03*
X122168610Y-83858467D03*
X121708990Y-83398848D03*
X121249371Y-82939229D03*
X120789751Y-82479609D03*
X120330132Y-82019990D03*
X119870513Y-81560370D03*
X119410893Y-81100751D03*
X118951274Y-80641132D03*
%TD*%
D19*
%TO.C,R8*%
X96018304Y-35746568D03*
X96018304Y-34726568D03*
%TD*%
D42*
%TO.C,D3*%
X156518304Y-51096568D03*
X154643304Y-51096568D03*
%TD*%
D20*
%TO.C,J12*%
X160760804Y-61447034D03*
D21*
X163300804Y-61447034D03*
X165840804Y-61447034D03*
X168380804Y-61447034D03*
X170920804Y-61447034D03*
X173460804Y-61447034D03*
X176000804Y-61447034D03*
%TD*%
D46*
%TO.C,H5*%
X185160804Y-51447034D03*
%TD*%
D70*
%TO.C,IC4*%
X178016565Y-70447523D03*
X178516565Y-70447523D03*
X179016565Y-70447523D03*
X179516565Y-70447523D03*
D71*
X180266565Y-69697523D03*
X180266565Y-69197523D03*
X180266565Y-68697523D03*
X180266565Y-68197523D03*
D70*
X179516565Y-67447523D03*
X179016565Y-67447523D03*
X178516565Y-67447523D03*
X178016565Y-67447523D03*
D71*
X177266565Y-68197523D03*
X177266565Y-68697523D03*
X177266565Y-69197523D03*
X177266565Y-69697523D03*
D72*
X178766565Y-68947523D03*
%TD*%
D73*
%TO.C,J2*%
X91928304Y-31951568D03*
X97708304Y-31951568D03*
D74*
X98168304Y-33016568D03*
X97368304Y-33016568D03*
X96068304Y-33016568D03*
X95068304Y-33016568D03*
X94568304Y-33016568D03*
X93568304Y-33016568D03*
X92268304Y-33016568D03*
X91468304Y-33016568D03*
X91768304Y-33016568D03*
X92568304Y-33016568D03*
X93068304Y-33016568D03*
X94068304Y-33016568D03*
X95568304Y-33016568D03*
X96568304Y-33016568D03*
X97068304Y-33016568D03*
X97868304Y-33016568D03*
D75*
X99138304Y-28271568D03*
X90498304Y-28271568D03*
D76*
X99138304Y-32451568D03*
X90498304Y-32451568D03*
%TD*%
D35*
%TO.C,SW5*%
X146660804Y-115947034D03*
X146660804Y-106947034D03*
D36*
X152910804Y-113947034D03*
X140410804Y-113947034D03*
X152910804Y-108947034D03*
X140410804Y-108947034D03*
%TD*%
D47*
%TO.C,C10*%
X120713737Y-80017109D03*
X120034915Y-79338287D03*
%TD*%
D23*
%TO.C,R43*%
X175841565Y-67287523D03*
X175841565Y-68307523D03*
%TD*%
D19*
%TO.C,R36*%
X95160804Y-112957034D03*
X95160804Y-111937034D03*
%TD*%
D28*
%TO.C,R18*%
X156280804Y-99947034D03*
X155260804Y-99947034D03*
%TD*%
D43*
%TO.C,J11*%
X92973798Y-47760028D03*
X96120423Y-48078226D03*
D44*
X97322505Y-52108735D03*
X100080221Y-52038024D03*
D45*
X101317658Y-56103888D03*
%TD*%
D77*
%TO.C,R9*%
X146885804Y-49097034D03*
X145235804Y-49097034D03*
%TD*%
D50*
%TO.C,R5*%
X115890577Y-88368733D03*
X115169329Y-89089981D03*
%TD*%
D46*
%TO.C,H3*%
X108160804Y-63447034D03*
%TD*%
D22*
%TO.C,C22*%
X133860804Y-56797034D03*
X133860804Y-58347034D03*
%TD*%
D50*
%TO.C,R2*%
X121597620Y-87957919D03*
X120876372Y-88679167D03*
%TD*%
D19*
%TO.C,R14*%
X178269108Y-82386464D03*
X178269108Y-81366464D03*
%TD*%
D28*
%TO.C,R12*%
X180668304Y-86922514D03*
X179648304Y-86922514D03*
%TD*%
D78*
%TO.C,C19*%
X145285804Y-58397034D03*
X146835804Y-58397034D03*
%TD*%
D79*
%TO.C,C16*%
X140580804Y-48897034D03*
X141540804Y-48897034D03*
%TD*%
D41*
%TO.C,R17*%
X157650804Y-99947034D03*
X158670804Y-99947034D03*
%TD*%
D51*
%TO.C,R20*%
X104773285Y-57475973D03*
X106063755Y-56185503D03*
%TD*%
D79*
%TO.C,C30*%
X179461565Y-71607523D03*
X180421565Y-71607523D03*
%TD*%
D80*
%TO.C,SW1*%
X164823304Y-52822034D03*
X164823304Y-49072034D03*
X158823304Y-52822034D03*
X158823304Y-49072034D03*
%TD*%
D18*
%TO.C,C29*%
X131420804Y-53912034D03*
X129870804Y-53912034D03*
%TD*%
D81*
%TO.C,SW7*%
X179410804Y-99647034D03*
D13*
X179410804Y-104647034D03*
X164910804Y-99647034D03*
X164910804Y-104647034D03*
X164910804Y-102147034D03*
D82*
X172410804Y-96447034D03*
X172410804Y-107847034D03*
%TD*%
D17*
%TO.C,C7*%
X113600243Y-85772959D03*
X114279065Y-86451781D03*
%TD*%
D20*
%TO.C,U9*%
X121185804Y-53472034D03*
D21*
X118645804Y-53472034D03*
X116105804Y-53472034D03*
%TD*%
D19*
%TO.C,R39*%
X100410804Y-112957034D03*
X100410804Y-111937034D03*
%TD*%
D83*
%TO.C,R19*%
X101236184Y-78790537D03*
X102526654Y-80081007D03*
%TD*%
D84*
%TO.C,SW6*%
X115865309Y-62999888D03*
X113213658Y-65651539D03*
X120107950Y-67242529D03*
X117456299Y-69894180D03*
%TD*%
D85*
%TO.C,U7*%
X125315234Y-80605776D03*
X124643483Y-79934025D03*
X123971732Y-79262274D03*
X122363064Y-80870942D03*
X123706566Y-82214444D03*
%TD*%
D86*
X144448312Y-54434542D03*
X143198312Y-54684542D03*
X144698312Y-52684542D03*
X143198312Y-52684542D03*
X137443717Y-52179947D03*
X135948312Y-51684542D03*
X173198312Y-81184542D03*
X166948312Y-89934542D03*
X154198312Y-62184542D03*
X114669658Y-83232761D03*
X116083872Y-81677126D03*
X135650799Y-53972866D03*
X126660804Y-48447034D03*
X148660804Y-58447034D03*
X151960804Y-82247034D03*
X96830824Y-110358636D03*
X133760804Y-53347034D03*
X128460804Y-54747034D03*
X100009769Y-111035242D03*
X133660804Y-60447034D03*
X132591182Y-56516656D03*
X181760804Y-69147034D03*
X182660804Y-71747034D03*
X125660303Y-78740428D03*
X96410804Y-37197034D03*
X93330824Y-110325665D03*
X98482029Y-110586728D03*
X142660804Y-48046534D03*
X154760804Y-70747034D03*
X95080824Y-110718673D03*
X128328586Y-80880471D03*
X123697728Y-85829527D03*
X126455444Y-79536277D03*
X145560804Y-65447034D03*
X176660804Y-72747034D03*
X176567065Y-66188671D03*
X146760804Y-60747034D03*
X154960804Y-96147034D03*
X176060804Y-81847034D03*
X174060804Y-68847034D03*
X154760804Y-97946534D03*
X148460804Y-63747034D03*
X130760804Y-66847034D03*
X152153690Y-63239920D03*
X132460804Y-69947034D03*
X136460804Y-70847034D03*
X133060804Y-71847034D03*
X148660804Y-48747034D03*
X103500000Y-43000000D03*
X119260804Y-70447034D03*
X152460804Y-65147034D03*
X130460804Y-57347034D03*
X135760804Y-60047034D03*
X164660804Y-47447034D03*
X157660804Y-45447034D03*
X131760804Y-72547034D03*
X148160804Y-68347034D03*
X137250000Y-75000000D03*
X139500000Y-79500000D03*
X145661304Y-79247034D03*
X145660804Y-76347034D03*
X157460804Y-74847034D03*
X146060804Y-75047034D03*
X159560804Y-73947034D03*
X145060804Y-73947034D03*
X160560804Y-93847034D03*
X140860804Y-73747034D03*
X159560804Y-94847034D03*
X139160804Y-74747034D03*
X147360804Y-76247034D03*
X161560804Y-92847034D03*
X108260804Y-93947534D03*
X138460804Y-71347034D03*
X122960804Y-59847534D03*
X109460804Y-94647034D03*
X145260804Y-68547534D03*
X119960804Y-94747034D03*
X128960804Y-67647034D03*
X147960804Y-65747034D03*
X182060804Y-67847034D03*
X128760804Y-88347034D03*
X174860804Y-71147034D03*
X179760804Y-80047034D03*
X176260804Y-84347034D03*
X109750000Y-45000000D03*
X111160804Y-55947034D03*
X116660804Y-73847034D03*
X152560804Y-59347034D03*
X115260804Y-99447034D03*
X165660804Y-58047034D03*
M02*
