M48
; DRILL file {KiCad 8.0.8} date 2025-02-14T20:36:54+0100
; FORMAT={-:-/ absolute / inch / decimal}
; #@! TF.CreationDate,2025-02-14T20:36:54+01:00
; #@! TF.GenerationSoftware,Kicad,Pcbnew,8.0.8
; #@! TF.FileFunction,Plated,1,2,PTH
FMAT,2
INCH
; #@! TA.AperFunction,Plated,PTH,ViaDrill
T1C0.0157
; #@! TA.AperFunction,Plated,PTH,ViaDrill
T2C0.0197
; #@! TA.AperFunction,Plated,PTH,ComponentDrill
T3C0.0394
; #@! TA.AperFunction,Plated,PTH,ComponentDrill
T4C0.1661
%
G90
G05
T1
X-0.9627Y-3.5139
X-0.7816Y-3.5021
X-0.7461Y-3.0572
X-0.7225Y-2.884
X-0.7146Y-3.258
X-0.691Y-2.5454
X-0.6713Y-3.5296
X-0.565Y-3.5257
X-0.5099Y-2.6674
X-0.506Y-2.8013
X-0.4508Y-3.5178
X-0.3642Y-2.9548
X-0.3406Y-3.1123
X-0.3288Y-3.4942
X-0.2068Y-3.4745
X-0.1438Y-3.51
X-0.1319Y-2.8092
X-0.1123Y-2.943
X-0.0827Y-2.8584
X-0.0138Y-3.4785
X0.0492Y-3.4076
X0.1476Y-2.5415
X0.2814Y-2.5926
X0.3995Y-3.4055
X0.444Y-3.2693
X0.4586Y-3.1281
X0.4625Y-3.51
X0.4793Y-3.2868
X0.5334Y-3.5178
X0.5885Y-3.3131
X0.6117Y-3.3449
X0.6397Y-3.3761
X0.6633Y-2.9745
X0.6869Y-3.4352
X0.7657Y-2.7619
X0.8484Y-2.8131
X0.8759Y-2.9824
X0.8877Y-2.7816
X0.8877Y-3.2344
X0.915Y-2.9435
X0.9192Y-3.3682
X0.9212Y-3.2029
X0.9232Y-3.6163
X0.9409Y-3.1438
X0.9468Y-2.9155
X0.9507Y-3.0749
X0.9632Y-3.2776
X0.9665Y-2.8722
X0.9761Y-3.3879
X0.9803Y-3.1202
X1.0114Y-3.3272
X1.0126Y-3.2687
X1.0137Y-2.9863
X1.0216Y-2.88
X1.0484Y-3.2849
X1.057Y-2.6163
X1.3681Y-3.6202
X1.5035Y-3.5808
X1.5216Y-3.4293
X1.5334Y-3.6084
X1.5728Y-3.0021
X1.5728Y-3.4233
X1.5728Y-3.6241
X1.5807Y-2.573
X1.5846Y-3.1478
X1.6003Y-3.3682
X1.624Y-2.7304
X1.6279Y-3.317
X1.6299Y-2.6714
X1.6555Y-3.2773
X1.6555Y-3.6123
X1.683Y-3.2462
X1.683Y-3.569
X1.7106Y-2.9785
X1.7106Y-3.321
X1.7421Y-3.0139
X1.7421Y-3.3761
X1.809Y-3.1281
X1.8444Y-3.3682
T2
X-0.2205Y-2.5572
T3
X-1.1083Y-3.6202
X-1.0083Y-3.6202
X-0.9083Y-3.6202
X-0.8083Y-3.6202
X-0.7083Y-3.6202
X-0.6083Y-3.6202
X-0.5083Y-3.6202
X-0.4083Y-3.6202
X-0.3083Y-3.6202
X-0.2083Y-3.6202
X-0.1083Y-3.6202
X-0.0083Y-3.6202
X0.0917Y-3.6202
X0.1917Y-3.6202
X0.2917Y-3.6202
X0.3917Y-3.6202
X0.4917Y-3.6202
X0.5917Y-3.6202
X0.6917Y-3.6202
X0.7917Y-3.6202
X1.9334Y-2.521
X1.9334Y-2.621
X1.9334Y-2.721
X1.9334Y-2.821
X1.9334Y-2.921
X1.9334Y-3.021
X1.9334Y-3.121
X1.9334Y-3.221
T4
X0.4683Y-2.8625
M30
