%TF.GenerationSoftware,KiCad,Pcbnew,8.0.8*%
%TF.CreationDate,2025-02-14T20:36:54+01:00*%
%TF.ProjectId,clarinoid-devboard,636c6172-696e-46f6-9964-2d646576626f,rev?*%
%TF.SameCoordinates,Original*%
%TF.FileFunction,Copper,L1,Top*%
%TF.FilePolarity,Positive*%
%FSLAX46Y46*%
G04 Gerber Fmt 4.6, Leading zero omitted, Abs format (unit mm)*
G04 Created by KiCad (PCBNEW 8.0.8) date 2025-02-14 20:36:54*
%MOMM*%
%LPD*%
G01*
G04 APERTURE LIST*
G04 Aperture macros list*
%AMRoundRect*
0 Rectangle with rounded corners*
0 $1 Rounding radius*
0 $2 $3 $4 $5 $6 $7 $8 $9 X,Y pos of 4 corners*
0 Add a 4 corners polygon primitive as box body*
4,1,4,$2,$3,$4,$5,$6,$7,$8,$9,$2,$3,0*
0 Add four circle primitives for the rounded corners*
1,1,$1+$1,$2,$3*
1,1,$1+$1,$4,$5*
1,1,$1+$1,$6,$7*
1,1,$1+$1,$8,$9*
0 Add four rect primitives between the rounded corners*
20,1,$1+$1,$2,$3,$4,$5,0*
20,1,$1+$1,$4,$5,$6,$7,0*
20,1,$1+$1,$6,$7,$8,$9,0*
20,1,$1+$1,$8,$9,$2,$3,0*%
G04 Aperture macros list end*
%TA.AperFunction,SMDPad,CuDef*%
%ADD10RoundRect,0.225000X-0.225000X-0.375000X0.225000X-0.375000X0.225000X0.375000X-0.225000X0.375000X0*%
%TD*%
%TA.AperFunction,SMDPad,CuDef*%
%ADD11RoundRect,0.250000X-0.475000X0.250000X-0.475000X-0.250000X0.475000X-0.250000X0.475000X0.250000X0*%
%TD*%
%TA.AperFunction,SMDPad,CuDef*%
%ADD12R,1.000000X0.750000*%
%TD*%
%TA.AperFunction,ComponentPad*%
%ADD13C,6.200000*%
%TD*%
%TA.AperFunction,ComponentPad*%
%ADD14R,1.700000X1.700000*%
%TD*%
%TA.AperFunction,ComponentPad*%
%ADD15O,1.700000X1.700000*%
%TD*%
%TA.AperFunction,SMDPad,CuDef*%
%ADD16R,1.600000X0.700000*%
%TD*%
%TA.AperFunction,SMDPad,CuDef*%
%ADD17R,1.500000X1.200000*%
%TD*%
%TA.AperFunction,SMDPad,CuDef*%
%ADD18R,2.200000X1.200000*%
%TD*%
%TA.AperFunction,SMDPad,CuDef*%
%ADD19R,1.500000X1.600000*%
%TD*%
%TA.AperFunction,SMDPad,CuDef*%
%ADD20RoundRect,0.250000X0.312500X0.625000X-0.312500X0.625000X-0.312500X-0.625000X0.312500X-0.625000X0*%
%TD*%
%TA.AperFunction,SMDPad,CuDef*%
%ADD21RoundRect,0.250000X-0.312500X-0.625000X0.312500X-0.625000X0.312500X0.625000X-0.312500X0.625000X0*%
%TD*%
%TA.AperFunction,SMDPad,CuDef*%
%ADD22RoundRect,0.250000X-0.250000X-0.475000X0.250000X-0.475000X0.250000X0.475000X-0.250000X0.475000X0*%
%TD*%
%TA.AperFunction,SMDPad,CuDef*%
%ADD23R,1.550000X0.300000*%
%TD*%
%TA.AperFunction,SMDPad,CuDef*%
%ADD24R,2.750000X1.200000*%
%TD*%
%TA.AperFunction,SMDPad,CuDef*%
%ADD25RoundRect,0.150000X-0.512500X-0.150000X0.512500X-0.150000X0.512500X0.150000X-0.512500X0.150000X0*%
%TD*%
%TA.AperFunction,ViaPad*%
%ADD26C,0.800000*%
%TD*%
%TA.AperFunction,ViaPad*%
%ADD27C,1.200000*%
%TD*%
%TA.AperFunction,Conductor*%
%ADD28C,0.200000*%
%TD*%
%TA.AperFunction,Conductor*%
%ADD29C,0.300000*%
%TD*%
G04 APERTURE END LIST*
D10*
%TO.P,D12,1,K*%
%TO.N,Net-(D12-K)*%
X-4651487Y-68103000D03*
%TO.P,D12,2,A*%
%TO.N,/processor_mm/gnd*%
X-1351487Y-68103000D03*
%TD*%
D11*
%TO.P,C1,1*%
%TO.N,/processor_mm/5v input*%
X-13651487Y-64003000D03*
%TO.P,C1,2*%
%TO.N,/processor_mm/gnd*%
X-13651487Y-65903000D03*
%TD*%
%TO.P,C29,1*%
%TO.N,/processor_mm/+3.3v regulator output*%
X-2351487Y-64003000D03*
%TO.P,C29,2*%
%TO.N,/processor_mm/gnd*%
X-2351487Y-65903000D03*
%TD*%
%TO.P,C26,1*%
%TO.N,/processor_mm/5v input*%
X-9451487Y-64003000D03*
%TO.P,C26,2*%
%TO.N,/processor_mm/gnd*%
X-9451487Y-65903000D03*
%TD*%
D12*
%TO.P,SW6,1*%
%TO.N,Net-(U40-PROGRAM)*%
X-351487Y-71478000D03*
%TO.P,SW6,2*%
%TO.N,/processor_mm/gnd*%
X-351487Y-75228000D03*
%TO.P,SW6,3*%
%TO.N,N/C*%
X5648513Y-71478000D03*
%TO.P,SW6,4*%
X5648513Y-75228000D03*
%TD*%
D13*
%TO.P,H4,1,1*%
%TO.N,/processor_mm/gnd*%
X11895868Y-72708000D03*
%TD*%
D11*
%TO.P,C30,1*%
%TO.N,/processor_mm/+3.3v regulator output*%
X-101487Y-64003000D03*
%TO.P,C30,2*%
%TO.N,/processor_mm/gnd*%
X-101487Y-65903000D03*
%TD*%
D14*
%TO.P,J40,1,Pin_1*%
%TO.N,/processor_mm/gnd*%
X49108513Y-64032298D03*
D15*
%TO.P,J40,2,Pin_2*%
%TO.N,/processor_mm/usb data +*%
X49108513Y-66572298D03*
%TO.P,J40,3,Pin_3*%
%TO.N,/processor_mm/usb data -*%
X49108513Y-69112298D03*
%TO.P,J40,4,Pin_4*%
%TO.N,/processor_mm/5v input*%
X49108513Y-71652298D03*
%TO.P,J40,5,Pin_5*%
%TO.N,/processor_mm/GEN_LED1*%
X49108513Y-74192298D03*
%TO.P,J40,6,Pin_6*%
%TO.N,/processor_mm/GEN_LED2*%
X49108513Y-76732298D03*
%TO.P,J40,7,Pin_7*%
%TO.N,/processor_mm/GEN_LED3*%
X49108513Y-79272298D03*
%TO.P,J40,8,Pin_8*%
%TO.N,/processor_mm/GEN_LED4*%
X49108513Y-81812298D03*
%TD*%
D11*
%TO.P,C2,1*%
%TO.N,/processor_mm/5v input*%
X-11551487Y-64003000D03*
%TO.P,C2,2*%
%TO.N,/processor_mm/gnd*%
X-11551487Y-65903000D03*
%TD*%
D16*
%TO.P,J38,1,DAT2_-_NC*%
%TO.N,/processor_mm/SDIO_DAT2*%
X-15899238Y-81103000D03*
%TO.P,J38,2,SS_CS_CD/DAT3^2*%
%TO.N,/processor_mm/SDIO_CS*%
X-15899238Y-80003000D03*
%TO.P,J38,3,MOSI_CMD*%
%TO.N,/processor_mm/SDIO_MOSI*%
X-15899238Y-78903000D03*
%TO.P,J38,4,VDD_vin*%
%TO.N,/processor_mm/+3.3v regulator output*%
X-15899238Y-77803000D03*
%TO.P,J38,5,CLK*%
%TO.N,/processor_mm/SDIO_CLOCK*%
X-15899238Y-76703000D03*
%TO.P,J38,6,VSS_gnd*%
%TO.N,/processor_mm/gnd*%
X-15899238Y-75603000D03*
%TO.P,J38,7,MISO_DAT0*%
%TO.N,/processor_mm/SDIO_MISO*%
X-15899238Y-74503000D03*
%TO.P,J38,8,DAT1_NC*%
%TO.N,/processor_mm/sdio_dat1*%
X-15899238Y-73403000D03*
%TO.P,J38,CD,Card_detect*%
%TO.N,unconnected-(J38-Card_detect-PadCD)*%
X-15899238Y-72303000D03*
D17*
%TO.P,J38,MP1,SHIELD*%
%TO.N,/processor_mm/gnd*%
X-16899238Y-71103000D03*
D18*
%TO.P,J38,MP2,SHIELD*%
X-26499238Y-71103000D03*
%TO.P,J38,MP3,SHIELD*%
X-26499238Y-86603000D03*
D19*
%TO.P,J38,MP4,SHIELD*%
X-16899238Y-85703000D03*
%TD*%
D20*
%TO.P,R14,1*%
%TO.N,Net-(D12-K)*%
X-6638987Y-68103000D03*
%TO.P,R14,2*%
%TO.N,/processor_mm/5v input*%
X-9563987Y-68103000D03*
%TD*%
D21*
%TO.P,R15,1*%
%TO.N,/processor_mm/SDIO_CS*%
X-13113987Y-80653000D03*
%TO.P,R15,2*%
%TO.N,/processor_mm/+3.3v regulator output*%
X-10188987Y-80653000D03*
%TD*%
D22*
%TO.P,C28,1*%
%TO.N,/processor_mm/+3.3v regulator output*%
X-13201487Y-77953000D03*
%TO.P,C28,2*%
%TO.N,/processor_mm/gnd*%
X-11301487Y-77953000D03*
%TD*%
D11*
%TO.P,C31,1*%
%TO.N,/processor_mm/+3.3v regulator output*%
X2148513Y-64003000D03*
%TO.P,C31,2*%
%TO.N,/processor_mm/gnd*%
X2148513Y-65903000D03*
%TD*%
D23*
%TO.P,U40,1,GND*%
%TO.N,/processor_mm/gnd*%
X37170868Y-67458000D03*
%TO.P,U40,2,3.3v*%
%TO.N,/processor_mm/+3.3v regulator output*%
X29620868Y-67708000D03*
%TO.P,U40,3,D+*%
%TO.N,/processor_mm/usb data +*%
X37170868Y-67958000D03*
%TO.P,U40,4,28_3.3vEN_GPIO*%
%TO.N,unconnected-(U40-28_3.3vEN_GPIO-Pad4)*%
X29620868Y-68208000D03*
%TO.P,U40,5,D-*%
%TO.N,/processor_mm/usb data -*%
X37170868Y-68458000D03*
%TO.P,U40,6,ON_OFF*%
%TO.N,unconnected-(U40-ON_OFF-Pad6)*%
X29620868Y-68708000D03*
%TO.P,U40,7,GND*%
%TO.N,/processor_mm/gnd*%
X37170868Y-68958000D03*
%TO.P,U40,8,27_G11_A13*%
%TO.N,unconnected-(U40-27_G11_A13-Pad8)*%
X29620868Y-69208000D03*
%TO.P,U40,9,VUSB*%
%TO.N,/processor_mm/5v input*%
X37170868Y-69458000D03*
%TO.P,U40,10,4_D0*%
%TO.N,/processor_mm/GEN_LED3*%
X29620868Y-69708000D03*
%TO.P,U40,11,PROGRAM*%
%TO.N,Net-(U40-PROGRAM)*%
X37170868Y-69958000D03*
%TO.P,U40,12,18_SDA_A4*%
%TO.N,/processor_mm/I2C_SDA*%
X29620868Y-70208000D03*
%TO.P,U40,13*%
%TO.N,N/C*%
X37170868Y-70458000D03*
%TO.P,U40,14,19_SCL_A5*%
%TO.N,/processor_mm/I2C_SCL*%
X29620868Y-70708000D03*
%TO.P,U40,15*%
%TO.N,N/C*%
X37170868Y-70958000D03*
%TO.P,U40,16,29_I2C_INT*%
%TO.N,unconnected-(U40-29_I2C_INT-Pad16)*%
X29620868Y-71208000D03*
%TO.P,U40,17,1_TX1*%
%TO.N,/processor_mm/T01=MIDI OUT*%
X37170868Y-71458000D03*
%TO.P,U40,18,5_D1*%
%TO.N,/processor_mm/GEN_LED4*%
X29620868Y-71708000D03*
%TO.P,U40,19,0_RX1*%
%TO.N,/processor_mm/T00 MIDI IN*%
X37170868Y-71958000D03*
%TO.P,U40,20,16_RX2_A2*%
%TO.N,unconnected-(U40-16_RX2_A2-Pad20)*%
X29620868Y-72208000D03*
%TO.P,U40,21*%
%TO.N,N/C*%
X37170868Y-72458000D03*
%TO.P,U40,22,17_TX2_A3*%
%TO.N,unconnected-(U40-17_TX2_A3-Pad22)*%
X29620868Y-72708000D03*
%TO.P,U40,23*%
%TO.N,N/C*%
X37170868Y-72958000D03*
%TO.P,U40,32,3_PWM0*%
%TO.N,/processor_mm/GEN_LED2*%
X29620868Y-75208000D03*
%TO.P,U40,33,GND*%
%TO.N,/processor_mm/gnd*%
X37170868Y-75458000D03*
%TO.P,U40,34,14_A0*%
%TO.N,/processor_mm/WS2812_DATA*%
X29620868Y-75708000D03*
%TO.P,U40,35,D+*%
%TO.N,unconnected-(U40-D+-Pad35)*%
X37170868Y-75958000D03*
%TO.P,U40,36,GND*%
%TO.N,/processor_mm/gnd*%
X29620868Y-76208000D03*
%TO.P,U40,37,D-*%
%TO.N,unconnected-(U40-D--Pad37)*%
X37170868Y-76458000D03*
%TO.P,U40,38,15_A1*%
%TO.N,unconnected-(U40-15_A1-Pad38)*%
X29620868Y-76708000D03*
%TO.P,U40,39,GND*%
%TO.N,/processor_mm/gnd*%
X37170868Y-76958000D03*
%TO.P,U40,40,40_G0*%
%TO.N,/processor_mm/OLED_RES*%
X29620868Y-77208000D03*
%TO.P,U40,41,30_CAN_RX*%
%TO.N,unconnected-(U40-30_CAN_RX-Pad41)*%
X37170868Y-77458000D03*
%TO.P,U40,42,41_G1*%
%TO.N,/processor_mm/OLED_DC*%
X29620868Y-77708000D03*
%TO.P,U40,43,31_CAN_TX*%
%TO.N,unconnected-(U40-31_CAN_TX-Pad43)*%
X37170868Y-77958000D03*
%TO.P,U40,44,42_G2*%
%TO.N,unconnected-(U40-42_G2-Pad44)*%
X29620868Y-78208000D03*
%TO.P,U40,45,GND*%
%TO.N,/processor_mm/gnd*%
X37170868Y-78458000D03*
%TO.P,U40,46,43_G3*%
%TO.N,unconnected-(U40-43_G3-Pad46)*%
X29620868Y-78708000D03*
%TO.P,U40,47,2_PWM1*%
%TO.N,/processor_mm/GEN_LED1*%
X37170868Y-78958000D03*
%TO.P,U40,48,44_G4*%
%TO.N,unconnected-(U40-44_G4-Pad48)*%
X29620868Y-79208000D03*
%TO.P,U40,49,22_BATT_VIN_A8*%
%TO.N,unconnected-(U40-22_BATT_VIN_A8-Pad49)*%
X37170868Y-79458000D03*
%TO.P,U40,50,21_BCLK_A7*%
%TO.N,/processor_mm/I2S_BCK_MM*%
X29620868Y-79708000D03*
%TO.P,U40,51,25_SDA1_A11*%
%TO.N,unconnected-(U40-25_SDA1_A11-Pad51)*%
X37170868Y-79958000D03*
%TO.P,U40,52,20_LRCLK_A6*%
%TO.N,/processor_mm/I2S_LRCK_MM*%
X29620868Y-80208000D03*
%TO.P,U40,53,24_SCL1_A10*%
%TO.N,unconnected-(U40-24_SCL1_A10-Pad53)*%
X37170868Y-80458000D03*
%TO.P,U40,54,8_AUD_IN*%
%TO.N,unconnected-(U40-8_AUD_IN-Pad54)*%
X29620868Y-80708000D03*
%TO.P,U40,55,10_SPI_CS*%
%TO.N,/processor_mm/OLED_CS*%
X37170868Y-80958000D03*
%TO.P,U40,56,7_AUD_OUT*%
%TO.N,/processor_mm/I2S_DIN_MM*%
X29620868Y-81208000D03*
%TO.P,U40,57,13_SPI_SCK*%
%TO.N,/processor_mm/SPI0_SCK*%
X37170868Y-81458000D03*
%TO.P,U40,58,23_MCLK_A9*%
%TO.N,unconnected-(U40-23_MCLK_A9-Pad58)*%
X29620868Y-81708000D03*
%TO.P,U40,59,11_SPI_SDO*%
%TO.N,/processor_mm/SPI0_MOSI*%
X37170868Y-81958000D03*
%TO.P,U40,60,36_SDIO_CLK*%
%TO.N,/processor_mm/SDIO_CLOCK*%
X29620868Y-82208000D03*
%TO.P,U40,61,12_SPI_SDI*%
%TO.N,/processor_mm/SPI0_MISO*%
X37170868Y-82458000D03*
%TO.P,U40,62,37_SDIO_CMD*%
%TO.N,/processor_mm/SDIO_MOSI*%
X29620868Y-82708000D03*
%TO.P,U40,63,33_G10_ADCD+*%
%TO.N,unconnected-(U40-33_G10_ADCD+-Pad63)*%
X37170868Y-82958000D03*
%TO.P,U40,64,35_SDIO_DATA0*%
%TO.N,/processor_mm/SDIO_MISO*%
X29620868Y-83208000D03*
%TO.P,U40,65,32_G9_ADCD-*%
%TO.N,unconnected-(U40-32_G9_ADCD--Pad65)*%
X37170868Y-83458000D03*
%TO.P,U40,66,34_SDIO_DATA1*%
%TO.N,/processor_mm/sdio_dat1*%
X29620868Y-83708000D03*
%TO.P,U40,67,26_G8_A12*%
%TO.N,/processor_mm/ENC_B*%
X37170868Y-83958000D03*
%TO.P,U40,68,38_SDIO_DATA2*%
%TO.N,/processor_mm/SDIO_DAT2*%
X29620868Y-84208000D03*
%TO.P,U40,69,9_G7*%
%TO.N,/processor_mm/ENC_A*%
X37170868Y-84458000D03*
%TO.P,U40,70,39_SDIO_DATA3*%
%TO.N,/processor_mm/SDIO_CS*%
X29620868Y-84708000D03*
%TO.P,U40,71,6_G6*%
%TO.N,/processor_mm/ENC_SWITCH*%
X37170868Y-84958000D03*
%TO.P,U40,72,VBat*%
%TO.N,unconnected-(U40-VBat-Pad72)*%
X29620868Y-85208000D03*
%TO.P,U40,73,45_G5*%
%TO.N,unconnected-(U40-45_G5-Pad73)*%
X37170868Y-85458000D03*
%TO.P,U40,74*%
%TO.N,N/C*%
X29620868Y-85708000D03*
%TO.P,U40,75,GND*%
%TO.N,/processor_mm/gnd*%
X37170868Y-85958000D03*
D24*
%TO.P,U40,76*%
%TO.N,N/C*%
X36395868Y-66358000D03*
%TO.P,U40,77*%
X36395868Y-87058000D03*
%TD*%
D14*
%TO.P,J39,1,Pin_1*%
%TO.N,/processor_mm/gnd*%
X-28151487Y-91953000D03*
D15*
%TO.P,J39,2,Pin_2*%
%TO.N,/processor_mm/+3.3v regulator output*%
X-25611487Y-91953000D03*
%TO.P,J39,3,Pin_3*%
%TO.N,/processor_mm/5v input*%
X-23071487Y-91953000D03*
%TO.P,J39,4,Pin_4*%
%TO.N,/processor_mm/I2C_SCL*%
X-20531487Y-91953000D03*
%TO.P,J39,5,Pin_5*%
%TO.N,/processor_mm/I2C_SDA*%
X-17991487Y-91953000D03*
%TO.P,J39,6,Pin_6*%
%TO.N,/processor_mm/I2S_BCK_MM*%
X-15451487Y-91953000D03*
%TO.P,J39,7,Pin_7*%
%TO.N,/processor_mm/I2S_LRCK_MM*%
X-12911487Y-91953000D03*
%TO.P,J39,8,Pin_8*%
%TO.N,/processor_mm/I2S_DIN_MM*%
X-10371487Y-91953000D03*
%TO.P,J39,9,Pin_9*%
%TO.N,/processor_mm/T00 MIDI IN*%
X-7831487Y-91953000D03*
%TO.P,J39,10,Pin_10*%
%TO.N,/processor_mm/T01=MIDI OUT*%
X-5291487Y-91953000D03*
%TO.P,J39,11,Pin_11*%
%TO.N,/processor_mm/WS2812_DATA*%
X-2751487Y-91953000D03*
%TO.P,J39,12,Pin_12*%
%TO.N,/processor_mm/SPI0_SCK*%
X-211487Y-91953000D03*
%TO.P,J39,13,Pin_13*%
%TO.N,/processor_mm/SPI0_MOSI*%
X2328513Y-91953000D03*
%TO.P,J39,14,Pin_14*%
%TO.N,/processor_mm/SPI0_MISO*%
X4868513Y-91953000D03*
%TO.P,J39,15,Pin_15*%
%TO.N,/processor_mm/OLED_CS*%
X7408513Y-91953000D03*
%TO.P,J39,16,Pin_16*%
%TO.N,/processor_mm/OLED_RES*%
X9948513Y-91953000D03*
%TO.P,J39,17,Pin_17*%
%TO.N,/processor_mm/OLED_DC*%
X12488513Y-91953000D03*
%TO.P,J39,18,Pin_18*%
%TO.N,/processor_mm/ENC_SWITCH*%
X15028513Y-91953000D03*
%TO.P,J39,19,Pin_19*%
%TO.N,/processor_mm/ENC_A*%
X17568513Y-91953000D03*
%TO.P,J39,20,Pin_20*%
%TO.N,/processor_mm/ENC_B*%
X20108513Y-91953000D03*
%TD*%
D25*
%TO.P,U19,1,IN*%
%TO.N,/processor_mm/5v input*%
X-6788987Y-64003000D03*
%TO.P,U19,2,GND*%
%TO.N,/processor_mm/gnd*%
X-6788987Y-64953000D03*
%TO.P,U19,3,EN*%
%TO.N,Net-(D12-K)*%
X-6788987Y-65903000D03*
%TO.P,U19,4,NC*%
%TO.N,unconnected-(U19-NC-Pad4)*%
X-4513987Y-65903000D03*
%TO.P,U19,5,OUT*%
%TO.N,/processor_mm/+3.3v regulator output*%
X-4513987Y-64003000D03*
%TD*%
D26*
%TO.N,Net-(U40-PROGRAM)*%
X-2101487Y-72603000D03*
D27*
%TO.N,/processor_mm/gnd*%
X-5601487Y-64953000D03*
D26*
%TO.N,Net-(U40-PROGRAM)*%
X41248513Y-69353000D03*
%TO.N,/processor_mm/gnd*%
X-12951487Y-67753000D03*
X17448513Y-87253000D03*
X41398513Y-67853000D03*
X-3351487Y-71353000D03*
X-18351487Y-73253000D03*
X45948513Y-79453000D03*
X7148513Y-65853000D03*
X-351487Y-88353000D03*
X-2851487Y-74753000D03*
X38648513Y-87103000D03*
X26848513Y-66453000D03*
X40148513Y-65353000D03*
X46848513Y-85553000D03*
X23448513Y-91853000D03*
X16848513Y-75553000D03*
X-17551487Y-64653000D03*
X25748513Y-75853000D03*
X40248513Y-79953000D03*
X11648513Y-79453000D03*
X22548513Y-82153000D03*
X-17051487Y-89653000D03*
X-12851487Y-71153000D03*
X-24451487Y-89253000D03*
X39948513Y-76253000D03*
X-19851487Y-88953000D03*
X-14351487Y-89553000D03*
X-3651487Y-89153000D03*
X-18951487Y-77653000D03*
X3748513Y-64553000D03*
X-8351487Y-88753000D03*
X19448513Y-70153000D03*
X1248513Y-86553000D03*
X-18151487Y-82753000D03*
X-11451487Y-89353000D03*
X-9251487Y-75053000D03*
X34748513Y-91953000D03*
X-5251487Y-88253000D03*
X-8651487Y-79053000D03*
%TO.N,/processor_mm/SDIO_MOSI*%
X24792045Y-86053500D03*
X25720253Y-83024741D03*
%TO.N,/processor_mm/SDIO_CLOCK*%
X24466230Y-83251512D03*
X23348513Y-85553000D03*
%TO.N,/processor_mm/SDIO_MISO*%
X26630456Y-83437700D03*
X25690246Y-84511267D03*
%TO.N,/processor_mm/GEN_LED3*%
X22248513Y-75753000D03*
%TO.N,/processor_mm/I2C_SDA*%
X22548513Y-70653000D03*
X12173906Y-83484179D03*
%TO.N,/processor_mm/I2C_SCL*%
X11278448Y-83040152D03*
X21548513Y-71453000D03*
%TO.N,/processor_mm/T01=MIDI OUT*%
X44248513Y-85753000D03*
X44248513Y-76553000D03*
%TO.N,/processor_mm/GEN_LED4*%
X23398513Y-81353000D03*
%TO.N,/processor_mm/T00 MIDI IN*%
X43448513Y-84353000D03*
X43448513Y-75653000D03*
%TO.N,/processor_mm/GEN_LED2*%
X25948513Y-73153000D03*
%TO.N,/processor_mm/WS2812_DATA*%
X10148513Y-86498815D03*
X24548513Y-72953000D03*
%TO.N,/processor_mm/OLED_RES*%
X11748513Y-89153000D03*
X24048513Y-74053000D03*
%TO.N,/processor_mm/OLED_DC*%
X23239878Y-74765877D03*
X13548513Y-89353000D03*
%TO.N,/processor_mm/I2S_BCK_MM*%
X14948513Y-84153000D03*
X24148513Y-78103000D03*
%TO.N,/processor_mm/I2S_LRCK_MM*%
X15537049Y-84960855D03*
X24898513Y-79252511D03*
%TO.N,/processor_mm/I2S_DIN_MM*%
X23898513Y-79853499D03*
X16248513Y-85753000D03*
%TO.N,/processor_mm/SPI0_MOSI*%
X42748513Y-90653000D03*
X42748513Y-82453000D03*
%TO.N,/processor_mm/SPI0_MISO*%
X42048513Y-91753000D03*
X42048513Y-83243979D03*
%TO.N,/processor_mm/ENC_B*%
X41348513Y-84253000D03*
X39948513Y-92053000D03*
%TO.N,/processor_mm/ENC_A*%
X38948513Y-91653000D03*
X40648513Y-85553000D03*
%TO.N,/processor_mm/ENC_SWITCH*%
X39948513Y-86953000D03*
X38190146Y-90953500D03*
%TD*%
D28*
%TO.N,Net-(U40-PROGRAM)*%
X-976487Y-71478000D02*
X-351487Y-71478000D01*
X-2101487Y-72603000D02*
X-976487Y-71478000D01*
D29*
%TO.N,/processor_mm/+3.3v regulator output*%
X-17698260Y-69853000D02*
X3398513Y-69853000D01*
X3398513Y-69853000D02*
X5148513Y-68103000D01*
X-19751487Y-71906227D02*
X-17698260Y-69853000D01*
X-19751487Y-75050751D02*
X-19751487Y-71906227D01*
X5148513Y-68103000D02*
X5148513Y-63803000D01*
X-16999238Y-77803000D02*
X-19751487Y-75050751D01*
X5148513Y-63803000D02*
X21598513Y-63803000D01*
X2348513Y-63803000D02*
X5148513Y-63803000D01*
X21598513Y-63803000D02*
X25503513Y-67708000D01*
X25503513Y-67708000D02*
X29620868Y-67708000D01*
X2148513Y-64003000D02*
X2348513Y-63803000D01*
X-101487Y-64003000D02*
X2148513Y-64003000D01*
X-101487Y-64003000D02*
X-2351487Y-64003000D01*
X-4513987Y-64003000D02*
X-2351487Y-64003000D01*
%TO.N,/processor_mm/5v input*%
X50227811Y-62832298D02*
X50398513Y-63003000D01*
X50398513Y-70362298D02*
X49108513Y-71652298D01*
X-6601986Y-63103499D02*
X29398513Y-63103499D01*
X29669714Y-62832298D02*
X50227811Y-62832298D01*
X50398513Y-63003000D02*
X50398513Y-70362298D01*
X-6788987Y-63290500D02*
X-6601986Y-63103499D01*
X-6788987Y-64003000D02*
X-6788987Y-63290500D01*
X29398513Y-63103499D02*
X29669714Y-62832298D01*
D28*
%TO.N,Net-(D12-K)*%
X-6788987Y-67953000D02*
X-6638987Y-68103000D01*
X-6788987Y-65903000D02*
X-6788987Y-67953000D01*
X-4713987Y-68103000D02*
X-4463987Y-67853000D01*
X-6638987Y-68103000D02*
X-4713987Y-68103000D01*
D29*
%TO.N,/processor_mm/5v input*%
X-7838507Y-66377520D02*
X-9563987Y-68103000D01*
X-7801007Y-66377520D02*
X-7838507Y-66377520D01*
D28*
%TO.N,Net-(U40-PROGRAM)*%
X38470868Y-69958000D02*
X39115868Y-70603000D01*
X37170868Y-69958000D02*
X38470868Y-69958000D01*
X39115868Y-70603000D02*
X39998513Y-70603000D01*
X39998513Y-70603000D02*
X41248513Y-69353000D01*
D29*
%TO.N,/processor_mm/5v input*%
X-7801007Y-64596093D02*
X-7207914Y-64003000D01*
X46059714Y-68603499D02*
X49108513Y-71652298D01*
X37171357Y-69457511D02*
X37944002Y-69457511D01*
X-23071487Y-91953000D02*
X-23071487Y-73423000D01*
X40044002Y-69457511D02*
X40898014Y-68603499D01*
X-9451487Y-64003000D02*
X-6788987Y-64003000D01*
X-23071487Y-73423000D02*
X-13651487Y-64003000D01*
X40898014Y-68603499D02*
X46059714Y-68603499D01*
X-11551487Y-64003000D02*
X-9451487Y-64003000D01*
X-13651487Y-64003000D02*
X-11551487Y-64003000D01*
X-7801007Y-66377520D02*
X-7801007Y-64596093D01*
X37944002Y-69457511D02*
X40044002Y-69457511D01*
D28*
%TO.N,/processor_mm/gnd*%
X29620868Y-76208000D02*
X26103513Y-76208000D01*
X38859199Y-68958000D02*
X37445868Y-68958000D01*
X-11551487Y-65903000D02*
X-9451487Y-65903000D01*
X38194890Y-78458000D02*
X37170868Y-78458000D01*
X38070868Y-85958000D02*
X38648513Y-86535645D01*
X39964199Y-67853000D02*
X38859199Y-68958000D01*
X38245379Y-78407511D02*
X38194890Y-78458000D01*
X37170868Y-67458000D02*
X38043513Y-67458000D01*
X41398513Y-67853000D02*
X39964199Y-67853000D01*
X-13651487Y-65903000D02*
X-11551487Y-65903000D01*
X38194890Y-76958000D02*
X38245379Y-77008489D01*
X-11301487Y-77953000D02*
X-9751487Y-77953000D01*
X39153513Y-75458000D02*
X39948513Y-76253000D01*
X38245379Y-77008489D02*
X38245379Y-78407511D01*
X38043513Y-67458000D02*
X40148513Y-65353000D01*
X37170868Y-76958000D02*
X38194890Y-76958000D01*
X38648513Y-86535645D02*
X38648513Y-87103000D01*
X26103513Y-76208000D02*
X25748513Y-75853000D01*
X-9751487Y-77953000D02*
X-8651487Y-79053000D01*
X37445868Y-85958000D02*
X38070868Y-85958000D01*
X39243513Y-76958000D02*
X39948513Y-76253000D01*
X37170868Y-75458000D02*
X39153513Y-75458000D01*
X37170868Y-76958000D02*
X39243513Y-76958000D01*
D29*
%TO.N,/processor_mm/+3.3v regulator output*%
X-21730998Y-92308877D02*
X-21730998Y-82534760D01*
X-22574632Y-93152511D02*
X-21730998Y-92308877D01*
X-15899238Y-77803000D02*
X-13351487Y-77803000D01*
X-25611487Y-91953000D02*
X-24411976Y-93152511D01*
X-21730998Y-82534760D02*
X-16999238Y-77803000D01*
X-16999238Y-77803000D02*
X-15899238Y-77803000D01*
X-12888987Y-77953000D02*
X-10188987Y-80653000D01*
X-24411976Y-93152511D02*
X-22574632Y-93152511D01*
D28*
%TO.N,/processor_mm/SDIO_DAT2*%
X-10668619Y-82453000D02*
X-14099238Y-82453000D01*
X26051846Y-86753000D02*
X19402751Y-86753000D01*
X148023Y-82252510D02*
X148023Y-82214123D01*
X1348023Y-82252510D02*
X1348023Y-82214123D01*
X-14099238Y-82453000D02*
X-15449238Y-81103000D01*
X-5851977Y-82252510D02*
X-5851977Y-82214123D01*
X-10569107Y-82552511D02*
X-7951977Y-82552510D01*
X-1051977Y-82252510D02*
X-1051977Y-82214123D01*
X14502753Y-81853001D02*
X3798512Y-81853001D01*
X3099003Y-82552510D02*
X2848023Y-82552510D01*
X-451977Y-82214123D02*
X-451977Y-82252510D01*
X3798512Y-81853001D02*
X3099003Y-82552510D01*
X-1651977Y-82214123D02*
X-1651977Y-82252510D01*
X1948023Y-82214123D02*
X1948023Y-82252510D01*
X19402751Y-86753000D02*
X14502753Y-81853001D01*
X-2251977Y-82252510D02*
X-2251977Y-82214123D01*
X-2851977Y-82214123D02*
X-2851977Y-82252510D01*
X-7651977Y-82164123D02*
X-7651977Y-82252510D01*
X29620868Y-84208000D02*
X28596846Y-84208000D01*
X-7051977Y-82252510D02*
X-7051977Y-82164123D01*
X-10569107Y-82552511D02*
X-10668619Y-82453000D01*
X-4651977Y-82252510D02*
X-4651977Y-82214123D01*
X-3451977Y-82252510D02*
X-3451977Y-82214123D01*
X-6451977Y-82214123D02*
X-6451977Y-82252510D01*
X-4051977Y-82214123D02*
X-4051977Y-82252510D01*
X28596846Y-84208000D02*
X26051846Y-86753000D01*
X2548023Y-82252510D02*
X2548023Y-82214123D01*
X-5251977Y-82214123D02*
X-5251977Y-82252510D01*
X748023Y-82214123D02*
X748023Y-82252510D01*
X-1951977Y-82552510D02*
G75*
G02*
X-2252048Y-82252510I-27J300044D01*
G01*
X-1351977Y-81914123D02*
G75*
G03*
X-1652047Y-82214123I-27J-300043D01*
G01*
X-5551977Y-82552510D02*
G75*
G02*
X-5852048Y-82252510I-27J300044D01*
G01*
X-451977Y-82252510D02*
G75*
G02*
X-751977Y-82552493I-300027J44D01*
G01*
X-4351977Y-82552510D02*
G75*
G02*
X-4652048Y-82252510I-27J300044D01*
G01*
X-5851977Y-82214123D02*
G75*
G03*
X-6151977Y-81914139I-300027J-43D01*
G01*
X-751977Y-82552510D02*
G75*
G02*
X-1052048Y-82252510I-27J300044D01*
G01*
X-7651977Y-82252510D02*
G75*
G02*
X-7951977Y-82552493I-300027J44D01*
G01*
X-4651977Y-82214123D02*
G75*
G03*
X-4951977Y-81914139I-300027J-43D01*
G01*
X-5251977Y-82252510D02*
G75*
G02*
X-5551977Y-82552493I-300027J44D01*
G01*
X-2251977Y-82214123D02*
G75*
G03*
X-2551977Y-81914139I-300027J-43D01*
G01*
X1648023Y-82552510D02*
G75*
G02*
X1347952Y-82252510I-27J300044D01*
G01*
X-3751977Y-81914123D02*
G75*
G03*
X-4052047Y-82214123I-27J-300043D01*
G01*
X-7051977Y-82164123D02*
G75*
G03*
X-7351977Y-81864139I-300027J-43D01*
G01*
X-4951977Y-81914123D02*
G75*
G03*
X-5252047Y-82214123I-27J-300043D01*
G01*
X448023Y-82552510D02*
G75*
G02*
X147952Y-82252510I-27J300044D01*
G01*
X2248023Y-81914123D02*
G75*
G03*
X1947953Y-82214123I-27J-300043D01*
G01*
X-6151977Y-81914123D02*
G75*
G03*
X-6452047Y-82214123I-27J-300043D01*
G01*
X-1051977Y-82214123D02*
G75*
G03*
X-1351977Y-81914139I-300027J-43D01*
G01*
X148023Y-82214123D02*
G75*
G03*
X-151977Y-81914139I-300027J-43D01*
G01*
X-6451977Y-82252510D02*
G75*
G02*
X-6751977Y-82552493I-300027J44D01*
G01*
X2548023Y-82214123D02*
G75*
G03*
X2248023Y-81914139I-300027J-43D01*
G01*
X-4051977Y-82252510D02*
G75*
G02*
X-4351977Y-82552493I-300027J44D01*
G01*
X-6751977Y-82552510D02*
G75*
G02*
X-7052048Y-82252510I-27J300044D01*
G01*
X-3451977Y-82214123D02*
G75*
G03*
X-3751977Y-81914139I-300027J-43D01*
G01*
X-151977Y-81914123D02*
G75*
G03*
X-452047Y-82214123I-27J-300043D01*
G01*
X-2851977Y-82252510D02*
G75*
G02*
X-3151977Y-82552493I-300027J44D01*
G01*
X-3151977Y-82552510D02*
G75*
G02*
X-3452048Y-82252510I-27J300044D01*
G01*
X1348023Y-82214123D02*
G75*
G03*
X1048023Y-81914139I-300027J-43D01*
G01*
X748023Y-82252510D02*
G75*
G02*
X448023Y-82552493I-300027J44D01*
G01*
X2848023Y-82552510D02*
G75*
G02*
X2547952Y-82252510I-27J300044D01*
G01*
X-1651977Y-82252510D02*
G75*
G02*
X-1951977Y-82552493I-300027J44D01*
G01*
X-7351977Y-81864123D02*
G75*
G03*
X-7652047Y-82164123I-27J-300043D01*
G01*
X1948023Y-82252510D02*
G75*
G02*
X1648023Y-82552493I-300027J44D01*
G01*
X-2551977Y-81914123D02*
G75*
G03*
X-2852047Y-82214123I-27J-300043D01*
G01*
X1048023Y-81914123D02*
G75*
G03*
X747953Y-82214123I-27J-300043D01*
G01*
%TO.N,/processor_mm/SDIO_CS*%
X9141213Y-82252512D02*
X9149001Y-82252512D01*
X19337758Y-87253000D02*
X26116840Y-87253000D01*
X5845107Y-82548618D02*
X5845107Y-82548619D01*
X8245107Y-82548618D02*
X8245107Y-82548619D01*
X-15899238Y-80003000D02*
X-16899238Y-80003000D01*
X6141213Y-82844725D02*
X6149001Y-82844725D01*
X9149001Y-82252512D02*
X14337270Y-82252512D01*
X-15898260Y-82853000D02*
X-10833612Y-82853000D01*
X-10734589Y-82952022D02*
X3264485Y-82952022D01*
X6741213Y-82252512D02*
X6749001Y-82252512D01*
X4645107Y-82548618D02*
X4645107Y-82548619D01*
X7341213Y-82844725D02*
X7349001Y-82844725D01*
X28661840Y-84708000D02*
X29620868Y-84708000D01*
X14337270Y-82252512D02*
X19337758Y-87253000D01*
X-15899238Y-80003000D02*
X-13763987Y-80003000D01*
X-16899238Y-80003000D02*
X-16998749Y-80102511D01*
X3963995Y-82252512D02*
X4349001Y-82252512D01*
X-13763987Y-80003000D02*
X-13113987Y-80653000D01*
X-10833612Y-82853000D02*
X-10734589Y-82952022D01*
X8845107Y-82548619D02*
X8845107Y-82548618D01*
X7941213Y-82252512D02*
X7949001Y-82252512D01*
X-16998749Y-81752511D02*
X-15898260Y-82853000D01*
X7645107Y-82548619D02*
X7645107Y-82548618D01*
X8541213Y-82844725D02*
X8549001Y-82844725D01*
X5541213Y-82252512D02*
X5549001Y-82252512D01*
X6445107Y-82548619D02*
X6445107Y-82548618D01*
X5245107Y-82548619D02*
X5245107Y-82548618D01*
X7045107Y-82548618D02*
X7045107Y-82548619D01*
X3264485Y-82952022D02*
X3963995Y-82252512D01*
X4941213Y-82844725D02*
X4949001Y-82844725D01*
X-16998749Y-80102511D02*
X-16998749Y-81752511D01*
X26116840Y-87253000D02*
X28661840Y-84708000D01*
X7349001Y-82844725D02*
G75*
G03*
X7645055Y-82548619I-5J296059D01*
G01*
X6149001Y-82844725D02*
G75*
G03*
X6445055Y-82548619I-5J296059D01*
G01*
X4349001Y-82252512D02*
G75*
G02*
X4645150Y-82548618I-5J-296154D01*
G01*
X7645107Y-82548618D02*
G75*
G02*
X7941213Y-82252577I296089J-48D01*
G01*
X6749001Y-82252512D02*
G75*
G02*
X7045150Y-82548618I-5J-296154D01*
G01*
X4949001Y-82844725D02*
G75*
G03*
X5245055Y-82548619I-5J296059D01*
G01*
X7045107Y-82548619D02*
G75*
G03*
X7341213Y-82844755I296089J-47D01*
G01*
X8845107Y-82548618D02*
G75*
G02*
X9141213Y-82252577I296089J-48D01*
G01*
X6445107Y-82548618D02*
G75*
G02*
X6741213Y-82252577I296089J-48D01*
G01*
X5549001Y-82252512D02*
G75*
G02*
X5845150Y-82548618I-5J-296154D01*
G01*
X7949001Y-82252512D02*
G75*
G02*
X8245150Y-82548618I-5J-296154D01*
G01*
X5845107Y-82548619D02*
G75*
G03*
X6141213Y-82844755I296089J-47D01*
G01*
X5245107Y-82548618D02*
G75*
G02*
X5541213Y-82252577I296089J-48D01*
G01*
X4645107Y-82548619D02*
G75*
G03*
X4941213Y-82844755I296089J-47D01*
G01*
X8245107Y-82548619D02*
G75*
G03*
X8541213Y-82844755I296089J-47D01*
G01*
X8549001Y-82844725D02*
G75*
G03*
X8845055Y-82548619I-5J296059D01*
G01*
%TO.N,/processor_mm/SDIO_MOSI*%
X-15899238Y-78903000D02*
X-14899238Y-78903000D01*
X-10403625Y-82153000D02*
X-9151487Y-82153000D01*
X-7151976Y-81153489D02*
X-7151976Y-81124425D01*
X15613995Y-81453489D02*
X20448077Y-86287571D01*
X26036994Y-82708000D02*
X25720253Y-83024741D01*
X-14323758Y-79478480D02*
X-12573869Y-79478480D01*
X29620868Y-82708000D02*
X26036994Y-82708000D01*
X-9151487Y-82153000D02*
X-8451976Y-81453489D01*
X-12251967Y-79800382D02*
X-12251967Y-80304658D01*
X20448077Y-86287571D02*
X24557974Y-86287571D01*
X-14899238Y-78903000D02*
X-14323758Y-79478480D01*
X-12251967Y-80304658D02*
X-10403625Y-82153000D01*
X-6551976Y-81124425D02*
X-6551976Y-81153489D01*
X24557974Y-86287571D02*
X24792045Y-86053500D01*
X-8451976Y-81453489D02*
X-7451976Y-81453489D01*
X-12573869Y-79478480D02*
X-12251967Y-79800382D01*
X-6251976Y-81453489D02*
X15613995Y-81453489D01*
X-7151976Y-81124425D02*
G75*
G02*
X-6851976Y-80824494I299972J-41D01*
G01*
X-6551976Y-81153489D02*
G75*
G03*
X-6251976Y-81453438I299972J23D01*
G01*
X-7451976Y-81453489D02*
G75*
G03*
X-7151981Y-81153489I-28J300023D01*
G01*
X-6851976Y-80824425D02*
G75*
G02*
X-6551963Y-81124425I-28J-300041D01*
G01*
%TO.N,/processor_mm/SDIO_CLOCK*%
X-4151487Y-77753000D02*
X-4151487Y-77821811D01*
X12178499Y-77453000D02*
X19479477Y-84753978D01*
X-2951487Y-77753000D02*
X-2951487Y-77821811D01*
X-2351487Y-77821811D02*
X-2351487Y-77753000D01*
X-10299349Y-77453000D02*
X-4451487Y-77453000D01*
X-11049349Y-76703000D02*
X-10299349Y-77453000D01*
X25509742Y-82208000D02*
X24466230Y-83251512D01*
X22549491Y-84753978D02*
X23348513Y-85553000D01*
X19479477Y-84753978D02*
X22549491Y-84753978D01*
X29620868Y-82208000D02*
X25509742Y-82208000D01*
X-2051487Y-77453000D02*
X12178499Y-77453000D01*
X-15899238Y-76703000D02*
X-11049349Y-76703000D01*
X-3551487Y-77821811D02*
X-3551487Y-77753000D01*
X-2951487Y-77821811D02*
G75*
G03*
X-2651487Y-78121749I299983J45D01*
G01*
X-3251487Y-77453000D02*
G75*
G02*
X-2951538Y-77753000I-17J-299966D01*
G01*
X-2651487Y-78121811D02*
G75*
G03*
X-2351459Y-77821811I-17J300045D01*
G01*
X-4451487Y-77453000D02*
G75*
G02*
X-4151538Y-77753000I-17J-299966D01*
G01*
X-3851487Y-78121811D02*
G75*
G03*
X-3551459Y-77821811I-17J300045D01*
G01*
X-2351487Y-77753000D02*
G75*
G02*
X-2051487Y-77452983I299983J34D01*
G01*
X-4151487Y-77821811D02*
G75*
G03*
X-3851487Y-78121749I299983J45D01*
G01*
X-3551487Y-77753000D02*
G75*
G02*
X-3251487Y-77452983I299983J34D01*
G01*
%TO.N,/processor_mm/SDIO_MISO*%
X-10133866Y-77053489D02*
X-12684355Y-74503000D01*
X25690246Y-84511267D02*
X25533446Y-84354467D01*
X-4251978Y-76753504D02*
X-4251978Y-76439349D01*
X-6351976Y-77053489D02*
X-10133866Y-77053489D01*
X-5151976Y-77053489D02*
X-5151978Y-77053489D01*
X-6051978Y-76439349D02*
X-6051977Y-76753488D01*
X29620868Y-83208000D02*
X26860156Y-83208000D01*
X-5451978Y-76753489D02*
X-5451978Y-76439349D01*
X-4152482Y-76853000D02*
X-4251978Y-76753504D01*
X19644960Y-84354467D02*
X12143493Y-76853000D01*
X-4851978Y-76439349D02*
X-4851977Y-76753488D01*
X25533446Y-84354467D02*
X19644960Y-84354467D01*
X-12684355Y-74503000D02*
X-15899238Y-74503000D01*
X26860156Y-83208000D02*
X26630456Y-83437700D01*
X12143493Y-76853000D02*
X-4152482Y-76853000D01*
X-4851977Y-76753488D02*
G75*
G02*
X-5151976Y-77053493I-300027J22D01*
G01*
X-4551978Y-76139349D02*
G75*
G03*
X-4852021Y-76439349I-26J-300017D01*
G01*
X-4251978Y-76439349D02*
G75*
G03*
X-4551978Y-76139340I-300026J-17D01*
G01*
X-5451978Y-76439349D02*
G75*
G03*
X-5751978Y-76139340I-300026J-17D01*
G01*
X-6051977Y-76753488D02*
G75*
G02*
X-6351976Y-77053493I-300027J22D01*
G01*
X-5151978Y-77053489D02*
G75*
G02*
X-5452027Y-76753489I-26J300023D01*
G01*
X-5751978Y-76139349D02*
G75*
G03*
X-6052021Y-76439349I-26J-300017D01*
G01*
%TO.N,/processor_mm/sdio_dat1*%
X-12901487Y-73750390D02*
X-12901487Y-72755610D01*
X-11070999Y-73240316D02*
X-11015369Y-73316872D01*
X-12271002Y-74187709D02*
X-12215373Y-74264268D01*
X-12331750Y-72618162D02*
X-12302491Y-72708250D01*
X-12601487Y-72455610D02*
X-12554127Y-72456573D01*
X-10848804Y-73401732D02*
X-10801487Y-73403000D01*
X-13502482Y-73655639D02*
X-13501487Y-73703000D01*
X-11701487Y-72755610D02*
X-11700531Y-72708243D01*
X-12931954Y-73887720D02*
X-12902702Y-73797711D01*
X-13501487Y-73703000D02*
X-13501487Y-73750390D01*
X-15899238Y-73403000D02*
X-13755121Y-73403000D01*
X-11448854Y-72456532D02*
X-11401487Y-72455610D01*
X-13755121Y-73403000D02*
X-13502482Y-73655639D01*
X-12902702Y-73797711D02*
X-12901487Y-73750390D01*
X-11731954Y-74187720D02*
X-11702702Y-74097711D01*
X-13500252Y-73797708D02*
X-13471002Y-73887709D01*
X-13201487Y-74050390D02*
X-13154166Y-74049158D01*
X-11954166Y-74349158D02*
X-11864155Y-74319913D01*
X-12001487Y-74350390D02*
X-11954166Y-74349158D01*
X-12554127Y-72456573D02*
X-12464044Y-72485847D01*
X-12215373Y-74264268D02*
X-12138809Y-74319890D01*
X-11401487Y-72455610D02*
X-11354127Y-72456573D01*
X-13248805Y-74049132D02*
X-13201487Y-74050390D01*
X-10938806Y-73372492D02*
X-10848804Y-73401732D01*
X-11101487Y-73103000D02*
X-11100251Y-73150317D01*
X-11615590Y-72541496D02*
X-11538951Y-72485808D01*
X26340712Y-84137201D02*
X26920200Y-84137201D01*
X-11102491Y-72708250D02*
X-11101487Y-72755610D01*
X-12464044Y-72485847D02*
X-12387418Y-72541527D01*
X-11264044Y-72485847D02*
X-11187418Y-72541527D01*
X-12987586Y-73964285D02*
X-12931954Y-73887720D01*
X-11787586Y-74264285D02*
X-11731954Y-74187720D01*
X-11864155Y-74319913D02*
X-11787586Y-74264285D01*
X-12871267Y-72618142D02*
X-12815590Y-72541496D01*
X-12900531Y-72708243D02*
X-12871267Y-72618142D01*
X-12387418Y-72541527D02*
X-12331750Y-72618162D01*
X-12301487Y-74050390D02*
X-12300252Y-74097708D01*
X-11101487Y-72755610D02*
X-11101487Y-73103000D01*
X-11187418Y-72541527D02*
X-11131750Y-72618162D01*
X19806498Y-83951012D02*
X24755974Y-83951012D01*
X-12302491Y-72708250D02*
X-12301487Y-72755610D01*
X-11131750Y-72618162D02*
X-11102491Y-72708250D01*
X24954485Y-83752501D02*
X25956012Y-83752501D01*
X-13064155Y-74019913D02*
X-12987586Y-73964285D01*
X-11100251Y-73150317D02*
X-11070999Y-73240316D01*
X-12048805Y-74349132D02*
X-12001487Y-74350390D01*
X-10801487Y-73403000D02*
X7758487Y-73403000D01*
X-13154166Y-74049158D02*
X-13064155Y-74019913D01*
X7758487Y-73403000D02*
X10808976Y-76453489D01*
X-11354127Y-72456573D02*
X-11264044Y-72485847D01*
X-12138809Y-74319890D02*
X-12048805Y-74349132D01*
X27349401Y-83708000D02*
X29620868Y-83708000D01*
X-12301487Y-72755610D02*
X-12301487Y-74050390D01*
X24755974Y-83951012D02*
X24954485Y-83752501D01*
X-12815590Y-72541496D02*
X-12738951Y-72485808D01*
X-12648854Y-72456532D02*
X-12601487Y-72455610D01*
X26920200Y-84137201D02*
X27349401Y-83708000D01*
X25956012Y-83752501D02*
X26340712Y-84137201D01*
X-13471002Y-73887709D02*
X-13415373Y-73964268D01*
X-11700531Y-72708243D02*
X-11671267Y-72618142D01*
X-13415373Y-73964268D02*
X-13338809Y-74019890D01*
X-11701487Y-74050390D02*
X-11701487Y-72755610D01*
X-12738951Y-72485808D02*
X-12648854Y-72456532D01*
X-11671267Y-72618142D02*
X-11615590Y-72541496D01*
X-11015369Y-73316872D02*
X-10938806Y-73372492D01*
X-12300252Y-74097708D02*
X-12271002Y-74187709D01*
X10808976Y-76453489D02*
X12308977Y-76453490D01*
X-13501487Y-73750390D02*
X-13500252Y-73797708D01*
X-12901487Y-72755610D02*
X-12900531Y-72708243D01*
X12308977Y-76453490D02*
X19806498Y-83951012D01*
X-11702702Y-74097711D02*
X-11701487Y-74050390D01*
X-13338809Y-74019890D02*
X-13248805Y-74049132D01*
X-11538951Y-72485808D02*
X-11448854Y-72456532D01*
%TO.N,/processor_mm/usb data +*%
X39929215Y-66572298D02*
X42929215Y-66572298D01*
X37170868Y-67958000D02*
X38543513Y-67958000D01*
X43430937Y-67074020D02*
X43529215Y-67074020D01*
X38543513Y-67958000D02*
X39929215Y-66572298D01*
X44030937Y-66572298D02*
X49108513Y-66572298D01*
X43180076Y-66823159D02*
G75*
G03*
X43430937Y-67073986I250820J-7D01*
G01*
X42929215Y-66572298D02*
G75*
G02*
X43180064Y-66823159I-19J-250868D01*
G01*
X43529215Y-67074020D02*
G75*
G03*
X43780050Y-66823159I-19J250854D01*
G01*
X43780076Y-66823159D02*
G75*
G02*
X44030937Y-66572346I250820J-7D01*
G01*
%TO.N,/processor_mm/usb data -*%
X38793513Y-68458000D02*
X40148513Y-67103000D01*
X44076755Y-68153988D02*
X48150203Y-68153988D01*
X37170868Y-68458000D02*
X38793513Y-68458000D01*
X48150203Y-68153988D02*
X49108513Y-69112298D01*
X40148513Y-67103000D02*
X41898513Y-67103000D01*
X43476755Y-67626734D02*
X43549501Y-67626734D01*
X41898513Y-67103000D02*
X42949501Y-68153988D01*
X43213128Y-67890361D02*
G75*
G02*
X43476755Y-67626698I263668J-5D01*
G01*
X42949501Y-68153988D02*
G75*
G03*
X43213118Y-67890361I-5J263622D01*
G01*
X43813128Y-67890361D02*
G75*
G03*
X44076755Y-68154034I263668J-5D01*
G01*
X43549501Y-67626734D02*
G75*
G02*
X43813128Y-67890361I-5J-263632D01*
G01*
%TO.N,/processor_mm/GEN_LED3*%
X20848513Y-70653000D02*
X20848513Y-74353000D01*
X20848513Y-74353000D02*
X22248513Y-75753000D01*
X29620868Y-69708000D02*
X21793513Y-69708000D01*
X21793513Y-69708000D02*
X20848513Y-70653000D01*
%TO.N,/processor_mm/I2C_SDA*%
X-9840238Y-83801751D02*
X11856334Y-83801751D01*
X22993513Y-70208000D02*
X22548513Y-70653000D01*
X11856334Y-83801751D02*
X12173906Y-83484179D01*
X29620868Y-70208000D02*
X22993513Y-70208000D01*
X-17991487Y-91953000D02*
X-9840238Y-83801751D01*
%TO.N,/processor_mm/I2C_SCL*%
X-20531487Y-91953000D02*
X-11930018Y-83351531D01*
X29620868Y-70708000D02*
X23482758Y-70708000D01*
X-11930018Y-83351531D02*
X10967069Y-83351531D01*
X23482758Y-70708000D02*
X22737758Y-71453000D01*
X22737758Y-71453000D02*
X21548513Y-71453000D01*
X10967069Y-83351531D02*
X11278448Y-83040152D01*
%TO.N,/processor_mm/T01=MIDI OUT*%
X41644491Y-88357022D02*
X44248513Y-85753000D01*
X13244051Y-85799314D02*
X15801759Y-88357022D01*
X-5291487Y-91953000D02*
X862199Y-85799314D01*
X37170868Y-71458000D02*
X42553513Y-71458000D01*
X44248513Y-73153000D02*
X44248513Y-76553000D01*
X15801759Y-88357022D02*
X41644491Y-88357022D01*
X862199Y-85799314D02*
X13244051Y-85799314D01*
X42553513Y-71458000D02*
X44248513Y-73153000D01*
%TO.N,/processor_mm/GEN_LED4*%
X22538257Y-75053499D02*
X22538257Y-73974011D01*
X22538257Y-73974011D02*
X24804268Y-71708000D01*
X24804268Y-71708000D02*
X29620868Y-71708000D01*
X23148513Y-81103000D02*
X23148513Y-75663755D01*
X23148513Y-75663755D02*
X22538257Y-75053499D01*
X23398513Y-81353000D02*
X23148513Y-81103000D01*
%TO.N,/processor_mm/T00 MIDI IN*%
X13409526Y-85399803D02*
X15967234Y-87957511D01*
X-7831487Y-91953000D02*
X-1278290Y-85399803D01*
X43448513Y-84853000D02*
X43448513Y-84353000D01*
X42453513Y-71958000D02*
X43448513Y-72953000D01*
X-1278290Y-85399803D02*
X13409526Y-85399803D01*
X43448513Y-72953000D02*
X43448513Y-75653000D01*
X37170868Y-71958000D02*
X42453513Y-71958000D01*
X40344002Y-87957511D02*
X43448513Y-84853000D01*
X15967234Y-87957511D02*
X40344002Y-87957511D01*
%TO.N,/processor_mm/GEN_LED2*%
X28003513Y-75208000D02*
X25948513Y-73153000D01*
X29620868Y-75208000D02*
X28003513Y-75208000D01*
%TO.N,/processor_mm/WS2812_DATA*%
X29620868Y-75708000D02*
X27303513Y-75708000D01*
X2702698Y-86498815D02*
X10148513Y-86498815D01*
X-2751487Y-91953000D02*
X2702698Y-86498815D01*
X27303513Y-75708000D02*
X24548513Y-72953000D01*
%TO.N,/processor_mm/OLED_RES*%
X24048513Y-75853000D02*
X24048513Y-74053000D01*
X9948513Y-91953000D02*
X11748513Y-90153000D01*
X29620868Y-77208000D02*
X25403513Y-77208000D01*
X25403513Y-77208000D02*
X24048513Y-75853000D01*
X11748513Y-90153000D02*
X11748513Y-89153000D01*
%TO.N,/processor_mm/OLED_DC*%
X13548513Y-90893000D02*
X13548513Y-89353000D01*
X12488513Y-91953000D02*
X13548513Y-90893000D01*
X25338520Y-77708000D02*
X23649002Y-76018482D01*
X23649002Y-76018482D02*
X23649002Y-75175001D01*
X23649002Y-75175001D02*
X23239878Y-74765877D01*
X29620868Y-77708000D02*
X25338520Y-77708000D01*
%TO.N,/processor_mm/GEN_LED1*%
X44342811Y-78958000D02*
X49108513Y-74192298D01*
X37170868Y-78958000D02*
X44342811Y-78958000D01*
%TO.N,/processor_mm/I2S_BCK_MM*%
X24148513Y-78103000D02*
X24738952Y-78103000D01*
X24738952Y-78103000D02*
X26343952Y-79708000D01*
X-7699764Y-84201277D02*
X14900236Y-84201277D01*
X26343952Y-79708000D02*
X29620868Y-79708000D01*
X14900236Y-84201277D02*
X14948513Y-84153000D01*
X-15451487Y-91953000D02*
X-7699764Y-84201277D01*
%TO.N,/processor_mm/I2S_LRCK_MM*%
X-5559275Y-84600788D02*
X14307056Y-84600788D01*
X14667123Y-84960855D02*
X15537049Y-84960855D01*
X25854002Y-80208000D02*
X29620868Y-80208000D01*
X14307056Y-84600788D02*
X14667123Y-84960855D01*
X24898513Y-79252511D02*
X25854002Y-80208000D01*
X-12911487Y-91953000D02*
X-5559275Y-84600788D01*
%TO.N,/processor_mm/OLED_CS*%
X41437758Y-92553000D02*
X42448513Y-92553000D01*
X8578513Y-90358736D02*
X8568882Y-90349105D01*
X45848513Y-89153000D02*
X45848513Y-83553000D01*
X10275575Y-89085941D02*
X10555368Y-88806145D01*
X10037715Y-90120876D02*
X10037715Y-90120877D01*
X15189226Y-90004468D02*
X38889226Y-90004468D01*
X45848513Y-83553000D02*
X43253513Y-80958000D01*
X9664902Y-88899532D02*
X9851311Y-89085941D01*
X7408513Y-91953000D02*
X8578513Y-90783000D01*
X10908014Y-88453499D02*
X13638257Y-88453499D01*
X8993148Y-89924841D02*
X8993148Y-89924840D01*
X43253513Y-80958000D02*
X37170868Y-80958000D01*
X13638257Y-88453499D02*
X15189226Y-90004468D01*
X10037715Y-90120877D02*
X9240636Y-89323797D01*
X38889226Y-90004468D02*
X41437758Y-92553000D01*
X9664902Y-88899533D02*
X9664902Y-88899532D01*
X8993148Y-89924840D02*
X9613451Y-90545142D01*
X10555368Y-88806145D02*
X10908014Y-88453499D01*
X42448513Y-92553000D02*
X45848513Y-89153000D01*
X10037715Y-90545142D02*
G75*
G03*
X10037758Y-90120833I-212119J212176D01*
G01*
X8578513Y-90783000D02*
G75*
G03*
X8578515Y-90358734I-212117J212134D01*
G01*
X9240636Y-88899533D02*
G75*
G02*
X9664902Y-88899533I212133J-212131D01*
G01*
X9851311Y-89085941D02*
G75*
G03*
X10275575Y-89085941I212132J212132D01*
G01*
X8568882Y-89924841D02*
G75*
G02*
X8993148Y-89924841I212133J-212131D01*
G01*
X8568882Y-90349105D02*
G75*
G02*
X8568875Y-89924834I212114J212139D01*
G01*
X9613451Y-90545142D02*
G75*
G03*
X10037715Y-90545142I212132J212132D01*
G01*
X9240636Y-89323797D02*
G75*
G02*
X9240637Y-88899534I212160J212131D01*
G01*
%TO.N,/processor_mm/I2S_DIN_MM*%
X-3418786Y-85000299D02*
X13575038Y-85000299D01*
X23898513Y-79853499D02*
X25253014Y-81208000D01*
X-10371487Y-91953000D02*
X-3418786Y-85000299D01*
X14327739Y-85753000D02*
X16248513Y-85753000D01*
X25253014Y-81208000D02*
X29620868Y-81208000D01*
X13575038Y-85000299D02*
X14327739Y-85753000D01*
%TO.N,/processor_mm/SPI0_SCK*%
X1140453Y-90973000D02*
X1378746Y-90734706D01*
X-211487Y-91953000D02*
X768513Y-90973000D01*
X1140454Y-90972999D02*
X1140453Y-90973000D01*
X1898449Y-89843064D02*
X4486543Y-87254970D01*
X43153513Y-81458000D02*
X37170868Y-81458000D01*
X44644980Y-88756533D02*
X45448513Y-87953000D01*
X1378745Y-90362764D02*
X1378746Y-90362764D01*
X4486543Y-87254970D02*
X14134703Y-87254970D01*
X14134703Y-87254970D02*
X15636266Y-88756533D01*
X1378746Y-90548736D02*
X1378746Y-90548735D01*
X15636266Y-88756533D02*
X44644980Y-88756533D01*
X1378746Y-90362764D02*
X1898449Y-89843064D01*
X45448513Y-83753000D02*
X43153513Y-81458000D01*
X45448513Y-87953000D02*
X45448513Y-83753000D01*
X1378746Y-90548735D02*
G75*
G02*
X1378762Y-90362781I92950J92969D01*
G01*
X954483Y-90973000D02*
G75*
G03*
X1140482Y-90973027I93013J93034D01*
G01*
X1378746Y-90734706D02*
G75*
G03*
X1378701Y-90548781I-92950J92940D01*
G01*
X768513Y-90973000D02*
G75*
G02*
X954483Y-90973000I92985J-92984D01*
G01*
%TO.N,/processor_mm/SPI0_MOSI*%
X15470786Y-89156044D02*
X41251557Y-89156044D01*
X42253513Y-81958000D02*
X42748513Y-82453000D01*
X3679995Y-89611688D02*
X3679995Y-89611687D01*
X2328513Y-91953000D02*
X3538513Y-90743000D01*
X4387044Y-89894472D02*
X4387043Y-89894471D01*
X13969221Y-87654479D02*
X15470786Y-89156044D01*
X3679995Y-89611687D02*
X3962780Y-89894472D01*
X37170868Y-81958000D02*
X42253513Y-81958000D01*
X4387043Y-89894471D02*
X6627034Y-87654479D01*
X3538513Y-90318736D02*
X3255729Y-90035952D01*
X41251557Y-89156044D02*
X42748513Y-90653000D01*
X6627034Y-87654479D02*
X13969221Y-87654479D01*
X3255729Y-89611688D02*
G75*
G02*
X3679995Y-89611688I212133J-212131D01*
G01*
X3962780Y-89894472D02*
G75*
G03*
X4387044Y-89894472I212132J212132D01*
G01*
X3255729Y-90035952D02*
G75*
G02*
X3255775Y-89611734I212167J212086D01*
G01*
X3538513Y-90743000D02*
G75*
G03*
X3538515Y-90318734I-212117J212134D01*
G01*
%TO.N,/processor_mm/SPI0_MISO*%
X7928649Y-89663280D02*
X7928649Y-89663281D01*
X15305306Y-89555555D02*
X39851068Y-89555555D01*
X8179840Y-88641676D02*
X8473646Y-88347867D01*
X8473646Y-88347867D02*
X8767524Y-88053989D01*
X6867985Y-90338735D02*
X6675379Y-90146129D01*
X6733967Y-89317129D02*
X7504385Y-90087546D01*
X6828931Y-90763000D02*
X6867985Y-90723945D01*
X39851068Y-89555555D02*
X42048513Y-91753000D01*
X8767524Y-88053989D02*
X13803740Y-88053989D01*
X7582498Y-88468598D02*
X7755576Y-88641676D01*
X4868513Y-91953000D02*
X6058513Y-90763000D01*
X6443721Y-90763000D02*
X6443722Y-90763000D01*
X41262534Y-82458000D02*
X42048513Y-83243979D01*
X6694910Y-90126603D02*
X6309701Y-89741394D01*
X13803740Y-88053989D02*
X15305306Y-89555555D01*
X7582498Y-88468599D02*
X7582498Y-88468598D01*
X6733967Y-89317130D02*
X6733967Y-89317129D01*
X6867986Y-90338736D02*
X6867985Y-90338735D01*
X37170868Y-82458000D02*
X41262534Y-82458000D01*
X7928649Y-89663281D02*
X7158232Y-88892863D01*
X6675379Y-90146129D02*
X6694910Y-90126603D01*
X6828931Y-90763001D02*
X6828931Y-90763000D01*
X6443722Y-90763000D02*
G75*
G03*
X6828900Y-90762970I192574J192634D01*
G01*
X7928649Y-90087546D02*
G75*
G03*
X7928696Y-89663233I-212153J212180D01*
G01*
X6309701Y-89741394D02*
G75*
G02*
X6309705Y-89317134I212095J212128D01*
G01*
X6309701Y-89317130D02*
G75*
G02*
X6733967Y-89317130I212133J-212131D01*
G01*
X6867985Y-90723945D02*
G75*
G03*
X6867960Y-90338762I-192589J192579D01*
G01*
X7504385Y-90087546D02*
G75*
G03*
X7928649Y-90087546I212132J212132D01*
G01*
X7158232Y-88892863D02*
G75*
G02*
X7158267Y-88468634I212164J212097D01*
G01*
X7158232Y-88468599D02*
G75*
G02*
X7582498Y-88468599I212133J-212131D01*
G01*
X6058513Y-90763000D02*
G75*
G02*
X6443721Y-90763000I192604J-192605D01*
G01*
X7755576Y-88641676D02*
G75*
G03*
X8179840Y-88641676I212132J212132D01*
G01*
%TO.N,/processor_mm/ENC_B*%
X41053513Y-83958000D02*
X41348513Y-84253000D01*
X38848513Y-93153000D02*
X39948513Y-92053000D01*
X21308513Y-93153000D02*
X38848513Y-93153000D01*
X37170868Y-83958000D02*
X41053513Y-83958000D01*
X20108513Y-91953000D02*
X21308513Y-93153000D01*
%TO.N,/processor_mm/ENC_A*%
X17568513Y-91953000D02*
X18718024Y-90803489D01*
X39553513Y-84458000D02*
X40648513Y-85553000D01*
X18718024Y-90803489D02*
X35399002Y-90803489D01*
X35399002Y-90803489D02*
X36248513Y-91653000D01*
X37170868Y-84458000D02*
X39553513Y-84458000D01*
X36248513Y-91653000D02*
X38948513Y-91653000D01*
%TO.N,/processor_mm/ENC_SWITCH*%
X37640625Y-90403979D02*
X38190146Y-90953500D01*
X38194890Y-84958000D02*
X39948513Y-86711623D01*
X39948513Y-86711623D02*
X39948513Y-86953000D01*
X37170868Y-84958000D02*
X38194890Y-84958000D01*
X15028513Y-91953000D02*
X16577534Y-90403979D01*
X16577534Y-90403979D02*
X37640625Y-90403979D01*
%TD*%
%TA.AperFunction,Conductor*%
%TO.N,/processor_mm/gnd*%
G36*
X50150071Y-61853038D02*
G01*
X50235951Y-61855187D01*
X50257374Y-61857568D01*
X50426177Y-61891146D01*
X50427318Y-61891373D01*
X50450954Y-61898543D01*
X50609570Y-61964244D01*
X50631346Y-61975883D01*
X50774110Y-62071271D01*
X50793189Y-62086929D01*
X50914430Y-62208163D01*
X50914594Y-62208327D01*
X50930264Y-62227420D01*
X50976814Y-62297083D01*
X50998031Y-62364836D01*
X50979250Y-62433303D01*
X50926434Y-62480748D01*
X50856352Y-62492106D01*
X50791254Y-62463772D01*
X50782956Y-62456183D01*
X50647584Y-62320811D01*
X50647580Y-62320807D01*
X50539728Y-62248743D01*
X50419891Y-62199105D01*
X50419888Y-62199104D01*
X50292671Y-62173798D01*
X50292668Y-62173798D01*
X29604857Y-62173798D01*
X29604853Y-62173798D01*
X29477636Y-62199104D01*
X29477633Y-62199105D01*
X29357796Y-62248743D01*
X29249946Y-62320806D01*
X29249940Y-62320811D01*
X29162658Y-62408094D01*
X29100346Y-62442120D01*
X29073563Y-62444999D01*
X-6666847Y-62444999D01*
X-6794064Y-62470305D01*
X-6794067Y-62470306D01*
X-6913903Y-62519944D01*
X-7008618Y-62583231D01*
X-7021755Y-62592008D01*
X-7021756Y-62592009D01*
X-7300477Y-62870729D01*
X-7345521Y-62938143D01*
X-7345522Y-62938142D01*
X-7372540Y-62978578D01*
X-7372542Y-62978582D01*
X-7422180Y-63098419D01*
X-7422183Y-63098428D01*
X-7429189Y-63133649D01*
X-7462097Y-63196558D01*
X-7517613Y-63230062D01*
X-7565093Y-63243856D01*
X-7705600Y-63326953D01*
X-7769739Y-63344500D01*
X-8266948Y-63344500D01*
X-8335069Y-63324498D01*
X-8374189Y-63284647D01*
X-8377458Y-63279347D01*
X-8377463Y-63279341D01*
X-8502829Y-63153975D01*
X-8502835Y-63153970D01*
X-8653749Y-63060885D01*
X-8737905Y-63032999D01*
X-8822060Y-63005113D01*
X-8822067Y-63005112D01*
X-8925934Y-62994500D01*
X-9977032Y-62994500D01*
X-10080913Y-63005112D01*
X-10249226Y-63060885D01*
X-10400140Y-63153970D01*
X-10400146Y-63153975D01*
X-10412392Y-63166222D01*
X-10474704Y-63200248D01*
X-10545519Y-63195183D01*
X-10590582Y-63166222D01*
X-10602829Y-63153975D01*
X-10602835Y-63153970D01*
X-10753749Y-63060885D01*
X-10837905Y-63032999D01*
X-10922060Y-63005113D01*
X-10922067Y-63005112D01*
X-11025934Y-62994500D01*
X-12077032Y-62994500D01*
X-12180913Y-63005112D01*
X-12349226Y-63060885D01*
X-12500140Y-63153970D01*
X-12500146Y-63153975D01*
X-12512392Y-63166222D01*
X-12574704Y-63200248D01*
X-12645519Y-63195183D01*
X-12690582Y-63166222D01*
X-12702829Y-63153975D01*
X-12702835Y-63153970D01*
X-12853749Y-63060885D01*
X-12937905Y-63032999D01*
X-13022060Y-63005113D01*
X-13022067Y-63005112D01*
X-13125934Y-62994500D01*
X-14177032Y-62994500D01*
X-14280913Y-63005112D01*
X-14449226Y-63060885D01*
X-14600140Y-63153970D01*
X-14600146Y-63153975D01*
X-14725512Y-63279341D01*
X-14725517Y-63279347D01*
X-14818602Y-63430262D01*
X-14874374Y-63598572D01*
X-14874375Y-63598579D01*
X-14884987Y-63702446D01*
X-14884987Y-64253048D01*
X-14904989Y-64321169D01*
X-14921892Y-64342143D01*
X-23582976Y-73003228D01*
X-23582981Y-73003235D01*
X-23640475Y-73089279D01*
X-23640474Y-73089280D01*
X-23650444Y-73104202D01*
X-23655042Y-73111083D01*
X-23665322Y-73135901D01*
X-23704680Y-73230919D01*
X-23704681Y-73230922D01*
X-23729987Y-73358139D01*
X-23729987Y-90689608D01*
X-23749989Y-90757729D01*
X-23796017Y-90800421D01*
X-23817057Y-90811807D01*
X-23817063Y-90811811D01*
X-23994725Y-90950091D01*
X-24147208Y-91115729D01*
X-24236004Y-91251643D01*
X-24290008Y-91297731D01*
X-24360356Y-91307306D01*
X-24424713Y-91277329D01*
X-24446970Y-91251643D01*
X-24535767Y-91115729D01*
X-24688250Y-90950091D01*
X-24807808Y-90857035D01*
X-24865911Y-90811811D01*
X-25063913Y-90704658D01*
X-25063915Y-90704657D01*
X-25063916Y-90704656D01*
X-25276848Y-90631557D01*
X-25276857Y-90631555D01*
X-25321011Y-90624187D01*
X-25498918Y-90594500D01*
X-25724056Y-90594500D01*
X-25872276Y-90619233D01*
X-25946118Y-90631555D01*
X-25946127Y-90631557D01*
X-26159059Y-90704656D01*
X-26159061Y-90704658D01*
X-26357055Y-90811807D01*
X-26357061Y-90811810D01*
X-26357063Y-90811811D01*
X-26534728Y-90950094D01*
X-26596113Y-91016775D01*
X-26656966Y-91053346D01*
X-26727930Y-91051211D01*
X-26786475Y-91011049D01*
X-26806869Y-90975470D01*
X-26851044Y-90857033D01*
X-26938583Y-90740095D01*
X-27055522Y-90652555D01*
X-27192394Y-90601505D01*
X-27252890Y-90595000D01*
X-27897487Y-90595000D01*
X-27897487Y-91522297D01*
X-27958494Y-91487075D01*
X-28085661Y-91453000D01*
X-28217313Y-91453000D01*
X-28344480Y-91487075D01*
X-28405487Y-91522297D01*
X-28405487Y-90595000D01*
X-29050085Y-90595000D01*
X-29110581Y-90601505D01*
X-29247452Y-90652555D01*
X-29247453Y-90652555D01*
X-29364392Y-90740095D01*
X-29451932Y-90857034D01*
X-29451932Y-90857035D01*
X-29502982Y-90993906D01*
X-29509487Y-91054402D01*
X-29509487Y-91699000D01*
X-28582190Y-91699000D01*
X-28617412Y-91760007D01*
X-28651487Y-91887174D01*
X-28651487Y-92018826D01*
X-28617412Y-92145993D01*
X-28582190Y-92207000D01*
X-29509487Y-92207000D01*
X-29509487Y-92851597D01*
X-29502982Y-92912093D01*
X-29451932Y-93048964D01*
X-29451932Y-93048965D01*
X-29364392Y-93165904D01*
X-29247453Y-93253444D01*
X-29110581Y-93304494D01*
X-29050085Y-93310999D01*
X-29050072Y-93311000D01*
X-28405487Y-93311000D01*
X-28405487Y-92383702D01*
X-28344480Y-92418925D01*
X-28217313Y-92453000D01*
X-28085661Y-92453000D01*
X-27958494Y-92418925D01*
X-27897487Y-92383702D01*
X-27897487Y-93311000D01*
X-27252902Y-93311000D01*
X-27252890Y-93310999D01*
X-27192394Y-93304494D01*
X-27055523Y-93253444D01*
X-27055522Y-93253444D01*
X-26938583Y-93165904D01*
X-26851043Y-93048965D01*
X-26806869Y-92930530D01*
X-26764322Y-92873694D01*
X-26697802Y-92848883D01*
X-26628428Y-92863974D01*
X-26596115Y-92889222D01*
X-26558087Y-92930530D01*
X-26534725Y-92955908D01*
X-26523840Y-92964380D01*
X-26357063Y-93094189D01*
X-26159061Y-93201342D01*
X-26159060Y-93201342D01*
X-26159059Y-93201343D01*
X-26047260Y-93239723D01*
X-25946122Y-93274444D01*
X-25724056Y-93311500D01*
X-25724052Y-93311500D01*
X-25498923Y-93311500D01*
X-25498918Y-93311500D01*
X-25293216Y-93277174D01*
X-25222736Y-93285691D01*
X-25183386Y-93312361D01*
X-24857842Y-93637905D01*
X-24823816Y-93700217D01*
X-24828881Y-93771032D01*
X-24871428Y-93827868D01*
X-24937948Y-93852679D01*
X-24946937Y-93853000D01*
X-29850098Y-93853000D01*
X-29852917Y-93852968D01*
X-29855069Y-93852919D01*
X-29938775Y-93851046D01*
X-29960535Y-93848657D01*
X-30130355Y-93814879D01*
X-30153993Y-93807709D01*
X-30312654Y-93741989D01*
X-30334439Y-93730344D01*
X-30462928Y-93644488D01*
X-30477219Y-93634939D01*
X-30496312Y-93619269D01*
X-30617741Y-93497833D01*
X-30633408Y-93478742D01*
X-30728812Y-93335949D01*
X-30740451Y-93314172D01*
X-30741558Y-93311500D01*
X-30806162Y-93155510D01*
X-30813331Y-93131872D01*
X-30813331Y-93131871D01*
X-30847110Y-92962009D01*
X-30849494Y-92940330D01*
X-30851454Y-92854444D01*
X-30851487Y-92851570D01*
X-30851487Y-87251597D01*
X-28107238Y-87251597D01*
X-28100733Y-87312093D01*
X-28049683Y-87448964D01*
X-28049683Y-87448965D01*
X-27962143Y-87565904D01*
X-27845204Y-87653444D01*
X-27708332Y-87704494D01*
X-27647836Y-87710999D01*
X-27647823Y-87711000D01*
X-26753238Y-87711000D01*
X-26245238Y-87711000D01*
X-25350653Y-87711000D01*
X-25350641Y-87710999D01*
X-25290145Y-87704494D01*
X-25153274Y-87653444D01*
X-25153273Y-87653444D01*
X-25036334Y-87565904D01*
X-24948794Y-87448965D01*
X-24948794Y-87448964D01*
X-24897744Y-87312093D01*
X-24891239Y-87251597D01*
X-24891238Y-87251585D01*
X-24891238Y-86857000D01*
X-26245238Y-86857000D01*
X-26245238Y-87711000D01*
X-26753238Y-87711000D01*
X-26753238Y-86857000D01*
X-28107238Y-86857000D01*
X-28107238Y-87251597D01*
X-30851487Y-87251597D01*
X-30851487Y-85954402D01*
X-28107238Y-85954402D01*
X-28107238Y-86349000D01*
X-26753238Y-86349000D01*
X-26245238Y-86349000D01*
X-24891238Y-86349000D01*
X-24891238Y-85954414D01*
X-24891239Y-85954402D01*
X-24897744Y-85893906D01*
X-24948794Y-85757035D01*
X-24948794Y-85757034D01*
X-25036334Y-85640095D01*
X-25153273Y-85552555D01*
X-25290145Y-85501505D01*
X-25350641Y-85495000D01*
X-26245238Y-85495000D01*
X-26245238Y-86349000D01*
X-26753238Y-86349000D01*
X-26753238Y-85495000D01*
X-27647836Y-85495000D01*
X-27708332Y-85501505D01*
X-27845203Y-85552555D01*
X-27845204Y-85552555D01*
X-27962143Y-85640095D01*
X-28049683Y-85757034D01*
X-28049683Y-85757035D01*
X-28100733Y-85893906D01*
X-28107238Y-85954402D01*
X-30851487Y-85954402D01*
X-30851487Y-81829082D01*
X-27649738Y-81829082D01*
X-27649738Y-81976918D01*
X-27633847Y-82056807D01*
X-27620896Y-82121913D01*
X-27620895Y-82121916D01*
X-27589049Y-82198799D01*
X-27564322Y-82258495D01*
X-27482189Y-82381416D01*
X-27377654Y-82485951D01*
X-27254733Y-82568084D01*
X-27118151Y-82624658D01*
X-26973156Y-82653500D01*
X-26973151Y-82653500D01*
X-26825325Y-82653500D01*
X-26825320Y-82653500D01*
X-26680325Y-82624658D01*
X-26543743Y-82568084D01*
X-26420822Y-82485951D01*
X-26316287Y-82381416D01*
X-26234154Y-82258495D01*
X-26177580Y-82121913D01*
X-26148738Y-81976918D01*
X-26148738Y-81829082D01*
X-26177580Y-81684087D01*
X-26234154Y-81547505D01*
X-26316287Y-81424584D01*
X-26420822Y-81320049D01*
X-26543743Y-81237916D01*
X-26583457Y-81221466D01*
X-26680322Y-81181343D01*
X-26680325Y-81181342D01*
X-26825320Y-81152500D01*
X-26973156Y-81152500D01*
X-27045654Y-81166921D01*
X-27118152Y-81181342D01*
X-27118155Y-81181343D01*
X-27254734Y-81237916D01*
X-27377650Y-81320046D01*
X-27377657Y-81320051D01*
X-27482187Y-81424581D01*
X-27482192Y-81424588D01*
X-27564322Y-81547504D01*
X-27620895Y-81684083D01*
X-27620896Y-81684086D01*
X-27620896Y-81684087D01*
X-27649738Y-81829082D01*
X-30851487Y-81829082D01*
X-30851487Y-73829082D01*
X-27649738Y-73829082D01*
X-27649738Y-73976918D01*
X-27627143Y-74090510D01*
X-27620896Y-74121913D01*
X-27620895Y-74121916D01*
X-27607974Y-74153110D01*
X-27564322Y-74258495D01*
X-27482189Y-74381416D01*
X-27377654Y-74485951D01*
X-27254733Y-74568084D01*
X-27118151Y-74624658D01*
X-26973156Y-74653500D01*
X-26973151Y-74653500D01*
X-26825325Y-74653500D01*
X-26825320Y-74653500D01*
X-26680325Y-74624658D01*
X-26543743Y-74568084D01*
X-26420822Y-74485951D01*
X-26316287Y-74381416D01*
X-26234154Y-74258495D01*
X-26177580Y-74121913D01*
X-26148738Y-73976918D01*
X-26148738Y-73829082D01*
X-26177580Y-73684087D01*
X-26234154Y-73547505D01*
X-26316287Y-73424584D01*
X-26420822Y-73320049D01*
X-26543743Y-73237916D01*
X-26593746Y-73217204D01*
X-26680322Y-73181343D01*
X-26680325Y-73181342D01*
X-26684317Y-73180548D01*
X-26825320Y-73152500D01*
X-26973156Y-73152500D01*
X-27045654Y-73166921D01*
X-27118152Y-73181342D01*
X-27118155Y-73181343D01*
X-27254734Y-73237916D01*
X-27377650Y-73320046D01*
X-27377657Y-73320051D01*
X-27482187Y-73424581D01*
X-27482192Y-73424588D01*
X-27564322Y-73547504D01*
X-27620895Y-73684083D01*
X-27620896Y-73684086D01*
X-27620896Y-73684087D01*
X-27649738Y-73829082D01*
X-30851487Y-73829082D01*
X-30851487Y-71751597D01*
X-28107238Y-71751597D01*
X-28100733Y-71812093D01*
X-28049683Y-71948964D01*
X-28049683Y-71948965D01*
X-27962143Y-72065904D01*
X-27845204Y-72153444D01*
X-27708332Y-72204494D01*
X-27647836Y-72210999D01*
X-27647823Y-72211000D01*
X-26753238Y-72211000D01*
X-26245238Y-72211000D01*
X-25350653Y-72211000D01*
X-25350641Y-72210999D01*
X-25290145Y-72204494D01*
X-25153274Y-72153444D01*
X-25153273Y-72153444D01*
X-25036334Y-72065904D01*
X-24948794Y-71948965D01*
X-24948794Y-71948964D01*
X-24897744Y-71812093D01*
X-24891239Y-71751597D01*
X-24891238Y-71751585D01*
X-24891238Y-71357000D01*
X-26245238Y-71357000D01*
X-26245238Y-72211000D01*
X-26753238Y-72211000D01*
X-26753238Y-71357000D01*
X-28107238Y-71357000D01*
X-28107238Y-71751597D01*
X-30851487Y-71751597D01*
X-30851487Y-70454402D01*
X-28107238Y-70454402D01*
X-28107238Y-70849000D01*
X-26753238Y-70849000D01*
X-26245238Y-70849000D01*
X-24891238Y-70849000D01*
X-24891238Y-70454414D01*
X-24891239Y-70454402D01*
X-24897744Y-70393906D01*
X-24948794Y-70257035D01*
X-24948794Y-70257034D01*
X-25036334Y-70140095D01*
X-25153273Y-70052555D01*
X-25290145Y-70001505D01*
X-25350641Y-69995000D01*
X-26245238Y-69995000D01*
X-26245238Y-70849000D01*
X-26753238Y-70849000D01*
X-26753238Y-69995000D01*
X-27647836Y-69995000D01*
X-27708332Y-70001505D01*
X-27845203Y-70052555D01*
X-27845204Y-70052555D01*
X-27962143Y-70140095D01*
X-28049683Y-70257034D01*
X-28049683Y-70257035D01*
X-28100733Y-70393906D01*
X-28107238Y-70454402D01*
X-30851487Y-70454402D01*
X-30851487Y-65331709D01*
X-29001987Y-65331709D01*
X-29001987Y-65574290D01*
X-28970327Y-65814782D01*
X-28907543Y-66049095D01*
X-28907542Y-66049097D01*
X-28907541Y-66049100D01*
X-28814711Y-66273212D01*
X-28814710Y-66273213D01*
X-28814705Y-66273224D01*
X-28693426Y-66483285D01*
X-28693424Y-66483288D01*
X-28693423Y-66483289D01*
X-28545752Y-66675738D01*
X-28545748Y-66675742D01*
X-28545743Y-66675748D01*
X-28374236Y-66847255D01*
X-28374231Y-66847259D01*
X-28374225Y-66847265D01*
X-28182344Y-66994500D01*
X-28181773Y-66994938D01*
X-27971712Y-67116217D01*
X-27971708Y-67116218D01*
X-27971699Y-67116224D01*
X-27747587Y-67209054D01*
X-27513276Y-67271838D01*
X-27513272Y-67271838D01*
X-27513270Y-67271839D01*
X-27451285Y-67279999D01*
X-27272775Y-67303500D01*
X-27272768Y-67303500D01*
X-27030206Y-67303500D01*
X-27030199Y-67303500D01*
X-26812850Y-67274885D01*
X-26789705Y-67271839D01*
X-26789705Y-67271838D01*
X-26789698Y-67271838D01*
X-26555387Y-67209054D01*
X-26331275Y-67116224D01*
X-26121198Y-66994936D01*
X-25928749Y-66847265D01*
X-25757222Y-66675738D01*
X-25609551Y-66483289D01*
X-25488263Y-66273212D01*
X-25395433Y-66049100D01*
X-25332649Y-65814789D01*
X-25300987Y-65574288D01*
X-25300987Y-65331712D01*
X-25332649Y-65091211D01*
X-25395433Y-64856900D01*
X-25488263Y-64632788D01*
X-25488269Y-64632779D01*
X-25488270Y-64632775D01*
X-25609549Y-64422714D01*
X-25609551Y-64422711D01*
X-25757222Y-64230262D01*
X-25757228Y-64230256D01*
X-25757232Y-64230251D01*
X-25928739Y-64058744D01*
X-25928745Y-64058739D01*
X-25928749Y-64058735D01*
X-26121198Y-63911064D01*
X-26121199Y-63911063D01*
X-26121202Y-63911061D01*
X-26331263Y-63789782D01*
X-26331271Y-63789778D01*
X-26331275Y-63789776D01*
X-26555387Y-63696946D01*
X-26555390Y-63696945D01*
X-26555392Y-63696944D01*
X-26789705Y-63634160D01*
X-27030197Y-63602500D01*
X-27030199Y-63602500D01*
X-27272775Y-63602500D01*
X-27272778Y-63602500D01*
X-27513270Y-63634160D01*
X-27747583Y-63696944D01*
X-27747587Y-63696946D01*
X-27943988Y-63778298D01*
X-27971701Y-63789777D01*
X-27971712Y-63789782D01*
X-28181773Y-63911061D01*
X-28374225Y-64058735D01*
X-28374236Y-64058744D01*
X-28545743Y-64230251D01*
X-28545752Y-64230262D01*
X-28693426Y-64422714D01*
X-28814705Y-64632775D01*
X-28814710Y-64632786D01*
X-28814711Y-64632788D01*
X-28834373Y-64680256D01*
X-28907541Y-64856900D01*
X-28907543Y-64856904D01*
X-28970327Y-65091217D01*
X-29001987Y-65331709D01*
X-30851487Y-65331709D01*
X-30851487Y-62854450D01*
X-30851454Y-62851561D01*
X-30849484Y-62765667D01*
X-30847098Y-62743987D01*
X-30813328Y-62574122D01*
X-30806163Y-62550495D01*
X-30740454Y-62391827D01*
X-30728818Y-62370053D01*
X-30633411Y-62227255D01*
X-30617746Y-62208167D01*
X-30496314Y-62086733D01*
X-30477224Y-62071068D01*
X-30334439Y-61975666D01*
X-30312660Y-61964025D01*
X-30153992Y-61898313D01*
X-30130362Y-61891147D01*
X-29960501Y-61857374D01*
X-29938808Y-61854989D01*
X-29859981Y-61853193D01*
X-29852934Y-61853033D01*
X-29850065Y-61853000D01*
X50146921Y-61853000D01*
X50150071Y-61853038D01*
G37*
%TD.AperFunction*%
%TA.AperFunction,Conductor*%
G36*
X51106709Y-70746738D02*
G01*
X51144023Y-70807139D01*
X51148513Y-70840477D01*
X51148513Y-92851559D01*
X51148481Y-92854413D01*
X51146535Y-92940310D01*
X51144147Y-92962032D01*
X51110372Y-93131871D01*
X51103202Y-93155510D01*
X51037491Y-93314162D01*
X51025847Y-93335948D01*
X50930441Y-93478737D01*
X50914769Y-93497833D01*
X50793346Y-93619253D01*
X50774251Y-93634923D01*
X50631465Y-93730324D01*
X50609679Y-93741968D01*
X50451025Y-93807677D01*
X50427385Y-93814847D01*
X50257528Y-93848621D01*
X50235830Y-93851007D01*
X50151018Y-93852942D01*
X50149958Y-93852967D01*
X50147085Y-93853000D01*
X39313253Y-93853000D01*
X39245132Y-93832998D01*
X39198639Y-93779342D01*
X39188535Y-93709068D01*
X39218029Y-93644488D01*
X39224157Y-93637905D01*
X39526114Y-93335948D01*
X39863658Y-92998403D01*
X39925969Y-92964380D01*
X39952752Y-92961500D01*
X40044000Y-92961500D01*
X40230801Y-92921794D01*
X40405265Y-92844118D01*
X40559766Y-92731866D01*
X40563930Y-92727240D01*
X40624375Y-92690000D01*
X40695358Y-92691350D01*
X40746661Y-92722452D01*
X41064131Y-93039922D01*
X41202886Y-93120032D01*
X41357647Y-93161500D01*
X41357648Y-93161500D01*
X41357649Y-93161500D01*
X42528623Y-93161500D01*
X42528624Y-93161500D01*
X42606004Y-93140766D01*
X42683386Y-93120032D01*
X42822140Y-93039922D01*
X46335434Y-89526628D01*
X46415545Y-89387873D01*
X46415546Y-89387870D01*
X46436611Y-89309257D01*
X46448901Y-89263386D01*
X46457013Y-89233111D01*
X46457013Y-83472889D01*
X46427269Y-83361882D01*
X46424352Y-83350997D01*
X46415547Y-83318134D01*
X46415546Y-83318133D01*
X46415545Y-83318127D01*
X46381607Y-83259345D01*
X46335436Y-83179375D01*
X46335428Y-83179365D01*
X43627146Y-80471083D01*
X43627136Y-80471075D01*
X43488390Y-80390970D01*
X43488387Y-80390969D01*
X43488386Y-80390968D01*
X43488384Y-80390967D01*
X43488383Y-80390967D01*
X43397069Y-80366500D01*
X43397069Y-80366499D01*
X43333624Y-80349500D01*
X38577239Y-80349500D01*
X38509118Y-80329498D01*
X38462625Y-80275842D01*
X38451961Y-80236973D01*
X38451750Y-80235013D01*
X38450294Y-80221466D01*
X38450294Y-80194530D01*
X38454367Y-80156645D01*
X38454368Y-80156633D01*
X38454368Y-79759366D01*
X38454367Y-79759354D01*
X38454366Y-79759345D01*
X38450294Y-79721466D01*
X38450294Y-79694531D01*
X38451961Y-79679027D01*
X38479133Y-79613435D01*
X38537453Y-79572946D01*
X38577239Y-79566500D01*
X44422921Y-79566500D01*
X44422922Y-79566500D01*
X44500302Y-79545766D01*
X44577684Y-79525032D01*
X44716438Y-79444922D01*
X47530887Y-76630471D01*
X47593196Y-76596449D01*
X47664011Y-76601513D01*
X47720847Y-76644060D01*
X47745658Y-76710580D01*
X47745550Y-76729958D01*
X47745357Y-76732290D01*
X47745357Y-76732293D01*
X47745357Y-76732298D01*
X47762943Y-76944530D01*
X47763950Y-76956673D01*
X47819215Y-77174910D01*
X47819216Y-77174911D01*
X47819217Y-77174914D01*
X47909653Y-77381089D01*
X47909654Y-77381091D01*
X48032788Y-77569563D01*
X48032792Y-77569568D01*
X48185275Y-77735206D01*
X48216311Y-77759362D01*
X48362937Y-77873487D01*
X48396193Y-77891484D01*
X48446584Y-77941498D01*
X48461936Y-78010814D01*
X48437375Y-78077427D01*
X48396193Y-78113111D01*
X48362939Y-78131108D01*
X48362937Y-78131109D01*
X48185275Y-78269389D01*
X48032792Y-78435027D01*
X48032788Y-78435032D01*
X47909654Y-78623504D01*
X47819216Y-78829684D01*
X47819215Y-78829685D01*
X47763950Y-79047922D01*
X47763949Y-79047928D01*
X47763949Y-79047930D01*
X47745357Y-79272298D01*
X47761861Y-79471470D01*
X47763950Y-79496673D01*
X47819215Y-79714910D01*
X47819216Y-79714911D01*
X47819217Y-79714914D01*
X47888811Y-79873574D01*
X47909654Y-79921091D01*
X48032788Y-80109563D01*
X48032792Y-80109568D01*
X48185275Y-80275206D01*
X48239844Y-80317679D01*
X48362937Y-80413487D01*
X48396193Y-80431484D01*
X48446584Y-80481498D01*
X48461936Y-80550814D01*
X48437375Y-80617427D01*
X48396193Y-80653111D01*
X48362939Y-80671108D01*
X48362937Y-80671109D01*
X48185275Y-80809389D01*
X48032792Y-80975027D01*
X48032788Y-80975032D01*
X47909654Y-81163504D01*
X47819216Y-81369684D01*
X47819215Y-81369685D01*
X47763950Y-81587922D01*
X47763949Y-81587928D01*
X47763949Y-81587930D01*
X47745357Y-81812298D01*
X47763551Y-82031866D01*
X47763950Y-82036673D01*
X47819215Y-82254910D01*
X47819216Y-82254911D01*
X47819217Y-82254914D01*
X47875277Y-82382718D01*
X47909654Y-82461091D01*
X48032788Y-82649563D01*
X48032792Y-82649568D01*
X48185275Y-82815206D01*
X48197288Y-82824556D01*
X48362937Y-82953487D01*
X48560939Y-83060640D01*
X48560940Y-83060640D01*
X48560941Y-83060641D01*
X48596785Y-83072946D01*
X48773878Y-83133742D01*
X48995944Y-83170798D01*
X48995948Y-83170798D01*
X49221078Y-83170798D01*
X49221082Y-83170798D01*
X49443148Y-83133742D01*
X49656087Y-83060640D01*
X49854089Y-82953487D01*
X50031753Y-82815204D01*
X50184235Y-82649566D01*
X50307373Y-82461089D01*
X50397809Y-82254914D01*
X50453077Y-82036666D01*
X50471669Y-81812298D01*
X50453077Y-81587930D01*
X50411712Y-81424584D01*
X50397810Y-81369685D01*
X50397809Y-81369684D01*
X50397809Y-81369682D01*
X50307373Y-81163507D01*
X50266503Y-81100951D01*
X50184237Y-80975032D01*
X50184233Y-80975027D01*
X50031750Y-80809389D01*
X49901486Y-80708000D01*
X49854089Y-80671109D01*
X49850892Y-80669379D01*
X49820833Y-80653112D01*
X49770442Y-80603100D01*
X49755089Y-80533783D01*
X49779649Y-80467170D01*
X49820833Y-80431484D01*
X49854089Y-80413487D01*
X50031753Y-80275204D01*
X50184235Y-80109566D01*
X50307373Y-79921089D01*
X50397809Y-79714914D01*
X50453077Y-79496666D01*
X50471669Y-79272298D01*
X50453077Y-79047930D01*
X50397809Y-78829682D01*
X50307373Y-78623507D01*
X50283378Y-78586780D01*
X50184237Y-78435032D01*
X50184233Y-78435027D01*
X50031750Y-78269389D01*
X49886902Y-78156649D01*
X49854089Y-78131109D01*
X49820832Y-78113111D01*
X49770442Y-78063100D01*
X49755089Y-77993783D01*
X49779649Y-77927170D01*
X49820833Y-77891484D01*
X49854089Y-77873487D01*
X50031753Y-77735204D01*
X50184235Y-77569566D01*
X50307373Y-77381089D01*
X50397809Y-77174914D01*
X50453077Y-76956666D01*
X50471669Y-76732298D01*
X50453077Y-76507930D01*
X50443248Y-76469117D01*
X50397810Y-76289685D01*
X50397809Y-76289684D01*
X50397809Y-76289682D01*
X50307373Y-76083507D01*
X50276327Y-76035988D01*
X50184237Y-75895032D01*
X50184233Y-75895027D01*
X50035711Y-75733692D01*
X50031753Y-75729392D01*
X50031752Y-75729391D01*
X50031750Y-75729389D01*
X49938213Y-75656586D01*
X49854089Y-75591109D01*
X49848340Y-75587998D01*
X49820833Y-75573112D01*
X49770442Y-75523100D01*
X49755089Y-75453783D01*
X49779649Y-75387170D01*
X49820833Y-75351484D01*
X49825423Y-75349000D01*
X49854089Y-75333487D01*
X50031753Y-75195204D01*
X50184235Y-75029566D01*
X50307373Y-74841089D01*
X50397809Y-74634914D01*
X50453077Y-74416666D01*
X50471669Y-74192298D01*
X50453077Y-73967930D01*
X50404526Y-73776205D01*
X50397810Y-73749685D01*
X50397809Y-73749684D01*
X50397809Y-73749682D01*
X50307373Y-73543507D01*
X50300653Y-73533222D01*
X50184237Y-73355032D01*
X50184233Y-73355027D01*
X50046166Y-73205049D01*
X50031753Y-73189392D01*
X50031752Y-73189391D01*
X50031750Y-73189389D01*
X49931140Y-73111081D01*
X49854089Y-73051109D01*
X49820832Y-73033111D01*
X49770442Y-72983100D01*
X49755089Y-72913783D01*
X49779649Y-72847170D01*
X49820833Y-72811484D01*
X49854089Y-72793487D01*
X50031753Y-72655204D01*
X50184235Y-72489566D01*
X50307373Y-72301089D01*
X50397809Y-72094914D01*
X50453077Y-71876666D01*
X50471669Y-71652298D01*
X50453077Y-71427930D01*
X50432474Y-71346571D01*
X50435140Y-71275627D01*
X50465521Y-71226547D01*
X50910003Y-70782067D01*
X50917747Y-70770477D01*
X50972222Y-70724949D01*
X51042665Y-70716099D01*
X51106709Y-70746738D01*
G37*
%TD.AperFunction*%
%TA.AperFunction,Conductor*%
G36*
X35162884Y-91431991D02*
G01*
X35183853Y-91448889D01*
X35874886Y-92139922D01*
X36013640Y-92220032D01*
X36087872Y-92239922D01*
X36168402Y-92261500D01*
X36168403Y-92261500D01*
X36328623Y-92261500D01*
X38217803Y-92261500D01*
X38285924Y-92281502D01*
X38311440Y-92303190D01*
X38339352Y-92334190D01*
X38370069Y-92398198D01*
X38361304Y-92468652D01*
X38315840Y-92523182D01*
X38248113Y-92544477D01*
X38245715Y-92544500D01*
X21612752Y-92544500D01*
X21544631Y-92524498D01*
X21523657Y-92507595D01*
X21451235Y-92435173D01*
X21417209Y-92372861D01*
X21418186Y-92315146D01*
X21431772Y-92261500D01*
X21453077Y-92177368D01*
X21471669Y-91953000D01*
X21453077Y-91728632D01*
X21432150Y-91645993D01*
X21412633Y-91568920D01*
X21415300Y-91497974D01*
X21455900Y-91439732D01*
X21521544Y-91412686D01*
X21534777Y-91411989D01*
X35094763Y-91411989D01*
X35162884Y-91431991D01*
G37*
%TD.AperFunction*%
%TA.AperFunction,Conductor*%
G36*
X-17289706Y-79128894D02*
G01*
X-17232870Y-79171441D01*
X-17208059Y-79237961D01*
X-17207738Y-79246950D01*
X-17207738Y-79301649D01*
X-17201229Y-79362195D01*
X-17199415Y-79369867D01*
X-17202851Y-79370678D01*
X-17198830Y-79425517D01*
X-17232745Y-79487889D01*
X-17258995Y-79508070D01*
X-17272864Y-79516077D01*
X-17272872Y-79516083D01*
X-17485666Y-79728877D01*
X-17485674Y-79728887D01*
X-17565779Y-79867633D01*
X-17565784Y-79867645D01*
X-17582768Y-79931029D01*
X-17582767Y-79931030D01*
X-17607249Y-80022399D01*
X-17607249Y-81832622D01*
X-17594854Y-81878884D01*
X-17594853Y-81878884D01*
X-17567412Y-81981298D01*
X-17565781Y-81987383D01*
X-17565779Y-81987388D01*
X-17485674Y-82126134D01*
X-17485666Y-82126144D01*
X-16917275Y-82694534D01*
X-16385182Y-83226627D01*
X-16385181Y-83226628D01*
X-16271888Y-83339921D01*
X-16271887Y-83339922D01*
X-16271885Y-83339923D01*
X-16233851Y-83361882D01*
X-16133132Y-83420032D01*
X-15978371Y-83461500D01*
X-15818150Y-83461500D01*
X-13204726Y-83461500D01*
X-13136605Y-83481502D01*
X-13090112Y-83535158D01*
X-13080008Y-83605432D01*
X-13109502Y-83670012D01*
X-13115631Y-83676595D01*
X-15429542Y-85990505D01*
X-15491854Y-86024531D01*
X-15562670Y-86019466D01*
X-15607732Y-85990505D01*
X-15641237Y-85957000D01*
X-16645238Y-85957000D01*
X-16645238Y-87011001D01*
X-16636733Y-87019506D01*
X-16602707Y-87081818D01*
X-16607772Y-87152633D01*
X-16636733Y-87197696D01*
X-20047244Y-90608207D01*
X-20109556Y-90642233D01*
X-20177250Y-90638285D01*
X-20196844Y-90631558D01*
X-20196851Y-90631556D01*
X-20196852Y-90631556D01*
X-20196855Y-90631555D01*
X-20196857Y-90631555D01*
X-20241011Y-90624187D01*
X-20418918Y-90594500D01*
X-20644056Y-90594500D01*
X-20792276Y-90619233D01*
X-20866118Y-90631555D01*
X-20866129Y-90631558D01*
X-20905589Y-90645104D01*
X-20976513Y-90648303D01*
X-21037908Y-90612649D01*
X-21070281Y-90549463D01*
X-21072498Y-90525930D01*
X-21072498Y-86551597D01*
X-18157238Y-86551597D01*
X-18150733Y-86612093D01*
X-18099683Y-86748964D01*
X-18099683Y-86748965D01*
X-18012143Y-86865904D01*
X-17895204Y-86953444D01*
X-17758332Y-87004494D01*
X-17697836Y-87010999D01*
X-17697823Y-87011000D01*
X-17153238Y-87011000D01*
X-17153238Y-85957000D01*
X-18157238Y-85957000D01*
X-18157238Y-86551597D01*
X-21072498Y-86551597D01*
X-21072498Y-84854402D01*
X-18157238Y-84854402D01*
X-18157238Y-85449000D01*
X-17153238Y-85449000D01*
X-16645238Y-85449000D01*
X-15641238Y-85449000D01*
X-15641238Y-84854414D01*
X-15641239Y-84854402D01*
X-15647744Y-84793906D01*
X-15698794Y-84657035D01*
X-15698794Y-84657034D01*
X-15786334Y-84540095D01*
X-15903273Y-84452555D01*
X-16040145Y-84401505D01*
X-16100641Y-84395000D01*
X-16645238Y-84395000D01*
X-16645238Y-85449000D01*
X-17153238Y-85449000D01*
X-17153238Y-84395000D01*
X-17697836Y-84395000D01*
X-17758332Y-84401505D01*
X-17895203Y-84452555D01*
X-17895204Y-84452555D01*
X-18012143Y-84540095D01*
X-18099683Y-84657034D01*
X-18099683Y-84657035D01*
X-18150733Y-84793906D01*
X-18157238Y-84854402D01*
X-21072498Y-84854402D01*
X-21072498Y-82859710D01*
X-21052496Y-82791589D01*
X-21035593Y-82770615D01*
X-17422833Y-79157855D01*
X-17360521Y-79123829D01*
X-17289706Y-79128894D01*
G37*
%TD.AperFunction*%
%TA.AperFunction,Conductor*%
G36*
X-11095136Y-83980033D02*
G01*
X-11048643Y-84033689D01*
X-11038539Y-84103963D01*
X-11068033Y-84168543D01*
X-11074159Y-84175123D01*
X-14348001Y-87448964D01*
X-17507244Y-90608207D01*
X-17569556Y-90642233D01*
X-17637250Y-90638285D01*
X-17656844Y-90631558D01*
X-17656851Y-90631556D01*
X-17656852Y-90631556D01*
X-17656855Y-90631555D01*
X-17656857Y-90631555D01*
X-17701011Y-90624187D01*
X-17878918Y-90594500D01*
X-18008249Y-90594500D01*
X-18076370Y-90574498D01*
X-18122863Y-90520842D01*
X-18132967Y-90450568D01*
X-18103473Y-90385988D01*
X-18097344Y-90379405D01*
X-15019308Y-87301370D01*
X-11714874Y-83996936D01*
X-11652562Y-83962910D01*
X-11625779Y-83960031D01*
X-11163257Y-83960031D01*
X-11095136Y-83980033D01*
G37*
%TD.AperFunction*%
%TA.AperFunction,Conductor*%
G36*
X-9005356Y-84430253D02*
G01*
X-8958863Y-84483909D01*
X-8948759Y-84554183D01*
X-8978253Y-84618763D01*
X-8984382Y-84625345D01*
X-12007798Y-87648761D01*
X-14967244Y-90608207D01*
X-15029556Y-90642233D01*
X-15097250Y-90638285D01*
X-15116844Y-90631558D01*
X-15116851Y-90631556D01*
X-15116852Y-90631556D01*
X-15116855Y-90631555D01*
X-15116857Y-90631555D01*
X-15161011Y-90624187D01*
X-15338918Y-90594500D01*
X-15468249Y-90594500D01*
X-15536370Y-90574498D01*
X-15582863Y-90520842D01*
X-15592967Y-90450568D01*
X-15563473Y-90385988D01*
X-15557344Y-90379405D01*
X-12626903Y-87448965D01*
X-9625094Y-84447156D01*
X-9562782Y-84413130D01*
X-9535999Y-84410251D01*
X-9073477Y-84410251D01*
X-9005356Y-84430253D01*
G37*
%TD.AperFunction*%
%TA.AperFunction,Conductor*%
G36*
X-6864882Y-84829779D02*
G01*
X-6818389Y-84883435D01*
X-6808285Y-84953709D01*
X-6837779Y-85018289D01*
X-6843908Y-85024871D01*
X-9682507Y-87863470D01*
X-12427244Y-90608207D01*
X-12489556Y-90642233D01*
X-12557250Y-90638285D01*
X-12576844Y-90631558D01*
X-12576851Y-90631556D01*
X-12576852Y-90631556D01*
X-12576855Y-90631555D01*
X-12576857Y-90631555D01*
X-12621011Y-90624187D01*
X-12798918Y-90594500D01*
X-12928249Y-90594500D01*
X-12996370Y-90574498D01*
X-13042863Y-90520842D01*
X-13052967Y-90450568D01*
X-13023473Y-90385988D01*
X-13017344Y-90379405D01*
X-10354820Y-87716882D01*
X-7484620Y-84846682D01*
X-7422308Y-84812656D01*
X-7395525Y-84809777D01*
X-6933003Y-84809777D01*
X-6864882Y-84829779D01*
G37*
%TD.AperFunction*%
%TA.AperFunction,Conductor*%
G36*
X-4724392Y-85229290D02*
G01*
X-4677899Y-85282946D01*
X-4667795Y-85353220D01*
X-4697289Y-85417800D01*
X-4703417Y-85424381D01*
X-8625461Y-89346424D01*
X-9887244Y-90608207D01*
X-9949556Y-90642233D01*
X-10017250Y-90638285D01*
X-10036844Y-90631558D01*
X-10036851Y-90631556D01*
X-10036852Y-90631556D01*
X-10036855Y-90631555D01*
X-10036857Y-90631555D01*
X-10081011Y-90624187D01*
X-10258918Y-90594500D01*
X-10388249Y-90594500D01*
X-10456370Y-90574498D01*
X-10502863Y-90520842D01*
X-10512967Y-90450568D01*
X-10483473Y-90385988D01*
X-10477344Y-90379405D01*
X-7998312Y-87900374D01*
X-5344131Y-85246193D01*
X-5281819Y-85212167D01*
X-5255036Y-85209288D01*
X-4792513Y-85209288D01*
X-4724392Y-85229290D01*
G37*
%TD.AperFunction*%
%TA.AperFunction,Conductor*%
G36*
X-2583903Y-85628801D02*
G01*
X-2537410Y-85682457D01*
X-2527306Y-85752731D01*
X-2556800Y-85817311D01*
X-2562928Y-85823892D01*
X-3820854Y-87081818D01*
X-7347244Y-90608207D01*
X-7409556Y-90642233D01*
X-7477250Y-90638285D01*
X-7496844Y-90631558D01*
X-7496851Y-90631556D01*
X-7496852Y-90631556D01*
X-7496855Y-90631555D01*
X-7496857Y-90631555D01*
X-7541011Y-90624187D01*
X-7718918Y-90594500D01*
X-7848249Y-90594500D01*
X-7916370Y-90574498D01*
X-7962863Y-90520842D01*
X-7972967Y-90450568D01*
X-7943473Y-90385988D01*
X-7937344Y-90379405D01*
X-3203643Y-85645704D01*
X-3141331Y-85611678D01*
X-3114548Y-85608799D01*
X-2652024Y-85608799D01*
X-2583903Y-85628801D01*
G37*
%TD.AperFunction*%
%TA.AperFunction,Conductor*%
G36*
X-443408Y-86028305D02*
G01*
X-396915Y-86081961D01*
X-386811Y-86152235D01*
X-416305Y-86216815D01*
X-422434Y-86223398D01*
X-4807244Y-90608207D01*
X-4869556Y-90642233D01*
X-4937250Y-90638285D01*
X-4956844Y-90631558D01*
X-4956851Y-90631556D01*
X-4956852Y-90631556D01*
X-4956855Y-90631555D01*
X-4956857Y-90631555D01*
X-5001011Y-90624187D01*
X-5178918Y-90594500D01*
X-5308249Y-90594500D01*
X-5376370Y-90574498D01*
X-5422863Y-90520842D01*
X-5432967Y-90450568D01*
X-5403473Y-90385988D01*
X-5397344Y-90379405D01*
X-1063147Y-86045208D01*
X-1000835Y-86011182D01*
X-974052Y-86008303D01*
X-511529Y-86008303D01*
X-443408Y-86028305D01*
G37*
%TD.AperFunction*%
%TA.AperFunction,Conductor*%
G36*
X1697081Y-86427816D02*
G01*
X1743574Y-86481472D01*
X1753678Y-86551746D01*
X1724184Y-86616326D01*
X1718055Y-86622909D01*
X-2267244Y-90608207D01*
X-2329556Y-90642233D01*
X-2397250Y-90638285D01*
X-2416844Y-90631558D01*
X-2416851Y-90631556D01*
X-2416852Y-90631556D01*
X-2416855Y-90631555D01*
X-2416857Y-90631555D01*
X-2461011Y-90624187D01*
X-2638918Y-90594500D01*
X-2768249Y-90594500D01*
X-2836370Y-90574498D01*
X-2882863Y-90520842D01*
X-2892967Y-90450568D01*
X-2863473Y-90385988D01*
X-2857344Y-90379405D01*
X1077343Y-86444719D01*
X1139655Y-86410693D01*
X1166438Y-86407814D01*
X1628960Y-86407814D01*
X1697081Y-86427816D01*
G37*
%TD.AperFunction*%
%TA.AperFunction,Conductor*%
G36*
X17260085Y-86045404D02*
G01*
X17293595Y-86069386D01*
X18358125Y-87133916D01*
X18392151Y-87196228D01*
X18387086Y-87267043D01*
X18344539Y-87323879D01*
X18278019Y-87348690D01*
X18269030Y-87349011D01*
X16271473Y-87349011D01*
X16203352Y-87329009D01*
X16182378Y-87312106D01*
X15543823Y-86673551D01*
X15509797Y-86611239D01*
X15514862Y-86540424D01*
X15557409Y-86483588D01*
X15623929Y-86458777D01*
X15693303Y-86473868D01*
X15706978Y-86482519D01*
X15791761Y-86544118D01*
X15966225Y-86621794D01*
X16153026Y-86661500D01*
X16344000Y-86661500D01*
X16530801Y-86621794D01*
X16705265Y-86544118D01*
X16859766Y-86431866D01*
X16880029Y-86409362D01*
X16987547Y-86289951D01*
X16987548Y-86289949D01*
X16987553Y-86289944D01*
X17083040Y-86124556D01*
X17084666Y-86119550D01*
X17124733Y-86060946D01*
X17190127Y-86033303D01*
X17260085Y-86045404D01*
G37*
%TD.AperFunction*%
%TA.AperFunction,Conductor*%
G36*
X47692634Y-63510800D02*
G01*
X47739127Y-63564456D01*
X47750513Y-63616798D01*
X47750513Y-63778298D01*
X48677810Y-63778298D01*
X48642588Y-63839305D01*
X48608513Y-63966472D01*
X48608513Y-64098124D01*
X48642588Y-64225291D01*
X48677810Y-64286298D01*
X47750513Y-64286298D01*
X47750513Y-64930895D01*
X47757018Y-64991391D01*
X47808068Y-65128262D01*
X47808068Y-65128263D01*
X47895608Y-65245202D01*
X48012547Y-65332742D01*
X48127685Y-65375686D01*
X48184521Y-65418233D01*
X48209332Y-65484753D01*
X48194241Y-65554127D01*
X48176354Y-65579080D01*
X48032793Y-65735027D01*
X48032788Y-65735032D01*
X47920625Y-65906713D01*
X47866622Y-65952802D01*
X47815142Y-65963798D01*
X43946754Y-65963798D01*
X43946395Y-65963833D01*
X43946394Y-65963833D01*
X43913394Y-65970391D01*
X43780357Y-65996833D01*
X43623948Y-66061595D01*
X43623947Y-66061596D01*
X43550079Y-66110942D01*
X43482324Y-66132149D01*
X43413859Y-66113359D01*
X43410099Y-66110942D01*
X43336292Y-66061622D01*
X43336291Y-66061621D01*
X43336289Y-66061620D01*
X43179911Y-65996836D01*
X43013891Y-65963803D01*
X43013832Y-65963798D01*
X43009326Y-65963798D01*
X42929261Y-65963798D01*
X42847705Y-65963792D01*
X42847607Y-65963798D01*
X39849104Y-65963798D01*
X39839124Y-65966471D01*
X39801879Y-65976451D01*
X39801879Y-65976452D01*
X39694343Y-66005266D01*
X39694341Y-66005266D01*
X39694337Y-66005268D01*
X39555591Y-66085373D01*
X39555581Y-66085381D01*
X38577313Y-67063649D01*
X38515001Y-67097675D01*
X38444185Y-67092610D01*
X38387350Y-67050063D01*
X38304500Y-66939388D01*
X38279689Y-66872868D01*
X38279368Y-66863879D01*
X38279368Y-65709367D01*
X38279367Y-65709350D01*
X38272858Y-65648803D01*
X38272856Y-65648795D01*
X38221757Y-65511797D01*
X38221755Y-65511792D01*
X38134129Y-65394738D01*
X38017075Y-65307112D01*
X38017070Y-65307110D01*
X37880072Y-65256011D01*
X37880064Y-65256009D01*
X37819517Y-65249500D01*
X37819506Y-65249500D01*
X34972230Y-65249500D01*
X34972218Y-65249500D01*
X34911671Y-65256009D01*
X34911663Y-65256011D01*
X34774665Y-65307110D01*
X34774660Y-65307112D01*
X34657606Y-65394738D01*
X34569980Y-65511792D01*
X34569978Y-65511797D01*
X34518879Y-65648795D01*
X34518877Y-65648803D01*
X34512368Y-65709350D01*
X34512368Y-67006649D01*
X34518877Y-67067196D01*
X34518879Y-67067204D01*
X34569978Y-67204202D01*
X34569980Y-67204207D01*
X34657606Y-67321261D01*
X34774660Y-67408887D01*
X34774662Y-67408888D01*
X34774664Y-67408889D01*
X34800542Y-67418541D01*
X34911663Y-67459988D01*
X34911671Y-67459990D01*
X34972218Y-67466499D01*
X34972223Y-67466499D01*
X34972230Y-67466500D01*
X35761868Y-67466500D01*
X35829989Y-67486502D01*
X35876482Y-67540158D01*
X35887868Y-67592500D01*
X35887868Y-67656601D01*
X35891694Y-67692181D01*
X35891694Y-67719116D01*
X35887369Y-67759348D01*
X35887368Y-67759369D01*
X35887368Y-68156630D01*
X35887369Y-68156654D01*
X35891441Y-68194534D01*
X35891441Y-68221466D01*
X35887369Y-68259345D01*
X35887368Y-68259369D01*
X35887368Y-68656649D01*
X35891694Y-68696881D01*
X35891694Y-68723817D01*
X35887868Y-68759398D01*
X35887868Y-68808001D01*
X35904721Y-68824854D01*
X35915441Y-68828002D01*
X35948189Y-68858492D01*
X35958427Y-68872169D01*
X35966156Y-68882494D01*
X35990964Y-68949015D01*
X35975871Y-69018389D01*
X35966156Y-69033506D01*
X35948189Y-69057506D01*
X35909086Y-69086780D01*
X35887868Y-69107999D01*
X35887868Y-69156601D01*
X35891694Y-69192181D01*
X35891694Y-69219116D01*
X35887369Y-69259348D01*
X35887368Y-69259369D01*
X35887368Y-69656630D01*
X35887369Y-69656654D01*
X35891441Y-69694534D01*
X35891441Y-69721466D01*
X35887369Y-69759345D01*
X35887368Y-69759369D01*
X35887368Y-70156630D01*
X35887369Y-70156654D01*
X35891441Y-70194534D01*
X35891441Y-70221466D01*
X35887369Y-70259345D01*
X35887368Y-70259369D01*
X35887368Y-70656630D01*
X35887369Y-70656654D01*
X35891441Y-70694534D01*
X35891441Y-70721466D01*
X35887369Y-70759345D01*
X35887368Y-70759369D01*
X35887368Y-71156630D01*
X35887369Y-71156654D01*
X35891441Y-71194534D01*
X35891441Y-71221466D01*
X35887369Y-71259345D01*
X35887368Y-71259369D01*
X35887368Y-71656630D01*
X35887369Y-71656654D01*
X35891441Y-71694534D01*
X35891441Y-71721466D01*
X35887369Y-71759345D01*
X35887368Y-71759369D01*
X35887368Y-72156630D01*
X35887369Y-72156654D01*
X35891441Y-72194534D01*
X35891441Y-72221466D01*
X35887369Y-72259345D01*
X35887368Y-72259369D01*
X35887368Y-72656630D01*
X35887369Y-72656654D01*
X35891441Y-72694534D01*
X35891441Y-72721466D01*
X35887369Y-72759345D01*
X35887368Y-72759369D01*
X35887368Y-73156649D01*
X35893877Y-73217196D01*
X35893879Y-73217204D01*
X35944978Y-73354202D01*
X35944980Y-73354207D01*
X36032606Y-73471261D01*
X36149660Y-73558887D01*
X36149662Y-73558888D01*
X36149664Y-73558889D01*
X36208743Y-73580924D01*
X36286663Y-73609988D01*
X36286671Y-73609990D01*
X36347218Y-73616499D01*
X36347223Y-73616499D01*
X36347230Y-73616500D01*
X36347236Y-73616500D01*
X37994500Y-73616500D01*
X37994506Y-73616500D01*
X37994513Y-73616499D01*
X37994517Y-73616499D01*
X38055064Y-73609990D01*
X38055067Y-73609989D01*
X38055069Y-73609989D01*
X38192072Y-73558889D01*
X38309129Y-73471261D01*
X38371688Y-73387692D01*
X38396755Y-73354207D01*
X38396755Y-73354206D01*
X38396757Y-73354204D01*
X38447857Y-73217201D01*
X38449164Y-73205049D01*
X38454367Y-73156649D01*
X38454368Y-73156632D01*
X38454368Y-72759366D01*
X38454367Y-72759354D01*
X38450294Y-72721470D01*
X38450294Y-72694531D01*
X38451961Y-72679027D01*
X38479133Y-72613435D01*
X38537453Y-72572946D01*
X38577239Y-72566500D01*
X42149274Y-72566500D01*
X42217395Y-72586502D01*
X42238369Y-72603405D01*
X42803108Y-73168144D01*
X42837134Y-73230456D01*
X42840013Y-73257239D01*
X42840013Y-74922709D01*
X42820011Y-74990830D01*
X42807650Y-75007019D01*
X42709474Y-75116054D01*
X42709471Y-75116058D01*
X42613989Y-75281438D01*
X42613986Y-75281445D01*
X42554970Y-75463072D01*
X42535009Y-75653000D01*
X42554970Y-75842927D01*
X42585039Y-75935470D01*
X42613986Y-76024556D01*
X42613989Y-76024561D01*
X42709471Y-76189941D01*
X42709478Y-76189951D01*
X42837257Y-76331864D01*
X42874937Y-76359240D01*
X42991761Y-76444118D01*
X43166225Y-76521794D01*
X43245966Y-76538743D01*
X43308439Y-76572471D01*
X43342761Y-76634621D01*
X43345079Y-76648819D01*
X43354970Y-76742927D01*
X43381591Y-76824854D01*
X43413986Y-76924556D01*
X43441072Y-76971470D01*
X43509471Y-77089941D01*
X43509478Y-77089951D01*
X43637257Y-77231864D01*
X43675105Y-77259362D01*
X43791761Y-77344118D01*
X43966225Y-77421794D01*
X44153026Y-77461500D01*
X44344000Y-77461500D01*
X44530801Y-77421794D01*
X44705265Y-77344118D01*
X44839444Y-77246630D01*
X44901061Y-77224645D01*
X44910683Y-77180415D01*
X44927632Y-77156492D01*
X44987553Y-77089944D01*
X45083040Y-76924556D01*
X45142055Y-76742928D01*
X45162017Y-76553000D01*
X45142055Y-76363072D01*
X45083040Y-76181444D01*
X44987553Y-76016056D01*
X44921708Y-75942928D01*
X44889376Y-75907019D01*
X44858659Y-75843012D01*
X44857013Y-75822709D01*
X44857013Y-73072890D01*
X44857013Y-73072889D01*
X44836793Y-72997427D01*
X44830665Y-72974555D01*
X44830665Y-72974554D01*
X44815547Y-72918134D01*
X44815546Y-72918133D01*
X44815545Y-72918127D01*
X44771531Y-72841892D01*
X44735437Y-72779376D01*
X44735429Y-72779366D01*
X42927146Y-70971083D01*
X42927136Y-70971075D01*
X42788390Y-70890970D01*
X42788387Y-70890969D01*
X42788386Y-70890968D01*
X42788384Y-70890967D01*
X42788383Y-70890967D01*
X42693833Y-70865633D01*
X42674251Y-70860386D01*
X42633624Y-70849500D01*
X42633623Y-70849500D01*
X40916752Y-70849500D01*
X40848631Y-70829498D01*
X40802138Y-70775842D01*
X40792034Y-70705568D01*
X40821528Y-70640988D01*
X40827657Y-70634405D01*
X41163657Y-70298405D01*
X41225969Y-70264379D01*
X41252752Y-70261500D01*
X41344000Y-70261500D01*
X41530801Y-70221794D01*
X41705265Y-70144118D01*
X41859766Y-70031866D01*
X41892960Y-69995000D01*
X41987547Y-69889951D01*
X41987548Y-69889949D01*
X41987553Y-69889944D01*
X42083040Y-69724556D01*
X42142055Y-69542928D01*
X42146718Y-69498557D01*
X42159723Y-69374829D01*
X42186736Y-69309172D01*
X42244958Y-69268542D01*
X42285033Y-69261999D01*
X45734764Y-69261999D01*
X45802885Y-69282001D01*
X45823859Y-69298904D01*
X47751501Y-71226546D01*
X47785527Y-71288858D01*
X47784551Y-71346571D01*
X47763949Y-71427926D01*
X47760341Y-71471470D01*
X47745357Y-71652298D01*
X47763798Y-71874845D01*
X47763950Y-71876673D01*
X47819215Y-72094910D01*
X47819216Y-72094911D01*
X47819217Y-72094914D01*
X47902446Y-72284658D01*
X47909654Y-72301091D01*
X48032788Y-72489563D01*
X48032792Y-72489568D01*
X48185275Y-72655206D01*
X48215880Y-72679027D01*
X48362937Y-72793487D01*
X48396193Y-72811484D01*
X48446584Y-72861498D01*
X48461936Y-72930814D01*
X48437375Y-72997427D01*
X48396193Y-73033111D01*
X48362939Y-73051108D01*
X48362937Y-73051109D01*
X48185275Y-73189389D01*
X48032792Y-73355027D01*
X48032788Y-73355032D01*
X47909654Y-73543504D01*
X47819216Y-73749684D01*
X47819215Y-73749685D01*
X47763950Y-73967922D01*
X47763949Y-73967928D01*
X47763949Y-73967930D01*
X47752645Y-74104350D01*
X47745357Y-74192298D01*
X47763949Y-74416667D01*
X47798839Y-74554445D01*
X47796171Y-74625392D01*
X47765789Y-74674471D01*
X45110366Y-77329895D01*
X45048054Y-77363921D01*
X45037554Y-77363170D01*
X45013284Y-77425508D01*
X45002601Y-77437659D01*
X44127665Y-78312596D01*
X44065355Y-78346620D01*
X44038572Y-78349500D01*
X38576733Y-78349500D01*
X38508612Y-78329498D01*
X38462119Y-78275842D01*
X38451455Y-78236970D01*
X38450041Y-78223819D01*
X38450041Y-78196886D01*
X38454368Y-78156638D01*
X38454368Y-77759362D01*
X38450294Y-77721466D01*
X38450294Y-77694530D01*
X38454367Y-77656645D01*
X38454368Y-77656633D01*
X38454368Y-77259366D01*
X38454367Y-77259356D01*
X38452999Y-77246631D01*
X38450041Y-77219113D01*
X38450041Y-77192177D01*
X38453867Y-77156593D01*
X38453868Y-77156586D01*
X38453868Y-77107999D01*
X38437014Y-77091145D01*
X38426295Y-77087998D01*
X38393549Y-77057511D01*
X38375580Y-77033508D01*
X38350770Y-76966992D01*
X38365860Y-76897617D01*
X38375579Y-76882494D01*
X38393549Y-76858488D01*
X38432648Y-76829220D01*
X38453868Y-76808001D01*
X38453868Y-76759413D01*
X38453867Y-76759406D01*
X38450041Y-76723821D01*
X38450041Y-76696886D01*
X38454368Y-76656638D01*
X38454368Y-76259362D01*
X38450294Y-76221466D01*
X38450294Y-76194530D01*
X38450787Y-76189944D01*
X38454368Y-76156638D01*
X38454368Y-75759362D01*
X38450041Y-75719113D01*
X38450041Y-75692177D01*
X38453867Y-75656593D01*
X38453868Y-75656586D01*
X38453868Y-75607999D01*
X38437014Y-75591145D01*
X38426295Y-75587998D01*
X38393549Y-75557511D01*
X38357614Y-75509508D01*
X38332805Y-75442988D01*
X38347897Y-75373614D01*
X38398099Y-75323412D01*
X38452287Y-75309581D01*
X38453868Y-75308001D01*
X38453868Y-75259414D01*
X38453867Y-75259402D01*
X38447362Y-75198906D01*
X38396312Y-75062035D01*
X38396312Y-75062034D01*
X38308772Y-74945095D01*
X38191833Y-74857555D01*
X38054961Y-74806505D01*
X37994465Y-74800000D01*
X37320868Y-74800000D01*
X37320868Y-75173500D01*
X37300866Y-75241621D01*
X37247210Y-75288114D01*
X37194868Y-75299500D01*
X37146868Y-75299500D01*
X37078747Y-75279498D01*
X37032254Y-75225842D01*
X37020868Y-75173500D01*
X37020868Y-74800000D01*
X36347270Y-74800000D01*
X36286774Y-74806505D01*
X36149903Y-74857555D01*
X36149902Y-74857555D01*
X36032963Y-74945095D01*
X35945423Y-75062034D01*
X35945423Y-75062035D01*
X35894373Y-75198906D01*
X35887868Y-75259402D01*
X35887868Y-75308001D01*
X35889785Y-75309918D01*
X35951373Y-75328002D01*
X35997866Y-75381658D01*
X36007970Y-75451932D01*
X35984121Y-75509507D01*
X35948187Y-75557510D01*
X35909087Y-75586779D01*
X35887868Y-75607999D01*
X35887868Y-75656601D01*
X35891694Y-75692181D01*
X35891694Y-75719116D01*
X35887369Y-75759348D01*
X35887368Y-75759369D01*
X35887368Y-76156630D01*
X35887369Y-76156654D01*
X35891441Y-76194534D01*
X35891441Y-76221466D01*
X35887369Y-76259345D01*
X35887368Y-76259369D01*
X35887368Y-76656649D01*
X35891694Y-76696881D01*
X35891694Y-76723817D01*
X35887868Y-76759398D01*
X35887868Y-76808001D01*
X35904721Y-76824854D01*
X35915441Y-76828002D01*
X35948189Y-76858492D01*
X35958427Y-76872169D01*
X35966156Y-76882494D01*
X35990964Y-76949015D01*
X35975871Y-77018389D01*
X35966156Y-77033506D01*
X35958427Y-77043830D01*
X35948189Y-77057506D01*
X35909086Y-77086780D01*
X35887868Y-77107999D01*
X35887868Y-77156601D01*
X35891694Y-77192181D01*
X35891694Y-77219116D01*
X35887369Y-77259348D01*
X35887368Y-77259369D01*
X35887368Y-77656630D01*
X35887369Y-77656654D01*
X35891441Y-77694534D01*
X35891441Y-77721466D01*
X35887369Y-77759345D01*
X35887368Y-77759369D01*
X35887368Y-78156649D01*
X35891694Y-78196881D01*
X35891694Y-78223817D01*
X35887868Y-78259398D01*
X35887868Y-78308001D01*
X35904721Y-78324854D01*
X35915441Y-78328002D01*
X35948189Y-78358492D01*
X35958427Y-78372169D01*
X35966156Y-78382494D01*
X35990964Y-78449015D01*
X35975871Y-78518389D01*
X35966156Y-78533506D01*
X35948189Y-78557506D01*
X35909086Y-78586780D01*
X35887868Y-78607999D01*
X35887868Y-78656601D01*
X35891694Y-78692181D01*
X35891694Y-78719116D01*
X35887369Y-78759348D01*
X35887368Y-78759369D01*
X35887368Y-79156630D01*
X35887369Y-79156654D01*
X35891441Y-79194534D01*
X35891441Y-79221466D01*
X35887369Y-79259345D01*
X35887368Y-79259369D01*
X35887368Y-79656630D01*
X35887369Y-79656654D01*
X35891441Y-79694534D01*
X35891441Y-79721466D01*
X35887369Y-79759345D01*
X35887368Y-79759369D01*
X35887368Y-80156630D01*
X35887369Y-80156654D01*
X35891441Y-80194534D01*
X35891441Y-80221466D01*
X35887369Y-80259345D01*
X35887368Y-80259369D01*
X35887368Y-80656630D01*
X35887369Y-80656654D01*
X35891441Y-80694534D01*
X35891441Y-80721466D01*
X35887369Y-80759345D01*
X35887368Y-80759369D01*
X35887368Y-81156630D01*
X35887369Y-81156654D01*
X35891441Y-81194534D01*
X35891441Y-81221466D01*
X35887369Y-81259345D01*
X35887368Y-81259369D01*
X35887368Y-81656630D01*
X35887369Y-81656654D01*
X35891441Y-81694534D01*
X35891441Y-81721466D01*
X35887369Y-81759345D01*
X35887368Y-81759369D01*
X35887368Y-82156630D01*
X35887369Y-82156654D01*
X35891441Y-82194534D01*
X35891441Y-82221466D01*
X35887369Y-82259345D01*
X35887368Y-82259369D01*
X35887368Y-82656630D01*
X35887369Y-82656654D01*
X35891441Y-82694534D01*
X35891441Y-82721466D01*
X35887369Y-82759345D01*
X35887368Y-82759369D01*
X35887368Y-83156630D01*
X35887369Y-83156654D01*
X35891441Y-83194534D01*
X35891441Y-83221466D01*
X35887369Y-83259345D01*
X35887368Y-83259369D01*
X35887368Y-83656630D01*
X35887369Y-83656654D01*
X35891441Y-83694534D01*
X35891441Y-83721466D01*
X35887369Y-83759345D01*
X35887368Y-83759369D01*
X35887368Y-84156630D01*
X35887369Y-84156654D01*
X35891441Y-84194534D01*
X35891441Y-84221466D01*
X35887369Y-84259345D01*
X35887368Y-84259369D01*
X35887368Y-84656630D01*
X35887369Y-84656654D01*
X35891441Y-84694534D01*
X35891441Y-84721466D01*
X35887369Y-84759345D01*
X35887368Y-84759369D01*
X35887368Y-85156630D01*
X35887369Y-85156654D01*
X35891441Y-85194534D01*
X35891441Y-85221466D01*
X35887369Y-85259345D01*
X35887368Y-85259369D01*
X35887368Y-85656649D01*
X35891694Y-85696881D01*
X35891694Y-85723817D01*
X35887868Y-85759398D01*
X35887868Y-85823500D01*
X35867866Y-85891621D01*
X35814210Y-85938114D01*
X35761868Y-85949500D01*
X34972218Y-85949500D01*
X34911671Y-85956009D01*
X34911663Y-85956011D01*
X34774665Y-86007110D01*
X34774660Y-86007112D01*
X34657606Y-86094738D01*
X34569980Y-86211792D01*
X34569978Y-86211797D01*
X34518879Y-86348795D01*
X34518877Y-86348803D01*
X34512368Y-86409350D01*
X34512368Y-87223011D01*
X34492366Y-87291132D01*
X34438710Y-87337625D01*
X34386368Y-87349011D01*
X32981932Y-87349011D01*
X32913811Y-87329009D01*
X32867318Y-87275353D01*
X32857214Y-87205079D01*
X32869665Y-87165809D01*
X32892572Y-87120850D01*
X32892573Y-87120849D01*
X32944886Y-86959847D01*
X32971368Y-86792644D01*
X32971368Y-86623356D01*
X32944886Y-86456153D01*
X32892573Y-86295151D01*
X32815718Y-86144315D01*
X32716214Y-86007359D01*
X32716211Y-86007356D01*
X32716209Y-86007353D01*
X32596514Y-85887658D01*
X32596511Y-85887656D01*
X32596509Y-85887654D01*
X32459553Y-85788150D01*
X32308717Y-85711295D01*
X32308716Y-85711294D01*
X32308713Y-85711293D01*
X32147720Y-85658983D01*
X32147716Y-85658982D01*
X32147715Y-85658982D01*
X31980512Y-85632500D01*
X31811224Y-85632500D01*
X31644021Y-85658982D01*
X31644015Y-85658983D01*
X31483022Y-85711293D01*
X31332179Y-85788152D01*
X31195224Y-85887656D01*
X31195221Y-85887658D01*
X31119463Y-85963417D01*
X31057151Y-85997443D01*
X30986336Y-85992378D01*
X30929500Y-85949831D01*
X30904689Y-85883311D01*
X30904368Y-85874322D01*
X30904368Y-85509366D01*
X30904367Y-85509354D01*
X30900294Y-85471470D01*
X30900294Y-85444530D01*
X30904367Y-85406645D01*
X30904368Y-85406633D01*
X30904368Y-85009366D01*
X30904367Y-85009354D01*
X30900294Y-84971470D01*
X30900294Y-84944530D01*
X30904367Y-84906645D01*
X30904368Y-84906633D01*
X30904368Y-84509366D01*
X30904367Y-84509354D01*
X30900294Y-84471468D01*
X30900294Y-84444530D01*
X30900466Y-84442928D01*
X30904368Y-84406638D01*
X30904368Y-84009362D01*
X30900294Y-83971468D01*
X30900294Y-83944530D01*
X30904367Y-83906645D01*
X30904368Y-83906633D01*
X30904368Y-83509366D01*
X30904367Y-83509354D01*
X30901663Y-83484206D01*
X30900294Y-83471468D01*
X30900294Y-83444530D01*
X30900297Y-83444500D01*
X30904368Y-83406638D01*
X30904368Y-83009362D01*
X30900294Y-82971468D01*
X30900294Y-82944530D01*
X30903117Y-82918276D01*
X30904368Y-82906638D01*
X30904368Y-82509362D01*
X30900294Y-82471468D01*
X30900294Y-82444530D01*
X30904367Y-82406645D01*
X30904368Y-82406633D01*
X30904368Y-82009366D01*
X30904367Y-82009354D01*
X30902317Y-81990287D01*
X30900294Y-81971468D01*
X30900294Y-81944530D01*
X30904368Y-81906638D01*
X30904368Y-81509362D01*
X30900294Y-81471468D01*
X30900294Y-81444530D01*
X30902438Y-81424588D01*
X30904368Y-81406638D01*
X30904368Y-81009362D01*
X30900294Y-80971468D01*
X30900294Y-80944530D01*
X30904367Y-80906645D01*
X30904368Y-80906633D01*
X30904368Y-80509366D01*
X30904367Y-80509354D01*
X30900294Y-80471470D01*
X30900294Y-80444530D01*
X30903065Y-80418756D01*
X30904368Y-80406638D01*
X30904368Y-80009362D01*
X30900294Y-79971468D01*
X30900294Y-79944530D01*
X30901745Y-79931031D01*
X30904368Y-79906638D01*
X30904368Y-79509362D01*
X30900294Y-79471468D01*
X30900294Y-79444530D01*
X30904368Y-79406638D01*
X30904368Y-79009362D01*
X30900294Y-78971465D01*
X30900294Y-78944530D01*
X30904367Y-78906645D01*
X30904368Y-78906633D01*
X30904368Y-78509366D01*
X30904367Y-78509354D01*
X30900294Y-78471470D01*
X30900294Y-78444530D01*
X30901315Y-78435032D01*
X30904368Y-78406638D01*
X30904368Y-78009362D01*
X30900294Y-77971468D01*
X30900294Y-77944530D01*
X30900790Y-77939921D01*
X30904368Y-77906638D01*
X30904368Y-77509362D01*
X30900294Y-77471468D01*
X30900294Y-77444530D01*
X30904368Y-77406638D01*
X30904368Y-77009362D01*
X30900294Y-76971468D01*
X30900294Y-76944530D01*
X30902441Y-76924561D01*
X30904368Y-76906638D01*
X30904368Y-76509362D01*
X30900041Y-76469113D01*
X30900041Y-76442177D01*
X30903867Y-76406593D01*
X30903868Y-76406586D01*
X30903868Y-76357999D01*
X30887014Y-76341145D01*
X30876295Y-76337998D01*
X30843549Y-76307511D01*
X30841183Y-76304350D01*
X30825580Y-76283508D01*
X30800770Y-76216992D01*
X30815860Y-76147617D01*
X30825575Y-76132498D01*
X30843549Y-76108488D01*
X30882648Y-76079220D01*
X30903868Y-76058001D01*
X30903868Y-76009413D01*
X30903867Y-76009406D01*
X30900041Y-75973821D01*
X30900041Y-75946886D01*
X30904368Y-75906638D01*
X30904368Y-75509362D01*
X30900294Y-75471468D01*
X30900294Y-75444530D01*
X30904367Y-75406645D01*
X30904368Y-75406633D01*
X30904368Y-75009367D01*
X30904367Y-75009350D01*
X30897858Y-74948803D01*
X30897856Y-74948795D01*
X30863824Y-74857555D01*
X30846757Y-74811796D01*
X30846756Y-74811794D01*
X30846755Y-74811792D01*
X30759129Y-74694738D01*
X30642075Y-74607112D01*
X30642070Y-74607110D01*
X30505072Y-74556011D01*
X30505064Y-74556009D01*
X30444517Y-74549500D01*
X30444506Y-74549500D01*
X28797230Y-74549500D01*
X28797218Y-74549500D01*
X28736671Y-74556009D01*
X28736663Y-74556011D01*
X28641371Y-74591555D01*
X28597338Y-74599500D01*
X28307752Y-74599500D01*
X28239631Y-74579498D01*
X28218657Y-74562595D01*
X26898922Y-73242860D01*
X26864896Y-73180548D01*
X26862017Y-73153765D01*
X26862017Y-73153001D01*
X26851307Y-73051105D01*
X26842055Y-72963072D01*
X26783040Y-72781444D01*
X26687553Y-72616056D01*
X26632651Y-72555081D01*
X26607196Y-72526810D01*
X26576479Y-72462802D01*
X26585244Y-72392349D01*
X26630707Y-72337818D01*
X26698435Y-72316523D01*
X26700833Y-72316500D01*
X28214497Y-72316500D01*
X28282618Y-72336502D01*
X28329111Y-72390158D01*
X28339775Y-72429035D01*
X28341441Y-72444535D01*
X28341441Y-72471466D01*
X28337369Y-72509345D01*
X28337368Y-72509369D01*
X28337368Y-72906649D01*
X28343877Y-72967196D01*
X28343879Y-72967204D01*
X28394978Y-73104202D01*
X28394980Y-73104207D01*
X28482606Y-73221261D01*
X28599660Y-73308887D01*
X28599662Y-73308888D01*
X28599664Y-73308889D01*
X28658743Y-73330924D01*
X28736663Y-73359988D01*
X28736671Y-73359990D01*
X28797218Y-73366499D01*
X28797223Y-73366499D01*
X28797230Y-73366500D01*
X28797236Y-73366500D01*
X30444500Y-73366500D01*
X30444506Y-73366500D01*
X30444513Y-73366499D01*
X30444517Y-73366499D01*
X30505064Y-73359990D01*
X30505067Y-73359989D01*
X30505069Y-73359989D01*
X30510019Y-73358143D01*
X30523913Y-73352960D01*
X30642072Y-73308889D01*
X30759129Y-73221261D01*
X30789012Y-73181342D01*
X30846755Y-73104207D01*
X30846755Y-73104206D01*
X30846757Y-73104204D01*
X30895114Y-72974555D01*
X30897856Y-72967204D01*
X30897858Y-72967196D01*
X30904367Y-72906649D01*
X30904368Y-72906632D01*
X30904368Y-72509366D01*
X30904367Y-72509354D01*
X30902807Y-72494841D01*
X30900294Y-72471466D01*
X30900294Y-72444530D01*
X30902998Y-72419379D01*
X30904368Y-72406638D01*
X30904368Y-72009362D01*
X30900294Y-71971468D01*
X30900294Y-71944530D01*
X30900789Y-71939924D01*
X30904368Y-71906638D01*
X30904368Y-71509362D01*
X30900294Y-71471468D01*
X30900294Y-71444530D01*
X30902079Y-71427925D01*
X30904368Y-71406638D01*
X30904368Y-71009362D01*
X30900294Y-70971468D01*
X30900294Y-70944530D01*
X30904367Y-70906645D01*
X30904368Y-70906633D01*
X30904368Y-70509366D01*
X30904367Y-70509354D01*
X30900294Y-70471470D01*
X30900294Y-70444530D01*
X30904368Y-70406638D01*
X30904368Y-70009362D01*
X30900294Y-69971468D01*
X30900294Y-69944530D01*
X30904367Y-69906645D01*
X30904368Y-69906633D01*
X30904368Y-69509366D01*
X30904367Y-69509354D01*
X30900294Y-69471470D01*
X30900294Y-69444530D01*
X30904368Y-69406638D01*
X30904368Y-69009362D01*
X30900294Y-68971465D01*
X30900294Y-68944530D01*
X30904367Y-68906645D01*
X30904368Y-68906633D01*
X30904368Y-68509366D01*
X30904367Y-68509354D01*
X30900294Y-68471470D01*
X30900294Y-68444530D01*
X30904367Y-68406645D01*
X30904368Y-68406633D01*
X30904368Y-68009366D01*
X30904367Y-68009354D01*
X30900294Y-67971470D01*
X30900294Y-67944530D01*
X30904367Y-67906645D01*
X30904368Y-67906633D01*
X30904368Y-67509367D01*
X30904367Y-67509350D01*
X30897858Y-67448803D01*
X30897856Y-67448795D01*
X30846757Y-67311797D01*
X30846755Y-67311792D01*
X30759129Y-67194738D01*
X30642075Y-67107112D01*
X30642070Y-67107110D01*
X30505072Y-67056011D01*
X30505064Y-67056009D01*
X30444517Y-67049500D01*
X30444506Y-67049500D01*
X29685725Y-67049500D01*
X25828463Y-67049500D01*
X25760342Y-67029498D01*
X25739368Y-67012595D01*
X25353464Y-66626691D01*
X31070368Y-66626691D01*
X31070368Y-66789308D01*
X31102092Y-66948789D01*
X31102093Y-66948792D01*
X31121233Y-66994999D01*
X31164320Y-67099021D01*
X31254660Y-67234225D01*
X31369643Y-67349208D01*
X31504847Y-67439548D01*
X31655079Y-67501776D01*
X31814563Y-67533500D01*
X31977173Y-67533500D01*
X32136657Y-67501776D01*
X32286889Y-67439548D01*
X32422093Y-67349208D01*
X32537076Y-67234225D01*
X32627416Y-67099021D01*
X32689644Y-66948789D01*
X32721368Y-66789305D01*
X32721368Y-66626695D01*
X32689644Y-66467211D01*
X32627416Y-66316979D01*
X32537076Y-66181775D01*
X32422093Y-66066792D01*
X32286889Y-65976452D01*
X32192153Y-65937211D01*
X32136660Y-65914225D01*
X32136657Y-65914224D01*
X31977176Y-65882500D01*
X31977173Y-65882500D01*
X31814563Y-65882500D01*
X31814559Y-65882500D01*
X31655078Y-65914224D01*
X31655075Y-65914225D01*
X31504847Y-65976452D01*
X31369644Y-66066791D01*
X31369638Y-66066796D01*
X31254664Y-66181770D01*
X31254659Y-66181776D01*
X31164320Y-66316979D01*
X31102093Y-66467207D01*
X31102092Y-66467210D01*
X31070368Y-66626691D01*
X25353464Y-66626691D01*
X22703867Y-63977094D01*
X22669841Y-63914782D01*
X22674906Y-63843967D01*
X22717453Y-63787131D01*
X22783973Y-63762320D01*
X22792962Y-63761999D01*
X29463370Y-63761999D01*
X29590590Y-63736693D01*
X29710430Y-63687054D01*
X29818282Y-63614990D01*
X29905569Y-63527703D01*
X29967881Y-63493677D01*
X29994664Y-63490798D01*
X47624513Y-63490798D01*
X47692634Y-63510800D01*
G37*
%TD.AperFunction*%
%TA.AperFunction,Conductor*%
G36*
X38596969Y-86227845D02*
G01*
X38625679Y-86249338D01*
X39021398Y-86645057D01*
X39055424Y-86707369D01*
X39055539Y-86756492D01*
X39055661Y-86756505D01*
X39055542Y-86757631D01*
X39055549Y-86760350D01*
X39054971Y-86763068D01*
X39035009Y-86953000D01*
X39054970Y-87142928D01*
X39068340Y-87184075D01*
X39070368Y-87255042D01*
X39033705Y-87315840D01*
X38969993Y-87347166D01*
X38948507Y-87349011D01*
X38405368Y-87349011D01*
X38337247Y-87329009D01*
X38290754Y-87275353D01*
X38279368Y-87223011D01*
X38279368Y-86552119D01*
X38299370Y-86483998D01*
X38304500Y-86476609D01*
X38396312Y-86353963D01*
X38418528Y-86294401D01*
X38461074Y-86237565D01*
X38527594Y-86212754D01*
X38596969Y-86227845D01*
G37*
%TD.AperFunction*%
%TA.AperFunction,Conductor*%
G36*
X21341684Y-64481502D02*
G01*
X21362658Y-64498405D01*
X25083744Y-68219491D01*
X25191596Y-68291555D01*
X25311436Y-68341194D01*
X25438656Y-68366500D01*
X28212455Y-68366500D01*
X28280576Y-68386502D01*
X28327069Y-68440158D01*
X28337732Y-68505974D01*
X28337369Y-68509347D01*
X28337368Y-68509369D01*
X28337368Y-68906630D01*
X28337369Y-68906654D01*
X28341441Y-68944534D01*
X28341441Y-68971465D01*
X28339775Y-68986965D01*
X28312608Y-69052558D01*
X28254291Y-69093051D01*
X28214497Y-69099500D01*
X21713402Y-69099500D01*
X21643885Y-69118127D01*
X21643884Y-69118126D01*
X21558639Y-69140968D01*
X21419889Y-69221075D01*
X21419879Y-69221083D01*
X20361596Y-70279366D01*
X20361588Y-70279376D01*
X20281482Y-70418123D01*
X20281479Y-70418130D01*
X20274302Y-70444919D01*
X20274302Y-70444921D01*
X20246574Y-70548405D01*
X20240013Y-70572890D01*
X20240013Y-74433114D01*
X20247467Y-74460933D01*
X20247468Y-74460933D01*
X20281406Y-74587594D01*
X20281481Y-74587872D01*
X20281483Y-74587877D01*
X20361588Y-74726623D01*
X20361590Y-74726625D01*
X20361591Y-74726627D01*
X21298105Y-75663141D01*
X21332129Y-75725452D01*
X21335009Y-75752235D01*
X21335009Y-75752999D01*
X21354970Y-75942927D01*
X21379244Y-76017632D01*
X21413986Y-76124556D01*
X21438329Y-76166720D01*
X21509471Y-76289941D01*
X21509478Y-76289951D01*
X21637257Y-76431864D01*
X21694790Y-76473664D01*
X21791761Y-76544118D01*
X21966225Y-76621794D01*
X22153026Y-76661500D01*
X22344003Y-76661500D01*
X22387814Y-76652187D01*
X22458605Y-76657588D01*
X22515238Y-76700404D01*
X22539733Y-76767041D01*
X22540013Y-76775433D01*
X22540013Y-81035267D01*
X22533846Y-81074203D01*
X22504970Y-81163071D01*
X22485009Y-81353000D01*
X22504970Y-81542927D01*
X22519593Y-81587930D01*
X22563986Y-81724556D01*
X22584081Y-81759362D01*
X22659471Y-81889941D01*
X22659478Y-81889951D01*
X22787257Y-82031864D01*
X22793876Y-82036673D01*
X22941761Y-82144118D01*
X23116225Y-82221794D01*
X23303026Y-82261500D01*
X23494000Y-82261500D01*
X23680801Y-82221794D01*
X23855265Y-82144118D01*
X24009766Y-82031866D01*
X24055298Y-81981298D01*
X24137547Y-81889951D01*
X24137548Y-81889949D01*
X24137553Y-81889944D01*
X24233040Y-81724556D01*
X24292055Y-81542928D01*
X24305846Y-81411710D01*
X24332859Y-81346054D01*
X24391080Y-81305424D01*
X24462025Y-81302721D01*
X24520249Y-81335784D01*
X24879387Y-81694922D01*
X24879388Y-81694923D01*
X24879390Y-81694924D01*
X24916520Y-81716361D01*
X24965513Y-81767744D01*
X24978949Y-81837457D01*
X24952563Y-81903368D01*
X24942616Y-81914575D01*
X24551086Y-82306107D01*
X24488774Y-82340132D01*
X24461990Y-82343012D01*
X24370743Y-82343012D01*
X24183941Y-82382718D01*
X24009477Y-82460394D01*
X23854974Y-82572647D01*
X23727195Y-82714560D01*
X23727188Y-82714570D01*
X23631706Y-82879950D01*
X23631703Y-82879956D01*
X23623031Y-82906645D01*
X23572687Y-83061584D01*
X23562696Y-83156654D01*
X23555020Y-83229683D01*
X23528008Y-83295339D01*
X23469787Y-83335969D01*
X23429711Y-83342512D01*
X20110737Y-83342512D01*
X20042616Y-83322510D01*
X20021642Y-83305607D01*
X13039562Y-76323527D01*
X13005536Y-76261215D01*
X13010601Y-76190400D01*
X13053148Y-76133564D01*
X13083503Y-76116801D01*
X13365378Y-76008599D01*
X13365386Y-76008595D01*
X13702334Y-75836912D01*
X13702340Y-75836908D01*
X14019509Y-75630937D01*
X14262679Y-75434020D01*
X13197487Y-74368828D01*
X13290073Y-74297786D01*
X13485654Y-74102205D01*
X13556696Y-74009619D01*
X14621888Y-75074811D01*
X14818805Y-74831641D01*
X15024776Y-74514472D01*
X15024780Y-74514466D01*
X15196463Y-74177518D01*
X15196467Y-74177510D01*
X15331987Y-73824469D01*
X15429867Y-73459173D01*
X15489028Y-73085647D01*
X15508819Y-72708006D01*
X15508819Y-72707993D01*
X15489028Y-72330352D01*
X15429867Y-71956826D01*
X15331987Y-71591530D01*
X15196467Y-71238489D01*
X15196463Y-71238481D01*
X15024774Y-70901524D01*
X14818812Y-70584368D01*
X14818807Y-70584361D01*
X14621888Y-70341187D01*
X13556696Y-71406379D01*
X13485654Y-71313795D01*
X13290073Y-71118214D01*
X13197487Y-71047170D01*
X14262679Y-69981978D01*
X14019509Y-69785062D01*
X13702340Y-69579091D01*
X13702334Y-69579087D01*
X13365386Y-69407404D01*
X13365378Y-69407400D01*
X13012337Y-69271880D01*
X12647041Y-69174000D01*
X12273515Y-69114839D01*
X11895874Y-69095049D01*
X11895862Y-69095049D01*
X11518220Y-69114839D01*
X11144694Y-69174000D01*
X10779398Y-69271880D01*
X10426357Y-69407400D01*
X10426349Y-69407404D01*
X10089392Y-69579093D01*
X9772226Y-69785063D01*
X9772222Y-69785065D01*
X9529056Y-69981977D01*
X9529055Y-69981978D01*
X10594248Y-71047171D01*
X10501663Y-71118214D01*
X10306082Y-71313795D01*
X10235039Y-71406380D01*
X9169846Y-70341187D01*
X9169845Y-70341188D01*
X8972933Y-70584354D01*
X8972931Y-70584358D01*
X8766961Y-70901524D01*
X8595272Y-71238481D01*
X8595268Y-71238489D01*
X8459748Y-71591530D01*
X8361868Y-71956826D01*
X8302707Y-72330352D01*
X8282917Y-72707993D01*
X8282917Y-72708007D01*
X8286721Y-72780609D01*
X8270311Y-72849683D01*
X8219162Y-72898920D01*
X8149513Y-72912687D01*
X8097894Y-72896321D01*
X7993364Y-72835970D01*
X7993361Y-72835969D01*
X7993360Y-72835968D01*
X7993358Y-72835967D01*
X7993357Y-72835967D01*
X7915978Y-72815234D01*
X7901983Y-72811484D01*
X7838598Y-72794500D01*
X7838596Y-72794500D01*
X-1068173Y-72794500D01*
X-1136294Y-72774498D01*
X-1182787Y-72720842D01*
X-1193483Y-72655330D01*
X-1192618Y-72647091D01*
X-1187983Y-72603000D01*
X-1187983Y-72602998D01*
X-1187983Y-72602234D01*
X-1187858Y-72601807D01*
X-1187293Y-72596433D01*
X-1186311Y-72596536D01*
X-1167981Y-72534113D01*
X-1151084Y-72513144D01*
X-1032423Y-72394483D01*
X-970115Y-72360461D01*
X-929862Y-72358303D01*
X-900135Y-72361499D01*
X-900134Y-72361499D01*
X-900125Y-72361500D01*
X-900119Y-72361500D01*
X197145Y-72361500D01*
X197151Y-72361500D01*
X197158Y-72361499D01*
X197162Y-72361499D01*
X257709Y-72354990D01*
X257712Y-72354989D01*
X257714Y-72354989D01*
X260369Y-72353999D01*
X276558Y-72347960D01*
X394717Y-72303889D01*
X398458Y-72301089D01*
X511774Y-72216261D01*
X599400Y-72099207D01*
X599400Y-72099206D01*
X599402Y-72099204D01*
X650502Y-71962201D01*
X652196Y-71946449D01*
X657012Y-71901649D01*
X657013Y-71901632D01*
X657013Y-71054367D01*
X657012Y-71054350D01*
X4640013Y-71054350D01*
X4640013Y-71901649D01*
X4646522Y-71962196D01*
X4646524Y-71962204D01*
X4697623Y-72099202D01*
X4697625Y-72099207D01*
X4785251Y-72216261D01*
X4902305Y-72303887D01*
X4902307Y-72303888D01*
X4902309Y-72303889D01*
X4936120Y-72316500D01*
X5039308Y-72354988D01*
X5039316Y-72354990D01*
X5099863Y-72361499D01*
X5099868Y-72361499D01*
X5099875Y-72361500D01*
X5099881Y-72361500D01*
X6197145Y-72361500D01*
X6197151Y-72361500D01*
X6197158Y-72361499D01*
X6197162Y-72361499D01*
X6257709Y-72354990D01*
X6257712Y-72354989D01*
X6257714Y-72354989D01*
X6260369Y-72353999D01*
X6276558Y-72347960D01*
X6394717Y-72303889D01*
X6398458Y-72301089D01*
X6511774Y-72216261D01*
X6599400Y-72099207D01*
X6599400Y-72099206D01*
X6599402Y-72099204D01*
X6650502Y-71962201D01*
X6652196Y-71946449D01*
X6657012Y-71901649D01*
X6657013Y-71901632D01*
X6657013Y-71054367D01*
X6657012Y-71054350D01*
X6650503Y-70993803D01*
X6650501Y-70993795D01*
X6612148Y-70890970D01*
X6599402Y-70856796D01*
X6599401Y-70856794D01*
X6599400Y-70856792D01*
X6511774Y-70739738D01*
X6394720Y-70652112D01*
X6394715Y-70652110D01*
X6257717Y-70601011D01*
X6257709Y-70601009D01*
X6197162Y-70594500D01*
X6197151Y-70594500D01*
X5099875Y-70594500D01*
X5099863Y-70594500D01*
X5039316Y-70601009D01*
X5039308Y-70601011D01*
X4902310Y-70652110D01*
X4902305Y-70652112D01*
X4785251Y-70739738D01*
X4697625Y-70856792D01*
X4697623Y-70856797D01*
X4646524Y-70993795D01*
X4646522Y-70993803D01*
X4640013Y-71054350D01*
X657012Y-71054350D01*
X650503Y-70993803D01*
X650501Y-70993795D01*
X612148Y-70890970D01*
X599402Y-70856796D01*
X599401Y-70856794D01*
X599400Y-70856792D01*
X511774Y-70739738D01*
X509943Y-70738368D01*
X508570Y-70736534D01*
X505402Y-70733366D01*
X505857Y-70732910D01*
X467396Y-70681533D01*
X462331Y-70610717D01*
X496357Y-70548405D01*
X558669Y-70514379D01*
X585452Y-70511500D01*
X3463370Y-70511500D01*
X3590590Y-70486194D01*
X3710430Y-70436555D01*
X3818282Y-70364491D01*
X5660004Y-68522769D01*
X5732068Y-68414917D01*
X5752124Y-68366499D01*
X5781706Y-68295083D01*
X5781706Y-68295080D01*
X5781708Y-68295077D01*
X5807013Y-68167856D01*
X5807013Y-68038143D01*
X5807013Y-64587500D01*
X5827015Y-64519379D01*
X5880671Y-64472886D01*
X5933013Y-64461500D01*
X21273563Y-64461500D01*
X21341684Y-64481502D01*
G37*
%TD.AperFunction*%
%TA.AperFunction,Conductor*%
G36*
X-20491955Y-71878893D02*
G01*
X-20435119Y-71921440D01*
X-20410308Y-71987960D01*
X-20409987Y-71996949D01*
X-20409987Y-75115611D01*
X-20384681Y-75242828D01*
X-20384680Y-75242831D01*
X-20347129Y-75333487D01*
X-20335042Y-75362668D01*
X-20262978Y-75470520D01*
X-20262974Y-75470524D01*
X-18019594Y-77713904D01*
X-17985568Y-77776216D01*
X-17990633Y-77847031D01*
X-18019594Y-77892094D01*
X-22197892Y-82070393D01*
X-22260204Y-82104419D01*
X-22331019Y-82099354D01*
X-22387855Y-82056807D01*
X-22412666Y-81990287D01*
X-22412987Y-81981298D01*
X-22412987Y-73747949D01*
X-22392985Y-73679828D01*
X-22376087Y-73658859D01*
X-20625082Y-71907853D01*
X-20562770Y-71873828D01*
X-20491955Y-71878893D01*
G37*
%TD.AperFunction*%
%TA.AperFunction,Conductor*%
G36*
X-4751680Y-78081502D02*
G01*
X-4705187Y-78135158D01*
X-4703399Y-78139266D01*
X-4656594Y-78252221D01*
X-4656592Y-78252226D01*
X-4557156Y-78401005D01*
X-4557155Y-78401006D01*
X-4430601Y-78527533D01*
X-4430599Y-78527535D01*
X-4281799Y-78626941D01*
X-4281795Y-78626943D01*
X-4281792Y-78626945D01*
X-4116452Y-78695416D01*
X-3940931Y-78730317D01*
X-3851453Y-78730311D01*
X-3793786Y-78730307D01*
X-3769925Y-78730307D01*
X-3769477Y-78730279D01*
X-3761985Y-78730279D01*
X-3761983Y-78730279D01*
X-3705871Y-78719116D01*
X-3586491Y-78695367D01*
X-3586491Y-78695366D01*
X-3586484Y-78695365D01*
X-3421166Y-78626887D01*
X-3321530Y-78560314D01*
X-3253777Y-78539101D01*
X-3185311Y-78557885D01*
X-3181565Y-78560292D01*
X-3141915Y-78586780D01*
X-3081799Y-78626941D01*
X-3081795Y-78626943D01*
X-3081792Y-78626945D01*
X-2916452Y-78695416D01*
X-2740931Y-78730317D01*
X-2651453Y-78730311D01*
X-2593786Y-78730307D01*
X-2569925Y-78730307D01*
X-2569477Y-78730279D01*
X-2561985Y-78730279D01*
X-2561983Y-78730279D01*
X-2505871Y-78719116D01*
X-2386491Y-78695367D01*
X-2386491Y-78695366D01*
X-2386484Y-78695365D01*
X-2221166Y-78626887D01*
X-2072382Y-78527477D01*
X-1945847Y-78400954D01*
X-1846423Y-78252179D01*
X-1799642Y-78139271D01*
X-1755089Y-78083994D01*
X-1687723Y-78061580D01*
X-1683238Y-78061500D01*
X11874260Y-78061500D01*
X11942381Y-78081502D01*
X11963355Y-78098405D01*
X14494844Y-80629894D01*
X14528870Y-80692206D01*
X14523805Y-80763021D01*
X14481258Y-80819857D01*
X14414738Y-80844668D01*
X14405749Y-80844989D01*
X-5900179Y-80844989D01*
X-5968300Y-80824987D01*
X-6014793Y-80771331D01*
X-6016584Y-80767215D01*
X-6018322Y-80763021D01*
X-6046893Y-80694058D01*
X-6146315Y-80545279D01*
X-6146321Y-80545272D01*
X-6272839Y-80418760D01*
X-6272844Y-80418756D01*
X-6272848Y-80418752D01*
X-6421631Y-80319337D01*
X-6526626Y-80275842D01*
X-6586955Y-80250850D01*
X-6762445Y-80215932D01*
X-6762456Y-80215931D01*
X-6851917Y-80215925D01*
X-6851918Y-80215924D01*
X-6851919Y-80215925D01*
X-6932760Y-80215917D01*
X-6933907Y-80215985D01*
X-6941394Y-80215985D01*
X-7116907Y-80250878D01*
X-7282237Y-80319339D01*
X-7282241Y-80319342D01*
X-7431042Y-80418744D01*
X-7431044Y-80418745D01*
X-7431047Y-80418748D01*
X-7557591Y-80545263D01*
X-7657030Y-80694045D01*
X-7657031Y-80694047D01*
X-7687350Y-80767221D01*
X-7731905Y-80822497D01*
X-7799271Y-80844909D01*
X-7803753Y-80844989D01*
X-8532088Y-80844989D01*
X-8577328Y-80857110D01*
X-8577327Y-80857111D01*
X-8686847Y-80886456D01*
X-8686854Y-80886459D01*
X-8825600Y-80966564D01*
X-8825606Y-80966569D01*
X-8902893Y-81043856D01*
X-8965206Y-81077881D01*
X-9036021Y-81072815D01*
X-9092857Y-81030268D01*
X-9117667Y-80963748D01*
X-9117988Y-80954760D01*
X-9117988Y-79977455D01*
X-9128600Y-79873574D01*
X-9130569Y-79867633D01*
X-9184372Y-79705262D01*
X-9277457Y-79554348D01*
X-9277458Y-79554347D01*
X-9277463Y-79554341D01*
X-9402829Y-79428975D01*
X-9402835Y-79428970D01*
X-9408433Y-79425517D01*
X-9553749Y-79335885D01*
X-9657068Y-79301649D01*
X-9722060Y-79280113D01*
X-9722067Y-79280112D01*
X-9825934Y-79269500D01*
X-10527607Y-79269500D01*
X-10595728Y-79249498D01*
X-10642221Y-79195842D01*
X-10652325Y-79125568D01*
X-10622831Y-79060988D01*
X-10593749Y-79036256D01*
X-10578146Y-79026632D01*
X-10578142Y-79026629D01*
X-10452858Y-78901345D01*
X-10452853Y-78901339D01*
X-10359830Y-78750525D01*
X-10304094Y-78582321D01*
X-10304093Y-78582318D01*
X-10293488Y-78478516D01*
X-10293487Y-78478516D01*
X-10293487Y-78187500D01*
X-10273485Y-78119379D01*
X-10219829Y-78072886D01*
X-10167487Y-78061500D01*
X-4819801Y-78061500D01*
X-4751680Y-78081502D01*
G37*
%TD.AperFunction*%
%TA.AperFunction,Conductor*%
G36*
X25062730Y-74337291D02*
G01*
X25096233Y-74361269D01*
X26816591Y-76081627D01*
X26816592Y-76081628D01*
X26929885Y-76194921D01*
X26929886Y-76194922D01*
X26929888Y-76194923D01*
X27014544Y-76243799D01*
X27068641Y-76275032D01*
X27223402Y-76316500D01*
X27383623Y-76316500D01*
X28215002Y-76316500D01*
X28283123Y-76336502D01*
X28329616Y-76390158D01*
X28340280Y-76429028D01*
X28341694Y-76442177D01*
X28341694Y-76469117D01*
X28339775Y-76486968D01*
X28312607Y-76552560D01*
X28254289Y-76593052D01*
X28214497Y-76599500D01*
X25707752Y-76599500D01*
X25639631Y-76579498D01*
X25618657Y-76562595D01*
X24693918Y-75637856D01*
X24659892Y-75575544D01*
X24657013Y-75548761D01*
X24657013Y-74783290D01*
X24677015Y-74715169D01*
X24689373Y-74698983D01*
X24787553Y-74589944D01*
X24883040Y-74424556D01*
X24887305Y-74411427D01*
X24927377Y-74352824D01*
X24992773Y-74325186D01*
X25062730Y-74337291D01*
G37*
%TD.AperFunction*%
%TA.AperFunction,Conductor*%
G36*
X-18239206Y-71429371D02*
G01*
X-18182370Y-71471918D01*
X-18157559Y-71538438D01*
X-18157238Y-71547427D01*
X-18157238Y-71751597D01*
X-18150733Y-71812093D01*
X-18099683Y-71948964D01*
X-18099683Y-71948965D01*
X-18012143Y-72065904D01*
X-17895204Y-72153444D01*
X-17758332Y-72204494D01*
X-17697836Y-72210999D01*
X-17697823Y-72211000D01*
X-17333738Y-72211000D01*
X-17265617Y-72231002D01*
X-17219124Y-72284658D01*
X-17207738Y-72337000D01*
X-17207738Y-72701649D01*
X-17201229Y-72762195D01*
X-17201227Y-72762202D01*
X-17183784Y-72808969D01*
X-17178720Y-72879785D01*
X-17183784Y-72897031D01*
X-17201227Y-72943797D01*
X-17201229Y-72943804D01*
X-17207738Y-73004350D01*
X-17207738Y-73801649D01*
X-17201229Y-73862195D01*
X-17201227Y-73862202D01*
X-17183784Y-73908969D01*
X-17178720Y-73979785D01*
X-17183784Y-73997031D01*
X-17201227Y-74043797D01*
X-17201229Y-74043804D01*
X-17207738Y-74104350D01*
X-17207738Y-74901649D01*
X-17201229Y-74962195D01*
X-17201228Y-74962199D01*
X-17183517Y-75009683D01*
X-17178453Y-75080499D01*
X-17183517Y-75097746D01*
X-17200733Y-75143904D01*
X-17207238Y-75204402D01*
X-17207238Y-75349000D01*
X-16847229Y-75349000D01*
X-16816435Y-75354556D01*
X-16816108Y-75353177D01*
X-16808439Y-75354989D01*
X-16747888Y-75361499D01*
X-16747883Y-75361499D01*
X-16747876Y-75361500D01*
X-16747870Y-75361500D01*
X-15050606Y-75361500D01*
X-15050600Y-75361500D01*
X-15050593Y-75361499D01*
X-15050589Y-75361499D01*
X-15009775Y-75357111D01*
X-14990037Y-75354989D01*
X-14990036Y-75354988D01*
X-14982368Y-75353177D01*
X-14982042Y-75354556D01*
X-14951247Y-75349000D01*
X-14591238Y-75349000D01*
X-14591238Y-75237500D01*
X-14571236Y-75169379D01*
X-14517580Y-75122886D01*
X-14465238Y-75111500D01*
X-12988594Y-75111500D01*
X-12920473Y-75131502D01*
X-12899499Y-75148405D01*
X-12168499Y-75879405D01*
X-12134473Y-75941717D01*
X-12139538Y-76012532D01*
X-12182085Y-76069368D01*
X-12248605Y-76094179D01*
X-12257594Y-76094500D01*
X-14465238Y-76094500D01*
X-14533359Y-76074498D01*
X-14579852Y-76020842D01*
X-14591238Y-75968500D01*
X-14591238Y-75857000D01*
X-14951247Y-75857000D01*
X-14982042Y-75851443D01*
X-14982368Y-75852823D01*
X-14990038Y-75851010D01*
X-15050589Y-75844500D01*
X-15050600Y-75844500D01*
X-16747876Y-75844500D01*
X-16747888Y-75844500D01*
X-16808439Y-75851010D01*
X-16816108Y-75852823D01*
X-16816435Y-75851443D01*
X-16847229Y-75857000D01*
X-17207238Y-75857000D01*
X-17207238Y-76001597D01*
X-17200733Y-76062094D01*
X-17183517Y-76108252D01*
X-17178453Y-76179068D01*
X-17183517Y-76196315D01*
X-17201227Y-76243797D01*
X-17201229Y-76243804D01*
X-17207738Y-76304350D01*
X-17207738Y-76359050D01*
X-17227740Y-76427171D01*
X-17281396Y-76473664D01*
X-17351670Y-76483768D01*
X-17416250Y-76454274D01*
X-17422833Y-76448145D01*
X-19056082Y-74814896D01*
X-19090108Y-74752584D01*
X-19092987Y-74725801D01*
X-19092987Y-72231176D01*
X-19072985Y-72163055D01*
X-19056082Y-72142081D01*
X-18372333Y-71458332D01*
X-18310021Y-71424306D01*
X-18239206Y-71429371D01*
G37*
%TD.AperFunction*%
%TA.AperFunction,Conductor*%
G36*
X-10947188Y-74007549D02*
G01*
X-10945193Y-74007866D01*
X-10945187Y-74007868D01*
X-10904466Y-74008958D01*
X-10889878Y-74011081D01*
X-10889791Y-74010421D01*
X-10881599Y-74011499D01*
X-10881598Y-74011500D01*
X-10843824Y-74011500D01*
X-10837235Y-74011672D01*
X-10800629Y-74013589D01*
X-10800620Y-74013587D01*
X-10792397Y-74012940D01*
X-10792340Y-74013670D01*
X-10777966Y-74012348D01*
X-10737705Y-74013428D01*
X-10737701Y-74013427D01*
X-10729495Y-74012570D01*
X-10729427Y-74013229D01*
X-10714781Y-74011500D01*
X7454248Y-74011500D01*
X7522369Y-74031502D01*
X7543343Y-74048405D01*
X9524343Y-76029405D01*
X9558369Y-76091717D01*
X9553304Y-76162532D01*
X9510757Y-76219368D01*
X9444237Y-76244179D01*
X9435248Y-76244500D01*
X6518660Y-76244500D01*
X6450539Y-76224498D01*
X6404046Y-76170842D01*
X6393942Y-76100568D01*
X6423436Y-76035988D01*
X6443151Y-76017632D01*
X6511774Y-75966261D01*
X6599400Y-75849207D01*
X6599400Y-75849206D01*
X6599402Y-75849204D01*
X6650502Y-75712201D01*
X6651268Y-75705081D01*
X6657012Y-75651649D01*
X6657013Y-75651632D01*
X6657013Y-74804367D01*
X6657012Y-74804350D01*
X6650503Y-74743803D01*
X6650501Y-74743795D01*
X6610865Y-74637530D01*
X6599402Y-74606796D01*
X6599401Y-74606794D01*
X6599400Y-74606792D01*
X6511774Y-74489738D01*
X6394720Y-74402112D01*
X6394715Y-74402110D01*
X6257717Y-74351011D01*
X6257709Y-74351009D01*
X6197162Y-74344500D01*
X6197151Y-74344500D01*
X5099875Y-74344500D01*
X5099863Y-74344500D01*
X5039316Y-74351009D01*
X5039308Y-74351011D01*
X4902310Y-74402110D01*
X4902305Y-74402112D01*
X4785251Y-74489738D01*
X4697625Y-74606792D01*
X4697623Y-74606797D01*
X4646524Y-74743795D01*
X4646522Y-74743803D01*
X4640013Y-74804350D01*
X4640013Y-75651649D01*
X4646522Y-75712196D01*
X4646524Y-75712204D01*
X4697623Y-75849202D01*
X4697625Y-75849207D01*
X4785251Y-75966261D01*
X4853875Y-76017632D01*
X4896422Y-76074468D01*
X4901486Y-76145283D01*
X4867461Y-76207596D01*
X4805149Y-76241621D01*
X4778366Y-76244500D01*
X517826Y-76244500D01*
X449705Y-76224498D01*
X403212Y-76170842D01*
X393108Y-76100568D01*
X422602Y-76035988D01*
X442317Y-76017632D01*
X511417Y-75965904D01*
X598957Y-75848965D01*
X598957Y-75848964D01*
X650007Y-75712093D01*
X656512Y-75651597D01*
X656513Y-75651585D01*
X656513Y-75482000D01*
X-1359487Y-75482000D01*
X-1359487Y-75651597D01*
X-1352982Y-75712093D01*
X-1301932Y-75848964D01*
X-1301932Y-75848965D01*
X-1214392Y-75965904D01*
X-1145291Y-76017632D01*
X-1102744Y-76074468D01*
X-1097680Y-76145283D01*
X-1131705Y-76207595D01*
X-1194017Y-76241621D01*
X-1220800Y-76244500D01*
X-3565156Y-76244500D01*
X-3633277Y-76224498D01*
X-3679770Y-76170842D01*
X-3681552Y-76166747D01*
X-3728302Y-76053889D01*
X-3746893Y-76009009D01*
X-3815293Y-75906643D01*
X-3846309Y-75860224D01*
X-3846315Y-75860218D01*
X-3846317Y-75860215D01*
X-3972834Y-75733695D01*
X-3972838Y-75733692D01*
X-3972839Y-75733691D01*
X-3972841Y-75733689D01*
X-4095692Y-75651597D01*
X-4121627Y-75634266D01*
X-4225804Y-75591109D01*
X-4286947Y-75565779D01*
X-4286951Y-75565778D01*
X-4286950Y-75565778D01*
X-4462451Y-75530856D01*
X-4462460Y-75530855D01*
X-4551924Y-75530849D01*
X-4551925Y-75530849D01*
X-4551942Y-75530848D01*
X-4632956Y-75530842D01*
X-4633671Y-75530884D01*
X-4641397Y-75530884D01*
X-4641398Y-75530884D01*
X-4641404Y-75530884D01*
X-4641409Y-75530884D01*
X-4641410Y-75530885D01*
X-4816924Y-75565781D01*
X-4982270Y-75634254D01*
X-5081976Y-75700865D01*
X-5149730Y-75722074D01*
X-5218196Y-75703285D01*
X-5221974Y-75700857D01*
X-5295614Y-75651649D01*
X-5321626Y-75634267D01*
X-5486947Y-75565779D01*
X-5486951Y-75565778D01*
X-5486950Y-75565778D01*
X-5662451Y-75530856D01*
X-5662460Y-75530855D01*
X-5751924Y-75530849D01*
X-5751925Y-75530849D01*
X-5751942Y-75530848D01*
X-5832956Y-75530842D01*
X-5833671Y-75530884D01*
X-5841397Y-75530884D01*
X-5841398Y-75530884D01*
X-5841404Y-75530884D01*
X-5841409Y-75530884D01*
X-5841410Y-75530885D01*
X-6016924Y-75565781D01*
X-6182267Y-75634253D01*
X-6331075Y-75733667D01*
X-6457620Y-75860195D01*
X-6457623Y-75860198D01*
X-6557053Y-76008984D01*
X-6557058Y-76008993D01*
X-6625549Y-76174314D01*
X-6625551Y-76174318D01*
X-6645589Y-76275032D01*
X-6659229Y-76343578D01*
X-6692138Y-76406485D01*
X-6753835Y-76441613D01*
X-6782805Y-76444989D01*
X-9829627Y-76444989D01*
X-9897748Y-76424987D01*
X-9918722Y-76408084D01*
X-11406871Y-74919935D01*
X-11440897Y-74857623D01*
X-11437090Y-74804402D01*
X-1359487Y-74804402D01*
X-1359487Y-74974000D01*
X-605487Y-74974000D01*
X-97487Y-74974000D01*
X656513Y-74974000D01*
X656513Y-74804414D01*
X656512Y-74804402D01*
X650007Y-74743906D01*
X598957Y-74607035D01*
X598957Y-74607034D01*
X511417Y-74490095D01*
X394478Y-74402555D01*
X257606Y-74351505D01*
X197110Y-74345000D01*
X-97487Y-74345000D01*
X-97487Y-74974000D01*
X-605487Y-74974000D01*
X-605487Y-74345000D01*
X-900085Y-74345000D01*
X-960581Y-74351505D01*
X-1097452Y-74402555D01*
X-1097453Y-74402555D01*
X-1214392Y-74490095D01*
X-1301932Y-74607034D01*
X-1301932Y-74607035D01*
X-1352982Y-74743906D01*
X-1359487Y-74804402D01*
X-11437090Y-74804402D01*
X-11435832Y-74786808D01*
X-11393285Y-74729972D01*
X-11391865Y-74728924D01*
X-11365117Y-74709493D01*
X-11363294Y-74707242D01*
X-11344653Y-74688602D01*
X-11343717Y-74687843D01*
X-11342403Y-74686780D01*
X-11306588Y-74637487D01*
X-11302624Y-74632322D01*
X-11268505Y-74590190D01*
X-11266344Y-74587594D01*
X-11265282Y-74586350D01*
X-11265279Y-74586349D01*
X-11265278Y-74586346D01*
X-11264734Y-74585711D01*
X-11264293Y-74584990D01*
X-11264285Y-74584981D01*
X-11264281Y-74584970D01*
X-11263404Y-74583540D01*
X-11261686Y-74580816D01*
X-11232095Y-74535254D01*
X-11228371Y-74529839D01*
X-11217201Y-74514466D01*
X-11192590Y-74480596D01*
X-11191551Y-74477888D01*
X-11179586Y-74454409D01*
X-11178009Y-74451982D01*
X-11159189Y-74394068D01*
X-11156997Y-74387880D01*
X-11148108Y-74364729D01*
X-11135166Y-74331019D01*
X-11135166Y-74331015D01*
X-11134566Y-74328516D01*
X-11130805Y-74309580D01*
X-11121933Y-74279573D01*
X-11120953Y-74276417D01*
X-11099236Y-74209596D01*
X-11099236Y-74209589D01*
X-11097744Y-74201542D01*
X-11096463Y-74193424D01*
X-11096459Y-74193414D01*
X-11095425Y-74153106D01*
X-11093349Y-74138785D01*
X-11094066Y-74138691D01*
X-11091908Y-74122308D01*
X-11090212Y-74122531D01*
X-11072985Y-74063863D01*
X-11019329Y-74017370D01*
X-10953453Y-74007898D01*
X-10953446Y-74007647D01*
X-10951979Y-74007686D01*
X-10949055Y-74007266D01*
X-10947188Y-74007549D01*
G37*
%TD.AperFunction*%
%TA.AperFunction,Conductor*%
G36*
X-1220305Y-70531502D02*
G01*
X-1173812Y-70585158D01*
X-1163708Y-70655432D01*
X-1193202Y-70720012D01*
X-1212917Y-70738368D01*
X-1214749Y-70739738D01*
X-1302375Y-70856792D01*
X-1302376Y-70856795D01*
X-1344279Y-70969139D01*
X-1373238Y-71014200D01*
X-2016631Y-71657595D01*
X-2078944Y-71691620D01*
X-2105727Y-71694500D01*
X-2196974Y-71694500D01*
X-2383776Y-71734206D01*
X-2558240Y-71811882D01*
X-2712743Y-71924135D01*
X-2840522Y-72066048D01*
X-2840529Y-72066058D01*
X-2936011Y-72231438D01*
X-2936014Y-72231445D01*
X-2995030Y-72413072D01*
X-3014991Y-72603000D01*
X-3009491Y-72655330D01*
X-3022263Y-72725168D01*
X-3070766Y-72777015D01*
X-3134801Y-72794500D01*
X-10366987Y-72794500D01*
X-10435108Y-72774498D01*
X-10481601Y-72720842D01*
X-10489745Y-72683407D01*
X-10491908Y-72683693D01*
X-10493946Y-72668221D01*
X-10494996Y-72654447D01*
X-10495826Y-72615260D01*
X-10495827Y-72615256D01*
X-10495827Y-72615254D01*
X-10497077Y-72607095D01*
X-10496633Y-72607026D01*
X-10497057Y-72604522D01*
X-10497499Y-72604605D01*
X-10499004Y-72596486D01*
X-10499004Y-72596478D01*
X-10520239Y-72531098D01*
X-10521360Y-72527455D01*
X-10530848Y-72494828D01*
X-10533881Y-72479373D01*
X-10534944Y-72474947D01*
X-10534944Y-72474938D01*
X-10556760Y-72418092D01*
X-10558956Y-72411885D01*
X-10577753Y-72354008D01*
X-10577757Y-72353999D01*
X-10579345Y-72351554D01*
X-10591304Y-72328077D01*
X-10592348Y-72325358D01*
X-10592349Y-72325355D01*
X-10628120Y-72276112D01*
X-10631843Y-72270691D01*
X-10661594Y-72224867D01*
X-10663413Y-72221981D01*
X-10664491Y-72220218D01*
X-10666003Y-72218446D01*
X-10668079Y-72215948D01*
X-10672086Y-72210999D01*
X-10702426Y-72173527D01*
X-10706407Y-72168337D01*
X-10742178Y-72119093D01*
X-10742180Y-72119090D01*
X-10742227Y-72119052D01*
X-10744454Y-72117248D01*
X-10763077Y-72098620D01*
X-10764906Y-72096361D01*
X-10764909Y-72096357D01*
X-10764953Y-72096325D01*
X-10814150Y-72060576D01*
X-10819386Y-72056557D01*
X-10861776Y-72022223D01*
X-10864271Y-72020149D01*
X-10866020Y-72018656D01*
X-10867912Y-72017497D01*
X-10870691Y-72015744D01*
X-10916494Y-71985995D01*
X-10921899Y-71982280D01*
X-10936776Y-71971470D01*
X-10971148Y-71946493D01*
X-10971569Y-71946331D01*
X-10973887Y-71945441D01*
X-10997345Y-71933486D01*
X-10999794Y-71931896D01*
X-10999797Y-71931894D01*
X-11057681Y-71913084D01*
X-11063893Y-71910884D01*
X-11076579Y-71906013D01*
X-11120726Y-71889063D01*
X-11125630Y-71887886D01*
X-11140234Y-71885024D01*
X-11173403Y-71875409D01*
X-11177261Y-71874223D01*
X-11242248Y-71853105D01*
X-11250370Y-71851600D01*
X-11250298Y-71851210D01*
X-11253438Y-71850679D01*
X-11253497Y-71851071D01*
X-11261661Y-71849827D01*
X-11307269Y-71848899D01*
X-11325028Y-71846553D01*
X-11325031Y-71846584D01*
X-11333238Y-71845665D01*
X-11365782Y-71846298D01*
X-11374830Y-71846149D01*
X-11394468Y-71845119D01*
X-11397730Y-71844905D01*
X-11401223Y-71844630D01*
X-11402195Y-71844707D01*
X-11405445Y-71844919D01*
X-11428127Y-71846108D01*
X-11437281Y-71846255D01*
X-11469204Y-71845606D01*
X-11477412Y-71846518D01*
X-11477416Y-71846488D01*
X-11495175Y-71848817D01*
X-11538578Y-71849662D01*
X-11540792Y-71849706D01*
X-11540794Y-71849706D01*
X-11548958Y-71850943D01*
X-11549011Y-71850594D01*
X-11552657Y-71851207D01*
X-11552592Y-71851555D01*
X-11560714Y-71853060D01*
X-11625411Y-71874082D01*
X-11629359Y-71875293D01*
X-11641816Y-71878893D01*
X-11663081Y-71885037D01*
X-11676997Y-71887758D01*
X-11682261Y-71889022D01*
X-11739093Y-71910840D01*
X-11745310Y-71913042D01*
X-11803185Y-71931848D01*
X-11803190Y-71931851D01*
X-11805654Y-71933451D01*
X-11829089Y-71945393D01*
X-11831836Y-71946447D01*
X-11831837Y-71946448D01*
X-11881073Y-71982224D01*
X-11886505Y-71985957D01*
X-11908943Y-72000530D01*
X-11932351Y-72015732D01*
X-11935125Y-72017482D01*
X-11935678Y-72017821D01*
X-12004209Y-72036371D01*
X-12067272Y-72017888D01*
X-12067823Y-72017551D01*
X-12070692Y-72015743D01*
X-12116494Y-71985995D01*
X-12121899Y-71982280D01*
X-12136776Y-71971470D01*
X-12171148Y-71946493D01*
X-12171569Y-71946331D01*
X-12173887Y-71945441D01*
X-12197345Y-71933486D01*
X-12199794Y-71931896D01*
X-12199797Y-71931894D01*
X-12257681Y-71913084D01*
X-12263893Y-71910884D01*
X-12276579Y-71906013D01*
X-12320726Y-71889063D01*
X-12325630Y-71887886D01*
X-12340234Y-71885024D01*
X-12373403Y-71875409D01*
X-12377261Y-71874223D01*
X-12442248Y-71853105D01*
X-12450370Y-71851600D01*
X-12450298Y-71851210D01*
X-12453438Y-71850679D01*
X-12453497Y-71851071D01*
X-12461661Y-71849827D01*
X-12507269Y-71848899D01*
X-12525028Y-71846553D01*
X-12525031Y-71846584D01*
X-12533238Y-71845665D01*
X-12565782Y-71846298D01*
X-12574830Y-71846149D01*
X-12594468Y-71845119D01*
X-12597730Y-71844905D01*
X-12601223Y-71844630D01*
X-12602195Y-71844707D01*
X-12605445Y-71844919D01*
X-12628127Y-71846108D01*
X-12637281Y-71846255D01*
X-12669204Y-71845606D01*
X-12677412Y-71846518D01*
X-12677416Y-71846488D01*
X-12695175Y-71848817D01*
X-12738578Y-71849662D01*
X-12740792Y-71849706D01*
X-12740794Y-71849706D01*
X-12748958Y-71850943D01*
X-12749011Y-71850594D01*
X-12752657Y-71851207D01*
X-12752592Y-71851555D01*
X-12760714Y-71853060D01*
X-12825411Y-71874082D01*
X-12829359Y-71875293D01*
X-12841816Y-71878893D01*
X-12863081Y-71885037D01*
X-12876997Y-71887758D01*
X-12882261Y-71889022D01*
X-12939093Y-71910840D01*
X-12945310Y-71913042D01*
X-13003185Y-71931848D01*
X-13003190Y-71931851D01*
X-13005654Y-71933451D01*
X-13029089Y-71945393D01*
X-13031836Y-71946447D01*
X-13031837Y-71946448D01*
X-13081073Y-71982224D01*
X-13086505Y-71985957D01*
X-13108943Y-72000530D01*
X-13132351Y-72015732D01*
X-13135107Y-72017471D01*
X-13136981Y-72018619D01*
X-13138704Y-72020091D01*
X-13141197Y-72022165D01*
X-13183611Y-72056518D01*
X-13188846Y-72060535D01*
X-13238091Y-72096319D01*
X-13238097Y-72096325D01*
X-13239940Y-72098601D01*
X-13258545Y-72117207D01*
X-13260821Y-72119049D01*
X-13260823Y-72119052D01*
X-13296593Y-72168293D01*
X-13300608Y-72173527D01*
X-13334985Y-72215985D01*
X-13337100Y-72218527D01*
X-13338513Y-72220181D01*
X-13339631Y-72222007D01*
X-13341402Y-72224815D01*
X-13371156Y-72270642D01*
X-13374890Y-72276077D01*
X-13410665Y-72325328D01*
X-13410670Y-72325337D01*
X-13411721Y-72328077D01*
X-13423662Y-72351517D01*
X-13425259Y-72353976D01*
X-13425262Y-72353983D01*
X-13444058Y-72411854D01*
X-13446260Y-72418075D01*
X-13468073Y-72474914D01*
X-13469246Y-72479802D01*
X-13472108Y-72494420D01*
X-13481725Y-72527616D01*
X-13482911Y-72531476D01*
X-13504020Y-72596469D01*
X-13505523Y-72604585D01*
X-13505910Y-72604513D01*
X-13506440Y-72607653D01*
X-13506049Y-72607713D01*
X-13507292Y-72615876D01*
X-13508084Y-72655130D01*
X-13509136Y-72669033D01*
X-13511065Y-72683686D01*
X-13512621Y-72683481D01*
X-13529989Y-72742632D01*
X-13583645Y-72789125D01*
X-13653919Y-72799229D01*
X-13668594Y-72796219D01*
X-13675010Y-72794500D01*
X-14464738Y-72794500D01*
X-14532859Y-72774498D01*
X-14579352Y-72720842D01*
X-14590738Y-72668500D01*
X-14590738Y-71904367D01*
X-14590739Y-71904350D01*
X-14597248Y-71843803D01*
X-14597250Y-71843795D01*
X-14631643Y-71751585D01*
X-14648349Y-71706796D01*
X-14648350Y-71706794D01*
X-14648351Y-71706792D01*
X-14735977Y-71589738D01*
X-14853031Y-71502112D01*
X-14853036Y-71502110D01*
X-14990034Y-71451011D01*
X-14990042Y-71451009D01*
X-15050589Y-71444500D01*
X-15050600Y-71444500D01*
X-15515238Y-71444500D01*
X-15583359Y-71424498D01*
X-15629852Y-71370842D01*
X-15630536Y-71367701D01*
X-15641237Y-71357000D01*
X-16773238Y-71357000D01*
X-16841359Y-71336998D01*
X-16887852Y-71283342D01*
X-16899238Y-71231000D01*
X-16899238Y-70975000D01*
X-16879236Y-70906879D01*
X-16825580Y-70860386D01*
X-16773238Y-70849000D01*
X-15641238Y-70849000D01*
X-15641238Y-70637500D01*
X-15621236Y-70569379D01*
X-15567580Y-70522886D01*
X-15515238Y-70511500D01*
X-1288426Y-70511500D01*
X-1220305Y-70531502D01*
G37*
%TD.AperFunction*%
%TA.AperFunction,Conductor*%
G36*
X-9509366Y-65669002D02*
G01*
X-9462873Y-65722658D01*
X-9451487Y-65775000D01*
X-9451487Y-66031000D01*
X-9471489Y-66099121D01*
X-9525145Y-66145614D01*
X-9577487Y-66157000D01*
X-11297487Y-66157000D01*
X-11297487Y-66911000D01*
X-11025970Y-66911000D01*
X-11025971Y-66910999D01*
X-10922169Y-66900394D01*
X-10922166Y-66900393D01*
X-10753962Y-66844657D01*
X-10603148Y-66751634D01*
X-10590585Y-66739071D01*
X-10528274Y-66705044D01*
X-10457458Y-66710107D01*
X-10412392Y-66739069D01*
X-10400411Y-66751050D01*
X-10366385Y-66813362D01*
X-10371450Y-66884177D01*
X-10400410Y-66929240D01*
X-10475517Y-67004347D01*
X-10568602Y-67155262D01*
X-10624374Y-67323572D01*
X-10624375Y-67323579D01*
X-10634987Y-67427446D01*
X-10634987Y-68778544D01*
X-10624374Y-68882426D01*
X-10575849Y-69028868D01*
X-10573409Y-69099822D01*
X-10609718Y-69160832D01*
X-10673247Y-69192528D01*
X-10695454Y-69194500D01*
X-17607538Y-69194500D01*
X-17675659Y-69174498D01*
X-17722152Y-69120842D01*
X-17732256Y-69050568D01*
X-17702762Y-68985988D01*
X-17696633Y-68979405D01*
X-16396347Y-67679119D01*
X-15055825Y-66338596D01*
X-14993515Y-66304572D01*
X-14922700Y-66309637D01*
X-14865864Y-66352184D01*
X-14847127Y-66388060D01*
X-14818145Y-66475525D01*
X-14725122Y-66626339D01*
X-14725117Y-66626345D01*
X-14599833Y-66751629D01*
X-14599827Y-66751634D01*
X-14449013Y-66844657D01*
X-14280809Y-66900393D01*
X-14280806Y-66900394D01*
X-14177004Y-66910999D01*
X-14177004Y-66911000D01*
X-13905487Y-66911000D01*
X-13397487Y-66911000D01*
X-13125970Y-66911000D01*
X-13125971Y-66910999D01*
X-13022169Y-66900394D01*
X-13022166Y-66900393D01*
X-12853962Y-66844657D01*
X-12703148Y-66751634D01*
X-12690585Y-66739071D01*
X-12628274Y-66705044D01*
X-12557458Y-66710107D01*
X-12512389Y-66739071D01*
X-12499827Y-66751634D01*
X-12349013Y-66844657D01*
X-12180809Y-66900393D01*
X-12180806Y-66900394D01*
X-12077004Y-66910999D01*
X-12077004Y-66911000D01*
X-11805487Y-66911000D01*
X-11805487Y-66157000D01*
X-13397487Y-66157000D01*
X-13397487Y-66911000D01*
X-13905487Y-66911000D01*
X-13905487Y-66029000D01*
X-13885485Y-65960879D01*
X-13831829Y-65914386D01*
X-13779487Y-65903000D01*
X-13651487Y-65903000D01*
X-13651487Y-65775000D01*
X-13631485Y-65706879D01*
X-13577829Y-65660386D01*
X-13525487Y-65649000D01*
X-9577487Y-65649000D01*
X-9509366Y-65669002D01*
G37*
%TD.AperFunction*%
%TA.AperFunction,Conductor*%
G36*
X4432134Y-64481502D02*
G01*
X4478627Y-64535158D01*
X4490013Y-64587500D01*
X4490013Y-67778050D01*
X4470011Y-67846171D01*
X4453108Y-67867145D01*
X3162658Y-69157595D01*
X3100346Y-69191621D01*
X3073563Y-69194500D01*
X-502177Y-69194500D01*
X-570298Y-69174498D01*
X-616791Y-69120842D01*
X-626895Y-69050568D01*
X-597401Y-68985988D01*
X-591272Y-68979405D01*
X-547602Y-68935734D01*
X-547597Y-68935728D01*
X-457640Y-68789884D01*
X-403745Y-68627241D01*
X-403743Y-68627229D01*
X-393488Y-68526852D01*
X-393487Y-68526852D01*
X-393487Y-68357000D01*
X-2309487Y-68357000D01*
X-2309487Y-68526852D01*
X-2299232Y-68627229D01*
X-2299230Y-68627241D01*
X-2245335Y-68789884D01*
X-2155378Y-68935728D01*
X-2155373Y-68935734D01*
X-2111702Y-68979405D01*
X-2077676Y-69041717D01*
X-2082741Y-69112532D01*
X-2125288Y-69169368D01*
X-2191808Y-69194179D01*
X-2200797Y-69194500D01*
X-3801471Y-69194500D01*
X-3869592Y-69174498D01*
X-3916085Y-69120842D01*
X-3926189Y-69050568D01*
X-3896695Y-68985988D01*
X-3890566Y-68979405D01*
X-3847208Y-68936046D01*
X-3847202Y-68936040D01*
X-3757185Y-68790101D01*
X-3703251Y-68627336D01*
X-3700452Y-68599936D01*
X-3692987Y-68526880D01*
X-3692987Y-67679147D01*
X-2309487Y-67679147D01*
X-2309487Y-67849000D01*
X-1605487Y-67849000D01*
X-1605487Y-66946761D01*
X-1585485Y-66878640D01*
X-1545633Y-66839520D01*
X-1403151Y-66751636D01*
X-1403142Y-66751629D01*
X-1315582Y-66664070D01*
X-1253270Y-66630044D01*
X-1182455Y-66635109D01*
X-1137392Y-66664070D01*
X-1049833Y-66751629D01*
X-1049821Y-66751638D01*
X-1033412Y-66761760D01*
X-985934Y-66814546D01*
X-974531Y-66884620D01*
X-1002824Y-66949736D01*
X-1061829Y-66989218D01*
X-1097114Y-66994625D01*
X-1097487Y-66994999D01*
X-1097487Y-67849000D01*
X-393487Y-67849000D01*
X-393487Y-67679147D01*
X-403743Y-67578770D01*
X-403745Y-67578758D01*
X-457640Y-67416115D01*
X-547597Y-67270271D01*
X-547602Y-67270265D01*
X-668753Y-67149114D01*
X-668759Y-67149109D01*
X-676652Y-67144241D01*
X-724130Y-67091455D01*
X-735533Y-67021380D01*
X-707241Y-66956265D01*
X-648235Y-66916782D01*
X-610505Y-66911000D01*
X-355487Y-66911000D01*
X152513Y-66911000D01*
X424030Y-66911000D01*
X424029Y-66910999D01*
X527831Y-66900394D01*
X527834Y-66900393D01*
X696038Y-66844657D01*
X846852Y-66751634D01*
X846858Y-66751629D01*
X934418Y-66664070D01*
X996730Y-66630044D01*
X1067545Y-66635109D01*
X1112608Y-66664070D01*
X1200167Y-66751629D01*
X1200173Y-66751634D01*
X1350987Y-66844657D01*
X1519191Y-66900393D01*
X1519194Y-66900394D01*
X1622996Y-66910999D01*
X1622996Y-66911000D01*
X1894513Y-66911000D01*
X2402513Y-66911000D01*
X2674030Y-66911000D01*
X2674029Y-66910999D01*
X2777831Y-66900394D01*
X2777834Y-66900393D01*
X2946038Y-66844657D01*
X3096852Y-66751634D01*
X3096858Y-66751629D01*
X3222142Y-66626345D01*
X3222147Y-66626339D01*
X3315170Y-66475525D01*
X3370906Y-66307321D01*
X3370907Y-66307318D01*
X3381512Y-66203516D01*
X3381513Y-66203516D01*
X3381513Y-66157000D01*
X2402513Y-66157000D01*
X2402513Y-66911000D01*
X1894513Y-66911000D01*
X1894513Y-66157000D01*
X152513Y-66157000D01*
X152513Y-66911000D01*
X-355487Y-66911000D01*
X-355487Y-66157000D01*
X-2097487Y-66157000D01*
X-2097487Y-66911000D01*
X-2092469Y-66911000D01*
X-2024348Y-66931002D01*
X-1977855Y-66984658D01*
X-1967751Y-67054932D01*
X-1997245Y-67119512D01*
X-2026322Y-67144241D01*
X-2034216Y-67149109D01*
X-2034222Y-67149114D01*
X-2155373Y-67270265D01*
X-2155378Y-67270271D01*
X-2245335Y-67416115D01*
X-2299230Y-67578758D01*
X-2299232Y-67578770D01*
X-2309487Y-67679147D01*
X-3692987Y-67679147D01*
X-3692987Y-67679119D01*
X-3703240Y-67578770D01*
X-3703251Y-67578664D01*
X-3757185Y-67415899D01*
X-3847202Y-67269960D01*
X-3847203Y-67269959D01*
X-3847208Y-67269953D01*
X-3968441Y-67148720D01*
X-3968447Y-67148715D01*
X-4021134Y-67116217D01*
X-4114386Y-67058698D01*
X-4277151Y-67004764D01*
X-4277154Y-67004763D01*
X-4377607Y-66994500D01*
X-4377615Y-66994500D01*
X-4925359Y-66994500D01*
X-4925367Y-66994500D01*
X-5025821Y-67004763D01*
X-5188588Y-67058698D01*
X-5334528Y-67148715D01*
X-5416928Y-67231115D01*
X-5479240Y-67265140D01*
X-5550056Y-67260074D01*
X-5606892Y-67217527D01*
X-5625627Y-67181655D01*
X-5634372Y-67155262D01*
X-5727457Y-67004348D01*
X-5727458Y-67004347D01*
X-5727463Y-67004341D01*
X-5852829Y-66878975D01*
X-5852835Y-66878970D01*
X-5904237Y-66847265D01*
X-5933098Y-66829463D01*
X-5980575Y-66776678D01*
X-5991978Y-66706603D01*
X-5963685Y-66641487D01*
X-5931091Y-66613771D01*
X-5869680Y-66577453D01*
X-5752034Y-66459807D01*
X-5752032Y-66459803D01*
X-5751048Y-66458536D01*
X-5750019Y-66457792D01*
X-5746428Y-66454202D01*
X-5745849Y-66454781D01*
X-5693493Y-66416968D01*
X-5622601Y-66413116D01*
X-5560880Y-66448202D01*
X-5551926Y-66458536D01*
X-5550938Y-66459810D01*
X-5433298Y-66577450D01*
X-5433291Y-66577455D01*
X-5290093Y-66662143D01*
X-5290090Y-66662143D01*
X-5290088Y-66662145D01*
X-5130318Y-66708562D01*
X-5092999Y-66711499D01*
X-5092998Y-66711500D01*
X-5092989Y-66711500D01*
X-3934976Y-66711500D01*
X-3934976Y-66711499D01*
X-3897656Y-66708562D01*
X-3737886Y-66662145D01*
X-3598988Y-66580000D01*
X-3530174Y-66562541D01*
X-3462842Y-66585057D01*
X-3427611Y-66622304D01*
X-3425124Y-66626337D01*
X-3425117Y-66626345D01*
X-3299833Y-66751629D01*
X-3299827Y-66751634D01*
X-3149013Y-66844657D01*
X-2980809Y-66900393D01*
X-2980806Y-66900394D01*
X-2877004Y-66910999D01*
X-2877004Y-66911000D01*
X-2605487Y-66911000D01*
X-2605487Y-66029000D01*
X-2585485Y-65960879D01*
X-2531829Y-65914386D01*
X-2479487Y-65903000D01*
X-2351487Y-65903000D01*
X-2351487Y-65775000D01*
X-2331485Y-65706879D01*
X-2277829Y-65660386D01*
X-2225487Y-65649000D01*
X3381513Y-65649000D01*
X3381513Y-65602483D01*
X3370907Y-65498681D01*
X3370906Y-65498678D01*
X3315170Y-65330474D01*
X3222147Y-65179660D01*
X3222142Y-65179654D01*
X3096857Y-65054369D01*
X3094064Y-65052161D01*
X3092644Y-65050156D01*
X3091663Y-65049175D01*
X3091830Y-65049007D01*
X3053032Y-64994222D01*
X3049838Y-64923298D01*
X3085496Y-64861905D01*
X3094067Y-64854478D01*
X3097152Y-64852037D01*
X3097165Y-64852030D01*
X3222543Y-64726652D01*
X3315628Y-64575738D01*
X3320907Y-64559807D01*
X3324864Y-64547867D01*
X3365278Y-64489495D01*
X3430834Y-64462240D01*
X3444468Y-64461500D01*
X4364013Y-64461500D01*
X4432134Y-64481502D01*
G37*
%TD.AperFunction*%
%TA.AperFunction,Conductor*%
G36*
X40795858Y-67731502D02*
G01*
X40842351Y-67785158D01*
X40852455Y-67855432D01*
X40822961Y-67920012D01*
X40763235Y-67958396D01*
X40752319Y-67961079D01*
X40705936Y-67970305D01*
X40705933Y-67970306D01*
X40586097Y-68019944D01*
X40489673Y-68084373D01*
X40478249Y-68092006D01*
X40478247Y-68092007D01*
X39808146Y-68762107D01*
X39745834Y-68796132D01*
X39719051Y-68799011D01*
X39617241Y-68799011D01*
X39549120Y-68779009D01*
X39502627Y-68725353D01*
X39492523Y-68655079D01*
X39522017Y-68590499D01*
X39528146Y-68583916D01*
X40363657Y-67748405D01*
X40425969Y-67714379D01*
X40452752Y-67711500D01*
X40727737Y-67711500D01*
X40795858Y-67731502D01*
G37*
%TD.AperFunction*%
%TA.AperFunction,Conductor*%
G36*
X-5441429Y-64675007D02*
G01*
X-5439557Y-64672595D01*
X-5433291Y-64677455D01*
X-5290093Y-64762143D01*
X-5290090Y-64762143D01*
X-5290088Y-64762145D01*
X-5130318Y-64808562D01*
X-5092999Y-64811499D01*
X-5092998Y-64811500D01*
X-5092989Y-64811500D01*
X-3934976Y-64811500D01*
X-3934976Y-64811499D01*
X-3897656Y-64808562D01*
X-3737886Y-64762145D01*
X-3599419Y-64680255D01*
X-3530605Y-64662796D01*
X-3463273Y-64685312D01*
X-3428043Y-64722557D01*
X-3425517Y-64726652D01*
X-3425515Y-64726654D01*
X-3425512Y-64726658D01*
X-3300142Y-64852028D01*
X-3297037Y-64854483D01*
X-3295460Y-64856710D01*
X-3294950Y-64857220D01*
X-3295038Y-64857307D01*
X-3256006Y-64912422D01*
X-3252814Y-64983347D01*
X-3288473Y-65044739D01*
X-3297033Y-65052157D01*
X-3299833Y-65054370D01*
X-3425117Y-65179654D01*
X-3425125Y-65179664D01*
X-3427614Y-65183700D01*
X-3480404Y-65231174D01*
X-3550479Y-65242572D01*
X-3598989Y-65225998D01*
X-3737882Y-65143856D01*
X-3897658Y-65097437D01*
X-3934976Y-65094500D01*
X-3934985Y-65094500D01*
X-5092989Y-65094500D01*
X-5092998Y-65094500D01*
X-5130316Y-65097437D01*
X-5130317Y-65097437D01*
X-5290093Y-65143856D01*
X-5433291Y-65228544D01*
X-5439557Y-65233405D01*
X-5441430Y-65230991D01*
X-5491238Y-65258162D01*
X-5562051Y-65253067D01*
X-5618730Y-65210682D01*
X-5621494Y-65207000D01*
X-5871645Y-65207000D01*
X-5935784Y-65189453D01*
X-6012886Y-65143855D01*
X-6092771Y-65120646D01*
X-6172658Y-65097437D01*
X-6209976Y-65094500D01*
X-6209985Y-65094500D01*
X-6662987Y-65094500D01*
X-6731108Y-65074498D01*
X-6777601Y-65020842D01*
X-6788987Y-64968500D01*
X-6788987Y-64937500D01*
X-6768985Y-64869379D01*
X-6715329Y-64822886D01*
X-6662987Y-64811500D01*
X-6209976Y-64811500D01*
X-6209976Y-64811499D01*
X-6172656Y-64808562D01*
X-6012886Y-64762145D01*
X-5935784Y-64716546D01*
X-5871645Y-64699000D01*
X-5621495Y-64699000D01*
X-5618731Y-64695318D01*
X-5561835Y-64652851D01*
X-5491012Y-64647886D01*
X-5441429Y-64675007D01*
G37*
%TD.AperFunction*%
%TD*%
M02*
