%TF.GenerationSoftware,KiCad,Pcbnew,8.0.8*%
%TF.CreationDate,2025-02-14T20:36:54+01:00*%
%TF.ProjectId,clarinoid-devboard,636c6172-696e-46f6-9964-2d646576626f,rev?*%
%TF.SameCoordinates,Original*%
%TF.FileFunction,Other,Comment*%
%FSLAX46Y46*%
G04 Gerber Fmt 4.6, Leading zero omitted, Abs format (unit mm)*
G04 Created by KiCad (PCBNEW 8.0.8) date 2025-02-14 20:36:54*
%MOMM*%
%LPD*%
G01*
G04 APERTURE LIST*
%ADD10C,0.150000*%
%ADD11C,0.120000*%
G04 APERTURE END LIST*
D10*
X4719941Y-71484009D02*
X4862798Y-71531628D01*
X4862798Y-71531628D02*
X4910417Y-71579247D01*
X4910417Y-71579247D02*
X4958036Y-71674485D01*
X4958036Y-71674485D02*
X4958036Y-71817342D01*
X4958036Y-71817342D02*
X4910417Y-71912580D01*
X4910417Y-71912580D02*
X4862798Y-71960200D01*
X4862798Y-71960200D02*
X4767560Y-72007819D01*
X4767560Y-72007819D02*
X4386608Y-72007819D01*
X4386608Y-72007819D02*
X4386608Y-71007819D01*
X4386608Y-71007819D02*
X4719941Y-71007819D01*
X4719941Y-71007819D02*
X4815179Y-71055438D01*
X4815179Y-71055438D02*
X4862798Y-71103057D01*
X4862798Y-71103057D02*
X4910417Y-71198295D01*
X4910417Y-71198295D02*
X4910417Y-71293533D01*
X4910417Y-71293533D02*
X4862798Y-71388771D01*
X4862798Y-71388771D02*
X4815179Y-71436390D01*
X4815179Y-71436390D02*
X4719941Y-71484009D01*
X4719941Y-71484009D02*
X4386608Y-71484009D01*
X410418Y-71722104D02*
X886608Y-71722104D01*
X315180Y-72007819D02*
X648513Y-71007819D01*
X648513Y-71007819D02*
X981846Y-72007819D01*
X41433163Y-64652667D02*
X40553163Y-64652667D01*
X40993163Y-64652667D02*
X40993163Y-63112667D01*
X40993163Y-63112667D02*
X40846496Y-63332667D01*
X40846496Y-63332667D02*
X40699830Y-63479334D01*
X40699830Y-63479334D02*
X40553163Y-63552667D01*
X42093163Y-64506000D02*
X42166497Y-64579334D01*
X42166497Y-64579334D02*
X42093163Y-64652667D01*
X42093163Y-64652667D02*
X42019830Y-64579334D01*
X42019830Y-64579334D02*
X42093163Y-64506000D01*
X42093163Y-64506000D02*
X42093163Y-64652667D01*
X43486496Y-63626000D02*
X43486496Y-64872667D01*
X43486496Y-64872667D02*
X43413163Y-65019334D01*
X43413163Y-65019334D02*
X43339830Y-65092667D01*
X43339830Y-65092667D02*
X43193163Y-65166000D01*
X43193163Y-65166000D02*
X42973163Y-65166000D01*
X42973163Y-65166000D02*
X42826496Y-65092667D01*
X43486496Y-64579334D02*
X43339830Y-64652667D01*
X43339830Y-64652667D02*
X43046496Y-64652667D01*
X43046496Y-64652667D02*
X42899830Y-64579334D01*
X42899830Y-64579334D02*
X42826496Y-64506000D01*
X42826496Y-64506000D02*
X42753163Y-64359334D01*
X42753163Y-64359334D02*
X42753163Y-63919334D01*
X42753163Y-63919334D02*
X42826496Y-63772667D01*
X42826496Y-63772667D02*
X42899830Y-63699334D01*
X42899830Y-63699334D02*
X43046496Y-63626000D01*
X43046496Y-63626000D02*
X43339830Y-63626000D01*
X43339830Y-63626000D02*
X43486496Y-63699334D01*
X44219829Y-63626000D02*
X44219829Y-64652667D01*
X44219829Y-63772667D02*
X44293163Y-63699334D01*
X44293163Y-63699334D02*
X44439829Y-63626000D01*
X44439829Y-63626000D02*
X44659829Y-63626000D01*
X44659829Y-63626000D02*
X44806496Y-63699334D01*
X44806496Y-63699334D02*
X44879829Y-63846000D01*
X44879829Y-63846000D02*
X44879829Y-64652667D01*
X46273162Y-64652667D02*
X46273162Y-63112667D01*
X46273162Y-64579334D02*
X46126496Y-64652667D01*
X46126496Y-64652667D02*
X45833162Y-64652667D01*
X45833162Y-64652667D02*
X45686496Y-64579334D01*
X45686496Y-64579334D02*
X45613162Y-64506000D01*
X45613162Y-64506000D02*
X45539829Y-64359334D01*
X45539829Y-64359334D02*
X45539829Y-63919334D01*
X45539829Y-63919334D02*
X45613162Y-63772667D01*
X45613162Y-63772667D02*
X45686496Y-63699334D01*
X45686496Y-63699334D02*
X45833162Y-63626000D01*
X45833162Y-63626000D02*
X46126496Y-63626000D01*
X46126496Y-63626000D02*
X46273162Y-63699334D01*
X-27446854Y-89411016D02*
X-27446854Y-90291016D01*
X-27446854Y-89851016D02*
X-28986854Y-89851016D01*
X-28986854Y-89851016D02*
X-28766854Y-89997683D01*
X-28766854Y-89997683D02*
X-28620187Y-90144350D01*
X-28620187Y-90144350D02*
X-28546854Y-90291016D01*
X-27593521Y-88751016D02*
X-27520187Y-88677683D01*
X-27520187Y-88677683D02*
X-27446854Y-88751016D01*
X-27446854Y-88751016D02*
X-27520187Y-88824349D01*
X-27520187Y-88824349D02*
X-27593521Y-88751016D01*
X-27593521Y-88751016D02*
X-27446854Y-88751016D01*
X-28473521Y-87357683D02*
X-27226854Y-87357683D01*
X-27226854Y-87357683D02*
X-27080187Y-87431016D01*
X-27080187Y-87431016D02*
X-27006854Y-87504350D01*
X-27006854Y-87504350D02*
X-26933521Y-87651016D01*
X-26933521Y-87651016D02*
X-26933521Y-87871016D01*
X-26933521Y-87871016D02*
X-27006854Y-88017683D01*
X-27520187Y-87357683D02*
X-27446854Y-87504350D01*
X-27446854Y-87504350D02*
X-27446854Y-87797683D01*
X-27446854Y-87797683D02*
X-27520187Y-87944350D01*
X-27520187Y-87944350D02*
X-27593521Y-88017683D01*
X-27593521Y-88017683D02*
X-27740187Y-88091016D01*
X-27740187Y-88091016D02*
X-28180187Y-88091016D01*
X-28180187Y-88091016D02*
X-28326854Y-88017683D01*
X-28326854Y-88017683D02*
X-28400187Y-87944350D01*
X-28400187Y-87944350D02*
X-28473521Y-87797683D01*
X-28473521Y-87797683D02*
X-28473521Y-87504350D01*
X-28473521Y-87504350D02*
X-28400187Y-87357683D01*
X-28473521Y-86624350D02*
X-27446854Y-86624350D01*
X-28326854Y-86624350D02*
X-28400187Y-86551017D01*
X-28400187Y-86551017D02*
X-28473521Y-86404350D01*
X-28473521Y-86404350D02*
X-28473521Y-86184350D01*
X-28473521Y-86184350D02*
X-28400187Y-86037683D01*
X-28400187Y-86037683D02*
X-28253521Y-85964350D01*
X-28253521Y-85964350D02*
X-27446854Y-85964350D01*
X-27446854Y-84571017D02*
X-28986854Y-84571017D01*
X-27520187Y-84571017D02*
X-27446854Y-84717684D01*
X-27446854Y-84717684D02*
X-27446854Y-85011017D01*
X-27446854Y-85011017D02*
X-27520187Y-85157684D01*
X-27520187Y-85157684D02*
X-27593521Y-85231017D01*
X-27593521Y-85231017D02*
X-27740187Y-85304350D01*
X-27740187Y-85304350D02*
X-28180187Y-85304350D01*
X-28180187Y-85304350D02*
X-28326854Y-85231017D01*
X-28326854Y-85231017D02*
X-28400187Y-85157684D01*
X-28400187Y-85157684D02*
X-28473521Y-85011017D01*
X-28473521Y-85011017D02*
X-28473521Y-84717684D01*
X-28473521Y-84717684D02*
X-28400187Y-84571017D01*
D11*
%TO.C,SW6*%
X1248513Y-71553000D02*
X4048513Y-71553000D01*
X2648513Y-71553000D02*
X2648513Y-72753000D01*
X2648513Y-72753000D02*
X1848513Y-73953000D01*
X2648513Y-75153000D02*
X2648513Y-73953000D01*
X4048513Y-75153000D02*
X1248513Y-75153000D01*
X2848513Y-72753000D02*
G75*
G02*
X2448513Y-72753000I-200000J0D01*
G01*
X2448513Y-72753000D02*
G75*
G02*
X2848513Y-72753000I200000J0D01*
G01*
X2848513Y-73953000D02*
G75*
G02*
X2448513Y-73953000I-200000J0D01*
G01*
X2448513Y-73953000D02*
G75*
G02*
X2848513Y-73953000I200000J0D01*
G01*
D10*
%TO.C,H4*%
X14895868Y-72708000D02*
G75*
G02*
X8895868Y-72708000I-3000000J0D01*
G01*
X8895868Y-72708000D02*
G75*
G02*
X14895868Y-72708000I3000000J0D01*
G01*
%TO.C,H9*%
X-23951487Y-65453000D02*
G75*
G02*
X-30351487Y-65453000I-3200000J0D01*
G01*
X-30351487Y-65453000D02*
G75*
G02*
X-23951487Y-65453000I3200000J0D01*
G01*
%TO.C,U43*%
D11*
X-30851487Y-61853034D02*
X51148513Y-61853034D01*
X51148513Y-93853034D01*
X-30851487Y-93853034D01*
X-30851487Y-61853034D01*
X-28151486Y-91953034D02*
X-28151486Y-91953034D01*
X-28151486Y-91953034D01*
X-28151486Y-91953034D01*
X-28151486Y-91953034D01*
X-28151486Y-91953034D01*
X-28151486Y-91953035D01*
X-28151486Y-91953035D01*
X-28151486Y-91953035D01*
X-28151486Y-91953035D01*
X-28151486Y-91953035D01*
X-28151486Y-91953035D01*
X-28151486Y-91953035D01*
X-28151487Y-91953035D01*
X-28151487Y-91953035D01*
X-28151487Y-91953035D01*
X-28151487Y-91953035D01*
X-28151487Y-91953035D01*
X-28151487Y-91953035D01*
X-28151487Y-91953035D01*
X-28151487Y-91953035D01*
X-28151487Y-91953035D01*
X-28151487Y-91953035D01*
X-28151487Y-91953035D01*
X-28151487Y-91953035D01*
X-28151488Y-91953035D01*
X-28151488Y-91953035D01*
X-28151488Y-91953035D01*
X-28151488Y-91953035D01*
X-28151488Y-91953035D01*
X-28151488Y-91953035D01*
X-28151488Y-91953034D01*
X-28151488Y-91953034D01*
X-28151488Y-91953034D01*
X-28151488Y-91953034D01*
X-28151488Y-91953034D01*
X-28151488Y-91953034D01*
X-28151488Y-91953034D02*
X-28151488Y-91953034D01*
X-28151488Y-91953034D01*
X-28151488Y-91953034D01*
X-28151488Y-91953034D01*
X-28151488Y-91953034D01*
X-28151488Y-91953034D01*
X-28151488Y-91953033D01*
X-28151488Y-91953033D01*
X-28151488Y-91953033D01*
X-28151488Y-91953033D01*
X-28151488Y-91953033D01*
X-28151487Y-91953033D01*
X-28151487Y-91953033D01*
X-28151487Y-91953033D01*
X-28151487Y-91953033D01*
X-28151487Y-91953033D01*
X-28151487Y-91953033D01*
X-28151487Y-91953033D01*
X-28151487Y-91953033D01*
X-28151487Y-91953033D01*
X-28151487Y-91953033D01*
X-28151487Y-91953033D01*
X-28151487Y-91953033D01*
X-28151486Y-91953033D01*
X-28151486Y-91953033D01*
X-28151486Y-91953033D01*
X-28151486Y-91953033D01*
X-28151486Y-91953033D01*
X-28151486Y-91953033D01*
X-28151486Y-91953034D01*
X-28151486Y-91953034D01*
X-28151486Y-91953034D01*
X-28151486Y-91953034D01*
X-28151486Y-91953034D01*
X-28151486Y-91953034D01*
X-28151486Y-91953034D01*
X-27151487Y-91953034D02*
G75*
G02*
X-29151487Y-91953034I-1000000J0D01*
G01*
X-29151487Y-91953034D02*
G75*
G02*
X-27151487Y-91953034I1000000J0D01*
G01*
X-25551487Y-65453034D02*
G75*
G02*
X-28751487Y-65453034I-1600000J0D01*
G01*
X-28751487Y-65453034D02*
G75*
G02*
X-25551487Y-65453034I1600000J0D01*
G01*
X-25611486Y-91953034D02*
X-25611486Y-91953034D01*
X-25611486Y-91953034D01*
X-25611486Y-91953034D01*
X-25611486Y-91953034D01*
X-25611486Y-91953034D01*
X-25611486Y-91953035D01*
X-25611486Y-91953035D01*
X-25611486Y-91953035D01*
X-25611486Y-91953035D01*
X-25611486Y-91953035D01*
X-25611486Y-91953035D01*
X-25611486Y-91953035D01*
X-25611487Y-91953035D01*
X-25611487Y-91953035D01*
X-25611487Y-91953035D01*
X-25611487Y-91953035D01*
X-25611487Y-91953035D01*
X-25611487Y-91953035D01*
X-25611487Y-91953035D01*
X-25611487Y-91953035D01*
X-25611487Y-91953035D01*
X-25611487Y-91953035D01*
X-25611487Y-91953035D01*
X-25611487Y-91953035D01*
X-25611488Y-91953035D01*
X-25611488Y-91953035D01*
X-25611488Y-91953035D01*
X-25611488Y-91953035D01*
X-25611488Y-91953035D01*
X-25611488Y-91953035D01*
X-25611488Y-91953034D01*
X-25611488Y-91953034D01*
X-25611488Y-91953034D01*
X-25611488Y-91953034D01*
X-25611488Y-91953034D01*
X-25611488Y-91953034D01*
X-25611488Y-91953034D02*
X-25611488Y-91953034D01*
X-25611488Y-91953034D01*
X-25611488Y-91953034D01*
X-25611488Y-91953034D01*
X-25611488Y-91953034D01*
X-25611488Y-91953034D01*
X-25611488Y-91953033D01*
X-25611488Y-91953033D01*
X-25611488Y-91953033D01*
X-25611488Y-91953033D01*
X-25611488Y-91953033D01*
X-25611487Y-91953033D01*
X-25611487Y-91953033D01*
X-25611487Y-91953033D01*
X-25611487Y-91953033D01*
X-25611487Y-91953033D01*
X-25611487Y-91953033D01*
X-25611487Y-91953033D01*
X-25611487Y-91953033D01*
X-25611487Y-91953033D01*
X-25611487Y-91953033D01*
X-25611487Y-91953033D01*
X-25611487Y-91953033D01*
X-25611486Y-91953033D01*
X-25611486Y-91953033D01*
X-25611486Y-91953033D01*
X-25611486Y-91953033D01*
X-25611486Y-91953033D01*
X-25611486Y-91953033D01*
X-25611486Y-91953034D01*
X-25611486Y-91953034D01*
X-25611486Y-91953034D01*
X-25611486Y-91953034D01*
X-25611486Y-91953034D01*
X-25611486Y-91953034D01*
X-25611486Y-91953034D01*
X-24611487Y-91953034D02*
G75*
G02*
X-26611487Y-91953034I-1000000J0D01*
G01*
X-26611487Y-91953034D02*
G75*
G02*
X-24611487Y-91953034I1000000J0D01*
G01*
X-23071486Y-91953034D02*
X-23071486Y-91953034D01*
X-23071486Y-91953034D01*
X-23071486Y-91953034D01*
X-23071486Y-91953034D01*
X-23071486Y-91953034D01*
X-23071486Y-91953035D01*
X-23071486Y-91953035D01*
X-23071486Y-91953035D01*
X-23071486Y-91953035D01*
X-23071486Y-91953035D01*
X-23071486Y-91953035D01*
X-23071486Y-91953035D01*
X-23071487Y-91953035D01*
X-23071487Y-91953035D01*
X-23071487Y-91953035D01*
X-23071487Y-91953035D01*
X-23071487Y-91953035D01*
X-23071487Y-91953035D01*
X-23071487Y-91953035D01*
X-23071487Y-91953035D01*
X-23071487Y-91953035D01*
X-23071487Y-91953035D01*
X-23071487Y-91953035D01*
X-23071487Y-91953035D01*
X-23071488Y-91953035D01*
X-23071488Y-91953035D01*
X-23071488Y-91953035D01*
X-23071488Y-91953035D01*
X-23071488Y-91953035D01*
X-23071488Y-91953035D01*
X-23071488Y-91953034D01*
X-23071488Y-91953034D01*
X-23071488Y-91953034D01*
X-23071488Y-91953034D01*
X-23071488Y-91953034D01*
X-23071488Y-91953034D01*
X-23071488Y-91953034D02*
X-23071488Y-91953034D01*
X-23071488Y-91953034D01*
X-23071488Y-91953034D01*
X-23071488Y-91953034D01*
X-23071488Y-91953034D01*
X-23071488Y-91953034D01*
X-23071488Y-91953033D01*
X-23071488Y-91953033D01*
X-23071488Y-91953033D01*
X-23071488Y-91953033D01*
X-23071488Y-91953033D01*
X-23071487Y-91953033D01*
X-23071487Y-91953033D01*
X-23071487Y-91953033D01*
X-23071487Y-91953033D01*
X-23071487Y-91953033D01*
X-23071487Y-91953033D01*
X-23071487Y-91953033D01*
X-23071487Y-91953033D01*
X-23071487Y-91953033D01*
X-23071487Y-91953033D01*
X-23071487Y-91953033D01*
X-23071487Y-91953033D01*
X-23071486Y-91953033D01*
X-23071486Y-91953033D01*
X-23071486Y-91953033D01*
X-23071486Y-91953033D01*
X-23071486Y-91953033D01*
X-23071486Y-91953033D01*
X-23071486Y-91953034D01*
X-23071486Y-91953034D01*
X-23071486Y-91953034D01*
X-23071486Y-91953034D01*
X-23071486Y-91953034D01*
X-23071486Y-91953034D01*
X-23071486Y-91953034D01*
X-22071487Y-91953034D02*
G75*
G02*
X-24071487Y-91953034I-1000000J0D01*
G01*
X-24071487Y-91953034D02*
G75*
G02*
X-22071487Y-91953034I1000000J0D01*
G01*
X-20531486Y-91953034D02*
X-20531486Y-91953034D01*
X-20531486Y-91953034D01*
X-20531486Y-91953034D01*
X-20531486Y-91953034D01*
X-20531486Y-91953034D01*
X-20531486Y-91953035D01*
X-20531486Y-91953035D01*
X-20531486Y-91953035D01*
X-20531486Y-91953035D01*
X-20531486Y-91953035D01*
X-20531486Y-91953035D01*
X-20531486Y-91953035D01*
X-20531487Y-91953035D01*
X-20531487Y-91953035D01*
X-20531487Y-91953035D01*
X-20531487Y-91953035D01*
X-20531487Y-91953035D01*
X-20531487Y-91953035D01*
X-20531487Y-91953035D01*
X-20531487Y-91953035D01*
X-20531487Y-91953035D01*
X-20531487Y-91953035D01*
X-20531487Y-91953035D01*
X-20531487Y-91953035D01*
X-20531488Y-91953035D01*
X-20531488Y-91953035D01*
X-20531488Y-91953035D01*
X-20531488Y-91953035D01*
X-20531488Y-91953035D01*
X-20531488Y-91953035D01*
X-20531488Y-91953034D01*
X-20531488Y-91953034D01*
X-20531488Y-91953034D01*
X-20531488Y-91953034D01*
X-20531488Y-91953034D01*
X-20531488Y-91953034D01*
X-20531488Y-91953034D02*
X-20531488Y-91953034D01*
X-20531488Y-91953034D01*
X-20531488Y-91953034D01*
X-20531488Y-91953034D01*
X-20531488Y-91953034D01*
X-20531488Y-91953034D01*
X-20531488Y-91953033D01*
X-20531488Y-91953033D01*
X-20531488Y-91953033D01*
X-20531488Y-91953033D01*
X-20531488Y-91953033D01*
X-20531487Y-91953033D01*
X-20531487Y-91953033D01*
X-20531487Y-91953033D01*
X-20531487Y-91953033D01*
X-20531487Y-91953033D01*
X-20531487Y-91953033D01*
X-20531487Y-91953033D01*
X-20531487Y-91953033D01*
X-20531487Y-91953033D01*
X-20531487Y-91953033D01*
X-20531487Y-91953033D01*
X-20531487Y-91953033D01*
X-20531486Y-91953033D01*
X-20531486Y-91953033D01*
X-20531486Y-91953033D01*
X-20531486Y-91953033D01*
X-20531486Y-91953033D01*
X-20531486Y-91953033D01*
X-20531486Y-91953034D01*
X-20531486Y-91953034D01*
X-20531486Y-91953034D01*
X-20531486Y-91953034D01*
X-20531486Y-91953034D01*
X-20531486Y-91953034D01*
X-20531486Y-91953034D01*
X-19531487Y-91953034D02*
G75*
G02*
X-21531487Y-91953034I-1000000J0D01*
G01*
X-21531487Y-91953034D02*
G75*
G02*
X-19531487Y-91953034I1000000J0D01*
G01*
X-17991486Y-91953034D02*
X-17991486Y-91953034D01*
X-17991486Y-91953034D01*
X-17991486Y-91953034D01*
X-17991486Y-91953034D01*
X-17991486Y-91953034D01*
X-17991486Y-91953035D01*
X-17991486Y-91953035D01*
X-17991486Y-91953035D01*
X-17991486Y-91953035D01*
X-17991486Y-91953035D01*
X-17991486Y-91953035D01*
X-17991486Y-91953035D01*
X-17991487Y-91953035D01*
X-17991487Y-91953035D01*
X-17991487Y-91953035D01*
X-17991487Y-91953035D01*
X-17991487Y-91953035D01*
X-17991487Y-91953035D01*
X-17991487Y-91953035D01*
X-17991487Y-91953035D01*
X-17991487Y-91953035D01*
X-17991487Y-91953035D01*
X-17991487Y-91953035D01*
X-17991487Y-91953035D01*
X-17991488Y-91953035D01*
X-17991488Y-91953035D01*
X-17991488Y-91953035D01*
X-17991488Y-91953035D01*
X-17991488Y-91953035D01*
X-17991488Y-91953035D01*
X-17991488Y-91953034D01*
X-17991488Y-91953034D01*
X-17991488Y-91953034D01*
X-17991488Y-91953034D01*
X-17991488Y-91953034D01*
X-17991488Y-91953034D01*
X-17991488Y-91953034D02*
X-17991488Y-91953034D01*
X-17991488Y-91953034D01*
X-17991488Y-91953034D01*
X-17991488Y-91953034D01*
X-17991488Y-91953034D01*
X-17991488Y-91953034D01*
X-17991488Y-91953033D01*
X-17991488Y-91953033D01*
X-17991488Y-91953033D01*
X-17991488Y-91953033D01*
X-17991488Y-91953033D01*
X-17991487Y-91953033D01*
X-17991487Y-91953033D01*
X-17991487Y-91953033D01*
X-17991487Y-91953033D01*
X-17991487Y-91953033D01*
X-17991487Y-91953033D01*
X-17991487Y-91953033D01*
X-17991487Y-91953033D01*
X-17991487Y-91953033D01*
X-17991487Y-91953033D01*
X-17991487Y-91953033D01*
X-17991487Y-91953033D01*
X-17991486Y-91953033D01*
X-17991486Y-91953033D01*
X-17991486Y-91953033D01*
X-17991486Y-91953033D01*
X-17991486Y-91953033D01*
X-17991486Y-91953033D01*
X-17991486Y-91953034D01*
X-17991486Y-91953034D01*
X-17991486Y-91953034D01*
X-17991486Y-91953034D01*
X-17991486Y-91953034D01*
X-17991486Y-91953034D01*
X-17991486Y-91953034D01*
X-16991487Y-91953034D02*
G75*
G02*
X-18991487Y-91953034I-1000000J0D01*
G01*
X-18991487Y-91953034D02*
G75*
G02*
X-16991487Y-91953034I1000000J0D01*
G01*
X-15451486Y-91953034D02*
X-15451486Y-91953034D01*
X-15451486Y-91953034D01*
X-15451486Y-91953034D01*
X-15451486Y-91953034D01*
X-15451486Y-91953034D01*
X-15451486Y-91953035D01*
X-15451486Y-91953035D01*
X-15451486Y-91953035D01*
X-15451486Y-91953035D01*
X-15451486Y-91953035D01*
X-15451486Y-91953035D01*
X-15451486Y-91953035D01*
X-15451487Y-91953035D01*
X-15451487Y-91953035D01*
X-15451487Y-91953035D01*
X-15451487Y-91953035D01*
X-15451487Y-91953035D01*
X-15451487Y-91953035D01*
X-15451487Y-91953035D01*
X-15451487Y-91953035D01*
X-15451487Y-91953035D01*
X-15451487Y-91953035D01*
X-15451487Y-91953035D01*
X-15451487Y-91953035D01*
X-15451488Y-91953035D01*
X-15451488Y-91953035D01*
X-15451488Y-91953035D01*
X-15451488Y-91953035D01*
X-15451488Y-91953035D01*
X-15451488Y-91953035D01*
X-15451488Y-91953034D01*
X-15451488Y-91953034D01*
X-15451488Y-91953034D01*
X-15451488Y-91953034D01*
X-15451488Y-91953034D01*
X-15451488Y-91953034D01*
X-15451488Y-91953034D02*
X-15451488Y-91953034D01*
X-15451488Y-91953034D01*
X-15451488Y-91953034D01*
X-15451488Y-91953034D01*
X-15451488Y-91953034D01*
X-15451488Y-91953034D01*
X-15451488Y-91953033D01*
X-15451488Y-91953033D01*
X-15451488Y-91953033D01*
X-15451488Y-91953033D01*
X-15451488Y-91953033D01*
X-15451487Y-91953033D01*
X-15451487Y-91953033D01*
X-15451487Y-91953033D01*
X-15451487Y-91953033D01*
X-15451487Y-91953033D01*
X-15451487Y-91953033D01*
X-15451487Y-91953033D01*
X-15451487Y-91953033D01*
X-15451487Y-91953033D01*
X-15451487Y-91953033D01*
X-15451487Y-91953033D01*
X-15451487Y-91953033D01*
X-15451486Y-91953033D01*
X-15451486Y-91953033D01*
X-15451486Y-91953033D01*
X-15451486Y-91953033D01*
X-15451486Y-91953033D01*
X-15451486Y-91953033D01*
X-15451486Y-91953034D01*
X-15451486Y-91953034D01*
X-15451486Y-91953034D01*
X-15451486Y-91953034D01*
X-15451486Y-91953034D01*
X-15451486Y-91953034D01*
X-15451486Y-91953034D01*
X-14451487Y-91953034D02*
G75*
G02*
X-16451487Y-91953034I-1000000J0D01*
G01*
X-16451487Y-91953034D02*
G75*
G02*
X-14451487Y-91953034I1000000J0D01*
G01*
X-12911486Y-91953034D02*
X-12911486Y-91953034D01*
X-12911486Y-91953034D01*
X-12911486Y-91953034D01*
X-12911486Y-91953034D01*
X-12911486Y-91953034D01*
X-12911486Y-91953035D01*
X-12911486Y-91953035D01*
X-12911486Y-91953035D01*
X-12911486Y-91953035D01*
X-12911486Y-91953035D01*
X-12911486Y-91953035D01*
X-12911486Y-91953035D01*
X-12911487Y-91953035D01*
X-12911487Y-91953035D01*
X-12911487Y-91953035D01*
X-12911487Y-91953035D01*
X-12911487Y-91953035D01*
X-12911487Y-91953035D01*
X-12911487Y-91953035D01*
X-12911487Y-91953035D01*
X-12911487Y-91953035D01*
X-12911487Y-91953035D01*
X-12911487Y-91953035D01*
X-12911487Y-91953035D01*
X-12911488Y-91953035D01*
X-12911488Y-91953035D01*
X-12911488Y-91953035D01*
X-12911488Y-91953035D01*
X-12911488Y-91953035D01*
X-12911488Y-91953035D01*
X-12911488Y-91953034D01*
X-12911488Y-91953034D01*
X-12911488Y-91953034D01*
X-12911488Y-91953034D01*
X-12911488Y-91953034D01*
X-12911488Y-91953034D01*
X-12911488Y-91953034D02*
X-12911488Y-91953034D01*
X-12911488Y-91953034D01*
X-12911488Y-91953034D01*
X-12911488Y-91953034D01*
X-12911488Y-91953034D01*
X-12911488Y-91953034D01*
X-12911488Y-91953033D01*
X-12911488Y-91953033D01*
X-12911488Y-91953033D01*
X-12911488Y-91953033D01*
X-12911488Y-91953033D01*
X-12911487Y-91953033D01*
X-12911487Y-91953033D01*
X-12911487Y-91953033D01*
X-12911487Y-91953033D01*
X-12911487Y-91953033D01*
X-12911487Y-91953033D01*
X-12911487Y-91953033D01*
X-12911487Y-91953033D01*
X-12911487Y-91953033D01*
X-12911487Y-91953033D01*
X-12911487Y-91953033D01*
X-12911487Y-91953033D01*
X-12911486Y-91953033D01*
X-12911486Y-91953033D01*
X-12911486Y-91953033D01*
X-12911486Y-91953033D01*
X-12911486Y-91953033D01*
X-12911486Y-91953033D01*
X-12911486Y-91953034D01*
X-12911486Y-91953034D01*
X-12911486Y-91953034D01*
X-12911486Y-91953034D01*
X-12911486Y-91953034D01*
X-12911486Y-91953034D01*
X-12911486Y-91953034D01*
X-11911487Y-91953034D02*
G75*
G02*
X-13911487Y-91953034I-1000000J0D01*
G01*
X-13911487Y-91953034D02*
G75*
G02*
X-11911487Y-91953034I1000000J0D01*
G01*
X-10371486Y-91953034D02*
X-10371486Y-91953034D01*
X-10371486Y-91953034D01*
X-10371486Y-91953034D01*
X-10371486Y-91953034D01*
X-10371486Y-91953034D01*
X-10371486Y-91953035D01*
X-10371486Y-91953035D01*
X-10371486Y-91953035D01*
X-10371486Y-91953035D01*
X-10371486Y-91953035D01*
X-10371486Y-91953035D01*
X-10371486Y-91953035D01*
X-10371487Y-91953035D01*
X-10371487Y-91953035D01*
X-10371487Y-91953035D01*
X-10371487Y-91953035D01*
X-10371487Y-91953035D01*
X-10371487Y-91953035D01*
X-10371487Y-91953035D01*
X-10371487Y-91953035D01*
X-10371487Y-91953035D01*
X-10371487Y-91953035D01*
X-10371487Y-91953035D01*
X-10371487Y-91953035D01*
X-10371488Y-91953035D01*
X-10371488Y-91953035D01*
X-10371488Y-91953035D01*
X-10371488Y-91953035D01*
X-10371488Y-91953035D01*
X-10371488Y-91953035D01*
X-10371488Y-91953034D01*
X-10371488Y-91953034D01*
X-10371488Y-91953034D01*
X-10371488Y-91953034D01*
X-10371488Y-91953034D01*
X-10371488Y-91953034D01*
X-10371488Y-91953034D02*
X-10371488Y-91953034D01*
X-10371488Y-91953034D01*
X-10371488Y-91953034D01*
X-10371488Y-91953034D01*
X-10371488Y-91953034D01*
X-10371488Y-91953034D01*
X-10371488Y-91953033D01*
X-10371488Y-91953033D01*
X-10371488Y-91953033D01*
X-10371488Y-91953033D01*
X-10371488Y-91953033D01*
X-10371487Y-91953033D01*
X-10371487Y-91953033D01*
X-10371487Y-91953033D01*
X-10371487Y-91953033D01*
X-10371487Y-91953033D01*
X-10371487Y-91953033D01*
X-10371487Y-91953033D01*
X-10371487Y-91953033D01*
X-10371487Y-91953033D01*
X-10371487Y-91953033D01*
X-10371487Y-91953033D01*
X-10371487Y-91953033D01*
X-10371486Y-91953033D01*
X-10371486Y-91953033D01*
X-10371486Y-91953033D01*
X-10371486Y-91953033D01*
X-10371486Y-91953033D01*
X-10371486Y-91953033D01*
X-10371486Y-91953034D01*
X-10371486Y-91953034D01*
X-10371486Y-91953034D01*
X-10371486Y-91953034D01*
X-10371486Y-91953034D01*
X-10371486Y-91953034D01*
X-10371486Y-91953034D01*
X-9371487Y-91953034D02*
G75*
G02*
X-11371487Y-91953034I-1000000J0D01*
G01*
X-11371487Y-91953034D02*
G75*
G02*
X-9371487Y-91953034I1000000J0D01*
G01*
X-7831486Y-91953034D02*
X-7831486Y-91953034D01*
X-7831486Y-91953034D01*
X-7831486Y-91953034D01*
X-7831486Y-91953034D01*
X-7831486Y-91953034D01*
X-7831486Y-91953035D01*
X-7831486Y-91953035D01*
X-7831486Y-91953035D01*
X-7831486Y-91953035D01*
X-7831486Y-91953035D01*
X-7831486Y-91953035D01*
X-7831486Y-91953035D01*
X-7831487Y-91953035D01*
X-7831487Y-91953035D01*
X-7831487Y-91953035D01*
X-7831487Y-91953035D01*
X-7831487Y-91953035D01*
X-7831487Y-91953035D01*
X-7831487Y-91953035D01*
X-7831487Y-91953035D01*
X-7831487Y-91953035D01*
X-7831487Y-91953035D01*
X-7831487Y-91953035D01*
X-7831487Y-91953035D01*
X-7831488Y-91953035D01*
X-7831488Y-91953035D01*
X-7831488Y-91953035D01*
X-7831488Y-91953035D01*
X-7831488Y-91953035D01*
X-7831488Y-91953035D01*
X-7831488Y-91953034D01*
X-7831488Y-91953034D01*
X-7831488Y-91953034D01*
X-7831488Y-91953034D01*
X-7831488Y-91953034D01*
X-7831488Y-91953034D01*
X-7831488Y-91953034D02*
X-7831488Y-91953034D01*
X-7831488Y-91953034D01*
X-7831488Y-91953034D01*
X-7831488Y-91953034D01*
X-7831488Y-91953034D01*
X-7831488Y-91953034D01*
X-7831488Y-91953033D01*
X-7831488Y-91953033D01*
X-7831488Y-91953033D01*
X-7831488Y-91953033D01*
X-7831488Y-91953033D01*
X-7831487Y-91953033D01*
X-7831487Y-91953033D01*
X-7831487Y-91953033D01*
X-7831487Y-91953033D01*
X-7831487Y-91953033D01*
X-7831487Y-91953033D01*
X-7831487Y-91953033D01*
X-7831487Y-91953033D01*
X-7831487Y-91953033D01*
X-7831487Y-91953033D01*
X-7831487Y-91953033D01*
X-7831487Y-91953033D01*
X-7831486Y-91953033D01*
X-7831486Y-91953033D01*
X-7831486Y-91953033D01*
X-7831486Y-91953033D01*
X-7831486Y-91953033D01*
X-7831486Y-91953033D01*
X-7831486Y-91953034D01*
X-7831486Y-91953034D01*
X-7831486Y-91953034D01*
X-7831486Y-91953034D01*
X-7831486Y-91953034D01*
X-7831486Y-91953034D01*
X-7831486Y-91953034D01*
X-6831487Y-91953034D02*
G75*
G02*
X-8831487Y-91953034I-1000000J0D01*
G01*
X-8831487Y-91953034D02*
G75*
G02*
X-6831487Y-91953034I1000000J0D01*
G01*
X-5291486Y-91953034D02*
X-5291486Y-91953034D01*
X-5291486Y-91953034D01*
X-5291486Y-91953034D01*
X-5291486Y-91953034D01*
X-5291486Y-91953034D01*
X-5291486Y-91953035D01*
X-5291486Y-91953035D01*
X-5291486Y-91953035D01*
X-5291486Y-91953035D01*
X-5291486Y-91953035D01*
X-5291486Y-91953035D01*
X-5291486Y-91953035D01*
X-5291487Y-91953035D01*
X-5291487Y-91953035D01*
X-5291487Y-91953035D01*
X-5291487Y-91953035D01*
X-5291487Y-91953035D01*
X-5291487Y-91953035D01*
X-5291487Y-91953035D01*
X-5291487Y-91953035D01*
X-5291487Y-91953035D01*
X-5291487Y-91953035D01*
X-5291487Y-91953035D01*
X-5291487Y-91953035D01*
X-5291488Y-91953035D01*
X-5291488Y-91953035D01*
X-5291488Y-91953035D01*
X-5291488Y-91953035D01*
X-5291488Y-91953035D01*
X-5291488Y-91953035D01*
X-5291488Y-91953034D01*
X-5291488Y-91953034D01*
X-5291488Y-91953034D01*
X-5291488Y-91953034D01*
X-5291488Y-91953034D01*
X-5291488Y-91953034D01*
X-5291488Y-91953034D02*
X-5291488Y-91953034D01*
X-5291488Y-91953034D01*
X-5291488Y-91953034D01*
X-5291488Y-91953034D01*
X-5291488Y-91953034D01*
X-5291488Y-91953034D01*
X-5291488Y-91953033D01*
X-5291488Y-91953033D01*
X-5291488Y-91953033D01*
X-5291488Y-91953033D01*
X-5291488Y-91953033D01*
X-5291487Y-91953033D01*
X-5291487Y-91953033D01*
X-5291487Y-91953033D01*
X-5291487Y-91953033D01*
X-5291487Y-91953033D01*
X-5291487Y-91953033D01*
X-5291487Y-91953033D01*
X-5291487Y-91953033D01*
X-5291487Y-91953033D01*
X-5291487Y-91953033D01*
X-5291487Y-91953033D01*
X-5291487Y-91953033D01*
X-5291486Y-91953033D01*
X-5291486Y-91953033D01*
X-5291486Y-91953033D01*
X-5291486Y-91953033D01*
X-5291486Y-91953033D01*
X-5291486Y-91953033D01*
X-5291486Y-91953034D01*
X-5291486Y-91953034D01*
X-5291486Y-91953034D01*
X-5291486Y-91953034D01*
X-5291486Y-91953034D01*
X-5291486Y-91953034D01*
X-5291486Y-91953034D01*
X-4291487Y-91953034D02*
G75*
G02*
X-6291487Y-91953034I-1000000J0D01*
G01*
X-6291487Y-91953034D02*
G75*
G02*
X-4291487Y-91953034I1000000J0D01*
G01*
X-2751486Y-91953034D02*
X-2751486Y-91953034D01*
X-2751486Y-91953034D01*
X-2751486Y-91953034D01*
X-2751486Y-91953034D01*
X-2751486Y-91953034D01*
X-2751486Y-91953035D01*
X-2751486Y-91953035D01*
X-2751486Y-91953035D01*
X-2751486Y-91953035D01*
X-2751486Y-91953035D01*
X-2751486Y-91953035D01*
X-2751486Y-91953035D01*
X-2751487Y-91953035D01*
X-2751487Y-91953035D01*
X-2751487Y-91953035D01*
X-2751487Y-91953035D01*
X-2751487Y-91953035D01*
X-2751487Y-91953035D01*
X-2751487Y-91953035D01*
X-2751487Y-91953035D01*
X-2751487Y-91953035D01*
X-2751487Y-91953035D01*
X-2751487Y-91953035D01*
X-2751487Y-91953035D01*
X-2751488Y-91953035D01*
X-2751488Y-91953035D01*
X-2751488Y-91953035D01*
X-2751488Y-91953035D01*
X-2751488Y-91953035D01*
X-2751488Y-91953035D01*
X-2751488Y-91953034D01*
X-2751488Y-91953034D01*
X-2751488Y-91953034D01*
X-2751488Y-91953034D01*
X-2751488Y-91953034D01*
X-2751488Y-91953034D01*
X-2751488Y-91953034D02*
X-2751488Y-91953034D01*
X-2751488Y-91953034D01*
X-2751488Y-91953034D01*
X-2751488Y-91953034D01*
X-2751488Y-91953034D01*
X-2751488Y-91953034D01*
X-2751488Y-91953033D01*
X-2751488Y-91953033D01*
X-2751488Y-91953033D01*
X-2751488Y-91953033D01*
X-2751488Y-91953033D01*
X-2751487Y-91953033D01*
X-2751487Y-91953033D01*
X-2751487Y-91953033D01*
X-2751487Y-91953033D01*
X-2751487Y-91953033D01*
X-2751487Y-91953033D01*
X-2751487Y-91953033D01*
X-2751487Y-91953033D01*
X-2751487Y-91953033D01*
X-2751487Y-91953033D01*
X-2751487Y-91953033D01*
X-2751487Y-91953033D01*
X-2751486Y-91953033D01*
X-2751486Y-91953033D01*
X-2751486Y-91953033D01*
X-2751486Y-91953033D01*
X-2751486Y-91953033D01*
X-2751486Y-91953033D01*
X-2751486Y-91953034D01*
X-2751486Y-91953034D01*
X-2751486Y-91953034D01*
X-2751486Y-91953034D01*
X-2751486Y-91953034D01*
X-2751486Y-91953034D01*
X-2751486Y-91953034D01*
X-1751487Y-91953034D02*
G75*
G02*
X-3751487Y-91953034I-1000000J0D01*
G01*
X-3751487Y-91953034D02*
G75*
G02*
X-1751487Y-91953034I1000000J0D01*
G01*
X-211486Y-91953034D02*
X-211486Y-91953034D01*
X-211486Y-91953034D01*
X-211486Y-91953034D01*
X-211486Y-91953034D01*
X-211486Y-91953034D01*
X-211486Y-91953035D01*
X-211486Y-91953035D01*
X-211486Y-91953035D01*
X-211486Y-91953035D01*
X-211486Y-91953035D01*
X-211486Y-91953035D01*
X-211486Y-91953035D01*
X-211487Y-91953035D01*
X-211487Y-91953035D01*
X-211487Y-91953035D01*
X-211487Y-91953035D01*
X-211487Y-91953035D01*
X-211487Y-91953035D01*
X-211487Y-91953035D01*
X-211487Y-91953035D01*
X-211487Y-91953035D01*
X-211487Y-91953035D01*
X-211487Y-91953035D01*
X-211487Y-91953035D01*
X-211488Y-91953035D01*
X-211488Y-91953035D01*
X-211488Y-91953035D01*
X-211488Y-91953035D01*
X-211488Y-91953035D01*
X-211488Y-91953035D01*
X-211488Y-91953034D01*
X-211488Y-91953034D01*
X-211488Y-91953034D01*
X-211488Y-91953034D01*
X-211488Y-91953034D01*
X-211488Y-91953034D01*
X-211488Y-91953034D02*
X-211488Y-91953034D01*
X-211488Y-91953034D01*
X-211488Y-91953034D01*
X-211488Y-91953034D01*
X-211488Y-91953034D01*
X-211488Y-91953034D01*
X-211488Y-91953033D01*
X-211488Y-91953033D01*
X-211488Y-91953033D01*
X-211488Y-91953033D01*
X-211488Y-91953033D01*
X-211487Y-91953033D01*
X-211487Y-91953033D01*
X-211487Y-91953033D01*
X-211487Y-91953033D01*
X-211487Y-91953033D01*
X-211487Y-91953033D01*
X-211487Y-91953033D01*
X-211487Y-91953033D01*
X-211487Y-91953033D01*
X-211487Y-91953033D01*
X-211487Y-91953033D01*
X-211487Y-91953033D01*
X-211486Y-91953033D01*
X-211486Y-91953033D01*
X-211486Y-91953033D01*
X-211486Y-91953033D01*
X-211486Y-91953033D01*
X-211486Y-91953033D01*
X-211486Y-91953034D01*
X-211486Y-91953034D01*
X-211486Y-91953034D01*
X-211486Y-91953034D01*
X-211486Y-91953034D01*
X-211486Y-91953034D01*
X-211486Y-91953034D01*
X788513Y-91953034D02*
G75*
G02*
X-1211487Y-91953034I-1000000J0D01*
G01*
X-1211487Y-91953034D02*
G75*
G02*
X788513Y-91953034I1000000J0D01*
G01*
X2328514Y-91953034D02*
X2328514Y-91953034D01*
X2328514Y-91953034D01*
X2328514Y-91953034D01*
X2328514Y-91953034D01*
X2328514Y-91953034D01*
X2328514Y-91953035D01*
X2328514Y-91953035D01*
X2328514Y-91953035D01*
X2328514Y-91953035D01*
X2328514Y-91953035D01*
X2328514Y-91953035D01*
X2328514Y-91953035D01*
X2328513Y-91953035D01*
X2328513Y-91953035D01*
X2328513Y-91953035D01*
X2328513Y-91953035D01*
X2328513Y-91953035D01*
X2328513Y-91953035D01*
X2328513Y-91953035D01*
X2328513Y-91953035D01*
X2328513Y-91953035D01*
X2328513Y-91953035D01*
X2328513Y-91953035D01*
X2328513Y-91953035D01*
X2328512Y-91953035D01*
X2328512Y-91953035D01*
X2328512Y-91953035D01*
X2328512Y-91953035D01*
X2328512Y-91953035D01*
X2328512Y-91953035D01*
X2328512Y-91953034D01*
X2328512Y-91953034D01*
X2328512Y-91953034D01*
X2328512Y-91953034D01*
X2328512Y-91953034D01*
X2328512Y-91953034D01*
X2328512Y-91953034D02*
X2328512Y-91953034D01*
X2328512Y-91953034D01*
X2328512Y-91953034D01*
X2328512Y-91953034D01*
X2328512Y-91953034D01*
X2328512Y-91953034D01*
X2328512Y-91953033D01*
X2328512Y-91953033D01*
X2328512Y-91953033D01*
X2328512Y-91953033D01*
X2328512Y-91953033D01*
X2328513Y-91953033D01*
X2328513Y-91953033D01*
X2328513Y-91953033D01*
X2328513Y-91953033D01*
X2328513Y-91953033D01*
X2328513Y-91953033D01*
X2328513Y-91953033D01*
X2328513Y-91953033D01*
X2328513Y-91953033D01*
X2328513Y-91953033D01*
X2328513Y-91953033D01*
X2328513Y-91953033D01*
X2328514Y-91953033D01*
X2328514Y-91953033D01*
X2328514Y-91953033D01*
X2328514Y-91953033D01*
X2328514Y-91953033D01*
X2328514Y-91953033D01*
X2328514Y-91953034D01*
X2328514Y-91953034D01*
X2328514Y-91953034D01*
X2328514Y-91953034D01*
X2328514Y-91953034D01*
X2328514Y-91953034D01*
X2328514Y-91953034D01*
X3328513Y-91953034D02*
G75*
G02*
X1328513Y-91953034I-1000000J0D01*
G01*
X1328513Y-91953034D02*
G75*
G02*
X3328513Y-91953034I1000000J0D01*
G01*
X4868514Y-91953034D02*
X4868514Y-91953034D01*
X4868514Y-91953034D01*
X4868514Y-91953034D01*
X4868514Y-91953034D01*
X4868514Y-91953034D01*
X4868514Y-91953035D01*
X4868514Y-91953035D01*
X4868514Y-91953035D01*
X4868514Y-91953035D01*
X4868514Y-91953035D01*
X4868514Y-91953035D01*
X4868514Y-91953035D01*
X4868513Y-91953035D01*
X4868513Y-91953035D01*
X4868513Y-91953035D01*
X4868513Y-91953035D01*
X4868513Y-91953035D01*
X4868513Y-91953035D01*
X4868513Y-91953035D01*
X4868513Y-91953035D01*
X4868513Y-91953035D01*
X4868513Y-91953035D01*
X4868513Y-91953035D01*
X4868513Y-91953035D01*
X4868512Y-91953035D01*
X4868512Y-91953035D01*
X4868512Y-91953035D01*
X4868512Y-91953035D01*
X4868512Y-91953035D01*
X4868512Y-91953035D01*
X4868512Y-91953034D01*
X4868512Y-91953034D01*
X4868512Y-91953034D01*
X4868512Y-91953034D01*
X4868512Y-91953034D01*
X4868512Y-91953034D01*
X4868512Y-91953034D02*
X4868512Y-91953034D01*
X4868512Y-91953034D01*
X4868512Y-91953034D01*
X4868512Y-91953034D01*
X4868512Y-91953034D01*
X4868512Y-91953034D01*
X4868512Y-91953033D01*
X4868512Y-91953033D01*
X4868512Y-91953033D01*
X4868512Y-91953033D01*
X4868512Y-91953033D01*
X4868513Y-91953033D01*
X4868513Y-91953033D01*
X4868513Y-91953033D01*
X4868513Y-91953033D01*
X4868513Y-91953033D01*
X4868513Y-91953033D01*
X4868513Y-91953033D01*
X4868513Y-91953033D01*
X4868513Y-91953033D01*
X4868513Y-91953033D01*
X4868513Y-91953033D01*
X4868513Y-91953033D01*
X4868514Y-91953033D01*
X4868514Y-91953033D01*
X4868514Y-91953033D01*
X4868514Y-91953033D01*
X4868514Y-91953033D01*
X4868514Y-91953033D01*
X4868514Y-91953034D01*
X4868514Y-91953034D01*
X4868514Y-91953034D01*
X4868514Y-91953034D01*
X4868514Y-91953034D01*
X4868514Y-91953034D01*
X4868514Y-91953034D01*
X5868513Y-91953034D02*
G75*
G02*
X3868513Y-91953034I-1000000J0D01*
G01*
X3868513Y-91953034D02*
G75*
G02*
X5868513Y-91953034I1000000J0D01*
G01*
X7408514Y-91953034D02*
X7408514Y-91953034D01*
X7408514Y-91953034D01*
X7408514Y-91953034D01*
X7408514Y-91953034D01*
X7408514Y-91953034D01*
X7408514Y-91953035D01*
X7408514Y-91953035D01*
X7408514Y-91953035D01*
X7408514Y-91953035D01*
X7408514Y-91953035D01*
X7408514Y-91953035D01*
X7408514Y-91953035D01*
X7408513Y-91953035D01*
X7408513Y-91953035D01*
X7408513Y-91953035D01*
X7408513Y-91953035D01*
X7408513Y-91953035D01*
X7408513Y-91953035D01*
X7408513Y-91953035D01*
X7408513Y-91953035D01*
X7408513Y-91953035D01*
X7408513Y-91953035D01*
X7408513Y-91953035D01*
X7408513Y-91953035D01*
X7408512Y-91953035D01*
X7408512Y-91953035D01*
X7408512Y-91953035D01*
X7408512Y-91953035D01*
X7408512Y-91953035D01*
X7408512Y-91953035D01*
X7408512Y-91953034D01*
X7408512Y-91953034D01*
X7408512Y-91953034D01*
X7408512Y-91953034D01*
X7408512Y-91953034D01*
X7408512Y-91953034D01*
X7408512Y-91953034D02*
X7408512Y-91953034D01*
X7408512Y-91953034D01*
X7408512Y-91953034D01*
X7408512Y-91953034D01*
X7408512Y-91953034D01*
X7408512Y-91953034D01*
X7408512Y-91953033D01*
X7408512Y-91953033D01*
X7408512Y-91953033D01*
X7408512Y-91953033D01*
X7408512Y-91953033D01*
X7408513Y-91953033D01*
X7408513Y-91953033D01*
X7408513Y-91953033D01*
X7408513Y-91953033D01*
X7408513Y-91953033D01*
X7408513Y-91953033D01*
X7408513Y-91953033D01*
X7408513Y-91953033D01*
X7408513Y-91953033D01*
X7408513Y-91953033D01*
X7408513Y-91953033D01*
X7408513Y-91953033D01*
X7408514Y-91953033D01*
X7408514Y-91953033D01*
X7408514Y-91953033D01*
X7408514Y-91953033D01*
X7408514Y-91953033D01*
X7408514Y-91953033D01*
X7408514Y-91953034D01*
X7408514Y-91953034D01*
X7408514Y-91953034D01*
X7408514Y-91953034D01*
X7408514Y-91953034D01*
X7408514Y-91953034D01*
X7408514Y-91953034D01*
X8408513Y-91953034D02*
G75*
G02*
X6408513Y-91953034I-1000000J0D01*
G01*
X6408513Y-91953034D02*
G75*
G02*
X8408513Y-91953034I1000000J0D01*
G01*
X9948514Y-91953034D02*
X9948514Y-91953034D01*
X9948514Y-91953034D01*
X9948514Y-91953034D01*
X9948514Y-91953034D01*
X9948514Y-91953034D01*
X9948514Y-91953035D01*
X9948514Y-91953035D01*
X9948514Y-91953035D01*
X9948514Y-91953035D01*
X9948514Y-91953035D01*
X9948514Y-91953035D01*
X9948514Y-91953035D01*
X9948513Y-91953035D01*
X9948513Y-91953035D01*
X9948513Y-91953035D01*
X9948513Y-91953035D01*
X9948513Y-91953035D01*
X9948513Y-91953035D01*
X9948513Y-91953035D01*
X9948513Y-91953035D01*
X9948513Y-91953035D01*
X9948513Y-91953035D01*
X9948513Y-91953035D01*
X9948513Y-91953035D01*
X9948512Y-91953035D01*
X9948512Y-91953035D01*
X9948512Y-91953035D01*
X9948512Y-91953035D01*
X9948512Y-91953035D01*
X9948512Y-91953035D01*
X9948512Y-91953034D01*
X9948512Y-91953034D01*
X9948512Y-91953034D01*
X9948512Y-91953034D01*
X9948512Y-91953034D01*
X9948512Y-91953034D01*
X9948512Y-91953034D02*
X9948512Y-91953034D01*
X9948512Y-91953034D01*
X9948512Y-91953034D01*
X9948512Y-91953034D01*
X9948512Y-91953034D01*
X9948512Y-91953034D01*
X9948512Y-91953033D01*
X9948512Y-91953033D01*
X9948512Y-91953033D01*
X9948512Y-91953033D01*
X9948512Y-91953033D01*
X9948513Y-91953033D01*
X9948513Y-91953033D01*
X9948513Y-91953033D01*
X9948513Y-91953033D01*
X9948513Y-91953033D01*
X9948513Y-91953033D01*
X9948513Y-91953033D01*
X9948513Y-91953033D01*
X9948513Y-91953033D01*
X9948513Y-91953033D01*
X9948513Y-91953033D01*
X9948513Y-91953033D01*
X9948514Y-91953033D01*
X9948514Y-91953033D01*
X9948514Y-91953033D01*
X9948514Y-91953033D01*
X9948514Y-91953033D01*
X9948514Y-91953033D01*
X9948514Y-91953034D01*
X9948514Y-91953034D01*
X9948514Y-91953034D01*
X9948514Y-91953034D01*
X9948514Y-91953034D01*
X9948514Y-91953034D01*
X9948514Y-91953034D01*
X10948513Y-91953034D02*
G75*
G02*
X8948513Y-91953034I-1000000J0D01*
G01*
X8948513Y-91953034D02*
G75*
G02*
X10948513Y-91953034I1000000J0D01*
G01*
X12488514Y-91953034D02*
X12488514Y-91953034D01*
X12488514Y-91953034D01*
X12488514Y-91953034D01*
X12488514Y-91953034D01*
X12488514Y-91953034D01*
X12488514Y-91953035D01*
X12488514Y-91953035D01*
X12488514Y-91953035D01*
X12488514Y-91953035D01*
X12488514Y-91953035D01*
X12488514Y-91953035D01*
X12488514Y-91953035D01*
X12488513Y-91953035D01*
X12488513Y-91953035D01*
X12488513Y-91953035D01*
X12488513Y-91953035D01*
X12488513Y-91953035D01*
X12488513Y-91953035D01*
X12488513Y-91953035D01*
X12488513Y-91953035D01*
X12488513Y-91953035D01*
X12488513Y-91953035D01*
X12488513Y-91953035D01*
X12488513Y-91953035D01*
X12488512Y-91953035D01*
X12488512Y-91953035D01*
X12488512Y-91953035D01*
X12488512Y-91953035D01*
X12488512Y-91953035D01*
X12488512Y-91953035D01*
X12488512Y-91953034D01*
X12488512Y-91953034D01*
X12488512Y-91953034D01*
X12488512Y-91953034D01*
X12488512Y-91953034D01*
X12488512Y-91953034D01*
X12488512Y-91953034D02*
X12488512Y-91953034D01*
X12488512Y-91953034D01*
X12488512Y-91953034D01*
X12488512Y-91953034D01*
X12488512Y-91953034D01*
X12488512Y-91953034D01*
X12488512Y-91953033D01*
X12488512Y-91953033D01*
X12488512Y-91953033D01*
X12488512Y-91953033D01*
X12488512Y-91953033D01*
X12488513Y-91953033D01*
X12488513Y-91953033D01*
X12488513Y-91953033D01*
X12488513Y-91953033D01*
X12488513Y-91953033D01*
X12488513Y-91953033D01*
X12488513Y-91953033D01*
X12488513Y-91953033D01*
X12488513Y-91953033D01*
X12488513Y-91953033D01*
X12488513Y-91953033D01*
X12488513Y-91953033D01*
X12488514Y-91953033D01*
X12488514Y-91953033D01*
X12488514Y-91953033D01*
X12488514Y-91953033D01*
X12488514Y-91953033D01*
X12488514Y-91953033D01*
X12488514Y-91953034D01*
X12488514Y-91953034D01*
X12488514Y-91953034D01*
X12488514Y-91953034D01*
X12488514Y-91953034D01*
X12488514Y-91953034D01*
X12488514Y-91953034D01*
X13488513Y-91953034D02*
G75*
G02*
X11488513Y-91953034I-1000000J0D01*
G01*
X11488513Y-91953034D02*
G75*
G02*
X13488513Y-91953034I1000000J0D01*
G01*
X15028514Y-91953034D02*
X15028514Y-91953034D01*
X15028514Y-91953034D01*
X15028514Y-91953034D01*
X15028514Y-91953034D01*
X15028514Y-91953034D01*
X15028514Y-91953035D01*
X15028514Y-91953035D01*
X15028514Y-91953035D01*
X15028514Y-91953035D01*
X15028514Y-91953035D01*
X15028514Y-91953035D01*
X15028514Y-91953035D01*
X15028513Y-91953035D01*
X15028513Y-91953035D01*
X15028513Y-91953035D01*
X15028513Y-91953035D01*
X15028513Y-91953035D01*
X15028513Y-91953035D01*
X15028513Y-91953035D01*
X15028513Y-91953035D01*
X15028513Y-91953035D01*
X15028513Y-91953035D01*
X15028513Y-91953035D01*
X15028513Y-91953035D01*
X15028512Y-91953035D01*
X15028512Y-91953035D01*
X15028512Y-91953035D01*
X15028512Y-91953035D01*
X15028512Y-91953035D01*
X15028512Y-91953035D01*
X15028512Y-91953034D01*
X15028512Y-91953034D01*
X15028512Y-91953034D01*
X15028512Y-91953034D01*
X15028512Y-91953034D01*
X15028512Y-91953034D01*
X15028512Y-91953034D02*
X15028512Y-91953034D01*
X15028512Y-91953034D01*
X15028512Y-91953034D01*
X15028512Y-91953034D01*
X15028512Y-91953034D01*
X15028512Y-91953034D01*
X15028512Y-91953033D01*
X15028512Y-91953033D01*
X15028512Y-91953033D01*
X15028512Y-91953033D01*
X15028512Y-91953033D01*
X15028513Y-91953033D01*
X15028513Y-91953033D01*
X15028513Y-91953033D01*
X15028513Y-91953033D01*
X15028513Y-91953033D01*
X15028513Y-91953033D01*
X15028513Y-91953033D01*
X15028513Y-91953033D01*
X15028513Y-91953033D01*
X15028513Y-91953033D01*
X15028513Y-91953033D01*
X15028513Y-91953033D01*
X15028514Y-91953033D01*
X15028514Y-91953033D01*
X15028514Y-91953033D01*
X15028514Y-91953033D01*
X15028514Y-91953033D01*
X15028514Y-91953033D01*
X15028514Y-91953034D01*
X15028514Y-91953034D01*
X15028514Y-91953034D01*
X15028514Y-91953034D01*
X15028514Y-91953034D01*
X15028514Y-91953034D01*
X15028514Y-91953034D01*
X16028513Y-91953034D02*
G75*
G02*
X14028513Y-91953034I-1000000J0D01*
G01*
X14028513Y-91953034D02*
G75*
G02*
X16028513Y-91953034I1000000J0D01*
G01*
X17568514Y-91953034D02*
X17568514Y-91953034D01*
X17568514Y-91953034D01*
X17568514Y-91953034D01*
X17568514Y-91953034D01*
X17568514Y-91953034D01*
X17568514Y-91953035D01*
X17568514Y-91953035D01*
X17568514Y-91953035D01*
X17568514Y-91953035D01*
X17568514Y-91953035D01*
X17568514Y-91953035D01*
X17568514Y-91953035D01*
X17568513Y-91953035D01*
X17568513Y-91953035D01*
X17568513Y-91953035D01*
X17568513Y-91953035D01*
X17568513Y-91953035D01*
X17568513Y-91953035D01*
X17568513Y-91953035D01*
X17568513Y-91953035D01*
X17568513Y-91953035D01*
X17568513Y-91953035D01*
X17568513Y-91953035D01*
X17568513Y-91953035D01*
X17568512Y-91953035D01*
X17568512Y-91953035D01*
X17568512Y-91953035D01*
X17568512Y-91953035D01*
X17568512Y-91953035D01*
X17568512Y-91953035D01*
X17568512Y-91953034D01*
X17568512Y-91953034D01*
X17568512Y-91953034D01*
X17568512Y-91953034D01*
X17568512Y-91953034D01*
X17568512Y-91953034D01*
X17568512Y-91953034D02*
X17568512Y-91953034D01*
X17568512Y-91953034D01*
X17568512Y-91953034D01*
X17568512Y-91953034D01*
X17568512Y-91953034D01*
X17568512Y-91953034D01*
X17568512Y-91953033D01*
X17568512Y-91953033D01*
X17568512Y-91953033D01*
X17568512Y-91953033D01*
X17568512Y-91953033D01*
X17568513Y-91953033D01*
X17568513Y-91953033D01*
X17568513Y-91953033D01*
X17568513Y-91953033D01*
X17568513Y-91953033D01*
X17568513Y-91953033D01*
X17568513Y-91953033D01*
X17568513Y-91953033D01*
X17568513Y-91953033D01*
X17568513Y-91953033D01*
X17568513Y-91953033D01*
X17568513Y-91953033D01*
X17568514Y-91953033D01*
X17568514Y-91953033D01*
X17568514Y-91953033D01*
X17568514Y-91953033D01*
X17568514Y-91953033D01*
X17568514Y-91953033D01*
X17568514Y-91953034D01*
X17568514Y-91953034D01*
X17568514Y-91953034D01*
X17568514Y-91953034D01*
X17568514Y-91953034D01*
X17568514Y-91953034D01*
X17568514Y-91953034D01*
X18568513Y-91953034D02*
G75*
G02*
X16568513Y-91953034I-1000000J0D01*
G01*
X16568513Y-91953034D02*
G75*
G02*
X18568513Y-91953034I1000000J0D01*
G01*
X20108514Y-91953034D02*
X20108514Y-91953034D01*
X20108514Y-91953034D01*
X20108514Y-91953034D01*
X20108514Y-91953034D01*
X20108514Y-91953034D01*
X20108514Y-91953035D01*
X20108514Y-91953035D01*
X20108514Y-91953035D01*
X20108514Y-91953035D01*
X20108514Y-91953035D01*
X20108514Y-91953035D01*
X20108514Y-91953035D01*
X20108513Y-91953035D01*
X20108513Y-91953035D01*
X20108513Y-91953035D01*
X20108513Y-91953035D01*
X20108513Y-91953035D01*
X20108513Y-91953035D01*
X20108513Y-91953035D01*
X20108513Y-91953035D01*
X20108513Y-91953035D01*
X20108513Y-91953035D01*
X20108513Y-91953035D01*
X20108513Y-91953035D01*
X20108512Y-91953035D01*
X20108512Y-91953035D01*
X20108512Y-91953035D01*
X20108512Y-91953035D01*
X20108512Y-91953035D01*
X20108512Y-91953035D01*
X20108512Y-91953034D01*
X20108512Y-91953034D01*
X20108512Y-91953034D01*
X20108512Y-91953034D01*
X20108512Y-91953034D01*
X20108512Y-91953034D01*
X20108512Y-91953034D02*
X20108512Y-91953034D01*
X20108512Y-91953034D01*
X20108512Y-91953034D01*
X20108512Y-91953034D01*
X20108512Y-91953034D01*
X20108512Y-91953034D01*
X20108512Y-91953033D01*
X20108512Y-91953033D01*
X20108512Y-91953033D01*
X20108512Y-91953033D01*
X20108512Y-91953033D01*
X20108513Y-91953033D01*
X20108513Y-91953033D01*
X20108513Y-91953033D01*
X20108513Y-91953033D01*
X20108513Y-91953033D01*
X20108513Y-91953033D01*
X20108513Y-91953033D01*
X20108513Y-91953033D01*
X20108513Y-91953033D01*
X20108513Y-91953033D01*
X20108513Y-91953033D01*
X20108513Y-91953033D01*
X20108514Y-91953033D01*
X20108514Y-91953033D01*
X20108514Y-91953033D01*
X20108514Y-91953033D01*
X20108514Y-91953033D01*
X20108514Y-91953033D01*
X20108514Y-91953034D01*
X20108514Y-91953034D01*
X20108514Y-91953034D01*
X20108514Y-91953034D01*
X20108514Y-91953034D01*
X20108514Y-91953034D01*
X20108514Y-91953034D01*
X21108513Y-91953034D02*
G75*
G02*
X19108513Y-91953034I-1000000J0D01*
G01*
X19108513Y-91953034D02*
G75*
G02*
X21108513Y-91953034I1000000J0D01*
G01*
X49108514Y-64013034D02*
X49108514Y-64013034D01*
X49108514Y-64013034D01*
X49108514Y-64013034D01*
X49108514Y-64013034D01*
X49108514Y-64013034D01*
X49108514Y-64013035D01*
X49108514Y-64013035D01*
X49108514Y-64013035D01*
X49108514Y-64013035D01*
X49108514Y-64013035D01*
X49108514Y-64013035D01*
X49108514Y-64013035D01*
X49108513Y-64013035D01*
X49108513Y-64013035D01*
X49108513Y-64013035D01*
X49108513Y-64013035D01*
X49108513Y-64013035D01*
X49108513Y-64013035D01*
X49108513Y-64013035D01*
X49108513Y-64013035D01*
X49108513Y-64013035D01*
X49108513Y-64013035D01*
X49108513Y-64013035D01*
X49108513Y-64013035D01*
X49108512Y-64013035D01*
X49108512Y-64013035D01*
X49108512Y-64013035D01*
X49108512Y-64013035D01*
X49108512Y-64013035D01*
X49108512Y-64013035D01*
X49108512Y-64013034D01*
X49108512Y-64013034D01*
X49108512Y-64013034D01*
X49108512Y-64013034D01*
X49108512Y-64013034D01*
X49108512Y-64013034D01*
X49108512Y-64013034D02*
X49108512Y-64013034D01*
X49108512Y-64013034D01*
X49108512Y-64013034D01*
X49108512Y-64013034D01*
X49108512Y-64013034D01*
X49108512Y-64013034D01*
X49108512Y-64013033D01*
X49108512Y-64013033D01*
X49108512Y-64013033D01*
X49108512Y-64013033D01*
X49108512Y-64013033D01*
X49108513Y-64013033D01*
X49108513Y-64013033D01*
X49108513Y-64013033D01*
X49108513Y-64013033D01*
X49108513Y-64013033D01*
X49108513Y-64013033D01*
X49108513Y-64013033D01*
X49108513Y-64013033D01*
X49108513Y-64013033D01*
X49108513Y-64013033D01*
X49108513Y-64013033D01*
X49108513Y-64013033D01*
X49108514Y-64013033D01*
X49108514Y-64013033D01*
X49108514Y-64013033D01*
X49108514Y-64013033D01*
X49108514Y-64013033D01*
X49108514Y-64013033D01*
X49108514Y-64013034D01*
X49108514Y-64013034D01*
X49108514Y-64013034D01*
X49108514Y-64013034D01*
X49108514Y-64013034D01*
X49108514Y-64013034D01*
X49108514Y-64013034D01*
X50108513Y-64013034D02*
G75*
G02*
X48108513Y-64013034I-1000000J0D01*
G01*
X48108513Y-64013034D02*
G75*
G02*
X50108513Y-64013034I1000000J0D01*
G01*
X49108514Y-66553034D02*
X49108514Y-66553034D01*
X49108514Y-66553034D01*
X49108514Y-66553034D01*
X49108514Y-66553034D01*
X49108514Y-66553034D01*
X49108514Y-66553035D01*
X49108514Y-66553035D01*
X49108514Y-66553035D01*
X49108514Y-66553035D01*
X49108514Y-66553035D01*
X49108514Y-66553035D01*
X49108514Y-66553035D01*
X49108513Y-66553035D01*
X49108513Y-66553035D01*
X49108513Y-66553035D01*
X49108513Y-66553035D01*
X49108513Y-66553035D01*
X49108513Y-66553035D01*
X49108513Y-66553035D01*
X49108513Y-66553035D01*
X49108513Y-66553035D01*
X49108513Y-66553035D01*
X49108513Y-66553035D01*
X49108513Y-66553035D01*
X49108512Y-66553035D01*
X49108512Y-66553035D01*
X49108512Y-66553035D01*
X49108512Y-66553035D01*
X49108512Y-66553035D01*
X49108512Y-66553035D01*
X49108512Y-66553034D01*
X49108512Y-66553034D01*
X49108512Y-66553034D01*
X49108512Y-66553034D01*
X49108512Y-66553034D01*
X49108512Y-66553034D01*
X49108512Y-66553034D02*
X49108512Y-66553034D01*
X49108512Y-66553034D01*
X49108512Y-66553034D01*
X49108512Y-66553034D01*
X49108512Y-66553034D01*
X49108512Y-66553034D01*
X49108512Y-66553033D01*
X49108512Y-66553033D01*
X49108512Y-66553033D01*
X49108512Y-66553033D01*
X49108512Y-66553033D01*
X49108513Y-66553033D01*
X49108513Y-66553033D01*
X49108513Y-66553033D01*
X49108513Y-66553033D01*
X49108513Y-66553033D01*
X49108513Y-66553033D01*
X49108513Y-66553033D01*
X49108513Y-66553033D01*
X49108513Y-66553033D01*
X49108513Y-66553033D01*
X49108513Y-66553033D01*
X49108513Y-66553033D01*
X49108514Y-66553033D01*
X49108514Y-66553033D01*
X49108514Y-66553033D01*
X49108514Y-66553033D01*
X49108514Y-66553033D01*
X49108514Y-66553033D01*
X49108514Y-66553034D01*
X49108514Y-66553034D01*
X49108514Y-66553034D01*
X49108514Y-66553034D01*
X49108514Y-66553034D01*
X49108514Y-66553034D01*
X49108514Y-66553034D01*
X50108513Y-66553034D02*
G75*
G02*
X48108513Y-66553034I-1000000J0D01*
G01*
X48108513Y-66553034D02*
G75*
G02*
X50108513Y-66553034I1000000J0D01*
G01*
X49108514Y-69093034D02*
X49108514Y-69093034D01*
X49108514Y-69093034D01*
X49108514Y-69093034D01*
X49108514Y-69093034D01*
X49108514Y-69093034D01*
X49108514Y-69093035D01*
X49108514Y-69093035D01*
X49108514Y-69093035D01*
X49108514Y-69093035D01*
X49108514Y-69093035D01*
X49108514Y-69093035D01*
X49108514Y-69093035D01*
X49108513Y-69093035D01*
X49108513Y-69093035D01*
X49108513Y-69093035D01*
X49108513Y-69093035D01*
X49108513Y-69093035D01*
X49108513Y-69093035D01*
X49108513Y-69093035D01*
X49108513Y-69093035D01*
X49108513Y-69093035D01*
X49108513Y-69093035D01*
X49108513Y-69093035D01*
X49108513Y-69093035D01*
X49108512Y-69093035D01*
X49108512Y-69093035D01*
X49108512Y-69093035D01*
X49108512Y-69093035D01*
X49108512Y-69093035D01*
X49108512Y-69093035D01*
X49108512Y-69093034D01*
X49108512Y-69093034D01*
X49108512Y-69093034D01*
X49108512Y-69093034D01*
X49108512Y-69093034D01*
X49108512Y-69093034D01*
X49108512Y-69093034D02*
X49108512Y-69093034D01*
X49108512Y-69093034D01*
X49108512Y-69093034D01*
X49108512Y-69093034D01*
X49108512Y-69093034D01*
X49108512Y-69093034D01*
X49108512Y-69093033D01*
X49108512Y-69093033D01*
X49108512Y-69093033D01*
X49108512Y-69093033D01*
X49108512Y-69093033D01*
X49108513Y-69093033D01*
X49108513Y-69093033D01*
X49108513Y-69093033D01*
X49108513Y-69093033D01*
X49108513Y-69093033D01*
X49108513Y-69093033D01*
X49108513Y-69093033D01*
X49108513Y-69093033D01*
X49108513Y-69093033D01*
X49108513Y-69093033D01*
X49108513Y-69093033D01*
X49108513Y-69093033D01*
X49108514Y-69093033D01*
X49108514Y-69093033D01*
X49108514Y-69093033D01*
X49108514Y-69093033D01*
X49108514Y-69093033D01*
X49108514Y-69093033D01*
X49108514Y-69093034D01*
X49108514Y-69093034D01*
X49108514Y-69093034D01*
X49108514Y-69093034D01*
X49108514Y-69093034D01*
X49108514Y-69093034D01*
X49108514Y-69093034D01*
X50108513Y-69093034D02*
G75*
G02*
X48108513Y-69093034I-1000000J0D01*
G01*
X48108513Y-69093034D02*
G75*
G02*
X50108513Y-69093034I1000000J0D01*
G01*
X49108514Y-71633034D02*
X49108514Y-71633034D01*
X49108514Y-71633034D01*
X49108514Y-71633034D01*
X49108514Y-71633034D01*
X49108514Y-71633034D01*
X49108514Y-71633035D01*
X49108514Y-71633035D01*
X49108514Y-71633035D01*
X49108514Y-71633035D01*
X49108514Y-71633035D01*
X49108514Y-71633035D01*
X49108514Y-71633035D01*
X49108513Y-71633035D01*
X49108513Y-71633035D01*
X49108513Y-71633035D01*
X49108513Y-71633035D01*
X49108513Y-71633035D01*
X49108513Y-71633035D01*
X49108513Y-71633035D01*
X49108513Y-71633035D01*
X49108513Y-71633035D01*
X49108513Y-71633035D01*
X49108513Y-71633035D01*
X49108513Y-71633035D01*
X49108512Y-71633035D01*
X49108512Y-71633035D01*
X49108512Y-71633035D01*
X49108512Y-71633035D01*
X49108512Y-71633035D01*
X49108512Y-71633035D01*
X49108512Y-71633034D01*
X49108512Y-71633034D01*
X49108512Y-71633034D01*
X49108512Y-71633034D01*
X49108512Y-71633034D01*
X49108512Y-71633034D01*
X49108512Y-71633034D02*
X49108512Y-71633034D01*
X49108512Y-71633034D01*
X49108512Y-71633034D01*
X49108512Y-71633034D01*
X49108512Y-71633034D01*
X49108512Y-71633034D01*
X49108512Y-71633033D01*
X49108512Y-71633033D01*
X49108512Y-71633033D01*
X49108512Y-71633033D01*
X49108512Y-71633033D01*
X49108513Y-71633033D01*
X49108513Y-71633033D01*
X49108513Y-71633033D01*
X49108513Y-71633033D01*
X49108513Y-71633033D01*
X49108513Y-71633033D01*
X49108513Y-71633033D01*
X49108513Y-71633033D01*
X49108513Y-71633033D01*
X49108513Y-71633033D01*
X49108513Y-71633033D01*
X49108513Y-71633033D01*
X49108514Y-71633033D01*
X49108514Y-71633033D01*
X49108514Y-71633033D01*
X49108514Y-71633033D01*
X49108514Y-71633033D01*
X49108514Y-71633033D01*
X49108514Y-71633034D01*
X49108514Y-71633034D01*
X49108514Y-71633034D01*
X49108514Y-71633034D01*
X49108514Y-71633034D01*
X49108514Y-71633034D01*
X49108514Y-71633034D01*
X50108513Y-71633034D02*
G75*
G02*
X48108513Y-71633034I-1000000J0D01*
G01*
X48108513Y-71633034D02*
G75*
G02*
X50108513Y-71633034I1000000J0D01*
G01*
X49108514Y-74173034D02*
X49108514Y-74173034D01*
X49108514Y-74173034D01*
X49108514Y-74173034D01*
X49108514Y-74173034D01*
X49108514Y-74173034D01*
X49108514Y-74173035D01*
X49108514Y-74173035D01*
X49108514Y-74173035D01*
X49108514Y-74173035D01*
X49108514Y-74173035D01*
X49108514Y-74173035D01*
X49108514Y-74173035D01*
X49108513Y-74173035D01*
X49108513Y-74173035D01*
X49108513Y-74173035D01*
X49108513Y-74173035D01*
X49108513Y-74173035D01*
X49108513Y-74173035D01*
X49108513Y-74173035D01*
X49108513Y-74173035D01*
X49108513Y-74173035D01*
X49108513Y-74173035D01*
X49108513Y-74173035D01*
X49108513Y-74173035D01*
X49108512Y-74173035D01*
X49108512Y-74173035D01*
X49108512Y-74173035D01*
X49108512Y-74173035D01*
X49108512Y-74173035D01*
X49108512Y-74173035D01*
X49108512Y-74173034D01*
X49108512Y-74173034D01*
X49108512Y-74173034D01*
X49108512Y-74173034D01*
X49108512Y-74173034D01*
X49108512Y-74173034D01*
X49108512Y-74173034D02*
X49108512Y-74173034D01*
X49108512Y-74173034D01*
X49108512Y-74173034D01*
X49108512Y-74173034D01*
X49108512Y-74173034D01*
X49108512Y-74173034D01*
X49108512Y-74173033D01*
X49108512Y-74173033D01*
X49108512Y-74173033D01*
X49108512Y-74173033D01*
X49108512Y-74173033D01*
X49108513Y-74173033D01*
X49108513Y-74173033D01*
X49108513Y-74173033D01*
X49108513Y-74173033D01*
X49108513Y-74173033D01*
X49108513Y-74173033D01*
X49108513Y-74173033D01*
X49108513Y-74173033D01*
X49108513Y-74173033D01*
X49108513Y-74173033D01*
X49108513Y-74173033D01*
X49108513Y-74173033D01*
X49108514Y-74173033D01*
X49108514Y-74173033D01*
X49108514Y-74173033D01*
X49108514Y-74173033D01*
X49108514Y-74173033D01*
X49108514Y-74173033D01*
X49108514Y-74173034D01*
X49108514Y-74173034D01*
X49108514Y-74173034D01*
X49108514Y-74173034D01*
X49108514Y-74173034D01*
X49108514Y-74173034D01*
X49108514Y-74173034D01*
X50108513Y-74173034D02*
G75*
G02*
X48108513Y-74173034I-1000000J0D01*
G01*
X48108513Y-74173034D02*
G75*
G02*
X50108513Y-74173034I1000000J0D01*
G01*
X49108514Y-76713034D02*
X49108514Y-76713034D01*
X49108514Y-76713034D01*
X49108514Y-76713034D01*
X49108514Y-76713034D01*
X49108514Y-76713034D01*
X49108514Y-76713035D01*
X49108514Y-76713035D01*
X49108514Y-76713035D01*
X49108514Y-76713035D01*
X49108514Y-76713035D01*
X49108514Y-76713035D01*
X49108514Y-76713035D01*
X49108513Y-76713035D01*
X49108513Y-76713035D01*
X49108513Y-76713035D01*
X49108513Y-76713035D01*
X49108513Y-76713035D01*
X49108513Y-76713035D01*
X49108513Y-76713035D01*
X49108513Y-76713035D01*
X49108513Y-76713035D01*
X49108513Y-76713035D01*
X49108513Y-76713035D01*
X49108513Y-76713035D01*
X49108512Y-76713035D01*
X49108512Y-76713035D01*
X49108512Y-76713035D01*
X49108512Y-76713035D01*
X49108512Y-76713035D01*
X49108512Y-76713035D01*
X49108512Y-76713034D01*
X49108512Y-76713034D01*
X49108512Y-76713034D01*
X49108512Y-76713034D01*
X49108512Y-76713034D01*
X49108512Y-76713034D01*
X49108512Y-76713034D02*
X49108512Y-76713034D01*
X49108512Y-76713034D01*
X49108512Y-76713034D01*
X49108512Y-76713034D01*
X49108512Y-76713034D01*
X49108512Y-76713034D01*
X49108512Y-76713033D01*
X49108512Y-76713033D01*
X49108512Y-76713033D01*
X49108512Y-76713033D01*
X49108512Y-76713033D01*
X49108513Y-76713033D01*
X49108513Y-76713033D01*
X49108513Y-76713033D01*
X49108513Y-76713033D01*
X49108513Y-76713033D01*
X49108513Y-76713033D01*
X49108513Y-76713033D01*
X49108513Y-76713033D01*
X49108513Y-76713033D01*
X49108513Y-76713033D01*
X49108513Y-76713033D01*
X49108513Y-76713033D01*
X49108514Y-76713033D01*
X49108514Y-76713033D01*
X49108514Y-76713033D01*
X49108514Y-76713033D01*
X49108514Y-76713033D01*
X49108514Y-76713033D01*
X49108514Y-76713034D01*
X49108514Y-76713034D01*
X49108514Y-76713034D01*
X49108514Y-76713034D01*
X49108514Y-76713034D01*
X49108514Y-76713034D01*
X49108514Y-76713034D01*
X50108513Y-76713034D02*
G75*
G02*
X48108513Y-76713034I-1000000J0D01*
G01*
X48108513Y-76713034D02*
G75*
G02*
X50108513Y-76713034I1000000J0D01*
G01*
X49108514Y-79253034D02*
X49108514Y-79253034D01*
X49108514Y-79253034D01*
X49108514Y-79253034D01*
X49108514Y-79253034D01*
X49108514Y-79253034D01*
X49108514Y-79253035D01*
X49108514Y-79253035D01*
X49108514Y-79253035D01*
X49108514Y-79253035D01*
X49108514Y-79253035D01*
X49108514Y-79253035D01*
X49108514Y-79253035D01*
X49108513Y-79253035D01*
X49108513Y-79253035D01*
X49108513Y-79253035D01*
X49108513Y-79253035D01*
X49108513Y-79253035D01*
X49108513Y-79253035D01*
X49108513Y-79253035D01*
X49108513Y-79253035D01*
X49108513Y-79253035D01*
X49108513Y-79253035D01*
X49108513Y-79253035D01*
X49108513Y-79253035D01*
X49108512Y-79253035D01*
X49108512Y-79253035D01*
X49108512Y-79253035D01*
X49108512Y-79253035D01*
X49108512Y-79253035D01*
X49108512Y-79253035D01*
X49108512Y-79253034D01*
X49108512Y-79253034D01*
X49108512Y-79253034D01*
X49108512Y-79253034D01*
X49108512Y-79253034D01*
X49108512Y-79253034D01*
X49108512Y-79253034D02*
X49108512Y-79253034D01*
X49108512Y-79253034D01*
X49108512Y-79253034D01*
X49108512Y-79253034D01*
X49108512Y-79253034D01*
X49108512Y-79253034D01*
X49108512Y-79253033D01*
X49108512Y-79253033D01*
X49108512Y-79253033D01*
X49108512Y-79253033D01*
X49108512Y-79253033D01*
X49108513Y-79253033D01*
X49108513Y-79253033D01*
X49108513Y-79253033D01*
X49108513Y-79253033D01*
X49108513Y-79253033D01*
X49108513Y-79253033D01*
X49108513Y-79253033D01*
X49108513Y-79253033D01*
X49108513Y-79253033D01*
X49108513Y-79253033D01*
X49108513Y-79253033D01*
X49108513Y-79253033D01*
X49108514Y-79253033D01*
X49108514Y-79253033D01*
X49108514Y-79253033D01*
X49108514Y-79253033D01*
X49108514Y-79253033D01*
X49108514Y-79253033D01*
X49108514Y-79253034D01*
X49108514Y-79253034D01*
X49108514Y-79253034D01*
X49108514Y-79253034D01*
X49108514Y-79253034D01*
X49108514Y-79253034D01*
X49108514Y-79253034D01*
X50108513Y-79253034D02*
G75*
G02*
X48108513Y-79253034I-1000000J0D01*
G01*
X48108513Y-79253034D02*
G75*
G02*
X50108513Y-79253034I1000000J0D01*
G01*
X49108514Y-81793034D02*
X49108514Y-81793034D01*
X49108514Y-81793034D01*
X49108514Y-81793034D01*
X49108514Y-81793034D01*
X49108514Y-81793034D01*
X49108514Y-81793035D01*
X49108514Y-81793035D01*
X49108514Y-81793035D01*
X49108514Y-81793035D01*
X49108514Y-81793035D01*
X49108514Y-81793035D01*
X49108514Y-81793035D01*
X49108513Y-81793035D01*
X49108513Y-81793035D01*
X49108513Y-81793035D01*
X49108513Y-81793035D01*
X49108513Y-81793035D01*
X49108513Y-81793035D01*
X49108513Y-81793035D01*
X49108513Y-81793035D01*
X49108513Y-81793035D01*
X49108513Y-81793035D01*
X49108513Y-81793035D01*
X49108513Y-81793035D01*
X49108512Y-81793035D01*
X49108512Y-81793035D01*
X49108512Y-81793035D01*
X49108512Y-81793035D01*
X49108512Y-81793035D01*
X49108512Y-81793035D01*
X49108512Y-81793034D01*
X49108512Y-81793034D01*
X49108512Y-81793034D01*
X49108512Y-81793034D01*
X49108512Y-81793034D01*
X49108512Y-81793034D01*
X49108512Y-81793034D02*
X49108512Y-81793034D01*
X49108512Y-81793034D01*
X49108512Y-81793034D01*
X49108512Y-81793034D01*
X49108512Y-81793034D01*
X49108512Y-81793034D01*
X49108512Y-81793033D01*
X49108512Y-81793033D01*
X49108512Y-81793033D01*
X49108512Y-81793033D01*
X49108512Y-81793033D01*
X49108513Y-81793033D01*
X49108513Y-81793033D01*
X49108513Y-81793033D01*
X49108513Y-81793033D01*
X49108513Y-81793033D01*
X49108513Y-81793033D01*
X49108513Y-81793033D01*
X49108513Y-81793033D01*
X49108513Y-81793033D01*
X49108513Y-81793033D01*
X49108513Y-81793033D01*
X49108513Y-81793033D01*
X49108514Y-81793033D01*
X49108514Y-81793033D01*
X49108514Y-81793033D01*
X49108514Y-81793033D01*
X49108514Y-81793033D01*
X49108514Y-81793033D01*
X49108514Y-81793034D01*
X49108514Y-81793034D01*
X49108514Y-81793034D01*
X49108514Y-81793034D01*
X49108514Y-81793034D01*
X49108514Y-81793034D01*
X49108514Y-81793034D01*
X50108513Y-81793034D02*
G75*
G02*
X48108513Y-81793034I-1000000J0D01*
G01*
X48108513Y-81793034D02*
G75*
G02*
X50108513Y-81793034I1000000J0D01*
G01*
X49108514Y-84333034D02*
X49108514Y-84333034D01*
X49108514Y-84333034D01*
X49108514Y-84333034D01*
X49108514Y-84333034D01*
X49108514Y-84333034D01*
X49108514Y-84333035D01*
X49108514Y-84333035D01*
X49108514Y-84333035D01*
X49108514Y-84333035D01*
X49108514Y-84333035D01*
X49108514Y-84333035D01*
X49108514Y-84333035D01*
X49108513Y-84333035D01*
X49108513Y-84333035D01*
X49108513Y-84333035D01*
X49108513Y-84333035D01*
X49108513Y-84333035D01*
X49108513Y-84333035D01*
X49108513Y-84333035D01*
X49108513Y-84333035D01*
X49108513Y-84333035D01*
X49108513Y-84333035D01*
X49108513Y-84333035D01*
X49108513Y-84333035D01*
X49108512Y-84333035D01*
X49108512Y-84333035D01*
X49108512Y-84333035D01*
X49108512Y-84333035D01*
X49108512Y-84333035D01*
X49108512Y-84333035D01*
X49108512Y-84333034D01*
X49108512Y-84333034D01*
X49108512Y-84333034D01*
X49108512Y-84333034D01*
X49108512Y-84333034D01*
X49108512Y-84333034D01*
X49108512Y-84333034D02*
X49108512Y-84333034D01*
X49108512Y-84333034D01*
X49108512Y-84333034D01*
X49108512Y-84333034D01*
X49108512Y-84333034D01*
X49108512Y-84333034D01*
X49108512Y-84333033D01*
X49108512Y-84333033D01*
X49108512Y-84333033D01*
X49108512Y-84333033D01*
X49108512Y-84333033D01*
X49108513Y-84333033D01*
X49108513Y-84333033D01*
X49108513Y-84333033D01*
X49108513Y-84333033D01*
X49108513Y-84333033D01*
X49108513Y-84333033D01*
X49108513Y-84333033D01*
X49108513Y-84333033D01*
X49108513Y-84333033D01*
X49108513Y-84333033D01*
X49108513Y-84333033D01*
X49108513Y-84333033D01*
X49108514Y-84333033D01*
X49108514Y-84333033D01*
X49108514Y-84333033D01*
X49108514Y-84333033D01*
X49108514Y-84333033D01*
X49108514Y-84333033D01*
X49108514Y-84333034D01*
X49108514Y-84333034D01*
X49108514Y-84333034D01*
X49108514Y-84333034D01*
X49108514Y-84333034D01*
X49108514Y-84333034D01*
X49108514Y-84333034D01*
X50108513Y-84333034D02*
G75*
G02*
X48108513Y-84333034I-1000000J0D01*
G01*
X48108513Y-84333034D02*
G75*
G02*
X50108513Y-84333034I1000000J0D01*
G01*
X49108514Y-86873034D02*
X49108514Y-86873034D01*
X49108514Y-86873034D01*
X49108514Y-86873034D01*
X49108514Y-86873034D01*
X49108514Y-86873034D01*
X49108514Y-86873035D01*
X49108514Y-86873035D01*
X49108514Y-86873035D01*
X49108514Y-86873035D01*
X49108514Y-86873035D01*
X49108514Y-86873035D01*
X49108514Y-86873035D01*
X49108513Y-86873035D01*
X49108513Y-86873035D01*
X49108513Y-86873035D01*
X49108513Y-86873035D01*
X49108513Y-86873035D01*
X49108513Y-86873035D01*
X49108513Y-86873035D01*
X49108513Y-86873035D01*
X49108513Y-86873035D01*
X49108513Y-86873035D01*
X49108513Y-86873035D01*
X49108513Y-86873035D01*
X49108512Y-86873035D01*
X49108512Y-86873035D01*
X49108512Y-86873035D01*
X49108512Y-86873035D01*
X49108512Y-86873035D01*
X49108512Y-86873035D01*
X49108512Y-86873034D01*
X49108512Y-86873034D01*
X49108512Y-86873034D01*
X49108512Y-86873034D01*
X49108512Y-86873034D01*
X49108512Y-86873034D01*
X49108512Y-86873034D02*
X49108512Y-86873034D01*
X49108512Y-86873034D01*
X49108512Y-86873034D01*
X49108512Y-86873034D01*
X49108512Y-86873034D01*
X49108512Y-86873034D01*
X49108512Y-86873033D01*
X49108512Y-86873033D01*
X49108512Y-86873033D01*
X49108512Y-86873033D01*
X49108512Y-86873033D01*
X49108513Y-86873033D01*
X49108513Y-86873033D01*
X49108513Y-86873033D01*
X49108513Y-86873033D01*
X49108513Y-86873033D01*
X49108513Y-86873033D01*
X49108513Y-86873033D01*
X49108513Y-86873033D01*
X49108513Y-86873033D01*
X49108513Y-86873033D01*
X49108513Y-86873033D01*
X49108513Y-86873033D01*
X49108514Y-86873033D01*
X49108514Y-86873033D01*
X49108514Y-86873033D01*
X49108514Y-86873033D01*
X49108514Y-86873033D01*
X49108514Y-86873033D01*
X49108514Y-86873034D01*
X49108514Y-86873034D01*
X49108514Y-86873034D01*
X49108514Y-86873034D01*
X49108514Y-86873034D01*
X49108514Y-86873034D01*
X49108514Y-86873034D01*
X50108513Y-86873034D02*
G75*
G02*
X48108513Y-86873034I-1000000J0D01*
G01*
X48108513Y-86873034D02*
G75*
G02*
X50108513Y-86873034I1000000J0D01*
G01*
X49108514Y-89413034D02*
X49108514Y-89413034D01*
X49108514Y-89413034D01*
X49108514Y-89413034D01*
X49108514Y-89413034D01*
X49108514Y-89413034D01*
X49108514Y-89413035D01*
X49108514Y-89413035D01*
X49108514Y-89413035D01*
X49108514Y-89413035D01*
X49108514Y-89413035D01*
X49108514Y-89413035D01*
X49108514Y-89413035D01*
X49108513Y-89413035D01*
X49108513Y-89413035D01*
X49108513Y-89413035D01*
X49108513Y-89413035D01*
X49108513Y-89413035D01*
X49108513Y-89413035D01*
X49108513Y-89413035D01*
X49108513Y-89413035D01*
X49108513Y-89413035D01*
X49108513Y-89413035D01*
X49108513Y-89413035D01*
X49108513Y-89413035D01*
X49108512Y-89413035D01*
X49108512Y-89413035D01*
X49108512Y-89413035D01*
X49108512Y-89413035D01*
X49108512Y-89413035D01*
X49108512Y-89413035D01*
X49108512Y-89413034D01*
X49108512Y-89413034D01*
X49108512Y-89413034D01*
X49108512Y-89413034D01*
X49108512Y-89413034D01*
X49108512Y-89413034D01*
X49108512Y-89413034D02*
X49108512Y-89413034D01*
X49108512Y-89413034D01*
X49108512Y-89413034D01*
X49108512Y-89413034D01*
X49108512Y-89413034D01*
X49108512Y-89413034D01*
X49108512Y-89413033D01*
X49108512Y-89413033D01*
X49108512Y-89413033D01*
X49108512Y-89413033D01*
X49108512Y-89413033D01*
X49108513Y-89413033D01*
X49108513Y-89413033D01*
X49108513Y-89413033D01*
X49108513Y-89413033D01*
X49108513Y-89413033D01*
X49108513Y-89413033D01*
X49108513Y-89413033D01*
X49108513Y-89413033D01*
X49108513Y-89413033D01*
X49108513Y-89413033D01*
X49108513Y-89413033D01*
X49108513Y-89413033D01*
X49108514Y-89413033D01*
X49108514Y-89413033D01*
X49108514Y-89413033D01*
X49108514Y-89413033D01*
X49108514Y-89413033D01*
X49108514Y-89413033D01*
X49108514Y-89413034D01*
X49108514Y-89413034D01*
X49108514Y-89413034D01*
X49108514Y-89413034D01*
X49108514Y-89413034D01*
X49108514Y-89413034D01*
X49108514Y-89413034D01*
X50108513Y-89413034D02*
G75*
G02*
X48108513Y-89413034I-1000000J0D01*
G01*
X48108513Y-89413034D02*
G75*
G02*
X50108513Y-89413034I1000000J0D01*
G01*
X49108514Y-91953034D02*
X49108514Y-91953034D01*
X49108514Y-91953034D01*
X49108514Y-91953034D01*
X49108514Y-91953034D01*
X49108514Y-91953034D01*
X49108514Y-91953035D01*
X49108514Y-91953035D01*
X49108514Y-91953035D01*
X49108514Y-91953035D01*
X49108514Y-91953035D01*
X49108514Y-91953035D01*
X49108514Y-91953035D01*
X49108513Y-91953035D01*
X49108513Y-91953035D01*
X49108513Y-91953035D01*
X49108513Y-91953035D01*
X49108513Y-91953035D01*
X49108513Y-91953035D01*
X49108513Y-91953035D01*
X49108513Y-91953035D01*
X49108513Y-91953035D01*
X49108513Y-91953035D01*
X49108513Y-91953035D01*
X49108513Y-91953035D01*
X49108512Y-91953035D01*
X49108512Y-91953035D01*
X49108512Y-91953035D01*
X49108512Y-91953035D01*
X49108512Y-91953035D01*
X49108512Y-91953035D01*
X49108512Y-91953034D01*
X49108512Y-91953034D01*
X49108512Y-91953034D01*
X49108512Y-91953034D01*
X49108512Y-91953034D01*
X49108512Y-91953034D01*
X49108512Y-91953034D02*
X49108512Y-91953034D01*
X49108512Y-91953034D01*
X49108512Y-91953034D01*
X49108512Y-91953034D01*
X49108512Y-91953034D01*
X49108512Y-91953034D01*
X49108512Y-91953033D01*
X49108512Y-91953033D01*
X49108512Y-91953033D01*
X49108512Y-91953033D01*
X49108512Y-91953033D01*
X49108513Y-91953033D01*
X49108513Y-91953033D01*
X49108513Y-91953033D01*
X49108513Y-91953033D01*
X49108513Y-91953033D01*
X49108513Y-91953033D01*
X49108513Y-91953033D01*
X49108513Y-91953033D01*
X49108513Y-91953033D01*
X49108513Y-91953033D01*
X49108513Y-91953033D01*
X49108513Y-91953033D01*
X49108514Y-91953033D01*
X49108514Y-91953033D01*
X49108514Y-91953033D01*
X49108514Y-91953033D01*
X49108514Y-91953033D01*
X49108514Y-91953033D01*
X49108514Y-91953034D01*
X49108514Y-91953034D01*
X49108514Y-91953034D01*
X49108514Y-91953034D01*
X49108514Y-91953034D01*
X49108514Y-91953034D01*
X49108514Y-91953034D01*
X50108513Y-91953034D02*
G75*
G02*
X48108513Y-91953034I-1000000J0D01*
G01*
X48108513Y-91953034D02*
G75*
G02*
X50108513Y-91953034I1000000J0D01*
G01*
%TD*%
M02*
