%TF.GenerationSoftware,KiCad,Pcbnew,8.0.8*%
%TF.CreationDate,2025-02-14T20:36:54+01:00*%
%TF.ProjectId,clarinoid-devboard,636c6172-696e-46f6-9964-2d646576626f,rev?*%
%TF.SameCoordinates,Original*%
%TF.FileFunction,Copper,L2,Bot*%
%TF.FilePolarity,Positive*%
%FSLAX46Y46*%
G04 Gerber Fmt 4.6, Leading zero omitted, Abs format (unit mm)*
G04 Created by KiCad (PCBNEW 8.0.8) date 2025-02-14 20:36:54*
%MOMM*%
%LPD*%
G01*
G04 APERTURE LIST*
%TA.AperFunction,ComponentPad*%
%ADD10C,6.200000*%
%TD*%
%TA.AperFunction,ComponentPad*%
%ADD11R,1.700000X1.700000*%
%TD*%
%TA.AperFunction,ComponentPad*%
%ADD12O,1.700000X1.700000*%
%TD*%
%TA.AperFunction,ViaPad*%
%ADD13C,0.800000*%
%TD*%
%TA.AperFunction,ViaPad*%
%ADD14C,1.200000*%
%TD*%
%TA.AperFunction,Conductor*%
%ADD15C,0.200000*%
%TD*%
G04 APERTURE END LIST*
D10*
%TO.P,H4,1,1*%
%TO.N,/processor_mm/gnd*%
X11895868Y-72708000D03*
%TD*%
D11*
%TO.P,J40,1,Pin_1*%
%TO.N,/processor_mm/gnd*%
X49108513Y-64032298D03*
D12*
%TO.P,J40,2,Pin_2*%
%TO.N,/processor_mm/usb data +*%
X49108513Y-66572298D03*
%TO.P,J40,3,Pin_3*%
%TO.N,/processor_mm/usb data -*%
X49108513Y-69112298D03*
%TO.P,J40,4,Pin_4*%
%TO.N,/processor_mm/5v input*%
X49108513Y-71652298D03*
%TO.P,J40,5,Pin_5*%
%TO.N,/processor_mm/GEN_LED1*%
X49108513Y-74192298D03*
%TO.P,J40,6,Pin_6*%
%TO.N,/processor_mm/GEN_LED2*%
X49108513Y-76732298D03*
%TO.P,J40,7,Pin_7*%
%TO.N,/processor_mm/GEN_LED3*%
X49108513Y-79272298D03*
%TO.P,J40,8,Pin_8*%
%TO.N,/processor_mm/GEN_LED4*%
X49108513Y-81812298D03*
%TD*%
D11*
%TO.P,J39,1,Pin_1*%
%TO.N,/processor_mm/gnd*%
X-28151487Y-91953000D03*
D12*
%TO.P,J39,2,Pin_2*%
%TO.N,/processor_mm/+3.3v regulator output*%
X-25611487Y-91953000D03*
%TO.P,J39,3,Pin_3*%
%TO.N,/processor_mm/5v input*%
X-23071487Y-91953000D03*
%TO.P,J39,4,Pin_4*%
%TO.N,/processor_mm/I2C_SCL*%
X-20531487Y-91953000D03*
%TO.P,J39,5,Pin_5*%
%TO.N,/processor_mm/I2C_SDA*%
X-17991487Y-91953000D03*
%TO.P,J39,6,Pin_6*%
%TO.N,/processor_mm/I2S_BCK_MM*%
X-15451487Y-91953000D03*
%TO.P,J39,7,Pin_7*%
%TO.N,/processor_mm/I2S_LRCK_MM*%
X-12911487Y-91953000D03*
%TO.P,J39,8,Pin_8*%
%TO.N,/processor_mm/I2S_DIN_MM*%
X-10371487Y-91953000D03*
%TO.P,J39,9,Pin_9*%
%TO.N,/processor_mm/T00 MIDI IN*%
X-7831487Y-91953000D03*
%TO.P,J39,10,Pin_10*%
%TO.N,/processor_mm/T01=MIDI OUT*%
X-5291487Y-91953000D03*
%TO.P,J39,11,Pin_11*%
%TO.N,/processor_mm/WS2812_DATA*%
X-2751487Y-91953000D03*
%TO.P,J39,12,Pin_12*%
%TO.N,/processor_mm/SPI0_SCK*%
X-211487Y-91953000D03*
%TO.P,J39,13,Pin_13*%
%TO.N,/processor_mm/SPI0_MOSI*%
X2328513Y-91953000D03*
%TO.P,J39,14,Pin_14*%
%TO.N,/processor_mm/SPI0_MISO*%
X4868513Y-91953000D03*
%TO.P,J39,15,Pin_15*%
%TO.N,/processor_mm/OLED_CS*%
X7408513Y-91953000D03*
%TO.P,J39,16,Pin_16*%
%TO.N,/processor_mm/OLED_RES*%
X9948513Y-91953000D03*
%TO.P,J39,17,Pin_17*%
%TO.N,/processor_mm/OLED_DC*%
X12488513Y-91953000D03*
%TO.P,J39,18,Pin_18*%
%TO.N,/processor_mm/ENC_SWITCH*%
X15028513Y-91953000D03*
%TO.P,J39,19,Pin_19*%
%TO.N,/processor_mm/ENC_A*%
X17568513Y-91953000D03*
%TO.P,J39,20,Pin_20*%
%TO.N,/processor_mm/ENC_B*%
X20108513Y-91953000D03*
%TD*%
D13*
%TO.N,Net-(U40-PROGRAM)*%
X-2101487Y-72603000D03*
D14*
%TO.N,/processor_mm/gnd*%
X-5601487Y-64953000D03*
D13*
%TO.N,Net-(U40-PROGRAM)*%
X41248513Y-69353000D03*
%TO.N,/processor_mm/gnd*%
X-12951487Y-67753000D03*
X17448513Y-87253000D03*
X41398513Y-67853000D03*
X-3351487Y-71353000D03*
X-18351487Y-73253000D03*
X45948513Y-79453000D03*
X7148513Y-65853000D03*
X-351487Y-88353000D03*
X-2851487Y-74753000D03*
X38648513Y-87103000D03*
X26848513Y-66453000D03*
X40148513Y-65353000D03*
X46848513Y-85553000D03*
X23448513Y-91853000D03*
X16848513Y-75553000D03*
X-17551487Y-64653000D03*
X25748513Y-75853000D03*
X40248513Y-79953000D03*
X11648513Y-79453000D03*
X22548513Y-82153000D03*
X-17051487Y-89653000D03*
X-12851487Y-71153000D03*
X-24451487Y-89253000D03*
X39948513Y-76253000D03*
X-19851487Y-88953000D03*
X-14351487Y-89553000D03*
X-3651487Y-89153000D03*
X-18951487Y-77653000D03*
X3748513Y-64553000D03*
X-8351487Y-88753000D03*
X19448513Y-70153000D03*
X1248513Y-86553000D03*
X-18151487Y-82753000D03*
X-11451487Y-89353000D03*
X-9251487Y-75053000D03*
X34748513Y-91953000D03*
X-5251487Y-88253000D03*
X-8651487Y-79053000D03*
%TO.N,/processor_mm/SDIO_MOSI*%
X24792045Y-86053500D03*
X25720253Y-83024741D03*
%TO.N,/processor_mm/SDIO_CLOCK*%
X24466230Y-83251512D03*
X23348513Y-85553000D03*
%TO.N,/processor_mm/SDIO_MISO*%
X26630456Y-83437700D03*
X25690246Y-84511267D03*
%TO.N,/processor_mm/GEN_LED3*%
X22248513Y-75753000D03*
%TO.N,/processor_mm/I2C_SDA*%
X22548513Y-70653000D03*
X12173906Y-83484179D03*
%TO.N,/processor_mm/I2C_SCL*%
X11278448Y-83040152D03*
X21548513Y-71453000D03*
%TO.N,/processor_mm/T01=MIDI OUT*%
X44248513Y-85753000D03*
X44248513Y-76553000D03*
%TO.N,/processor_mm/GEN_LED4*%
X23398513Y-81353000D03*
%TO.N,/processor_mm/T00 MIDI IN*%
X43448513Y-84353000D03*
X43448513Y-75653000D03*
%TO.N,/processor_mm/GEN_LED2*%
X25948513Y-73153000D03*
%TO.N,/processor_mm/WS2812_DATA*%
X10148513Y-86498815D03*
X24548513Y-72953000D03*
%TO.N,/processor_mm/OLED_RES*%
X11748513Y-89153000D03*
X24048513Y-74053000D03*
%TO.N,/processor_mm/OLED_DC*%
X23239878Y-74765877D03*
X13548513Y-89353000D03*
%TO.N,/processor_mm/I2S_BCK_MM*%
X14948513Y-84153000D03*
X24148513Y-78103000D03*
%TO.N,/processor_mm/I2S_LRCK_MM*%
X15537049Y-84960855D03*
X24898513Y-79252511D03*
%TO.N,/processor_mm/I2S_DIN_MM*%
X23898513Y-79853499D03*
X16248513Y-85753000D03*
%TO.N,/processor_mm/SPI0_MOSI*%
X42748513Y-90653000D03*
X42748513Y-82453000D03*
%TO.N,/processor_mm/SPI0_MISO*%
X42048513Y-91753000D03*
X42048513Y-83243979D03*
%TO.N,/processor_mm/ENC_B*%
X41348513Y-84253000D03*
X39948513Y-92053000D03*
%TO.N,/processor_mm/ENC_A*%
X38948513Y-91653000D03*
X40648513Y-85553000D03*
%TO.N,/processor_mm/ENC_SWITCH*%
X39948513Y-86953000D03*
X38190146Y-90953500D03*
%TD*%
D15*
%TO.N,/processor_mm/OLED_DC*%
X21167492Y-75962975D02*
X21167492Y-75739399D01*
%TO.N,Net-(U40-PROGRAM)*%
X-1351487Y-72853000D02*
X-1851487Y-72853000D01*
X2273513Y-69228000D02*
X-1351487Y-72853000D01*
X-1851487Y-72853000D02*
X-2101487Y-72603000D01*
X7648513Y-63853000D02*
X2273513Y-69228000D01*
X35748513Y-63853000D02*
X7648513Y-63853000D01*
X41248513Y-69353000D02*
X35748513Y-63853000D01*
%TO.N,/processor_mm/OLED_DC*%
X22141014Y-74765877D02*
X21167492Y-75739399D01*
X23239878Y-74765877D02*
X22141014Y-74765877D01*
X13848513Y-89053000D02*
X13548513Y-89353000D01*
X13848513Y-82963755D02*
X13848513Y-89053000D01*
X15439912Y-81372357D02*
X13848513Y-82963755D01*
X15439913Y-81372358D02*
X15439912Y-81372357D01*
X16692868Y-82307115D02*
X15758111Y-81372358D01*
X16076308Y-81054159D02*
X17011066Y-81988917D01*
X16076309Y-81054159D02*
X16076308Y-81054159D01*
X16076311Y-80735960D02*
X16076309Y-80735959D01*
X17329266Y-81670717D02*
X16394509Y-80735960D01*
X16712706Y-80417761D02*
X17647464Y-81352519D01*
X16712707Y-80417761D02*
X16712706Y-80417761D01*
X16712709Y-80099562D02*
X16712707Y-80099561D01*
X17965664Y-81034319D02*
X17030907Y-80099562D01*
X17349104Y-79781363D02*
X18283862Y-80716121D01*
X17349105Y-79781363D02*
X17349104Y-79781363D01*
X17985502Y-79144965D02*
X18920260Y-80079723D01*
X17985505Y-78826766D02*
X17985503Y-78826765D01*
X17985503Y-79144965D02*
X17985502Y-79144965D01*
X19874858Y-79125125D02*
X18940101Y-78190368D01*
X18621901Y-78508567D02*
X18621900Y-78508567D01*
X19258298Y-77872169D02*
X20193056Y-78806927D01*
X19258299Y-77872169D02*
X19258298Y-77872169D01*
X19894699Y-76917572D02*
X19894697Y-76917571D01*
X19894697Y-77235771D02*
X19894696Y-77235771D01*
X21167492Y-75962975D02*
X22102250Y-76897733D01*
X15758111Y-81372358D02*
G75*
G03*
X15439913Y-81372358I-159099J-159099D01*
G01*
X17011066Y-82307115D02*
G75*
G02*
X16692868Y-82307115I-159099J159099D01*
G01*
X21147654Y-77852329D02*
X20212897Y-76917572D01*
X16076309Y-80735959D02*
G75*
G03*
X16076302Y-81054166I159087J-159107D01*
G01*
X20531097Y-76281174D02*
X20531095Y-76281173D01*
X16394509Y-80735960D02*
G75*
G03*
X16076311Y-80735960I-159099J-159099D01*
G01*
X17647464Y-81670717D02*
G75*
G02*
X17329266Y-81670717I-159099J159099D01*
G01*
X17011066Y-81988917D02*
G75*
G02*
X17011116Y-82307165I-159070J-159149D01*
G01*
X19238460Y-79761523D02*
X18303703Y-78826766D01*
X17647464Y-81352519D02*
G75*
G02*
X17647512Y-81670765I-159068J-159147D01*
G01*
X16712707Y-80099561D02*
G75*
G03*
X16712702Y-80417766I159089J-159105D01*
G01*
X17030907Y-80099562D02*
G75*
G03*
X16712709Y-80099562I-159099J-159099D01*
G01*
X21784052Y-77215931D02*
X20849295Y-76281174D01*
X20531094Y-76599373D02*
X21465852Y-77534131D01*
X18283862Y-81034319D02*
G75*
G02*
X17965664Y-81034319I-159099J159099D01*
G01*
X18283862Y-80716121D02*
G75*
G02*
X18283908Y-81034365I-159066J-159145D01*
G01*
X18621903Y-78190368D02*
X18621901Y-78190367D01*
X18621900Y-78508567D02*
X19556658Y-79443325D01*
X17349105Y-79463163D02*
G75*
G03*
X17349102Y-79781366I159091J-159103D01*
G01*
X20531095Y-76599373D02*
X20531094Y-76599373D01*
X19258301Y-77553970D02*
X19258299Y-77553969D01*
X17667305Y-79463164D02*
G75*
G03*
X17349107Y-79463164I-159099J-159099D01*
G01*
X18920260Y-80397921D02*
G75*
G02*
X18602062Y-80397921I-159099J159099D01*
G01*
X18920260Y-80079723D02*
G75*
G02*
X18920304Y-80397965I-159064J-159143D01*
G01*
X17985503Y-78826765D02*
G75*
G03*
X17985502Y-79144966I159093J-159101D01*
G01*
X18303703Y-78826766D02*
G75*
G03*
X17985505Y-78826766I-159099J-159099D01*
G01*
X19556658Y-79761523D02*
G75*
G02*
X19238460Y-79761523I-159099J159099D01*
G01*
X19556658Y-79443325D02*
G75*
G02*
X19556700Y-79761565I-159062J-159141D01*
G01*
X18940101Y-78190368D02*
G75*
G03*
X18621903Y-78190368I-159099J-159099D01*
G01*
X20193056Y-79125125D02*
G75*
G02*
X19874858Y-79125125I-159099J159099D01*
G01*
X20193056Y-78806927D02*
G75*
G02*
X20193096Y-79125165I-159060J-159139D01*
G01*
X19576499Y-77553970D02*
G75*
G03*
X19258301Y-77553970I-159099J-159099D01*
G01*
X20511256Y-78488727D02*
X19576499Y-77553970D01*
X20829454Y-78488727D02*
G75*
G02*
X20511256Y-78488727I-159099J159099D01*
G01*
X20829454Y-78170529D02*
G75*
G02*
X20829492Y-78488765I-159058J-159137D01*
G01*
X19894697Y-76917571D02*
G75*
G03*
X19894702Y-77235766I159099J-159095D01*
G01*
X20212897Y-76917572D02*
G75*
G03*
X19894699Y-76917572I-159099J-159099D01*
G01*
X20849295Y-76281174D02*
G75*
G03*
X20531097Y-76281174I-159099J-159099D01*
G01*
X21465852Y-77852329D02*
G75*
G02*
X21147654Y-77852329I-159099J159099D01*
G01*
X22102250Y-77215931D02*
G75*
G02*
X21784052Y-77215931I-159099J159099D01*
G01*
X19258299Y-77553969D02*
G75*
G03*
X19258302Y-77872166I159097J-159097D01*
G01*
X22102250Y-76897733D02*
G75*
G02*
X22102284Y-77215965I-159054J-159133D01*
G01*
X19894696Y-77235771D02*
X20829454Y-78170529D01*
X17349107Y-79463164D02*
X17349105Y-79463163D01*
X20531095Y-76281173D02*
G75*
G03*
X20531102Y-76599366I159101J-159093D01*
G01*
X18602062Y-80397921D02*
X17667305Y-79463164D01*
X18621901Y-78190367D02*
G75*
G03*
X18621902Y-78508566I159095J-159099D01*
G01*
X21465852Y-77534131D02*
G75*
G02*
X21465888Y-77852365I-159056J-159135D01*
G01*
%TO.N,/processor_mm/gnd*%
X24537974Y-80603000D02*
X23158563Y-80603000D01*
X25748513Y-75853000D02*
X25748513Y-79392461D01*
X22548513Y-81213050D02*
X22548513Y-82153000D01*
X23158563Y-80603000D02*
X22548513Y-81213050D01*
X25748513Y-79392461D02*
X24537974Y-80603000D01*
%TO.N,/processor_mm/SDIO_MOSI*%
X24793982Y-83951012D02*
X24793982Y-86051563D01*
X25720253Y-83024741D02*
X24793982Y-83951012D01*
X24793982Y-86051563D02*
X24792045Y-86053500D01*
%TO.N,/processor_mm/SDIO_CLOCK*%
X23348513Y-84369229D02*
X24466230Y-83251512D01*
X23348513Y-85553000D02*
X23348513Y-84369229D01*
%TO.N,/processor_mm/SDIO_MISO*%
X25690246Y-84511267D02*
X25690246Y-84377910D01*
X25690246Y-84377910D02*
X26630456Y-83437700D01*
%TO.N,/processor_mm/GEN_LED3*%
X43767747Y-73853000D02*
X25448513Y-73853000D01*
X25448513Y-73853000D02*
X23548513Y-75753000D01*
X49108513Y-79193766D02*
X43767747Y-73853000D01*
X23548513Y-75753000D02*
X22248513Y-75753000D01*
%TO.N,/processor_mm/I2C_SDA*%
X22548513Y-70653000D02*
X22548513Y-72568780D01*
X22548513Y-72568780D02*
X12173906Y-82943387D01*
X12173906Y-82943387D02*
X12173906Y-83484179D01*
%TO.N,/processor_mm/I2C_SCL*%
X21548513Y-72836156D02*
X11344517Y-83040152D01*
X21548513Y-71453000D02*
X21548513Y-72836156D01*
X11344517Y-83040152D02*
X11278448Y-83040152D01*
%TO.N,/processor_mm/T01=MIDI OUT*%
X44248513Y-76553000D02*
X44248513Y-85753000D01*
%TO.N,/processor_mm/GEN_LED4*%
X25183519Y-81353000D02*
X32283030Y-74253489D01*
X23398513Y-81353000D02*
X25183519Y-81353000D01*
X47548513Y-80252298D02*
X49108513Y-81812298D01*
X32283030Y-74253489D02*
X43603240Y-74253489D01*
X47548513Y-78198762D02*
X47548513Y-80252298D01*
X43603240Y-74253489D02*
X47548513Y-78198762D01*
%TO.N,/processor_mm/T00 MIDI IN*%
X43448513Y-75653000D02*
X43448513Y-84353000D01*
%TO.N,/processor_mm/GEN_LED2*%
X45529215Y-73153000D02*
X25948513Y-73153000D01*
X49108513Y-76732298D02*
X45529215Y-73153000D01*
%TO.N,/processor_mm/WS2812_DATA*%
X12948513Y-82733771D02*
X12948513Y-83698815D01*
X24548513Y-72953000D02*
X22729284Y-72953000D01*
X22729284Y-72953000D02*
X12948513Y-82733771D01*
X12948513Y-83698815D02*
X10148513Y-86498815D01*
%TO.N,/processor_mm/OLED_RES*%
X13348513Y-84553000D02*
X10298513Y-87603000D01*
X22194275Y-74053000D02*
X13348513Y-82898762D01*
X-1201487Y-87603000D02*
X10298513Y-87603000D01*
X11748513Y-89153000D02*
X-1251487Y-89153000D01*
X13348513Y-82898762D02*
X13348513Y-84553000D01*
X-1251487Y-89153000D02*
X-2001487Y-88403000D01*
X-2001487Y-88403000D02*
X-1201487Y-87603000D01*
X24048513Y-74053000D02*
X22194275Y-74053000D01*
%TO.N,/processor_mm/I2S_BCK_MM*%
X21945619Y-78103000D02*
X15895619Y-84153000D01*
X24148513Y-78103000D02*
X21945619Y-78103000D01*
X15895619Y-84153000D02*
X14948513Y-84153000D01*
%TO.N,/processor_mm/I2S_LRCK_MM*%
X24799501Y-79153499D02*
X21913008Y-79153499D01*
X16105652Y-84960855D02*
X15537049Y-84960855D01*
X24898513Y-79252511D02*
X24799501Y-79153499D01*
X21913008Y-79153499D02*
X16105652Y-84960855D01*
%TO.N,/processor_mm/I2S_DIN_MM*%
X22148014Y-79853499D02*
X16248513Y-85753000D01*
X23898513Y-79853499D02*
X22148014Y-79853499D01*
%TO.N,/processor_mm/SPI0_MOSI*%
X42748513Y-82453000D02*
X42748513Y-90653000D01*
%TO.N,/processor_mm/SPI0_MISO*%
X42048513Y-83243979D02*
X42048513Y-91753000D01*
%TO.N,/processor_mm/ENC_B*%
X41348513Y-84253000D02*
X41348513Y-90653000D01*
X41348513Y-90653000D02*
X39948513Y-92053000D01*
%TO.N,/processor_mm/ENC_A*%
X38948513Y-91653000D02*
X40648513Y-89953000D01*
X40648513Y-89953000D02*
X40648513Y-85553000D01*
%TO.N,/processor_mm/ENC_SWITCH*%
X39948513Y-89195133D02*
X39948513Y-86953000D01*
X38190146Y-90953500D02*
X39948513Y-89195133D01*
%TD*%
%TA.AperFunction,Conductor*%
%TO.N,/processor_mm/gnd*%
G36*
X13158045Y-85708183D02*
G01*
X13214881Y-85750730D01*
X13239692Y-85817250D01*
X13240013Y-85826239D01*
X13240013Y-88414050D01*
X13220011Y-88482171D01*
X13166355Y-88528664D01*
X13165263Y-88529156D01*
X13091763Y-88561880D01*
X13091761Y-88561882D01*
X12937257Y-88674135D01*
X12809474Y-88816053D01*
X12806135Y-88820650D01*
X12749912Y-88864004D01*
X12679176Y-88870079D01*
X12616384Y-88836947D01*
X12584367Y-88785529D01*
X12583040Y-88781444D01*
X12487553Y-88616056D01*
X12487551Y-88616054D01*
X12487547Y-88616048D01*
X12359768Y-88474135D01*
X12205265Y-88361882D01*
X12030801Y-88284206D01*
X11844000Y-88244500D01*
X11653026Y-88244500D01*
X11466224Y-88284206D01*
X11291760Y-88361882D01*
X11137257Y-88474135D01*
X11111439Y-88502810D01*
X11050993Y-88540050D01*
X11017803Y-88544500D01*
X-947248Y-88544500D01*
X-1015369Y-88524498D01*
X-1036343Y-88507595D01*
X-1051843Y-88492095D01*
X-1085869Y-88429783D01*
X-1080804Y-88358968D01*
X-1051843Y-88313905D01*
X-986343Y-88248405D01*
X-924031Y-88214379D01*
X-897248Y-88211500D01*
X10378623Y-88211500D01*
X10378624Y-88211500D01*
X10456004Y-88190766D01*
X10533386Y-88170032D01*
X10672140Y-88089922D01*
X13024918Y-85737144D01*
X13087230Y-85703119D01*
X13158045Y-85708183D01*
G37*
%TD.AperFunction*%
%TA.AperFunction,Conductor*%
G36*
X25368311Y-80118446D02*
G01*
X25406125Y-80178535D01*
X25405450Y-80249528D01*
X25373993Y-80301977D01*
X24968373Y-80707596D01*
X24906063Y-80741620D01*
X24879280Y-80744500D01*
X24601760Y-80744500D01*
X24533639Y-80724498D01*
X24487146Y-80670842D01*
X24477042Y-80600568D01*
X24506536Y-80535988D01*
X24508124Y-80534190D01*
X24637547Y-80390450D01*
X24637548Y-80390448D01*
X24637553Y-80390443D01*
X24709541Y-80265755D01*
X24733643Y-80224011D01*
X24785026Y-80175018D01*
X24842762Y-80161011D01*
X24994000Y-80161011D01*
X25180801Y-80121305D01*
X25233648Y-80097775D01*
X25304013Y-80088341D01*
X25368311Y-80118446D01*
G37*
%TD.AperFunction*%
%TA.AperFunction,Conductor*%
G36*
X30978401Y-74481502D02*
G01*
X31024894Y-74535158D01*
X31034998Y-74605432D01*
X31005504Y-74670012D01*
X30999375Y-74676595D01*
X25950677Y-79725292D01*
X25888365Y-79759318D01*
X25817550Y-79754253D01*
X25760714Y-79711706D01*
X25735903Y-79645186D01*
X25741748Y-79597265D01*
X25792055Y-79442439D01*
X25812017Y-79252511D01*
X25792055Y-79062583D01*
X25733040Y-78880955D01*
X25637553Y-78715567D01*
X25637551Y-78715565D01*
X25637547Y-78715559D01*
X25509768Y-78573646D01*
X25355265Y-78461393D01*
X25180798Y-78383715D01*
X25146722Y-78376472D01*
X25084249Y-78342743D01*
X25049929Y-78280593D01*
X25047611Y-78240061D01*
X25062017Y-78103000D01*
X25042055Y-77913072D01*
X24983040Y-77731444D01*
X24887553Y-77566056D01*
X24887551Y-77566054D01*
X24887547Y-77566048D01*
X24759768Y-77424135D01*
X24605265Y-77311882D01*
X24430801Y-77234206D01*
X24244000Y-77194500D01*
X24053026Y-77194500D01*
X23866224Y-77234206D01*
X23691760Y-77311882D01*
X23537257Y-77424135D01*
X23511439Y-77452810D01*
X23450993Y-77490050D01*
X23417803Y-77494500D01*
X22852656Y-77494500D01*
X22784535Y-77474498D01*
X22738042Y-77420842D01*
X22727938Y-77350568D01*
X22736245Y-77320287D01*
X22744671Y-77299944D01*
X22776695Y-77138883D01*
X22776678Y-76974670D01*
X22744619Y-76813617D01*
X22687707Y-76676289D01*
X22680105Y-76605700D01*
X22711873Y-76542208D01*
X22730046Y-76526114D01*
X22793459Y-76480040D01*
X22859766Y-76431866D01*
X22859768Y-76431864D01*
X22885587Y-76403190D01*
X22946033Y-76365950D01*
X22979223Y-76361500D01*
X23628622Y-76361500D01*
X23628623Y-76361500D01*
X23628624Y-76361500D01*
X23713700Y-76338704D01*
X23783386Y-76320032D01*
X23922140Y-76239922D01*
X25663657Y-74498405D01*
X25725969Y-74464380D01*
X25752752Y-74461500D01*
X30910280Y-74461500D01*
X30978401Y-74481502D01*
G37*
%TD.AperFunction*%
%TA.AperFunction,Conductor*%
G36*
X50150071Y-61853038D02*
G01*
X50235951Y-61855187D01*
X50257374Y-61857568D01*
X50426177Y-61891146D01*
X50427318Y-61891373D01*
X50450954Y-61898543D01*
X50609570Y-61964244D01*
X50631346Y-61975883D01*
X50774110Y-62071271D01*
X50793189Y-62086929D01*
X50914430Y-62208163D01*
X50914594Y-62208327D01*
X50930264Y-62227420D01*
X51025653Y-62370169D01*
X51037297Y-62391951D01*
X51103005Y-62550565D01*
X51110175Y-62574199D01*
X51143981Y-62744101D01*
X51146366Y-62765596D01*
X51148475Y-62851452D01*
X51148513Y-62854546D01*
X51148513Y-92851559D01*
X51148481Y-92854413D01*
X51146535Y-92940310D01*
X51144147Y-92962032D01*
X51110372Y-93131871D01*
X51103202Y-93155510D01*
X51037491Y-93314162D01*
X51025847Y-93335948D01*
X50930441Y-93478737D01*
X50914769Y-93497833D01*
X50793346Y-93619253D01*
X50774251Y-93634923D01*
X50631465Y-93730324D01*
X50609679Y-93741968D01*
X50451025Y-93807677D01*
X50427385Y-93814847D01*
X50257528Y-93848621D01*
X50235830Y-93851007D01*
X50151018Y-93852942D01*
X50149958Y-93852967D01*
X50147085Y-93853000D01*
X-29850098Y-93853000D01*
X-29852917Y-93852968D01*
X-29855069Y-93852919D01*
X-29938775Y-93851046D01*
X-29960535Y-93848657D01*
X-30130355Y-93814879D01*
X-30153993Y-93807709D01*
X-30312654Y-93741989D01*
X-30334439Y-93730344D01*
X-30477217Y-93634940D01*
X-30496312Y-93619269D01*
X-30617741Y-93497833D01*
X-30633408Y-93478742D01*
X-30728812Y-93335949D01*
X-30740451Y-93314172D01*
X-30741558Y-93311500D01*
X-30806162Y-93155510D01*
X-30813331Y-93131872D01*
X-30813331Y-93131871D01*
X-30847110Y-92962009D01*
X-30849494Y-92940330D01*
X-30851454Y-92854444D01*
X-30851487Y-92851570D01*
X-30851487Y-91054402D01*
X-29509487Y-91054402D01*
X-29509487Y-91699000D01*
X-28582190Y-91699000D01*
X-28617412Y-91760007D01*
X-28651487Y-91887174D01*
X-28651487Y-92018826D01*
X-28617412Y-92145993D01*
X-28582190Y-92207000D01*
X-29509487Y-92207000D01*
X-29509487Y-92851597D01*
X-29502982Y-92912093D01*
X-29451932Y-93048964D01*
X-29451932Y-93048965D01*
X-29364392Y-93165904D01*
X-29247453Y-93253444D01*
X-29110581Y-93304494D01*
X-29050085Y-93310999D01*
X-29050072Y-93311000D01*
X-28405487Y-93311000D01*
X-28405487Y-92383702D01*
X-28344480Y-92418925D01*
X-28217313Y-92453000D01*
X-28085661Y-92453000D01*
X-27958494Y-92418925D01*
X-27897487Y-92383702D01*
X-27897487Y-93311000D01*
X-27252902Y-93311000D01*
X-27252890Y-93310999D01*
X-27192394Y-93304494D01*
X-27055523Y-93253444D01*
X-27055522Y-93253444D01*
X-26938583Y-93165904D01*
X-26851043Y-93048965D01*
X-26806869Y-92930530D01*
X-26764322Y-92873694D01*
X-26697802Y-92848883D01*
X-26628428Y-92863974D01*
X-26596115Y-92889222D01*
X-26558087Y-92930530D01*
X-26534725Y-92955908D01*
X-26480156Y-92998381D01*
X-26357063Y-93094189D01*
X-26159061Y-93201342D01*
X-26159060Y-93201342D01*
X-26159059Y-93201343D01*
X-26047260Y-93239723D01*
X-25946122Y-93274444D01*
X-25724056Y-93311500D01*
X-25724052Y-93311500D01*
X-25498922Y-93311500D01*
X-25498918Y-93311500D01*
X-25276852Y-93274444D01*
X-25063913Y-93201342D01*
X-24865911Y-93094189D01*
X-24688247Y-92955906D01*
X-24535765Y-92790268D01*
X-24446969Y-92654354D01*
X-24392967Y-92608268D01*
X-24322619Y-92598692D01*
X-24258262Y-92628669D01*
X-24236007Y-92654353D01*
X-24231337Y-92661500D01*
X-24147212Y-92790265D01*
X-24147208Y-92790270D01*
X-23994725Y-92955908D01*
X-23940156Y-92998381D01*
X-23817063Y-93094189D01*
X-23619061Y-93201342D01*
X-23619060Y-93201342D01*
X-23619059Y-93201343D01*
X-23507260Y-93239723D01*
X-23406122Y-93274444D01*
X-23184056Y-93311500D01*
X-23184052Y-93311500D01*
X-22958922Y-93311500D01*
X-22958918Y-93311500D01*
X-22736852Y-93274444D01*
X-22523913Y-93201342D01*
X-22325911Y-93094189D01*
X-22148247Y-92955906D01*
X-21995765Y-92790268D01*
X-21906969Y-92654354D01*
X-21852967Y-92608268D01*
X-21782619Y-92598692D01*
X-21718262Y-92628669D01*
X-21696007Y-92654353D01*
X-21691337Y-92661500D01*
X-21607212Y-92790265D01*
X-21607208Y-92790270D01*
X-21454725Y-92955908D01*
X-21400156Y-92998381D01*
X-21277063Y-93094189D01*
X-21079061Y-93201342D01*
X-21079060Y-93201342D01*
X-21079059Y-93201343D01*
X-20967260Y-93239723D01*
X-20866122Y-93274444D01*
X-20644056Y-93311500D01*
X-20644052Y-93311500D01*
X-20418922Y-93311500D01*
X-20418918Y-93311500D01*
X-20196852Y-93274444D01*
X-19983913Y-93201342D01*
X-19785911Y-93094189D01*
X-19608247Y-92955906D01*
X-19455765Y-92790268D01*
X-19366969Y-92654354D01*
X-19312967Y-92608268D01*
X-19242619Y-92598692D01*
X-19178262Y-92628669D01*
X-19156007Y-92654353D01*
X-19151337Y-92661500D01*
X-19067212Y-92790265D01*
X-19067208Y-92790270D01*
X-18914725Y-92955908D01*
X-18860156Y-92998381D01*
X-18737063Y-93094189D01*
X-18539061Y-93201342D01*
X-18539060Y-93201342D01*
X-18539059Y-93201343D01*
X-18427260Y-93239723D01*
X-18326122Y-93274444D01*
X-18104056Y-93311500D01*
X-18104052Y-93311500D01*
X-17878922Y-93311500D01*
X-17878918Y-93311500D01*
X-17656852Y-93274444D01*
X-17443913Y-93201342D01*
X-17245911Y-93094189D01*
X-17068247Y-92955906D01*
X-16915765Y-92790268D01*
X-16826969Y-92654354D01*
X-16772967Y-92608268D01*
X-16702619Y-92598692D01*
X-16638262Y-92628669D01*
X-16616007Y-92654353D01*
X-16611337Y-92661500D01*
X-16527212Y-92790265D01*
X-16527208Y-92790270D01*
X-16374725Y-92955908D01*
X-16320156Y-92998381D01*
X-16197063Y-93094189D01*
X-15999061Y-93201342D01*
X-15999060Y-93201342D01*
X-15999059Y-93201343D01*
X-15887260Y-93239723D01*
X-15786122Y-93274444D01*
X-15564056Y-93311500D01*
X-15564052Y-93311500D01*
X-15338922Y-93311500D01*
X-15338918Y-93311500D01*
X-15116852Y-93274444D01*
X-14903913Y-93201342D01*
X-14705911Y-93094189D01*
X-14528247Y-92955906D01*
X-14375765Y-92790268D01*
X-14286969Y-92654354D01*
X-14232967Y-92608268D01*
X-14162619Y-92598692D01*
X-14098262Y-92628669D01*
X-14076007Y-92654353D01*
X-14071337Y-92661500D01*
X-13987212Y-92790265D01*
X-13987208Y-92790270D01*
X-13834725Y-92955908D01*
X-13780156Y-92998381D01*
X-13657063Y-93094189D01*
X-13459061Y-93201342D01*
X-13459060Y-93201342D01*
X-13459059Y-93201343D01*
X-13347260Y-93239723D01*
X-13246122Y-93274444D01*
X-13024056Y-93311500D01*
X-13024052Y-93311500D01*
X-12798922Y-93311500D01*
X-12798918Y-93311500D01*
X-12576852Y-93274444D01*
X-12363913Y-93201342D01*
X-12165911Y-93094189D01*
X-11988247Y-92955906D01*
X-11835765Y-92790268D01*
X-11746969Y-92654354D01*
X-11692967Y-92608268D01*
X-11622619Y-92598692D01*
X-11558262Y-92628669D01*
X-11536007Y-92654353D01*
X-11531337Y-92661500D01*
X-11447212Y-92790265D01*
X-11447208Y-92790270D01*
X-11294725Y-92955908D01*
X-11240156Y-92998381D01*
X-11117063Y-93094189D01*
X-10919061Y-93201342D01*
X-10919060Y-93201342D01*
X-10919059Y-93201343D01*
X-10807260Y-93239723D01*
X-10706122Y-93274444D01*
X-10484056Y-93311500D01*
X-10484052Y-93311500D01*
X-10258922Y-93311500D01*
X-10258918Y-93311500D01*
X-10036852Y-93274444D01*
X-9823913Y-93201342D01*
X-9625911Y-93094189D01*
X-9448247Y-92955906D01*
X-9295765Y-92790268D01*
X-9206969Y-92654354D01*
X-9152967Y-92608268D01*
X-9082619Y-92598692D01*
X-9018262Y-92628669D01*
X-8996007Y-92654353D01*
X-8991337Y-92661500D01*
X-8907212Y-92790265D01*
X-8907208Y-92790270D01*
X-8754725Y-92955908D01*
X-8700156Y-92998381D01*
X-8577063Y-93094189D01*
X-8379061Y-93201342D01*
X-8379060Y-93201342D01*
X-8379059Y-93201343D01*
X-8267260Y-93239723D01*
X-8166122Y-93274444D01*
X-7944056Y-93311500D01*
X-7944052Y-93311500D01*
X-7718922Y-93311500D01*
X-7718918Y-93311500D01*
X-7496852Y-93274444D01*
X-7283913Y-93201342D01*
X-7085911Y-93094189D01*
X-6908247Y-92955906D01*
X-6755765Y-92790268D01*
X-6666969Y-92654354D01*
X-6612967Y-92608268D01*
X-6542619Y-92598692D01*
X-6478262Y-92628669D01*
X-6456007Y-92654353D01*
X-6451337Y-92661500D01*
X-6367212Y-92790265D01*
X-6367208Y-92790270D01*
X-6214725Y-92955908D01*
X-6160156Y-92998381D01*
X-6037063Y-93094189D01*
X-5839061Y-93201342D01*
X-5839060Y-93201342D01*
X-5839059Y-93201343D01*
X-5727260Y-93239723D01*
X-5626122Y-93274444D01*
X-5404056Y-93311500D01*
X-5404052Y-93311500D01*
X-5178922Y-93311500D01*
X-5178918Y-93311500D01*
X-4956852Y-93274444D01*
X-4743913Y-93201342D01*
X-4545911Y-93094189D01*
X-4368247Y-92955906D01*
X-4215765Y-92790268D01*
X-4126969Y-92654354D01*
X-4072967Y-92608268D01*
X-4002619Y-92598692D01*
X-3938262Y-92628669D01*
X-3916007Y-92654353D01*
X-3911337Y-92661500D01*
X-3827212Y-92790265D01*
X-3827208Y-92790270D01*
X-3674725Y-92955908D01*
X-3620156Y-92998381D01*
X-3497063Y-93094189D01*
X-3299061Y-93201342D01*
X-3299060Y-93201342D01*
X-3299059Y-93201343D01*
X-3187260Y-93239723D01*
X-3086122Y-93274444D01*
X-2864056Y-93311500D01*
X-2864052Y-93311500D01*
X-2638922Y-93311500D01*
X-2638918Y-93311500D01*
X-2416852Y-93274444D01*
X-2203913Y-93201342D01*
X-2005911Y-93094189D01*
X-1828247Y-92955906D01*
X-1675765Y-92790268D01*
X-1586969Y-92654354D01*
X-1532967Y-92608268D01*
X-1462619Y-92598692D01*
X-1398262Y-92628669D01*
X-1376007Y-92654353D01*
X-1371337Y-92661500D01*
X-1287212Y-92790265D01*
X-1287208Y-92790270D01*
X-1134725Y-92955908D01*
X-1080156Y-92998381D01*
X-957063Y-93094189D01*
X-759061Y-93201342D01*
X-759060Y-93201342D01*
X-759059Y-93201343D01*
X-647260Y-93239723D01*
X-546122Y-93274444D01*
X-324056Y-93311500D01*
X-324052Y-93311500D01*
X-98922Y-93311500D01*
X-98918Y-93311500D01*
X123148Y-93274444D01*
X336087Y-93201342D01*
X534089Y-93094189D01*
X711753Y-92955906D01*
X864235Y-92790268D01*
X953031Y-92654354D01*
X1007033Y-92608268D01*
X1077381Y-92598692D01*
X1141738Y-92628669D01*
X1163993Y-92654353D01*
X1168663Y-92661500D01*
X1252788Y-92790265D01*
X1252792Y-92790270D01*
X1405275Y-92955908D01*
X1459844Y-92998381D01*
X1582937Y-93094189D01*
X1780939Y-93201342D01*
X1780940Y-93201342D01*
X1780941Y-93201343D01*
X1892740Y-93239723D01*
X1993878Y-93274444D01*
X2215944Y-93311500D01*
X2215948Y-93311500D01*
X2441078Y-93311500D01*
X2441082Y-93311500D01*
X2663148Y-93274444D01*
X2876087Y-93201342D01*
X3074089Y-93094189D01*
X3251753Y-92955906D01*
X3404235Y-92790268D01*
X3493031Y-92654354D01*
X3547033Y-92608268D01*
X3617381Y-92598692D01*
X3681738Y-92628669D01*
X3703993Y-92654353D01*
X3708663Y-92661500D01*
X3792788Y-92790265D01*
X3792792Y-92790270D01*
X3945275Y-92955908D01*
X3999844Y-92998381D01*
X4122937Y-93094189D01*
X4320939Y-93201342D01*
X4320940Y-93201342D01*
X4320941Y-93201343D01*
X4432740Y-93239723D01*
X4533878Y-93274444D01*
X4755944Y-93311500D01*
X4755948Y-93311500D01*
X4981078Y-93311500D01*
X4981082Y-93311500D01*
X5203148Y-93274444D01*
X5416087Y-93201342D01*
X5614089Y-93094189D01*
X5791753Y-92955906D01*
X5944235Y-92790268D01*
X6033031Y-92654354D01*
X6087033Y-92608268D01*
X6157381Y-92598692D01*
X6221738Y-92628669D01*
X6243993Y-92654353D01*
X6248663Y-92661500D01*
X6332788Y-92790265D01*
X6332792Y-92790270D01*
X6485275Y-92955908D01*
X6539844Y-92998381D01*
X6662937Y-93094189D01*
X6860939Y-93201342D01*
X6860940Y-93201342D01*
X6860941Y-93201343D01*
X6972740Y-93239723D01*
X7073878Y-93274444D01*
X7295944Y-93311500D01*
X7295948Y-93311500D01*
X7521078Y-93311500D01*
X7521082Y-93311500D01*
X7743148Y-93274444D01*
X7956087Y-93201342D01*
X8154089Y-93094189D01*
X8331753Y-92955906D01*
X8484235Y-92790268D01*
X8573031Y-92654354D01*
X8627033Y-92608268D01*
X8697381Y-92598692D01*
X8761738Y-92628669D01*
X8783993Y-92654353D01*
X8788663Y-92661500D01*
X8872788Y-92790265D01*
X8872792Y-92790270D01*
X9025275Y-92955908D01*
X9079844Y-92998381D01*
X9202937Y-93094189D01*
X9400939Y-93201342D01*
X9400940Y-93201342D01*
X9400941Y-93201343D01*
X9512740Y-93239723D01*
X9613878Y-93274444D01*
X9835944Y-93311500D01*
X9835948Y-93311500D01*
X10061078Y-93311500D01*
X10061082Y-93311500D01*
X10283148Y-93274444D01*
X10496087Y-93201342D01*
X10694089Y-93094189D01*
X10871753Y-92955906D01*
X11024235Y-92790268D01*
X11113031Y-92654354D01*
X11167033Y-92608268D01*
X11237381Y-92598692D01*
X11301738Y-92628669D01*
X11323993Y-92654353D01*
X11328663Y-92661500D01*
X11412788Y-92790265D01*
X11412792Y-92790270D01*
X11565275Y-92955908D01*
X11619844Y-92998381D01*
X11742937Y-93094189D01*
X11940939Y-93201342D01*
X11940940Y-93201342D01*
X11940941Y-93201343D01*
X12052740Y-93239723D01*
X12153878Y-93274444D01*
X12375944Y-93311500D01*
X12375948Y-93311500D01*
X12601078Y-93311500D01*
X12601082Y-93311500D01*
X12823148Y-93274444D01*
X13036087Y-93201342D01*
X13234089Y-93094189D01*
X13411753Y-92955906D01*
X13564235Y-92790268D01*
X13653031Y-92654354D01*
X13707033Y-92608268D01*
X13777381Y-92598692D01*
X13841738Y-92628669D01*
X13863993Y-92654353D01*
X13868663Y-92661500D01*
X13952788Y-92790265D01*
X13952792Y-92790270D01*
X14105275Y-92955908D01*
X14159844Y-92998381D01*
X14282937Y-93094189D01*
X14480939Y-93201342D01*
X14480940Y-93201342D01*
X14480941Y-93201343D01*
X14592740Y-93239723D01*
X14693878Y-93274444D01*
X14915944Y-93311500D01*
X14915948Y-93311500D01*
X15141078Y-93311500D01*
X15141082Y-93311500D01*
X15363148Y-93274444D01*
X15576087Y-93201342D01*
X15774089Y-93094189D01*
X15951753Y-92955906D01*
X16104235Y-92790268D01*
X16193031Y-92654354D01*
X16247033Y-92608268D01*
X16317381Y-92598692D01*
X16381738Y-92628669D01*
X16403993Y-92654353D01*
X16408663Y-92661500D01*
X16492788Y-92790265D01*
X16492792Y-92790270D01*
X16645275Y-92955908D01*
X16699844Y-92998381D01*
X16822937Y-93094189D01*
X17020939Y-93201342D01*
X17020940Y-93201342D01*
X17020941Y-93201343D01*
X17132740Y-93239723D01*
X17233878Y-93274444D01*
X17455944Y-93311500D01*
X17455948Y-93311500D01*
X17681078Y-93311500D01*
X17681082Y-93311500D01*
X17903148Y-93274444D01*
X18116087Y-93201342D01*
X18314089Y-93094189D01*
X18491753Y-92955906D01*
X18644235Y-92790268D01*
X18733031Y-92654354D01*
X18787033Y-92608268D01*
X18857381Y-92598692D01*
X18921738Y-92628669D01*
X18943993Y-92654353D01*
X18948663Y-92661500D01*
X19032788Y-92790265D01*
X19032792Y-92790270D01*
X19185275Y-92955908D01*
X19239844Y-92998381D01*
X19362937Y-93094189D01*
X19560939Y-93201342D01*
X19560940Y-93201342D01*
X19560941Y-93201343D01*
X19672740Y-93239723D01*
X19773878Y-93274444D01*
X19995944Y-93311500D01*
X19995948Y-93311500D01*
X20221078Y-93311500D01*
X20221082Y-93311500D01*
X20443148Y-93274444D01*
X20656087Y-93201342D01*
X20854089Y-93094189D01*
X21031753Y-92955906D01*
X21184235Y-92790268D01*
X21307373Y-92601791D01*
X21397809Y-92395616D01*
X21453077Y-92177368D01*
X21471669Y-91953000D01*
X21453077Y-91728632D01*
X21445573Y-91699000D01*
X21397810Y-91510387D01*
X21397809Y-91510386D01*
X21397809Y-91510384D01*
X21307373Y-91304209D01*
X21300653Y-91293924D01*
X21184237Y-91115734D01*
X21184233Y-91115729D01*
X21031750Y-90950091D01*
X20912192Y-90857035D01*
X20854089Y-90811811D01*
X20656087Y-90704658D01*
X20656085Y-90704657D01*
X20656084Y-90704656D01*
X20443152Y-90631557D01*
X20443143Y-90631555D01*
X20398989Y-90624187D01*
X20221082Y-90594500D01*
X19995944Y-90594500D01*
X19847724Y-90619233D01*
X19773882Y-90631555D01*
X19773873Y-90631557D01*
X19560941Y-90704656D01*
X19560939Y-90704658D01*
X19362939Y-90811810D01*
X19362937Y-90811811D01*
X19185275Y-90950091D01*
X19032792Y-91115729D01*
X18943996Y-91251643D01*
X18889992Y-91297731D01*
X18819644Y-91307306D01*
X18755287Y-91277329D01*
X18733030Y-91251643D01*
X18644233Y-91115729D01*
X18491750Y-90950091D01*
X18372192Y-90857035D01*
X18314089Y-90811811D01*
X18116087Y-90704658D01*
X18116085Y-90704657D01*
X18116084Y-90704656D01*
X17903152Y-90631557D01*
X17903143Y-90631555D01*
X17858989Y-90624187D01*
X17681082Y-90594500D01*
X17455944Y-90594500D01*
X17307724Y-90619233D01*
X17233882Y-90631555D01*
X17233873Y-90631557D01*
X17020941Y-90704656D01*
X17020939Y-90704658D01*
X16822939Y-90811810D01*
X16822937Y-90811811D01*
X16645275Y-90950091D01*
X16492792Y-91115729D01*
X16403996Y-91251643D01*
X16349992Y-91297731D01*
X16279644Y-91307306D01*
X16215287Y-91277329D01*
X16193030Y-91251643D01*
X16104233Y-91115729D01*
X15951750Y-90950091D01*
X15832192Y-90857035D01*
X15774089Y-90811811D01*
X15576087Y-90704658D01*
X15576085Y-90704657D01*
X15576084Y-90704656D01*
X15363152Y-90631557D01*
X15363143Y-90631555D01*
X15318989Y-90624187D01*
X15141082Y-90594500D01*
X14915944Y-90594500D01*
X14767724Y-90619233D01*
X14693882Y-90631555D01*
X14693873Y-90631557D01*
X14480941Y-90704656D01*
X14480939Y-90704658D01*
X14282939Y-90811810D01*
X14282937Y-90811811D01*
X14105275Y-90950091D01*
X13952792Y-91115729D01*
X13863996Y-91251643D01*
X13809992Y-91297731D01*
X13739644Y-91307306D01*
X13675287Y-91277329D01*
X13653030Y-91251643D01*
X13564233Y-91115729D01*
X13411750Y-90950091D01*
X13292192Y-90857035D01*
X13234089Y-90811811D01*
X13036087Y-90704658D01*
X13036085Y-90704657D01*
X13036084Y-90704656D01*
X12823152Y-90631557D01*
X12823143Y-90631555D01*
X12778989Y-90624187D01*
X12601082Y-90594500D01*
X12375944Y-90594500D01*
X12227724Y-90619233D01*
X12153882Y-90631555D01*
X12153873Y-90631557D01*
X11940941Y-90704656D01*
X11940939Y-90704658D01*
X11742939Y-90811810D01*
X11742937Y-90811811D01*
X11565275Y-90950091D01*
X11412792Y-91115729D01*
X11323996Y-91251643D01*
X11269992Y-91297731D01*
X11199644Y-91307306D01*
X11135287Y-91277329D01*
X11113030Y-91251643D01*
X11024233Y-91115729D01*
X10871750Y-90950091D01*
X10752192Y-90857035D01*
X10694089Y-90811811D01*
X10496087Y-90704658D01*
X10496085Y-90704657D01*
X10496084Y-90704656D01*
X10283152Y-90631557D01*
X10283143Y-90631555D01*
X10238989Y-90624187D01*
X10061082Y-90594500D01*
X9835944Y-90594500D01*
X9687724Y-90619233D01*
X9613882Y-90631555D01*
X9613873Y-90631557D01*
X9400941Y-90704656D01*
X9400939Y-90704658D01*
X9202939Y-90811810D01*
X9202937Y-90811811D01*
X9025275Y-90950091D01*
X8872792Y-91115729D01*
X8783996Y-91251643D01*
X8729992Y-91297731D01*
X8659644Y-91307306D01*
X8595287Y-91277329D01*
X8573030Y-91251643D01*
X8484233Y-91115729D01*
X8331750Y-90950091D01*
X8212192Y-90857035D01*
X8154089Y-90811811D01*
X7956087Y-90704658D01*
X7956085Y-90704657D01*
X7956084Y-90704656D01*
X7743152Y-90631557D01*
X7743143Y-90631555D01*
X7698989Y-90624187D01*
X7521082Y-90594500D01*
X7295944Y-90594500D01*
X7147724Y-90619233D01*
X7073882Y-90631555D01*
X7073873Y-90631557D01*
X6860941Y-90704656D01*
X6860939Y-90704658D01*
X6662939Y-90811810D01*
X6662937Y-90811811D01*
X6485275Y-90950091D01*
X6332792Y-91115729D01*
X6243996Y-91251643D01*
X6189992Y-91297731D01*
X6119644Y-91307306D01*
X6055287Y-91277329D01*
X6033030Y-91251643D01*
X5944233Y-91115729D01*
X5791750Y-90950091D01*
X5672192Y-90857035D01*
X5614089Y-90811811D01*
X5416087Y-90704658D01*
X5416085Y-90704657D01*
X5416084Y-90704656D01*
X5203152Y-90631557D01*
X5203143Y-90631555D01*
X5158989Y-90624187D01*
X4981082Y-90594500D01*
X4755944Y-90594500D01*
X4607724Y-90619233D01*
X4533882Y-90631555D01*
X4533873Y-90631557D01*
X4320941Y-90704656D01*
X4320939Y-90704658D01*
X4122939Y-90811810D01*
X4122937Y-90811811D01*
X3945275Y-90950091D01*
X3792792Y-91115729D01*
X3703996Y-91251643D01*
X3649992Y-91297731D01*
X3579644Y-91307306D01*
X3515287Y-91277329D01*
X3493030Y-91251643D01*
X3404233Y-91115729D01*
X3251750Y-90950091D01*
X3132192Y-90857035D01*
X3074089Y-90811811D01*
X2876087Y-90704658D01*
X2876085Y-90704657D01*
X2876084Y-90704656D01*
X2663152Y-90631557D01*
X2663143Y-90631555D01*
X2618989Y-90624187D01*
X2441082Y-90594500D01*
X2215944Y-90594500D01*
X2067724Y-90619233D01*
X1993882Y-90631555D01*
X1993873Y-90631557D01*
X1780941Y-90704656D01*
X1780939Y-90704658D01*
X1582939Y-90811810D01*
X1582937Y-90811811D01*
X1405275Y-90950091D01*
X1252792Y-91115729D01*
X1163996Y-91251643D01*
X1109992Y-91297731D01*
X1039644Y-91307306D01*
X975287Y-91277329D01*
X953030Y-91251643D01*
X864233Y-91115729D01*
X711750Y-90950091D01*
X592192Y-90857035D01*
X534089Y-90811811D01*
X336087Y-90704658D01*
X336085Y-90704657D01*
X336084Y-90704656D01*
X123152Y-90631557D01*
X123143Y-90631555D01*
X78989Y-90624187D01*
X-98918Y-90594500D01*
X-324056Y-90594500D01*
X-472276Y-90619233D01*
X-546118Y-90631555D01*
X-546127Y-90631557D01*
X-759059Y-90704656D01*
X-759061Y-90704658D01*
X-957061Y-90811810D01*
X-957063Y-90811811D01*
X-1134725Y-90950091D01*
X-1287208Y-91115729D01*
X-1376004Y-91251643D01*
X-1430008Y-91297731D01*
X-1500356Y-91307306D01*
X-1564713Y-91277329D01*
X-1586970Y-91251643D01*
X-1675767Y-91115729D01*
X-1828250Y-90950091D01*
X-1947808Y-90857035D01*
X-2005911Y-90811811D01*
X-2203913Y-90704658D01*
X-2203915Y-90704657D01*
X-2203916Y-90704656D01*
X-2416848Y-90631557D01*
X-2416857Y-90631555D01*
X-2461011Y-90624187D01*
X-2638918Y-90594500D01*
X-2864056Y-90594500D01*
X-3012276Y-90619233D01*
X-3086118Y-90631555D01*
X-3086127Y-90631557D01*
X-3299059Y-90704656D01*
X-3299061Y-90704658D01*
X-3497061Y-90811810D01*
X-3497063Y-90811811D01*
X-3674725Y-90950091D01*
X-3827208Y-91115729D01*
X-3916004Y-91251643D01*
X-3970008Y-91297731D01*
X-4040356Y-91307306D01*
X-4104713Y-91277329D01*
X-4126970Y-91251643D01*
X-4215767Y-91115729D01*
X-4368250Y-90950091D01*
X-4487808Y-90857035D01*
X-4545911Y-90811811D01*
X-4743913Y-90704658D01*
X-4743915Y-90704657D01*
X-4743916Y-90704656D01*
X-4956848Y-90631557D01*
X-4956857Y-90631555D01*
X-5001011Y-90624187D01*
X-5178918Y-90594500D01*
X-5404056Y-90594500D01*
X-5552276Y-90619233D01*
X-5626118Y-90631555D01*
X-5626127Y-90631557D01*
X-5839059Y-90704656D01*
X-5839061Y-90704658D01*
X-6037061Y-90811810D01*
X-6037063Y-90811811D01*
X-6214725Y-90950091D01*
X-6367208Y-91115729D01*
X-6456004Y-91251643D01*
X-6510008Y-91297731D01*
X-6580356Y-91307306D01*
X-6644713Y-91277329D01*
X-6666970Y-91251643D01*
X-6755767Y-91115729D01*
X-6908250Y-90950091D01*
X-7027808Y-90857035D01*
X-7085911Y-90811811D01*
X-7283913Y-90704658D01*
X-7283915Y-90704657D01*
X-7283916Y-90704656D01*
X-7496848Y-90631557D01*
X-7496857Y-90631555D01*
X-7541011Y-90624187D01*
X-7718918Y-90594500D01*
X-7944056Y-90594500D01*
X-8092276Y-90619233D01*
X-8166118Y-90631555D01*
X-8166127Y-90631557D01*
X-8379059Y-90704656D01*
X-8379061Y-90704658D01*
X-8577061Y-90811810D01*
X-8577063Y-90811811D01*
X-8754725Y-90950091D01*
X-8907208Y-91115729D01*
X-8996004Y-91251643D01*
X-9050008Y-91297731D01*
X-9120356Y-91307306D01*
X-9184713Y-91277329D01*
X-9206970Y-91251643D01*
X-9295767Y-91115729D01*
X-9448250Y-90950091D01*
X-9567808Y-90857035D01*
X-9625911Y-90811811D01*
X-9823913Y-90704658D01*
X-9823915Y-90704657D01*
X-9823916Y-90704656D01*
X-10036848Y-90631557D01*
X-10036857Y-90631555D01*
X-10081011Y-90624187D01*
X-10258918Y-90594500D01*
X-10484056Y-90594500D01*
X-10632276Y-90619233D01*
X-10706118Y-90631555D01*
X-10706127Y-90631557D01*
X-10919059Y-90704656D01*
X-10919061Y-90704658D01*
X-11117061Y-90811810D01*
X-11117063Y-90811811D01*
X-11294725Y-90950091D01*
X-11447208Y-91115729D01*
X-11536004Y-91251643D01*
X-11590008Y-91297731D01*
X-11660356Y-91307306D01*
X-11724713Y-91277329D01*
X-11746970Y-91251643D01*
X-11835767Y-91115729D01*
X-11988250Y-90950091D01*
X-12107808Y-90857035D01*
X-12165911Y-90811811D01*
X-12363913Y-90704658D01*
X-12363915Y-90704657D01*
X-12363916Y-90704656D01*
X-12576848Y-90631557D01*
X-12576857Y-90631555D01*
X-12621011Y-90624187D01*
X-12798918Y-90594500D01*
X-13024056Y-90594500D01*
X-13172276Y-90619233D01*
X-13246118Y-90631555D01*
X-13246127Y-90631557D01*
X-13459059Y-90704656D01*
X-13459061Y-90704658D01*
X-13657061Y-90811810D01*
X-13657063Y-90811811D01*
X-13834725Y-90950091D01*
X-13987208Y-91115729D01*
X-14076004Y-91251643D01*
X-14130008Y-91297731D01*
X-14200356Y-91307306D01*
X-14264713Y-91277329D01*
X-14286970Y-91251643D01*
X-14375767Y-91115729D01*
X-14528250Y-90950091D01*
X-14647808Y-90857035D01*
X-14705911Y-90811811D01*
X-14903913Y-90704658D01*
X-14903915Y-90704657D01*
X-14903916Y-90704656D01*
X-15116848Y-90631557D01*
X-15116857Y-90631555D01*
X-15161011Y-90624187D01*
X-15338918Y-90594500D01*
X-15564056Y-90594500D01*
X-15712276Y-90619233D01*
X-15786118Y-90631555D01*
X-15786127Y-90631557D01*
X-15999059Y-90704656D01*
X-15999061Y-90704658D01*
X-16197061Y-90811810D01*
X-16197063Y-90811811D01*
X-16374725Y-90950091D01*
X-16527208Y-91115729D01*
X-16616004Y-91251643D01*
X-16670008Y-91297731D01*
X-16740356Y-91307306D01*
X-16804713Y-91277329D01*
X-16826970Y-91251643D01*
X-16915767Y-91115729D01*
X-17068250Y-90950091D01*
X-17187808Y-90857035D01*
X-17245911Y-90811811D01*
X-17443913Y-90704658D01*
X-17443915Y-90704657D01*
X-17443916Y-90704656D01*
X-17656848Y-90631557D01*
X-17656857Y-90631555D01*
X-17701011Y-90624187D01*
X-17878918Y-90594500D01*
X-18104056Y-90594500D01*
X-18252276Y-90619233D01*
X-18326118Y-90631555D01*
X-18326127Y-90631557D01*
X-18539059Y-90704656D01*
X-18539061Y-90704658D01*
X-18737061Y-90811810D01*
X-18737063Y-90811811D01*
X-18914725Y-90950091D01*
X-19067208Y-91115729D01*
X-19156004Y-91251643D01*
X-19210008Y-91297731D01*
X-19280356Y-91307306D01*
X-19344713Y-91277329D01*
X-19366970Y-91251643D01*
X-19455767Y-91115729D01*
X-19608250Y-90950091D01*
X-19727808Y-90857035D01*
X-19785911Y-90811811D01*
X-19983913Y-90704658D01*
X-19983915Y-90704657D01*
X-19983916Y-90704656D01*
X-20196848Y-90631557D01*
X-20196857Y-90631555D01*
X-20241011Y-90624187D01*
X-20418918Y-90594500D01*
X-20644056Y-90594500D01*
X-20792276Y-90619233D01*
X-20866118Y-90631555D01*
X-20866127Y-90631557D01*
X-21079059Y-90704656D01*
X-21079061Y-90704658D01*
X-21277061Y-90811810D01*
X-21277063Y-90811811D01*
X-21454725Y-90950091D01*
X-21607208Y-91115729D01*
X-21696004Y-91251643D01*
X-21750008Y-91297731D01*
X-21820356Y-91307306D01*
X-21884713Y-91277329D01*
X-21906970Y-91251643D01*
X-21995767Y-91115729D01*
X-22148250Y-90950091D01*
X-22267808Y-90857035D01*
X-22325911Y-90811811D01*
X-22523913Y-90704658D01*
X-22523915Y-90704657D01*
X-22523916Y-90704656D01*
X-22736848Y-90631557D01*
X-22736857Y-90631555D01*
X-22781011Y-90624187D01*
X-22958918Y-90594500D01*
X-23184056Y-90594500D01*
X-23332276Y-90619233D01*
X-23406118Y-90631555D01*
X-23406127Y-90631557D01*
X-23619059Y-90704656D01*
X-23619061Y-90704658D01*
X-23817061Y-90811810D01*
X-23817063Y-90811811D01*
X-23994725Y-90950091D01*
X-24147208Y-91115729D01*
X-24236004Y-91251643D01*
X-24290008Y-91297731D01*
X-24360356Y-91307306D01*
X-24424713Y-91277329D01*
X-24446970Y-91251643D01*
X-24535767Y-91115729D01*
X-24688250Y-90950091D01*
X-24807808Y-90857035D01*
X-24865911Y-90811811D01*
X-25063913Y-90704658D01*
X-25063915Y-90704657D01*
X-25063916Y-90704656D01*
X-25276848Y-90631557D01*
X-25276857Y-90631555D01*
X-25321011Y-90624187D01*
X-25498918Y-90594500D01*
X-25724056Y-90594500D01*
X-25872276Y-90619233D01*
X-25946118Y-90631555D01*
X-25946127Y-90631557D01*
X-26159059Y-90704656D01*
X-26159061Y-90704658D01*
X-26357061Y-90811810D01*
X-26357063Y-90811811D01*
X-26534728Y-90950094D01*
X-26596113Y-91016775D01*
X-26656966Y-91053346D01*
X-26727930Y-91051211D01*
X-26786475Y-91011049D01*
X-26806869Y-90975470D01*
X-26851044Y-90857033D01*
X-26938583Y-90740095D01*
X-27055522Y-90652555D01*
X-27192394Y-90601505D01*
X-27252890Y-90595000D01*
X-27897487Y-90595000D01*
X-27897487Y-91522297D01*
X-27958494Y-91487075D01*
X-28085661Y-91453000D01*
X-28217313Y-91453000D01*
X-28344480Y-91487075D01*
X-28405487Y-91522297D01*
X-28405487Y-90595000D01*
X-29050085Y-90595000D01*
X-29110581Y-90601505D01*
X-29247452Y-90652555D01*
X-29247453Y-90652555D01*
X-29364392Y-90740095D01*
X-29451932Y-90857034D01*
X-29451932Y-90857035D01*
X-29502982Y-90993906D01*
X-29509487Y-91054402D01*
X-30851487Y-91054402D01*
X-30851487Y-88322890D01*
X-2609987Y-88322890D01*
X-2609987Y-88483110D01*
X-2568519Y-88637873D01*
X-2568518Y-88637875D01*
X-2568517Y-88637877D01*
X-2488412Y-88776623D01*
X-2488404Y-88776633D01*
X-1625122Y-89639915D01*
X-1625117Y-89639919D01*
X-1625115Y-89639921D01*
X-1625114Y-89639922D01*
X-1625112Y-89639923D01*
X-1546413Y-89685360D01*
X-1486360Y-89720032D01*
X-1410468Y-89740367D01*
X-1331598Y-89761500D01*
X-1331597Y-89761500D01*
X-1171377Y-89761500D01*
X11017803Y-89761500D01*
X11085924Y-89781502D01*
X11111439Y-89803190D01*
X11137257Y-89831864D01*
X11137260Y-89831866D01*
X11291761Y-89944118D01*
X11466225Y-90021794D01*
X11653026Y-90061500D01*
X11844000Y-90061500D01*
X12030801Y-90021794D01*
X12205265Y-89944118D01*
X12359766Y-89831866D01*
X12456390Y-89724554D01*
X12487546Y-89689952D01*
X12487546Y-89689950D01*
X12487553Y-89689944D01*
X12487557Y-89689936D01*
X12490882Y-89685360D01*
X12547099Y-89642000D01*
X12617835Y-89635917D01*
X12680630Y-89669042D01*
X12712656Y-89720465D01*
X12713982Y-89724547D01*
X12713985Y-89724553D01*
X12713986Y-89724556D01*
X12713989Y-89724561D01*
X12809471Y-89889941D01*
X12809478Y-89889951D01*
X12937257Y-90031864D01*
X12998512Y-90076368D01*
X13091761Y-90144118D01*
X13266225Y-90221794D01*
X13453026Y-90261500D01*
X13644000Y-90261500D01*
X13830801Y-90221794D01*
X14005265Y-90144118D01*
X14159766Y-90031866D01*
X14168836Y-90021793D01*
X14287547Y-89889951D01*
X14287548Y-89889949D01*
X14287553Y-89889944D01*
X14383040Y-89724556D01*
X14442055Y-89542928D01*
X14462017Y-89353000D01*
X14446447Y-89204866D01*
X14450051Y-89159089D01*
X14457013Y-89133110D01*
X14457013Y-88972890D01*
X14457013Y-85372343D01*
X14477015Y-85304222D01*
X14530671Y-85257729D01*
X14600945Y-85247625D01*
X14665525Y-85277119D01*
X14698562Y-85326948D01*
X14699838Y-85326381D01*
X14702519Y-85332404D01*
X14702522Y-85332411D01*
X14702525Y-85332416D01*
X14798007Y-85497796D01*
X14798014Y-85497806D01*
X14925793Y-85639719D01*
X14925796Y-85639721D01*
X15080297Y-85751973D01*
X15254761Y-85829649D01*
X15255534Y-85829813D01*
X15255941Y-85830033D01*
X15261041Y-85831690D01*
X15260738Y-85832622D01*
X15318009Y-85863539D01*
X15352333Y-85925688D01*
X15354651Y-85939886D01*
X15354970Y-85942925D01*
X15354971Y-85942930D01*
X15375904Y-86007353D01*
X15413986Y-86124556D01*
X15413989Y-86124561D01*
X15509471Y-86289941D01*
X15509478Y-86289951D01*
X15637257Y-86431864D01*
X15698512Y-86476368D01*
X15791761Y-86544118D01*
X15966225Y-86621794D01*
X16153026Y-86661500D01*
X16344000Y-86661500D01*
X16530801Y-86621794D01*
X16705265Y-86544118D01*
X16859766Y-86431866D01*
X16874000Y-86416058D01*
X16987547Y-86289951D01*
X16987548Y-86289949D01*
X16987553Y-86289944D01*
X17083040Y-86124556D01*
X17142055Y-85942928D01*
X17162017Y-85753000D01*
X17162017Y-85752998D01*
X17162017Y-85752234D01*
X17162142Y-85751807D01*
X17162707Y-85746433D01*
X17163689Y-85746536D01*
X17182019Y-85684113D01*
X17198922Y-85663139D01*
X17309061Y-85553000D01*
X22435009Y-85553000D01*
X22454970Y-85742927D01*
X22469665Y-85788152D01*
X22513986Y-85924556D01*
X22513989Y-85924561D01*
X22609471Y-86089941D01*
X22609478Y-86089951D01*
X22737257Y-86231864D01*
X22789861Y-86270083D01*
X22891761Y-86344118D01*
X23066225Y-86421794D01*
X23253026Y-86461500D01*
X23444000Y-86461500D01*
X23630801Y-86421794D01*
X23787463Y-86352043D01*
X23857828Y-86342610D01*
X23922125Y-86372716D01*
X23953042Y-86419817D01*
X23954831Y-86419021D01*
X23957518Y-86425057D01*
X24053003Y-86590441D01*
X24053010Y-86590451D01*
X24180789Y-86732364D01*
X24180792Y-86732366D01*
X24335293Y-86844618D01*
X24509757Y-86922294D01*
X24696558Y-86962000D01*
X24887532Y-86962000D01*
X25074333Y-86922294D01*
X25248797Y-86844618D01*
X25403298Y-86732366D01*
X25403300Y-86732364D01*
X25501451Y-86623356D01*
X30820368Y-86623356D01*
X30820368Y-86792644D01*
X30845766Y-86953000D01*
X30846851Y-86959852D01*
X30899161Y-87120845D01*
X30899162Y-87120848D01*
X30899163Y-87120849D01*
X30976018Y-87271685D01*
X31075522Y-87408641D01*
X31075524Y-87408643D01*
X31075526Y-87408646D01*
X31195221Y-87528341D01*
X31195224Y-87528343D01*
X31195227Y-87528346D01*
X31332183Y-87627850D01*
X31483019Y-87704705D01*
X31644021Y-87757018D01*
X31811224Y-87783500D01*
X31811227Y-87783500D01*
X31980509Y-87783500D01*
X31980512Y-87783500D01*
X32147715Y-87757018D01*
X32308717Y-87704705D01*
X32459553Y-87627850D01*
X32596509Y-87528346D01*
X32716214Y-87408641D01*
X32815718Y-87271685D01*
X32892573Y-87120849D01*
X32944886Y-86959847D01*
X32971368Y-86792644D01*
X32971368Y-86623356D01*
X32944886Y-86456153D01*
X32892573Y-86295151D01*
X32815718Y-86144315D01*
X32716214Y-86007359D01*
X32716211Y-86007356D01*
X32716209Y-86007353D01*
X32596514Y-85887658D01*
X32596511Y-85887656D01*
X32596509Y-85887654D01*
X32459553Y-85788150D01*
X32308717Y-85711295D01*
X32308716Y-85711294D01*
X32308713Y-85711293D01*
X32147720Y-85658983D01*
X32147716Y-85658982D01*
X32147715Y-85658982D01*
X31980512Y-85632500D01*
X31811224Y-85632500D01*
X31644021Y-85658982D01*
X31644015Y-85658983D01*
X31483022Y-85711293D01*
X31332179Y-85788152D01*
X31195224Y-85887656D01*
X31195221Y-85887658D01*
X31075526Y-86007353D01*
X31075524Y-86007356D01*
X30976020Y-86144311D01*
X30899161Y-86295154D01*
X30846851Y-86456147D01*
X30846850Y-86456152D01*
X30846850Y-86456153D01*
X30820368Y-86623356D01*
X25501451Y-86623356D01*
X25531079Y-86590451D01*
X25531080Y-86590449D01*
X25531085Y-86590444D01*
X25626572Y-86425056D01*
X25685587Y-86243428D01*
X25705549Y-86053500D01*
X25685587Y-85863572D01*
X25626572Y-85681944D01*
X25584322Y-85608766D01*
X25567585Y-85539772D01*
X25590805Y-85472680D01*
X25646612Y-85428793D01*
X25693442Y-85419767D01*
X25785733Y-85419767D01*
X25972534Y-85380061D01*
X26146998Y-85302385D01*
X26301499Y-85190133D01*
X26429286Y-85048211D01*
X26524773Y-84882823D01*
X26583788Y-84701195D01*
X26603750Y-84511267D01*
X26601028Y-84485369D01*
X26613800Y-84415532D01*
X26662302Y-84363685D01*
X26719504Y-84348065D01*
X26719381Y-84346890D01*
X26725938Y-84346201D01*
X26725943Y-84346200D01*
X26912744Y-84306494D01*
X27087208Y-84228818D01*
X27241709Y-84116566D01*
X27241711Y-84116564D01*
X27369490Y-83974651D01*
X27369491Y-83974649D01*
X27369496Y-83974644D01*
X27464983Y-83809256D01*
X27523998Y-83627628D01*
X27543960Y-83437700D01*
X27523998Y-83247772D01*
X27464983Y-83066144D01*
X27369496Y-82900756D01*
X27369494Y-82900754D01*
X27369490Y-82900748D01*
X27241711Y-82758835D01*
X27087208Y-82646582D01*
X26912744Y-82568906D01*
X26725943Y-82529200D01*
X26552671Y-82529200D01*
X26484550Y-82509198D01*
X26459036Y-82487512D01*
X26331506Y-82345875D01*
X26327565Y-82343012D01*
X26177005Y-82233623D01*
X26002541Y-82155947D01*
X25815740Y-82116241D01*
X25624766Y-82116241D01*
X25624764Y-82116241D01*
X25538427Y-82134592D01*
X25467636Y-82129189D01*
X25412093Y-82087195D01*
X25391308Y-82154998D01*
X25337375Y-82200731D01*
X25263507Y-82233619D01*
X25263501Y-82233623D01*
X25108999Y-82345875D01*
X25043416Y-82418712D01*
X24982969Y-82455951D01*
X24911986Y-82454599D01*
X24898534Y-82449509D01*
X24748518Y-82382718D01*
X24561717Y-82343012D01*
X24370743Y-82343012D01*
X24183941Y-82382718D01*
X24009477Y-82460394D01*
X23854974Y-82572647D01*
X23727195Y-82714560D01*
X23727188Y-82714570D01*
X23631706Y-82879950D01*
X23631703Y-82879957D01*
X23572687Y-83061584D01*
X23552726Y-83251512D01*
X23552726Y-83252275D01*
X23552601Y-83252699D01*
X23552036Y-83258078D01*
X23551052Y-83257974D01*
X23532724Y-83320396D01*
X23515822Y-83341370D01*
X22861593Y-83995599D01*
X22861588Y-83995605D01*
X22781482Y-84134352D01*
X22781479Y-84134358D01*
X22774607Y-84160010D01*
X22774607Y-84160012D01*
X22742528Y-84279734D01*
X22740013Y-84289119D01*
X22740013Y-84822709D01*
X22720011Y-84890830D01*
X22707650Y-84907019D01*
X22609474Y-85016054D01*
X22609471Y-85016058D01*
X22556955Y-85107019D01*
X22513986Y-85181444D01*
X22502740Y-85216056D01*
X22454970Y-85363072D01*
X22435009Y-85553000D01*
X17309061Y-85553000D01*
X22363158Y-80498904D01*
X22425470Y-80464878D01*
X22452253Y-80461999D01*
X22695266Y-80461999D01*
X22763387Y-80482001D01*
X22809880Y-80535657D01*
X22819984Y-80605931D01*
X22790490Y-80670511D01*
X22788902Y-80672309D01*
X22659478Y-80816048D01*
X22659471Y-80816058D01*
X22563989Y-80981438D01*
X22563986Y-80981445D01*
X22504970Y-81163072D01*
X22485009Y-81353000D01*
X22504970Y-81542927D01*
X22519592Y-81587926D01*
X22563986Y-81724556D01*
X22563989Y-81724561D01*
X22659471Y-81889941D01*
X22659478Y-81889951D01*
X22787257Y-82031864D01*
X22793876Y-82036673D01*
X22941761Y-82144118D01*
X23116225Y-82221794D01*
X23303026Y-82261500D01*
X23494000Y-82261500D01*
X23680801Y-82221794D01*
X23855265Y-82144118D01*
X24009766Y-82031866D01*
X24009768Y-82031864D01*
X24035587Y-82003190D01*
X24096033Y-81965950D01*
X24129223Y-81961500D01*
X25263630Y-81961500D01*
X25269675Y-81960704D01*
X25339824Y-81971640D01*
X25387748Y-82014173D01*
X25401933Y-81950433D01*
X25449228Y-81902228D01*
X25557146Y-81839922D01*
X32498174Y-74898894D01*
X32560486Y-74864868D01*
X32587269Y-74861989D01*
X42655235Y-74861989D01*
X42723356Y-74881991D01*
X42769849Y-74935647D01*
X42779953Y-75005921D01*
X42750459Y-75070501D01*
X42748871Y-75072299D01*
X42709478Y-75116048D01*
X42709471Y-75116058D01*
X42613989Y-75281438D01*
X42613986Y-75281445D01*
X42554970Y-75463072D01*
X42535009Y-75653000D01*
X42554970Y-75842927D01*
X42585039Y-75935470D01*
X42613986Y-76024556D01*
X42709473Y-76189944D01*
X42807649Y-76298980D01*
X42838366Y-76362987D01*
X42840013Y-76383290D01*
X42840013Y-81418500D01*
X42820011Y-81486621D01*
X42766355Y-81533114D01*
X42714013Y-81544500D01*
X42653026Y-81544500D01*
X42466224Y-81584206D01*
X42291760Y-81661882D01*
X42137257Y-81774135D01*
X42009478Y-81916048D01*
X42009471Y-81916058D01*
X41913989Y-82081438D01*
X41913986Y-82081444D01*
X41909664Y-82094747D01*
X41854971Y-82263070D01*
X41854971Y-82263071D01*
X41854461Y-82267923D01*
X41827445Y-82333578D01*
X41772117Y-82372183D01*
X41772258Y-82372499D01*
X41770622Y-82373227D01*
X41769221Y-82374205D01*
X41768091Y-82374578D01*
X41766230Y-82375182D01*
X41591760Y-82452861D01*
X41437257Y-82565114D01*
X41309478Y-82707027D01*
X41309471Y-82707037D01*
X41213989Y-82872417D01*
X41213986Y-82872423D01*
X41211538Y-82879957D01*
X41154970Y-83054051D01*
X41135009Y-83243980D01*
X41135009Y-83243984D01*
X41136444Y-83257644D01*
X41123669Y-83327482D01*
X41075165Y-83379326D01*
X41062383Y-83385916D01*
X40891760Y-83461882D01*
X40737257Y-83574135D01*
X40609478Y-83716048D01*
X40609471Y-83716058D01*
X40513989Y-83881438D01*
X40513986Y-83881445D01*
X40454970Y-84063072D01*
X40435009Y-84253000D01*
X40454970Y-84442930D01*
X40479325Y-84517886D01*
X40481352Y-84588853D01*
X40444690Y-84649651D01*
X40385693Y-84680067D01*
X40366226Y-84684205D01*
X40191760Y-84761882D01*
X40037257Y-84874135D01*
X39909478Y-85016048D01*
X39909471Y-85016058D01*
X39856955Y-85107019D01*
X39813986Y-85181444D01*
X39802740Y-85216056D01*
X39754970Y-85363072D01*
X39735009Y-85553000D01*
X39754970Y-85742928D01*
X39809719Y-85911425D01*
X39811747Y-85982392D01*
X39775084Y-86043190D01*
X39716084Y-86073607D01*
X39666228Y-86084204D01*
X39491760Y-86161882D01*
X39337257Y-86274135D01*
X39209478Y-86416048D01*
X39209471Y-86416058D01*
X39135536Y-86544118D01*
X39113986Y-86581444D01*
X39100876Y-86621793D01*
X39054970Y-86763072D01*
X39035009Y-86953000D01*
X39054970Y-87142927D01*
X39085039Y-87235470D01*
X39113986Y-87324556D01*
X39209473Y-87489944D01*
X39307649Y-87598980D01*
X39338366Y-87662987D01*
X39340013Y-87683290D01*
X39340013Y-88890894D01*
X39320011Y-88959015D01*
X39303108Y-88979989D01*
X38275002Y-90008095D01*
X38212690Y-90042121D01*
X38185907Y-90045000D01*
X38094659Y-90045000D01*
X37907857Y-90084706D01*
X37733393Y-90162382D01*
X37578890Y-90274635D01*
X37451111Y-90416548D01*
X37451104Y-90416558D01*
X37355622Y-90581938D01*
X37355619Y-90581944D01*
X37351377Y-90595000D01*
X37296603Y-90763572D01*
X37276642Y-90953500D01*
X37296603Y-91143427D01*
X37311717Y-91189941D01*
X37355619Y-91325056D01*
X37355622Y-91325061D01*
X37451104Y-91490441D01*
X37451111Y-91490451D01*
X37578890Y-91632364D01*
X37578893Y-91632366D01*
X37733394Y-91744618D01*
X37907858Y-91822294D01*
X37987527Y-91839228D01*
X38050000Y-91872956D01*
X38081162Y-91923537D01*
X38113986Y-92024556D01*
X38113989Y-92024561D01*
X38209471Y-92189941D01*
X38209478Y-92189951D01*
X38337257Y-92331864D01*
X38398512Y-92376368D01*
X38491761Y-92444118D01*
X38666225Y-92521794D01*
X38853026Y-92561500D01*
X39043996Y-92561500D01*
X39044000Y-92561500D01*
X39090240Y-92551671D01*
X39161028Y-92557073D01*
X39210070Y-92590608D01*
X39337257Y-92731864D01*
X39337260Y-92731866D01*
X39491761Y-92844118D01*
X39666225Y-92921794D01*
X39853026Y-92961500D01*
X40044000Y-92961500D01*
X40230801Y-92921794D01*
X40405265Y-92844118D01*
X40559766Y-92731866D01*
X40676886Y-92601791D01*
X40687547Y-92589951D01*
X40687548Y-92589949D01*
X40687553Y-92589944D01*
X40783040Y-92424556D01*
X40842055Y-92242928D01*
X40862017Y-92053000D01*
X40862017Y-92052998D01*
X40862017Y-92052234D01*
X40862142Y-92051807D01*
X40862707Y-92046433D01*
X40863689Y-92046536D01*
X40882019Y-91984113D01*
X40898916Y-91963144D01*
X40951747Y-91910313D01*
X41014055Y-91876291D01*
X41084870Y-91881355D01*
X41141706Y-91923901D01*
X41160672Y-91960474D01*
X41213986Y-92124556D01*
X41213989Y-92124561D01*
X41309471Y-92289941D01*
X41309478Y-92289951D01*
X41437257Y-92431864D01*
X41437260Y-92431866D01*
X41591761Y-92544118D01*
X41766225Y-92621794D01*
X41953026Y-92661500D01*
X42144000Y-92661500D01*
X42330801Y-92621794D01*
X42505265Y-92544118D01*
X42659766Y-92431866D01*
X42659768Y-92431864D01*
X42787547Y-92289951D01*
X42787548Y-92289949D01*
X42787553Y-92289944D01*
X42883040Y-92124556D01*
X42942055Y-91942928D01*
X42962017Y-91753000D01*
X42951446Y-91652425D01*
X42964218Y-91582589D01*
X43012720Y-91530743D01*
X43025508Y-91524150D01*
X43030798Y-91521794D01*
X43030801Y-91521794D01*
X43205265Y-91444118D01*
X43359766Y-91331866D01*
X43381880Y-91307306D01*
X43487547Y-91189951D01*
X43487548Y-91189949D01*
X43487553Y-91189944D01*
X43583040Y-91024556D01*
X43642055Y-90842928D01*
X43662017Y-90653000D01*
X43642055Y-90463072D01*
X43583040Y-90281444D01*
X43487553Y-90116056D01*
X43389376Y-90007019D01*
X43358659Y-89943012D01*
X43357013Y-89922709D01*
X43357013Y-86448861D01*
X43377015Y-86380740D01*
X43430671Y-86334247D01*
X43500945Y-86324143D01*
X43565525Y-86353637D01*
X43576644Y-86364545D01*
X43637260Y-86431866D01*
X43791761Y-86544118D01*
X43966225Y-86621794D01*
X44153026Y-86661500D01*
X44344000Y-86661500D01*
X44530801Y-86621794D01*
X44705265Y-86544118D01*
X44859766Y-86431866D01*
X44874000Y-86416058D01*
X44987547Y-86289951D01*
X44987548Y-86289949D01*
X44987553Y-86289944D01*
X45083040Y-86124556D01*
X45142055Y-85942928D01*
X45162017Y-85753000D01*
X45142055Y-85563072D01*
X45083040Y-85381444D01*
X44987553Y-85216056D01*
X44889376Y-85107019D01*
X44858659Y-85043012D01*
X44857013Y-85022709D01*
X44857013Y-77283290D01*
X44877015Y-77215169D01*
X44889373Y-77198983D01*
X44987553Y-77089944D01*
X45083040Y-76924556D01*
X45100607Y-76870490D01*
X45140679Y-76811886D01*
X45206075Y-76784248D01*
X45276032Y-76796354D01*
X45309534Y-76820332D01*
X46903108Y-78413906D01*
X46937134Y-78476218D01*
X46940013Y-78503001D01*
X46940013Y-80332409D01*
X46956304Y-80393212D01*
X46981478Y-80487163D01*
X46981483Y-80487175D01*
X47061588Y-80625921D01*
X47061590Y-80625923D01*
X47061591Y-80625925D01*
X47765790Y-81330124D01*
X47799814Y-81392435D01*
X47798839Y-81450148D01*
X47763949Y-81587926D01*
X47763949Y-81587930D01*
X47745357Y-81812298D01*
X47763551Y-82031866D01*
X47763950Y-82036673D01*
X47819215Y-82254910D01*
X47819216Y-82254911D01*
X47819217Y-82254914D01*
X47875277Y-82382718D01*
X47909654Y-82461091D01*
X48032788Y-82649563D01*
X48032792Y-82649568D01*
X48133380Y-82758834D01*
X48175555Y-82804648D01*
X48185275Y-82815206D01*
X48196923Y-82824272D01*
X48362937Y-82953487D01*
X48560939Y-83060640D01*
X48560940Y-83060640D01*
X48560941Y-83060641D01*
X48636395Y-83086544D01*
X48773878Y-83133742D01*
X48995944Y-83170798D01*
X48995948Y-83170798D01*
X49221078Y-83170798D01*
X49221082Y-83170798D01*
X49443148Y-83133742D01*
X49656087Y-83060640D01*
X49854089Y-82953487D01*
X50031753Y-82815204D01*
X50184235Y-82649566D01*
X50307373Y-82461089D01*
X50397809Y-82254914D01*
X50453077Y-82036666D01*
X50471669Y-81812298D01*
X50453077Y-81587930D01*
X50411712Y-81424584D01*
X50397810Y-81369685D01*
X50397809Y-81369684D01*
X50397809Y-81369682D01*
X50307373Y-81163507D01*
X50300182Y-81152500D01*
X50184237Y-80975032D01*
X50184233Y-80975027D01*
X50068083Y-80848857D01*
X50031753Y-80809392D01*
X50031752Y-80809391D01*
X50031750Y-80809389D01*
X49948381Y-80744500D01*
X49854089Y-80671109D01*
X49820832Y-80653111D01*
X49770442Y-80603100D01*
X49755089Y-80533783D01*
X49779649Y-80467170D01*
X49820833Y-80431484D01*
X49854089Y-80413487D01*
X50031753Y-80275204D01*
X50184235Y-80109566D01*
X50307373Y-79921089D01*
X50397809Y-79714914D01*
X50453077Y-79496666D01*
X50471669Y-79272298D01*
X50453077Y-79047930D01*
X50453075Y-79047922D01*
X50397810Y-78829685D01*
X50397809Y-78829684D01*
X50397809Y-78829682D01*
X50307373Y-78623507D01*
X50228643Y-78503001D01*
X50184237Y-78435032D01*
X50184233Y-78435027D01*
X50031750Y-78269389D01*
X49949895Y-78205679D01*
X49854089Y-78131109D01*
X49820832Y-78113111D01*
X49770442Y-78063100D01*
X49755089Y-77993783D01*
X49779649Y-77927170D01*
X49820833Y-77891484D01*
X49854089Y-77873487D01*
X50031753Y-77735204D01*
X50184235Y-77569566D01*
X50307373Y-77381089D01*
X50397809Y-77174914D01*
X50453077Y-76956666D01*
X50471669Y-76732298D01*
X50453077Y-76507930D01*
X50433815Y-76431866D01*
X50397810Y-76289685D01*
X50397809Y-76289684D01*
X50397809Y-76289682D01*
X50307373Y-76083507D01*
X50268862Y-76024561D01*
X50184237Y-75895032D01*
X50184233Y-75895027D01*
X50031750Y-75729389D01*
X49949895Y-75665679D01*
X49854089Y-75591109D01*
X49820832Y-75573111D01*
X49770442Y-75523100D01*
X49755089Y-75453783D01*
X49779649Y-75387170D01*
X49820833Y-75351484D01*
X49854089Y-75333487D01*
X50031753Y-75195204D01*
X50184235Y-75029566D01*
X50307373Y-74841089D01*
X50397809Y-74634914D01*
X50453077Y-74416666D01*
X50471669Y-74192298D01*
X50453077Y-73967930D01*
X50416748Y-73824469D01*
X50397810Y-73749685D01*
X50397809Y-73749684D01*
X50397809Y-73749682D01*
X50307373Y-73543507D01*
X50260520Y-73471793D01*
X50184237Y-73355032D01*
X50184233Y-73355027D01*
X50031750Y-73189389D01*
X49943272Y-73120524D01*
X49854089Y-73051109D01*
X49820832Y-73033111D01*
X49770442Y-72983100D01*
X49755089Y-72913783D01*
X49779649Y-72847170D01*
X49820833Y-72811484D01*
X49854089Y-72793487D01*
X50031753Y-72655204D01*
X50184235Y-72489566D01*
X50307373Y-72301089D01*
X50397809Y-72094914D01*
X50453077Y-71876666D01*
X50471669Y-71652298D01*
X50453077Y-71427930D01*
X50397809Y-71209682D01*
X50307373Y-71003507D01*
X50300653Y-70993222D01*
X50184237Y-70815032D01*
X50184233Y-70815027D01*
X50031750Y-70649389D01*
X49948003Y-70584206D01*
X49854089Y-70511109D01*
X49820832Y-70493111D01*
X49770442Y-70443100D01*
X49755089Y-70373783D01*
X49779649Y-70307170D01*
X49820833Y-70271484D01*
X49854089Y-70253487D01*
X50031753Y-70115204D01*
X50184235Y-69949566D01*
X50307373Y-69761089D01*
X50397809Y-69554914D01*
X50453077Y-69336666D01*
X50471669Y-69112298D01*
X50453077Y-68887930D01*
X50398937Y-68674135D01*
X50397810Y-68669685D01*
X50397809Y-68669684D01*
X50397809Y-68669682D01*
X50307373Y-68463507D01*
X50270844Y-68407595D01*
X50184237Y-68275032D01*
X50184233Y-68275027D01*
X50031750Y-68109389D01*
X49949895Y-68045679D01*
X49854089Y-67971109D01*
X49820832Y-67953111D01*
X49770442Y-67903100D01*
X49755089Y-67833783D01*
X49779649Y-67767170D01*
X49820833Y-67731484D01*
X49854089Y-67713487D01*
X50031753Y-67575204D01*
X50184235Y-67409566D01*
X50307373Y-67221089D01*
X50397809Y-67014914D01*
X50453077Y-66796666D01*
X50471669Y-66572298D01*
X50453077Y-66347930D01*
X50411001Y-66181775D01*
X50397810Y-66129685D01*
X50397809Y-66129684D01*
X50397809Y-66129682D01*
X50307373Y-65923507D01*
X50236340Y-65814782D01*
X50184237Y-65735032D01*
X50184227Y-65735020D01*
X50040672Y-65579080D01*
X50009250Y-65515415D01*
X50017236Y-65444869D01*
X50062095Y-65389840D01*
X50089340Y-65375686D01*
X50204478Y-65332742D01*
X50321417Y-65245202D01*
X50408957Y-65128263D01*
X50408957Y-65128262D01*
X50460007Y-64991391D01*
X50466512Y-64930895D01*
X50466513Y-64930883D01*
X50466513Y-64286298D01*
X49539216Y-64286298D01*
X49574438Y-64225291D01*
X49608513Y-64098124D01*
X49608513Y-63966472D01*
X49574438Y-63839305D01*
X49539216Y-63778298D01*
X50466513Y-63778298D01*
X50466513Y-63133712D01*
X50466512Y-63133700D01*
X50460007Y-63073204D01*
X50408957Y-62936333D01*
X50408957Y-62936332D01*
X50321417Y-62819393D01*
X50204478Y-62731853D01*
X50067606Y-62680803D01*
X50007110Y-62674298D01*
X49362513Y-62674298D01*
X49362513Y-63601595D01*
X49301506Y-63566373D01*
X49174339Y-63532298D01*
X49042687Y-63532298D01*
X48915520Y-63566373D01*
X48854513Y-63601595D01*
X48854513Y-62674298D01*
X48209915Y-62674298D01*
X48149419Y-62680803D01*
X48012548Y-62731853D01*
X48012547Y-62731853D01*
X47895608Y-62819393D01*
X47808068Y-62936332D01*
X47808068Y-62936333D01*
X47757018Y-63073204D01*
X47750513Y-63133700D01*
X47750513Y-63778298D01*
X48677810Y-63778298D01*
X48642588Y-63839305D01*
X48608513Y-63966472D01*
X48608513Y-64098124D01*
X48642588Y-64225291D01*
X48677810Y-64286298D01*
X47750513Y-64286298D01*
X47750513Y-64930895D01*
X47757018Y-64991391D01*
X47808068Y-65128262D01*
X47808068Y-65128263D01*
X47895608Y-65245202D01*
X48012547Y-65332742D01*
X48127685Y-65375686D01*
X48184521Y-65418233D01*
X48209332Y-65484753D01*
X48194241Y-65554127D01*
X48176354Y-65579080D01*
X48032793Y-65735027D01*
X48032788Y-65735032D01*
X47909654Y-65923504D01*
X47819216Y-66129684D01*
X47819215Y-66129685D01*
X47763950Y-66347922D01*
X47763949Y-66347928D01*
X47763949Y-66347930D01*
X47745357Y-66572298D01*
X47763339Y-66789308D01*
X47763950Y-66796673D01*
X47819215Y-67014910D01*
X47819216Y-67014911D01*
X47819217Y-67014914D01*
X47909653Y-67221089D01*
X47909654Y-67221091D01*
X48032788Y-67409563D01*
X48032792Y-67409568D01*
X48185275Y-67575206D01*
X48239844Y-67617679D01*
X48362937Y-67713487D01*
X48396193Y-67731484D01*
X48446584Y-67781498D01*
X48461936Y-67850814D01*
X48437375Y-67917427D01*
X48396193Y-67953111D01*
X48362939Y-67971108D01*
X48362937Y-67971109D01*
X48185275Y-68109389D01*
X48032792Y-68275027D01*
X48032788Y-68275032D01*
X47909654Y-68463504D01*
X47819216Y-68669684D01*
X47819215Y-68669685D01*
X47763950Y-68887922D01*
X47763949Y-68887928D01*
X47763949Y-68887930D01*
X47745357Y-69112298D01*
X47757856Y-69263140D01*
X47763950Y-69336673D01*
X47819215Y-69554910D01*
X47819216Y-69554911D01*
X47819217Y-69554914D01*
X47909653Y-69761089D01*
X47909654Y-69761091D01*
X48032788Y-69949563D01*
X48032792Y-69949568D01*
X48185275Y-70115206D01*
X48186370Y-70116058D01*
X48362937Y-70253487D01*
X48396193Y-70271484D01*
X48446584Y-70321498D01*
X48461936Y-70390814D01*
X48437375Y-70457427D01*
X48396193Y-70493111D01*
X48362939Y-70511108D01*
X48362937Y-70511109D01*
X48185275Y-70649389D01*
X48032792Y-70815027D01*
X48032788Y-70815032D01*
X47909654Y-71003504D01*
X47819216Y-71209684D01*
X47819215Y-71209685D01*
X47763950Y-71427922D01*
X47763949Y-71427928D01*
X47763949Y-71427930D01*
X47745357Y-71652298D01*
X47759631Y-71824561D01*
X47763950Y-71876673D01*
X47819215Y-72094910D01*
X47819216Y-72094911D01*
X47819217Y-72094914D01*
X47907191Y-72295476D01*
X47909654Y-72301091D01*
X48032788Y-72489563D01*
X48032792Y-72489568D01*
X48185275Y-72655206D01*
X48199250Y-72666083D01*
X48362937Y-72793487D01*
X48396193Y-72811484D01*
X48446584Y-72861498D01*
X48461936Y-72930814D01*
X48437375Y-72997427D01*
X48396193Y-73033111D01*
X48362939Y-73051108D01*
X48362937Y-73051109D01*
X48185275Y-73189389D01*
X48032792Y-73355027D01*
X48032788Y-73355032D01*
X47909654Y-73543504D01*
X47819216Y-73749684D01*
X47819215Y-73749685D01*
X47763950Y-73967922D01*
X47763949Y-73967928D01*
X47763949Y-73967930D01*
X47746582Y-74177518D01*
X47745357Y-74192301D01*
X47745550Y-74194633D01*
X47745357Y-74195570D01*
X47745357Y-74197509D01*
X47744958Y-74197509D01*
X47731234Y-74264172D01*
X47681596Y-74314931D01*
X47612394Y-74330797D01*
X47545601Y-74306730D01*
X47530884Y-74294120D01*
X45902848Y-72666083D01*
X45902838Y-72666075D01*
X45764092Y-72585970D01*
X45764089Y-72585969D01*
X45764088Y-72585968D01*
X45764086Y-72585967D01*
X45764085Y-72585967D01*
X45686706Y-72565234D01*
X45609326Y-72544500D01*
X45609324Y-72544500D01*
X26679223Y-72544500D01*
X26611102Y-72524498D01*
X26585587Y-72502810D01*
X26559768Y-72474135D01*
X26405265Y-72361882D01*
X26230801Y-72284206D01*
X26044000Y-72244500D01*
X25853026Y-72244500D01*
X25666224Y-72284206D01*
X25491760Y-72361882D01*
X25430606Y-72406313D01*
X25363738Y-72430171D01*
X25294586Y-72414089D01*
X25262910Y-72388686D01*
X25159768Y-72274135D01*
X25005265Y-72161882D01*
X24830801Y-72084206D01*
X24644000Y-72044500D01*
X24453026Y-72044500D01*
X24266224Y-72084206D01*
X24091760Y-72161882D01*
X23937257Y-72274135D01*
X23911439Y-72302810D01*
X23850993Y-72340050D01*
X23817803Y-72344500D01*
X23283013Y-72344500D01*
X23214892Y-72324498D01*
X23168399Y-72270842D01*
X23157013Y-72218500D01*
X23157013Y-71383290D01*
X23177015Y-71315169D01*
X23189373Y-71298983D01*
X23287553Y-71189944D01*
X23383040Y-71024556D01*
X23442055Y-70842928D01*
X23462017Y-70653000D01*
X23442055Y-70463072D01*
X23383040Y-70281444D01*
X23287553Y-70116056D01*
X23287551Y-70116054D01*
X23287547Y-70116048D01*
X23159768Y-69974135D01*
X23005265Y-69861882D01*
X22830801Y-69784206D01*
X22644000Y-69744500D01*
X22453026Y-69744500D01*
X22266224Y-69784206D01*
X22091760Y-69861882D01*
X21937257Y-69974135D01*
X21809478Y-70116048D01*
X21809471Y-70116058D01*
X21719736Y-70271484D01*
X21713986Y-70281444D01*
X21683983Y-70373783D01*
X21656802Y-70457437D01*
X21616728Y-70516042D01*
X21551331Y-70543679D01*
X21536969Y-70544500D01*
X21453026Y-70544500D01*
X21266224Y-70584206D01*
X21091760Y-70661882D01*
X20937257Y-70774135D01*
X20809478Y-70916048D01*
X20809471Y-70916058D01*
X20713989Y-71081438D01*
X20713986Y-71081445D01*
X20654970Y-71263072D01*
X20635009Y-71453000D01*
X20654970Y-71642927D01*
X20671728Y-71694500D01*
X20713986Y-71824556D01*
X20713989Y-71824561D01*
X20771477Y-71924134D01*
X20809473Y-71989944D01*
X20907649Y-72098980D01*
X20938366Y-72162987D01*
X20940013Y-72183290D01*
X20940013Y-72531916D01*
X20920011Y-72600037D01*
X20903108Y-72621011D01*
X11429372Y-82094747D01*
X11367060Y-82128773D01*
X11340277Y-82131652D01*
X11182961Y-82131652D01*
X10996159Y-82171358D01*
X10821695Y-82249034D01*
X10667192Y-82361287D01*
X10539413Y-82503200D01*
X10539406Y-82503210D01*
X10443924Y-82668590D01*
X10443921Y-82668597D01*
X10384905Y-82850224D01*
X10364944Y-83040152D01*
X10384905Y-83230079D01*
X10407439Y-83299430D01*
X10443921Y-83411708D01*
X10443924Y-83411713D01*
X10539406Y-83577093D01*
X10539413Y-83577103D01*
X10667192Y-83719016D01*
X10667195Y-83719018D01*
X10821696Y-83831270D01*
X10996160Y-83908946D01*
X11182961Y-83948652D01*
X11320279Y-83948652D01*
X11388400Y-83968654D01*
X11429399Y-84011654D01*
X11434863Y-84021120D01*
X11434865Y-84021122D01*
X11511585Y-84106329D01*
X11542302Y-84170337D01*
X11533537Y-84240790D01*
X11507043Y-84279734D01*
X10233367Y-85553411D01*
X10171057Y-85587435D01*
X10144274Y-85590315D01*
X10053026Y-85590315D01*
X9866224Y-85630021D01*
X9691760Y-85707697D01*
X9537257Y-85819950D01*
X9409478Y-85961863D01*
X9409471Y-85961873D01*
X9313989Y-86127253D01*
X9313986Y-86127259D01*
X9308444Y-86144315D01*
X9254970Y-86308887D01*
X9235009Y-86498815D01*
X9254970Y-86688742D01*
X9269144Y-86732364D01*
X9288729Y-86792640D01*
X9300727Y-86829563D01*
X9302755Y-86900531D01*
X9266093Y-86961329D01*
X9202381Y-86992654D01*
X9180894Y-86994500D01*
X-1281598Y-86994500D01*
X-1331297Y-87007816D01*
X-1435572Y-87035756D01*
X-1435579Y-87035759D01*
X-1436355Y-87035966D01*
X-1436364Y-87035970D01*
X-1575111Y-87116075D01*
X-1575117Y-87116080D01*
X-1783590Y-87324554D01*
X-2375114Y-87916078D01*
X-2431761Y-87972725D01*
X-2488408Y-88029371D01*
X-2488412Y-88029376D01*
X-2568517Y-88168122D01*
X-2568518Y-88168125D01*
X-2568519Y-88168127D01*
X-2609987Y-88322890D01*
X-30851487Y-88322890D01*
X-30851487Y-81829082D01*
X-27649738Y-81829082D01*
X-27649738Y-81976918D01*
X-27630465Y-82073806D01*
X-27620896Y-82121913D01*
X-27620895Y-82121916D01*
X-27607192Y-82154998D01*
X-27564322Y-82258495D01*
X-27482189Y-82381416D01*
X-27377654Y-82485951D01*
X-27254733Y-82568084D01*
X-27118151Y-82624658D01*
X-26973156Y-82653500D01*
X-26973151Y-82653500D01*
X-26825325Y-82653500D01*
X-26825320Y-82653500D01*
X-26680325Y-82624658D01*
X-26543743Y-82568084D01*
X-26420822Y-82485951D01*
X-26316287Y-82381416D01*
X-26234154Y-82258495D01*
X-26177580Y-82121913D01*
X-26148738Y-81976918D01*
X-26148738Y-81829082D01*
X-26177580Y-81684087D01*
X-26234154Y-81547505D01*
X-26316287Y-81424584D01*
X-26420822Y-81320049D01*
X-26543743Y-81237916D01*
X-26680322Y-81181343D01*
X-26680325Y-81181342D01*
X-26825320Y-81152500D01*
X-26973156Y-81152500D01*
X-27045654Y-81166921D01*
X-27118152Y-81181342D01*
X-27118155Y-81181343D01*
X-27254734Y-81237916D01*
X-27377650Y-81320046D01*
X-27377657Y-81320051D01*
X-27482187Y-81424581D01*
X-27482192Y-81424588D01*
X-27564322Y-81547504D01*
X-27620895Y-81684083D01*
X-27620896Y-81684086D01*
X-27620896Y-81684087D01*
X-27649738Y-81829082D01*
X-30851487Y-81829082D01*
X-30851487Y-73829083D01*
X-27649738Y-73829083D01*
X-27649738Y-73976916D01*
X-27620896Y-74121913D01*
X-27620895Y-74121916D01*
X-27590386Y-74195570D01*
X-27564322Y-74258495D01*
X-27482189Y-74381416D01*
X-27377654Y-74485951D01*
X-27254733Y-74568084D01*
X-27118151Y-74624658D01*
X-26973156Y-74653500D01*
X-26973151Y-74653500D01*
X-26825325Y-74653500D01*
X-26825320Y-74653500D01*
X-26680325Y-74624658D01*
X-26543743Y-74568084D01*
X-26420822Y-74485951D01*
X-26316287Y-74381416D01*
X-26234154Y-74258495D01*
X-26177580Y-74121913D01*
X-26148738Y-73976918D01*
X-26148738Y-73829082D01*
X-26177580Y-73684087D01*
X-26234154Y-73547505D01*
X-26316287Y-73424584D01*
X-26420822Y-73320049D01*
X-26543743Y-73237916D01*
X-26680322Y-73181343D01*
X-26680325Y-73181342D01*
X-26825320Y-73152500D01*
X-26973156Y-73152500D01*
X-27045654Y-73166921D01*
X-27118152Y-73181342D01*
X-27118155Y-73181343D01*
X-27254734Y-73237916D01*
X-27377650Y-73320046D01*
X-27377657Y-73320051D01*
X-27482187Y-73424581D01*
X-27482192Y-73424588D01*
X-27564322Y-73547504D01*
X-27620895Y-73684083D01*
X-27620896Y-73684086D01*
X-27620896Y-73684087D01*
X-27640273Y-73781502D01*
X-27649738Y-73829083D01*
X-30851487Y-73829083D01*
X-30851487Y-72603000D01*
X-3014991Y-72603000D01*
X-2995030Y-72792927D01*
X-2977405Y-72847170D01*
X-2936014Y-72974556D01*
X-2936011Y-72974561D01*
X-2840529Y-73139941D01*
X-2840522Y-73139951D01*
X-2712743Y-73281864D01*
X-2712740Y-73281866D01*
X-2558239Y-73394118D01*
X-2383775Y-73471794D01*
X-2196974Y-73511500D01*
X-2006000Y-73511500D01*
X-1819199Y-73471794D01*
X-1819195Y-73471792D01*
X-1819194Y-73471792D01*
X-1812919Y-73469754D01*
X-1812610Y-73470707D01*
X-1769296Y-73461500D01*
X-1271378Y-73461500D01*
X-1271377Y-73461500D01*
X-1271376Y-73461500D01*
X-1190842Y-73439921D01*
X-1116614Y-73420032D01*
X-977860Y-73339922D01*
X-345931Y-72707993D01*
X8282917Y-72707993D01*
X8282917Y-72708006D01*
X8302707Y-73085647D01*
X8361868Y-73459173D01*
X8459748Y-73824469D01*
X8595268Y-74177510D01*
X8595272Y-74177518D01*
X8766955Y-74514466D01*
X8766959Y-74514472D01*
X8972930Y-74831641D01*
X9169846Y-75074811D01*
X10235038Y-74009618D01*
X10306082Y-74102205D01*
X10501663Y-74297786D01*
X10594247Y-74368828D01*
X9529055Y-75434020D01*
X9772226Y-75630937D01*
X10089395Y-75836908D01*
X10089401Y-75836912D01*
X10426349Y-76008595D01*
X10426357Y-76008599D01*
X10779398Y-76144119D01*
X11144694Y-76241999D01*
X11518220Y-76301160D01*
X11895862Y-76320951D01*
X11895874Y-76320951D01*
X12273515Y-76301160D01*
X12647041Y-76241999D01*
X13012337Y-76144119D01*
X13365378Y-76008599D01*
X13365386Y-76008595D01*
X13702334Y-75836912D01*
X13702340Y-75836908D01*
X14019509Y-75630937D01*
X14262679Y-75434020D01*
X13197487Y-74368828D01*
X13290073Y-74297786D01*
X13485654Y-74102205D01*
X13556696Y-74009619D01*
X14621888Y-75074811D01*
X14818805Y-74831641D01*
X15024776Y-74514472D01*
X15024780Y-74514466D01*
X15196463Y-74177518D01*
X15196467Y-74177510D01*
X15331987Y-73824469D01*
X15429867Y-73459173D01*
X15489028Y-73085647D01*
X15508819Y-72708006D01*
X15508819Y-72707993D01*
X15489028Y-72330352D01*
X15429867Y-71956826D01*
X15331987Y-71591530D01*
X15196467Y-71238489D01*
X15196463Y-71238481D01*
X15024774Y-70901524D01*
X14818812Y-70584368D01*
X14818807Y-70584361D01*
X14621888Y-70341187D01*
X13556696Y-71406379D01*
X13485654Y-71313795D01*
X13290073Y-71118214D01*
X13197487Y-71047170D01*
X14262679Y-69981978D01*
X14019509Y-69785062D01*
X13702340Y-69579091D01*
X13702334Y-69579087D01*
X13365386Y-69407404D01*
X13365378Y-69407400D01*
X13012337Y-69271880D01*
X12647041Y-69174000D01*
X12273515Y-69114839D01*
X11895874Y-69095049D01*
X11895862Y-69095049D01*
X11518220Y-69114839D01*
X11144694Y-69174000D01*
X10779398Y-69271880D01*
X10426357Y-69407400D01*
X10426349Y-69407404D01*
X10089392Y-69579093D01*
X9772226Y-69785063D01*
X9772222Y-69785065D01*
X9529056Y-69981977D01*
X9529055Y-69981978D01*
X10594248Y-71047171D01*
X10501663Y-71118214D01*
X10306082Y-71313795D01*
X10235039Y-71406380D01*
X9169846Y-70341187D01*
X9169845Y-70341188D01*
X8972933Y-70584354D01*
X8972931Y-70584358D01*
X8766961Y-70901524D01*
X8595272Y-71238481D01*
X8595268Y-71238489D01*
X8459748Y-71591530D01*
X8361868Y-71956826D01*
X8302707Y-72330352D01*
X8282917Y-72707993D01*
X-345931Y-72707993D01*
X2760434Y-69601628D01*
X2760435Y-69601627D01*
X5735371Y-66626691D01*
X31070368Y-66626691D01*
X31070368Y-66789308D01*
X31102092Y-66948789D01*
X31102093Y-66948792D01*
X31125079Y-67004285D01*
X31164320Y-67099021D01*
X31254660Y-67234225D01*
X31369643Y-67349208D01*
X31504847Y-67439548D01*
X31655079Y-67501776D01*
X31814563Y-67533500D01*
X31977173Y-67533500D01*
X32136657Y-67501776D01*
X32286889Y-67439548D01*
X32422093Y-67349208D01*
X32537076Y-67234225D01*
X32627416Y-67099021D01*
X32689644Y-66948789D01*
X32721368Y-66789305D01*
X32721368Y-66626695D01*
X32689644Y-66467211D01*
X32627416Y-66316979D01*
X32537076Y-66181775D01*
X32422093Y-66066792D01*
X32286889Y-65976452D01*
X32192153Y-65937211D01*
X32136660Y-65914225D01*
X32136657Y-65914224D01*
X31977176Y-65882500D01*
X31977173Y-65882500D01*
X31814563Y-65882500D01*
X31814559Y-65882500D01*
X31655078Y-65914224D01*
X31655075Y-65914225D01*
X31504847Y-65976452D01*
X31369644Y-66066791D01*
X31369638Y-66066796D01*
X31254664Y-66181770D01*
X31254659Y-66181776D01*
X31164320Y-66316979D01*
X31102093Y-66467207D01*
X31102092Y-66467210D01*
X31070368Y-66626691D01*
X5735371Y-66626691D01*
X7863657Y-64498405D01*
X7925969Y-64464379D01*
X7952752Y-64461500D01*
X35444274Y-64461500D01*
X35512395Y-64481502D01*
X35533369Y-64498405D01*
X40298104Y-69263140D01*
X40332130Y-69325452D01*
X40335009Y-69352235D01*
X40335009Y-69352999D01*
X40354970Y-69542927D01*
X40374044Y-69601628D01*
X40413986Y-69724556D01*
X40413989Y-69724561D01*
X40509471Y-69889941D01*
X40509478Y-69889951D01*
X40637257Y-70031864D01*
X40637260Y-70031866D01*
X40791761Y-70144118D01*
X40966225Y-70221794D01*
X41153026Y-70261500D01*
X41344000Y-70261500D01*
X41530801Y-70221794D01*
X41705265Y-70144118D01*
X41859766Y-70031866D01*
X41859768Y-70031864D01*
X41987547Y-69889951D01*
X41987548Y-69889949D01*
X41987553Y-69889944D01*
X42083040Y-69724556D01*
X42142055Y-69542928D01*
X42162017Y-69353000D01*
X42142055Y-69163072D01*
X42083040Y-68981444D01*
X41987553Y-68816056D01*
X41987551Y-68816054D01*
X41987547Y-68816048D01*
X41859768Y-68674135D01*
X41705265Y-68561882D01*
X41530801Y-68484206D01*
X41344000Y-68444500D01*
X41252752Y-68444500D01*
X41184631Y-68424498D01*
X41163657Y-68407595D01*
X36122146Y-63366083D01*
X36122136Y-63366075D01*
X35983390Y-63285970D01*
X35983387Y-63285969D01*
X35983386Y-63285968D01*
X35983384Y-63285967D01*
X35983383Y-63285967D01*
X35906004Y-63265234D01*
X35906000Y-63265233D01*
X35828624Y-63244500D01*
X7568402Y-63244500D01*
X7568401Y-63244500D01*
X7491021Y-63265233D01*
X7491021Y-63265234D01*
X7413644Y-63285967D01*
X7413640Y-63285968D01*
X7413635Y-63285970D01*
X7274889Y-63366075D01*
X7274879Y-63366083D01*
X1899885Y-68741079D01*
X-1298242Y-71939204D01*
X-1360554Y-71973230D01*
X-1431370Y-71968165D01*
X-1480974Y-71934418D01*
X-1490234Y-71924134D01*
X-1490235Y-71924133D01*
X-1490236Y-71924132D01*
X-1644735Y-71811882D01*
X-1819199Y-71734206D01*
X-2006000Y-71694500D01*
X-2196974Y-71694500D01*
X-2383776Y-71734206D01*
X-2558240Y-71811882D01*
X-2712743Y-71924135D01*
X-2840522Y-72066048D01*
X-2840529Y-72066058D01*
X-2936011Y-72231438D01*
X-2936014Y-72231445D01*
X-2995030Y-72413072D01*
X-3014991Y-72603000D01*
X-30851487Y-72603000D01*
X-30851487Y-65331709D01*
X-29001987Y-65331709D01*
X-29001987Y-65574290D01*
X-28970327Y-65814782D01*
X-28907543Y-66049095D01*
X-28907542Y-66049097D01*
X-28907541Y-66049100D01*
X-28814711Y-66273212D01*
X-28814710Y-66273213D01*
X-28814705Y-66273224D01*
X-28693426Y-66483285D01*
X-28693424Y-66483288D01*
X-28693423Y-66483289D01*
X-28545752Y-66675738D01*
X-28545748Y-66675742D01*
X-28545743Y-66675748D01*
X-28374236Y-66847255D01*
X-28374231Y-66847259D01*
X-28374225Y-66847265D01*
X-28181776Y-66994936D01*
X-28181773Y-66994938D01*
X-27971712Y-67116217D01*
X-27971708Y-67116218D01*
X-27971699Y-67116224D01*
X-27747587Y-67209054D01*
X-27513276Y-67271838D01*
X-27513272Y-67271838D01*
X-27513270Y-67271839D01*
X-27451285Y-67279999D01*
X-27272775Y-67303500D01*
X-27272768Y-67303500D01*
X-27030206Y-67303500D01*
X-27030199Y-67303500D01*
X-26812850Y-67274885D01*
X-26789705Y-67271839D01*
X-26789705Y-67271838D01*
X-26789698Y-67271838D01*
X-26555387Y-67209054D01*
X-26331275Y-67116224D01*
X-26121198Y-66994936D01*
X-25928749Y-66847265D01*
X-25757222Y-66675738D01*
X-25609551Y-66483289D01*
X-25488263Y-66273212D01*
X-25395433Y-66049100D01*
X-25332649Y-65814789D01*
X-25300987Y-65574288D01*
X-25300987Y-65331712D01*
X-25332649Y-65091211D01*
X-25395433Y-64856900D01*
X-25488263Y-64632788D01*
X-25488269Y-64632779D01*
X-25488270Y-64632775D01*
X-25609549Y-64422714D01*
X-25673551Y-64339305D01*
X-25757222Y-64230262D01*
X-25757228Y-64230256D01*
X-25757232Y-64230251D01*
X-25928739Y-64058744D01*
X-25928745Y-64058739D01*
X-25928749Y-64058735D01*
X-26121198Y-63911064D01*
X-26121199Y-63911063D01*
X-26121202Y-63911061D01*
X-26331263Y-63789782D01*
X-26331271Y-63789778D01*
X-26331275Y-63789776D01*
X-26555387Y-63696946D01*
X-26555390Y-63696945D01*
X-26555392Y-63696944D01*
X-26789705Y-63634160D01*
X-27030197Y-63602500D01*
X-27030199Y-63602500D01*
X-27272775Y-63602500D01*
X-27272778Y-63602500D01*
X-27513270Y-63634160D01*
X-27747583Y-63696944D01*
X-27747587Y-63696946D01*
X-27943988Y-63778298D01*
X-27971701Y-63789777D01*
X-27971712Y-63789782D01*
X-28181773Y-63911061D01*
X-28374225Y-64058735D01*
X-28374236Y-64058744D01*
X-28545743Y-64230251D01*
X-28545752Y-64230262D01*
X-28693426Y-64422714D01*
X-28814705Y-64632775D01*
X-28814710Y-64632786D01*
X-28907541Y-64856900D01*
X-28907543Y-64856904D01*
X-28970327Y-65091217D01*
X-29001987Y-65331709D01*
X-30851487Y-65331709D01*
X-30851487Y-62854450D01*
X-30851454Y-62851561D01*
X-30849484Y-62765666D01*
X-30847098Y-62743987D01*
X-30813328Y-62574122D01*
X-30806163Y-62550495D01*
X-30740454Y-62391827D01*
X-30728818Y-62370053D01*
X-30633411Y-62227255D01*
X-30617746Y-62208167D01*
X-30496314Y-62086733D01*
X-30477224Y-62071068D01*
X-30334439Y-61975666D01*
X-30312660Y-61964025D01*
X-30153992Y-61898313D01*
X-30130362Y-61891147D01*
X-29960501Y-61857374D01*
X-29938808Y-61854989D01*
X-29859981Y-61853193D01*
X-29852934Y-61853033D01*
X-29850065Y-61853000D01*
X50146921Y-61853000D01*
X50150071Y-61853038D01*
G37*
%TD.AperFunction*%
%TD*%
M02*
