%TF.GenerationSoftware,KiCad,Pcbnew,8.0.8*%
%TF.CreationDate,2025-02-14T20:36:54+01:00*%
%TF.ProjectId,clarinoid-devboard,636c6172-696e-46f6-9964-2d646576626f,rev?*%
%TF.SameCoordinates,Original*%
%TF.FileFunction,Paste,Top*%
%TF.FilePolarity,Positive*%
%FSLAX46Y46*%
G04 Gerber Fmt 4.6, Leading zero omitted, Abs format (unit mm)*
G04 Created by KiCad (PCBNEW 8.0.8) date 2025-02-14 20:36:54*
%MOMM*%
%LPD*%
G01*
G04 APERTURE LIST*
G04 Aperture macros list*
%AMRoundRect*
0 Rectangle with rounded corners*
0 $1 Rounding radius*
0 $2 $3 $4 $5 $6 $7 $8 $9 X,Y pos of 4 corners*
0 Add a 4 corners polygon primitive as box body*
4,1,4,$2,$3,$4,$5,$6,$7,$8,$9,$2,$3,0*
0 Add four circle primitives for the rounded corners*
1,1,$1+$1,$2,$3*
1,1,$1+$1,$4,$5*
1,1,$1+$1,$6,$7*
1,1,$1+$1,$8,$9*
0 Add four rect primitives between the rounded corners*
20,1,$1+$1,$2,$3,$4,$5,0*
20,1,$1+$1,$4,$5,$6,$7,0*
20,1,$1+$1,$6,$7,$8,$9,0*
20,1,$1+$1,$8,$9,$2,$3,0*%
G04 Aperture macros list end*
%ADD10RoundRect,0.225000X-0.225000X-0.375000X0.225000X-0.375000X0.225000X0.375000X-0.225000X0.375000X0*%
%ADD11RoundRect,0.250000X-0.475000X0.250000X-0.475000X-0.250000X0.475000X-0.250000X0.475000X0.250000X0*%
%ADD12R,1.000000X0.750000*%
%ADD13R,1.600000X0.700000*%
%ADD14R,1.500000X1.200000*%
%ADD15R,2.200000X1.200000*%
%ADD16R,1.500000X1.600000*%
%ADD17RoundRect,0.250000X0.312500X0.625000X-0.312500X0.625000X-0.312500X-0.625000X0.312500X-0.625000X0*%
%ADD18RoundRect,0.250000X-0.312500X-0.625000X0.312500X-0.625000X0.312500X0.625000X-0.312500X0.625000X0*%
%ADD19RoundRect,0.250000X-0.250000X-0.475000X0.250000X-0.475000X0.250000X0.475000X-0.250000X0.475000X0*%
%ADD20R,1.550000X0.300000*%
%ADD21R,2.750000X1.200000*%
%ADD22RoundRect,0.150000X-0.512500X-0.150000X0.512500X-0.150000X0.512500X0.150000X-0.512500X0.150000X0*%
G04 APERTURE END LIST*
D10*
%TO.C,D12*%
X-4651487Y-68103000D03*
X-1351487Y-68103000D03*
%TD*%
D11*
%TO.C,C1*%
X-13651487Y-64003000D03*
X-13651487Y-65903000D03*
%TD*%
%TO.C,C29*%
X-2351487Y-64003000D03*
X-2351487Y-65903000D03*
%TD*%
%TO.C,C26*%
X-9451487Y-64003000D03*
X-9451487Y-65903000D03*
%TD*%
D12*
%TO.C,SW6*%
X-351487Y-71478000D03*
X-351487Y-75228000D03*
X5648513Y-71478000D03*
X5648513Y-75228000D03*
%TD*%
D11*
%TO.C,C30*%
X-101487Y-64003000D03*
X-101487Y-65903000D03*
%TD*%
%TO.C,C2*%
X-11551487Y-64003000D03*
X-11551487Y-65903000D03*
%TD*%
D13*
%TO.C,J38*%
X-15899238Y-81103000D03*
X-15899238Y-80003000D03*
X-15899238Y-78903000D03*
X-15899238Y-77803000D03*
X-15899238Y-76703000D03*
X-15899238Y-75603000D03*
X-15899238Y-74503000D03*
X-15899238Y-73403000D03*
X-15899238Y-72303000D03*
D14*
X-16899238Y-71103000D03*
D15*
X-26499238Y-71103000D03*
X-26499238Y-86603000D03*
D16*
X-16899238Y-85703000D03*
%TD*%
D17*
%TO.C,R14*%
X-6638987Y-68103000D03*
X-9563987Y-68103000D03*
%TD*%
D18*
%TO.C,R15*%
X-13113987Y-80653000D03*
X-10188987Y-80653000D03*
%TD*%
D19*
%TO.C,C28*%
X-13201487Y-77953000D03*
X-11301487Y-77953000D03*
%TD*%
D11*
%TO.C,C31*%
X2148513Y-64003000D03*
X2148513Y-65903000D03*
%TD*%
D20*
%TO.C,U40*%
X37170868Y-67458000D03*
X29620868Y-67708000D03*
X37170868Y-67958000D03*
X29620868Y-68208000D03*
X37170868Y-68458000D03*
X29620868Y-68708000D03*
X37170868Y-68958000D03*
X29620868Y-69208000D03*
X37170868Y-69458000D03*
X29620868Y-69708000D03*
X37170868Y-69958000D03*
X29620868Y-70208000D03*
X37170868Y-70458000D03*
X29620868Y-70708000D03*
X37170868Y-70958000D03*
X29620868Y-71208000D03*
X37170868Y-71458000D03*
X29620868Y-71708000D03*
X37170868Y-71958000D03*
X29620868Y-72208000D03*
X37170868Y-72458000D03*
X29620868Y-72708000D03*
X37170868Y-72958000D03*
X29620868Y-75208000D03*
X37170868Y-75458000D03*
X29620868Y-75708000D03*
X37170868Y-75958000D03*
X29620868Y-76208000D03*
X37170868Y-76458000D03*
X29620868Y-76708000D03*
X37170868Y-76958000D03*
X29620868Y-77208000D03*
X37170868Y-77458000D03*
X29620868Y-77708000D03*
X37170868Y-77958000D03*
X29620868Y-78208000D03*
X37170868Y-78458000D03*
X29620868Y-78708000D03*
X37170868Y-78958000D03*
X29620868Y-79208000D03*
X37170868Y-79458000D03*
X29620868Y-79708000D03*
X37170868Y-79958000D03*
X29620868Y-80208000D03*
X37170868Y-80458000D03*
X29620868Y-80708000D03*
X37170868Y-80958000D03*
X29620868Y-81208000D03*
X37170868Y-81458000D03*
X29620868Y-81708000D03*
X37170868Y-81958000D03*
X29620868Y-82208000D03*
X37170868Y-82458000D03*
X29620868Y-82708000D03*
X37170868Y-82958000D03*
X29620868Y-83208000D03*
X37170868Y-83458000D03*
X29620868Y-83708000D03*
X37170868Y-83958000D03*
X29620868Y-84208000D03*
X37170868Y-84458000D03*
X29620868Y-84708000D03*
X37170868Y-84958000D03*
X29620868Y-85208000D03*
X37170868Y-85458000D03*
X29620868Y-85708000D03*
X37170868Y-85958000D03*
D21*
X36395868Y-66358000D03*
X36395868Y-87058000D03*
%TD*%
D22*
%TO.C,U19*%
X-6788987Y-64003000D03*
X-6788987Y-64953000D03*
X-6788987Y-65903000D03*
X-4513987Y-65903000D03*
X-4513987Y-64003000D03*
%TD*%
M02*
